<?xml version="1.0" encoding="utf-8" standalone="no"?>
<!DOCTYPE svg PUBLIC "-//W3C//DTD SVG 1.1//EN"
  "http://www.w3.org/Graphics/SVG/1.1/DTD/svg11.dtd">
<svg xmlns:xlink="http://www.w3.org/1999/xlink" width="568.599219pt" height="280.669375pt" viewBox="0 0 568.599219 280.669375" xmlns="http://www.w3.org/2000/svg" version="1.1">
 <metadata>
  <rdf:RDF xmlns:dc="http://purl.org/dc/elements/1.1/" xmlns:cc="http://creativecommons.org/ns#" xmlns:rdf="http://www.w3.org/1999/02/22-rdf-syntax-ns#">
   <cc:Work>
    <dc:type rdf:resource="http://purl.org/dc/dcmitype/StillImage"/>
    <dc:date>2025-12-01T04:44:10.858520</dc:date>
    <dc:format>image/svg+xml</dc:format>
    <dc:creator>
     <cc:Agent>
      <dc:title>Matplotlib v3.8.4, https://matplotlib.org/</dc:title>
     </cc:Agent>
    </dc:creator>
   </cc:Work>
  </rdf:RDF>
 </metadata>
 <defs>
  <style type="text/css">*{stroke-linejoin: round; stroke-linecap: butt}</style>
 </defs>
 <g id="figure_1">
  <g id="patch_1">
   <path d="M 0 280.669375 
L 568.599219 280.669375 
L 568.599219 0 
L 0 0 
z
" style="fill: #ffffff"/>
  </g>
  <g id="axes_1">
   <g id="patch_2">
    <path d="M 58.51375 248.42 
L 540.21875 248.42 
L 540.21875 7.2 
L 58.51375 7.2 
z
" style="fill: #ffffff"/>
   </g>
   <g id="matplotlib.axis_1">
    <g id="xtick_1">
     <g id="line2d_1">
      <defs>
       <path id="m0196dd0b1b" d="M 0 0 
L 0 8 
" style="stroke: #000000; stroke-width: 2"/>
      </defs>
      <g>
       <use xlink:href="#m0196dd0b1b" x="58.51375" y="248.42" style="stroke: #000000; stroke-width: 2"/>
      </g>
     </g>
     <g id="text_1">
      <!-- Pole 1 -->
      <g transform="translate(37.333281 270.557813) scale(0.14 -0.14)">
       <defs>
        <path id="DejaVuSans-50" d="M 1259 4147 
L 1259 2394 
L 2053 2394 
Q 2494 2394 2734 2622 
Q 2975 2850 2975 3272 
Q 2975 3691 2734 3919 
Q 2494 4147 2053 4147 
L 1259 4147 
z
M 628 4666 
L 2053 4666 
Q 2838 4666 3239 4311 
Q 3641 3956 3641 3272 
Q 3641 2581 3239 2228 
Q 2838 1875 2053 1875 
L 1259 1875 
L 1259 0 
L 628 0 
L 628 4666 
z
" transform="scale(0.015625)"/>
        <path id="DejaVuSans-6f" d="M 1959 3097 
Q 1497 3097 1228 2736 
Q 959 2375 959 1747 
Q 959 1119 1226 758 
Q 1494 397 1959 397 
Q 2419 397 2687 759 
Q 2956 1122 2956 1747 
Q 2956 2369 2687 2733 
Q 2419 3097 1959 3097 
z
M 1959 3584 
Q 2709 3584 3137 3096 
Q 3566 2609 3566 1747 
Q 3566 888 3137 398 
Q 2709 -91 1959 -91 
Q 1206 -91 779 398 
Q 353 888 353 1747 
Q 353 2609 779 3096 
Q 1206 3584 1959 3584 
z
" transform="scale(0.015625)"/>
        <path id="DejaVuSans-6c" d="M 603 4863 
L 1178 4863 
L 1178 0 
L 603 0 
L 603 4863 
z
" transform="scale(0.015625)"/>
        <path id="DejaVuSans-65" d="M 3597 1894 
L 3597 1613 
L 953 1613 
Q 991 1019 1311 708 
Q 1631 397 2203 397 
Q 2534 397 2845 478 
Q 3156 559 3463 722 
L 3463 178 
Q 3153 47 2828 -22 
Q 2503 -91 2169 -91 
Q 1331 -91 842 396 
Q 353 884 353 1716 
Q 353 2575 817 3079 
Q 1281 3584 2069 3584 
Q 2775 3584 3186 3129 
Q 3597 2675 3597 1894 
z
M 3022 2063 
Q 3016 2534 2758 2815 
Q 2500 3097 2075 3097 
Q 1594 3097 1305 2825 
Q 1016 2553 972 2059 
L 3022 2063 
z
" transform="scale(0.015625)"/>
        <path id="DejaVuSans-20" transform="scale(0.015625)"/>
        <path id="DejaVuSans-31" d="M 794 531 
L 1825 531 
L 1825 4091 
L 703 3866 
L 703 4441 
L 1819 4666 
L 2450 4666 
L 2450 531 
L 3481 531 
L 3481 0 
L 794 0 
L 794 531 
z
" transform="scale(0.015625)"/>
       </defs>
       <use xlink:href="#DejaVuSans-50"/>
       <use xlink:href="#DejaVuSans-6f" x="56.677734"/>
       <use xlink:href="#DejaVuSans-6c" x="117.859375"/>
       <use xlink:href="#DejaVuSans-65" x="145.642578"/>
       <use xlink:href="#DejaVuSans-20" x="207.166016"/>
       <use xlink:href="#DejaVuSans-31" x="238.953125"/>
      </g>
     </g>
    </g>
    <g id="xtick_2">
     <g id="line2d_2">
      <g>
       <use xlink:href="#m0196dd0b1b" x="299.36625" y="248.42" style="stroke: #000000; stroke-width: 2"/>
      </g>
     </g>
     <g id="text_2">
      <!-- Equator -->
      <g transform="translate(271.868281 270.557813) scale(0.14 -0.14)">
       <defs>
        <path id="DejaVuSans-45" d="M 628 4666 
L 3578 4666 
L 3578 4134 
L 1259 4134 
L 1259 2753 
L 3481 2753 
L 3481 2222 
L 1259 2222 
L 1259 531 
L 3634 531 
L 3634 0 
L 628 0 
L 628 4666 
z
" transform="scale(0.015625)"/>
        <path id="DejaVuSans-71" d="M 947 1747 
Q 947 1113 1208 752 
Q 1469 391 1925 391 
Q 2381 391 2643 752 
Q 2906 1113 2906 1747 
Q 2906 2381 2643 2742 
Q 2381 3103 1925 3103 
Q 1469 3103 1208 2742 
Q 947 2381 947 1747 
z
M 2906 525 
Q 2725 213 2448 61 
Q 2172 -91 1784 -91 
Q 1150 -91 751 415 
Q 353 922 353 1747 
Q 353 2572 751 3078 
Q 1150 3584 1784 3584 
Q 2172 3584 2448 3432 
Q 2725 3281 2906 2969 
L 2906 3500 
L 3481 3500 
L 3481 -1331 
L 2906 -1331 
L 2906 525 
z
" transform="scale(0.015625)"/>
        <path id="DejaVuSans-75" d="M 544 1381 
L 544 3500 
L 1119 3500 
L 1119 1403 
Q 1119 906 1312 657 
Q 1506 409 1894 409 
Q 2359 409 2629 706 
Q 2900 1003 2900 1516 
L 2900 3500 
L 3475 3500 
L 3475 0 
L 2900 0 
L 2900 538 
Q 2691 219 2414 64 
Q 2138 -91 1772 -91 
Q 1169 -91 856 284 
Q 544 659 544 1381 
z
M 1991 3584 
L 1991 3584 
z
" transform="scale(0.015625)"/>
        <path id="DejaVuSans-61" d="M 2194 1759 
Q 1497 1759 1228 1600 
Q 959 1441 959 1056 
Q 959 750 1161 570 
Q 1363 391 1709 391 
Q 2188 391 2477 730 
Q 2766 1069 2766 1631 
L 2766 1759 
L 2194 1759 
z
M 3341 1997 
L 3341 0 
L 2766 0 
L 2766 531 
Q 2569 213 2275 61 
Q 1981 -91 1556 -91 
Q 1019 -91 701 211 
Q 384 513 384 1019 
Q 384 1609 779 1909 
Q 1175 2209 1959 2209 
L 2766 2209 
L 2766 2266 
Q 2766 2663 2505 2880 
Q 2244 3097 1772 3097 
Q 1472 3097 1187 3025 
Q 903 2953 641 2809 
L 641 3341 
Q 956 3463 1253 3523 
Q 1550 3584 1831 3584 
Q 2591 3584 2966 3190 
Q 3341 2797 3341 1997 
z
" transform="scale(0.015625)"/>
        <path id="DejaVuSans-74" d="M 1172 4494 
L 1172 3500 
L 2356 3500 
L 2356 3053 
L 1172 3053 
L 1172 1153 
Q 1172 725 1289 603 
Q 1406 481 1766 481 
L 2356 481 
L 2356 0 
L 1766 0 
Q 1100 0 847 248 
Q 594 497 594 1153 
L 594 3053 
L 172 3053 
L 172 3500 
L 594 3500 
L 594 4494 
L 1172 4494 
z
" transform="scale(0.015625)"/>
        <path id="DejaVuSans-72" d="M 2631 2963 
Q 2534 3019 2420 3045 
Q 2306 3072 2169 3072 
Q 1681 3072 1420 2755 
Q 1159 2438 1159 1844 
L 1159 0 
L 581 0 
L 581 3500 
L 1159 3500 
L 1159 2956 
Q 1341 3275 1631 3429 
Q 1922 3584 2338 3584 
Q 2397 3584 2469 3576 
Q 2541 3569 2628 3553 
L 2631 2963 
z
" transform="scale(0.015625)"/>
       </defs>
       <use xlink:href="#DejaVuSans-45"/>
       <use xlink:href="#DejaVuSans-71" x="63.183594"/>
       <use xlink:href="#DejaVuSans-75" x="126.660156"/>
       <use xlink:href="#DejaVuSans-61" x="190.039062"/>
       <use xlink:href="#DejaVuSans-74" x="251.318359"/>
       <use xlink:href="#DejaVuSans-6f" x="290.527344"/>
       <use xlink:href="#DejaVuSans-72" x="351.708984"/>
      </g>
     </g>
    </g>
    <g id="xtick_3">
     <g id="line2d_3">
      <g>
       <use xlink:href="#m0196dd0b1b" x="540.21875" y="248.42" style="stroke: #000000; stroke-width: 2"/>
      </g>
     </g>
     <g id="text_3">
      <!-- Pole 2 -->
      <g transform="translate(519.038281 270.557813) scale(0.14 -0.14)">
       <defs>
        <path id="DejaVuSans-32" d="M 1228 531 
L 3431 531 
L 3431 0 
L 469 0 
L 469 531 
Q 828 903 1448 1529 
Q 2069 2156 2228 2338 
Q 2531 2678 2651 2914 
Q 2772 3150 2772 3378 
Q 2772 3750 2511 3984 
Q 2250 4219 1831 4219 
Q 1534 4219 1204 4116 
Q 875 4013 500 3803 
L 500 4441 
Q 881 4594 1212 4672 
Q 1544 4750 1819 4750 
Q 2544 4750 2975 4387 
Q 3406 4025 3406 3419 
Q 3406 3131 3298 2873 
Q 3191 2616 2906 2266 
Q 2828 2175 2409 1742 
Q 1991 1309 1228 531 
z
" transform="scale(0.015625)"/>
       </defs>
       <use xlink:href="#DejaVuSans-50"/>
       <use xlink:href="#DejaVuSans-6f" x="56.677734"/>
       <use xlink:href="#DejaVuSans-6c" x="117.859375"/>
       <use xlink:href="#DejaVuSans-65" x="145.642578"/>
       <use xlink:href="#DejaVuSans-20" x="207.166016"/>
       <use xlink:href="#DejaVuSans-32" x="238.953125"/>
      </g>
     </g>
    </g>
   </g>
   <g id="matplotlib.axis_2">
    <g id="ytick_1">
     <g id="line2d_4">
      <defs>
       <path id="m6db3835b94" d="M 0 0 
L -8 0 
" style="stroke: #000000; stroke-width: 2"/>
      </defs>
      <g>
       <use xlink:href="#m6db3835b94" x="58.51375" y="248.42" style="stroke: #000000; stroke-width: 2"/>
      </g>
     </g>
     <g id="text_4">
      <!-- 0.0 -->
      <g transform="translate(24.749375 253.738906) scale(0.14 -0.14)">
       <defs>
        <path id="DejaVuSans-30" d="M 2034 4250 
Q 1547 4250 1301 3770 
Q 1056 3291 1056 2328 
Q 1056 1369 1301 889 
Q 1547 409 2034 409 
Q 2525 409 2770 889 
Q 3016 1369 3016 2328 
Q 3016 3291 2770 3770 
Q 2525 4250 2034 4250 
z
M 2034 4750 
Q 2819 4750 3233 4129 
Q 3647 3509 3647 2328 
Q 3647 1150 3233 529 
Q 2819 -91 2034 -91 
Q 1250 -91 836 529 
Q 422 1150 422 2328 
Q 422 3509 836 4129 
Q 1250 4750 2034 4750 
z
" transform="scale(0.015625)"/>
        <path id="DejaVuSans-2e" d="M 684 794 
L 1344 794 
L 1344 0 
L 684 0 
L 684 794 
z
" transform="scale(0.015625)"/>
       </defs>
       <use xlink:href="#DejaVuSans-30"/>
       <use xlink:href="#DejaVuSans-2e" x="63.623047"/>
       <use xlink:href="#DejaVuSans-30" x="95.410156"/>
      </g>
     </g>
    </g>
    <g id="ytick_2">
     <g id="line2d_5">
      <g>
       <use xlink:href="#m6db3835b94" x="58.51375" y="203.675385" style="stroke: #000000; stroke-width: 2"/>
      </g>
     </g>
     <g id="text_5">
      <!-- 0.2 -->
      <g transform="translate(24.749375 208.994291) scale(0.14 -0.14)">
       <use xlink:href="#DejaVuSans-30"/>
       <use xlink:href="#DejaVuSans-2e" x="63.623047"/>
       <use xlink:href="#DejaVuSans-32" x="95.410156"/>
      </g>
     </g>
    </g>
    <g id="ytick_3">
     <g id="line2d_6">
      <g>
       <use xlink:href="#m6db3835b94" x="58.51375" y="158.93077" style="stroke: #000000; stroke-width: 2"/>
      </g>
     </g>
     <g id="text_6">
      <!-- 0.4 -->
      <g transform="translate(24.749375 164.249676) scale(0.14 -0.14)">
       <defs>
        <path id="DejaVuSans-34" d="M 2419 4116 
L 825 1625 
L 2419 1625 
L 2419 4116 
z
M 2253 4666 
L 3047 4666 
L 3047 1625 
L 3713 1625 
L 3713 1100 
L 3047 1100 
L 3047 0 
L 2419 0 
L 2419 1100 
L 313 1100 
L 313 1709 
L 2253 4666 
z
" transform="scale(0.015625)"/>
       </defs>
       <use xlink:href="#DejaVuSans-30"/>
       <use xlink:href="#DejaVuSans-2e" x="63.623047"/>
       <use xlink:href="#DejaVuSans-34" x="95.410156"/>
      </g>
     </g>
    </g>
    <g id="ytick_4">
     <g id="line2d_7">
      <g>
       <use xlink:href="#m6db3835b94" x="58.51375" y="114.186155" style="stroke: #000000; stroke-width: 2"/>
      </g>
     </g>
     <g id="text_7">
      <!-- 0.6 -->
      <g transform="translate(24.749375 119.505061) scale(0.14 -0.14)">
       <defs>
        <path id="DejaVuSans-36" d="M 2113 2584 
Q 1688 2584 1439 2293 
Q 1191 2003 1191 1497 
Q 1191 994 1439 701 
Q 1688 409 2113 409 
Q 2538 409 2786 701 
Q 3034 994 3034 1497 
Q 3034 2003 2786 2293 
Q 2538 2584 2113 2584 
z
M 3366 4563 
L 3366 3988 
Q 3128 4100 2886 4159 
Q 2644 4219 2406 4219 
Q 1781 4219 1451 3797 
Q 1122 3375 1075 2522 
Q 1259 2794 1537 2939 
Q 1816 3084 2150 3084 
Q 2853 3084 3261 2657 
Q 3669 2231 3669 1497 
Q 3669 778 3244 343 
Q 2819 -91 2113 -91 
Q 1303 -91 875 529 
Q 447 1150 447 2328 
Q 447 3434 972 4092 
Q 1497 4750 2381 4750 
Q 2619 4750 2861 4703 
Q 3103 4656 3366 4563 
z
" transform="scale(0.015625)"/>
       </defs>
       <use xlink:href="#DejaVuSans-30"/>
       <use xlink:href="#DejaVuSans-2e" x="63.623047"/>
       <use xlink:href="#DejaVuSans-36" x="95.410156"/>
      </g>
     </g>
    </g>
    <g id="ytick_5">
     <g id="line2d_8">
      <g>
       <use xlink:href="#m6db3835b94" x="58.51375" y="69.44154" style="stroke: #000000; stroke-width: 2"/>
      </g>
     </g>
     <g id="text_8">
      <!-- 0.8 -->
      <g transform="translate(24.749375 74.760446) scale(0.14 -0.14)">
       <defs>
        <path id="DejaVuSans-38" d="M 2034 2216 
Q 1584 2216 1326 1975 
Q 1069 1734 1069 1313 
Q 1069 891 1326 650 
Q 1584 409 2034 409 
Q 2484 409 2743 651 
Q 3003 894 3003 1313 
Q 3003 1734 2745 1975 
Q 2488 2216 2034 2216 
z
M 1403 2484 
Q 997 2584 770 2862 
Q 544 3141 544 3541 
Q 544 4100 942 4425 
Q 1341 4750 2034 4750 
Q 2731 4750 3128 4425 
Q 3525 4100 3525 3541 
Q 3525 3141 3298 2862 
Q 3072 2584 2669 2484 
Q 3125 2378 3379 2068 
Q 3634 1759 3634 1313 
Q 3634 634 3220 271 
Q 2806 -91 2034 -91 
Q 1263 -91 848 271 
Q 434 634 434 1313 
Q 434 1759 690 2068 
Q 947 2378 1403 2484 
z
M 1172 3481 
Q 1172 3119 1398 2916 
Q 1625 2713 2034 2713 
Q 2441 2713 2670 2916 
Q 2900 3119 2900 3481 
Q 2900 3844 2670 4047 
Q 2441 4250 2034 4250 
Q 1625 4250 1398 4047 
Q 1172 3844 1172 3481 
z
" transform="scale(0.015625)"/>
       </defs>
       <use xlink:href="#DejaVuSans-30"/>
       <use xlink:href="#DejaVuSans-2e" x="63.623047"/>
       <use xlink:href="#DejaVuSans-38" x="95.410156"/>
      </g>
     </g>
    </g>
    <g id="ytick_6">
     <g id="line2d_9">
      <g>
       <use xlink:href="#m6db3835b94" x="58.51375" y="24.696925" style="stroke: #000000; stroke-width: 2"/>
      </g>
     </g>
     <g id="text_9">
      <!-- 1.0 -->
      <g transform="translate(24.749375 30.015831) scale(0.14 -0.14)">
       <use xlink:href="#DejaVuSans-31"/>
       <use xlink:href="#DejaVuSans-2e" x="63.623047"/>
       <use xlink:href="#DejaVuSans-30" x="95.410156"/>
      </g>
     </g>
    </g>
    <g id="text_10">
     <!-- Normalized Intensity -->
     <g transform="translate(17.837813 200.199844) rotate(-90) scale(0.14 -0.14)">
      <defs>
       <path id="DejaVuSans-4e" d="M 628 4666 
L 1478 4666 
L 3547 763 
L 3547 4666 
L 4159 4666 
L 4159 0 
L 3309 0 
L 1241 3903 
L 1241 0 
L 628 0 
L 628 4666 
z
" transform="scale(0.015625)"/>
       <path id="DejaVuSans-6d" d="M 3328 2828 
Q 3544 3216 3844 3400 
Q 4144 3584 4550 3584 
Q 5097 3584 5394 3201 
Q 5691 2819 5691 2113 
L 5691 0 
L 5113 0 
L 5113 2094 
Q 5113 2597 4934 2840 
Q 4756 3084 4391 3084 
Q 3944 3084 3684 2787 
Q 3425 2491 3425 1978 
L 3425 0 
L 2847 0 
L 2847 2094 
Q 2847 2600 2669 2842 
Q 2491 3084 2119 3084 
Q 1678 3084 1418 2786 
Q 1159 2488 1159 1978 
L 1159 0 
L 581 0 
L 581 3500 
L 1159 3500 
L 1159 2956 
Q 1356 3278 1631 3431 
Q 1906 3584 2284 3584 
Q 2666 3584 2933 3390 
Q 3200 3197 3328 2828 
z
" transform="scale(0.015625)"/>
       <path id="DejaVuSans-69" d="M 603 3500 
L 1178 3500 
L 1178 0 
L 603 0 
L 603 3500 
z
M 603 4863 
L 1178 4863 
L 1178 4134 
L 603 4134 
L 603 4863 
z
" transform="scale(0.015625)"/>
       <path id="DejaVuSans-7a" d="M 353 3500 
L 3084 3500 
L 3084 2975 
L 922 459 
L 3084 459 
L 3084 0 
L 275 0 
L 275 525 
L 2438 3041 
L 353 3041 
L 353 3500 
z
" transform="scale(0.015625)"/>
       <path id="DejaVuSans-64" d="M 2906 2969 
L 2906 4863 
L 3481 4863 
L 3481 0 
L 2906 0 
L 2906 525 
Q 2725 213 2448 61 
Q 2172 -91 1784 -91 
Q 1150 -91 751 415 
Q 353 922 353 1747 
Q 353 2572 751 3078 
Q 1150 3584 1784 3584 
Q 2172 3584 2448 3432 
Q 2725 3281 2906 2969 
z
M 947 1747 
Q 947 1113 1208 752 
Q 1469 391 1925 391 
Q 2381 391 2643 752 
Q 2906 1113 2906 1747 
Q 2906 2381 2643 2742 
Q 2381 3103 1925 3103 
Q 1469 3103 1208 2742 
Q 947 2381 947 1747 
z
" transform="scale(0.015625)"/>
       <path id="DejaVuSans-49" d="M 628 4666 
L 1259 4666 
L 1259 0 
L 628 0 
L 628 4666 
z
" transform="scale(0.015625)"/>
       <path id="DejaVuSans-6e" d="M 3513 2113 
L 3513 0 
L 2938 0 
L 2938 2094 
Q 2938 2591 2744 2837 
Q 2550 3084 2163 3084 
Q 1697 3084 1428 2787 
Q 1159 2491 1159 1978 
L 1159 0 
L 581 0 
L 581 3500 
L 1159 3500 
L 1159 2956 
Q 1366 3272 1645 3428 
Q 1925 3584 2291 3584 
Q 2894 3584 3203 3211 
Q 3513 2838 3513 2113 
z
" transform="scale(0.015625)"/>
       <path id="DejaVuSans-73" d="M 2834 3397 
L 2834 2853 
Q 2591 2978 2328 3040 
Q 2066 3103 1784 3103 
Q 1356 3103 1142 2972 
Q 928 2841 928 2578 
Q 928 2378 1081 2264 
Q 1234 2150 1697 2047 
L 1894 2003 
Q 2506 1872 2764 1633 
Q 3022 1394 3022 966 
Q 3022 478 2636 193 
Q 2250 -91 1575 -91 
Q 1294 -91 989 -36 
Q 684 19 347 128 
L 347 722 
Q 666 556 975 473 
Q 1284 391 1588 391 
Q 1994 391 2212 530 
Q 2431 669 2431 922 
Q 2431 1156 2273 1281 
Q 2116 1406 1581 1522 
L 1381 1569 
Q 847 1681 609 1914 
Q 372 2147 372 2553 
Q 372 3047 722 3315 
Q 1072 3584 1716 3584 
Q 2034 3584 2315 3537 
Q 2597 3491 2834 3397 
z
" transform="scale(0.015625)"/>
       <path id="DejaVuSans-79" d="M 2059 -325 
Q 1816 -950 1584 -1140 
Q 1353 -1331 966 -1331 
L 506 -1331 
L 506 -850 
L 844 -850 
Q 1081 -850 1212 -737 
Q 1344 -625 1503 -206 
L 1606 56 
L 191 3500 
L 800 3500 
L 1894 763 
L 2988 3500 
L 3597 3500 
L 2059 -325 
z
" transform="scale(0.015625)"/>
      </defs>
      <use xlink:href="#DejaVuSans-4e"/>
      <use xlink:href="#DejaVuSans-6f" x="74.804688"/>
      <use xlink:href="#DejaVuSans-72" x="135.986328"/>
      <use xlink:href="#DejaVuSans-6d" x="175.349609"/>
      <use xlink:href="#DejaVuSans-61" x="272.761719"/>
      <use xlink:href="#DejaVuSans-6c" x="334.041016"/>
      <use xlink:href="#DejaVuSans-69" x="361.824219"/>
      <use xlink:href="#DejaVuSans-7a" x="389.607422"/>
      <use xlink:href="#DejaVuSans-65" x="442.097656"/>
      <use xlink:href="#DejaVuSans-64" x="503.621094"/>
      <use xlink:href="#DejaVuSans-20" x="567.097656"/>
      <use xlink:href="#DejaVuSans-49" x="598.884766"/>
      <use xlink:href="#DejaVuSans-6e" x="628.376953"/>
      <use xlink:href="#DejaVuSans-74" x="691.755859"/>
      <use xlink:href="#DejaVuSans-65" x="730.964844"/>
      <use xlink:href="#DejaVuSans-6e" x="792.488281"/>
      <use xlink:href="#DejaVuSans-73" x="855.867188"/>
      <use xlink:href="#DejaVuSans-69" x="907.966797"/>
      <use xlink:href="#DejaVuSans-74" x="935.75"/>
      <use xlink:href="#DejaVuSans-79" x="974.958984"/>
     </g>
    </g>
   </g>
   <g id="line2d_10">
    <path d="M 58.51375 217.311345 
L 60.124804 211.949331 
L 61.735857 205.047018 
L 63.346911 196.765391 
L 64.957964 187.265438 
L 66.569018 176.708147 
L 69.791125 153.067084 
L 76.235339 101.720699 
L 77.846392 91.097985 
L 79.457446 83.803368 
L 81.068499 80.390175 
L 82.679553 77.914764 
L 84.290606 72.559252 
L 85.90166 61.11042 
L 89.123767 30.841086 
L 90.73482 21.420789 
L 92.345874 18.753891 
L 93.956927 20.993396 
L 95.567981 26.15656 
L 97.179034 32.900905 
L 98.790088 41.127439 
L 100.401141 50.880042 
L 103.623248 72.90567 
L 105.234302 82.195669 
L 106.845355 88.43639 
L 110.067462 97.11124 
L 111.678516 103.965404 
L 114.900623 121.679562 
L 116.511676 127.303115 
L 118.12273 129.141604 
L 119.733783 130.181206 
L 121.344837 133.836455 
L 122.95589 142.331003 
L 124.566944 153.124967 
L 126.177997 162.487584 
L 127.789051 167.061885 
L 129.400105 166.744334 
L 131.011158 163.106559 
L 134.233265 152.221963 
L 135.844319 148.171667 
L 137.455372 147.176025 
L 139.066426 149.587473 
L 140.677479 153.350027 
L 142.288533 156.130992 
L 143.899586 156.103931 
L 145.51064 153.467439 
L 147.121693 148.926369 
L 150.3438 137.504481 
L 151.954854 133.076211 
L 153.565907 131.192868 
L 155.176961 131.325895 
L 156.788014 131.169725 
L 158.399068 128.35294 
L 160.010121 121.884547 
L 163.232228 105.060947 
L 164.843282 98.400535 
L 166.454335 93.965064 
L 168.065389 91.945041 
L 169.676442 92.406342 
L 172.898549 96.139048 
L 174.509603 96.322272 
L 176.120656 95.005244 
L 177.73171 93.949677 
L 179.342763 94.977533 
L 180.953817 98.592371 
L 182.56487 102.737227 
L 184.175924 105.060947 
L 185.786977 103.959982 
L 189.009084 97.779081 
L 190.620138 96.717526 
L 192.231191 97.339604 
L 193.842245 98.225477 
L 195.453298 98.007004 
L 197.064352 96.718479 
L 198.675406 95.796629 
L 200.286459 96.729633 
L 201.897513 99.853039 
L 203.508566 103.263811 
L 205.11962 104.801716 
L 206.730673 102.988643 
L 209.95278 94.993171 
L 211.563834 92.485966 
L 213.174887 91.644135 
L 214.785941 91.707909 
L 216.396994 91.922728 
L 218.008048 91.815537 
L 219.619101 91.194787 
L 221.230155 89.884552 
L 222.841208 88.118821 
L 224.452262 86.927687 
L 226.063315 87.43271 
L 227.674369 90.273603 
L 229.285422 94.162681 
L 230.896476 97.330408 
L 232.507529 98.295622 
L 234.118583 98.087035 
L 235.729636 99.025685 
L 237.34069 103.334495 
L 240.562797 118.443154 
L 242.17385 123.586192 
L 243.784904 125.108162 
L 245.395957 125.488982 
L 247.007011 127.614722 
L 248.618064 133.331674 
L 250.229118 140.327015 
L 251.840171 145.248139 
L 253.451225 145.205234 
L 255.062278 141.336484 
L 256.673332 136.854061 
L 258.284385 134.881213 
L 259.895439 136.101687 
L 261.506492 138.759729 
L 263.117546 141.001566 
L 264.728599 141.946864 
L 266.339653 142.60586 
L 267.950707 144.206007 
L 271.172814 150.76809 
L 272.783867 152.174159 
L 274.394921 149.959382 
L 276.005974 145.604754 
L 277.617028 142.222529 
L 279.228081 142.830214 
L 280.839135 147.95602 
L 285.672295 171.052772 
L 287.283349 177.152577 
L 288.894402 182.054872 
L 290.505456 185.830358 
L 293.727563 192.492468 
L 296.94967 200.70021 
L 298.560723 203.030301 
L 300.171777 202.137473 
L 303.393884 194.905904 
L 305.004937 193.833568 
L 306.615991 196.506951 
L 309.838098 205.645601 
L 311.449151 208.373625 
L 313.060205 209.676184 
L 314.671258 210.38778 
L 316.282312 211.271483 
L 319.504419 213.800189 
L 321.115472 215.086335 
L 322.726526 216.182028 
L 324.337579 216.977293 
L 325.948633 217.3645 
L 327.559686 217.335585 
L 330.781793 216.792869 
L 332.392847 216.743163 
L 334.003901 217.379427 
L 335.614954 219.203376 
L 337.226008 222.570348 
L 338.837061 226.561699 
L 340.448115 229.60282 
L 342.059168 230.184744 
L 343.670222 228.432987 
L 345.281275 226.107555 
L 346.892329 225.03147 
L 348.503382 226.054225 
L 350.114436 228.134577 
L 351.725489 230.014047 
L 353.336543 230.747259 
L 354.947596 230.641242 
L 356.55865 230.316126 
L 358.169703 230.323046 
L 361.39181 230.826267 
L 363.002864 230.612443 
L 364.613917 229.840304 
L 366.224971 228.599707 
L 371.058131 223.835498 
L 372.669185 223.273837 
L 374.280238 223.800272 
L 375.891292 224.594688 
L 377.502345 224.571537 
L 379.113399 222.831961 
L 380.724452 220.101994 
L 382.335506 217.944315 
L 383.946559 217.867874 
L 385.557613 219.98676 
L 387.168666 223.020199 
L 388.77972 225.631423 
L 390.390773 227.045962 
L 392.001827 227.581426 
L 395.223934 227.687101 
L 396.834987 227.54135 
L 398.446041 227.084599 
L 400.057094 226.179379 
L 401.668148 224.875991 
L 406.501309 220.233422 
L 408.112362 219.47828 
L 409.723416 219.875575 
L 411.334469 221.487991 
L 412.945523 223.585683 
L 414.556576 225.347748 
L 416.16763 226.165655 
L 417.778683 226.280357 
L 419.389737 226.145179 
L 421.00079 226.16914 
L 424.222897 226.589497 
L 425.833951 226.626853 
L 427.445004 226.141102 
L 429.056058 224.622925 
L 430.667111 221.55981 
L 432.278165 216.908771 
L 435.500272 206.423318 
L 437.111325 202.437725 
L 438.722379 200.062944 
L 440.333432 199.681448 
L 441.944486 201.507831 
L 443.555539 204.295509 
L 445.166593 206.045546 
L 446.777646 204.838526 
L 448.3887 200.726987 
L 449.999753 195.73542 
L 451.610807 191.966784 
L 453.22186 190.644417 
L 454.832914 191.283301 
L 456.443967 193.202137 
L 459.666074 198.372466 
L 461.277128 200.561097 
L 462.888181 201.830571 
L 464.499235 202.008573 
L 466.110288 201.082351 
L 467.721342 199.04018 
L 469.332395 195.863592 
L 470.943449 191.527383 
L 472.554503 186.010899 
L 474.165556 179.879812 
L 475.77661 174.838524 
L 477.387663 172.722271 
L 478.998717 174.656769 
L 482.220824 183.119053 
L 483.831877 185.073082 
L 485.442931 184.98989 
L 487.053984 184.277634 
L 488.665038 184.292129 
L 490.276091 184.955329 
L 491.887145 184.755321 
L 493.498198 182.128049 
L 495.109252 176.743312 
L 496.720305 170.667246 
L 498.331359 166.241306 
L 499.942412 164.926153 
L 501.553466 164.659256 
L 503.164519 162.497287 
L 504.775573 155.917834 
L 507.99768 135.957294 
L 509.608733 128.540182 
L 511.219787 124.297338 
L 512.83084 121.26554 
L 514.441894 117.385228 
L 517.664001 106.156892 
L 519.275054 102.209325 
L 520.886108 101.369101 
L 522.497161 103.204565 
L 524.108215 106.830212 
L 525.719268 111.392902 
L 528.941375 121.188771 
L 530.552429 125.585003 
L 533.774536 132.999483 
L 536.996643 140.373329 
L 538.607696 144.733364 
L 540.21875 149.909259 
L 540.21875 149.909259 
" clip-path="url(#p6820448e86)" style="fill: none; stroke: #b200f4; stroke-width: 2; stroke-linecap: square"/>
   </g>
   <g id="line2d_11">
    <path d="M 58.51375 248.42 
L 60.124804 249.831721 
L 61.735857 249.590116 
L 63.346911 248.291559 
L 66.569018 244.909089 
L 68.180071 244.017924 
L 69.791125 244.419693 
L 73.013232 247.249783 
L 74.624285 247.493975 
L 76.235339 246.232094 
L 77.846392 244.564538 
L 79.457446 243.759102 
L 81.068499 244.635879 
L 82.679553 246.224149 
L 84.290606 247.105491 
L 85.90166 246.055364 
L 89.123767 240.881276 
L 90.73482 239.387045 
L 92.345874 239.408007 
L 93.956927 240.354243 
L 97.179034 242.715404 
L 100.401141 244.581614 
L 103.623248 246.154766 
L 106.845355 247.555372 
L 108.456409 248.111459 
L 110.067462 248.409455 
L 111.678516 248.316666 
L 113.289569 247.715291 
L 114.900623 246.502419 
L 116.511676 244.578592 
L 118.12273 242.183381 
L 119.733783 240.214807 
L 121.344837 239.646546 
L 122.95589 241.089203 
L 126.177997 246.277582 
L 127.789051 247.739811 
L 129.400105 248.105306 
L 132.622212 247.862542 
L 139.066426 248.43321 
L 142.288533 248.42 
L 145.51064 248.785696 
L 147.121693 248.568198 
L 148.732747 247.697056 
L 150.3438 246.095337 
L 151.954854 243.792777 
L 153.565907 240.831208 
L 156.788014 234.387758 
L 158.399068 232.030889 
L 160.010121 230.841257 
L 161.621175 230.898177 
L 163.232228 232.243944 
L 164.843282 234.750875 
L 166.454335 237.611366 
L 168.065389 239.847834 
L 169.676442 240.604392 
L 171.287496 240.084356 
L 172.898549 239.03642 
L 174.509603 238.188637 
L 177.73171 237.113876 
L 179.342763 236.006563 
L 180.953817 234.183408 
L 184.175924 229.77641 
L 185.786977 228.01222 
L 187.398031 227.26047 
L 189.009084 228.135036 
L 190.620138 231.077224 
L 192.231191 235.026345 
L 193.842245 238.148345 
L 195.453298 238.668888 
L 197.064352 236.334195 
L 200.286459 228.230241 
L 201.897513 224.870933 
L 203.508566 222.923496 
L 205.11962 222.92215 
L 206.730673 224.957413 
L 208.341727 227.344992 
L 209.95278 227.956895 
L 211.563834 224.994943 
L 214.785941 214.117349 
L 216.396994 211.242091 
L 218.008048 211.719754 
L 219.619101 214.688345 
L 222.841208 224.063484 
L 224.452262 227.468384 
L 226.063315 227.583046 
L 227.674369 223.20198 
L 229.285422 215.666907 
L 230.896476 206.95635 
L 232.507529 199.001684 
L 234.118583 193.323916 
L 235.729636 191.232756 
L 237.34069 193.914609 
L 238.951743 199.760042 
L 240.562797 204.363784 
L 242.17385 203.227712 
L 243.784904 195.32718 
L 245.395957 186.383552 
L 247.007011 182.893266 
L 248.618064 188.810023 
L 250.229118 197.916584 
L 251.840171 201.452974 
L 253.451225 191.914133 
L 256.673332 152.90408 
L 258.284385 141.265921 
L 259.895439 139.788715 
L 263.117546 147.759187 
L 264.728599 149.310364 
L 266.339653 149.969223 
L 267.950707 151.912006 
L 269.56176 156.521838 
L 271.172814 162.009378 
L 272.783867 165.792171 
L 274.394921 165.692218 
L 276.005974 163.051811 
L 277.617028 161.025815 
L 279.228081 162.670416 
L 280.839135 168.4276 
L 284.061242 183.482859 
L 285.672295 188.90542 
L 287.283349 192.127745 
L 288.894402 193.037574 
L 290.505456 191.629786 
L 292.116509 188.32781 
L 293.727563 183.662215 
L 298.560723 167.451047 
L 300.171777 163.623455 
L 301.78283 161.06843 
L 305.004937 157.125397 
L 306.615991 154.511961 
L 308.227044 151.024351 
L 309.838098 146.428601 
L 313.060205 134.874791 
L 314.671258 130.058519 
L 316.282312 127.093906 
L 317.893365 123.533681 
L 319.504419 115.250986 
L 321.115472 98.394823 
L 322.726526 75.778191 
L 324.337579 56.878088 
L 325.948633 51.40314 
L 327.559686 62.030726 
L 329.17074 77.782484 
L 330.781793 86.111098 
L 332.392847 78.241943 
L 335.614954 42.947541 
L 337.226008 34.551557 
L 338.837061 34.248458 
L 340.448115 35.837052 
L 342.059168 33.338107 
L 343.670222 26.855793 
L 345.281275 22.577681 
L 346.892329 26.920406 
L 348.503382 42.013554 
L 350.114436 61.660625 
L 351.725489 78.708503 
L 353.336543 87.894623 
L 354.947596 91.518624 
L 356.55865 93.770694 
L 358.169703 98.312257 
L 359.780757 104.202508 
L 361.39181 108.130981 
L 363.002864 106.919393 
L 364.613917 100.880009 
L 366.224971 93.815647 
L 367.836024 89.664021 
L 369.447078 90.322433 
L 372.669185 97.352088 
L 374.280238 99.045096 
L 375.891292 98.100383 
L 377.502345 94.177271 
L 380.724452 80.790795 
L 382.335506 79.592672 
L 383.946559 88.449215 
L 385.557613 106.305896 
L 387.168666 126.319663 
L 388.77972 141.427387 
L 390.390773 148.389541 
L 392.001827 151.392596 
L 393.61288 155.47622 
L 395.223934 164.100431 
L 396.834987 174.406627 
L 398.446041 181.956558 
L 400.057094 182.914814 
L 401.668148 178.692988 
L 403.279202 173.404316 
L 404.890255 171.054691 
L 406.501309 172.667591 
L 409.723416 179.818254 
L 411.334469 181.510714 
L 412.945523 180.236204 
L 414.556576 174.942324 
L 416.16763 165.330556 
L 417.778683 154.11791 
L 419.389737 144.775276 
L 421.00079 140.392165 
L 422.611844 140.738656 
L 424.222897 143.875673 
L 427.445004 152.146975 
L 429.056058 157.157542 
L 430.667111 163.537445 
L 432.278165 171.688714 
L 433.889218 181.624127 
L 435.500272 193.311743 
L 437.111325 206.182321 
L 438.722379 217.517432 
L 440.333432 224.061348 
L 441.944486 223.048145 
L 443.555539 215.974986 
L 445.166593 206.534076 
L 446.777646 198.38365 
L 448.3887 193.983449 
L 449.999753 194.594719 
L 451.610807 201.411424 
L 453.22186 213.791561 
L 454.832914 227.527397 
L 456.443967 238.001523 
L 458.055021 241.886754 
L 459.666074 241.016805 
L 461.277128 238.515615 
L 462.888181 237.22883 
L 464.499235 237.579901 
L 467.721342 239.909218 
L 469.332395 240.689429 
L 470.943449 241.135351 
L 472.554503 241.315553 
L 477.387663 241.291568 
L 480.60977 241.580776 
L 482.220824 241.409499 
L 483.831877 240.669306 
L 485.442931 238.859833 
L 487.053984 235.364788 
L 488.665038 229.621437 
L 491.887145 215.40827 
L 493.498198 210.874438 
L 495.109252 209.672265 
L 496.720305 210.7384 
L 499.942412 214.682435 
L 501.553466 216.091352 
L 503.164519 216.83061 
L 504.775573 216.767253 
L 506.386626 216.125446 
L 507.99768 215.31323 
L 509.608733 214.730081 
L 511.219787 214.543498 
L 512.83084 214.689002 
L 514.441894 215.092682 
L 516.052947 215.759651 
L 517.664001 216.848492 
L 519.275054 218.535422 
L 520.886108 220.958078 
L 522.497161 224.099783 
L 524.108215 227.905282 
L 527.330322 236.605542 
L 528.941375 240.109017 
L 530.552429 241.988795 
L 532.163482 242.157372 
L 533.774536 241.22708 
L 535.385589 239.840676 
L 536.996643 238.640918 
L 538.607696 238.270566 
L 540.21875 239.372375 
L 540.21875 239.372375 
" clip-path="url(#p6820448e86)" style="fill: none; stroke: #00c000; stroke-width: 2; stroke-linecap: square"/>
   </g>
   <g id="patch_3">
    <path d="M 58.51375 248.42 
L 58.51375 7.2 
" style="fill: none; stroke: #000000; stroke-width: 2; stroke-linejoin: miter; stroke-linecap: square"/>
   </g>
   <g id="patch_4">
    <path d="M 58.51375 248.42 
L 540.21875 248.42 
" style="fill: none; stroke: #000000; stroke-width: 2; stroke-linejoin: miter; stroke-linecap: square"/>
   </g>
   <g id="legend_1">
    <g id="line2d_12">
     <path d="M 449.61875 20.298437 
L 459.61875 20.298437 
L 469.61875 20.298437 
" style="fill: none; stroke: #b200f4; stroke-width: 2; stroke-linecap: square"/>
    </g>
    <g id="text_11">
     <!-- Membrane -->
     <g transform="translate(477.61875 23.798437) scale(0.1 -0.1)">
      <defs>
       <path id="DejaVuSans-4d" d="M 628 4666 
L 1569 4666 
L 2759 1491 
L 3956 4666 
L 4897 4666 
L 4897 0 
L 4281 0 
L 4281 4097 
L 3078 897 
L 2444 897 
L 1241 4097 
L 1241 0 
L 628 0 
L 628 4666 
z
" transform="scale(0.015625)"/>
       <path id="DejaVuSans-62" d="M 3116 1747 
Q 3116 2381 2855 2742 
Q 2594 3103 2138 3103 
Q 1681 3103 1420 2742 
Q 1159 2381 1159 1747 
Q 1159 1113 1420 752 
Q 1681 391 2138 391 
Q 2594 391 2855 752 
Q 3116 1113 3116 1747 
z
M 1159 2969 
Q 1341 3281 1617 3432 
Q 1894 3584 2278 3584 
Q 2916 3584 3314 3078 
Q 3713 2572 3713 1747 
Q 3713 922 3314 415 
Q 2916 -91 2278 -91 
Q 1894 -91 1617 61 
Q 1341 213 1159 525 
L 1159 0 
L 581 0 
L 581 4863 
L 1159 4863 
L 1159 2969 
z
" transform="scale(0.015625)"/>
      </defs>
      <use xlink:href="#DejaVuSans-4d"/>
      <use xlink:href="#DejaVuSans-65" x="86.279297"/>
      <use xlink:href="#DejaVuSans-6d" x="147.802734"/>
      <use xlink:href="#DejaVuSans-62" x="245.214844"/>
      <use xlink:href="#DejaVuSans-72" x="308.691406"/>
      <use xlink:href="#DejaVuSans-61" x="349.804688"/>
      <use xlink:href="#DejaVuSans-6e" x="411.083984"/>
      <use xlink:href="#DejaVuSans-65" x="474.462891"/>
     </g>
    </g>
    <g id="line2d_13">
     <path d="M 449.61875 34.976562 
L 459.61875 34.976562 
L 469.61875 34.976562 
" style="fill: none; stroke: #00c000; stroke-width: 2; stroke-linecap: square"/>
    </g>
    <g id="text_12">
     <!-- FtsZ -->
     <g transform="translate(477.61875 38.476562) scale(0.1 -0.1)">
      <defs>
       <path id="DejaVuSans-46" d="M 628 4666 
L 3309 4666 
L 3309 4134 
L 1259 4134 
L 1259 2759 
L 3109 2759 
L 3109 2228 
L 1259 2228 
L 1259 0 
L 628 0 
L 628 4666 
z
" transform="scale(0.015625)"/>
       <path id="DejaVuSans-5a" d="M 359 4666 
L 4025 4666 
L 4025 4184 
L 1075 531 
L 4097 531 
L 4097 0 
L 288 0 
L 288 481 
L 3238 4134 
L 359 4134 
L 359 4666 
z
" transform="scale(0.015625)"/>
      </defs>
      <use xlink:href="#DejaVuSans-46"/>
      <use xlink:href="#DejaVuSans-74" x="57.519531"/>
      <use xlink:href="#DejaVuSans-73" x="96.728516"/>
      <use xlink:href="#DejaVuSans-5a" x="148.828125"/>
     </g>
    </g>
   </g>
  </g>
 </g>
 <defs>
  <clipPath id="p6820448e86">
   <rect x="58.51375" y="7.2" width="481.705" height="241.22"/>
  </clipPath>
 </defs>
</svg>
