<?xml version="1.0" encoding="utf-8" standalone="no"?>
<!DOCTYPE svg PUBLIC "-//W3C//DTD SVG 1.1//EN"
  "http://www.w3.org/Graphics/SVG/1.1/DTD/svg11.dtd">
<svg xmlns:xlink="http://www.w3.org/1999/xlink" width="568.599219pt" height="280.669375pt" viewBox="0 0 568.599219 280.669375" xmlns="http://www.w3.org/2000/svg" version="1.1">
 <metadata>
  <rdf:RDF xmlns:dc="http://purl.org/dc/elements/1.1/" xmlns:cc="http://creativecommons.org/ns#" xmlns:rdf="http://www.w3.org/1999/02/22-rdf-syntax-ns#">
   <cc:Work>
    <dc:type rdf:resource="http://purl.org/dc/dcmitype/StillImage"/>
    <dc:date>2025-12-01T04:44:01.572099</dc:date>
    <dc:format>image/svg+xml</dc:format>
    <dc:creator>
     <cc:Agent>
      <dc:title>Matplotlib v3.8.4, https://matplotlib.org/</dc:title>
     </cc:Agent>
    </dc:creator>
   </cc:Work>
  </rdf:RDF>
 </metadata>
 <defs>
  <style type="text/css">*{stroke-linejoin: round; stroke-linecap: butt}</style>
 </defs>
 <g id="figure_1">
  <g id="patch_1">
   <path d="M 0 280.669375 
L 568.599219 280.669375 
L 568.599219 0 
L 0 0 
z
" style="fill: #ffffff"/>
  </g>
  <g id="axes_1">
   <g id="patch_2">
    <path d="M 58.51375 248.42 
L 540.21875 248.42 
L 540.21875 7.2 
L 58.51375 7.2 
z
" style="fill: #ffffff"/>
   </g>
   <g id="matplotlib.axis_1">
    <g id="xtick_1">
     <g id="line2d_1">
      <defs>
       <path id="m78357b5b2b" d="M 0 0 
L 0 8 
" style="stroke: #000000; stroke-width: 2"/>
      </defs>
      <g>
       <use xlink:href="#m78357b5b2b" x="58.51375" y="248.42" style="stroke: #000000; stroke-width: 2"/>
      </g>
     </g>
     <g id="text_1">
      <!-- Pole 1 -->
      <g transform="translate(37.333281 270.557813) scale(0.14 -0.14)">
       <defs>
        <path id="DejaVuSans-50" d="M 1259 4147 
L 1259 2394 
L 2053 2394 
Q 2494 2394 2734 2622 
Q 2975 2850 2975 3272 
Q 2975 3691 2734 3919 
Q 2494 4147 2053 4147 
L 1259 4147 
z
M 628 4666 
L 2053 4666 
Q 2838 4666 3239 4311 
Q 3641 3956 3641 3272 
Q 3641 2581 3239 2228 
Q 2838 1875 2053 1875 
L 1259 1875 
L 1259 0 
L 628 0 
L 628 4666 
z
" transform="scale(0.015625)"/>
        <path id="DejaVuSans-6f" d="M 1959 3097 
Q 1497 3097 1228 2736 
Q 959 2375 959 1747 
Q 959 1119 1226 758 
Q 1494 397 1959 397 
Q 2419 397 2687 759 
Q 2956 1122 2956 1747 
Q 2956 2369 2687 2733 
Q 2419 3097 1959 3097 
z
M 1959 3584 
Q 2709 3584 3137 3096 
Q 3566 2609 3566 1747 
Q 3566 888 3137 398 
Q 2709 -91 1959 -91 
Q 1206 -91 779 398 
Q 353 888 353 1747 
Q 353 2609 779 3096 
Q 1206 3584 1959 3584 
z
" transform="scale(0.015625)"/>
        <path id="DejaVuSans-6c" d="M 603 4863 
L 1178 4863 
L 1178 0 
L 603 0 
L 603 4863 
z
" transform="scale(0.015625)"/>
        <path id="DejaVuSans-65" d="M 3597 1894 
L 3597 1613 
L 953 1613 
Q 991 1019 1311 708 
Q 1631 397 2203 397 
Q 2534 397 2845 478 
Q 3156 559 3463 722 
L 3463 178 
Q 3153 47 2828 -22 
Q 2503 -91 2169 -91 
Q 1331 -91 842 396 
Q 353 884 353 1716 
Q 353 2575 817 3079 
Q 1281 3584 2069 3584 
Q 2775 3584 3186 3129 
Q 3597 2675 3597 1894 
z
M 3022 2063 
Q 3016 2534 2758 2815 
Q 2500 3097 2075 3097 
Q 1594 3097 1305 2825 
Q 1016 2553 972 2059 
L 3022 2063 
z
" transform="scale(0.015625)"/>
        <path id="DejaVuSans-20" transform="scale(0.015625)"/>
        <path id="DejaVuSans-31" d="M 794 531 
L 1825 531 
L 1825 4091 
L 703 3866 
L 703 4441 
L 1819 4666 
L 2450 4666 
L 2450 531 
L 3481 531 
L 3481 0 
L 794 0 
L 794 531 
z
" transform="scale(0.015625)"/>
       </defs>
       <use xlink:href="#DejaVuSans-50"/>
       <use xlink:href="#DejaVuSans-6f" x="56.677734"/>
       <use xlink:href="#DejaVuSans-6c" x="117.859375"/>
       <use xlink:href="#DejaVuSans-65" x="145.642578"/>
       <use xlink:href="#DejaVuSans-20" x="207.166016"/>
       <use xlink:href="#DejaVuSans-31" x="238.953125"/>
      </g>
     </g>
    </g>
    <g id="xtick_2">
     <g id="line2d_2">
      <g>
       <use xlink:href="#m78357b5b2b" x="301.849265" y="248.42" style="stroke: #000000; stroke-width: 2"/>
      </g>
     </g>
     <g id="text_2">
      <!-- Equator -->
      <g transform="translate(274.351297 270.557813) scale(0.14 -0.14)">
       <defs>
        <path id="DejaVuSans-45" d="M 628 4666 
L 3578 4666 
L 3578 4134 
L 1259 4134 
L 1259 2753 
L 3481 2753 
L 3481 2222 
L 1259 2222 
L 1259 531 
L 3634 531 
L 3634 0 
L 628 0 
L 628 4666 
z
" transform="scale(0.015625)"/>
        <path id="DejaVuSans-71" d="M 947 1747 
Q 947 1113 1208 752 
Q 1469 391 1925 391 
Q 2381 391 2643 752 
Q 2906 1113 2906 1747 
Q 2906 2381 2643 2742 
Q 2381 3103 1925 3103 
Q 1469 3103 1208 2742 
Q 947 2381 947 1747 
z
M 2906 525 
Q 2725 213 2448 61 
Q 2172 -91 1784 -91 
Q 1150 -91 751 415 
Q 353 922 353 1747 
Q 353 2572 751 3078 
Q 1150 3584 1784 3584 
Q 2172 3584 2448 3432 
Q 2725 3281 2906 2969 
L 2906 3500 
L 3481 3500 
L 3481 -1331 
L 2906 -1331 
L 2906 525 
z
" transform="scale(0.015625)"/>
        <path id="DejaVuSans-75" d="M 544 1381 
L 544 3500 
L 1119 3500 
L 1119 1403 
Q 1119 906 1312 657 
Q 1506 409 1894 409 
Q 2359 409 2629 706 
Q 2900 1003 2900 1516 
L 2900 3500 
L 3475 3500 
L 3475 0 
L 2900 0 
L 2900 538 
Q 2691 219 2414 64 
Q 2138 -91 1772 -91 
Q 1169 -91 856 284 
Q 544 659 544 1381 
z
M 1991 3584 
L 1991 3584 
z
" transform="scale(0.015625)"/>
        <path id="DejaVuSans-61" d="M 2194 1759 
Q 1497 1759 1228 1600 
Q 959 1441 959 1056 
Q 959 750 1161 570 
Q 1363 391 1709 391 
Q 2188 391 2477 730 
Q 2766 1069 2766 1631 
L 2766 1759 
L 2194 1759 
z
M 3341 1997 
L 3341 0 
L 2766 0 
L 2766 531 
Q 2569 213 2275 61 
Q 1981 -91 1556 -91 
Q 1019 -91 701 211 
Q 384 513 384 1019 
Q 384 1609 779 1909 
Q 1175 2209 1959 2209 
L 2766 2209 
L 2766 2266 
Q 2766 2663 2505 2880 
Q 2244 3097 1772 3097 
Q 1472 3097 1187 3025 
Q 903 2953 641 2809 
L 641 3341 
Q 956 3463 1253 3523 
Q 1550 3584 1831 3584 
Q 2591 3584 2966 3190 
Q 3341 2797 3341 1997 
z
" transform="scale(0.015625)"/>
        <path id="DejaVuSans-74" d="M 1172 4494 
L 1172 3500 
L 2356 3500 
L 2356 3053 
L 1172 3053 
L 1172 1153 
Q 1172 725 1289 603 
Q 1406 481 1766 481 
L 2356 481 
L 2356 0 
L 1766 0 
Q 1100 0 847 248 
Q 594 497 594 1153 
L 594 3053 
L 172 3053 
L 172 3500 
L 594 3500 
L 594 4494 
L 1172 4494 
z
" transform="scale(0.015625)"/>
        <path id="DejaVuSans-72" d="M 2631 2963 
Q 2534 3019 2420 3045 
Q 2306 3072 2169 3072 
Q 1681 3072 1420 2755 
Q 1159 2438 1159 1844 
L 1159 0 
L 581 0 
L 581 3500 
L 1159 3500 
L 1159 2956 
Q 1341 3275 1631 3429 
Q 1922 3584 2338 3584 
Q 2397 3584 2469 3576 
Q 2541 3569 2628 3553 
L 2631 2963 
z
" transform="scale(0.015625)"/>
       </defs>
       <use xlink:href="#DejaVuSans-45"/>
       <use xlink:href="#DejaVuSans-71" x="63.183594"/>
       <use xlink:href="#DejaVuSans-75" x="126.660156"/>
       <use xlink:href="#DejaVuSans-61" x="190.039062"/>
       <use xlink:href="#DejaVuSans-74" x="251.318359"/>
       <use xlink:href="#DejaVuSans-6f" x="290.527344"/>
       <use xlink:href="#DejaVuSans-72" x="351.708984"/>
      </g>
     </g>
    </g>
    <g id="xtick_3">
     <g id="line2d_3">
      <g>
       <use xlink:href="#m78357b5b2b" x="540.21875" y="248.42" style="stroke: #000000; stroke-width: 2"/>
      </g>
     </g>
     <g id="text_3">
      <!-- Pole 2 -->
      <g transform="translate(519.038281 270.557813) scale(0.14 -0.14)">
       <defs>
        <path id="DejaVuSans-32" d="M 1228 531 
L 3431 531 
L 3431 0 
L 469 0 
L 469 531 
Q 828 903 1448 1529 
Q 2069 2156 2228 2338 
Q 2531 2678 2651 2914 
Q 2772 3150 2772 3378 
Q 2772 3750 2511 3984 
Q 2250 4219 1831 4219 
Q 1534 4219 1204 4116 
Q 875 4013 500 3803 
L 500 4441 
Q 881 4594 1212 4672 
Q 1544 4750 1819 4750 
Q 2544 4750 2975 4387 
Q 3406 4025 3406 3419 
Q 3406 3131 3298 2873 
Q 3191 2616 2906 2266 
Q 2828 2175 2409 1742 
Q 1991 1309 1228 531 
z
" transform="scale(0.015625)"/>
       </defs>
       <use xlink:href="#DejaVuSans-50"/>
       <use xlink:href="#DejaVuSans-6f" x="56.677734"/>
       <use xlink:href="#DejaVuSans-6c" x="117.859375"/>
       <use xlink:href="#DejaVuSans-65" x="145.642578"/>
       <use xlink:href="#DejaVuSans-20" x="207.166016"/>
       <use xlink:href="#DejaVuSans-32" x="238.953125"/>
      </g>
     </g>
    </g>
   </g>
   <g id="matplotlib.axis_2">
    <g id="ytick_1">
     <g id="line2d_4">
      <defs>
       <path id="mec1df272ac" d="M 0 0 
L -8 0 
" style="stroke: #000000; stroke-width: 2"/>
      </defs>
      <g>
       <use xlink:href="#mec1df272ac" x="58.51375" y="248.42" style="stroke: #000000; stroke-width: 2"/>
      </g>
     </g>
     <g id="text_4">
      <!-- 0.0 -->
      <g transform="translate(24.749375 253.738906) scale(0.14 -0.14)">
       <defs>
        <path id="DejaVuSans-30" d="M 2034 4250 
Q 1547 4250 1301 3770 
Q 1056 3291 1056 2328 
Q 1056 1369 1301 889 
Q 1547 409 2034 409 
Q 2525 409 2770 889 
Q 3016 1369 3016 2328 
Q 3016 3291 2770 3770 
Q 2525 4250 2034 4250 
z
M 2034 4750 
Q 2819 4750 3233 4129 
Q 3647 3509 3647 2328 
Q 3647 1150 3233 529 
Q 2819 -91 2034 -91 
Q 1250 -91 836 529 
Q 422 1150 422 2328 
Q 422 3509 836 4129 
Q 1250 4750 2034 4750 
z
" transform="scale(0.015625)"/>
        <path id="DejaVuSans-2e" d="M 684 794 
L 1344 794 
L 1344 0 
L 684 0 
L 684 794 
z
" transform="scale(0.015625)"/>
       </defs>
       <use xlink:href="#DejaVuSans-30"/>
       <use xlink:href="#DejaVuSans-2e" x="63.623047"/>
       <use xlink:href="#DejaVuSans-30" x="95.410156"/>
      </g>
     </g>
    </g>
    <g id="ytick_2">
     <g id="line2d_5">
      <g>
       <use xlink:href="#mec1df272ac" x="58.51375" y="203.213455" style="stroke: #000000; stroke-width: 2"/>
      </g>
     </g>
     <g id="text_5">
      <!-- 0.2 -->
      <g transform="translate(24.749375 208.532362) scale(0.14 -0.14)">
       <use xlink:href="#DejaVuSans-30"/>
       <use xlink:href="#DejaVuSans-2e" x="63.623047"/>
       <use xlink:href="#DejaVuSans-32" x="95.410156"/>
      </g>
     </g>
    </g>
    <g id="ytick_3">
     <g id="line2d_6">
      <g>
       <use xlink:href="#mec1df272ac" x="58.51375" y="158.006911" style="stroke: #000000; stroke-width: 2"/>
      </g>
     </g>
     <g id="text_6">
      <!-- 0.4 -->
      <g transform="translate(24.749375 163.325817) scale(0.14 -0.14)">
       <defs>
        <path id="DejaVuSans-34" d="M 2419 4116 
L 825 1625 
L 2419 1625 
L 2419 4116 
z
M 2253 4666 
L 3047 4666 
L 3047 1625 
L 3713 1625 
L 3713 1100 
L 3047 1100 
L 3047 0 
L 2419 0 
L 2419 1100 
L 313 1100 
L 313 1709 
L 2253 4666 
z
" transform="scale(0.015625)"/>
       </defs>
       <use xlink:href="#DejaVuSans-30"/>
       <use xlink:href="#DejaVuSans-2e" x="63.623047"/>
       <use xlink:href="#DejaVuSans-34" x="95.410156"/>
      </g>
     </g>
    </g>
    <g id="ytick_4">
     <g id="line2d_7">
      <g>
       <use xlink:href="#mec1df272ac" x="58.51375" y="112.800366" style="stroke: #000000; stroke-width: 2"/>
      </g>
     </g>
     <g id="text_7">
      <!-- 0.6 -->
      <g transform="translate(24.749375 118.119273) scale(0.14 -0.14)">
       <defs>
        <path id="DejaVuSans-36" d="M 2113 2584 
Q 1688 2584 1439 2293 
Q 1191 2003 1191 1497 
Q 1191 994 1439 701 
Q 1688 409 2113 409 
Q 2538 409 2786 701 
Q 3034 994 3034 1497 
Q 3034 2003 2786 2293 
Q 2538 2584 2113 2584 
z
M 3366 4563 
L 3366 3988 
Q 3128 4100 2886 4159 
Q 2644 4219 2406 4219 
Q 1781 4219 1451 3797 
Q 1122 3375 1075 2522 
Q 1259 2794 1537 2939 
Q 1816 3084 2150 3084 
Q 2853 3084 3261 2657 
Q 3669 2231 3669 1497 
Q 3669 778 3244 343 
Q 2819 -91 2113 -91 
Q 1303 -91 875 529 
Q 447 1150 447 2328 
Q 447 3434 972 4092 
Q 1497 4750 2381 4750 
Q 2619 4750 2861 4703 
Q 3103 4656 3366 4563 
z
" transform="scale(0.015625)"/>
       </defs>
       <use xlink:href="#DejaVuSans-30"/>
       <use xlink:href="#DejaVuSans-2e" x="63.623047"/>
       <use xlink:href="#DejaVuSans-36" x="95.410156"/>
      </g>
     </g>
    </g>
    <g id="ytick_5">
     <g id="line2d_8">
      <g>
       <use xlink:href="#mec1df272ac" x="58.51375" y="67.593822" style="stroke: #000000; stroke-width: 2"/>
      </g>
     </g>
     <g id="text_8">
      <!-- 0.8 -->
      <g transform="translate(24.749375 72.912728) scale(0.14 -0.14)">
       <defs>
        <path id="DejaVuSans-38" d="M 2034 2216 
Q 1584 2216 1326 1975 
Q 1069 1734 1069 1313 
Q 1069 891 1326 650 
Q 1584 409 2034 409 
Q 2484 409 2743 651 
Q 3003 894 3003 1313 
Q 3003 1734 2745 1975 
Q 2488 2216 2034 2216 
z
M 1403 2484 
Q 997 2584 770 2862 
Q 544 3141 544 3541 
Q 544 4100 942 4425 
Q 1341 4750 2034 4750 
Q 2731 4750 3128 4425 
Q 3525 4100 3525 3541 
Q 3525 3141 3298 2862 
Q 3072 2584 2669 2484 
Q 3125 2378 3379 2068 
Q 3634 1759 3634 1313 
Q 3634 634 3220 271 
Q 2806 -91 2034 -91 
Q 1263 -91 848 271 
Q 434 634 434 1313 
Q 434 1759 690 2068 
Q 947 2378 1403 2484 
z
M 1172 3481 
Q 1172 3119 1398 2916 
Q 1625 2713 2034 2713 
Q 2441 2713 2670 2916 
Q 2900 3119 2900 3481 
Q 2900 3844 2670 4047 
Q 2441 4250 2034 4250 
Q 1625 4250 1398 4047 
Q 1172 3844 1172 3481 
z
" transform="scale(0.015625)"/>
       </defs>
       <use xlink:href="#DejaVuSans-30"/>
       <use xlink:href="#DejaVuSans-2e" x="63.623047"/>
       <use xlink:href="#DejaVuSans-38" x="95.410156"/>
      </g>
     </g>
    </g>
    <g id="ytick_6">
     <g id="line2d_9">
      <g>
       <use xlink:href="#mec1df272ac" x="58.51375" y="22.387277" style="stroke: #000000; stroke-width: 2"/>
      </g>
     </g>
     <g id="text_9">
      <!-- 1.0 -->
      <g transform="translate(24.749375 27.706184) scale(0.14 -0.14)">
       <use xlink:href="#DejaVuSans-31"/>
       <use xlink:href="#DejaVuSans-2e" x="63.623047"/>
       <use xlink:href="#DejaVuSans-30" x="95.410156"/>
      </g>
     </g>
    </g>
    <g id="text_10">
     <!-- Normalized Intensity -->
     <g transform="translate(17.837813 200.199844) rotate(-90) scale(0.14 -0.14)">
      <defs>
       <path id="DejaVuSans-4e" d="M 628 4666 
L 1478 4666 
L 3547 763 
L 3547 4666 
L 4159 4666 
L 4159 0 
L 3309 0 
L 1241 3903 
L 1241 0 
L 628 0 
L 628 4666 
z
" transform="scale(0.015625)"/>
       <path id="DejaVuSans-6d" d="M 3328 2828 
Q 3544 3216 3844 3400 
Q 4144 3584 4550 3584 
Q 5097 3584 5394 3201 
Q 5691 2819 5691 2113 
L 5691 0 
L 5113 0 
L 5113 2094 
Q 5113 2597 4934 2840 
Q 4756 3084 4391 3084 
Q 3944 3084 3684 2787 
Q 3425 2491 3425 1978 
L 3425 0 
L 2847 0 
L 2847 2094 
Q 2847 2600 2669 2842 
Q 2491 3084 2119 3084 
Q 1678 3084 1418 2786 
Q 1159 2488 1159 1978 
L 1159 0 
L 581 0 
L 581 3500 
L 1159 3500 
L 1159 2956 
Q 1356 3278 1631 3431 
Q 1906 3584 2284 3584 
Q 2666 3584 2933 3390 
Q 3200 3197 3328 2828 
z
" transform="scale(0.015625)"/>
       <path id="DejaVuSans-69" d="M 603 3500 
L 1178 3500 
L 1178 0 
L 603 0 
L 603 3500 
z
M 603 4863 
L 1178 4863 
L 1178 4134 
L 603 4134 
L 603 4863 
z
" transform="scale(0.015625)"/>
       <path id="DejaVuSans-7a" d="M 353 3500 
L 3084 3500 
L 3084 2975 
L 922 459 
L 3084 459 
L 3084 0 
L 275 0 
L 275 525 
L 2438 3041 
L 353 3041 
L 353 3500 
z
" transform="scale(0.015625)"/>
       <path id="DejaVuSans-64" d="M 2906 2969 
L 2906 4863 
L 3481 4863 
L 3481 0 
L 2906 0 
L 2906 525 
Q 2725 213 2448 61 
Q 2172 -91 1784 -91 
Q 1150 -91 751 415 
Q 353 922 353 1747 
Q 353 2572 751 3078 
Q 1150 3584 1784 3584 
Q 2172 3584 2448 3432 
Q 2725 3281 2906 2969 
z
M 947 1747 
Q 947 1113 1208 752 
Q 1469 391 1925 391 
Q 2381 391 2643 752 
Q 2906 1113 2906 1747 
Q 2906 2381 2643 2742 
Q 2381 3103 1925 3103 
Q 1469 3103 1208 2742 
Q 947 2381 947 1747 
z
" transform="scale(0.015625)"/>
       <path id="DejaVuSans-49" d="M 628 4666 
L 1259 4666 
L 1259 0 
L 628 0 
L 628 4666 
z
" transform="scale(0.015625)"/>
       <path id="DejaVuSans-6e" d="M 3513 2113 
L 3513 0 
L 2938 0 
L 2938 2094 
Q 2938 2591 2744 2837 
Q 2550 3084 2163 3084 
Q 1697 3084 1428 2787 
Q 1159 2491 1159 1978 
L 1159 0 
L 581 0 
L 581 3500 
L 1159 3500 
L 1159 2956 
Q 1366 3272 1645 3428 
Q 1925 3584 2291 3584 
Q 2894 3584 3203 3211 
Q 3513 2838 3513 2113 
z
" transform="scale(0.015625)"/>
       <path id="DejaVuSans-73" d="M 2834 3397 
L 2834 2853 
Q 2591 2978 2328 3040 
Q 2066 3103 1784 3103 
Q 1356 3103 1142 2972 
Q 928 2841 928 2578 
Q 928 2378 1081 2264 
Q 1234 2150 1697 2047 
L 1894 2003 
Q 2506 1872 2764 1633 
Q 3022 1394 3022 966 
Q 3022 478 2636 193 
Q 2250 -91 1575 -91 
Q 1294 -91 989 -36 
Q 684 19 347 128 
L 347 722 
Q 666 556 975 473 
Q 1284 391 1588 391 
Q 1994 391 2212 530 
Q 2431 669 2431 922 
Q 2431 1156 2273 1281 
Q 2116 1406 1581 1522 
L 1381 1569 
Q 847 1681 609 1914 
Q 372 2147 372 2553 
Q 372 3047 722 3315 
Q 1072 3584 1716 3584 
Q 2034 3584 2315 3537 
Q 2597 3491 2834 3397 
z
" transform="scale(0.015625)"/>
       <path id="DejaVuSans-79" d="M 2059 -325 
Q 1816 -950 1584 -1140 
Q 1353 -1331 966 -1331 
L 506 -1331 
L 506 -850 
L 844 -850 
Q 1081 -850 1212 -737 
Q 1344 -625 1503 -206 
L 1606 56 
L 191 3500 
L 800 3500 
L 1894 763 
L 2988 3500 
L 3597 3500 
L 2059 -325 
z
" transform="scale(0.015625)"/>
      </defs>
      <use xlink:href="#DejaVuSans-4e"/>
      <use xlink:href="#DejaVuSans-6f" x="74.804688"/>
      <use xlink:href="#DejaVuSans-72" x="135.986328"/>
      <use xlink:href="#DejaVuSans-6d" x="175.349609"/>
      <use xlink:href="#DejaVuSans-61" x="272.761719"/>
      <use xlink:href="#DejaVuSans-6c" x="334.041016"/>
      <use xlink:href="#DejaVuSans-69" x="361.824219"/>
      <use xlink:href="#DejaVuSans-7a" x="389.607422"/>
      <use xlink:href="#DejaVuSans-65" x="442.097656"/>
      <use xlink:href="#DejaVuSans-64" x="503.621094"/>
      <use xlink:href="#DejaVuSans-20" x="567.097656"/>
      <use xlink:href="#DejaVuSans-49" x="598.884766"/>
      <use xlink:href="#DejaVuSans-6e" x="628.376953"/>
      <use xlink:href="#DejaVuSans-74" x="691.755859"/>
      <use xlink:href="#DejaVuSans-65" x="730.964844"/>
      <use xlink:href="#DejaVuSans-6e" x="792.488281"/>
      <use xlink:href="#DejaVuSans-73" x="855.867188"/>
      <use xlink:href="#DejaVuSans-69" x="907.966797"/>
      <use xlink:href="#DejaVuSans-74" x="935.75"/>
      <use xlink:href="#DejaVuSans-79" x="974.958984"/>
     </g>
    </g>
   </g>
   <g id="line2d_10">
    <path d="M 58.51375 172.984325 
L 60.124804 167.259189 
L 61.735857 160.753143 
L 63.346911 153.577777 
L 66.569018 137.665442 
L 69.791125 120.388098 
L 73.013232 101.670025 
L 76.235339 80.603014 
L 81.068499 47.522819 
L 82.679553 38.380377 
L 84.290606 31.656627 
L 85.90166 27.17022 
L 89.123767 20.833716 
L 90.73482 18.699926 
L 92.345874 19.83985 
L 93.956927 26.628317 
L 95.567981 39.829441 
L 97.179034 58.235966 
L 100.401141 103.416642 
L 102.012195 121.091768 
L 103.623248 127.399666 
L 105.234302 121.275831 
L 106.845355 111.257614 
L 108.456409 106.943578 
L 110.067462 113.826841 
L 111.678516 127.579217 
L 113.289569 142.435473 
L 114.900623 153.946964 
L 116.511676 161.660708 
L 118.12273 165.878897 
L 119.733783 167.055552 
L 121.344837 166.233535 
L 126.177997 161.358725 
L 127.789051 158.709742 
L 129.400105 154.580649 
L 132.622212 144.238056 
L 134.233265 139.889405 
L 135.844319 137.965421 
L 137.455372 140.31064 
L 139.066426 148.381433 
L 140.677479 159.316308 
L 142.288533 167.568665 
L 143.899586 167.938398 
L 145.51064 161.06262 
L 147.121693 152.096383 
L 148.732747 146.131872 
L 150.3438 144.396182 
L 151.954854 144.404152 
L 153.565907 143.576676 
L 155.176961 141.139973 
L 156.788014 138.470934 
L 158.399068 137.04683 
L 160.010121 136.997388 
L 161.621175 136.457115 
L 163.232228 133.414625 
L 164.843282 127.412727 
L 166.454335 120.867277 
L 168.065389 116.500817 
L 169.676442 116.013461 
L 171.287496 118.729669 
L 172.898549 123.637143 
L 174.509603 129.542369 
L 176.120656 134.718243 
L 177.73171 137.339937 
L 179.342763 136.363024 
L 180.953817 133.67751 
L 182.56487 131.862999 
L 184.175924 132.988324 
L 185.786977 136.661646 
L 189.009084 147.082396 
L 190.620138 151.220313 
L 192.231191 152.629528 
L 193.842245 150.154518 
L 195.453298 145.702849 
L 197.064352 142.661478 
L 198.675406 144.019895 
L 200.286459 148.425967 
L 201.897513 151.901409 
L 203.508566 150.753396 
L 205.11962 145.953249 
L 206.730673 141.985628 
L 208.341727 143.192206 
L 211.563834 155.395512 
L 213.174887 156.926652 
L 214.785941 153.139206 
L 216.396994 148.055318 
L 218.008048 145.904282 
L 219.619101 148.110126 
L 221.230155 152.055478 
L 222.841208 154.824117 
L 224.452262 154.917255 
L 226.063315 153.383799 
L 227.674369 151.536535 
L 229.285422 150.218881 
L 232.507529 148.163372 
L 235.729636 145.510305 
L 237.34069 144.429374 
L 238.951743 144.021772 
L 240.562797 145.103651 
L 242.17385 148.58369 
L 245.395957 160.888293 
L 247.007011 163.494758 
L 248.618064 159.898111 
L 250.229118 152.727621 
L 251.840171 146.577354 
L 253.451225 145.39119 
L 255.062278 148.01941 
L 256.673332 150.92167 
L 258.284385 150.890457 
L 261.506492 145.557035 
L 263.117546 145.007439 
L 264.728599 146.352293 
L 266.339653 147.417876 
L 267.950707 146.106904 
L 271.172814 139.46243 
L 272.783867 138.878122 
L 274.394921 141.0161 
L 276.005974 143.421297 
L 277.617028 143.544581 
L 279.228081 140.837289 
L 280.839135 137.555088 
L 282.450188 136.146108 
L 284.061242 137.599421 
L 285.672295 140.353918 
L 287.283349 142.595376 
L 288.894402 143.264914 
L 290.505456 142.959982 
L 292.116509 142.497612 
L 293.727563 142.610855 
L 295.338616 143.799868 
L 296.94967 146.524732 
L 298.560723 150.64851 
L 300.171777 153.923596 
L 301.78283 153.636177 
L 303.393884 148.139524 
L 305.004937 140.61793 
L 306.615991 135.622179 
L 308.227044 136.741273 
L 311.449151 147.283719 
L 313.060205 149.165006 
L 314.671258 147.917067 
L 316.282312 145.586804 
L 317.893365 144.127942 
L 319.504419 144.481344 
L 321.115472 147.008375 
L 322.726526 151.949142 
L 324.337579 158.012929 
L 325.948633 162.817001 
L 327.559686 164.09686 
L 329.17074 162.234668 
L 330.781793 159.957386 
L 332.392847 159.991702 
L 334.003901 162.832604 
L 335.614954 166.523023 
L 337.226008 169.008035 
L 338.837061 169.438745 
L 340.448115 168.611468 
L 343.670222 166.301 
L 345.281275 164.732908 
L 346.892329 162.168924 
L 350.114436 155.033247 
L 351.725489 152.774827 
L 353.336543 152.398202 
L 354.947596 152.811309 
L 356.55865 152.6404 
L 358.169703 150.787797 
L 359.780757 147.10231 
L 361.39181 141.635418 
L 363.002864 134.991482 
L 364.613917 130.201535 
L 366.224971 130.962195 
L 367.836024 139.731053 
L 369.447078 151.983533 
L 371.058131 160.751502 
L 372.669185 160.235162 
L 375.891292 146.09496 
L 377.502345 144.881778 
L 379.113399 149.152484 
L 380.724452 155.036121 
L 382.335506 158.869633 
L 383.946559 160.148141 
L 385.557613 160.558957 
L 387.168666 161.737398 
L 388.77972 163.600948 
L 390.390773 164.585663 
L 392.001827 163.152623 
L 393.61288 159.679047 
L 395.223934 156.591573 
L 396.834987 156.357912 
L 398.446041 159.027983 
L 400.057094 161.441961 
L 401.668148 160.258574 
L 404.890255 150.045511 
L 406.501309 150.070606 
L 408.112362 156.711944 
L 409.723416 165.112005 
L 411.334469 169.61546 
L 412.945523 167.071735 
L 414.556576 160.875029 
L 416.16763 155.474985 
L 417.778683 154.153674 
L 419.389737 156.311048 
L 421.00079 160.541237 
L 422.611844 165.375924 
L 424.222897 169.081053 
L 425.833951 169.851899 
L 427.445004 166.475663 
L 429.056058 160.971526 
L 430.667111 156.456267 
L 432.278165 155.540174 
L 435.500272 159.082017 
L 437.111325 158.776949 
L 438.722379 156.55 
L 440.333432 153.946545 
L 441.944486 152.448419 
L 443.555539 152.588756 
L 445.166593 154.259951 
L 446.777646 157.301227 
L 448.3887 160.848258 
L 449.999753 163.446132 
L 451.610807 163.691105 
L 454.832914 160.179597 
L 456.443967 160.678369 
L 458.055021 163.866082 
L 459.666074 168.045375 
L 461.277128 171.379438 
L 462.888181 172.311847 
L 464.499235 169.737055 
L 466.110288 162.602947 
L 469.332395 140.965112 
L 470.943449 135.312088 
L 472.554503 137.02769 
L 475.77661 148.325127 
L 477.387663 150.39107 
L 478.998717 148.727568 
L 480.60977 143.701041 
L 483.831877 127.877136 
L 485.442931 121.784803 
L 487.053984 119.791529 
L 488.665038 121.292983 
L 490.276091 124.813666 
L 491.887145 128.867798 
L 493.498198 131.90303 
L 495.109252 132.339189 
L 496.720305 128.997694 
L 498.331359 124.287806 
L 499.942412 122.505731 
L 501.553466 127.559269 
L 503.164519 138.526035 
L 504.775573 151.309719 
L 506.386626 161.829943 
L 507.99768 167.178244 
L 509.608733 165.403678 
L 511.219787 154.795551 
L 512.83084 138.643856 
L 514.441894 125.306979 
L 516.052947 123.157189 
L 517.664001 132.902648 
L 519.275054 145.614114 
L 520.886108 151.844586 
L 522.497161 148.006393 
L 524.108215 139.67761 
L 525.719268 133.209024 
L 527.330322 131.771702 
L 528.941375 132.317334 
L 530.552429 131.081243 
L 532.163482 125.819509 
L 535.385589 109.794538 
L 536.996643 103.168843 
L 538.607696 100.226034 
L 540.21875 103.034882 
L 540.21875 103.034882 
" clip-path="url(#p820df3356d)" style="fill: none; stroke: #b200f4; stroke-width: 2; stroke-linecap: square"/>
   </g>
   <g id="line2d_11">
    <path d="M 58.51375 248.42 
L 60.124804 248.151853 
L 61.735857 248.195206 
L 64.957964 248.618086 
L 66.569018 248.698449 
L 68.180071 248.491985 
L 69.791125 247.893639 
L 73.013232 246.398301 
L 74.624285 246.079086 
L 79.457446 245.898793 
L 81.068499 245.682444 
L 82.679553 245.8029 
L 84.290606 246.601639 
L 85.90166 247.742697 
L 87.512713 248.351384 
L 89.123767 247.579341 
L 90.73482 245.503757 
L 92.345874 243.115013 
L 93.956927 241.425478 
L 95.567981 240.875513 
L 97.179034 241.205388 
L 98.790088 242.113282 
L 103.623248 245.853542 
L 105.234302 246.81145 
L 106.845355 247.525489 
L 108.456409 248.014389 
L 110.067462 248.30176 
L 111.678516 248.422896 
L 113.289569 248.414786 
L 114.900623 248.291366 
L 116.511676 247.996619 
L 118.12273 247.461303 
L 122.95589 245.125333 
L 124.566944 244.81305 
L 126.177997 244.873805 
L 127.789051 245.245627 
L 131.011158 246.390465 
L 132.622212 246.566355 
L 134.233265 246.093036 
L 137.455372 244.328517 
L 139.066426 243.946614 
L 140.677479 244.198347 
L 142.288533 245.056055 
L 145.51064 247.921024 
L 147.121693 248.611172 
L 148.732747 247.739141 
L 150.3438 245.423751 
L 151.954854 242.658629 
L 153.565907 240.452667 
L 155.176961 239.167603 
L 158.399068 237.685432 
L 160.010121 236.97544 
L 161.621175 236.763078 
L 163.232228 237.588003 
L 164.843282 239.503317 
L 166.454335 241.662692 
L 168.065389 243.124394 
L 169.676442 243.421548 
L 171.287496 243.190632 
L 172.898549 243.224186 
L 174.509603 243.978162 
L 176.120656 244.917392 
L 177.73171 245.325191 
L 179.342763 244.702965 
L 180.953817 243.372199 
L 182.56487 241.847095 
L 184.175924 240.594609 
L 185.786977 239.854083 
L 187.398031 239.796399 
L 189.009084 240.530962 
L 193.842245 244.23029 
L 195.453298 245.012732 
L 198.675406 246.191872 
L 200.286459 246.678718 
L 201.897513 246.963233 
L 203.508566 246.931673 
L 206.730673 246.222138 
L 208.341727 245.875883 
L 209.95278 245.715817 
L 211.563834 245.828446 
L 214.785941 246.841247 
L 216.396994 246.854604 
L 218.008048 245.689261 
L 219.619101 243.490931 
L 221.230155 241.535627 
L 222.841208 241.175919 
L 224.452262 242.715359 
L 226.063315 244.571992 
L 227.674369 244.971316 
L 229.285422 243.100978 
L 230.896476 240.320269 
L 232.507529 238.285527 
L 234.118583 237.988899 
L 235.729636 238.524693 
L 237.34069 238.650434 
L 238.951743 237.394734 
L 240.562797 234.774564 
L 242.17385 231.03208 
L 243.784904 226.573359 
L 245.395957 222.570004 
L 247.007011 220.416909 
L 248.618064 221.054968 
L 250.229118 222.698859 
L 251.840171 222.550417 
L 253.451225 218.226286 
L 255.062278 210.589681 
L 256.673332 202.027555 
L 258.284385 194.794825 
L 259.895439 189.697854 
L 261.506492 186.690808 
L 264.728599 184.434707 
L 266.339653 179.966846 
L 267.950707 169.142145 
L 269.56176 153.722202 
L 271.172814 139.84205 
L 272.783867 133.593613 
L 274.394921 135.212049 
L 276.005974 138.321783 
L 277.617028 136.292904 
L 279.228081 127.126409 
L 280.839135 115.315064 
L 282.450188 105.810617 
L 284.061242 101.330251 
L 285.672295 100.685501 
L 287.283349 102.295515 
L 290.505456 107.353998 
L 292.116509 109.148355 
L 293.727563 110.036158 
L 295.338616 111.645081 
L 296.94967 115.908711 
L 298.560723 123.724124 
L 300.171777 132.32397 
L 301.78283 138.131496 
L 303.393884 138.59546 
L 306.615991 133.172198 
L 308.227044 133.483018 
L 311.449151 138.601771 
L 313.060205 139.631436 
L 314.671258 139.733994 
L 316.282312 140.673752 
L 317.893365 143.947153 
L 319.504419 148.336879 
L 321.115472 151.072972 
L 322.726526 149.564604 
L 324.337579 143.861713 
L 327.559686 127.627545 
L 329.17074 120.625174 
L 330.781793 116.129963 
L 332.392847 115.32439 
L 334.003901 118.158379 
L 335.614954 123.22759 
L 337.226008 129.047052 
L 338.837061 133.641304 
L 340.448115 134.365789 
L 342.059168 128.562263 
L 343.670222 116.256124 
L 345.281275 102.034396 
L 346.892329 90.913567 
L 348.503382 85.482993 
L 351.725489 80.70301 
L 353.336543 76.051953 
L 354.947596 70.339797 
L 356.55865 65.230118 
L 358.169703 61.517159 
L 359.780757 57.014768 
L 361.39181 48.898596 
L 363.002864 35.982526 
L 364.613917 24.270828 
L 366.224971 21.739946 
L 367.836024 33.981215 
L 369.447078 53.145281 
L 371.058131 66.678936 
L 372.669185 64.172244 
L 374.280238 50.883714 
L 375.891292 39.013716 
L 377.502345 39.486765 
L 379.113399 50.709056 
L 380.724452 64.122123 
L 382.335506 71.713397 
L 383.946559 73.458849 
L 385.557613 74.879564 
L 387.168666 81.338252 
L 388.77972 93.372764 
L 390.390773 107.360069 
L 392.001827 119.603218 
L 393.61288 128.031595 
L 395.223934 132.314046 
L 396.834987 132.214963 
L 398.446041 127.924959 
L 400.057094 120.200486 
L 401.668148 109.848698 
L 403.279202 98.513415 
L 404.890255 89.221647 
L 406.501309 85.115194 
L 408.112362 87.038425 
L 409.723416 91.078851 
L 411.334469 92.738362 
L 412.945523 89.717978 
L 414.556576 85.464912 
L 416.16763 84.353022 
L 417.778683 89.664544 
L 419.389737 101.052111 
L 421.00079 117.414951 
L 422.611844 136.989725 
L 424.222897 155.193677 
L 425.833951 166.694243 
L 427.445004 167.668759 
L 429.056058 162.538801 
L 430.667111 158.525717 
L 432.278165 161.691921 
L 433.889218 169.904448 
L 435.500272 177.503233 
L 437.111325 179.384165 
L 438.722379 175.711648 
L 441.944486 163.672533 
L 443.555539 159.6723 
L 445.166593 157.943642 
L 446.777646 158.876355 
L 448.3887 162.250675 
L 449.999753 167.335152 
L 451.610807 173.397193 
L 453.22186 180.068767 
L 454.832914 187.361414 
L 458.055021 203.26269 
L 459.666074 209.917901 
L 461.277128 213.854109 
L 462.888181 214.775775 
L 466.110288 213.656227 
L 467.721342 214.39278 
L 469.332395 216.511139 
L 470.943449 220.028059 
L 474.165556 229.424591 
L 475.77661 233.166604 
L 477.387663 235.15129 
L 478.998717 235.866031 
L 482.220824 236.321742 
L 483.831877 236.891119 
L 485.442931 237.840679 
L 488.665038 240.383398 
L 490.276091 240.849823 
L 491.887145 240.105848 
L 493.498198 238.941323 
L 495.109252 238.668398 
L 496.720305 240.36643 
L 498.331359 243.0198 
L 499.942412 244.511083 
L 501.553466 242.951638 
L 503.164519 239.296941 
L 504.775573 236.37134 
L 506.386626 236.837381 
L 507.99768 240.168659 
L 509.608733 243.233229 
L 511.219787 242.921732 
L 512.83084 238.456081 
L 514.441894 231.421027 
L 517.664001 215.90967 
L 519.275054 209.342822 
L 520.886108 204.427644 
L 522.497161 201.415226 
L 524.108215 199.957819 
L 525.719268 199.6571 
L 527.330322 200.311661 
L 528.941375 202.105243 
L 530.552429 205.26556 
L 532.163482 209.788946 
L 536.996643 225.456503 
L 538.607696 229.178754 
L 540.21875 231.051169 
L 540.21875 231.051169 
" clip-path="url(#p820df3356d)" style="fill: none; stroke: #00c000; stroke-width: 2; stroke-linecap: square"/>
   </g>
   <g id="patch_3">
    <path d="M 58.51375 248.42 
L 58.51375 7.2 
" style="fill: none; stroke: #000000; stroke-width: 2; stroke-linejoin: miter; stroke-linecap: square"/>
   </g>
   <g id="patch_4">
    <path d="M 58.51375 248.42 
L 540.21875 248.42 
" style="fill: none; stroke: #000000; stroke-width: 2; stroke-linejoin: miter; stroke-linecap: square"/>
   </g>
   <g id="legend_1">
    <g id="line2d_12">
     <path d="M 449.61875 20.298437 
L 459.61875 20.298437 
L 469.61875 20.298437 
" style="fill: none; stroke: #b200f4; stroke-width: 2; stroke-linecap: square"/>
    </g>
    <g id="text_11">
     <!-- Membrane -->
     <g transform="translate(477.61875 23.798437) scale(0.1 -0.1)">
      <defs>
       <path id="DejaVuSans-4d" d="M 628 4666 
L 1569 4666 
L 2759 1491 
L 3956 4666 
L 4897 4666 
L 4897 0 
L 4281 0 
L 4281 4097 
L 3078 897 
L 2444 897 
L 1241 4097 
L 1241 0 
L 628 0 
L 628 4666 
z
" transform="scale(0.015625)"/>
       <path id="DejaVuSans-62" d="M 3116 1747 
Q 3116 2381 2855 2742 
Q 2594 3103 2138 3103 
Q 1681 3103 1420 2742 
Q 1159 2381 1159 1747 
Q 1159 1113 1420 752 
Q 1681 391 2138 391 
Q 2594 391 2855 752 
Q 3116 1113 3116 1747 
z
M 1159 2969 
Q 1341 3281 1617 3432 
Q 1894 3584 2278 3584 
Q 2916 3584 3314 3078 
Q 3713 2572 3713 1747 
Q 3713 922 3314 415 
Q 2916 -91 2278 -91 
Q 1894 -91 1617 61 
Q 1341 213 1159 525 
L 1159 0 
L 581 0 
L 581 4863 
L 1159 4863 
L 1159 2969 
z
" transform="scale(0.015625)"/>
      </defs>
      <use xlink:href="#DejaVuSans-4d"/>
      <use xlink:href="#DejaVuSans-65" x="86.279297"/>
      <use xlink:href="#DejaVuSans-6d" x="147.802734"/>
      <use xlink:href="#DejaVuSans-62" x="245.214844"/>
      <use xlink:href="#DejaVuSans-72" x="308.691406"/>
      <use xlink:href="#DejaVuSans-61" x="349.804688"/>
      <use xlink:href="#DejaVuSans-6e" x="411.083984"/>
      <use xlink:href="#DejaVuSans-65" x="474.462891"/>
     </g>
    </g>
    <g id="line2d_13">
     <path d="M 449.61875 34.976562 
L 459.61875 34.976562 
L 469.61875 34.976562 
" style="fill: none; stroke: #00c000; stroke-width: 2; stroke-linecap: square"/>
    </g>
    <g id="text_12">
     <!-- FtsZ -->
     <g transform="translate(477.61875 38.476562) scale(0.1 -0.1)">
      <defs>
       <path id="DejaVuSans-46" d="M 628 4666 
L 3309 4666 
L 3309 4134 
L 1259 4134 
L 1259 2759 
L 3109 2759 
L 3109 2228 
L 1259 2228 
L 1259 0 
L 628 0 
L 628 4666 
z
" transform="scale(0.015625)"/>
       <path id="DejaVuSans-5a" d="M 359 4666 
L 4025 4666 
L 4025 4184 
L 1075 531 
L 4097 531 
L 4097 0 
L 288 0 
L 288 481 
L 3238 4134 
L 359 4134 
L 359 4666 
z
" transform="scale(0.015625)"/>
      </defs>
      <use xlink:href="#DejaVuSans-46"/>
      <use xlink:href="#DejaVuSans-74" x="57.519531"/>
      <use xlink:href="#DejaVuSans-73" x="96.728516"/>
      <use xlink:href="#DejaVuSans-5a" x="148.828125"/>
     </g>
    </g>
   </g>
  </g>
 </g>
 <defs>
  <clipPath id="p820df3356d">
   <rect x="58.51375" y="7.2" width="481.705" height="241.22"/>
  </clipPath>
 </defs>
</svg>
