<?xml version="1.0" encoding="utf-8" standalone="no"?>
<!DOCTYPE svg PUBLIC "-//W3C//DTD SVG 1.1//EN"
  "http://www.w3.org/Graphics/SVG/1.1/DTD/svg11.dtd">
<svg xmlns:xlink="http://www.w3.org/1999/xlink" width="568.644219pt" height="280.669375pt" viewBox="0 0 568.644219 280.669375" xmlns="http://www.w3.org/2000/svg" version="1.1">
 <metadata>
  <rdf:RDF xmlns:dc="http://purl.org/dc/elements/1.1/" xmlns:cc="http://creativecommons.org/ns#" xmlns:rdf="http://www.w3.org/1999/02/22-rdf-syntax-ns#">
   <cc:Work>
    <dc:type rdf:resource="http://purl.org/dc/dcmitype/StillImage"/>
    <dc:date>2026-01-11T22:21:09.416824</dc:date>
    <dc:format>image/svg+xml</dc:format>
    <dc:creator>
     <cc:Agent>
      <dc:title>Matplotlib v3.10.8, https://matplotlib.org/</dc:title>
     </cc:Agent>
    </dc:creator>
   </cc:Work>
  </rdf:RDF>
 </metadata>
 <defs>
  <style type="text/css">*{stroke-linejoin: round; stroke-linecap: butt}</style>
 </defs>
 <g id="figure_1">
  <g id="patch_1">
   <path d="M 0 280.669375 
L 568.644219 280.669375 
L 568.644219 0 
L 0 0 
z
" style="fill: #ffffff"/>
  </g>
  <g id="axes_1">
   <g id="patch_2">
    <path d="M 58.51375 248.42 
L 540.26375 248.42 
L 540.26375 7.2 
L 58.51375 7.2 
z
" style="fill: #ffffff"/>
   </g>
   <g id="matplotlib.axis_1">
    <g id="xtick_1">
     <g id="line2d_1">
      <defs>
       <path id="mc03922b5b0" d="M 0 0 
L 0 8 
" style="stroke: #000000; stroke-width: 2"/>
      </defs>
      <g>
       <use xlink:href="#mc03922b5b0" x="58.51375" y="248.42" style="stroke: #000000; stroke-width: 2"/>
      </g>
     </g>
     <g id="text_1">
      <!-- Pole 1 -->
      <g transform="translate(37.333281 270.557813) scale(0.14 -0.14)">
       <defs>
        <path id="DejaVuSans-50" d="M 1259 4147 
L 1259 2394 
L 2053 2394 
Q 2494 2394 2734 2622 
Q 2975 2850 2975 3272 
Q 2975 3691 2734 3919 
Q 2494 4147 2053 4147 
L 1259 4147 
z
M 628 4666 
L 2053 4666 
Q 2838 4666 3239 4311 
Q 3641 3956 3641 3272 
Q 3641 2581 3239 2228 
Q 2838 1875 2053 1875 
L 1259 1875 
L 1259 0 
L 628 0 
L 628 4666 
z
" transform="scale(0.015625)"/>
        <path id="DejaVuSans-6f" d="M 1959 3097 
Q 1497 3097 1228 2736 
Q 959 2375 959 1747 
Q 959 1119 1226 758 
Q 1494 397 1959 397 
Q 2419 397 2687 759 
Q 2956 1122 2956 1747 
Q 2956 2369 2687 2733 
Q 2419 3097 1959 3097 
z
M 1959 3584 
Q 2709 3584 3137 3096 
Q 3566 2609 3566 1747 
Q 3566 888 3137 398 
Q 2709 -91 1959 -91 
Q 1206 -91 779 398 
Q 353 888 353 1747 
Q 353 2609 779 3096 
Q 1206 3584 1959 3584 
z
" transform="scale(0.015625)"/>
        <path id="DejaVuSans-6c" d="M 603 4863 
L 1178 4863 
L 1178 0 
L 603 0 
L 603 4863 
z
" transform="scale(0.015625)"/>
        <path id="DejaVuSans-65" d="M 3597 1894 
L 3597 1613 
L 953 1613 
Q 991 1019 1311 708 
Q 1631 397 2203 397 
Q 2534 397 2845 478 
Q 3156 559 3463 722 
L 3463 178 
Q 3153 47 2828 -22 
Q 2503 -91 2169 -91 
Q 1331 -91 842 396 
Q 353 884 353 1716 
Q 353 2575 817 3079 
Q 1281 3584 2069 3584 
Q 2775 3584 3186 3129 
Q 3597 2675 3597 1894 
z
M 3022 2063 
Q 3016 2534 2758 2815 
Q 2500 3097 2075 3097 
Q 1594 3097 1305 2825 
Q 1016 2553 972 2059 
L 3022 2063 
z
" transform="scale(0.015625)"/>
        <path id="DejaVuSans-20" transform="scale(0.015625)"/>
        <path id="DejaVuSans-31" d="M 794 531 
L 1825 531 
L 1825 4091 
L 703 3866 
L 703 4441 
L 1819 4666 
L 2450 4666 
L 2450 531 
L 3481 531 
L 3481 0 
L 794 0 
L 794 531 
z
" transform="scale(0.015625)"/>
       </defs>
       <use xlink:href="#DejaVuSans-50"/>
       <use xlink:href="#DejaVuSans-6f" transform="translate(56.677734 0)"/>
       <use xlink:href="#DejaVuSans-6c" transform="translate(117.859375 0)"/>
       <use xlink:href="#DejaVuSans-65" transform="translate(145.642578 0)"/>
       <use xlink:href="#DejaVuSans-20" transform="translate(207.166016 0)"/>
       <use xlink:href="#DejaVuSans-31" transform="translate(238.953125 0)"/>
      </g>
     </g>
    </g>
    <g id="xtick_2">
     <g id="line2d_2">
      <g>
       <use xlink:href="#mc03922b5b0" x="299.38875" y="248.42" style="stroke: #000000; stroke-width: 2"/>
      </g>
     </g>
     <g id="text_2">
      <!-- Equator -->
      <g transform="translate(271.890781 270.557813) scale(0.14 -0.14)">
       <defs>
        <path id="DejaVuSans-45" d="M 628 4666 
L 3578 4666 
L 3578 4134 
L 1259 4134 
L 1259 2753 
L 3481 2753 
L 3481 2222 
L 1259 2222 
L 1259 531 
L 3634 531 
L 3634 0 
L 628 0 
L 628 4666 
z
" transform="scale(0.015625)"/>
        <path id="DejaVuSans-71" d="M 947 1747 
Q 947 1113 1208 752 
Q 1469 391 1925 391 
Q 2381 391 2643 752 
Q 2906 1113 2906 1747 
Q 2906 2381 2643 2742 
Q 2381 3103 1925 3103 
Q 1469 3103 1208 2742 
Q 947 2381 947 1747 
z
M 2906 525 
Q 2725 213 2448 61 
Q 2172 -91 1784 -91 
Q 1150 -91 751 415 
Q 353 922 353 1747 
Q 353 2572 751 3078 
Q 1150 3584 1784 3584 
Q 2172 3584 2448 3432 
Q 2725 3281 2906 2969 
L 2906 3500 
L 3481 3500 
L 3481 -1331 
L 2906 -1331 
L 2906 525 
z
" transform="scale(0.015625)"/>
        <path id="DejaVuSans-75" d="M 544 1381 
L 544 3500 
L 1119 3500 
L 1119 1403 
Q 1119 906 1312 657 
Q 1506 409 1894 409 
Q 2359 409 2629 706 
Q 2900 1003 2900 1516 
L 2900 3500 
L 3475 3500 
L 3475 0 
L 2900 0 
L 2900 538 
Q 2691 219 2414 64 
Q 2138 -91 1772 -91 
Q 1169 -91 856 284 
Q 544 659 544 1381 
z
M 1991 3584 
L 1991 3584 
z
" transform="scale(0.015625)"/>
        <path id="DejaVuSans-61" d="M 2194 1759 
Q 1497 1759 1228 1600 
Q 959 1441 959 1056 
Q 959 750 1161 570 
Q 1363 391 1709 391 
Q 2188 391 2477 730 
Q 2766 1069 2766 1631 
L 2766 1759 
L 2194 1759 
z
M 3341 1997 
L 3341 0 
L 2766 0 
L 2766 531 
Q 2569 213 2275 61 
Q 1981 -91 1556 -91 
Q 1019 -91 701 211 
Q 384 513 384 1019 
Q 384 1609 779 1909 
Q 1175 2209 1959 2209 
L 2766 2209 
L 2766 2266 
Q 2766 2663 2505 2880 
Q 2244 3097 1772 3097 
Q 1472 3097 1187 3025 
Q 903 2953 641 2809 
L 641 3341 
Q 956 3463 1253 3523 
Q 1550 3584 1831 3584 
Q 2591 3584 2966 3190 
Q 3341 2797 3341 1997 
z
" transform="scale(0.015625)"/>
        <path id="DejaVuSans-74" d="M 1172 4494 
L 1172 3500 
L 2356 3500 
L 2356 3053 
L 1172 3053 
L 1172 1153 
Q 1172 725 1289 603 
Q 1406 481 1766 481 
L 2356 481 
L 2356 0 
L 1766 0 
Q 1100 0 847 248 
Q 594 497 594 1153 
L 594 3053 
L 172 3053 
L 172 3500 
L 594 3500 
L 594 4494 
L 1172 4494 
z
" transform="scale(0.015625)"/>
        <path id="DejaVuSans-72" d="M 2631 2963 
Q 2534 3019 2420 3045 
Q 2306 3072 2169 3072 
Q 1681 3072 1420 2755 
Q 1159 2438 1159 1844 
L 1159 0 
L 581 0 
L 581 3500 
L 1159 3500 
L 1159 2956 
Q 1341 3275 1631 3429 
Q 1922 3584 2338 3584 
Q 2397 3584 2469 3576 
Q 2541 3569 2628 3553 
L 2631 2963 
z
" transform="scale(0.015625)"/>
       </defs>
       <use xlink:href="#DejaVuSans-45"/>
       <use xlink:href="#DejaVuSans-71" transform="translate(63.183594 0)"/>
       <use xlink:href="#DejaVuSans-75" transform="translate(126.660156 0)"/>
       <use xlink:href="#DejaVuSans-61" transform="translate(190.039062 0)"/>
       <use xlink:href="#DejaVuSans-74" transform="translate(251.318359 0)"/>
       <use xlink:href="#DejaVuSans-6f" transform="translate(290.527344 0)"/>
       <use xlink:href="#DejaVuSans-72" transform="translate(351.708984 0)"/>
      </g>
     </g>
    </g>
    <g id="xtick_3">
     <g id="line2d_3">
      <g>
       <use xlink:href="#mc03922b5b0" x="540.26375" y="248.42" style="stroke: #000000; stroke-width: 2"/>
      </g>
     </g>
     <g id="text_3">
      <!-- Pole 2 -->
      <g transform="translate(519.083281 270.557813) scale(0.14 -0.14)">
       <defs>
        <path id="DejaVuSans-32" d="M 1228 531 
L 3431 531 
L 3431 0 
L 469 0 
L 469 531 
Q 828 903 1448 1529 
Q 2069 2156 2228 2338 
Q 2531 2678 2651 2914 
Q 2772 3150 2772 3378 
Q 2772 3750 2511 3984 
Q 2250 4219 1831 4219 
Q 1534 4219 1204 4116 
Q 875 4013 500 3803 
L 500 4441 
Q 881 4594 1212 4672 
Q 1544 4750 1819 4750 
Q 2544 4750 2975 4387 
Q 3406 4025 3406 3419 
Q 3406 3131 3298 2873 
Q 3191 2616 2906 2266 
Q 2828 2175 2409 1742 
Q 1991 1309 1228 531 
z
" transform="scale(0.015625)"/>
       </defs>
       <use xlink:href="#DejaVuSans-50"/>
       <use xlink:href="#DejaVuSans-6f" transform="translate(56.677734 0)"/>
       <use xlink:href="#DejaVuSans-6c" transform="translate(117.859375 0)"/>
       <use xlink:href="#DejaVuSans-65" transform="translate(145.642578 0)"/>
       <use xlink:href="#DejaVuSans-20" transform="translate(207.166016 0)"/>
       <use xlink:href="#DejaVuSans-32" transform="translate(238.953125 0)"/>
      </g>
     </g>
    </g>
   </g>
   <g id="matplotlib.axis_2">
    <g id="ytick_1">
     <g id="line2d_4">
      <defs>
       <path id="ma811cf4d13" d="M 0 0 
L -8 0 
" style="stroke: #000000; stroke-width: 2"/>
      </defs>
      <g>
       <use xlink:href="#ma811cf4d13" x="58.51375" y="248.42" style="stroke: #000000; stroke-width: 2"/>
      </g>
     </g>
     <g id="text_4">
      <!-- 0.0 -->
      <g transform="translate(24.749375 253.738906) scale(0.14 -0.14)">
       <defs>
        <path id="DejaVuSans-30" d="M 2034 4250 
Q 1547 4250 1301 3770 
Q 1056 3291 1056 2328 
Q 1056 1369 1301 889 
Q 1547 409 2034 409 
Q 2525 409 2770 889 
Q 3016 1369 3016 2328 
Q 3016 3291 2770 3770 
Q 2525 4250 2034 4250 
z
M 2034 4750 
Q 2819 4750 3233 4129 
Q 3647 3509 3647 2328 
Q 3647 1150 3233 529 
Q 2819 -91 2034 -91 
Q 1250 -91 836 529 
Q 422 1150 422 2328 
Q 422 3509 836 4129 
Q 1250 4750 2034 4750 
z
" transform="scale(0.015625)"/>
        <path id="DejaVuSans-2e" d="M 684 794 
L 1344 794 
L 1344 0 
L 684 0 
L 684 794 
z
" transform="scale(0.015625)"/>
       </defs>
       <use xlink:href="#DejaVuSans-30"/>
       <use xlink:href="#DejaVuSans-2e" transform="translate(63.623047 0)"/>
       <use xlink:href="#DejaVuSans-30" transform="translate(95.410156 0)"/>
      </g>
     </g>
    </g>
    <g id="ytick_2">
     <g id="line2d_5">
      <g>
       <use xlink:href="#ma811cf4d13" x="58.51375" y="203.320784" style="stroke: #000000; stroke-width: 2"/>
      </g>
     </g>
     <g id="text_5">
      <!-- 0.2 -->
      <g transform="translate(24.749375 208.63969) scale(0.14 -0.14)">
       <use xlink:href="#DejaVuSans-30"/>
       <use xlink:href="#DejaVuSans-2e" transform="translate(63.623047 0)"/>
       <use xlink:href="#DejaVuSans-32" transform="translate(95.410156 0)"/>
      </g>
     </g>
    </g>
    <g id="ytick_3">
     <g id="line2d_6">
      <g>
       <use xlink:href="#ma811cf4d13" x="58.51375" y="158.221567" style="stroke: #000000; stroke-width: 2"/>
      </g>
     </g>
     <g id="text_6">
      <!-- 0.4 -->
      <g transform="translate(24.749375 163.540473) scale(0.14 -0.14)">
       <defs>
        <path id="DejaVuSans-34" d="M 2419 4116 
L 825 1625 
L 2419 1625 
L 2419 4116 
z
M 2253 4666 
L 3047 4666 
L 3047 1625 
L 3713 1625 
L 3713 1100 
L 3047 1100 
L 3047 0 
L 2419 0 
L 2419 1100 
L 313 1100 
L 313 1709 
L 2253 4666 
z
" transform="scale(0.015625)"/>
       </defs>
       <use xlink:href="#DejaVuSans-30"/>
       <use xlink:href="#DejaVuSans-2e" transform="translate(63.623047 0)"/>
       <use xlink:href="#DejaVuSans-34" transform="translate(95.410156 0)"/>
      </g>
     </g>
    </g>
    <g id="ytick_4">
     <g id="line2d_7">
      <g>
       <use xlink:href="#ma811cf4d13" x="58.51375" y="113.122351" style="stroke: #000000; stroke-width: 2"/>
      </g>
     </g>
     <g id="text_7">
      <!-- 0.6 -->
      <g transform="translate(24.749375 118.441257) scale(0.14 -0.14)">
       <defs>
        <path id="DejaVuSans-36" d="M 2113 2584 
Q 1688 2584 1439 2293 
Q 1191 2003 1191 1497 
Q 1191 994 1439 701 
Q 1688 409 2113 409 
Q 2538 409 2786 701 
Q 3034 994 3034 1497 
Q 3034 2003 2786 2293 
Q 2538 2584 2113 2584 
z
M 3366 4563 
L 3366 3988 
Q 3128 4100 2886 4159 
Q 2644 4219 2406 4219 
Q 1781 4219 1451 3797 
Q 1122 3375 1075 2522 
Q 1259 2794 1537 2939 
Q 1816 3084 2150 3084 
Q 2853 3084 3261 2657 
Q 3669 2231 3669 1497 
Q 3669 778 3244 343 
Q 2819 -91 2113 -91 
Q 1303 -91 875 529 
Q 447 1150 447 2328 
Q 447 3434 972 4092 
Q 1497 4750 2381 4750 
Q 2619 4750 2861 4703 
Q 3103 4656 3366 4563 
z
" transform="scale(0.015625)"/>
       </defs>
       <use xlink:href="#DejaVuSans-30"/>
       <use xlink:href="#DejaVuSans-2e" transform="translate(63.623047 0)"/>
       <use xlink:href="#DejaVuSans-36" transform="translate(95.410156 0)"/>
      </g>
     </g>
    </g>
    <g id="ytick_5">
     <g id="line2d_8">
      <g>
       <use xlink:href="#ma811cf4d13" x="58.51375" y="68.023134" style="stroke: #000000; stroke-width: 2"/>
      </g>
     </g>
     <g id="text_8">
      <!-- 0.8 -->
      <g transform="translate(24.749375 73.34204) scale(0.14 -0.14)">
       <defs>
        <path id="DejaVuSans-38" d="M 2034 2216 
Q 1584 2216 1326 1975 
Q 1069 1734 1069 1313 
Q 1069 891 1326 650 
Q 1584 409 2034 409 
Q 2484 409 2743 651 
Q 3003 894 3003 1313 
Q 3003 1734 2745 1975 
Q 2488 2216 2034 2216 
z
M 1403 2484 
Q 997 2584 770 2862 
Q 544 3141 544 3541 
Q 544 4100 942 4425 
Q 1341 4750 2034 4750 
Q 2731 4750 3128 4425 
Q 3525 4100 3525 3541 
Q 3525 3141 3298 2862 
Q 3072 2584 2669 2484 
Q 3125 2378 3379 2068 
Q 3634 1759 3634 1313 
Q 3634 634 3220 271 
Q 2806 -91 2034 -91 
Q 1263 -91 848 271 
Q 434 634 434 1313 
Q 434 1759 690 2068 
Q 947 2378 1403 2484 
z
M 1172 3481 
Q 1172 3119 1398 2916 
Q 1625 2713 2034 2713 
Q 2441 2713 2670 2916 
Q 2900 3119 2900 3481 
Q 2900 3844 2670 4047 
Q 2441 4250 2034 4250 
Q 1625 4250 1398 4047 
Q 1172 3844 1172 3481 
z
" transform="scale(0.015625)"/>
       </defs>
       <use xlink:href="#DejaVuSans-30"/>
       <use xlink:href="#DejaVuSans-2e" transform="translate(63.623047 0)"/>
       <use xlink:href="#DejaVuSans-38" transform="translate(95.410156 0)"/>
      </g>
     </g>
    </g>
    <g id="ytick_6">
     <g id="line2d_9">
      <g>
       <use xlink:href="#ma811cf4d13" x="58.51375" y="22.923918" style="stroke: #000000; stroke-width: 2"/>
      </g>
     </g>
     <g id="text_9">
      <!-- 1.0 -->
      <g transform="translate(24.749375 28.242824) scale(0.14 -0.14)">
       <use xlink:href="#DejaVuSans-31"/>
       <use xlink:href="#DejaVuSans-2e" transform="translate(63.623047 0)"/>
       <use xlink:href="#DejaVuSans-30" transform="translate(95.410156 0)"/>
      </g>
     </g>
    </g>
    <g id="text_10">
     <!-- Normalized Intensity -->
     <g transform="translate(17.837813 200.199844) rotate(-90) scale(0.14 -0.14)">
      <defs>
       <path id="DejaVuSans-4e" d="M 628 4666 
L 1478 4666 
L 3547 763 
L 3547 4666 
L 4159 4666 
L 4159 0 
L 3309 0 
L 1241 3903 
L 1241 0 
L 628 0 
L 628 4666 
z
" transform="scale(0.015625)"/>
       <path id="DejaVuSans-6d" d="M 3328 2828 
Q 3544 3216 3844 3400 
Q 4144 3584 4550 3584 
Q 5097 3584 5394 3201 
Q 5691 2819 5691 2113 
L 5691 0 
L 5113 0 
L 5113 2094 
Q 5113 2597 4934 2840 
Q 4756 3084 4391 3084 
Q 3944 3084 3684 2787 
Q 3425 2491 3425 1978 
L 3425 0 
L 2847 0 
L 2847 2094 
Q 2847 2600 2669 2842 
Q 2491 3084 2119 3084 
Q 1678 3084 1418 2786 
Q 1159 2488 1159 1978 
L 1159 0 
L 581 0 
L 581 3500 
L 1159 3500 
L 1159 2956 
Q 1356 3278 1631 3431 
Q 1906 3584 2284 3584 
Q 2666 3584 2933 3390 
Q 3200 3197 3328 2828 
z
" transform="scale(0.015625)"/>
       <path id="DejaVuSans-69" d="M 603 3500 
L 1178 3500 
L 1178 0 
L 603 0 
L 603 3500 
z
M 603 4863 
L 1178 4863 
L 1178 4134 
L 603 4134 
L 603 4863 
z
" transform="scale(0.015625)"/>
       <path id="DejaVuSans-7a" d="M 353 3500 
L 3084 3500 
L 3084 2975 
L 922 459 
L 3084 459 
L 3084 0 
L 275 0 
L 275 525 
L 2438 3041 
L 353 3041 
L 353 3500 
z
" transform="scale(0.015625)"/>
       <path id="DejaVuSans-64" d="M 2906 2969 
L 2906 4863 
L 3481 4863 
L 3481 0 
L 2906 0 
L 2906 525 
Q 2725 213 2448 61 
Q 2172 -91 1784 -91 
Q 1150 -91 751 415 
Q 353 922 353 1747 
Q 353 2572 751 3078 
Q 1150 3584 1784 3584 
Q 2172 3584 2448 3432 
Q 2725 3281 2906 2969 
z
M 947 1747 
Q 947 1113 1208 752 
Q 1469 391 1925 391 
Q 2381 391 2643 752 
Q 2906 1113 2906 1747 
Q 2906 2381 2643 2742 
Q 2381 3103 1925 3103 
Q 1469 3103 1208 2742 
Q 947 2381 947 1747 
z
" transform="scale(0.015625)"/>
       <path id="DejaVuSans-49" d="M 628 4666 
L 1259 4666 
L 1259 0 
L 628 0 
L 628 4666 
z
" transform="scale(0.015625)"/>
       <path id="DejaVuSans-6e" d="M 3513 2113 
L 3513 0 
L 2938 0 
L 2938 2094 
Q 2938 2591 2744 2837 
Q 2550 3084 2163 3084 
Q 1697 3084 1428 2787 
Q 1159 2491 1159 1978 
L 1159 0 
L 581 0 
L 581 3500 
L 1159 3500 
L 1159 2956 
Q 1366 3272 1645 3428 
Q 1925 3584 2291 3584 
Q 2894 3584 3203 3211 
Q 3513 2838 3513 2113 
z
" transform="scale(0.015625)"/>
       <path id="DejaVuSans-73" d="M 2834 3397 
L 2834 2853 
Q 2591 2978 2328 3040 
Q 2066 3103 1784 3103 
Q 1356 3103 1142 2972 
Q 928 2841 928 2578 
Q 928 2378 1081 2264 
Q 1234 2150 1697 2047 
L 1894 2003 
Q 2506 1872 2764 1633 
Q 3022 1394 3022 966 
Q 3022 478 2636 193 
Q 2250 -91 1575 -91 
Q 1294 -91 989 -36 
Q 684 19 347 128 
L 347 722 
Q 666 556 975 473 
Q 1284 391 1588 391 
Q 1994 391 2212 530 
Q 2431 669 2431 922 
Q 2431 1156 2273 1281 
Q 2116 1406 1581 1522 
L 1381 1569 
Q 847 1681 609 1914 
Q 372 2147 372 2553 
Q 372 3047 722 3315 
Q 1072 3584 1716 3584 
Q 2034 3584 2315 3537 
Q 2597 3491 2834 3397 
z
" transform="scale(0.015625)"/>
       <path id="DejaVuSans-79" d="M 2059 -325 
Q 1816 -950 1584 -1140 
Q 1353 -1331 966 -1331 
L 506 -1331 
L 506 -850 
L 844 -850 
Q 1081 -850 1212 -737 
Q 1344 -625 1503 -206 
L 1606 56 
L 191 3500 
L 800 3500 
L 1894 763 
L 2988 3500 
L 3597 3500 
L 2059 -325 
z
" transform="scale(0.015625)"/>
      </defs>
      <use xlink:href="#DejaVuSans-4e"/>
      <use xlink:href="#DejaVuSans-6f" transform="translate(74.804688 0)"/>
      <use xlink:href="#DejaVuSans-72" transform="translate(135.986328 0)"/>
      <use xlink:href="#DejaVuSans-6d" transform="translate(175.349609 0)"/>
      <use xlink:href="#DejaVuSans-61" transform="translate(272.761719 0)"/>
      <use xlink:href="#DejaVuSans-6c" transform="translate(334.041016 0)"/>
      <use xlink:href="#DejaVuSans-69" transform="translate(361.824219 0)"/>
      <use xlink:href="#DejaVuSans-7a" transform="translate(389.607422 0)"/>
      <use xlink:href="#DejaVuSans-65" transform="translate(442.097656 0)"/>
      <use xlink:href="#DejaVuSans-64" transform="translate(503.621094 0)"/>
      <use xlink:href="#DejaVuSans-20" transform="translate(567.097656 0)"/>
      <use xlink:href="#DejaVuSans-49" transform="translate(598.884766 0)"/>
      <use xlink:href="#DejaVuSans-6e" transform="translate(628.376953 0)"/>
      <use xlink:href="#DejaVuSans-74" transform="translate(691.755859 0)"/>
      <use xlink:href="#DejaVuSans-65" transform="translate(730.964844 0)"/>
      <use xlink:href="#DejaVuSans-6e" transform="translate(792.488281 0)"/>
      <use xlink:href="#DejaVuSans-73" transform="translate(855.867188 0)"/>
      <use xlink:href="#DejaVuSans-69" transform="translate(907.966797 0)"/>
      <use xlink:href="#DejaVuSans-74" transform="translate(935.75 0)"/>
      <use xlink:href="#DejaVuSans-79" transform="translate(974.958984 0)"/>
     </g>
    </g>
   </g>
   <g id="line2d_10">
    <path d="M 58.51375 53.250943 
L 60.124954 41.048079 
L 61.736158 31.420568 
L 63.347362 24.70801 
L 64.958566 21.250004 
L 66.56977 21.38615 
L 68.180974 25.45605 
L 69.792178 33.794901 
L 71.403382 45.856864 
L 73.014586 59.15524 
L 74.62579 70.944534 
L 76.236994 78.835744 
L 77.848198 83.017669 
L 79.459402 84.812578 
L 81.070606 85.530992 
L 82.68181 85.869844 
L 84.293014 85.747825 
L 85.904218 85.033466 
L 87.515422 83.873265 
L 89.126626 83.488325 
L 90.73783 85.359399 
L 92.349034 90.844213 
L 93.960238 99.555551 
L 97.182646 119.895689 
L 98.79385 128.25729 
L 100.405054 133.679192 
L 102.016258 134.988946 
L 103.627462 131.364175 
L 105.238666 124.423913 
L 106.84987 116.826858 
L 108.461074 111.202406 
L 110.072278 109.034567 
L 111.683482 110.397292 
L 113.294686 115.277732 
L 114.90589 123.233151 
L 116.517094 132.214536 
L 118.128298 139.797781 
L 119.739503 143.74195 
L 121.350707 144.29285 
L 122.961911 143.488442 
L 124.573115 143.398429 
L 127.795523 146.356341 
L 129.406727 145.870752 
L 131.017931 141.974483 
L 132.629135 136.299183 
L 134.240339 131.751706 
L 135.851543 131.167736 
L 137.462747 134.943638 
L 139.073951 140.560925 
L 140.685155 145.329917 
L 142.296359 147.31013 
L 143.907563 147.266875 
L 145.518767 146.576107 
L 147.129971 146.518976 
L 148.741175 147.143901 
L 150.352379 147.63721 
L 151.963583 147.17054 
L 153.574787 145.322205 
L 155.185991 142.485442 
L 158.408399 135.736844 
L 160.019603 132.197371 
L 161.630807 128.300123 
L 164.853215 119.382231 
L 166.464419 116.407524 
L 168.075623 116.438845 
L 169.686827 120.199167 
L 171.298031 125.611359 
L 172.909235 129.987595 
L 174.520439 130.874674 
L 176.131643 128.743204 
L 177.742847 126.04775 
L 179.354051 125.269878 
L 180.965255 127.591435 
L 184.187663 135.873253 
L 185.798867 138.814008 
L 187.410071 140.642227 
L 189.021275 142.101843 
L 190.632479 143.921108 
L 192.243683 146.340357 
L 195.466091 151.713344 
L 197.077295 154.014674 
L 198.688499 155.722419 
L 200.299703 156.62173 
L 201.910907 156.515178 
L 203.522111 155.413539 
L 205.133315 153.464655 
L 206.744519 150.819966 
L 209.966927 144.805785 
L 211.578131 142.507702 
L 213.189335 141.340502 
L 214.800539 141.332275 
L 216.411743 142.34388 
L 218.022947 144.229552 
L 221.245355 149.164497 
L 222.856559 151.193115 
L 224.467763 152.421361 
L 226.078967 153.097105 
L 227.690171 153.587141 
L 229.301375 154.233359 
L 232.523783 156.037223 
L 235.746191 157.740633 
L 240.579804 160.112012 
L 242.191008 160.509265 
L 243.802212 159.864704 
L 245.413416 157.59748 
L 248.635824 150.675857 
L 250.247028 148.821141 
L 251.858232 149.467248 
L 253.469436 152.090816 
L 255.08064 155.877531 
L 256.691844 160.022493 
L 258.303048 163.824455 
L 259.914252 166.646386 
L 261.525456 167.856897 
L 263.13666 167.238605 
L 264.747864 165.306751 
L 267.970272 159.889851 
L 269.581476 157.788145 
L 271.19268 157.165446 
L 272.803884 158.785344 
L 274.415088 162.065008 
L 276.026292 165.034684 
L 277.637496 165.661609 
L 279.2487 162.881059 
L 280.859904 158.582406 
L 282.471108 155.216528 
L 284.082312 154.990881 
L 285.693516 157.539035 
L 287.30472 160.94795 
L 288.915924 163.293605 
L 290.527128 163.465315 
L 292.138332 161.748081 
L 293.749536 158.564257 
L 296.971944 150.434487 
L 298.583148 147.812646 
L 300.194352 147.762737 
L 301.805556 150.024484 
L 303.41676 152.885651 
L 305.027964 154.571412 
L 306.639168 153.979 
L 309.861576 149.8476 
L 311.47278 148.722675 
L 313.083984 149.00886 
L 314.695188 150.649027 
L 316.306392 153.577384 
L 317.917596 157.505188 
L 319.5288 161.772665 
L 321.140004 165.684949 
L 322.751208 168.699644 
L 327.58482 175.981993 
L 329.196024 178.954585 
L 330.807228 181.667385 
L 332.418432 183.510296 
L 335.64084 185.004529 
L 337.252044 186.861945 
L 338.863248 190.921847 
L 340.474452 196.786132 
L 342.085656 203.233059 
L 343.69686 209.036024 
L 345.308064 213.268014 
L 346.919268 215.485595 
L 348.530472 215.289259 
L 350.141676 212.597024 
L 351.75288 208.940714 
L 353.364084 206.363592 
L 354.975288 206.804543 
L 356.586492 210.035512 
L 358.197696 213.786257 
L 359.808901 215.708269 
L 361.420105 214.419272 
L 364.642513 207.814177 
L 366.253717 205.846856 
L 367.864921 205.594556 
L 369.476125 206.627161 
L 371.087329 208.505357 
L 372.698533 210.677612 
L 374.309737 212.416682 
L 375.920941 212.979999 
L 377.532145 211.841618 
L 379.143349 209.53932 
L 380.754553 206.936869 
L 382.365757 204.86429 
L 383.976961 203.485369 
L 385.588165 202.354369 
L 387.199369 201.003294 
L 388.810573 199.077581 
L 390.421777 196.525926 
L 392.032981 193.347165 
L 393.644185 189.569459 
L 396.866593 181.53125 
L 398.477797 178.139047 
L 400.089001 175.671103 
L 401.700205 174.378812 
L 403.311409 174.504343 
L 404.922613 176.148586 
L 409.756225 183.719575 
L 411.367429 184.886209 
L 412.978633 184.807788 
L 414.589837 183.285239 
L 417.812245 177.527737 
L 419.423449 175.677908 
L 421.034653 175.973176 
L 422.645857 177.431335 
L 424.257061 178.030825 
L 425.868265 175.773229 
L 427.479469 170.328366 
L 429.090673 163.824581 
L 430.701877 158.587503 
L 432.313081 156.316097 
L 433.924285 155.835985 
L 435.535489 155.149753 
L 437.146693 152.400721 
L 438.757897 148.246331 
L 440.369101 145.511506 
L 441.980305 147.087447 
L 443.591509 154.062204 
L 445.202713 163.007273 
L 446.813917 169.798417 
L 448.425121 170.828202 
L 450.036325 166.820736 
L 451.647529 160.661734 
L 453.258733 155.22147 
L 454.869937 151.842407 
L 456.481141 149.682314 
L 458.092345 147.730945 
L 459.703549 145.160444 
L 461.314753 141.951124 
L 464.537161 134.438919 
L 466.148365 130.668827 
L 467.759569 127.412262 
L 469.370773 125.086909 
L 470.981977 123.899454 
L 472.593181 123.544905 
L 474.204385 123.642212 
L 475.815589 123.887271 
L 477.426793 124.59721 
L 479.037997 126.389592 
L 480.649202 129.861701 
L 482.260406 134.603803 
L 483.87161 138.808849 
L 485.482814 140.566866 
L 487.094018 138.5598 
L 488.705222 134.004395 
L 490.316426 128.795783 
L 491.92763 124.734148 
L 493.538834 122.077105 
L 495.150038 119.829242 
L 496.761242 116.960137 
L 498.372446 112.776351 
L 499.98365 107.375778 
L 501.594854 100.969784 
L 504.817262 87.025404 
L 506.428466 81.779041 
L 508.03967 79.403035 
L 509.650874 80.156706 
L 511.262078 82.91926 
L 512.873282 86.472603 
L 514.484486 89.724099 
L 516.09569 92.10036 
L 517.706894 93.162308 
L 519.318098 92.54065 
L 520.929302 90.948807 
L 522.540506 89.953833 
L 524.15171 91.143071 
L 525.762914 95.439609 
L 527.374118 102.255843 
L 528.985322 110.795253 
L 532.20773 130.324844 
L 537.041342 160.365796 
L 538.652546 169.329984 
L 540.26375 177.249329 
L 540.26375 177.249329 
" clip-path="url(#pa3bfe2a8f8)" style="fill: none; stroke: #b200f4; stroke-width: 2; stroke-linecap: square"/>
   </g>
   <g id="line2d_11">
    <path d="M 58.51375 245.914488 
L 60.124954 246.901084 
L 61.736158 247.60312 
L 63.347362 248.065217 
L 64.958566 248.331997 
L 68.180974 248.458092 
L 73.014586 248.317537 
L 74.62579 248.390147 
L 77.848198 248.764806 
L 79.459402 248.683154 
L 81.070606 248.119278 
L 82.68181 247.092836 
L 84.293014 245.934566 
L 85.904218 244.995255 
L 87.515422 244.525521 
L 95.571442 243.807971 
L 97.182646 243.920757 
L 98.79385 244.37643 
L 102.016258 245.597899 
L 103.627462 245.982223 
L 105.238666 246.150622 
L 108.461074 246.11129 
L 111.683482 245.866136 
L 118.128298 245.216446 
L 121.350707 245.419208 
L 122.961911 245.263654 
L 124.573115 244.550914 
L 127.795523 242.12082 
L 129.406727 241.747351 
L 131.017931 242.721176 
L 132.629135 244.508141 
L 134.240339 246.127274 
L 135.851543 246.621261 
L 137.462747 245.845973 
L 139.073951 244.628991 
L 140.685155 243.854965 
L 142.296359 244.146849 
L 143.907563 245.182448 
L 145.518767 246.426266 
L 147.129971 247.37342 
L 148.741175 247.917083 
L 153.574787 248.743271 
L 155.185991 248.823767 
L 156.797195 248.518068 
L 158.408399 247.693132 
L 160.019603 246.704917 
L 161.630807 246.104603 
L 163.242011 246.421038 
L 164.853215 247.485643 
L 166.464419 248.320872 
L 168.075623 247.903911 
L 169.686827 245.64942 
L 171.298031 242.499354 
L 172.909235 239.728765 
L 174.520439 238.528082 
L 176.131643 239.033208 
L 177.742847 240.66449 
L 180.965255 244.983989 
L 182.576459 246.683099 
L 184.187663 247.491413 
L 185.798867 247.087003 
L 187.410071 245.856382 
L 189.021275 244.459849 
L 190.632479 243.544461 
L 192.243683 243.359443 
L 193.854887 243.706076 
L 197.077295 245.117387 
L 198.688499 245.809696 
L 200.299703 246.285004 
L 201.910907 246.408667 
L 205.133315 246.121498 
L 206.744519 246.196171 
L 209.966927 246.824407 
L 211.578131 246.672785 
L 213.189335 245.79346 
L 214.800539 244.381191 
L 216.411743 242.813082 
L 218.022947 241.458659 
L 219.634151 240.473055 
L 221.245355 239.77706 
L 224.467763 238.763796 
L 226.078967 237.60345 
L 227.690171 235.088675 
L 229.301375 230.662748 
L 230.912579 225.524419 
L 232.523783 221.993603 
L 234.134987 222.386581 
L 235.746191 226.890196 
L 237.357395 231.804822 
L 238.968599 233.017227 
L 240.579804 227.364063 
L 243.802212 207.003524 
L 245.413416 200.945123 
L 247.02462 199.804115 
L 248.635824 200.60934 
L 250.247028 200.210475 
L 251.858232 196.580788 
L 253.469436 191.238929 
L 255.08064 186.401117 
L 256.691844 184.032125 
L 258.303048 183.328745 
L 259.914252 181.772951 
L 261.525456 176.842786 
L 263.13666 167.926714 
L 264.747864 157.793899 
L 266.359068 149.559558 
L 267.970272 145.489509 
L 269.581476 143.059637 
L 271.19268 138.068349 
L 272.803884 126.509278 
L 276.026292 91.719853 
L 277.637496 80.120031 
L 279.2487 78.119245 
L 280.859904 82.862682 
L 282.471108 90.238213 
L 284.082312 96.425683 
L 285.693516 100.692194 
L 287.30472 104.159942 
L 288.915924 107.970501 
L 290.527128 112.78861 
L 292.138332 118.46076 
L 298.583148 143.264206 
L 300.194352 147.236631 
L 303.41676 152.976106 
L 305.027964 157.416823 
L 308.250372 170.523744 
L 309.861576 174.975142 
L 311.47278 175.205895 
L 313.083984 172.090267 
L 314.695188 168.202375 
L 316.306392 166.112421 
L 317.917596 166.552494 
L 319.5288 167.195679 
L 321.140004 165.425758 
L 322.751208 159.184781 
L 324.362412 149.351841 
L 327.58482 126.250199 
L 329.196024 116.031941 
L 330.807228 107.785071 
L 332.418432 102.157044 
L 334.029636 99.14937 
L 335.64084 96.9191 
L 337.252044 93.296209 
L 338.863248 86.365956 
L 340.474452 76.707552 
L 342.085656 66.309528 
L 343.69686 57.166385 
L 345.308064 50.602605 
L 346.919268 46.861153 
L 348.530472 46.08675 
L 350.141676 48.06501 
L 351.75288 50.756379 
L 353.364084 51.542879 
L 354.975288 47.937002 
L 356.586492 40.159285 
L 358.197696 30.982405 
L 359.808901 23.277487 
L 361.420105 19.167124 
L 363.031309 18.705894 
L 364.642513 21.594241 
L 366.253717 27.404287 
L 367.864921 34.502382 
L 369.476125 40.594217 
L 371.087329 43.408604 
L 372.698533 42.517615 
L 374.309737 40.379436 
L 375.920941 39.703948 
L 377.532145 42.666152 
L 379.143349 48.814461 
L 380.754553 56.892379 
L 382.365757 65.636624 
L 383.976961 73.654453 
L 385.588165 79.434682 
L 387.199369 81.463318 
L 388.810573 79.119672 
L 390.421777 74.17132 
L 392.032981 68.78071 
L 393.644185 64.944533 
L 395.255389 63.160789 
L 396.866593 63.131401 
L 398.477797 64.559636 
L 400.089001 67.642722 
L 401.700205 73.328204 
L 403.311409 82.626411 
L 404.922613 95.883956 
L 406.533817 110.298184 
L 408.145021 122.133341 
L 409.756225 127.820455 
L 411.367429 126.919663 
L 412.978633 121.770134 
L 416.201041 107.929519 
L 417.812245 101.658725 
L 419.423449 96.293131 
L 421.034653 92.217938 
L 422.645857 90.568358 
L 424.257061 92.865775 
L 425.868265 100.593551 
L 427.479469 113.06835 
L 429.090673 126.413716 
L 430.701877 136.496959 
L 432.313081 140.020339 
L 433.924285 137.514449 
L 435.535489 130.606468 
L 438.757897 111.738505 
L 440.369101 107.030613 
L 441.980305 111.111855 
L 443.591509 125.617593 
L 446.813917 165.377967 
L 448.425121 179.409664 
L 450.036325 186.990306 
L 451.647529 189.626445 
L 453.258733 188.843999 
L 456.481141 183.811716 
L 458.092345 183.240396 
L 459.703549 185.942283 
L 461.314753 191.129893 
L 464.537161 203.473418 
L 466.148365 208.642671 
L 467.759569 212.866258 
L 469.370773 216.100107 
L 470.981977 218.38329 
L 472.593181 219.956511 
L 474.204385 221.090442 
L 475.815589 222.008679 
L 477.426793 222.5547 
L 479.037997 222.388159 
L 480.649202 221.181981 
L 482.260406 219.264418 
L 483.87161 217.873033 
L 485.482814 218.31237 
L 487.094018 221.391539 
L 488.705222 225.798038 
L 490.316426 229.651563 
L 491.92763 231.179634 
L 493.538834 230.361581 
L 495.150038 228.599725 
L 496.761242 227.335357 
L 498.372446 227.412946 
L 501.594854 229.164914 
L 503.206058 229.430654 
L 504.817262 229.257192 
L 506.428466 229.220372 
L 508.03967 229.886487 
L 509.650874 231.324275 
L 511.262078 232.93249 
L 512.873282 234.062652 
L 514.484486 234.226033 
L 516.09569 233.595085 
L 520.929302 230.355156 
L 522.540506 229.928918 
L 524.15171 230.363136 
L 525.762914 231.687863 
L 527.374118 233.277041 
L 528.985322 234.413877 
L 530.596526 234.506341 
L 533.818934 233.357426 
L 535.430138 233.654918 
L 537.041342 235.561035 
L 538.652546 239.846275 
L 540.26375 247.281131 
L 540.26375 247.281131 
" clip-path="url(#pa3bfe2a8f8)" style="fill: none; stroke: #00c000; stroke-width: 2; stroke-linecap: square"/>
   </g>
   <g id="patch_3">
    <path d="M 58.51375 248.42 
L 58.51375 7.2 
" style="fill: none; stroke: #000000; stroke-width: 2; stroke-linejoin: miter; stroke-linecap: square"/>
   </g>
   <g id="patch_4">
    <path d="M 58.51375 248.42 
L 540.26375 248.42 
" style="fill: none; stroke: #000000; stroke-width: 2; stroke-linejoin: miter; stroke-linecap: square"/>
   </g>
   <g id="legend_1">
    <g id="line2d_12">
     <path d="M 449.66375 20.298437 
L 459.66375 20.298437 
L 469.66375 20.298437 
" style="fill: none; stroke: #b200f4; stroke-width: 2; stroke-linecap: square"/>
    </g>
    <g id="text_11">
     <!-- Membrane -->
     <g transform="translate(477.66375 23.798437) scale(0.1 -0.1)">
      <defs>
       <path id="DejaVuSans-4d" d="M 628 4666 
L 1569 4666 
L 2759 1491 
L 3956 4666 
L 4897 4666 
L 4897 0 
L 4281 0 
L 4281 4097 
L 3078 897 
L 2444 897 
L 1241 4097 
L 1241 0 
L 628 0 
L 628 4666 
z
" transform="scale(0.015625)"/>
       <path id="DejaVuSans-62" d="M 3116 1747 
Q 3116 2381 2855 2742 
Q 2594 3103 2138 3103 
Q 1681 3103 1420 2742 
Q 1159 2381 1159 1747 
Q 1159 1113 1420 752 
Q 1681 391 2138 391 
Q 2594 391 2855 752 
Q 3116 1113 3116 1747 
z
M 1159 2969 
Q 1341 3281 1617 3432 
Q 1894 3584 2278 3584 
Q 2916 3584 3314 3078 
Q 3713 2572 3713 1747 
Q 3713 922 3314 415 
Q 2916 -91 2278 -91 
Q 1894 -91 1617 61 
Q 1341 213 1159 525 
L 1159 0 
L 581 0 
L 581 4863 
L 1159 4863 
L 1159 2969 
z
" transform="scale(0.015625)"/>
      </defs>
      <use xlink:href="#DejaVuSans-4d"/>
      <use xlink:href="#DejaVuSans-65" transform="translate(86.279297 0)"/>
      <use xlink:href="#DejaVuSans-6d" transform="translate(147.802734 0)"/>
      <use xlink:href="#DejaVuSans-62" transform="translate(245.214844 0)"/>
      <use xlink:href="#DejaVuSans-72" transform="translate(308.691406 0)"/>
      <use xlink:href="#DejaVuSans-61" transform="translate(349.804688 0)"/>
      <use xlink:href="#DejaVuSans-6e" transform="translate(411.083984 0)"/>
      <use xlink:href="#DejaVuSans-65" transform="translate(474.462891 0)"/>
     </g>
    </g>
    <g id="line2d_13">
     <path d="M 449.66375 34.976562 
L 459.66375 34.976562 
L 469.66375 34.976562 
" style="fill: none; stroke: #00c000; stroke-width: 2; stroke-linecap: square"/>
    </g>
    <g id="text_12">
     <!-- FtsZ -->
     <g transform="translate(477.66375 38.476562) scale(0.1 -0.1)">
      <defs>
       <path id="DejaVuSans-46" d="M 628 4666 
L 3309 4666 
L 3309 4134 
L 1259 4134 
L 1259 2759 
L 3109 2759 
L 3109 2228 
L 1259 2228 
L 1259 0 
L 628 0 
L 628 4666 
z
" transform="scale(0.015625)"/>
       <path id="DejaVuSans-5a" d="M 359 4666 
L 4025 4666 
L 4025 4184 
L 1075 531 
L 4097 531 
L 4097 0 
L 288 0 
L 288 481 
L 3238 4134 
L 359 4134 
L 359 4666 
z
" transform="scale(0.015625)"/>
      </defs>
      <use xlink:href="#DejaVuSans-46"/>
      <use xlink:href="#DejaVuSans-74" transform="translate(57.519531 0)"/>
      <use xlink:href="#DejaVuSans-73" transform="translate(96.728516 0)"/>
      <use xlink:href="#DejaVuSans-5a" transform="translate(148.828125 0)"/>
     </g>
    </g>
   </g>
  </g>
 </g>
 <defs>
  <clipPath id="pa3bfe2a8f8">
   <rect x="58.51375" y="7.2" width="481.75" height="241.22"/>
  </clipPath>
 </defs>
</svg>
