<?xml version="1.0" encoding="utf-8" standalone="no"?>
<!DOCTYPE svg PUBLIC "-//W3C//DTD SVG 1.1//EN"
  "http://www.w3.org/Graphics/SVG/1.1/DTD/svg11.dtd">
<svg xmlns:xlink="http://www.w3.org/1999/xlink" width="568.599219pt" height="280.669375pt" viewBox="0 0 568.599219 280.669375" xmlns="http://www.w3.org/2000/svg" version="1.1">
 <metadata>
  <rdf:RDF xmlns:dc="http://purl.org/dc/elements/1.1/" xmlns:cc="http://creativecommons.org/ns#" xmlns:rdf="http://www.w3.org/1999/02/22-rdf-syntax-ns#">
   <cc:Work>
    <dc:type rdf:resource="http://purl.org/dc/dcmitype/StillImage"/>
    <dc:date>2025-12-01T04:44:05.753415</dc:date>
    <dc:format>image/svg+xml</dc:format>
    <dc:creator>
     <cc:Agent>
      <dc:title>Matplotlib v3.8.4, https://matplotlib.org/</dc:title>
     </cc:Agent>
    </dc:creator>
   </cc:Work>
  </rdf:RDF>
 </metadata>
 <defs>
  <style type="text/css">*{stroke-linejoin: round; stroke-linecap: butt}</style>
 </defs>
 <g id="figure_1">
  <g id="patch_1">
   <path d="M 0 280.669375 
L 568.599219 280.669375 
L 568.599219 0 
L 0 0 
z
" style="fill: #ffffff"/>
  </g>
  <g id="axes_1">
   <g id="patch_2">
    <path d="M 58.51375 248.42 
L 540.21875 248.42 
L 540.21875 7.2 
L 58.51375 7.2 
z
" style="fill: #ffffff"/>
   </g>
   <g id="matplotlib.axis_1">
    <g id="xtick_1">
     <g id="line2d_1">
      <defs>
       <path id="m7cde6caec3" d="M 0 0 
L 0 8 
" style="stroke: #000000; stroke-width: 2"/>
      </defs>
      <g>
       <use xlink:href="#m7cde6caec3" x="58.51375" y="248.42" style="stroke: #000000; stroke-width: 2"/>
      </g>
     </g>
     <g id="text_1">
      <!-- Pole 1 -->
      <g transform="translate(37.333281 270.557813) scale(0.14 -0.14)">
       <defs>
        <path id="DejaVuSans-50" d="M 1259 4147 
L 1259 2394 
L 2053 2394 
Q 2494 2394 2734 2622 
Q 2975 2850 2975 3272 
Q 2975 3691 2734 3919 
Q 2494 4147 2053 4147 
L 1259 4147 
z
M 628 4666 
L 2053 4666 
Q 2838 4666 3239 4311 
Q 3641 3956 3641 3272 
Q 3641 2581 3239 2228 
Q 2838 1875 2053 1875 
L 1259 1875 
L 1259 0 
L 628 0 
L 628 4666 
z
" transform="scale(0.015625)"/>
        <path id="DejaVuSans-6f" d="M 1959 3097 
Q 1497 3097 1228 2736 
Q 959 2375 959 1747 
Q 959 1119 1226 758 
Q 1494 397 1959 397 
Q 2419 397 2687 759 
Q 2956 1122 2956 1747 
Q 2956 2369 2687 2733 
Q 2419 3097 1959 3097 
z
M 1959 3584 
Q 2709 3584 3137 3096 
Q 3566 2609 3566 1747 
Q 3566 888 3137 398 
Q 2709 -91 1959 -91 
Q 1206 -91 779 398 
Q 353 888 353 1747 
Q 353 2609 779 3096 
Q 1206 3584 1959 3584 
z
" transform="scale(0.015625)"/>
        <path id="DejaVuSans-6c" d="M 603 4863 
L 1178 4863 
L 1178 0 
L 603 0 
L 603 4863 
z
" transform="scale(0.015625)"/>
        <path id="DejaVuSans-65" d="M 3597 1894 
L 3597 1613 
L 953 1613 
Q 991 1019 1311 708 
Q 1631 397 2203 397 
Q 2534 397 2845 478 
Q 3156 559 3463 722 
L 3463 178 
Q 3153 47 2828 -22 
Q 2503 -91 2169 -91 
Q 1331 -91 842 396 
Q 353 884 353 1716 
Q 353 2575 817 3079 
Q 1281 3584 2069 3584 
Q 2775 3584 3186 3129 
Q 3597 2675 3597 1894 
z
M 3022 2063 
Q 3016 2534 2758 2815 
Q 2500 3097 2075 3097 
Q 1594 3097 1305 2825 
Q 1016 2553 972 2059 
L 3022 2063 
z
" transform="scale(0.015625)"/>
        <path id="DejaVuSans-20" transform="scale(0.015625)"/>
        <path id="DejaVuSans-31" d="M 794 531 
L 1825 531 
L 1825 4091 
L 703 3866 
L 703 4441 
L 1819 4666 
L 2450 4666 
L 2450 531 
L 3481 531 
L 3481 0 
L 794 0 
L 794 531 
z
" transform="scale(0.015625)"/>
       </defs>
       <use xlink:href="#DejaVuSans-50"/>
       <use xlink:href="#DejaVuSans-6f" x="56.677734"/>
       <use xlink:href="#DejaVuSans-6c" x="117.859375"/>
       <use xlink:href="#DejaVuSans-65" x="145.642578"/>
       <use xlink:href="#DejaVuSans-20" x="207.166016"/>
       <use xlink:href="#DejaVuSans-31" x="238.953125"/>
      </g>
     </g>
    </g>
    <g id="xtick_2">
     <g id="line2d_2">
      <g>
       <use xlink:href="#m7cde6caec3" x="299.36625" y="248.42" style="stroke: #000000; stroke-width: 2"/>
      </g>
     </g>
     <g id="text_2">
      <!-- Equator -->
      <g transform="translate(271.868281 270.557813) scale(0.14 -0.14)">
       <defs>
        <path id="DejaVuSans-45" d="M 628 4666 
L 3578 4666 
L 3578 4134 
L 1259 4134 
L 1259 2753 
L 3481 2753 
L 3481 2222 
L 1259 2222 
L 1259 531 
L 3634 531 
L 3634 0 
L 628 0 
L 628 4666 
z
" transform="scale(0.015625)"/>
        <path id="DejaVuSans-71" d="M 947 1747 
Q 947 1113 1208 752 
Q 1469 391 1925 391 
Q 2381 391 2643 752 
Q 2906 1113 2906 1747 
Q 2906 2381 2643 2742 
Q 2381 3103 1925 3103 
Q 1469 3103 1208 2742 
Q 947 2381 947 1747 
z
M 2906 525 
Q 2725 213 2448 61 
Q 2172 -91 1784 -91 
Q 1150 -91 751 415 
Q 353 922 353 1747 
Q 353 2572 751 3078 
Q 1150 3584 1784 3584 
Q 2172 3584 2448 3432 
Q 2725 3281 2906 2969 
L 2906 3500 
L 3481 3500 
L 3481 -1331 
L 2906 -1331 
L 2906 525 
z
" transform="scale(0.015625)"/>
        <path id="DejaVuSans-75" d="M 544 1381 
L 544 3500 
L 1119 3500 
L 1119 1403 
Q 1119 906 1312 657 
Q 1506 409 1894 409 
Q 2359 409 2629 706 
Q 2900 1003 2900 1516 
L 2900 3500 
L 3475 3500 
L 3475 0 
L 2900 0 
L 2900 538 
Q 2691 219 2414 64 
Q 2138 -91 1772 -91 
Q 1169 -91 856 284 
Q 544 659 544 1381 
z
M 1991 3584 
L 1991 3584 
z
" transform="scale(0.015625)"/>
        <path id="DejaVuSans-61" d="M 2194 1759 
Q 1497 1759 1228 1600 
Q 959 1441 959 1056 
Q 959 750 1161 570 
Q 1363 391 1709 391 
Q 2188 391 2477 730 
Q 2766 1069 2766 1631 
L 2766 1759 
L 2194 1759 
z
M 3341 1997 
L 3341 0 
L 2766 0 
L 2766 531 
Q 2569 213 2275 61 
Q 1981 -91 1556 -91 
Q 1019 -91 701 211 
Q 384 513 384 1019 
Q 384 1609 779 1909 
Q 1175 2209 1959 2209 
L 2766 2209 
L 2766 2266 
Q 2766 2663 2505 2880 
Q 2244 3097 1772 3097 
Q 1472 3097 1187 3025 
Q 903 2953 641 2809 
L 641 3341 
Q 956 3463 1253 3523 
Q 1550 3584 1831 3584 
Q 2591 3584 2966 3190 
Q 3341 2797 3341 1997 
z
" transform="scale(0.015625)"/>
        <path id="DejaVuSans-74" d="M 1172 4494 
L 1172 3500 
L 2356 3500 
L 2356 3053 
L 1172 3053 
L 1172 1153 
Q 1172 725 1289 603 
Q 1406 481 1766 481 
L 2356 481 
L 2356 0 
L 1766 0 
Q 1100 0 847 248 
Q 594 497 594 1153 
L 594 3053 
L 172 3053 
L 172 3500 
L 594 3500 
L 594 4494 
L 1172 4494 
z
" transform="scale(0.015625)"/>
        <path id="DejaVuSans-72" d="M 2631 2963 
Q 2534 3019 2420 3045 
Q 2306 3072 2169 3072 
Q 1681 3072 1420 2755 
Q 1159 2438 1159 1844 
L 1159 0 
L 581 0 
L 581 3500 
L 1159 3500 
L 1159 2956 
Q 1341 3275 1631 3429 
Q 1922 3584 2338 3584 
Q 2397 3584 2469 3576 
Q 2541 3569 2628 3553 
L 2631 2963 
z
" transform="scale(0.015625)"/>
       </defs>
       <use xlink:href="#DejaVuSans-45"/>
       <use xlink:href="#DejaVuSans-71" x="63.183594"/>
       <use xlink:href="#DejaVuSans-75" x="126.660156"/>
       <use xlink:href="#DejaVuSans-61" x="190.039062"/>
       <use xlink:href="#DejaVuSans-74" x="251.318359"/>
       <use xlink:href="#DejaVuSans-6f" x="290.527344"/>
       <use xlink:href="#DejaVuSans-72" x="351.708984"/>
      </g>
     </g>
    </g>
    <g id="xtick_3">
     <g id="line2d_3">
      <g>
       <use xlink:href="#m7cde6caec3" x="540.21875" y="248.42" style="stroke: #000000; stroke-width: 2"/>
      </g>
     </g>
     <g id="text_3">
      <!-- Pole 2 -->
      <g transform="translate(519.038281 270.557813) scale(0.14 -0.14)">
       <defs>
        <path id="DejaVuSans-32" d="M 1228 531 
L 3431 531 
L 3431 0 
L 469 0 
L 469 531 
Q 828 903 1448 1529 
Q 2069 2156 2228 2338 
Q 2531 2678 2651 2914 
Q 2772 3150 2772 3378 
Q 2772 3750 2511 3984 
Q 2250 4219 1831 4219 
Q 1534 4219 1204 4116 
Q 875 4013 500 3803 
L 500 4441 
Q 881 4594 1212 4672 
Q 1544 4750 1819 4750 
Q 2544 4750 2975 4387 
Q 3406 4025 3406 3419 
Q 3406 3131 3298 2873 
Q 3191 2616 2906 2266 
Q 2828 2175 2409 1742 
Q 1991 1309 1228 531 
z
" transform="scale(0.015625)"/>
       </defs>
       <use xlink:href="#DejaVuSans-50"/>
       <use xlink:href="#DejaVuSans-6f" x="56.677734"/>
       <use xlink:href="#DejaVuSans-6c" x="117.859375"/>
       <use xlink:href="#DejaVuSans-65" x="145.642578"/>
       <use xlink:href="#DejaVuSans-20" x="207.166016"/>
       <use xlink:href="#DejaVuSans-32" x="238.953125"/>
      </g>
     </g>
    </g>
   </g>
   <g id="matplotlib.axis_2">
    <g id="ytick_1">
     <g id="line2d_4">
      <defs>
       <path id="me4cdfe0dc2" d="M 0 0 
L -8 0 
" style="stroke: #000000; stroke-width: 2"/>
      </defs>
      <g>
       <use xlink:href="#me4cdfe0dc2" x="58.51375" y="248.42" style="stroke: #000000; stroke-width: 2"/>
      </g>
     </g>
     <g id="text_4">
      <!-- 0.0 -->
      <g transform="translate(24.749375 253.738906) scale(0.14 -0.14)">
       <defs>
        <path id="DejaVuSans-30" d="M 2034 4250 
Q 1547 4250 1301 3770 
Q 1056 3291 1056 2328 
Q 1056 1369 1301 889 
Q 1547 409 2034 409 
Q 2525 409 2770 889 
Q 3016 1369 3016 2328 
Q 3016 3291 2770 3770 
Q 2525 4250 2034 4250 
z
M 2034 4750 
Q 2819 4750 3233 4129 
Q 3647 3509 3647 2328 
Q 3647 1150 3233 529 
Q 2819 -91 2034 -91 
Q 1250 -91 836 529 
Q 422 1150 422 2328 
Q 422 3509 836 4129 
Q 1250 4750 2034 4750 
z
" transform="scale(0.015625)"/>
        <path id="DejaVuSans-2e" d="M 684 794 
L 1344 794 
L 1344 0 
L 684 0 
L 684 794 
z
" transform="scale(0.015625)"/>
       </defs>
       <use xlink:href="#DejaVuSans-30"/>
       <use xlink:href="#DejaVuSans-2e" x="63.623047"/>
       <use xlink:href="#DejaVuSans-30" x="95.410156"/>
      </g>
     </g>
    </g>
    <g id="ytick_2">
     <g id="line2d_5">
      <g>
       <use xlink:href="#me4cdfe0dc2" x="58.51375" y="203.320784" style="stroke: #000000; stroke-width: 2"/>
      </g>
     </g>
     <g id="text_5">
      <!-- 0.2 -->
      <g transform="translate(24.749375 208.63969) scale(0.14 -0.14)">
       <use xlink:href="#DejaVuSans-30"/>
       <use xlink:href="#DejaVuSans-2e" x="63.623047"/>
       <use xlink:href="#DejaVuSans-32" x="95.410156"/>
      </g>
     </g>
    </g>
    <g id="ytick_3">
     <g id="line2d_6">
      <g>
       <use xlink:href="#me4cdfe0dc2" x="58.51375" y="158.221567" style="stroke: #000000; stroke-width: 2"/>
      </g>
     </g>
     <g id="text_6">
      <!-- 0.4 -->
      <g transform="translate(24.749375 163.540473) scale(0.14 -0.14)">
       <defs>
        <path id="DejaVuSans-34" d="M 2419 4116 
L 825 1625 
L 2419 1625 
L 2419 4116 
z
M 2253 4666 
L 3047 4666 
L 3047 1625 
L 3713 1625 
L 3713 1100 
L 3047 1100 
L 3047 0 
L 2419 0 
L 2419 1100 
L 313 1100 
L 313 1709 
L 2253 4666 
z
" transform="scale(0.015625)"/>
       </defs>
       <use xlink:href="#DejaVuSans-30"/>
       <use xlink:href="#DejaVuSans-2e" x="63.623047"/>
       <use xlink:href="#DejaVuSans-34" x="95.410156"/>
      </g>
     </g>
    </g>
    <g id="ytick_4">
     <g id="line2d_7">
      <g>
       <use xlink:href="#me4cdfe0dc2" x="58.51375" y="113.122351" style="stroke: #000000; stroke-width: 2"/>
      </g>
     </g>
     <g id="text_7">
      <!-- 0.6 -->
      <g transform="translate(24.749375 118.441257) scale(0.14 -0.14)">
       <defs>
        <path id="DejaVuSans-36" d="M 2113 2584 
Q 1688 2584 1439 2293 
Q 1191 2003 1191 1497 
Q 1191 994 1439 701 
Q 1688 409 2113 409 
Q 2538 409 2786 701 
Q 3034 994 3034 1497 
Q 3034 2003 2786 2293 
Q 2538 2584 2113 2584 
z
M 3366 4563 
L 3366 3988 
Q 3128 4100 2886 4159 
Q 2644 4219 2406 4219 
Q 1781 4219 1451 3797 
Q 1122 3375 1075 2522 
Q 1259 2794 1537 2939 
Q 1816 3084 2150 3084 
Q 2853 3084 3261 2657 
Q 3669 2231 3669 1497 
Q 3669 778 3244 343 
Q 2819 -91 2113 -91 
Q 1303 -91 875 529 
Q 447 1150 447 2328 
Q 447 3434 972 4092 
Q 1497 4750 2381 4750 
Q 2619 4750 2861 4703 
Q 3103 4656 3366 4563 
z
" transform="scale(0.015625)"/>
       </defs>
       <use xlink:href="#DejaVuSans-30"/>
       <use xlink:href="#DejaVuSans-2e" x="63.623047"/>
       <use xlink:href="#DejaVuSans-36" x="95.410156"/>
      </g>
     </g>
    </g>
    <g id="ytick_5">
     <g id="line2d_8">
      <g>
       <use xlink:href="#me4cdfe0dc2" x="58.51375" y="68.023134" style="stroke: #000000; stroke-width: 2"/>
      </g>
     </g>
     <g id="text_8">
      <!-- 0.8 -->
      <g transform="translate(24.749375 73.34204) scale(0.14 -0.14)">
       <defs>
        <path id="DejaVuSans-38" d="M 2034 2216 
Q 1584 2216 1326 1975 
Q 1069 1734 1069 1313 
Q 1069 891 1326 650 
Q 1584 409 2034 409 
Q 2484 409 2743 651 
Q 3003 894 3003 1313 
Q 3003 1734 2745 1975 
Q 2488 2216 2034 2216 
z
M 1403 2484 
Q 997 2584 770 2862 
Q 544 3141 544 3541 
Q 544 4100 942 4425 
Q 1341 4750 2034 4750 
Q 2731 4750 3128 4425 
Q 3525 4100 3525 3541 
Q 3525 3141 3298 2862 
Q 3072 2584 2669 2484 
Q 3125 2378 3379 2068 
Q 3634 1759 3634 1313 
Q 3634 634 3220 271 
Q 2806 -91 2034 -91 
Q 1263 -91 848 271 
Q 434 634 434 1313 
Q 434 1759 690 2068 
Q 947 2378 1403 2484 
z
M 1172 3481 
Q 1172 3119 1398 2916 
Q 1625 2713 2034 2713 
Q 2441 2713 2670 2916 
Q 2900 3119 2900 3481 
Q 2900 3844 2670 4047 
Q 2441 4250 2034 4250 
Q 1625 4250 1398 4047 
Q 1172 3844 1172 3481 
z
" transform="scale(0.015625)"/>
       </defs>
       <use xlink:href="#DejaVuSans-30"/>
       <use xlink:href="#DejaVuSans-2e" x="63.623047"/>
       <use xlink:href="#DejaVuSans-38" x="95.410156"/>
      </g>
     </g>
    </g>
    <g id="ytick_6">
     <g id="line2d_9">
      <g>
       <use xlink:href="#me4cdfe0dc2" x="58.51375" y="22.923918" style="stroke: #000000; stroke-width: 2"/>
      </g>
     </g>
     <g id="text_9">
      <!-- 1.0 -->
      <g transform="translate(24.749375 28.242824) scale(0.14 -0.14)">
       <use xlink:href="#DejaVuSans-31"/>
       <use xlink:href="#DejaVuSans-2e" x="63.623047"/>
       <use xlink:href="#DejaVuSans-30" x="95.410156"/>
      </g>
     </g>
    </g>
    <g id="text_10">
     <!-- Normalized Intensity -->
     <g transform="translate(17.837813 200.199844) rotate(-90) scale(0.14 -0.14)">
      <defs>
       <path id="DejaVuSans-4e" d="M 628 4666 
L 1478 4666 
L 3547 763 
L 3547 4666 
L 4159 4666 
L 4159 0 
L 3309 0 
L 1241 3903 
L 1241 0 
L 628 0 
L 628 4666 
z
" transform="scale(0.015625)"/>
       <path id="DejaVuSans-6d" d="M 3328 2828 
Q 3544 3216 3844 3400 
Q 4144 3584 4550 3584 
Q 5097 3584 5394 3201 
Q 5691 2819 5691 2113 
L 5691 0 
L 5113 0 
L 5113 2094 
Q 5113 2597 4934 2840 
Q 4756 3084 4391 3084 
Q 3944 3084 3684 2787 
Q 3425 2491 3425 1978 
L 3425 0 
L 2847 0 
L 2847 2094 
Q 2847 2600 2669 2842 
Q 2491 3084 2119 3084 
Q 1678 3084 1418 2786 
Q 1159 2488 1159 1978 
L 1159 0 
L 581 0 
L 581 3500 
L 1159 3500 
L 1159 2956 
Q 1356 3278 1631 3431 
Q 1906 3584 2284 3584 
Q 2666 3584 2933 3390 
Q 3200 3197 3328 2828 
z
" transform="scale(0.015625)"/>
       <path id="DejaVuSans-69" d="M 603 3500 
L 1178 3500 
L 1178 0 
L 603 0 
L 603 3500 
z
M 603 4863 
L 1178 4863 
L 1178 4134 
L 603 4134 
L 603 4863 
z
" transform="scale(0.015625)"/>
       <path id="DejaVuSans-7a" d="M 353 3500 
L 3084 3500 
L 3084 2975 
L 922 459 
L 3084 459 
L 3084 0 
L 275 0 
L 275 525 
L 2438 3041 
L 353 3041 
L 353 3500 
z
" transform="scale(0.015625)"/>
       <path id="DejaVuSans-64" d="M 2906 2969 
L 2906 4863 
L 3481 4863 
L 3481 0 
L 2906 0 
L 2906 525 
Q 2725 213 2448 61 
Q 2172 -91 1784 -91 
Q 1150 -91 751 415 
Q 353 922 353 1747 
Q 353 2572 751 3078 
Q 1150 3584 1784 3584 
Q 2172 3584 2448 3432 
Q 2725 3281 2906 2969 
z
M 947 1747 
Q 947 1113 1208 752 
Q 1469 391 1925 391 
Q 2381 391 2643 752 
Q 2906 1113 2906 1747 
Q 2906 2381 2643 2742 
Q 2381 3103 1925 3103 
Q 1469 3103 1208 2742 
Q 947 2381 947 1747 
z
" transform="scale(0.015625)"/>
       <path id="DejaVuSans-49" d="M 628 4666 
L 1259 4666 
L 1259 0 
L 628 0 
L 628 4666 
z
" transform="scale(0.015625)"/>
       <path id="DejaVuSans-6e" d="M 3513 2113 
L 3513 0 
L 2938 0 
L 2938 2094 
Q 2938 2591 2744 2837 
Q 2550 3084 2163 3084 
Q 1697 3084 1428 2787 
Q 1159 2491 1159 1978 
L 1159 0 
L 581 0 
L 581 3500 
L 1159 3500 
L 1159 2956 
Q 1366 3272 1645 3428 
Q 1925 3584 2291 3584 
Q 2894 3584 3203 3211 
Q 3513 2838 3513 2113 
z
" transform="scale(0.015625)"/>
       <path id="DejaVuSans-73" d="M 2834 3397 
L 2834 2853 
Q 2591 2978 2328 3040 
Q 2066 3103 1784 3103 
Q 1356 3103 1142 2972 
Q 928 2841 928 2578 
Q 928 2378 1081 2264 
Q 1234 2150 1697 2047 
L 1894 2003 
Q 2506 1872 2764 1633 
Q 3022 1394 3022 966 
Q 3022 478 2636 193 
Q 2250 -91 1575 -91 
Q 1294 -91 989 -36 
Q 684 19 347 128 
L 347 722 
Q 666 556 975 473 
Q 1284 391 1588 391 
Q 1994 391 2212 530 
Q 2431 669 2431 922 
Q 2431 1156 2273 1281 
Q 2116 1406 1581 1522 
L 1381 1569 
Q 847 1681 609 1914 
Q 372 2147 372 2553 
Q 372 3047 722 3315 
Q 1072 3584 1716 3584 
Q 2034 3584 2315 3537 
Q 2597 3491 2834 3397 
z
" transform="scale(0.015625)"/>
       <path id="DejaVuSans-79" d="M 2059 -325 
Q 1816 -950 1584 -1140 
Q 1353 -1331 966 -1331 
L 506 -1331 
L 506 -850 
L 844 -850 
Q 1081 -850 1212 -737 
Q 1344 -625 1503 -206 
L 1606 56 
L 191 3500 
L 800 3500 
L 1894 763 
L 2988 3500 
L 3597 3500 
L 2059 -325 
z
" transform="scale(0.015625)"/>
      </defs>
      <use xlink:href="#DejaVuSans-4e"/>
      <use xlink:href="#DejaVuSans-6f" x="74.804688"/>
      <use xlink:href="#DejaVuSans-72" x="135.986328"/>
      <use xlink:href="#DejaVuSans-6d" x="175.349609"/>
      <use xlink:href="#DejaVuSans-61" x="272.761719"/>
      <use xlink:href="#DejaVuSans-6c" x="334.041016"/>
      <use xlink:href="#DejaVuSans-69" x="361.824219"/>
      <use xlink:href="#DejaVuSans-7a" x="389.607422"/>
      <use xlink:href="#DejaVuSans-65" x="442.097656"/>
      <use xlink:href="#DejaVuSans-64" x="503.621094"/>
      <use xlink:href="#DejaVuSans-20" x="567.097656"/>
      <use xlink:href="#DejaVuSans-49" x="598.884766"/>
      <use xlink:href="#DejaVuSans-6e" x="628.376953"/>
      <use xlink:href="#DejaVuSans-74" x="691.755859"/>
      <use xlink:href="#DejaVuSans-65" x="730.964844"/>
      <use xlink:href="#DejaVuSans-6e" x="792.488281"/>
      <use xlink:href="#DejaVuSans-73" x="855.867188"/>
      <use xlink:href="#DejaVuSans-69" x="907.966797"/>
      <use xlink:href="#DejaVuSans-74" x="935.75"/>
      <use xlink:href="#DejaVuSans-79" x="974.958984"/>
     </g>
    </g>
   </g>
   <g id="line2d_10">
    <path d="M 58.51375 53.250943 
L 60.124804 41.048079 
L 61.735857 31.420568 
L 63.346911 24.70801 
L 64.957964 21.250004 
L 66.569018 21.38615 
L 68.180071 25.45605 
L 69.791125 33.794901 
L 71.402178 45.856864 
L 73.013232 59.15524 
L 74.624285 70.944534 
L 76.235339 78.835744 
L 77.846392 83.017669 
L 79.457446 84.812578 
L 81.068499 85.530992 
L 82.679553 85.869844 
L 84.290606 85.747825 
L 85.90166 85.033466 
L 87.512713 83.873265 
L 89.123767 83.488325 
L 90.73482 85.359399 
L 92.345874 90.844213 
L 93.956927 99.555551 
L 97.179034 119.895689 
L 98.790088 128.25729 
L 100.401141 133.679192 
L 102.012195 134.988946 
L 103.623248 131.364175 
L 105.234302 124.423913 
L 106.845355 116.826858 
L 108.456409 111.202406 
L 110.067462 109.034567 
L 111.678516 110.397292 
L 113.289569 115.277732 
L 114.900623 123.233151 
L 116.511676 132.214536 
L 118.12273 139.797781 
L 119.733783 143.74195 
L 121.344837 144.29285 
L 122.95589 143.488442 
L 124.566944 143.398429 
L 127.789051 146.356341 
L 129.400105 145.870752 
L 131.011158 141.974483 
L 132.622212 136.299183 
L 134.233265 131.751706 
L 135.844319 131.167736 
L 137.455372 134.943638 
L 139.066426 140.560925 
L 140.677479 145.329917 
L 142.288533 147.31013 
L 143.899586 147.266875 
L 145.51064 146.576107 
L 147.121693 146.518976 
L 148.732747 147.143901 
L 150.3438 147.63721 
L 151.954854 147.17054 
L 153.565907 145.322205 
L 155.176961 142.485442 
L 158.399068 135.736844 
L 160.010121 132.197371 
L 161.621175 128.300123 
L 164.843282 119.382231 
L 166.454335 116.407524 
L 168.065389 116.438845 
L 169.676442 120.199167 
L 171.287496 125.611359 
L 172.898549 129.987595 
L 174.509603 130.874674 
L 176.120656 128.743204 
L 177.73171 126.04775 
L 179.342763 125.269878 
L 180.953817 127.591435 
L 184.175924 135.873253 
L 185.786977 138.814008 
L 187.398031 140.642227 
L 189.009084 142.101843 
L 190.620138 143.921108 
L 192.231191 146.340357 
L 195.453298 151.713344 
L 197.064352 154.014674 
L 198.675406 155.722419 
L 200.286459 156.62173 
L 201.897513 156.515178 
L 203.508566 155.413539 
L 205.11962 153.464655 
L 206.730673 150.819966 
L 209.95278 144.805785 
L 211.563834 142.507702 
L 213.174887 141.340502 
L 214.785941 141.332275 
L 216.396994 142.34388 
L 218.008048 144.229552 
L 221.230155 149.164497 
L 222.841208 151.193115 
L 224.452262 152.421361 
L 226.063315 153.097105 
L 227.674369 153.587141 
L 229.285422 154.233359 
L 232.507529 156.037223 
L 235.729636 157.740633 
L 240.562797 160.112012 
L 242.17385 160.509265 
L 243.784904 159.864704 
L 245.395957 157.59748 
L 248.618064 150.675857 
L 250.229118 148.821141 
L 251.840171 149.467248 
L 253.451225 152.090816 
L 255.062278 155.877531 
L 256.673332 160.022493 
L 258.284385 163.824455 
L 259.895439 166.646386 
L 261.506492 167.856897 
L 263.117546 167.238605 
L 264.728599 165.306751 
L 267.950707 159.889851 
L 269.56176 157.788145 
L 271.172814 157.165446 
L 272.783867 158.785344 
L 274.394921 162.065008 
L 276.005974 165.034684 
L 277.617028 165.661609 
L 279.228081 162.881059 
L 280.839135 158.582406 
L 282.450188 155.216528 
L 284.061242 154.990881 
L 285.672295 157.539035 
L 287.283349 160.94795 
L 288.894402 163.293605 
L 290.505456 163.465315 
L 292.116509 161.748081 
L 293.727563 158.564257 
L 296.94967 150.434487 
L 298.560723 147.812646 
L 300.171777 147.762737 
L 301.78283 150.024484 
L 303.393884 152.885651 
L 305.004937 154.571412 
L 306.615991 153.979 
L 309.838098 149.8476 
L 311.449151 148.722675 
L 313.060205 149.00886 
L 314.671258 150.649027 
L 316.282312 153.577384 
L 317.893365 157.505188 
L 319.504419 161.772665 
L 321.115472 165.684949 
L 322.726526 168.699644 
L 327.559686 175.981993 
L 329.17074 178.954585 
L 330.781793 181.667385 
L 332.392847 183.510296 
L 335.614954 185.004529 
L 337.226008 186.861945 
L 338.837061 190.921847 
L 340.448115 196.786132 
L 342.059168 203.233059 
L 343.670222 209.036024 
L 345.281275 213.268014 
L 346.892329 215.485595 
L 348.503382 215.289259 
L 350.114436 212.597024 
L 351.725489 208.940714 
L 353.336543 206.363592 
L 354.947596 206.804543 
L 356.55865 210.035512 
L 358.169703 213.786257 
L 359.780757 215.708269 
L 361.39181 214.419272 
L 364.613917 207.814177 
L 366.224971 205.846856 
L 367.836024 205.594556 
L 369.447078 206.627161 
L 371.058131 208.505357 
L 372.669185 210.677612 
L 374.280238 212.416682 
L 375.891292 212.979999 
L 377.502345 211.841618 
L 379.113399 209.53932 
L 380.724452 206.936869 
L 382.335506 204.86429 
L 383.946559 203.485369 
L 385.557613 202.354369 
L 387.168666 201.003294 
L 388.77972 199.077581 
L 390.390773 196.525926 
L 392.001827 193.347165 
L 393.61288 189.569459 
L 396.834987 181.53125 
L 398.446041 178.139047 
L 400.057094 175.671103 
L 401.668148 174.378812 
L 403.279202 174.504343 
L 404.890255 176.148586 
L 409.723416 183.719575 
L 411.334469 184.886209 
L 412.945523 184.807788 
L 414.556576 183.285239 
L 417.778683 177.527737 
L 419.389737 175.677908 
L 421.00079 175.973176 
L 422.611844 177.431335 
L 424.222897 178.030825 
L 425.833951 175.773229 
L 427.445004 170.328366 
L 429.056058 163.824581 
L 430.667111 158.587503 
L 432.278165 156.316097 
L 433.889218 155.835985 
L 435.500272 155.149753 
L 437.111325 152.400721 
L 438.722379 148.246331 
L 440.333432 145.511506 
L 441.944486 147.087447 
L 443.555539 154.062204 
L 445.166593 163.007273 
L 446.777646 169.798417 
L 448.3887 170.828202 
L 449.999753 166.820736 
L 451.610807 160.661734 
L 453.22186 155.22147 
L 454.832914 151.842407 
L 456.443967 149.682314 
L 458.055021 147.730945 
L 459.666074 145.160444 
L 461.277128 141.951124 
L 464.499235 134.438919 
L 466.110288 130.668827 
L 467.721342 127.412262 
L 469.332395 125.086909 
L 470.943449 123.899454 
L 472.554503 123.544905 
L 474.165556 123.642212 
L 475.77661 123.887271 
L 477.387663 124.59721 
L 478.998717 126.389592 
L 480.60977 129.861701 
L 482.220824 134.603803 
L 483.831877 138.808849 
L 485.442931 140.566866 
L 487.053984 138.5598 
L 488.665038 134.004395 
L 490.276091 128.795783 
L 491.887145 124.734148 
L 493.498198 122.077105 
L 495.109252 119.829242 
L 496.720305 116.960137 
L 498.331359 112.776351 
L 499.942412 107.375778 
L 501.553466 100.969784 
L 504.775573 87.025404 
L 506.386626 81.779041 
L 507.99768 79.403035 
L 509.608733 80.156706 
L 511.219787 82.91926 
L 512.83084 86.472603 
L 514.441894 89.724099 
L 516.052947 92.10036 
L 517.664001 93.162308 
L 519.275054 92.54065 
L 520.886108 90.948807 
L 522.497161 89.953833 
L 524.108215 91.143071 
L 525.719268 95.439609 
L 527.330322 102.255843 
L 528.941375 110.795253 
L 532.163482 130.324844 
L 536.996643 160.365796 
L 538.607696 169.329984 
L 540.21875 177.249329 
L 540.21875 177.249329 
" clip-path="url(#p90b4a9b7ba)" style="fill: none; stroke: #b200f4; stroke-width: 2; stroke-linecap: square"/>
   </g>
   <g id="line2d_11">
    <path d="M 58.51375 245.914488 
L 60.124804 246.901084 
L 61.735857 247.60312 
L 63.346911 248.065217 
L 64.957964 248.331997 
L 68.180071 248.458092 
L 73.013232 248.317537 
L 74.624285 248.390147 
L 77.846392 248.764806 
L 79.457446 248.683154 
L 81.068499 248.119278 
L 82.679553 247.092836 
L 84.290606 245.934566 
L 85.90166 244.995255 
L 87.512713 244.525521 
L 95.567981 243.807971 
L 97.179034 243.920757 
L 98.790088 244.37643 
L 102.012195 245.597899 
L 103.623248 245.982223 
L 105.234302 246.150622 
L 108.456409 246.11129 
L 111.678516 245.866136 
L 118.12273 245.216446 
L 121.344837 245.419208 
L 122.95589 245.263654 
L 124.566944 244.550914 
L 127.789051 242.12082 
L 129.400105 241.747351 
L 131.011158 242.721176 
L 132.622212 244.508141 
L 134.233265 246.127274 
L 135.844319 246.621261 
L 137.455372 245.845973 
L 139.066426 244.628991 
L 140.677479 243.854965 
L 142.288533 244.146849 
L 143.899586 245.182448 
L 145.51064 246.426266 
L 147.121693 247.37342 
L 148.732747 247.917083 
L 153.565907 248.743271 
L 155.176961 248.823767 
L 156.788014 248.518068 
L 158.399068 247.693132 
L 160.010121 246.704917 
L 161.621175 246.104603 
L 163.232228 246.421038 
L 164.843282 247.485643 
L 166.454335 248.320872 
L 168.065389 247.903911 
L 169.676442 245.64942 
L 171.287496 242.499354 
L 172.898549 239.728765 
L 174.509603 238.528082 
L 176.120656 239.033208 
L 177.73171 240.66449 
L 180.953817 244.983989 
L 182.56487 246.683099 
L 184.175924 247.491413 
L 185.786977 247.087003 
L 187.398031 245.856382 
L 189.009084 244.459849 
L 190.620138 243.544461 
L 192.231191 243.359443 
L 193.842245 243.706076 
L 197.064352 245.117387 
L 198.675406 245.809696 
L 200.286459 246.285004 
L 201.897513 246.408667 
L 205.11962 246.121498 
L 206.730673 246.196171 
L 209.95278 246.824407 
L 211.563834 246.672785 
L 213.174887 245.79346 
L 214.785941 244.381191 
L 216.396994 242.813082 
L 218.008048 241.458659 
L 219.619101 240.473055 
L 221.230155 239.77706 
L 224.452262 238.763796 
L 226.063315 237.60345 
L 227.674369 235.088675 
L 229.285422 230.662748 
L 230.896476 225.524419 
L 232.507529 221.993603 
L 234.118583 222.386581 
L 235.729636 226.890196 
L 237.34069 231.804822 
L 238.951743 233.017227 
L 240.562797 227.364063 
L 243.784904 207.003524 
L 245.395957 200.945123 
L 247.007011 199.804115 
L 248.618064 200.60934 
L 250.229118 200.210475 
L 251.840171 196.580788 
L 253.451225 191.238929 
L 255.062278 186.401117 
L 256.673332 184.032125 
L 258.284385 183.328745 
L 259.895439 181.772951 
L 261.506492 176.842786 
L 263.117546 167.926714 
L 264.728599 157.793899 
L 266.339653 149.559558 
L 267.950707 145.489509 
L 269.56176 143.059637 
L 271.172814 138.068349 
L 272.783867 126.509278 
L 276.005974 91.719853 
L 277.617028 80.120031 
L 279.228081 78.119245 
L 280.839135 82.862682 
L 282.450188 90.238213 
L 284.061242 96.425683 
L 285.672295 100.692194 
L 287.283349 104.159942 
L 288.894402 107.970501 
L 290.505456 112.78861 
L 292.116509 118.46076 
L 298.560723 143.264206 
L 300.171777 147.236631 
L 303.393884 152.976106 
L 305.004937 157.416823 
L 308.227044 170.523744 
L 309.838098 174.975142 
L 311.449151 175.205895 
L 313.060205 172.090267 
L 314.671258 168.202375 
L 316.282312 166.112421 
L 317.893365 166.552494 
L 319.504419 167.195679 
L 321.115472 165.425758 
L 322.726526 159.184781 
L 324.337579 149.351841 
L 327.559686 126.250199 
L 329.17074 116.031941 
L 330.781793 107.785071 
L 332.392847 102.157044 
L 334.003901 99.14937 
L 335.614954 96.9191 
L 337.226008 93.296209 
L 338.837061 86.365956 
L 340.448115 76.707552 
L 342.059168 66.309528 
L 343.670222 57.166385 
L 345.281275 50.602605 
L 346.892329 46.861153 
L 348.503382 46.08675 
L 350.114436 48.06501 
L 351.725489 50.756379 
L 353.336543 51.542879 
L 354.947596 47.937002 
L 356.55865 40.159285 
L 358.169703 30.982405 
L 359.780757 23.277487 
L 361.39181 19.167124 
L 363.002864 18.705894 
L 364.613917 21.594241 
L 366.224971 27.404287 
L 367.836024 34.502382 
L 369.447078 40.594217 
L 371.058131 43.408604 
L 372.669185 42.517615 
L 374.280238 40.379436 
L 375.891292 39.703948 
L 377.502345 42.666152 
L 379.113399 48.814461 
L 380.724452 56.892379 
L 382.335506 65.636624 
L 383.946559 73.654453 
L 385.557613 79.434682 
L 387.168666 81.463318 
L 388.77972 79.119672 
L 390.390773 74.17132 
L 392.001827 68.78071 
L 393.61288 64.944533 
L 395.223934 63.160789 
L 396.834987 63.131401 
L 398.446041 64.559636 
L 400.057094 67.642722 
L 401.668148 73.328204 
L 403.279202 82.626411 
L 404.890255 95.883956 
L 406.501309 110.298184 
L 408.112362 122.133341 
L 409.723416 127.820455 
L 411.334469 126.919663 
L 412.945523 121.770134 
L 416.16763 107.929519 
L 417.778683 101.658725 
L 419.389737 96.293131 
L 421.00079 92.217938 
L 422.611844 90.568358 
L 424.222897 92.865775 
L 425.833951 100.593551 
L 427.445004 113.06835 
L 429.056058 126.413716 
L 430.667111 136.496959 
L 432.278165 140.020339 
L 433.889218 137.514449 
L 435.500272 130.606468 
L 438.722379 111.738505 
L 440.333432 107.030613 
L 441.944486 111.111855 
L 443.555539 125.617593 
L 446.777646 165.377967 
L 448.3887 179.409664 
L 449.999753 186.990306 
L 451.610807 189.626445 
L 453.22186 188.843999 
L 456.443967 183.811716 
L 458.055021 183.240396 
L 459.666074 185.942283 
L 461.277128 191.129893 
L 464.499235 203.473418 
L 466.110288 208.642671 
L 467.721342 212.866258 
L 469.332395 216.100107 
L 470.943449 218.38329 
L 472.554503 219.956511 
L 474.165556 221.090442 
L 475.77661 222.008679 
L 477.387663 222.5547 
L 478.998717 222.388159 
L 480.60977 221.181981 
L 482.220824 219.264418 
L 483.831877 217.873033 
L 485.442931 218.31237 
L 487.053984 221.391539 
L 488.665038 225.798038 
L 490.276091 229.651563 
L 491.887145 231.179634 
L 493.498198 230.361581 
L 495.109252 228.599725 
L 496.720305 227.335357 
L 498.331359 227.412946 
L 501.553466 229.164914 
L 503.164519 229.430654 
L 504.775573 229.257192 
L 506.386626 229.220372 
L 507.99768 229.886487 
L 509.608733 231.324275 
L 511.219787 232.93249 
L 512.83084 234.062652 
L 514.441894 234.226033 
L 516.052947 233.595085 
L 520.886108 230.355156 
L 522.497161 229.928918 
L 524.108215 230.363136 
L 525.719268 231.687863 
L 527.330322 233.277041 
L 528.941375 234.413877 
L 530.552429 234.506341 
L 533.774536 233.357426 
L 535.385589 233.654918 
L 536.996643 235.561035 
L 538.607696 239.846275 
L 540.21875 247.281131 
L 540.21875 247.281131 
" clip-path="url(#p90b4a9b7ba)" style="fill: none; stroke: #00c000; stroke-width: 2; stroke-linecap: square"/>
   </g>
   <g id="patch_3">
    <path d="M 58.51375 248.42 
L 58.51375 7.2 
" style="fill: none; stroke: #000000; stroke-width: 2; stroke-linejoin: miter; stroke-linecap: square"/>
   </g>
   <g id="patch_4">
    <path d="M 58.51375 248.42 
L 540.21875 248.42 
" style="fill: none; stroke: #000000; stroke-width: 2; stroke-linejoin: miter; stroke-linecap: square"/>
   </g>
   <g id="legend_1">
    <g id="line2d_12">
     <path d="M 449.61875 20.298437 
L 459.61875 20.298437 
L 469.61875 20.298437 
" style="fill: none; stroke: #b200f4; stroke-width: 2; stroke-linecap: square"/>
    </g>
    <g id="text_11">
     <!-- Membrane -->
     <g transform="translate(477.61875 23.798437) scale(0.1 -0.1)">
      <defs>
       <path id="DejaVuSans-4d" d="M 628 4666 
L 1569 4666 
L 2759 1491 
L 3956 4666 
L 4897 4666 
L 4897 0 
L 4281 0 
L 4281 4097 
L 3078 897 
L 2444 897 
L 1241 4097 
L 1241 0 
L 628 0 
L 628 4666 
z
" transform="scale(0.015625)"/>
       <path id="DejaVuSans-62" d="M 3116 1747 
Q 3116 2381 2855 2742 
Q 2594 3103 2138 3103 
Q 1681 3103 1420 2742 
Q 1159 2381 1159 1747 
Q 1159 1113 1420 752 
Q 1681 391 2138 391 
Q 2594 391 2855 752 
Q 3116 1113 3116 1747 
z
M 1159 2969 
Q 1341 3281 1617 3432 
Q 1894 3584 2278 3584 
Q 2916 3584 3314 3078 
Q 3713 2572 3713 1747 
Q 3713 922 3314 415 
Q 2916 -91 2278 -91 
Q 1894 -91 1617 61 
Q 1341 213 1159 525 
L 1159 0 
L 581 0 
L 581 4863 
L 1159 4863 
L 1159 2969 
z
" transform="scale(0.015625)"/>
      </defs>
      <use xlink:href="#DejaVuSans-4d"/>
      <use xlink:href="#DejaVuSans-65" x="86.279297"/>
      <use xlink:href="#DejaVuSans-6d" x="147.802734"/>
      <use xlink:href="#DejaVuSans-62" x="245.214844"/>
      <use xlink:href="#DejaVuSans-72" x="308.691406"/>
      <use xlink:href="#DejaVuSans-61" x="349.804688"/>
      <use xlink:href="#DejaVuSans-6e" x="411.083984"/>
      <use xlink:href="#DejaVuSans-65" x="474.462891"/>
     </g>
    </g>
    <g id="line2d_13">
     <path d="M 449.61875 34.976562 
L 459.61875 34.976562 
L 469.61875 34.976562 
" style="fill: none; stroke: #00c000; stroke-width: 2; stroke-linecap: square"/>
    </g>
    <g id="text_12">
     <!-- FtsZ -->
     <g transform="translate(477.61875 38.476562) scale(0.1 -0.1)">
      <defs>
       <path id="DejaVuSans-46" d="M 628 4666 
L 3309 4666 
L 3309 4134 
L 1259 4134 
L 1259 2759 
L 3109 2759 
L 3109 2228 
L 1259 2228 
L 1259 0 
L 628 0 
L 628 4666 
z
" transform="scale(0.015625)"/>
       <path id="DejaVuSans-5a" d="M 359 4666 
L 4025 4666 
L 4025 4184 
L 1075 531 
L 4097 531 
L 4097 0 
L 288 0 
L 288 481 
L 3238 4134 
L 359 4134 
L 359 4666 
z
" transform="scale(0.015625)"/>
      </defs>
      <use xlink:href="#DejaVuSans-46"/>
      <use xlink:href="#DejaVuSans-74" x="57.519531"/>
      <use xlink:href="#DejaVuSans-73" x="96.728516"/>
      <use xlink:href="#DejaVuSans-5a" x="148.828125"/>
     </g>
    </g>
   </g>
  </g>
 </g>
 <defs>
  <clipPath id="p90b4a9b7ba">
   <rect x="58.51375" y="7.2" width="481.705" height="241.22"/>
  </clipPath>
 </defs>
</svg>
