<?xml version="1.0" encoding="utf-8" standalone="no"?>
<!DOCTYPE svg PUBLIC "-//W3C//DTD SVG 1.1//EN"
  "http://www.w3.org/Graphics/SVG/1.1/DTD/svg11.dtd">
<svg xmlns:xlink="http://www.w3.org/1999/xlink" width="570.025625pt" height="424.53875pt" viewBox="0 0 570.025625 424.53875" xmlns="http://www.w3.org/2000/svg" version="1.1">
 <metadata>
  <rdf:RDF xmlns:dc="http://purl.org/dc/elements/1.1/" xmlns:cc="http://creativecommons.org/ns#" xmlns:rdf="http://www.w3.org/1999/02/22-rdf-syntax-ns#">
   <cc:Work>
    <dc:type rdf:resource="http://purl.org/dc/dcmitype/StillImage"/>
    <dc:date>2026-01-16T14:47:09.812982</dc:date>
    <dc:format>image/svg+xml</dc:format>
    <dc:creator>
     <cc:Agent>
      <dc:title>Matplotlib v3.10.8, https://matplotlib.org/</dc:title>
     </cc:Agent>
    </dc:creator>
   </cc:Work>
  </rdf:RDF>
 </metadata>
 <defs>
  <style type="text/css">*{stroke-linejoin: round; stroke-linecap: butt}</style>
 </defs>
 <g id="figure_1">
  <g id="patch_1">
   <path d="M 0 424.53875 
L 570.025625 424.53875 
L 570.025625 0 
L 0 0 
z
" style="fill: #ffffff"/>
  </g>
  <g id="axes_1">
   <g id="patch_2">
    <path d="M 55.26875 376.74 
L 553.28375 376.74 
L 553.28375 7.2 
L 55.26875 7.2 
z
" style="fill: #ffffff"/>
   </g>
   <g id="matplotlib.axis_1">
    <g id="xtick_1">
     <g id="line2d_1">
      <defs>
       <path id="m941b13582a" d="M 0 0 
L 0 6 
" style="stroke: #000000; stroke-width: 1.5"/>
      </defs>
      <g>
       <use xlink:href="#m941b13582a" x="55.26875" y="376.74" style="stroke: #000000; stroke-width: 1.5"/>
      </g>
     </g>
     <g id="text_1">
      <!-- 0.0 -->
      <g transform="translate(45.726875 395.358125) scale(0.12 -0.12)">
       <defs>
        <path id="DejaVuSans-30" d="M 2034 4250 
Q 1547 4250 1301 3770 
Q 1056 3291 1056 2328 
Q 1056 1369 1301 889 
Q 1547 409 2034 409 
Q 2525 409 2770 889 
Q 3016 1369 3016 2328 
Q 3016 3291 2770 3770 
Q 2525 4250 2034 4250 
z
M 2034 4750 
Q 2819 4750 3233 4129 
Q 3647 3509 3647 2328 
Q 3647 1150 3233 529 
Q 2819 -91 2034 -91 
Q 1250 -91 836 529 
Q 422 1150 422 2328 
Q 422 3509 836 4129 
Q 1250 4750 2034 4750 
z
" transform="scale(0.015625)"/>
        <path id="DejaVuSans-2e" d="M 684 794 
L 1344 794 
L 1344 0 
L 684 0 
L 684 794 
z
" transform="scale(0.015625)"/>
       </defs>
       <use xlink:href="#DejaVuSans-30"/>
       <use xlink:href="#DejaVuSans-2e" transform="translate(63.623047 0)"/>
       <use xlink:href="#DejaVuSans-30" transform="translate(95.410156 0)"/>
      </g>
     </g>
    </g>
    <g id="xtick_2">
     <g id="line2d_2">
      <g>
       <use xlink:href="#m941b13582a" x="154.87175" y="376.74" style="stroke: #000000; stroke-width: 1.5"/>
      </g>
     </g>
     <g id="text_2">
      <!-- 0.2 -->
      <g transform="translate(145.329875 395.358125) scale(0.12 -0.12)">
       <defs>
        <path id="DejaVuSans-32" d="M 1228 531 
L 3431 531 
L 3431 0 
L 469 0 
L 469 531 
Q 828 903 1448 1529 
Q 2069 2156 2228 2338 
Q 2531 2678 2651 2914 
Q 2772 3150 2772 3378 
Q 2772 3750 2511 3984 
Q 2250 4219 1831 4219 
Q 1534 4219 1204 4116 
Q 875 4013 500 3803 
L 500 4441 
Q 881 4594 1212 4672 
Q 1544 4750 1819 4750 
Q 2544 4750 2975 4387 
Q 3406 4025 3406 3419 
Q 3406 3131 3298 2873 
Q 3191 2616 2906 2266 
Q 2828 2175 2409 1742 
Q 1991 1309 1228 531 
z
" transform="scale(0.015625)"/>
       </defs>
       <use xlink:href="#DejaVuSans-30"/>
       <use xlink:href="#DejaVuSans-2e" transform="translate(63.623047 0)"/>
       <use xlink:href="#DejaVuSans-32" transform="translate(95.410156 0)"/>
      </g>
     </g>
    </g>
    <g id="xtick_3">
     <g id="line2d_3">
      <g>
       <use xlink:href="#m941b13582a" x="254.47475" y="376.74" style="stroke: #000000; stroke-width: 1.5"/>
      </g>
     </g>
     <g id="text_3">
      <!-- 0.4 -->
      <g transform="translate(244.932875 395.358125) scale(0.12 -0.12)">
       <defs>
        <path id="DejaVuSans-34" d="M 2419 4116 
L 825 1625 
L 2419 1625 
L 2419 4116 
z
M 2253 4666 
L 3047 4666 
L 3047 1625 
L 3713 1625 
L 3713 1100 
L 3047 1100 
L 3047 0 
L 2419 0 
L 2419 1100 
L 313 1100 
L 313 1709 
L 2253 4666 
z
" transform="scale(0.015625)"/>
       </defs>
       <use xlink:href="#DejaVuSans-30"/>
       <use xlink:href="#DejaVuSans-2e" transform="translate(63.623047 0)"/>
       <use xlink:href="#DejaVuSans-34" transform="translate(95.410156 0)"/>
      </g>
     </g>
    </g>
    <g id="xtick_4">
     <g id="line2d_4">
      <g>
       <use xlink:href="#m941b13582a" x="354.07775" y="376.74" style="stroke: #000000; stroke-width: 1.5"/>
      </g>
     </g>
     <g id="text_4">
      <!-- 0.6 -->
      <g transform="translate(344.535875 395.358125) scale(0.12 -0.12)">
       <defs>
        <path id="DejaVuSans-36" d="M 2113 2584 
Q 1688 2584 1439 2293 
Q 1191 2003 1191 1497 
Q 1191 994 1439 701 
Q 1688 409 2113 409 
Q 2538 409 2786 701 
Q 3034 994 3034 1497 
Q 3034 2003 2786 2293 
Q 2538 2584 2113 2584 
z
M 3366 4563 
L 3366 3988 
Q 3128 4100 2886 4159 
Q 2644 4219 2406 4219 
Q 1781 4219 1451 3797 
Q 1122 3375 1075 2522 
Q 1259 2794 1537 2939 
Q 1816 3084 2150 3084 
Q 2853 3084 3261 2657 
Q 3669 2231 3669 1497 
Q 3669 778 3244 343 
Q 2819 -91 2113 -91 
Q 1303 -91 875 529 
Q 447 1150 447 2328 
Q 447 3434 972 4092 
Q 1497 4750 2381 4750 
Q 2619 4750 2861 4703 
Q 3103 4656 3366 4563 
z
" transform="scale(0.015625)"/>
       </defs>
       <use xlink:href="#DejaVuSans-30"/>
       <use xlink:href="#DejaVuSans-2e" transform="translate(63.623047 0)"/>
       <use xlink:href="#DejaVuSans-36" transform="translate(95.410156 0)"/>
      </g>
     </g>
    </g>
    <g id="xtick_5">
     <g id="line2d_5">
      <g>
       <use xlink:href="#m941b13582a" x="453.68075" y="376.74" style="stroke: #000000; stroke-width: 1.5"/>
      </g>
     </g>
     <g id="text_5">
      <!-- 0.8 -->
      <g transform="translate(444.138875 395.358125) scale(0.12 -0.12)">
       <defs>
        <path id="DejaVuSans-38" d="M 2034 2216 
Q 1584 2216 1326 1975 
Q 1069 1734 1069 1313 
Q 1069 891 1326 650 
Q 1584 409 2034 409 
Q 2484 409 2743 651 
Q 3003 894 3003 1313 
Q 3003 1734 2745 1975 
Q 2488 2216 2034 2216 
z
M 1403 2484 
Q 997 2584 770 2862 
Q 544 3141 544 3541 
Q 544 4100 942 4425 
Q 1341 4750 2034 4750 
Q 2731 4750 3128 4425 
Q 3525 4100 3525 3541 
Q 3525 3141 3298 2862 
Q 3072 2584 2669 2484 
Q 3125 2378 3379 2068 
Q 3634 1759 3634 1313 
Q 3634 634 3220 271 
Q 2806 -91 2034 -91 
Q 1263 -91 848 271 
Q 434 634 434 1313 
Q 434 1759 690 2068 
Q 947 2378 1403 2484 
z
M 1172 3481 
Q 1172 3119 1398 2916 
Q 1625 2713 2034 2713 
Q 2441 2713 2670 2916 
Q 2900 3119 2900 3481 
Q 2900 3844 2670 4047 
Q 2441 4250 2034 4250 
Q 1625 4250 1398 4047 
Q 1172 3844 1172 3481 
z
" transform="scale(0.015625)"/>
       </defs>
       <use xlink:href="#DejaVuSans-30"/>
       <use xlink:href="#DejaVuSans-2e" transform="translate(63.623047 0)"/>
       <use xlink:href="#DejaVuSans-38" transform="translate(95.410156 0)"/>
      </g>
     </g>
    </g>
    <g id="xtick_6">
     <g id="line2d_6">
      <g>
       <use xlink:href="#m941b13582a" x="553.28375" y="376.74" style="stroke: #000000; stroke-width: 1.5"/>
      </g>
     </g>
     <g id="text_6">
      <!-- 1.0 -->
      <g transform="translate(543.741875 395.358125) scale(0.12 -0.12)">
       <defs>
        <path id="DejaVuSans-31" d="M 794 531 
L 1825 531 
L 1825 4091 
L 703 3866 
L 703 4441 
L 1819 4666 
L 2450 4666 
L 2450 531 
L 3481 531 
L 3481 0 
L 794 0 
L 794 531 
z
" transform="scale(0.015625)"/>
       </defs>
       <use xlink:href="#DejaVuSans-31"/>
       <use xlink:href="#DejaVuSans-2e" transform="translate(63.623047 0)"/>
       <use xlink:href="#DejaVuSans-30" transform="translate(95.410156 0)"/>
      </g>
     </g>
    </g>
    <g id="text_7">
     <!-- Normalized distance from equator -->
     <g transform="translate(167.475 414.01125) scale(0.16 -0.16)">
      <defs>
       <path id="DejaVuSans-4e" d="M 628 4666 
L 1478 4666 
L 3547 763 
L 3547 4666 
L 4159 4666 
L 4159 0 
L 3309 0 
L 1241 3903 
L 1241 0 
L 628 0 
L 628 4666 
z
" transform="scale(0.015625)"/>
       <path id="DejaVuSans-6f" d="M 1959 3097 
Q 1497 3097 1228 2736 
Q 959 2375 959 1747 
Q 959 1119 1226 758 
Q 1494 397 1959 397 
Q 2419 397 2687 759 
Q 2956 1122 2956 1747 
Q 2956 2369 2687 2733 
Q 2419 3097 1959 3097 
z
M 1959 3584 
Q 2709 3584 3137 3096 
Q 3566 2609 3566 1747 
Q 3566 888 3137 398 
Q 2709 -91 1959 -91 
Q 1206 -91 779 398 
Q 353 888 353 1747 
Q 353 2609 779 3096 
Q 1206 3584 1959 3584 
z
" transform="scale(0.015625)"/>
       <path id="DejaVuSans-72" d="M 2631 2963 
Q 2534 3019 2420 3045 
Q 2306 3072 2169 3072 
Q 1681 3072 1420 2755 
Q 1159 2438 1159 1844 
L 1159 0 
L 581 0 
L 581 3500 
L 1159 3500 
L 1159 2956 
Q 1341 3275 1631 3429 
Q 1922 3584 2338 3584 
Q 2397 3584 2469 3576 
Q 2541 3569 2628 3553 
L 2631 2963 
z
" transform="scale(0.015625)"/>
       <path id="DejaVuSans-6d" d="M 3328 2828 
Q 3544 3216 3844 3400 
Q 4144 3584 4550 3584 
Q 5097 3584 5394 3201 
Q 5691 2819 5691 2113 
L 5691 0 
L 5113 0 
L 5113 2094 
Q 5113 2597 4934 2840 
Q 4756 3084 4391 3084 
Q 3944 3084 3684 2787 
Q 3425 2491 3425 1978 
L 3425 0 
L 2847 0 
L 2847 2094 
Q 2847 2600 2669 2842 
Q 2491 3084 2119 3084 
Q 1678 3084 1418 2786 
Q 1159 2488 1159 1978 
L 1159 0 
L 581 0 
L 581 3500 
L 1159 3500 
L 1159 2956 
Q 1356 3278 1631 3431 
Q 1906 3584 2284 3584 
Q 2666 3584 2933 3390 
Q 3200 3197 3328 2828 
z
" transform="scale(0.015625)"/>
       <path id="DejaVuSans-61" d="M 2194 1759 
Q 1497 1759 1228 1600 
Q 959 1441 959 1056 
Q 959 750 1161 570 
Q 1363 391 1709 391 
Q 2188 391 2477 730 
Q 2766 1069 2766 1631 
L 2766 1759 
L 2194 1759 
z
M 3341 1997 
L 3341 0 
L 2766 0 
L 2766 531 
Q 2569 213 2275 61 
Q 1981 -91 1556 -91 
Q 1019 -91 701 211 
Q 384 513 384 1019 
Q 384 1609 779 1909 
Q 1175 2209 1959 2209 
L 2766 2209 
L 2766 2266 
Q 2766 2663 2505 2880 
Q 2244 3097 1772 3097 
Q 1472 3097 1187 3025 
Q 903 2953 641 2809 
L 641 3341 
Q 956 3463 1253 3523 
Q 1550 3584 1831 3584 
Q 2591 3584 2966 3190 
Q 3341 2797 3341 1997 
z
" transform="scale(0.015625)"/>
       <path id="DejaVuSans-6c" d="M 603 4863 
L 1178 4863 
L 1178 0 
L 603 0 
L 603 4863 
z
" transform="scale(0.015625)"/>
       <path id="DejaVuSans-69" d="M 603 3500 
L 1178 3500 
L 1178 0 
L 603 0 
L 603 3500 
z
M 603 4863 
L 1178 4863 
L 1178 4134 
L 603 4134 
L 603 4863 
z
" transform="scale(0.015625)"/>
       <path id="DejaVuSans-7a" d="M 353 3500 
L 3084 3500 
L 3084 2975 
L 922 459 
L 3084 459 
L 3084 0 
L 275 0 
L 275 525 
L 2438 3041 
L 353 3041 
L 353 3500 
z
" transform="scale(0.015625)"/>
       <path id="DejaVuSans-65" d="M 3597 1894 
L 3597 1613 
L 953 1613 
Q 991 1019 1311 708 
Q 1631 397 2203 397 
Q 2534 397 2845 478 
Q 3156 559 3463 722 
L 3463 178 
Q 3153 47 2828 -22 
Q 2503 -91 2169 -91 
Q 1331 -91 842 396 
Q 353 884 353 1716 
Q 353 2575 817 3079 
Q 1281 3584 2069 3584 
Q 2775 3584 3186 3129 
Q 3597 2675 3597 1894 
z
M 3022 2063 
Q 3016 2534 2758 2815 
Q 2500 3097 2075 3097 
Q 1594 3097 1305 2825 
Q 1016 2553 972 2059 
L 3022 2063 
z
" transform="scale(0.015625)"/>
       <path id="DejaVuSans-64" d="M 2906 2969 
L 2906 4863 
L 3481 4863 
L 3481 0 
L 2906 0 
L 2906 525 
Q 2725 213 2448 61 
Q 2172 -91 1784 -91 
Q 1150 -91 751 415 
Q 353 922 353 1747 
Q 353 2572 751 3078 
Q 1150 3584 1784 3584 
Q 2172 3584 2448 3432 
Q 2725 3281 2906 2969 
z
M 947 1747 
Q 947 1113 1208 752 
Q 1469 391 1925 391 
Q 2381 391 2643 752 
Q 2906 1113 2906 1747 
Q 2906 2381 2643 2742 
Q 2381 3103 1925 3103 
Q 1469 3103 1208 2742 
Q 947 2381 947 1747 
z
" transform="scale(0.015625)"/>
       <path id="DejaVuSans-20" transform="scale(0.015625)"/>
       <path id="DejaVuSans-73" d="M 2834 3397 
L 2834 2853 
Q 2591 2978 2328 3040 
Q 2066 3103 1784 3103 
Q 1356 3103 1142 2972 
Q 928 2841 928 2578 
Q 928 2378 1081 2264 
Q 1234 2150 1697 2047 
L 1894 2003 
Q 2506 1872 2764 1633 
Q 3022 1394 3022 966 
Q 3022 478 2636 193 
Q 2250 -91 1575 -91 
Q 1294 -91 989 -36 
Q 684 19 347 128 
L 347 722 
Q 666 556 975 473 
Q 1284 391 1588 391 
Q 1994 391 2212 530 
Q 2431 669 2431 922 
Q 2431 1156 2273 1281 
Q 2116 1406 1581 1522 
L 1381 1569 
Q 847 1681 609 1914 
Q 372 2147 372 2553 
Q 372 3047 722 3315 
Q 1072 3584 1716 3584 
Q 2034 3584 2315 3537 
Q 2597 3491 2834 3397 
z
" transform="scale(0.015625)"/>
       <path id="DejaVuSans-74" d="M 1172 4494 
L 1172 3500 
L 2356 3500 
L 2356 3053 
L 1172 3053 
L 1172 1153 
Q 1172 725 1289 603 
Q 1406 481 1766 481 
L 2356 481 
L 2356 0 
L 1766 0 
Q 1100 0 847 248 
Q 594 497 594 1153 
L 594 3053 
L 172 3053 
L 172 3500 
L 594 3500 
L 594 4494 
L 1172 4494 
z
" transform="scale(0.015625)"/>
       <path id="DejaVuSans-6e" d="M 3513 2113 
L 3513 0 
L 2938 0 
L 2938 2094 
Q 2938 2591 2744 2837 
Q 2550 3084 2163 3084 
Q 1697 3084 1428 2787 
Q 1159 2491 1159 1978 
L 1159 0 
L 581 0 
L 581 3500 
L 1159 3500 
L 1159 2956 
Q 1366 3272 1645 3428 
Q 1925 3584 2291 3584 
Q 2894 3584 3203 3211 
Q 3513 2838 3513 2113 
z
" transform="scale(0.015625)"/>
       <path id="DejaVuSans-63" d="M 3122 3366 
L 3122 2828 
Q 2878 2963 2633 3030 
Q 2388 3097 2138 3097 
Q 1578 3097 1268 2742 
Q 959 2388 959 1747 
Q 959 1106 1268 751 
Q 1578 397 2138 397 
Q 2388 397 2633 464 
Q 2878 531 3122 666 
L 3122 134 
Q 2881 22 2623 -34 
Q 2366 -91 2075 -91 
Q 1284 -91 818 406 
Q 353 903 353 1747 
Q 353 2603 823 3093 
Q 1294 3584 2113 3584 
Q 2378 3584 2631 3529 
Q 2884 3475 3122 3366 
z
" transform="scale(0.015625)"/>
       <path id="DejaVuSans-66" d="M 2375 4863 
L 2375 4384 
L 1825 4384 
Q 1516 4384 1395 4259 
Q 1275 4134 1275 3809 
L 1275 3500 
L 2222 3500 
L 2222 3053 
L 1275 3053 
L 1275 0 
L 697 0 
L 697 3053 
L 147 3053 
L 147 3500 
L 697 3500 
L 697 3744 
Q 697 4328 969 4595 
Q 1241 4863 1831 4863 
L 2375 4863 
z
" transform="scale(0.015625)"/>
       <path id="DejaVuSans-71" d="M 947 1747 
Q 947 1113 1208 752 
Q 1469 391 1925 391 
Q 2381 391 2643 752 
Q 2906 1113 2906 1747 
Q 2906 2381 2643 2742 
Q 2381 3103 1925 3103 
Q 1469 3103 1208 2742 
Q 947 2381 947 1747 
z
M 2906 525 
Q 2725 213 2448 61 
Q 2172 -91 1784 -91 
Q 1150 -91 751 415 
Q 353 922 353 1747 
Q 353 2572 751 3078 
Q 1150 3584 1784 3584 
Q 2172 3584 2448 3432 
Q 2725 3281 2906 2969 
L 2906 3500 
L 3481 3500 
L 3481 -1331 
L 2906 -1331 
L 2906 525 
z
" transform="scale(0.015625)"/>
       <path id="DejaVuSans-75" d="M 544 1381 
L 544 3500 
L 1119 3500 
L 1119 1403 
Q 1119 906 1312 657 
Q 1506 409 1894 409 
Q 2359 409 2629 706 
Q 2900 1003 2900 1516 
L 2900 3500 
L 3475 3500 
L 3475 0 
L 2900 0 
L 2900 538 
Q 2691 219 2414 64 
Q 2138 -91 1772 -91 
Q 1169 -91 856 284 
Q 544 659 544 1381 
z
M 1991 3584 
L 1991 3584 
z
" transform="scale(0.015625)"/>
      </defs>
      <use xlink:href="#DejaVuSans-4e"/>
      <use xlink:href="#DejaVuSans-6f" transform="translate(74.804688 0)"/>
      <use xlink:href="#DejaVuSans-72" transform="translate(135.986328 0)"/>
      <use xlink:href="#DejaVuSans-6d" transform="translate(175.349609 0)"/>
      <use xlink:href="#DejaVuSans-61" transform="translate(272.761719 0)"/>
      <use xlink:href="#DejaVuSans-6c" transform="translate(334.041016 0)"/>
      <use xlink:href="#DejaVuSans-69" transform="translate(361.824219 0)"/>
      <use xlink:href="#DejaVuSans-7a" transform="translate(389.607422 0)"/>
      <use xlink:href="#DejaVuSans-65" transform="translate(442.097656 0)"/>
      <use xlink:href="#DejaVuSans-64" transform="translate(503.621094 0)"/>
      <use xlink:href="#DejaVuSans-20" transform="translate(567.097656 0)"/>
      <use xlink:href="#DejaVuSans-64" transform="translate(598.884766 0)"/>
      <use xlink:href="#DejaVuSans-69" transform="translate(662.361328 0)"/>
      <use xlink:href="#DejaVuSans-73" transform="translate(690.144531 0)"/>
      <use xlink:href="#DejaVuSans-74" transform="translate(742.244141 0)"/>
      <use xlink:href="#DejaVuSans-61" transform="translate(781.453125 0)"/>
      <use xlink:href="#DejaVuSans-6e" transform="translate(842.732422 0)"/>
      <use xlink:href="#DejaVuSans-63" transform="translate(906.111328 0)"/>
      <use xlink:href="#DejaVuSans-65" transform="translate(961.091797 0)"/>
      <use xlink:href="#DejaVuSans-20" transform="translate(1022.615234 0)"/>
      <use xlink:href="#DejaVuSans-66" transform="translate(1054.402344 0)"/>
      <use xlink:href="#DejaVuSans-72" transform="translate(1089.607422 0)"/>
      <use xlink:href="#DejaVuSans-6f" transform="translate(1128.470703 0)"/>
      <use xlink:href="#DejaVuSans-6d" transform="translate(1189.652344 0)"/>
      <use xlink:href="#DejaVuSans-20" transform="translate(1287.064453 0)"/>
      <use xlink:href="#DejaVuSans-65" transform="translate(1318.851562 0)"/>
      <use xlink:href="#DejaVuSans-71" transform="translate(1380.375 0)"/>
      <use xlink:href="#DejaVuSans-75" transform="translate(1443.851562 0)"/>
      <use xlink:href="#DejaVuSans-61" transform="translate(1507.230469 0)"/>
      <use xlink:href="#DejaVuSans-74" transform="translate(1568.509766 0)"/>
      <use xlink:href="#DejaVuSans-6f" transform="translate(1607.71875 0)"/>
      <use xlink:href="#DejaVuSans-72" transform="translate(1668.900391 0)"/>
     </g>
    </g>
   </g>
   <g id="matplotlib.axis_2">
    <g id="ytick_1">
     <g id="line2d_7">
      <defs>
       <path id="m7af5e4219f" d="M 0 0 
L -6 0 
" style="stroke: #000000; stroke-width: 1.5"/>
      </defs>
      <g>
       <use xlink:href="#m7af5e4219f" x="55.26875" y="376.74" style="stroke: #000000; stroke-width: 1.5"/>
      </g>
     </g>
     <g id="text_8">
      <!-- 0.0 -->
      <g transform="translate(26.685 381.299062) scale(0.12 -0.12)">
       <use xlink:href="#DejaVuSans-30"/>
       <use xlink:href="#DejaVuSans-2e" transform="translate(63.623047 0)"/>
       <use xlink:href="#DejaVuSans-30" transform="translate(95.410156 0)"/>
      </g>
     </g>
    </g>
    <g id="ytick_2">
     <g id="line2d_8">
      <g>
       <use xlink:href="#m7af5e4219f" x="55.26875" y="306.351429" style="stroke: #000000; stroke-width: 1.5"/>
      </g>
     </g>
     <g id="text_9">
      <!-- 0.2 -->
      <g transform="translate(26.685 310.910491) scale(0.12 -0.12)">
       <use xlink:href="#DejaVuSans-30"/>
       <use xlink:href="#DejaVuSans-2e" transform="translate(63.623047 0)"/>
       <use xlink:href="#DejaVuSans-32" transform="translate(95.410156 0)"/>
      </g>
     </g>
    </g>
    <g id="ytick_3">
     <g id="line2d_9">
      <g>
       <use xlink:href="#m7af5e4219f" x="55.26875" y="235.962857" style="stroke: #000000; stroke-width: 1.5"/>
      </g>
     </g>
     <g id="text_10">
      <!-- 0.4 -->
      <g transform="translate(26.685 240.52192) scale(0.12 -0.12)">
       <use xlink:href="#DejaVuSans-30"/>
       <use xlink:href="#DejaVuSans-2e" transform="translate(63.623047 0)"/>
       <use xlink:href="#DejaVuSans-34" transform="translate(95.410156 0)"/>
      </g>
     </g>
    </g>
    <g id="ytick_4">
     <g id="line2d_10">
      <g>
       <use xlink:href="#m7af5e4219f" x="55.26875" y="165.574286" style="stroke: #000000; stroke-width: 1.5"/>
      </g>
     </g>
     <g id="text_11">
      <!-- 0.6 -->
      <g transform="translate(26.685 170.133348) scale(0.12 -0.12)">
       <use xlink:href="#DejaVuSans-30"/>
       <use xlink:href="#DejaVuSans-2e" transform="translate(63.623047 0)"/>
       <use xlink:href="#DejaVuSans-36" transform="translate(95.410156 0)"/>
      </g>
     </g>
    </g>
    <g id="ytick_5">
     <g id="line2d_11">
      <g>
       <use xlink:href="#m7af5e4219f" x="55.26875" y="95.185714" style="stroke: #000000; stroke-width: 1.5"/>
      </g>
     </g>
     <g id="text_12">
      <!-- 0.8 -->
      <g transform="translate(26.685 99.744777) scale(0.12 -0.12)">
       <use xlink:href="#DejaVuSans-30"/>
       <use xlink:href="#DejaVuSans-2e" transform="translate(63.623047 0)"/>
       <use xlink:href="#DejaVuSans-38" transform="translate(95.410156 0)"/>
      </g>
     </g>
    </g>
    <g id="ytick_6">
     <g id="line2d_12">
      <g>
       <use xlink:href="#m7af5e4219f" x="55.26875" y="24.797143" style="stroke: #000000; stroke-width: 1.5"/>
      </g>
     </g>
     <g id="text_13">
      <!-- 1.0 -->
      <g transform="translate(26.685 29.356205) scale(0.12 -0.12)">
       <use xlink:href="#DejaVuSans-31"/>
       <use xlink:href="#DejaVuSans-2e" transform="translate(63.623047 0)"/>
       <use xlink:href="#DejaVuSans-30" transform="translate(95.410156 0)"/>
      </g>
     </g>
    </g>
    <g id="text_14">
     <!-- Peak-Normalized intensity -->
     <g transform="translate(19.3575 296.44125) rotate(-90) scale(0.16 -0.16)">
      <defs>
       <path id="DejaVuSans-50" d="M 1259 4147 
L 1259 2394 
L 2053 2394 
Q 2494 2394 2734 2622 
Q 2975 2850 2975 3272 
Q 2975 3691 2734 3919 
Q 2494 4147 2053 4147 
L 1259 4147 
z
M 628 4666 
L 2053 4666 
Q 2838 4666 3239 4311 
Q 3641 3956 3641 3272 
Q 3641 2581 3239 2228 
Q 2838 1875 2053 1875 
L 1259 1875 
L 1259 0 
L 628 0 
L 628 4666 
z
" transform="scale(0.015625)"/>
       <path id="DejaVuSans-6b" d="M 581 4863 
L 1159 4863 
L 1159 1991 
L 2875 3500 
L 3609 3500 
L 1753 1863 
L 3688 0 
L 2938 0 
L 1159 1709 
L 1159 0 
L 581 0 
L 581 4863 
z
" transform="scale(0.015625)"/>
       <path id="DejaVuSans-2d" d="M 313 2009 
L 1997 2009 
L 1997 1497 
L 313 1497 
L 313 2009 
z
" transform="scale(0.015625)"/>
       <path id="DejaVuSans-79" d="M 2059 -325 
Q 1816 -950 1584 -1140 
Q 1353 -1331 966 -1331 
L 506 -1331 
L 506 -850 
L 844 -850 
Q 1081 -850 1212 -737 
Q 1344 -625 1503 -206 
L 1606 56 
L 191 3500 
L 800 3500 
L 1894 763 
L 2988 3500 
L 3597 3500 
L 2059 -325 
z
" transform="scale(0.015625)"/>
      </defs>
      <use xlink:href="#DejaVuSans-50"/>
      <use xlink:href="#DejaVuSans-65" transform="translate(56.677734 0)"/>
      <use xlink:href="#DejaVuSans-61" transform="translate(118.201172 0)"/>
      <use xlink:href="#DejaVuSans-6b" transform="translate(179.480469 0)"/>
      <use xlink:href="#DejaVuSans-2d" transform="translate(237.390625 0)"/>
      <use xlink:href="#DejaVuSans-4e" transform="translate(273.474609 0)"/>
      <use xlink:href="#DejaVuSans-6f" transform="translate(348.279297 0)"/>
      <use xlink:href="#DejaVuSans-72" transform="translate(409.460938 0)"/>
      <use xlink:href="#DejaVuSans-6d" transform="translate(448.824219 0)"/>
      <use xlink:href="#DejaVuSans-61" transform="translate(546.236328 0)"/>
      <use xlink:href="#DejaVuSans-6c" transform="translate(607.515625 0)"/>
      <use xlink:href="#DejaVuSans-69" transform="translate(635.298828 0)"/>
      <use xlink:href="#DejaVuSans-7a" transform="translate(663.082031 0)"/>
      <use xlink:href="#DejaVuSans-65" transform="translate(715.572266 0)"/>
      <use xlink:href="#DejaVuSans-64" transform="translate(777.095703 0)"/>
      <use xlink:href="#DejaVuSans-20" transform="translate(840.572266 0)"/>
      <use xlink:href="#DejaVuSans-69" transform="translate(872.359375 0)"/>
      <use xlink:href="#DejaVuSans-6e" transform="translate(900.142578 0)"/>
      <use xlink:href="#DejaVuSans-74" transform="translate(963.521484 0)"/>
      <use xlink:href="#DejaVuSans-65" transform="translate(1002.730469 0)"/>
      <use xlink:href="#DejaVuSans-6e" transform="translate(1064.253906 0)"/>
      <use xlink:href="#DejaVuSans-73" transform="translate(1127.632812 0)"/>
      <use xlink:href="#DejaVuSans-69" transform="translate(1179.732422 0)"/>
      <use xlink:href="#DejaVuSans-74" transform="translate(1207.515625 0)"/>
      <use xlink:href="#DejaVuSans-79" transform="translate(1246.724609 0)"/>
     </g>
    </g>
   </g>
   <g id="line2d_13">
    <path d="M 67.719125 359.136989 
L 92.619875 370.637623 
L 117.520625 362.422885 
L 142.421375 366.295547 
L 167.322125 350.687544 
L 192.222875 371.57645 
L 217.123625 342.94222 
L 242.024375 342.355453 
L 266.925125 353.62138 
L 291.825875 327.334217 
L 316.726625 337.543963 
L 341.627375 263.611319 
L 366.528125 307.853552 
L 391.428875 134.053162 
L 416.329625 24.797143 
L 441.230375 210.567581 
L 466.131125 112.342782 
L 491.031875 297.643806 
L 515.932625 281.096976 
L 540.833375 350.335484 
" clip-path="url(#p13d9c456f2)" style="fill: none; stroke: #808080; stroke-opacity: 0.3; stroke-width: 1.5; stroke-linecap: square"/>
   </g>
   <g id="line2d_14">
    <path d="M 67.719125 335.161806 
L 92.619875 364.78167 
L 117.520625 362.206029 
L 142.421375 366.06949 
L 167.322125 332.77014 
L 192.222875 353.375262 
L 217.123625 258.260544 
L 242.024375 235.447729 
L 266.925125 281.257333 
L 291.825875 217.602221 
L 316.726625 258.260544 
L 341.627375 24.797143 
L 366.528125 217.234272 
L 391.428875 42.090728 
L 416.329625 32.708038 
L 441.230375 281.073358 
L 466.131125 170.136849 
L 491.031875 258.628492 
L 515.932625 180.43941 
L 540.833375 322.651553 
" clip-path="url(#p13d9c456f2)" style="fill: none; stroke: #808080; stroke-opacity: 0.3; stroke-width: 1.5; stroke-linecap: square"/>
   </g>
   <g id="line2d_15">
    <path d="M 67.719125 370.24441 
L 92.619875 371.189223 
L 117.520625 369.063394 
L 142.421375 332.688092 
L 167.322125 314.264238 
L 192.222875 303.044583 
L 217.123625 238.206788 
L 242.024375 237.61628 
L 266.925125 283.321611 
L 291.825875 130.734305 
L 316.726625 125.419732 
L 341.627375 242.576548 
L 366.528125 104.98815 
L 391.428875 113.255264 
L 416.329625 233.010316 
L 441.230375 24.797143 
L 466.131125 134.159252 
L 491.031875 224.270796 
L 515.932625 172.069875 
L 540.833375 277.652733 
" clip-path="url(#p13d9c456f2)" style="fill: none; stroke: #808080; stroke-opacity: 0.3; stroke-width: 1.5; stroke-linecap: square"/>
   </g>
   <g id="line2d_16">
    <path d="M 67.719125 368.410958 
L 92.619875 359.428658 
L 117.520625 358.122141 
L 142.421375 339.014339 
L 167.322125 339.014339 
L 192.222875 362.531634 
L 217.123625 347.343381 
L 242.024375 325.459231 
L 266.925125 331.011926 
L 291.825875 257.847007 
L 316.726625 132.584746 
L 341.627375 175.373159 
L 366.528125 24.797143 
L 391.428875 109.884024 
L 416.329625 278.914584 
L 441.230375 257.520378 
L 466.131125 279.404528 
L 491.031875 340.48417 
L 515.932625 317.620133 
L 540.833375 318.926649 
" clip-path="url(#p13d9c456f2)" style="fill: none; stroke: #808080; stroke-opacity: 0.3; stroke-width: 1.5; stroke-linecap: square"/>
   </g>
   <g id="line2d_17">
    <path d="M 67.719125 24.797143 
L 92.619875 195.084812 
L 117.520625 193.621667 
L 142.421375 350.741023 
L 167.322125 347.589632 
L 192.222875 360.757945 
L 217.123625 375.389404 
L 242.024375 361.320693 
L 266.925125 358.732051 
L 291.825875 350.178275 
L 316.726625 353.779865 
L 341.627375 349.502977 
L 366.528125 345.901387 
L 391.428875 345.226089 
L 416.329625 321.590656 
L 441.230375 317.538867 
L 466.131125 346.464135 
L 491.031875 369.424271 
L 515.932625 375.389404 
L 540.833375 366.27288 
" clip-path="url(#p13d9c456f2)" style="fill: none; stroke: #808080; stroke-opacity: 0.3; stroke-width: 1.5; stroke-linecap: square"/>
   </g>
   <g id="line2d_18">
    <path d="M 67.719125 24.797143 
L 92.619875 34.301976 
L 117.520625 125.257951 
L 142.421375 210.801451 
L 167.322125 341.49291 
L 192.222875 324.199393 
L 217.123625 327.103648 
L 242.024375 323.539336 
L 266.925125 304.925704 
L 291.825875 360.898611 
L 316.726625 356.938264 
L 341.627375 334.232273 
L 366.528125 359.446484 
L 391.428875 352.713893 
L 416.329625 320.371058 
L 441.230375 317.862838 
L 466.131125 353.769986 
L 491.031875 359.97453 
L 515.932625 370.139421 
L 540.833375 366.971144 
" clip-path="url(#p13d9c456f2)" style="fill: none; stroke: #808080; stroke-opacity: 0.3; stroke-width: 1.5; stroke-linecap: square"/>
   </g>
   <g id="line2d_19">
    <path d="M 67.719125 227.0344 
L 92.619875 226.264705 
L 117.520625 24.797143 
L 142.421375 188.742093 
L 167.322125 206.060222 
L 192.222875 210.678389 
L 217.123625 83.67878 
L 242.024375 259.361573 
L 266.925125 278.796362 
L 291.825875 284.761495 
L 316.726625 267.443366 
L 341.627375 161.225511 
L 366.528125 266.096401 
L 391.428875 306.12052 
L 416.329625 304.388707 
L 441.230375 283.414529 
L 466.131125 358.26733 
L 491.031875 365.387005 
L 515.932625 369.620325 
L 540.833375 361.346108 
" clip-path="url(#p13d9c456f2)" style="fill: none; stroke: #808080; stroke-opacity: 0.3; stroke-width: 1.5; stroke-linecap: square"/>
   </g>
   <g id="line2d_20">
    <path d="M 67.719125 252.504346 
L 92.619875 242.733002 
L 117.520625 119.718766 
L 142.421375 241.860561 
L 167.322125 231.565753 
L 192.222875 237.498354 
L 217.123625 82.901739 
L 242.024375 243.95442 
L 266.925125 253.551276 
L 291.825875 285.308142 
L 316.726625 309.213036 
L 341.627375 301.361064 
L 366.528125 349.519829 
L 391.428875 341.144391 
L 416.329625 332.594466 
L 441.230375 170.843832 
L 466.131125 227.901499 
L 491.031875 192.480378 
L 515.932625 180.09171 
L 540.833375 24.797143 
" clip-path="url(#p13d9c456f2)" style="fill: none; stroke: #808080; stroke-opacity: 0.3; stroke-width: 1.5; stroke-linecap: square"/>
   </g>
   <g id="line2d_21">
    <path d="M 67.719125 24.797143 
L 92.619875 188.707261 
L 117.520625 74.897971 
L 142.421375 291.176857 
L 167.322125 308.495662 
L 192.222875 304.578313 
L 217.123625 326.639171 
L 242.024375 308.083309 
L 266.925125 136.750846 
L 291.825875 256.539247 
L 316.726625 247.055139 
L 341.627375 192.830786 
L 366.528125 306.433899 
L 391.428875 306.846252 
L 416.329625 271.796289 
L 441.230375 348.70003 
L 466.131125 353.029731 
L 491.031875 329.113286 
L 515.932625 361.689134 
L 540.833375 352.411203 
" clip-path="url(#p13d9c456f2)" style="fill: none; stroke: #808080; stroke-opacity: 0.3; stroke-width: 1.5; stroke-linecap: square"/>
   </g>
   <g id="line2d_22">
    <path d="M 67.719125 137.495785 
L 92.619875 170.18993 
L 117.520625 24.797143 
L 142.421375 247.11733 
L 167.322125 284.042482 
L 192.222875 247.886604 
L 217.123625 317.890539 
L 242.024375 332.506745 
L 266.925125 234.808946 
L 291.825875 307.120703 
L 316.726625 332.891382 
L 341.627375 281.73466 
L 366.528125 339.045574 
L 391.428875 372.124356 
L 416.329625 359.046698 
L 441.230375 370.970445 
L 466.131125 368.277986 
L 491.031875 369.04726 
L 515.932625 370.585808 
L 540.833375 372.89363 
" clip-path="url(#p13d9c456f2)" style="fill: none; stroke: #808080; stroke-opacity: 0.3; stroke-width: 1.5; stroke-linecap: square"/>
   </g>
   <g id="line2d_23">
    <path d="M 67.719125 347.51475 
L 92.619875 273.831696 
L 117.520625 343.440927 
L 142.421375 193.240856 
L 167.322125 24.797143 
L 192.222875 253.462583 
L 217.123625 242.658096 
L 242.024375 320.23785 
L 266.925125 360.621832 
L 291.825875 347.691873 
L 316.726625 345.035032 
L 341.627375 374.614527 
L 366.528125 367.175373 
L 391.428875 345.920646 
L 416.329625 355.30815 
L 441.230375 360.444709 
L 466.131125 352.651309 
L 491.031875 360.976077 
L 515.932625 288.710005 
L 540.833375 136.915829 
" clip-path="url(#p13d9c456f2)" style="fill: none; stroke: #808080; stroke-opacity: 0.3; stroke-width: 1.5; stroke-linecap: square"/>
   </g>
   <g id="line2d_24">
    <path d="M 67.719125 365.180587 
L 92.619875 376.74 
L 117.520625 376.74 
L 142.421375 376.74 
L 167.322125 350.73132 
L 192.222875 363.529242 
L 217.123625 364.354914 
L 242.024375 366.625513 
L 266.925125 368.689694 
L 291.825875 356.09819 
L 316.726625 360.845806 
L 341.627375 362.290733 
L 366.528125 308.828446 
L 391.428875 284.677528 
L 416.329625 332.979363 
L 441.230375 60.92031 
L 466.131125 24.797143 
L 491.031875 278.897822 
L 515.932625 340.823251 
L 540.833375 376.74 
" clip-path="url(#p13d9c456f2)" style="fill: none; stroke: #808080; stroke-opacity: 0.3; stroke-width: 1.5; stroke-linecap: square"/>
   </g>
   <g id="line2d_25">
    <path d="M 67.719125 350.006444 
L 92.619875 334.142576 
L 117.520625 312.109425 
L 142.421375 56.231104 
L 167.322125 201.649897 
L 192.222875 221.626621 
L 217.123625 178.735421 
L 242.024375 106.760463 
L 266.925125 106.172912 
L 291.825875 116.161274 
L 316.726625 135.256671 
L 341.627375 24.797143 
L 366.528125 247.185075 
L 391.428875 296.833108 
L 416.329625 326.210642 
L 441.230375 302.414839 
L 466.131125 276.856384 
L 491.031875 281.55679 
L 515.932625 275.093732 
L 540.833375 246.303749 
" clip-path="url(#p13d9c456f2)" style="fill: none; stroke: #808080; stroke-opacity: 0.3; stroke-width: 1.5; stroke-linecap: square"/>
   </g>
   <g id="line2d_26">
    <path d="M 67.719125 339.384428 
L 92.619875 352.458878 
L 117.520625 362.331422 
L 142.421375 340.45173 
L 167.322125 363.66555 
L 192.222875 370.603013 
L 217.123625 369.268886 
L 242.024375 366.333805 
L 266.925125 348.456495 
L 291.825875 359.396341 
L 316.726625 348.18967 
L 341.627375 276.413606 
L 366.528125 327.644105 
L 391.428875 327.644105 
L 416.329625 320.17299 
L 441.230375 291.355835 
L 466.131125 212.375481 
L 491.031875 188.62801 
L 515.932625 161.945459 
L 540.833375 24.797143 
" clip-path="url(#p13d9c456f2)" style="fill: none; stroke: #808080; stroke-opacity: 0.3; stroke-width: 1.5; stroke-linecap: square"/>
   </g>
   <g id="line2d_27">
    <path d="M 67.719125 376.74 
L 92.619875 366.880456 
L 117.520625 316.296708 
L 142.421375 297.863647 
L 167.322125 252.852685 
L 192.222875 251.995333 
L 217.123625 24.797143 
L 242.024375 223.274053 
L 266.925125 236.134327 
L 291.825875 252.424009 
L 316.726625 226.274783 
L 341.627375 284.146021 
L 366.528125 218.129943 
L 391.428875 145.255051 
L 416.329625 300.435702 
L 441.230375 311.581274 
L 466.131125 321.869494 
L 491.031875 275.572504 
L 515.932625 245.993872 
L 540.833375 51.375044 
" clip-path="url(#p13d9c456f2)" style="fill: none; stroke: #808080; stroke-opacity: 0.3; stroke-width: 1.5; stroke-linecap: square"/>
   </g>
   <g id="line2d_28">
    <path d="M 67.719125 376.74 
L 92.619875 356.975721 
L 117.520625 302.884011 
L 142.421375 301.150303 
L 167.322125 279.652315 
L 192.222875 246.711851 
L 217.123625 24.797143 
L 242.024375 195.394075 
L 266.925125 240.123758 
L 291.825875 279.652315 
L 316.726625 231.801956 
L 341.627375 291.788276 
L 366.528125 297.336144 
L 391.428875 221.052963 
L 416.329625 300.456819 
L 441.230375 320.56784 
L 466.131125 277.918607 
L 491.031875 345.533244 
L 515.932625 348.307178 
L 540.833375 336.171217 
" clip-path="url(#p13d9c456f2)" style="fill: none; stroke: #808080; stroke-opacity: 0.3; stroke-width: 1.5; stroke-linecap: square"/>
   </g>
   <g id="line2d_29">
    <path d="M 67.719125 316.362048 
L 92.619875 232.865401 
L 117.520625 300.201407 
L 142.421375 293.467806 
L 167.322125 282.245138 
L 192.222875 248.801589 
L 217.123625 335.665036 
L 242.024375 352.274585 
L 266.925125 356.763652 
L 291.825875 313.893061 
L 316.726625 344.194264 
L 341.627375 348.907784 
L 366.528125 308.057274 
L 391.428875 314.790875 
L 416.329625 321.300022 
L 441.230375 271.695831 
L 466.131125 24.797143 
L 491.031875 203.237558 
L 515.932625 224.560627 
L 540.833375 107.171523 
" clip-path="url(#p13d9c456f2)" style="fill: none; stroke: #808080; stroke-opacity: 0.3; stroke-width: 1.5; stroke-linecap: square"/>
   </g>
   <g id="line2d_30">
    <path d="M 67.719125 213.134131 
L 92.619875 146.550347 
L 117.520625 277.815521 
L 142.421375 293.985869 
L 167.322125 322.521776 
L 192.222875 203.622162 
L 217.123625 273.059537 
L 242.024375 327.277761 
L 266.925125 345.350502 
L 291.825875 255.937992 
L 316.726625 324.42417 
L 341.627375 302.546641 
L 366.528125 233.109266 
L 391.428875 287.32749 
L 416.329625 252.133205 
L 441.230375 236.914054 
L 466.131125 137.989575 
L 491.031875 129.428803 
L 515.932625 181.744633 
L 540.833375 24.797143 
" clip-path="url(#p13d9c456f2)" style="fill: none; stroke: #808080; stroke-opacity: 0.3; stroke-width: 1.5; stroke-linecap: square"/>
   </g>
   <g id="line2d_31">
    <path d="M 67.719125 337.532331 
L 92.619875 289.371729 
L 117.520625 79.749624 
L 142.421375 24.797143 
L 167.322125 222.68782 
L 192.222875 96.729323 
L 217.123625 287.519398 
L 242.024375 303.881654 
L 266.925125 325.49218 
L 291.825875 303.572932 
L 316.726625 279.492632 
L 341.627375 309.129925 
L 366.528125 343.706767 
L 391.428875 176.688271 
L 416.329625 89.628722 
L 441.230375 112.782857 
L 466.131125 238.432632 
L 491.031875 189.963308 
L 515.932625 325.49218 
L 540.833375 374.270226 
" clip-path="url(#p13d9c456f2)" style="fill: none; stroke: #808080; stroke-opacity: 0.3; stroke-width: 1.5; stroke-linecap: square"/>
   </g>
   <g id="line2d_32">
    <path d="M 67.719125 365.482037 
L 92.619875 336.75845 
L 117.520625 299.512479 
L 142.421375 326.657848 
L 167.322125 282.257284 
L 192.222875 250.272044 
L 217.123625 202.609827 
L 242.024375 207.975772 
L 266.925125 309.297438 
L 291.825875 274.471403 
L 316.726625 306.877502 
L 341.627375 314.663382 
L 366.528125 354.013645 
L 391.428875 315.189455 
L 416.329625 287.623229 
L 441.230375 138.95499 
L 466.131125 221.443242 
L 491.031875 57.203242 
L 515.932625 24.797143 
L 540.833375 52.36337 
" clip-path="url(#p13d9c456f2)" style="fill: none; stroke: #808080; stroke-opacity: 0.3; stroke-width: 1.5; stroke-linecap: square"/>
   </g>
   <g id="line2d_33">
    <path d="M 67.719125 345.95434 
L 92.619875 335.642639 
L 117.520625 341.769882 
L 142.421375 327.124277 
L 167.322125 316.214795 
L 192.222875 271.6802 
L 217.123625 185.450464 
L 242.024375 190.083258 
L 266.925125 208.166096 
L 291.825875 44.822766 
L 316.726625 248.964568 
L 341.627375 290.659709 
L 366.528125 266.748517 
L 391.428875 140.318089 
L 416.329625 216.385569 
L 441.230375 104.451301 
L 466.131125 24.797143 
L 491.031875 145.399217 
L 515.932625 279.152448 
L 540.833375 367.922748 
" clip-path="url(#p13d9c456f2)" style="fill: none; stroke: #808080; stroke-opacity: 0.3; stroke-width: 1.5; stroke-linecap: square"/>
   </g>
   <g id="line2d_34">
    <path d="M 67.719125 353.382713 
L 92.619875 350.611509 
L 117.520625 327.650108 
L 142.421375 244.909886 
L 167.322125 316.037445 
L 192.222875 239.235517 
L 217.123625 24.797143 
L 242.024375 161.377892 
L 266.925125 243.854189 
L 291.825875 313.530166 
L 316.726625 355.362144 
L 341.627375 361.432399 
L 366.528125 364.731451 
L 391.428875 353.910561 
L 416.329625 373.704872 
L 441.230375 373.440948 
L 466.131125 361.828285 
L 491.031875 364.863413 
L 515.932625 355.494106 
L 540.833375 333.456439 
" clip-path="url(#p13d9c456f2)" style="fill: none; stroke: #808080; stroke-opacity: 0.3; stroke-width: 1.5; stroke-linecap: square"/>
   </g>
   <g id="line2d_35">
    <path d="M 67.719125 54.617544 
L 92.619875 24.797143 
L 117.520625 47.783702 
L 142.421375 290.695718 
L 167.322125 291.938235 
L 192.222875 217.387232 
L 217.123625 226.084849 
L 242.024375 211.174649 
L 266.925125 125.440996 
L 291.825875 153.397622 
L 316.726625 170.792856 
L 341.627375 93.446191 
L 366.528125 148.116926 
L 391.428875 166.754677 
L 416.329625 279.513068 
L 441.230375 307.159064 
L 466.131125 319.894861 
L 491.031875 331.077511 
L 515.932625 355.617216 
L 540.833375 349.404632 
" clip-path="url(#p13d9c456f2)" style="fill: none; stroke: #808080; stroke-opacity: 0.3; stroke-width: 1.5; stroke-linecap: square"/>
   </g>
   <g id="line2d_36">
    <path d="M 67.719125 245.969633 
L 92.619875 296.572079 
L 117.520625 305.100582 
L 142.421375 220.952693 
L 167.322125 326.70612 
L 192.222875 273.545123 
L 217.123625 298.27778 
L 242.024375 324.431853 
L 266.925125 272.976557 
L 291.825875 317.609051 
L 316.726625 344.900258 
L 341.627375 305.669148 
L 366.528125 261.889504 
L 391.428875 102.406513 
L 416.329625 24.797143 
L 441.230375 326.990404 
L 466.131125 311.070533 
L 491.031875 255.350985 
L 515.932625 145.049024 
L 540.833375 121.453501 
" clip-path="url(#p13d9c456f2)" style="fill: none; stroke: #808080; stroke-opacity: 0.3; stroke-width: 1.5; stroke-linecap: square"/>
   </g>
   <g id="line2d_37">
    <path d="M 67.719125 367.231204 
L 92.619875 367.935559 
L 117.520625 368.639914 
L 142.421375 364.29639 
L 167.322125 366.057278 
L 192.222875 359.952866 
L 217.123625 364.648568 
L 242.024375 343.283124 
L 266.925125 314.52195 
L 291.825875 38.766856 
L 316.726625 37.592931 
L 341.627375 24.797143 
L 366.528125 278.012868 
L 391.428875 302.07834 
L 416.329625 326.848167 
L 441.230375 290.691263 
L 466.131125 328.022093 
L 491.031875 326.613382 
L 515.932625 353.965846 
L 540.833375 360.070258 
" clip-path="url(#p13d9c456f2)" style="fill: none; stroke: #808080; stroke-opacity: 0.3; stroke-width: 1.5; stroke-linecap: square"/>
   </g>
   <g id="line2d_38">
    <path d="M 67.719125 370.504354 
L 92.619875 364.342941 
L 117.520625 366.495724 
L 142.421375 346.155639 
L 167.322125 345.487534 
L 192.222875 336.208298 
L 217.123625 337.841443 
L 242.024375 263.013685 
L 266.925125 247.201868 
L 291.825875 39.718154 
L 316.726625 71.490258 
L 341.627375 24.797143 
L 366.528125 279.939012 
L 391.428875 325.592852 
L 416.329625 360.111609 
L 441.230375 350.75814 
L 466.131125 363.080965 
L 491.031875 348.753825 
L 515.932625 356.028746 
L 540.833375 353.356326 
" clip-path="url(#p13d9c456f2)" style="fill: none; stroke: #808080; stroke-opacity: 0.3; stroke-width: 1.5; stroke-linecap: square"/>
   </g>
   <g id="line2d_39">
    <path d="M 67.719125 253.191445 
L 92.619875 192.132274 
L 117.520625 218.591248 
L 142.421375 213.090422 
L 167.322125 211.055116 
L 192.222875 101.643684 
L 217.123625 24.797143 
L 242.024375 241.419677 
L 266.925125 309.079838 
L 291.825875 305.944367 
L 316.726625 188.281696 
L 341.627375 135.033699 
L 366.528125 238.999313 
L 391.428875 291.587211 
L 416.329625 281.135641 
L 441.230375 306.549458 
L 466.131125 336.143903 
L 491.031875 365.738348 
L 515.932625 373.604529 
L 540.833375 371.129157 
" clip-path="url(#p13d9c456f2)" style="fill: none; stroke: #808080; stroke-opacity: 0.3; stroke-width: 1.5; stroke-linecap: square"/>
   </g>
   <g id="line2d_40">
    <path d="M 67.719125 214.577195 
L 92.619875 222.248652 
L 117.520625 291.645835 
L 142.421375 262.376275 
L 167.322125 204.545289 
L 192.222875 237.355522 
L 217.123625 170.554832 
L 242.024375 125.706312 
L 266.925125 24.797143 
L 291.825875 37.661587 
L 316.726625 214.105105 
L 341.627375 245.617091 
L 366.528125 230.982311 
L 391.428875 181.884984 
L 416.329625 171.499011 
L 441.230375 154.267738 
L 466.131125 190.972711 
L 491.031875 111.425599 
L 515.932625 76.608985 
L 540.833375 165.243823 
" clip-path="url(#p13d9c456f2)" style="fill: none; stroke: #808080; stroke-opacity: 0.3; stroke-width: 1.5; stroke-linecap: square"/>
   </g>
   <g id="line2d_41">
    <path d="M 67.719125 112.202268 
L 92.619875 87.711943 
L 117.520625 151.471237 
L 142.421375 155.693706 
L 167.322125 202.563121 
L 192.222875 186.517736 
L 217.123625 248.588042 
L 242.024375 189.684588 
L 266.925125 246.899054 
L 291.825875 256.610734 
L 316.726625 138.592704 
L 341.627375 25.008266 
L 366.528125 24.797143 
L 391.428875 186.095489 
L 416.329625 128.458776 
L 441.230375 135.848098 
L 466.131125 128.036529 
L 491.031875 224.942211 
L 515.932625 290.81274 
L 540.833375 348.871699 
" clip-path="url(#p13d9c456f2)" style="fill: none; stroke: #808080; stroke-opacity: 0.3; stroke-width: 1.5; stroke-linecap: square"/>
   </g>
   <g id="line2d_42">
    <path d="M 67.719125 320.731889 
L 92.619875 300.180057 
L 117.520625 337.732272 
L 142.421375 342.21525 
L 167.322125 341.749486 
L 192.222875 348.503063 
L 217.123625 367.832265 
L 242.024375 360.263602 
L 266.925125 352.520276 
L 291.825875 336.858965 
L 316.726625 275.669231 
L 341.627375 214.013733 
L 366.528125 111.778554 
L 391.428875 178.790337 
L 416.329625 42.26329 
L 441.230375 24.797143 
L 466.131125 71.722857 
L 491.031875 168.834633 
L 515.932625 248.305601 
L 540.833375 323.875796 
" clip-path="url(#p13d9c456f2)" style="fill: none; stroke: #808080; stroke-opacity: 0.3; stroke-width: 1.5; stroke-linecap: square"/>
   </g>
   <g id="line2d_43">
    <path d="M 67.719125 350.870303 
L 92.619875 335.233508 
L 117.520625 335.233508 
L 142.421375 312.180734 
L 167.322125 336.383273 
L 192.222875 316.837279 
L 217.123625 351.502673 
L 242.024375 327.012693 
L 266.925125 285.333737 
L 291.825875 211.518868 
L 316.726625 67.338423 
L 341.627375 146.212255 
L 366.528125 82.802753 
L 391.428875 48.07987 
L 416.329625 24.797143 
L 441.230375 178.290679 
L 466.131125 141.268268 
L 491.031875 278.78008 
L 515.932625 338.912754 
L 540.833375 375.245306 
" clip-path="url(#p13d9c456f2)" style="fill: none; stroke: #808080; stroke-opacity: 0.3; stroke-width: 1.5; stroke-linecap: square"/>
   </g>
   <g id="line2d_44">
    <path d="M 67.719125 324.115633 
L 92.619875 354.001076 
L 117.520625 332.097459 
L 142.421375 250.701392 
L 167.322125 213.576618 
L 192.222875 210.328201 
L 217.123625 291.167396 
L 242.024375 280.494024 
L 266.925125 254.228246 
L 291.825875 274.646872 
L 316.726625 287.362107 
L 341.627375 294.323002 
L 366.528125 267.964412 
L 391.428875 247.824222 
L 416.329625 199.840452 
L 441.230375 167.263463 
L 466.131125 78.256817 
L 491.031875 24.797143 
L 515.932625 242.069882 
L 540.833375 332.654331 
" clip-path="url(#p13d9c456f2)" style="fill: none; stroke: #808080; stroke-opacity: 0.3; stroke-width: 1.5; stroke-linecap: square"/>
   </g>
   <g id="line2d_45">
    <path d="M 67.719125 132.972636 
L 92.619875 285.252737 
L 117.520625 190.48743 
L 142.421375 278.696647 
L 167.322125 215.221771 
L 192.222875 281.974692 
L 217.123625 238.168088 
L 242.024375 273.034569 
L 266.925125 238.764096 
L 291.825875 203.59961 
L 316.726625 177.673253 
L 341.627375 245.916195 
L 366.528125 281.676688 
L 391.428875 329.357346 
L 416.329625 274.226585 
L 441.230375 262.604425 
L 466.131125 216.115783 
L 491.031875 204.493623 
L 515.932625 24.797143 
L 540.833375 160.389014 
" clip-path="url(#p13d9c456f2)" style="fill: none; stroke: #808080; stroke-opacity: 0.3; stroke-width: 1.5; stroke-linecap: square"/>
   </g>
   <g id="line2d_46">
    <path d="M 67.719125 24.797143 
L 92.619875 123.372733 
L 117.520625 252.03075 
L 142.421375 328.349652 
L 167.322125 317.364899 
L 192.222875 308.175041 
L 217.123625 105.351995 
L 242.024375 106.069953 
L 266.925125 220.799591 
L 291.825875 359.150037 
L 316.726625 348.093488 
L 341.627375 349.529404 
L 366.528125 353.765354 
L 391.428875 348.811446 
L 416.329625 334.308701 
L 441.230375 346.083207 
L 466.131125 349.960178 
L 491.031875 359.43722 
L 515.932625 340.554933 
L 540.833375 346.011411 
" clip-path="url(#p13d9c456f2)" style="fill: none; stroke: #808080; stroke-opacity: 0.3; stroke-width: 1.5; stroke-linecap: square"/>
   </g>
   <g id="line2d_47">
    <path d="M 67.719125 264.222799 
L 92.619875 271.468499 
L 117.520625 260.374008 
L 142.421375 275.780346 
L 167.322125 283.645436 
L 192.222875 272.730151 
L 217.123625 242.320126 
L 242.024375 268.727358 
L 266.925125 269.366584 
L 291.825875 250.925273 
L 316.726625 251.462987 
L 341.627375 234.499966 
L 366.528125 259.373751 
L 391.428875 245.36265 
L 416.329625 247.157554 
L 441.230375 244.70932 
L 466.131125 235.70753 
L 491.031875 262.587016 
L 515.932625 269.917183 
L 540.833375 269.242594 
" clip-path="url(#p13d9c456f2)" style="fill: none; stroke: #000000; stroke-width: 2; stroke-linecap: square"/>
   </g>
   <g id="patch_3">
    <path d="M 55.26875 376.74 
L 55.26875 7.2 
" style="fill: none; stroke: #000000; stroke-width: 1.5; stroke-linejoin: miter; stroke-linecap: square"/>
   </g>
   <g id="patch_4">
    <path d="M 55.26875 376.74 
L 553.28375 376.74 
" style="fill: none; stroke: #000000; stroke-width: 1.5; stroke-linejoin: miter; stroke-linecap: square"/>
   </g>
   <g id="legend_1">
    <g id="patch_5">
     <path d="M 448.119687 29.878125 
L 546.28375 29.878125 
Q 548.28375 29.878125 548.28375 27.878125 
L 548.28375 14.2 
Q 548.28375 12.2 546.28375 12.2 
L 448.119687 12.2 
Q 446.119687 12.2 446.119687 14.2 
L 446.119687 27.878125 
Q 446.119687 29.878125 448.119687 29.878125 
z
" style="fill: #ffffff; opacity: 0.8; stroke: #cccccc; stroke-linejoin: miter"/>
    </g>
    <g id="line2d_48">
     <path d="M 450.119687 20.298438 
L 460.119687 20.298438 
L 470.119687 20.298438 
" style="fill: none; stroke: #000000; stroke-width: 2; stroke-linecap: square"/>
    </g>
    <g id="text_15">
     <!-- Overall Mean -->
     <g transform="translate(478.119687 23.798438) scale(0.1 -0.1)">
      <defs>
       <path id="DejaVuSans-4f" d="M 2522 4238 
Q 1834 4238 1429 3725 
Q 1025 3213 1025 2328 
Q 1025 1447 1429 934 
Q 1834 422 2522 422 
Q 3209 422 3611 934 
Q 4013 1447 4013 2328 
Q 4013 3213 3611 3725 
Q 3209 4238 2522 4238 
z
M 2522 4750 
Q 3503 4750 4090 4092 
Q 4678 3434 4678 2328 
Q 4678 1225 4090 567 
Q 3503 -91 2522 -91 
Q 1538 -91 948 565 
Q 359 1222 359 2328 
Q 359 3434 948 4092 
Q 1538 4750 2522 4750 
z
" transform="scale(0.015625)"/>
       <path id="DejaVuSans-76" d="M 191 3500 
L 800 3500 
L 1894 563 
L 2988 3500 
L 3597 3500 
L 2284 0 
L 1503 0 
L 191 3500 
z
" transform="scale(0.015625)"/>
       <path id="DejaVuSans-4d" d="M 628 4666 
L 1569 4666 
L 2759 1491 
L 3956 4666 
L 4897 4666 
L 4897 0 
L 4281 0 
L 4281 4097 
L 3078 897 
L 2444 897 
L 1241 4097 
L 1241 0 
L 628 0 
L 628 4666 
z
" transform="scale(0.015625)"/>
      </defs>
      <use xlink:href="#DejaVuSans-4f"/>
      <use xlink:href="#DejaVuSans-76" transform="translate(78.710938 0)"/>
      <use xlink:href="#DejaVuSans-65" transform="translate(137.890625 0)"/>
      <use xlink:href="#DejaVuSans-72" transform="translate(199.414062 0)"/>
      <use xlink:href="#DejaVuSans-61" transform="translate(240.527344 0)"/>
      <use xlink:href="#DejaVuSans-6c" transform="translate(301.806641 0)"/>
      <use xlink:href="#DejaVuSans-6c" transform="translate(329.589844 0)"/>
      <use xlink:href="#DejaVuSans-20" transform="translate(357.373047 0)"/>
      <use xlink:href="#DejaVuSans-4d" transform="translate(389.160156 0)"/>
      <use xlink:href="#DejaVuSans-65" transform="translate(475.439453 0)"/>
      <use xlink:href="#DejaVuSans-61" transform="translate(536.962891 0)"/>
      <use xlink:href="#DejaVuSans-6e" transform="translate(598.242188 0)"/>
     </g>
    </g>
   </g>
  </g>
 </g>
 <defs>
  <clipPath id="p13d9c456f2">
   <rect x="55.26875" y="7.2" width="498.015" height="369.54"/>
  </clipPath>
 </defs>
</svg>
