<?xml version="1.0" encoding="utf-8" standalone="no"?>
<!DOCTYPE svg PUBLIC "-//W3C//DTD SVG 1.1//EN"
  "http://www.w3.org/Graphics/SVG/1.1/DTD/svg11.dtd">
<svg xmlns:xlink="http://www.w3.org/1999/xlink" width="570.025625pt" height="424.53875pt" viewBox="0 0 570.025625 424.53875" xmlns="http://www.w3.org/2000/svg" version="1.1">
 <metadata>
  <rdf:RDF xmlns:dc="http://purl.org/dc/elements/1.1/" xmlns:cc="http://creativecommons.org/ns#" xmlns:rdf="http://www.w3.org/1999/02/22-rdf-syntax-ns#">
   <cc:Work>
    <dc:type rdf:resource="http://purl.org/dc/dcmitype/StillImage"/>
    <dc:date>2026-01-11T22:29:23.766749</dc:date>
    <dc:format>image/svg+xml</dc:format>
    <dc:creator>
     <cc:Agent>
      <dc:title>Matplotlib v3.10.8, https://matplotlib.org/</dc:title>
     </cc:Agent>
    </dc:creator>
   </cc:Work>
  </rdf:RDF>
 </metadata>
 <defs>
  <style type="text/css">*{stroke-linejoin: round; stroke-linecap: butt}</style>
 </defs>
 <g id="figure_1">
  <g id="patch_1">
   <path d="M 0 424.53875 
L 570.025625 424.53875 
L 570.025625 0 
L 0 0 
z
" style="fill: #ffffff"/>
  </g>
  <g id="axes_1">
   <g id="patch_2">
    <path d="M 55.26875 376.74 
L 553.28375 376.74 
L 553.28375 7.2 
L 55.26875 7.2 
z
" style="fill: #ffffff"/>
   </g>
   <g id="matplotlib.axis_1">
    <g id="xtick_1">
     <g id="line2d_1">
      <defs>
       <path id="ma1afd0d99e" d="M 0 0 
L 0 6 
" style="stroke: #000000; stroke-width: 1.5"/>
      </defs>
      <g>
       <use xlink:href="#ma1afd0d99e" x="55.26875" y="376.74" style="stroke: #000000; stroke-width: 1.5"/>
      </g>
     </g>
     <g id="text_1">
      <!-- 0.0 -->
      <g transform="translate(45.726875 395.358125) scale(0.12 -0.12)">
       <defs>
        <path id="DejaVuSans-30" d="M 2034 4250 
Q 1547 4250 1301 3770 
Q 1056 3291 1056 2328 
Q 1056 1369 1301 889 
Q 1547 409 2034 409 
Q 2525 409 2770 889 
Q 3016 1369 3016 2328 
Q 3016 3291 2770 3770 
Q 2525 4250 2034 4250 
z
M 2034 4750 
Q 2819 4750 3233 4129 
Q 3647 3509 3647 2328 
Q 3647 1150 3233 529 
Q 2819 -91 2034 -91 
Q 1250 -91 836 529 
Q 422 1150 422 2328 
Q 422 3509 836 4129 
Q 1250 4750 2034 4750 
z
" transform="scale(0.015625)"/>
        <path id="DejaVuSans-2e" d="M 684 794 
L 1344 794 
L 1344 0 
L 684 0 
L 684 794 
z
" transform="scale(0.015625)"/>
       </defs>
       <use xlink:href="#DejaVuSans-30"/>
       <use xlink:href="#DejaVuSans-2e" transform="translate(63.623047 0)"/>
       <use xlink:href="#DejaVuSans-30" transform="translate(95.410156 0)"/>
      </g>
     </g>
    </g>
    <g id="xtick_2">
     <g id="line2d_2">
      <g>
       <use xlink:href="#ma1afd0d99e" x="154.87175" y="376.74" style="stroke: #000000; stroke-width: 1.5"/>
      </g>
     </g>
     <g id="text_2">
      <!-- 0.2 -->
      <g transform="translate(145.329875 395.358125) scale(0.12 -0.12)">
       <defs>
        <path id="DejaVuSans-32" d="M 1228 531 
L 3431 531 
L 3431 0 
L 469 0 
L 469 531 
Q 828 903 1448 1529 
Q 2069 2156 2228 2338 
Q 2531 2678 2651 2914 
Q 2772 3150 2772 3378 
Q 2772 3750 2511 3984 
Q 2250 4219 1831 4219 
Q 1534 4219 1204 4116 
Q 875 4013 500 3803 
L 500 4441 
Q 881 4594 1212 4672 
Q 1544 4750 1819 4750 
Q 2544 4750 2975 4387 
Q 3406 4025 3406 3419 
Q 3406 3131 3298 2873 
Q 3191 2616 2906 2266 
Q 2828 2175 2409 1742 
Q 1991 1309 1228 531 
z
" transform="scale(0.015625)"/>
       </defs>
       <use xlink:href="#DejaVuSans-30"/>
       <use xlink:href="#DejaVuSans-2e" transform="translate(63.623047 0)"/>
       <use xlink:href="#DejaVuSans-32" transform="translate(95.410156 0)"/>
      </g>
     </g>
    </g>
    <g id="xtick_3">
     <g id="line2d_3">
      <g>
       <use xlink:href="#ma1afd0d99e" x="254.47475" y="376.74" style="stroke: #000000; stroke-width: 1.5"/>
      </g>
     </g>
     <g id="text_3">
      <!-- 0.4 -->
      <g transform="translate(244.932875 395.358125) scale(0.12 -0.12)">
       <defs>
        <path id="DejaVuSans-34" d="M 2419 4116 
L 825 1625 
L 2419 1625 
L 2419 4116 
z
M 2253 4666 
L 3047 4666 
L 3047 1625 
L 3713 1625 
L 3713 1100 
L 3047 1100 
L 3047 0 
L 2419 0 
L 2419 1100 
L 313 1100 
L 313 1709 
L 2253 4666 
z
" transform="scale(0.015625)"/>
       </defs>
       <use xlink:href="#DejaVuSans-30"/>
       <use xlink:href="#DejaVuSans-2e" transform="translate(63.623047 0)"/>
       <use xlink:href="#DejaVuSans-34" transform="translate(95.410156 0)"/>
      </g>
     </g>
    </g>
    <g id="xtick_4">
     <g id="line2d_4">
      <g>
       <use xlink:href="#ma1afd0d99e" x="354.07775" y="376.74" style="stroke: #000000; stroke-width: 1.5"/>
      </g>
     </g>
     <g id="text_4">
      <!-- 0.6 -->
      <g transform="translate(344.535875 395.358125) scale(0.12 -0.12)">
       <defs>
        <path id="DejaVuSans-36" d="M 2113 2584 
Q 1688 2584 1439 2293 
Q 1191 2003 1191 1497 
Q 1191 994 1439 701 
Q 1688 409 2113 409 
Q 2538 409 2786 701 
Q 3034 994 3034 1497 
Q 3034 2003 2786 2293 
Q 2538 2584 2113 2584 
z
M 3366 4563 
L 3366 3988 
Q 3128 4100 2886 4159 
Q 2644 4219 2406 4219 
Q 1781 4219 1451 3797 
Q 1122 3375 1075 2522 
Q 1259 2794 1537 2939 
Q 1816 3084 2150 3084 
Q 2853 3084 3261 2657 
Q 3669 2231 3669 1497 
Q 3669 778 3244 343 
Q 2819 -91 2113 -91 
Q 1303 -91 875 529 
Q 447 1150 447 2328 
Q 447 3434 972 4092 
Q 1497 4750 2381 4750 
Q 2619 4750 2861 4703 
Q 3103 4656 3366 4563 
z
" transform="scale(0.015625)"/>
       </defs>
       <use xlink:href="#DejaVuSans-30"/>
       <use xlink:href="#DejaVuSans-2e" transform="translate(63.623047 0)"/>
       <use xlink:href="#DejaVuSans-36" transform="translate(95.410156 0)"/>
      </g>
     </g>
    </g>
    <g id="xtick_5">
     <g id="line2d_5">
      <g>
       <use xlink:href="#ma1afd0d99e" x="453.68075" y="376.74" style="stroke: #000000; stroke-width: 1.5"/>
      </g>
     </g>
     <g id="text_5">
      <!-- 0.8 -->
      <g transform="translate(444.138875 395.358125) scale(0.12 -0.12)">
       <defs>
        <path id="DejaVuSans-38" d="M 2034 2216 
Q 1584 2216 1326 1975 
Q 1069 1734 1069 1313 
Q 1069 891 1326 650 
Q 1584 409 2034 409 
Q 2484 409 2743 651 
Q 3003 894 3003 1313 
Q 3003 1734 2745 1975 
Q 2488 2216 2034 2216 
z
M 1403 2484 
Q 997 2584 770 2862 
Q 544 3141 544 3541 
Q 544 4100 942 4425 
Q 1341 4750 2034 4750 
Q 2731 4750 3128 4425 
Q 3525 4100 3525 3541 
Q 3525 3141 3298 2862 
Q 3072 2584 2669 2484 
Q 3125 2378 3379 2068 
Q 3634 1759 3634 1313 
Q 3634 634 3220 271 
Q 2806 -91 2034 -91 
Q 1263 -91 848 271 
Q 434 634 434 1313 
Q 434 1759 690 2068 
Q 947 2378 1403 2484 
z
M 1172 3481 
Q 1172 3119 1398 2916 
Q 1625 2713 2034 2713 
Q 2441 2713 2670 2916 
Q 2900 3119 2900 3481 
Q 2900 3844 2670 4047 
Q 2441 4250 2034 4250 
Q 1625 4250 1398 4047 
Q 1172 3844 1172 3481 
z
" transform="scale(0.015625)"/>
       </defs>
       <use xlink:href="#DejaVuSans-30"/>
       <use xlink:href="#DejaVuSans-2e" transform="translate(63.623047 0)"/>
       <use xlink:href="#DejaVuSans-38" transform="translate(95.410156 0)"/>
      </g>
     </g>
    </g>
    <g id="xtick_6">
     <g id="line2d_6">
      <g>
       <use xlink:href="#ma1afd0d99e" x="553.28375" y="376.74" style="stroke: #000000; stroke-width: 1.5"/>
      </g>
     </g>
     <g id="text_6">
      <!-- 1.0 -->
      <g transform="translate(543.741875 395.358125) scale(0.12 -0.12)">
       <defs>
        <path id="DejaVuSans-31" d="M 794 531 
L 1825 531 
L 1825 4091 
L 703 3866 
L 703 4441 
L 1819 4666 
L 2450 4666 
L 2450 531 
L 3481 531 
L 3481 0 
L 794 0 
L 794 531 
z
" transform="scale(0.015625)"/>
       </defs>
       <use xlink:href="#DejaVuSans-31"/>
       <use xlink:href="#DejaVuSans-2e" transform="translate(63.623047 0)"/>
       <use xlink:href="#DejaVuSans-30" transform="translate(95.410156 0)"/>
      </g>
     </g>
    </g>
    <g id="text_7">
     <!-- Normalized distance from equator -->
     <g transform="translate(167.475 414.01125) scale(0.16 -0.16)">
      <defs>
       <path id="DejaVuSans-4e" d="M 628 4666 
L 1478 4666 
L 3547 763 
L 3547 4666 
L 4159 4666 
L 4159 0 
L 3309 0 
L 1241 3903 
L 1241 0 
L 628 0 
L 628 4666 
z
" transform="scale(0.015625)"/>
       <path id="DejaVuSans-6f" d="M 1959 3097 
Q 1497 3097 1228 2736 
Q 959 2375 959 1747 
Q 959 1119 1226 758 
Q 1494 397 1959 397 
Q 2419 397 2687 759 
Q 2956 1122 2956 1747 
Q 2956 2369 2687 2733 
Q 2419 3097 1959 3097 
z
M 1959 3584 
Q 2709 3584 3137 3096 
Q 3566 2609 3566 1747 
Q 3566 888 3137 398 
Q 2709 -91 1959 -91 
Q 1206 -91 779 398 
Q 353 888 353 1747 
Q 353 2609 779 3096 
Q 1206 3584 1959 3584 
z
" transform="scale(0.015625)"/>
       <path id="DejaVuSans-72" d="M 2631 2963 
Q 2534 3019 2420 3045 
Q 2306 3072 2169 3072 
Q 1681 3072 1420 2755 
Q 1159 2438 1159 1844 
L 1159 0 
L 581 0 
L 581 3500 
L 1159 3500 
L 1159 2956 
Q 1341 3275 1631 3429 
Q 1922 3584 2338 3584 
Q 2397 3584 2469 3576 
Q 2541 3569 2628 3553 
L 2631 2963 
z
" transform="scale(0.015625)"/>
       <path id="DejaVuSans-6d" d="M 3328 2828 
Q 3544 3216 3844 3400 
Q 4144 3584 4550 3584 
Q 5097 3584 5394 3201 
Q 5691 2819 5691 2113 
L 5691 0 
L 5113 0 
L 5113 2094 
Q 5113 2597 4934 2840 
Q 4756 3084 4391 3084 
Q 3944 3084 3684 2787 
Q 3425 2491 3425 1978 
L 3425 0 
L 2847 0 
L 2847 2094 
Q 2847 2600 2669 2842 
Q 2491 3084 2119 3084 
Q 1678 3084 1418 2786 
Q 1159 2488 1159 1978 
L 1159 0 
L 581 0 
L 581 3500 
L 1159 3500 
L 1159 2956 
Q 1356 3278 1631 3431 
Q 1906 3584 2284 3584 
Q 2666 3584 2933 3390 
Q 3200 3197 3328 2828 
z
" transform="scale(0.015625)"/>
       <path id="DejaVuSans-61" d="M 2194 1759 
Q 1497 1759 1228 1600 
Q 959 1441 959 1056 
Q 959 750 1161 570 
Q 1363 391 1709 391 
Q 2188 391 2477 730 
Q 2766 1069 2766 1631 
L 2766 1759 
L 2194 1759 
z
M 3341 1997 
L 3341 0 
L 2766 0 
L 2766 531 
Q 2569 213 2275 61 
Q 1981 -91 1556 -91 
Q 1019 -91 701 211 
Q 384 513 384 1019 
Q 384 1609 779 1909 
Q 1175 2209 1959 2209 
L 2766 2209 
L 2766 2266 
Q 2766 2663 2505 2880 
Q 2244 3097 1772 3097 
Q 1472 3097 1187 3025 
Q 903 2953 641 2809 
L 641 3341 
Q 956 3463 1253 3523 
Q 1550 3584 1831 3584 
Q 2591 3584 2966 3190 
Q 3341 2797 3341 1997 
z
" transform="scale(0.015625)"/>
       <path id="DejaVuSans-6c" d="M 603 4863 
L 1178 4863 
L 1178 0 
L 603 0 
L 603 4863 
z
" transform="scale(0.015625)"/>
       <path id="DejaVuSans-69" d="M 603 3500 
L 1178 3500 
L 1178 0 
L 603 0 
L 603 3500 
z
M 603 4863 
L 1178 4863 
L 1178 4134 
L 603 4134 
L 603 4863 
z
" transform="scale(0.015625)"/>
       <path id="DejaVuSans-7a" d="M 353 3500 
L 3084 3500 
L 3084 2975 
L 922 459 
L 3084 459 
L 3084 0 
L 275 0 
L 275 525 
L 2438 3041 
L 353 3041 
L 353 3500 
z
" transform="scale(0.015625)"/>
       <path id="DejaVuSans-65" d="M 3597 1894 
L 3597 1613 
L 953 1613 
Q 991 1019 1311 708 
Q 1631 397 2203 397 
Q 2534 397 2845 478 
Q 3156 559 3463 722 
L 3463 178 
Q 3153 47 2828 -22 
Q 2503 -91 2169 -91 
Q 1331 -91 842 396 
Q 353 884 353 1716 
Q 353 2575 817 3079 
Q 1281 3584 2069 3584 
Q 2775 3584 3186 3129 
Q 3597 2675 3597 1894 
z
M 3022 2063 
Q 3016 2534 2758 2815 
Q 2500 3097 2075 3097 
Q 1594 3097 1305 2825 
Q 1016 2553 972 2059 
L 3022 2063 
z
" transform="scale(0.015625)"/>
       <path id="DejaVuSans-64" d="M 2906 2969 
L 2906 4863 
L 3481 4863 
L 3481 0 
L 2906 0 
L 2906 525 
Q 2725 213 2448 61 
Q 2172 -91 1784 -91 
Q 1150 -91 751 415 
Q 353 922 353 1747 
Q 353 2572 751 3078 
Q 1150 3584 1784 3584 
Q 2172 3584 2448 3432 
Q 2725 3281 2906 2969 
z
M 947 1747 
Q 947 1113 1208 752 
Q 1469 391 1925 391 
Q 2381 391 2643 752 
Q 2906 1113 2906 1747 
Q 2906 2381 2643 2742 
Q 2381 3103 1925 3103 
Q 1469 3103 1208 2742 
Q 947 2381 947 1747 
z
" transform="scale(0.015625)"/>
       <path id="DejaVuSans-20" transform="scale(0.015625)"/>
       <path id="DejaVuSans-73" d="M 2834 3397 
L 2834 2853 
Q 2591 2978 2328 3040 
Q 2066 3103 1784 3103 
Q 1356 3103 1142 2972 
Q 928 2841 928 2578 
Q 928 2378 1081 2264 
Q 1234 2150 1697 2047 
L 1894 2003 
Q 2506 1872 2764 1633 
Q 3022 1394 3022 966 
Q 3022 478 2636 193 
Q 2250 -91 1575 -91 
Q 1294 -91 989 -36 
Q 684 19 347 128 
L 347 722 
Q 666 556 975 473 
Q 1284 391 1588 391 
Q 1994 391 2212 530 
Q 2431 669 2431 922 
Q 2431 1156 2273 1281 
Q 2116 1406 1581 1522 
L 1381 1569 
Q 847 1681 609 1914 
Q 372 2147 372 2553 
Q 372 3047 722 3315 
Q 1072 3584 1716 3584 
Q 2034 3584 2315 3537 
Q 2597 3491 2834 3397 
z
" transform="scale(0.015625)"/>
       <path id="DejaVuSans-74" d="M 1172 4494 
L 1172 3500 
L 2356 3500 
L 2356 3053 
L 1172 3053 
L 1172 1153 
Q 1172 725 1289 603 
Q 1406 481 1766 481 
L 2356 481 
L 2356 0 
L 1766 0 
Q 1100 0 847 248 
Q 594 497 594 1153 
L 594 3053 
L 172 3053 
L 172 3500 
L 594 3500 
L 594 4494 
L 1172 4494 
z
" transform="scale(0.015625)"/>
       <path id="DejaVuSans-6e" d="M 3513 2113 
L 3513 0 
L 2938 0 
L 2938 2094 
Q 2938 2591 2744 2837 
Q 2550 3084 2163 3084 
Q 1697 3084 1428 2787 
Q 1159 2491 1159 1978 
L 1159 0 
L 581 0 
L 581 3500 
L 1159 3500 
L 1159 2956 
Q 1366 3272 1645 3428 
Q 1925 3584 2291 3584 
Q 2894 3584 3203 3211 
Q 3513 2838 3513 2113 
z
" transform="scale(0.015625)"/>
       <path id="DejaVuSans-63" d="M 3122 3366 
L 3122 2828 
Q 2878 2963 2633 3030 
Q 2388 3097 2138 3097 
Q 1578 3097 1268 2742 
Q 959 2388 959 1747 
Q 959 1106 1268 751 
Q 1578 397 2138 397 
Q 2388 397 2633 464 
Q 2878 531 3122 666 
L 3122 134 
Q 2881 22 2623 -34 
Q 2366 -91 2075 -91 
Q 1284 -91 818 406 
Q 353 903 353 1747 
Q 353 2603 823 3093 
Q 1294 3584 2113 3584 
Q 2378 3584 2631 3529 
Q 2884 3475 3122 3366 
z
" transform="scale(0.015625)"/>
       <path id="DejaVuSans-66" d="M 2375 4863 
L 2375 4384 
L 1825 4384 
Q 1516 4384 1395 4259 
Q 1275 4134 1275 3809 
L 1275 3500 
L 2222 3500 
L 2222 3053 
L 1275 3053 
L 1275 0 
L 697 0 
L 697 3053 
L 147 3053 
L 147 3500 
L 697 3500 
L 697 3744 
Q 697 4328 969 4595 
Q 1241 4863 1831 4863 
L 2375 4863 
z
" transform="scale(0.015625)"/>
       <path id="DejaVuSans-71" d="M 947 1747 
Q 947 1113 1208 752 
Q 1469 391 1925 391 
Q 2381 391 2643 752 
Q 2906 1113 2906 1747 
Q 2906 2381 2643 2742 
Q 2381 3103 1925 3103 
Q 1469 3103 1208 2742 
Q 947 2381 947 1747 
z
M 2906 525 
Q 2725 213 2448 61 
Q 2172 -91 1784 -91 
Q 1150 -91 751 415 
Q 353 922 353 1747 
Q 353 2572 751 3078 
Q 1150 3584 1784 3584 
Q 2172 3584 2448 3432 
Q 2725 3281 2906 2969 
L 2906 3500 
L 3481 3500 
L 3481 -1331 
L 2906 -1331 
L 2906 525 
z
" transform="scale(0.015625)"/>
       <path id="DejaVuSans-75" d="M 544 1381 
L 544 3500 
L 1119 3500 
L 1119 1403 
Q 1119 906 1312 657 
Q 1506 409 1894 409 
Q 2359 409 2629 706 
Q 2900 1003 2900 1516 
L 2900 3500 
L 3475 3500 
L 3475 0 
L 2900 0 
L 2900 538 
Q 2691 219 2414 64 
Q 2138 -91 1772 -91 
Q 1169 -91 856 284 
Q 544 659 544 1381 
z
M 1991 3584 
L 1991 3584 
z
" transform="scale(0.015625)"/>
      </defs>
      <use xlink:href="#DejaVuSans-4e"/>
      <use xlink:href="#DejaVuSans-6f" transform="translate(74.804688 0)"/>
      <use xlink:href="#DejaVuSans-72" transform="translate(135.986328 0)"/>
      <use xlink:href="#DejaVuSans-6d" transform="translate(175.349609 0)"/>
      <use xlink:href="#DejaVuSans-61" transform="translate(272.761719 0)"/>
      <use xlink:href="#DejaVuSans-6c" transform="translate(334.041016 0)"/>
      <use xlink:href="#DejaVuSans-69" transform="translate(361.824219 0)"/>
      <use xlink:href="#DejaVuSans-7a" transform="translate(389.607422 0)"/>
      <use xlink:href="#DejaVuSans-65" transform="translate(442.097656 0)"/>
      <use xlink:href="#DejaVuSans-64" transform="translate(503.621094 0)"/>
      <use xlink:href="#DejaVuSans-20" transform="translate(567.097656 0)"/>
      <use xlink:href="#DejaVuSans-64" transform="translate(598.884766 0)"/>
      <use xlink:href="#DejaVuSans-69" transform="translate(662.361328 0)"/>
      <use xlink:href="#DejaVuSans-73" transform="translate(690.144531 0)"/>
      <use xlink:href="#DejaVuSans-74" transform="translate(742.244141 0)"/>
      <use xlink:href="#DejaVuSans-61" transform="translate(781.453125 0)"/>
      <use xlink:href="#DejaVuSans-6e" transform="translate(842.732422 0)"/>
      <use xlink:href="#DejaVuSans-63" transform="translate(906.111328 0)"/>
      <use xlink:href="#DejaVuSans-65" transform="translate(961.091797 0)"/>
      <use xlink:href="#DejaVuSans-20" transform="translate(1022.615234 0)"/>
      <use xlink:href="#DejaVuSans-66" transform="translate(1054.402344 0)"/>
      <use xlink:href="#DejaVuSans-72" transform="translate(1089.607422 0)"/>
      <use xlink:href="#DejaVuSans-6f" transform="translate(1128.470703 0)"/>
      <use xlink:href="#DejaVuSans-6d" transform="translate(1189.652344 0)"/>
      <use xlink:href="#DejaVuSans-20" transform="translate(1287.064453 0)"/>
      <use xlink:href="#DejaVuSans-65" transform="translate(1318.851562 0)"/>
      <use xlink:href="#DejaVuSans-71" transform="translate(1380.375 0)"/>
      <use xlink:href="#DejaVuSans-75" transform="translate(1443.851562 0)"/>
      <use xlink:href="#DejaVuSans-61" transform="translate(1507.230469 0)"/>
      <use xlink:href="#DejaVuSans-74" transform="translate(1568.509766 0)"/>
      <use xlink:href="#DejaVuSans-6f" transform="translate(1607.71875 0)"/>
      <use xlink:href="#DejaVuSans-72" transform="translate(1668.900391 0)"/>
     </g>
    </g>
   </g>
   <g id="matplotlib.axis_2">
    <g id="ytick_1">
     <g id="line2d_7">
      <defs>
       <path id="m9a529b1e07" d="M 0 0 
L -6 0 
" style="stroke: #000000; stroke-width: 1.5"/>
      </defs>
      <g>
       <use xlink:href="#m9a529b1e07" x="55.26875" y="376.74" style="stroke: #000000; stroke-width: 1.5"/>
      </g>
     </g>
     <g id="text_8">
      <!-- 0.0 -->
      <g transform="translate(26.685 381.299062) scale(0.12 -0.12)">
       <use xlink:href="#DejaVuSans-30"/>
       <use xlink:href="#DejaVuSans-2e" transform="translate(63.623047 0)"/>
       <use xlink:href="#DejaVuSans-30" transform="translate(95.410156 0)"/>
      </g>
     </g>
    </g>
    <g id="ytick_2">
     <g id="line2d_8">
      <g>
       <use xlink:href="#m9a529b1e07" x="55.26875" y="306.351429" style="stroke: #000000; stroke-width: 1.5"/>
      </g>
     </g>
     <g id="text_9">
      <!-- 0.2 -->
      <g transform="translate(26.685 310.910491) scale(0.12 -0.12)">
       <use xlink:href="#DejaVuSans-30"/>
       <use xlink:href="#DejaVuSans-2e" transform="translate(63.623047 0)"/>
       <use xlink:href="#DejaVuSans-32" transform="translate(95.410156 0)"/>
      </g>
     </g>
    </g>
    <g id="ytick_3">
     <g id="line2d_9">
      <g>
       <use xlink:href="#m9a529b1e07" x="55.26875" y="235.962857" style="stroke: #000000; stroke-width: 1.5"/>
      </g>
     </g>
     <g id="text_10">
      <!-- 0.4 -->
      <g transform="translate(26.685 240.52192) scale(0.12 -0.12)">
       <use xlink:href="#DejaVuSans-30"/>
       <use xlink:href="#DejaVuSans-2e" transform="translate(63.623047 0)"/>
       <use xlink:href="#DejaVuSans-34" transform="translate(95.410156 0)"/>
      </g>
     </g>
    </g>
    <g id="ytick_4">
     <g id="line2d_10">
      <g>
       <use xlink:href="#m9a529b1e07" x="55.26875" y="165.574286" style="stroke: #000000; stroke-width: 1.5"/>
      </g>
     </g>
     <g id="text_11">
      <!-- 0.6 -->
      <g transform="translate(26.685 170.133348) scale(0.12 -0.12)">
       <use xlink:href="#DejaVuSans-30"/>
       <use xlink:href="#DejaVuSans-2e" transform="translate(63.623047 0)"/>
       <use xlink:href="#DejaVuSans-36" transform="translate(95.410156 0)"/>
      </g>
     </g>
    </g>
    <g id="ytick_5">
     <g id="line2d_11">
      <g>
       <use xlink:href="#m9a529b1e07" x="55.26875" y="95.185714" style="stroke: #000000; stroke-width: 1.5"/>
      </g>
     </g>
     <g id="text_12">
      <!-- 0.8 -->
      <g transform="translate(26.685 99.744777) scale(0.12 -0.12)">
       <use xlink:href="#DejaVuSans-30"/>
       <use xlink:href="#DejaVuSans-2e" transform="translate(63.623047 0)"/>
       <use xlink:href="#DejaVuSans-38" transform="translate(95.410156 0)"/>
      </g>
     </g>
    </g>
    <g id="ytick_6">
     <g id="line2d_12">
      <g>
       <use xlink:href="#m9a529b1e07" x="55.26875" y="24.797143" style="stroke: #000000; stroke-width: 1.5"/>
      </g>
     </g>
     <g id="text_13">
      <!-- 1.0 -->
      <g transform="translate(26.685 29.356205) scale(0.12 -0.12)">
       <use xlink:href="#DejaVuSans-31"/>
       <use xlink:href="#DejaVuSans-2e" transform="translate(63.623047 0)"/>
       <use xlink:href="#DejaVuSans-30" transform="translate(95.410156 0)"/>
      </g>
     </g>
    </g>
    <g id="text_14">
     <!-- Peak-Normalized intensity -->
     <g transform="translate(19.3575 296.44125) rotate(-90) scale(0.16 -0.16)">
      <defs>
       <path id="DejaVuSans-50" d="M 1259 4147 
L 1259 2394 
L 2053 2394 
Q 2494 2394 2734 2622 
Q 2975 2850 2975 3272 
Q 2975 3691 2734 3919 
Q 2494 4147 2053 4147 
L 1259 4147 
z
M 628 4666 
L 2053 4666 
Q 2838 4666 3239 4311 
Q 3641 3956 3641 3272 
Q 3641 2581 3239 2228 
Q 2838 1875 2053 1875 
L 1259 1875 
L 1259 0 
L 628 0 
L 628 4666 
z
" transform="scale(0.015625)"/>
       <path id="DejaVuSans-6b" d="M 581 4863 
L 1159 4863 
L 1159 1991 
L 2875 3500 
L 3609 3500 
L 1753 1863 
L 3688 0 
L 2938 0 
L 1159 1709 
L 1159 0 
L 581 0 
L 581 4863 
z
" transform="scale(0.015625)"/>
       <path id="DejaVuSans-2d" d="M 313 2009 
L 1997 2009 
L 1997 1497 
L 313 1497 
L 313 2009 
z
" transform="scale(0.015625)"/>
       <path id="DejaVuSans-79" d="M 2059 -325 
Q 1816 -950 1584 -1140 
Q 1353 -1331 966 -1331 
L 506 -1331 
L 506 -850 
L 844 -850 
Q 1081 -850 1212 -737 
Q 1344 -625 1503 -206 
L 1606 56 
L 191 3500 
L 800 3500 
L 1894 763 
L 2988 3500 
L 3597 3500 
L 2059 -325 
z
" transform="scale(0.015625)"/>
      </defs>
      <use xlink:href="#DejaVuSans-50"/>
      <use xlink:href="#DejaVuSans-65" transform="translate(56.677734 0)"/>
      <use xlink:href="#DejaVuSans-61" transform="translate(118.201172 0)"/>
      <use xlink:href="#DejaVuSans-6b" transform="translate(179.480469 0)"/>
      <use xlink:href="#DejaVuSans-2d" transform="translate(237.390625 0)"/>
      <use xlink:href="#DejaVuSans-4e" transform="translate(273.474609 0)"/>
      <use xlink:href="#DejaVuSans-6f" transform="translate(348.279297 0)"/>
      <use xlink:href="#DejaVuSans-72" transform="translate(409.460938 0)"/>
      <use xlink:href="#DejaVuSans-6d" transform="translate(448.824219 0)"/>
      <use xlink:href="#DejaVuSans-61" transform="translate(546.236328 0)"/>
      <use xlink:href="#DejaVuSans-6c" transform="translate(607.515625 0)"/>
      <use xlink:href="#DejaVuSans-69" transform="translate(635.298828 0)"/>
      <use xlink:href="#DejaVuSans-7a" transform="translate(663.082031 0)"/>
      <use xlink:href="#DejaVuSans-65" transform="translate(715.572266 0)"/>
      <use xlink:href="#DejaVuSans-64" transform="translate(777.095703 0)"/>
      <use xlink:href="#DejaVuSans-20" transform="translate(840.572266 0)"/>
      <use xlink:href="#DejaVuSans-69" transform="translate(872.359375 0)"/>
      <use xlink:href="#DejaVuSans-6e" transform="translate(900.142578 0)"/>
      <use xlink:href="#DejaVuSans-74" transform="translate(963.521484 0)"/>
      <use xlink:href="#DejaVuSans-65" transform="translate(1002.730469 0)"/>
      <use xlink:href="#DejaVuSans-6e" transform="translate(1064.253906 0)"/>
      <use xlink:href="#DejaVuSans-73" transform="translate(1127.632812 0)"/>
      <use xlink:href="#DejaVuSans-69" transform="translate(1179.732422 0)"/>
      <use xlink:href="#DejaVuSans-74" transform="translate(1207.515625 0)"/>
      <use xlink:href="#DejaVuSans-79" transform="translate(1246.724609 0)"/>
     </g>
    </g>
   </g>
   <g id="line2d_13">
    <path d="M 67.719125 369.043437 
L 92.619875 363.585873 
L 117.520625 358.548123 
L 142.421375 357.148748 
L 167.322125 369.043437 
L 192.222875 353.510372 
L 217.123625 362.886186 
L 242.024375 342.875121 
L 266.925125 352.530809 
L 291.825875 304.252366 
L 316.726625 314.467805 
L 341.627375 215.811855 
L 366.528125 253.175172 
L 391.428875 70.276836 
L 416.329625 202.657728 
L 441.230375 24.797143 
L 466.131125 246.738046 
L 491.031875 156.058535 
L 515.932625 268.708236 
L 540.833375 263.530548 
" clip-path="url(#p3959ede9b5)" style="fill: none; stroke: #808080; stroke-opacity: 0.3; stroke-width: 1.5; stroke-linecap: square"/>
   </g>
   <g id="line2d_14">
    <path d="M 67.719125 238.017998 
L 92.619875 173.794849 
L 117.520625 271.414035 
L 142.421375 140.398811 
L 167.322125 294.534369 
L 192.222875 101.864922 
L 217.123625 263.707258 
L 242.024375 207.190886 
L 266.925125 258.569406 
L 291.825875 122.41633 
L 316.726625 266.276184 
L 341.627375 50.486403 
L 366.528125 227.742294 
L 391.428875 181.501627 
L 416.329625 191.777331 
L 441.230375 24.797143 
L 466.131125 291.965443 
L 491.031875 243.15585 
L 515.932625 335.637185 
L 540.833375 330.499333 
" clip-path="url(#p3959ede9b5)" style="fill: none; stroke: #808080; stroke-opacity: 0.3; stroke-width: 1.5; stroke-linecap: square"/>
   </g>
   <g id="line2d_15">
    <path d="M 67.719125 24.797143 
L 92.619875 90.808851 
L 117.520625 192.696488 
L 142.421375 250.097973 
L 167.322125 342.299109 
L 192.222875 366.69474 
L 217.123625 343.375387 
L 242.024375 340.505312 
L 266.925125 356.64948 
L 291.825875 366.335981 
L 316.726625 355.931962 
L 341.627375 359.878314 
L 366.528125 332.253849 
L 391.428875 315.392163 
L 416.329625 244.716584 
L 441.230375 234.312564 
L 466.131125 175.476042 
L 491.031875 219.603434 
L 515.932625 299.606754 
L 540.833375 332.612608 
" clip-path="url(#p3959ede9b5)" style="fill: none; stroke: #808080; stroke-opacity: 0.3; stroke-width: 1.5; stroke-linecap: square"/>
   </g>
   <g id="line2d_16">
    <path d="M 67.719125 333.664207 
L 92.619875 350.642986 
L 117.520625 336.494003 
L 142.421375 277.277888 
L 167.322125 198.358004 
L 192.222875 79.29693 
L 217.123625 24.797143 
L 242.024375 156.85432 
L 266.925125 292.055715 
L 291.825875 327.794999 
L 316.726625 369.508297 
L 341.627375 366.468886 
L 366.528125 370.346756 
L 391.428875 334.921894 
L 416.329625 369.298683 
L 441.230375 365.840043 
L 466.131125 351.900674 
L 491.031875 360.809293 
L 515.932625 363.324668 
L 540.833375 368.25061 
" clip-path="url(#p3959ede9b5)" style="fill: none; stroke: #808080; stroke-opacity: 0.3; stroke-width: 1.5; stroke-linecap: square"/>
   </g>
   <g id="line2d_17">
    <path d="M 67.719125 66.605668 
L 92.619875 156.918615 
L 117.520625 146.956427 
L 142.421375 99.105264 
L 167.322125 88.653132 
L 192.222875 128.501883 
L 217.123625 24.797143 
L 242.024375 114.78346 
L 266.925125 123.929075 
L 291.825875 152.999065 
L 316.726625 152.182493 
L 341.627375 185.172032 
L 366.528125 193.01113 
L 391.428875 159.205018 
L 416.329625 238.902519 
L 441.230375 229.59359 
L 466.131125 250.171223 
L 491.031875 253.600829 
L 515.932625 286.427053 
L 540.833375 271.892058 
" clip-path="url(#p3959ede9b5)" style="fill: none; stroke: #808080; stroke-opacity: 0.3; stroke-width: 1.5; stroke-linecap: square"/>
   </g>
   <g id="line2d_18">
    <path d="M 67.719125 252.759124 
L 92.619875 263.643955 
L 117.520625 213.202057 
L 142.421375 169.57424 
L 167.322125 145.857698 
L 192.222875 132.49502 
L 217.123625 24.797143 
L 242.024375 154.176187 
L 266.925125 142.848883 
L 291.825875 149.839953 
L 316.726625 170.901658 
L 341.627375 167.184887 
L 366.528125 152.229306 
L 391.428875 91.34505 
L 416.329625 224.52936 
L 441.230375 240.63537 
L 466.131125 267.360726 
L 491.031875 276.741149 
L 515.932625 309.661125 
L 540.833375 307.62575 
" clip-path="url(#p3959ede9b5)" style="fill: none; stroke: #808080; stroke-opacity: 0.3; stroke-width: 1.5; stroke-linecap: square"/>
   </g>
   <g id="line2d_19">
    <path d="M 67.719125 357.315651 
L 92.619875 372.789285 
L 117.520625 372.789285 
L 142.421375 327.685289 
L 167.322125 288.507366 
L 192.222875 311.88243 
L 217.123625 243.40337 
L 242.024375 300.359511 
L 266.925125 215.748366 
L 291.825875 24.797143 
L 316.726625 76.485664 
L 341.627375 55.415184 
L 366.528125 238.13575 
L 391.428875 278.630579 
L 416.329625 280.605936 
L 441.230375 358.632556 
L 466.131125 342.829697 
L 491.031875 312.870108 
L 515.932625 234.843488 
L 540.833375 222.332891 
" clip-path="url(#p3959ede9b5)" style="fill: none; stroke: #808080; stroke-opacity: 0.3; stroke-width: 1.5; stroke-linecap: square"/>
   </g>
   <g id="line2d_20">
    <path d="M 67.719125 372.363242 
L 92.619875 374.165436 
L 117.520625 371.204688 
L 142.421375 373.650524 
L 167.322125 342.755759 
L 192.222875 344.81541 
L 217.123625 309.801344 
L 242.024375 342.240846 
L 266.925125 343.528128 
L 291.825875 349.964538 
L 316.726625 355.628578 
L 341.627375 365.669376 
L 366.528125 358.460598 
L 391.428875 365.540648 
L 416.329625 367.085386 
L 441.230375 351.380548 
L 466.131125 261.14209 
L 491.031875 155.070066 
L 515.932625 147.346375 
L 540.833375 24.797143 
" clip-path="url(#p3959ede9b5)" style="fill: none; stroke: #808080; stroke-opacity: 0.3; stroke-width: 1.5; stroke-linecap: square"/>
   </g>
   <g id="line2d_21">
    <path d="M 67.719125 336.809808 
L 92.619875 242.091677 
L 117.520625 190.089567 
L 142.421375 267.164124 
L 167.322125 182.660694 
L 192.222875 222.590886 
L 217.123625 24.797143 
L 242.024375 92.585609 
L 266.925125 74.942035 
L 291.825875 36.869061 
L 316.726625 126.015537 
L 341.627375 207.73314 
L 366.528125 184.517912 
L 391.428875 182.660694 
L 416.329625 243.020286 
L 441.230375 274.592997 
L 466.131125 304.308489 
L 491.031875 298.736834 
L 515.932625 361.882254 
L 540.833375 368.382518 
" clip-path="url(#p3959ede9b5)" style="fill: none; stroke: #808080; stroke-opacity: 0.3; stroke-width: 1.5; stroke-linecap: square"/>
   </g>
   <g id="line2d_22">
    <path d="M 67.719125 369.919791 
L 92.619875 370.220682 
L 117.520625 363.901959 
L 142.421375 274.236267 
L 167.322125 135.02376 
L 192.222875 24.797143 
L 217.123625 65.016318 
L 242.024375 54.685707 
L 266.925125 68.025234 
L 291.825875 95.205774 
L 316.726625 83.370705 
L 341.627375 132.917519 
L 366.528125 192.393756 
L 391.428875 334.715475 
L 416.329625 364.202851 
L 441.230375 374.132273 
L 466.131125 370.722168 
L 491.031875 366.309092 
L 515.932625 365.907903 
L 540.833375 367.011172 
" clip-path="url(#p3959ede9b5)" style="fill: none; stroke: #808080; stroke-opacity: 0.3; stroke-width: 1.5; stroke-linecap: square"/>
   </g>
   <g id="line2d_23">
    <path d="M 67.719125 286.133813 
L 92.619875 297.68166 
L 117.520625 229.54936 
L 142.421375 157.24207 
L 167.322125 143.562312 
L 192.222875 24.797143 
L 217.123625 83.602335 
L 242.024375 265.258858 
L 266.925125 337.21083 
L 291.825875 350.091121 
L 316.726625 316.780023 
L 341.627375 205.298881 
L 366.528125 152.001124 
L 391.428875 269.966826 
L 416.329625 306.298131 
L 441.230375 355.865045 
L 466.131125 360.217695 
L 491.031875 366.968745 
L 515.932625 374.963408 
L 540.833375 376.295852 
" clip-path="url(#p3959ede9b5)" style="fill: none; stroke: #808080; stroke-opacity: 0.3; stroke-width: 1.5; stroke-linecap: square"/>
   </g>
   <g id="line2d_24">
    <path d="M 67.719125 24.797143 
L 92.619875 300.349302 
L 117.520625 350.821728 
L 142.421375 361.052625 
L 167.322125 369.919402 
L 192.222875 364.462924 
L 217.123625 355.596146 
L 242.024375 344.00113 
L 266.925125 355.596146 
L 291.825875 369.237342 
L 316.726625 367.873223 
L 341.627375 370.601462 
L 366.528125 361.734684 
L 391.428875 367.191163 
L 416.329625 364.462924 
L 441.230375 364.462924 
L 466.131125 369.919402 
L 491.031875 369.237342 
L 515.932625 373.329701 
L 540.833375 368.555282 
" clip-path="url(#p3959ede9b5)" style="fill: none; stroke: #808080; stroke-opacity: 0.3; stroke-width: 1.5; stroke-linecap: square"/>
   </g>
   <g id="line2d_25">
    <path d="M 67.719125 224.099615 
L 92.619875 111.229337 
L 117.520625 103.320509 
L 142.421375 24.797143 
L 167.322125 168.059917 
L 192.222875 208.394942 
L 217.123625 301.380165 
L 242.024375 296.069952 
L 266.925125 344.426787 
L 291.825875 357.758812 
L 316.726625 365.780624 
L 341.627375 365.102724 
L 366.528125 357.306879 
L 391.428875 365.66764 
L 416.329625 350.640867 
L 441.230375 341.376239 
L 466.131125 352.448599 
L 491.031875 345.21767 
L 515.932625 364.763774 
L 540.833375 367.814322 
" clip-path="url(#p3959ede9b5)" style="fill: none; stroke: #808080; stroke-opacity: 0.3; stroke-width: 1.5; stroke-linecap: square"/>
   </g>
   <g id="line2d_26">
    <path d="M 67.719125 24.797143 
L 92.619875 325.72443 
L 117.520625 325.078663 
L 142.421375 323.141363 
L 167.322125 366.407733 
L 192.222875 363.824666 
L 217.123625 347.034731 
L 242.024375 347.680498 
L 266.925125 274.70886 
L 291.825875 310.226029 
L 316.726625 231.44249 
L 341.627375 197.216855 
L 366.528125 320.558296 
L 391.428875 263.085059 
L 416.329625 317.329463 
L 441.230375 337.993997 
L 466.131125 352.200865 
L 491.031875 352.200865 
L 515.932625 336.056697 
L 540.833375 361.241599 
" clip-path="url(#p3959ede9b5)" style="fill: none; stroke: #808080; stroke-opacity: 0.3; stroke-width: 1.5; stroke-linecap: square"/>
   </g>
   <g id="line2d_27">
    <path d="M 67.719125 24.797143 
L 92.619875 129.477582 
L 117.520625 175.935376 
L 142.421375 167.512812 
L 167.322125 288.369923 
L 192.222875 295.923492 
L 217.123625 259.425714 
L 242.024375 286.297705 
L 266.925125 271.12372 
L 291.825875 224.264851 
L 316.726625 289.840529 
L 341.627375 295.188189 
L 366.528125 300.66954 
L 391.428875 286.698779 
L 416.329625 316.445136 
L 441.230375 319.252658 
L 466.131125 308.624184 
L 491.031875 333.35711 
L 515.932625 331.218046 
L 540.833375 364.373537 
" clip-path="url(#p3959ede9b5)" style="fill: none; stroke: #808080; stroke-opacity: 0.3; stroke-width: 1.5; stroke-linecap: square"/>
   </g>
   <g id="line2d_28">
    <path d="M 67.719125 24.797143 
L 92.619875 108.567158 
L 117.520625 191.68442 
L 142.421375 236.506818 
L 167.322125 329.632965 
L 192.222875 321.364756 
L 217.123625 297.321674 
L 242.024375 331.80881 
L 266.925125 351.391411 
L 291.825875 350.629865 
L 316.726625 334.202239 
L 341.627375 333.223109 
L 366.528125 319.732873 
L 391.428875 278.60941 
L 416.329625 272.081877 
L 441.230375 258.918017 
L 466.131125 226.82431 
L 491.031875 294.166699 
L 515.932625 327.457121 
L 540.833375 297.321674 
" clip-path="url(#p3959ede9b5)" style="fill: none; stroke: #808080; stroke-opacity: 0.3; stroke-width: 1.5; stroke-linecap: square"/>
   </g>
   <g id="line2d_29">
    <path d="M 67.719125 106.577954 
L 92.619875 24.797143 
L 117.520625 149.646177 
L 142.421375 164.252576 
L 167.322125 303.445168 
L 192.222875 307.387769 
L 217.123625 320.679967 
L 242.024375 279.30143 
L 266.925125 296.348486 
L 291.825875 264.432192 
L 316.726625 306.148666 
L 341.627375 320.266933 
L 366.528125 357.026995 
L 391.428875 370.093901 
L 416.329625 373.02269 
L 441.230375 371.70849 
L 466.131125 374.261794 
L 491.031875 372.046427 
L 515.932625 374.937668 
L 540.833375 374.975217 
" clip-path="url(#p3959ede9b5)" style="fill: none; stroke: #808080; stroke-opacity: 0.3; stroke-width: 1.5; stroke-linecap: square"/>
   </g>
   <g id="line2d_30">
    <path d="M 67.719125 24.797143 
L 92.619875 130.48829 
L 117.520625 316.259974 
L 142.421375 347.988976 
L 167.322125 368.509952 
L 192.222875 372.24596 
L 217.123625 372.462541 
L 242.024375 356.381459 
L 266.925125 349.126022 
L 291.825875 294.277081 
L 316.726625 301.586664 
L 341.627375 288.591851 
L 366.528125 341.708149 
L 391.428875 355.190268 
L 416.329625 362.17498 
L 441.230375 360.009178 
L 466.131125 368.672387 
L 491.031875 366.77731 
L 515.932625 370.892334 
L 540.833375 373.166426 
" clip-path="url(#p3959ede9b5)" style="fill: none; stroke: #808080; stroke-opacity: 0.3; stroke-width: 1.5; stroke-linecap: square"/>
   </g>
   <g id="line2d_31">
    <path d="M 67.719125 337.259231 
L 92.619875 323.34696 
L 117.520625 353.239542 
L 142.421375 257.733681 
L 167.322125 186.480293 
L 192.222875 24.797143 
L 217.123625 125.191099 
L 242.024375 47.73359 
L 266.925125 140.231392 
L 291.825875 299.846502 
L 316.726625 343.463352 
L 341.627375 291.574341 
L 366.528125 187.044304 
L 391.428875 212.98881 
L 416.329625 312.06674 
L 441.230375 345.907399 
L 466.131125 362.263718 
L 491.031875 352.299524 
L 515.932625 339.327271 
L 540.833375 353.051538 
" clip-path="url(#p3959ede9b5)" style="fill: none; stroke: #808080; stroke-opacity: 0.3; stroke-width: 1.5; stroke-linecap: square"/>
   </g>
   <g id="line2d_32">
    <path d="M 67.719125 328.923588 
L 92.619875 265.051175 
L 117.520625 289.545366 
L 142.421375 243.48691 
L 167.322125 204.108688 
L 192.222875 93.474637 
L 217.123625 107.186696 
L 242.024375 24.797143 
L 266.925125 142.111429 
L 291.825875 236.806676 
L 316.726625 352.480203 
L 341.627375 364.082714 
L 366.528125 352.245808 
L 391.428875 324.00131 
L 416.329625 280.052402 
L 441.230375 297.631965 
L 466.131125 304.312199 
L 491.031875 354.472553 
L 515.932625 362.207561 
L 540.833375 363.027941 
" clip-path="url(#p3959ede9b5)" style="fill: none; stroke: #808080; stroke-opacity: 0.3; stroke-width: 1.5; stroke-linecap: square"/>
   </g>
   <g id="line2d_33">
    <path d="M 67.719125 247.511553 
L 92.619875 153.733218 
L 117.520625 210.161024 
L 142.421375 24.797143 
L 167.322125 117.113618 
L 192.222875 180.704539 
L 217.123625 304.231731 
L 242.024375 334.199866 
L 266.925125 332.445634 
L 291.825875 307.228545 
L 316.726625 334.857704 
L 341.627375 288.370547 
L 366.528125 309.713707 
L 391.428875 251.166204 
L 416.329625 285.593013 
L 441.230375 223.390859 
L 466.131125 285.154455 
L 491.031875 282.888571 
L 515.932625 291.148082 
L 540.833375 329.083356 
" clip-path="url(#p3959ede9b5)" style="fill: none; stroke: #808080; stroke-opacity: 0.3; stroke-width: 1.5; stroke-linecap: square"/>
   </g>
   <g id="line2d_34">
    <path d="M 67.719125 107.863114 
L 92.619875 25.00429 
L 117.520625 119.049056 
L 142.421375 24.797143 
L 167.322125 166.485733 
L 192.222875 180.571733 
L 217.123625 247.06594 
L 242.024375 293.052587 
L 266.925125 259.080469 
L 291.825875 120.291938 
L 316.726625 200.457851 
L 341.627375 75.133879 
L 366.528125 131.892174 
L 391.428875 121.949115 
L 416.329625 221.379704 
L 441.230375 98.541497 
L 466.131125 225.315498 
L 491.031875 151.15685 
L 515.932625 260.323352 
L 540.833375 301.131323 
" clip-path="url(#p3959ede9b5)" style="fill: none; stroke: #808080; stroke-opacity: 0.3; stroke-width: 1.5; stroke-linecap: square"/>
   </g>
   <g id="line2d_35">
    <path d="M 67.719125 367.485304 
L 92.619875 367.044604 
L 117.520625 370.922763 
L 142.421375 372.156722 
L 167.322125 361.315507 
L 192.222875 347.477534 
L 217.123625 322.798345 
L 242.024375 279.521625 
L 266.925125 225.84439 
L 291.825875 33.963699 
L 316.726625 129.948114 
L 341.627375 146.694706 
L 366.528125 24.797143 
L 391.428875 145.637027 
L 416.329625 165.380378 
L 441.230375 177.102992 
L 466.131125 164.146418 
L 491.031875 329.937682 
L 515.932625 347.036834 
L 540.833375 333.90398 
" clip-path="url(#p3959ede9b5)" style="fill: none; stroke: #808080; stroke-opacity: 0.3; stroke-width: 1.5; stroke-linecap: square"/>
   </g>
   <g id="line2d_36">
    <path d="M 67.719125 276.297881 
L 92.619875 286.579358 
L 117.520625 356.967929 
L 142.421375 341.150273 
L 167.322125 356.177047 
L 192.222875 238.335506 
L 217.123625 331.659679 
L 242.024375 334.032327 
L 266.925125 314.260257 
L 291.825875 254.153162 
L 316.726625 183.764591 
L 341.627375 91.2313 
L 366.528125 24.797143 
L 391.428875 218.563435 
L 416.329625 258.107576 
L 441.230375 280.252295 
L 466.131125 335.614093 
L 491.031875 357.758812 
L 515.932625 321.378202 
L 540.833375 256.525811 
" clip-path="url(#p3959ede9b5)" style="fill: none; stroke: #808080; stroke-opacity: 0.3; stroke-width: 1.5; stroke-linecap: square"/>
   </g>
   <g id="line2d_37">
    <path d="M 67.719125 107.767584 
L 92.619875 179.274544 
L 117.520625 24.797143 
L 142.421375 153.062315 
L 167.322125 100.498059 
L 192.222875 198.357046 
L 217.123625 313.341356 
L 242.024375 302.506968 
L 266.925125 333.472348 
L 291.825875 341.93016 
L 316.726625 315.368435 
L 341.627375 343.817441 
L 366.528125 360.593267 
L 391.428875 334.870333 
L 416.329625 344.097038 
L 441.230375 326.762017 
L 466.131125 315.228637 
L 491.031875 342.629153 
L 515.932625 343.188347 
L 540.833375 351.785958 
" clip-path="url(#p3959ede9b5)" style="fill: none; stroke: #808080; stroke-opacity: 0.3; stroke-width: 1.5; stroke-linecap: square"/>
   </g>
   <g id="line2d_38">
    <path d="M 67.719125 24.797143 
L 92.619875 280.329198 
L 117.520625 280.329198 
L 142.421375 333.485424 
L 167.322125 309.339295 
L 192.222875 165.5048 
L 217.123625 250.103108 
L 242.024375 257.225348 
L 266.925125 277.028648 
L 291.825875 294.399963 
L 316.726625 208.238237 
L 341.627375 263.479021 
L 366.528125 251.492813 
L 391.428875 219.877019 
L 416.329625 237.422048 
L 441.230375 67.878006 
L 466.131125 228.910103 
L 491.031875 283.977174 
L 515.932625 310.902713 
L 540.833375 319.935797 
" clip-path="url(#p3959ede9b5)" style="fill: none; stroke: #808080; stroke-opacity: 0.3; stroke-width: 1.5; stroke-linecap: square"/>
   </g>
   <g id="line2d_39">
    <path d="M 67.719125 61.456383 
L 92.619875 57.068597 
L 117.520625 33.006548 
L 142.421375 24.797143 
L 167.322125 141.144229 
L 192.222875 54.803934 
L 217.123625 97.690998 
L 242.024375 140.648833 
L 266.925125 271.928544 
L 291.825875 276.811724 
L 316.726625 325.926613 
L 341.627375 342.911589 
L 366.528125 366.690556 
L 391.428875 370.9368 
L 416.329625 365.982849 
L 441.230375 359.755024 
L 466.131125 365.20437 
L 491.031875 359.40117 
L 515.932625 363.647414 
L 540.833375 374.475337 
" clip-path="url(#p3959ede9b5)" style="fill: none; stroke: #808080; stroke-opacity: 0.3; stroke-width: 1.5; stroke-linecap: square"/>
   </g>
   <g id="line2d_40">
    <path d="M 67.719125 134.582936 
L 92.619875 24.797143 
L 117.520625 75.402195 
L 142.421375 189.00884 
L 167.322125 110.554027 
L 192.222875 154.96081 
L 217.123625 159.545831 
L 242.024375 117.261744 
L 266.925125 192.914599 
L 291.825875 117.091928 
L 316.726625 135.856554 
L 341.627375 98.751842 
L 366.528125 209.301806 
L 391.428875 160.39491 
L 416.329625 234.179793 
L 441.230375 258.123795 
L 466.131125 315.521472 
L 491.031875 284.61503 
L 515.932625 294.549243 
L 540.833375 299.304081 
" clip-path="url(#p3959ede9b5)" style="fill: none; stroke: #808080; stroke-opacity: 0.3; stroke-width: 1.5; stroke-linecap: square"/>
   </g>
   <g id="line2d_41">
    <path d="M 67.719125 357.239561 
L 92.619875 369.661073 
L 117.520625 333.331488 
L 142.421375 336.002781 
L 167.322125 335.201393 
L 192.222875 367.123345 
L 217.123625 349.359246 
L 242.024375 338.006251 
L 266.925125 327.588208 
L 291.825875 348.290729 
L 316.726625 329.858807 
L 341.627375 338.27338 
L 366.528125 329.057419 
L 391.428875 253.726956 
L 416.329625 24.797143 
L 441.230375 133.385205 
L 466.131125 238.500586 
L 491.031875 55.650577 
L 515.932625 129.912524 
L 540.833375 192.020087 
" clip-path="url(#p3959ede9b5)" style="fill: none; stroke: #808080; stroke-opacity: 0.3; stroke-width: 1.5; stroke-linecap: square"/>
   </g>
   <g id="line2d_42">
    <path d="M 67.719125 330.83441 
L 92.619875 360.213988 
L 117.520625 321.041217 
L 142.421375 306.963503 
L 167.322125 308.187652 
L 192.222875 342.463826 
L 217.123625 270.239031 
L 242.024375 197.402161 
L 266.925125 232.902484 
L 291.825875 286.152969 
L 316.726625 191.893491 
L 341.627375 43.159379 
L 366.528125 155.169019 
L 391.428875 24.797143 
L 416.329625 125.177366 
L 441.230375 48.66805 
L 466.131125 246.980199 
L 491.031875 172.307106 
L 515.932625 267.790733 
L 540.833375 211.479876 
" clip-path="url(#p3959ede9b5)" style="fill: none; stroke: #808080; stroke-opacity: 0.3; stroke-width: 1.5; stroke-linecap: square"/>
   </g>
   <g id="line2d_43">
    <path d="M 67.719125 195.552027 
L 92.619875 297.100757 
L 117.520625 24.797143 
L 142.421375 218.852592 
L 167.322125 155.558521 
L 192.222875 332.225488 
L 217.123625 236.936612 
L 242.024375 270.670265 
L 266.925125 98.176533 
L 291.825875 269.279187 
L 316.726625 305.099458 
L 341.627375 240.066539 
L 366.528125 303.708379 
L 391.428875 346.831813 
L 416.329625 320.749091 
L 441.230375 327.008944 
L 466.131125 360.742597 
L 491.031875 354.830514 
L 515.932625 376.74 
L 540.833375 376.74 
" clip-path="url(#p3959ede9b5)" style="fill: none; stroke: #808080; stroke-opacity: 0.3; stroke-width: 1.5; stroke-linecap: square"/>
   </g>
   <g id="line2d_44">
    <path d="M 67.719125 350.214895 
L 92.619875 344.068834 
L 117.520625 327.248036 
L 142.421375 156.937453 
L 167.322125 122.325425 
L 192.222875 24.797143 
L 217.123625 119.575872 
L 242.024375 98.873351 
L 266.925125 283.740394 
L 291.825875 277.432595 
L 316.726625 348.435772 
L 341.627375 239.585798 
L 366.528125 345.52448 
L 391.428875 365.580047 
L 416.329625 371.402631 
L 441.230375 376.74 
L 466.131125 376.74 
L 491.031875 376.74 
L 515.932625 376.74 
L 540.833375 376.74 
" clip-path="url(#p3959ede9b5)" style="fill: none; stroke: #808080; stroke-opacity: 0.3; stroke-width: 1.5; stroke-linecap: square"/>
   </g>
   <g id="line2d_45">
    <path d="M 67.719125 209.058712 
L 92.619875 235.007839 
L 117.520625 243.107234 
L 142.421375 228.189545 
L 167.322125 240.627818 
L 192.222875 219.701527 
L 217.123625 226.868977 
L 242.024375 239.030902 
L 266.925125 257.515148 
L 291.825875 247.346009 
L 316.726625 265.314766 
L 341.627375 239.042502 
L 366.528125 261.407284 
L 391.428875 256.937936 
L 416.329625 279.238766 
L 441.230375 265.920276 
L 466.131125 303.138068 
L 491.031875 296.924752 
L 515.932625 319.120502 
L 540.833375 318.121363 
" clip-path="url(#p3959ede9b5)" style="fill: none; stroke: #000000; stroke-width: 2; stroke-linecap: square"/>
   </g>
   <g id="patch_3">
    <path d="M 55.26875 376.74 
L 55.26875 7.2 
" style="fill: none; stroke: #000000; stroke-width: 1.5; stroke-linejoin: miter; stroke-linecap: square"/>
   </g>
   <g id="patch_4">
    <path d="M 55.26875 376.74 
L 553.28375 376.74 
" style="fill: none; stroke: #000000; stroke-width: 1.5; stroke-linejoin: miter; stroke-linecap: square"/>
   </g>
   <g id="legend_1">
    <g id="patch_5">
     <path d="M 448.119687 29.878125 
L 546.28375 29.878125 
Q 548.28375 29.878125 548.28375 27.878125 
L 548.28375 14.2 
Q 548.28375 12.2 546.28375 12.2 
L 448.119687 12.2 
Q 446.119687 12.2 446.119687 14.2 
L 446.119687 27.878125 
Q 446.119687 29.878125 448.119687 29.878125 
z
" style="fill: #ffffff; opacity: 0.8; stroke: #cccccc; stroke-linejoin: miter"/>
    </g>
    <g id="line2d_46">
     <path d="M 450.119687 20.298438 
L 460.119687 20.298438 
L 470.119687 20.298438 
" style="fill: none; stroke: #000000; stroke-width: 2; stroke-linecap: square"/>
    </g>
    <g id="text_15">
     <!-- Overall Mean -->
     <g transform="translate(478.119687 23.798438) scale(0.1 -0.1)">
      <defs>
       <path id="DejaVuSans-4f" d="M 2522 4238 
Q 1834 4238 1429 3725 
Q 1025 3213 1025 2328 
Q 1025 1447 1429 934 
Q 1834 422 2522 422 
Q 3209 422 3611 934 
Q 4013 1447 4013 2328 
Q 4013 3213 3611 3725 
Q 3209 4238 2522 4238 
z
M 2522 4750 
Q 3503 4750 4090 4092 
Q 4678 3434 4678 2328 
Q 4678 1225 4090 567 
Q 3503 -91 2522 -91 
Q 1538 -91 948 565 
Q 359 1222 359 2328 
Q 359 3434 948 4092 
Q 1538 4750 2522 4750 
z
" transform="scale(0.015625)"/>
       <path id="DejaVuSans-76" d="M 191 3500 
L 800 3500 
L 1894 563 
L 2988 3500 
L 3597 3500 
L 2284 0 
L 1503 0 
L 191 3500 
z
" transform="scale(0.015625)"/>
       <path id="DejaVuSans-4d" d="M 628 4666 
L 1569 4666 
L 2759 1491 
L 3956 4666 
L 4897 4666 
L 4897 0 
L 4281 0 
L 4281 4097 
L 3078 897 
L 2444 897 
L 1241 4097 
L 1241 0 
L 628 0 
L 628 4666 
z
" transform="scale(0.015625)"/>
      </defs>
      <use xlink:href="#DejaVuSans-4f"/>
      <use xlink:href="#DejaVuSans-76" transform="translate(78.710938 0)"/>
      <use xlink:href="#DejaVuSans-65" transform="translate(137.890625 0)"/>
      <use xlink:href="#DejaVuSans-72" transform="translate(199.414062 0)"/>
      <use xlink:href="#DejaVuSans-61" transform="translate(240.527344 0)"/>
      <use xlink:href="#DejaVuSans-6c" transform="translate(301.806641 0)"/>
      <use xlink:href="#DejaVuSans-6c" transform="translate(329.589844 0)"/>
      <use xlink:href="#DejaVuSans-20" transform="translate(357.373047 0)"/>
      <use xlink:href="#DejaVuSans-4d" transform="translate(389.160156 0)"/>
      <use xlink:href="#DejaVuSans-65" transform="translate(475.439453 0)"/>
      <use xlink:href="#DejaVuSans-61" transform="translate(536.962891 0)"/>
      <use xlink:href="#DejaVuSans-6e" transform="translate(598.242188 0)"/>
     </g>
    </g>
   </g>
  </g>
 </g>
 <defs>
  <clipPath id="p3959ede9b5">
   <rect x="55.26875" y="7.2" width="498.015" height="369.54"/>
  </clipPath>
 </defs>
</svg>
