<?xml version="1.0" encoding="utf-8" standalone="no"?>
<!DOCTYPE svg PUBLIC "-//W3C//DTD SVG 1.1//EN"
  "http://www.w3.org/Graphics/SVG/1.1/DTD/svg11.dtd">
<svg xmlns:xlink="http://www.w3.org/1999/xlink" width="567.730625pt" height="424.53875pt" viewBox="0 0 567.730625 424.53875" xmlns="http://www.w3.org/2000/svg" version="1.1">
 <metadata>
  <rdf:RDF xmlns:dc="http://purl.org/dc/elements/1.1/" xmlns:cc="http://creativecommons.org/ns#" xmlns:rdf="http://www.w3.org/1999/02/22-rdf-syntax-ns#">
   <cc:Work>
    <dc:type rdf:resource="http://purl.org/dc/dcmitype/StillImage"/>
    <dc:date>2025-12-01T06:35:13.516838</dc:date>
    <dc:format>image/svg+xml</dc:format>
    <dc:creator>
     <cc:Agent>
      <dc:title>Matplotlib v3.8.4, https://matplotlib.org/</dc:title>
     </cc:Agent>
    </dc:creator>
   </cc:Work>
  </rdf:RDF>
 </metadata>
 <defs>
  <style type="text/css">*{stroke-linejoin: round; stroke-linecap: butt}</style>
 </defs>
 <g id="figure_1">
  <g id="patch_1">
   <path d="M 0 424.53875 
L 567.730625 424.53875 
L 567.730625 0 
L 0 0 
z
" style="fill: #ffffff"/>
  </g>
  <g id="axes_1">
   <g id="patch_2">
    <path d="M 55.26875 376.74 
L 550.98875 376.74 
L 550.98875 7.2 
L 55.26875 7.2 
z
" style="fill: #ffffff"/>
   </g>
   <g id="matplotlib.axis_1">
    <g id="xtick_1">
     <g id="line2d_1">
      <defs>
       <path id="m9241360093" d="M 0 0 
L 0 6 
" style="stroke: #000000; stroke-width: 1.5"/>
      </defs>
      <g>
       <use xlink:href="#m9241360093" x="55.26875" y="376.74" style="stroke: #000000; stroke-width: 1.5"/>
      </g>
     </g>
     <g id="text_1">
      <!-- 0.0 -->
      <g transform="translate(45.726875 395.358125) scale(0.12 -0.12)">
       <defs>
        <path id="DejaVuSans-30" d="M 2034 4250 
Q 1547 4250 1301 3770 
Q 1056 3291 1056 2328 
Q 1056 1369 1301 889 
Q 1547 409 2034 409 
Q 2525 409 2770 889 
Q 3016 1369 3016 2328 
Q 3016 3291 2770 3770 
Q 2525 4250 2034 4250 
z
M 2034 4750 
Q 2819 4750 3233 4129 
Q 3647 3509 3647 2328 
Q 3647 1150 3233 529 
Q 2819 -91 2034 -91 
Q 1250 -91 836 529 
Q 422 1150 422 2328 
Q 422 3509 836 4129 
Q 1250 4750 2034 4750 
z
" transform="scale(0.015625)"/>
        <path id="DejaVuSans-2e" d="M 684 794 
L 1344 794 
L 1344 0 
L 684 0 
L 684 794 
z
" transform="scale(0.015625)"/>
       </defs>
       <use xlink:href="#DejaVuSans-30"/>
       <use xlink:href="#DejaVuSans-2e" x="63.623047"/>
       <use xlink:href="#DejaVuSans-30" x="95.410156"/>
      </g>
     </g>
    </g>
    <g id="xtick_2">
     <g id="line2d_2">
      <g>
       <use xlink:href="#m9241360093" x="154.41275" y="376.74" style="stroke: #000000; stroke-width: 1.5"/>
      </g>
     </g>
     <g id="text_2">
      <!-- 0.2 -->
      <g transform="translate(144.870875 395.358125) scale(0.12 -0.12)">
       <defs>
        <path id="DejaVuSans-32" d="M 1228 531 
L 3431 531 
L 3431 0 
L 469 0 
L 469 531 
Q 828 903 1448 1529 
Q 2069 2156 2228 2338 
Q 2531 2678 2651 2914 
Q 2772 3150 2772 3378 
Q 2772 3750 2511 3984 
Q 2250 4219 1831 4219 
Q 1534 4219 1204 4116 
Q 875 4013 500 3803 
L 500 4441 
Q 881 4594 1212 4672 
Q 1544 4750 1819 4750 
Q 2544 4750 2975 4387 
Q 3406 4025 3406 3419 
Q 3406 3131 3298 2873 
Q 3191 2616 2906 2266 
Q 2828 2175 2409 1742 
Q 1991 1309 1228 531 
z
" transform="scale(0.015625)"/>
       </defs>
       <use xlink:href="#DejaVuSans-30"/>
       <use xlink:href="#DejaVuSans-2e" x="63.623047"/>
       <use xlink:href="#DejaVuSans-32" x="95.410156"/>
      </g>
     </g>
    </g>
    <g id="xtick_3">
     <g id="line2d_3">
      <g>
       <use xlink:href="#m9241360093" x="253.55675" y="376.74" style="stroke: #000000; stroke-width: 1.5"/>
      </g>
     </g>
     <g id="text_3">
      <!-- 0.4 -->
      <g transform="translate(244.014875 395.358125) scale(0.12 -0.12)">
       <defs>
        <path id="DejaVuSans-34" d="M 2419 4116 
L 825 1625 
L 2419 1625 
L 2419 4116 
z
M 2253 4666 
L 3047 4666 
L 3047 1625 
L 3713 1625 
L 3713 1100 
L 3047 1100 
L 3047 0 
L 2419 0 
L 2419 1100 
L 313 1100 
L 313 1709 
L 2253 4666 
z
" transform="scale(0.015625)"/>
       </defs>
       <use xlink:href="#DejaVuSans-30"/>
       <use xlink:href="#DejaVuSans-2e" x="63.623047"/>
       <use xlink:href="#DejaVuSans-34" x="95.410156"/>
      </g>
     </g>
    </g>
    <g id="xtick_4">
     <g id="line2d_4">
      <g>
       <use xlink:href="#m9241360093" x="352.70075" y="376.74" style="stroke: #000000; stroke-width: 1.5"/>
      </g>
     </g>
     <g id="text_4">
      <!-- 0.6 -->
      <g transform="translate(343.158875 395.358125) scale(0.12 -0.12)">
       <defs>
        <path id="DejaVuSans-36" d="M 2113 2584 
Q 1688 2584 1439 2293 
Q 1191 2003 1191 1497 
Q 1191 994 1439 701 
Q 1688 409 2113 409 
Q 2538 409 2786 701 
Q 3034 994 3034 1497 
Q 3034 2003 2786 2293 
Q 2538 2584 2113 2584 
z
M 3366 4563 
L 3366 3988 
Q 3128 4100 2886 4159 
Q 2644 4219 2406 4219 
Q 1781 4219 1451 3797 
Q 1122 3375 1075 2522 
Q 1259 2794 1537 2939 
Q 1816 3084 2150 3084 
Q 2853 3084 3261 2657 
Q 3669 2231 3669 1497 
Q 3669 778 3244 343 
Q 2819 -91 2113 -91 
Q 1303 -91 875 529 
Q 447 1150 447 2328 
Q 447 3434 972 4092 
Q 1497 4750 2381 4750 
Q 2619 4750 2861 4703 
Q 3103 4656 3366 4563 
z
" transform="scale(0.015625)"/>
       </defs>
       <use xlink:href="#DejaVuSans-30"/>
       <use xlink:href="#DejaVuSans-2e" x="63.623047"/>
       <use xlink:href="#DejaVuSans-36" x="95.410156"/>
      </g>
     </g>
    </g>
    <g id="xtick_5">
     <g id="line2d_5">
      <g>
       <use xlink:href="#m9241360093" x="451.84475" y="376.74" style="stroke: #000000; stroke-width: 1.5"/>
      </g>
     </g>
     <g id="text_5">
      <!-- 0.8 -->
      <g transform="translate(442.302875 395.358125) scale(0.12 -0.12)">
       <defs>
        <path id="DejaVuSans-38" d="M 2034 2216 
Q 1584 2216 1326 1975 
Q 1069 1734 1069 1313 
Q 1069 891 1326 650 
Q 1584 409 2034 409 
Q 2484 409 2743 651 
Q 3003 894 3003 1313 
Q 3003 1734 2745 1975 
Q 2488 2216 2034 2216 
z
M 1403 2484 
Q 997 2584 770 2862 
Q 544 3141 544 3541 
Q 544 4100 942 4425 
Q 1341 4750 2034 4750 
Q 2731 4750 3128 4425 
Q 3525 4100 3525 3541 
Q 3525 3141 3298 2862 
Q 3072 2584 2669 2484 
Q 3125 2378 3379 2068 
Q 3634 1759 3634 1313 
Q 3634 634 3220 271 
Q 2806 -91 2034 -91 
Q 1263 -91 848 271 
Q 434 634 434 1313 
Q 434 1759 690 2068 
Q 947 2378 1403 2484 
z
M 1172 3481 
Q 1172 3119 1398 2916 
Q 1625 2713 2034 2713 
Q 2441 2713 2670 2916 
Q 2900 3119 2900 3481 
Q 2900 3844 2670 4047 
Q 2441 4250 2034 4250 
Q 1625 4250 1398 4047 
Q 1172 3844 1172 3481 
z
" transform="scale(0.015625)"/>
       </defs>
       <use xlink:href="#DejaVuSans-30"/>
       <use xlink:href="#DejaVuSans-2e" x="63.623047"/>
       <use xlink:href="#DejaVuSans-38" x="95.410156"/>
      </g>
     </g>
    </g>
    <g id="xtick_6">
     <g id="line2d_6">
      <g>
       <use xlink:href="#m9241360093" x="550.98875" y="376.74" style="stroke: #000000; stroke-width: 1.5"/>
      </g>
     </g>
     <g id="text_6">
      <!-- 1.0 -->
      <g transform="translate(541.446875 395.358125) scale(0.12 -0.12)">
       <defs>
        <path id="DejaVuSans-31" d="M 794 531 
L 1825 531 
L 1825 4091 
L 703 3866 
L 703 4441 
L 1819 4666 
L 2450 4666 
L 2450 531 
L 3481 531 
L 3481 0 
L 794 0 
L 794 531 
z
" transform="scale(0.015625)"/>
       </defs>
       <use xlink:href="#DejaVuSans-31"/>
       <use xlink:href="#DejaVuSans-2e" x="63.623047"/>
       <use xlink:href="#DejaVuSans-30" x="95.410156"/>
      </g>
     </g>
    </g>
    <g id="text_7">
     <!-- Normalized distance from equator -->
     <g transform="translate(166.3275 414.01125) scale(0.16 -0.16)">
      <defs>
       <path id="DejaVuSans-4e" d="M 628 4666 
L 1478 4666 
L 3547 763 
L 3547 4666 
L 4159 4666 
L 4159 0 
L 3309 0 
L 1241 3903 
L 1241 0 
L 628 0 
L 628 4666 
z
" transform="scale(0.015625)"/>
       <path id="DejaVuSans-6f" d="M 1959 3097 
Q 1497 3097 1228 2736 
Q 959 2375 959 1747 
Q 959 1119 1226 758 
Q 1494 397 1959 397 
Q 2419 397 2687 759 
Q 2956 1122 2956 1747 
Q 2956 2369 2687 2733 
Q 2419 3097 1959 3097 
z
M 1959 3584 
Q 2709 3584 3137 3096 
Q 3566 2609 3566 1747 
Q 3566 888 3137 398 
Q 2709 -91 1959 -91 
Q 1206 -91 779 398 
Q 353 888 353 1747 
Q 353 2609 779 3096 
Q 1206 3584 1959 3584 
z
" transform="scale(0.015625)"/>
       <path id="DejaVuSans-72" d="M 2631 2963 
Q 2534 3019 2420 3045 
Q 2306 3072 2169 3072 
Q 1681 3072 1420 2755 
Q 1159 2438 1159 1844 
L 1159 0 
L 581 0 
L 581 3500 
L 1159 3500 
L 1159 2956 
Q 1341 3275 1631 3429 
Q 1922 3584 2338 3584 
Q 2397 3584 2469 3576 
Q 2541 3569 2628 3553 
L 2631 2963 
z
" transform="scale(0.015625)"/>
       <path id="DejaVuSans-6d" d="M 3328 2828 
Q 3544 3216 3844 3400 
Q 4144 3584 4550 3584 
Q 5097 3584 5394 3201 
Q 5691 2819 5691 2113 
L 5691 0 
L 5113 0 
L 5113 2094 
Q 5113 2597 4934 2840 
Q 4756 3084 4391 3084 
Q 3944 3084 3684 2787 
Q 3425 2491 3425 1978 
L 3425 0 
L 2847 0 
L 2847 2094 
Q 2847 2600 2669 2842 
Q 2491 3084 2119 3084 
Q 1678 3084 1418 2786 
Q 1159 2488 1159 1978 
L 1159 0 
L 581 0 
L 581 3500 
L 1159 3500 
L 1159 2956 
Q 1356 3278 1631 3431 
Q 1906 3584 2284 3584 
Q 2666 3584 2933 3390 
Q 3200 3197 3328 2828 
z
" transform="scale(0.015625)"/>
       <path id="DejaVuSans-61" d="M 2194 1759 
Q 1497 1759 1228 1600 
Q 959 1441 959 1056 
Q 959 750 1161 570 
Q 1363 391 1709 391 
Q 2188 391 2477 730 
Q 2766 1069 2766 1631 
L 2766 1759 
L 2194 1759 
z
M 3341 1997 
L 3341 0 
L 2766 0 
L 2766 531 
Q 2569 213 2275 61 
Q 1981 -91 1556 -91 
Q 1019 -91 701 211 
Q 384 513 384 1019 
Q 384 1609 779 1909 
Q 1175 2209 1959 2209 
L 2766 2209 
L 2766 2266 
Q 2766 2663 2505 2880 
Q 2244 3097 1772 3097 
Q 1472 3097 1187 3025 
Q 903 2953 641 2809 
L 641 3341 
Q 956 3463 1253 3523 
Q 1550 3584 1831 3584 
Q 2591 3584 2966 3190 
Q 3341 2797 3341 1997 
z
" transform="scale(0.015625)"/>
       <path id="DejaVuSans-6c" d="M 603 4863 
L 1178 4863 
L 1178 0 
L 603 0 
L 603 4863 
z
" transform="scale(0.015625)"/>
       <path id="DejaVuSans-69" d="M 603 3500 
L 1178 3500 
L 1178 0 
L 603 0 
L 603 3500 
z
M 603 4863 
L 1178 4863 
L 1178 4134 
L 603 4134 
L 603 4863 
z
" transform="scale(0.015625)"/>
       <path id="DejaVuSans-7a" d="M 353 3500 
L 3084 3500 
L 3084 2975 
L 922 459 
L 3084 459 
L 3084 0 
L 275 0 
L 275 525 
L 2438 3041 
L 353 3041 
L 353 3500 
z
" transform="scale(0.015625)"/>
       <path id="DejaVuSans-65" d="M 3597 1894 
L 3597 1613 
L 953 1613 
Q 991 1019 1311 708 
Q 1631 397 2203 397 
Q 2534 397 2845 478 
Q 3156 559 3463 722 
L 3463 178 
Q 3153 47 2828 -22 
Q 2503 -91 2169 -91 
Q 1331 -91 842 396 
Q 353 884 353 1716 
Q 353 2575 817 3079 
Q 1281 3584 2069 3584 
Q 2775 3584 3186 3129 
Q 3597 2675 3597 1894 
z
M 3022 2063 
Q 3016 2534 2758 2815 
Q 2500 3097 2075 3097 
Q 1594 3097 1305 2825 
Q 1016 2553 972 2059 
L 3022 2063 
z
" transform="scale(0.015625)"/>
       <path id="DejaVuSans-64" d="M 2906 2969 
L 2906 4863 
L 3481 4863 
L 3481 0 
L 2906 0 
L 2906 525 
Q 2725 213 2448 61 
Q 2172 -91 1784 -91 
Q 1150 -91 751 415 
Q 353 922 353 1747 
Q 353 2572 751 3078 
Q 1150 3584 1784 3584 
Q 2172 3584 2448 3432 
Q 2725 3281 2906 2969 
z
M 947 1747 
Q 947 1113 1208 752 
Q 1469 391 1925 391 
Q 2381 391 2643 752 
Q 2906 1113 2906 1747 
Q 2906 2381 2643 2742 
Q 2381 3103 1925 3103 
Q 1469 3103 1208 2742 
Q 947 2381 947 1747 
z
" transform="scale(0.015625)"/>
       <path id="DejaVuSans-20" transform="scale(0.015625)"/>
       <path id="DejaVuSans-73" d="M 2834 3397 
L 2834 2853 
Q 2591 2978 2328 3040 
Q 2066 3103 1784 3103 
Q 1356 3103 1142 2972 
Q 928 2841 928 2578 
Q 928 2378 1081 2264 
Q 1234 2150 1697 2047 
L 1894 2003 
Q 2506 1872 2764 1633 
Q 3022 1394 3022 966 
Q 3022 478 2636 193 
Q 2250 -91 1575 -91 
Q 1294 -91 989 -36 
Q 684 19 347 128 
L 347 722 
Q 666 556 975 473 
Q 1284 391 1588 391 
Q 1994 391 2212 530 
Q 2431 669 2431 922 
Q 2431 1156 2273 1281 
Q 2116 1406 1581 1522 
L 1381 1569 
Q 847 1681 609 1914 
Q 372 2147 372 2553 
Q 372 3047 722 3315 
Q 1072 3584 1716 3584 
Q 2034 3584 2315 3537 
Q 2597 3491 2834 3397 
z
" transform="scale(0.015625)"/>
       <path id="DejaVuSans-74" d="M 1172 4494 
L 1172 3500 
L 2356 3500 
L 2356 3053 
L 1172 3053 
L 1172 1153 
Q 1172 725 1289 603 
Q 1406 481 1766 481 
L 2356 481 
L 2356 0 
L 1766 0 
Q 1100 0 847 248 
Q 594 497 594 1153 
L 594 3053 
L 172 3053 
L 172 3500 
L 594 3500 
L 594 4494 
L 1172 4494 
z
" transform="scale(0.015625)"/>
       <path id="DejaVuSans-6e" d="M 3513 2113 
L 3513 0 
L 2938 0 
L 2938 2094 
Q 2938 2591 2744 2837 
Q 2550 3084 2163 3084 
Q 1697 3084 1428 2787 
Q 1159 2491 1159 1978 
L 1159 0 
L 581 0 
L 581 3500 
L 1159 3500 
L 1159 2956 
Q 1366 3272 1645 3428 
Q 1925 3584 2291 3584 
Q 2894 3584 3203 3211 
Q 3513 2838 3513 2113 
z
" transform="scale(0.015625)"/>
       <path id="DejaVuSans-63" d="M 3122 3366 
L 3122 2828 
Q 2878 2963 2633 3030 
Q 2388 3097 2138 3097 
Q 1578 3097 1268 2742 
Q 959 2388 959 1747 
Q 959 1106 1268 751 
Q 1578 397 2138 397 
Q 2388 397 2633 464 
Q 2878 531 3122 666 
L 3122 134 
Q 2881 22 2623 -34 
Q 2366 -91 2075 -91 
Q 1284 -91 818 406 
Q 353 903 353 1747 
Q 353 2603 823 3093 
Q 1294 3584 2113 3584 
Q 2378 3584 2631 3529 
Q 2884 3475 3122 3366 
z
" transform="scale(0.015625)"/>
       <path id="DejaVuSans-66" d="M 2375 4863 
L 2375 4384 
L 1825 4384 
Q 1516 4384 1395 4259 
Q 1275 4134 1275 3809 
L 1275 3500 
L 2222 3500 
L 2222 3053 
L 1275 3053 
L 1275 0 
L 697 0 
L 697 3053 
L 147 3053 
L 147 3500 
L 697 3500 
L 697 3744 
Q 697 4328 969 4595 
Q 1241 4863 1831 4863 
L 2375 4863 
z
" transform="scale(0.015625)"/>
       <path id="DejaVuSans-71" d="M 947 1747 
Q 947 1113 1208 752 
Q 1469 391 1925 391 
Q 2381 391 2643 752 
Q 2906 1113 2906 1747 
Q 2906 2381 2643 2742 
Q 2381 3103 1925 3103 
Q 1469 3103 1208 2742 
Q 947 2381 947 1747 
z
M 2906 525 
Q 2725 213 2448 61 
Q 2172 -91 1784 -91 
Q 1150 -91 751 415 
Q 353 922 353 1747 
Q 353 2572 751 3078 
Q 1150 3584 1784 3584 
Q 2172 3584 2448 3432 
Q 2725 3281 2906 2969 
L 2906 3500 
L 3481 3500 
L 3481 -1331 
L 2906 -1331 
L 2906 525 
z
" transform="scale(0.015625)"/>
       <path id="DejaVuSans-75" d="M 544 1381 
L 544 3500 
L 1119 3500 
L 1119 1403 
Q 1119 906 1312 657 
Q 1506 409 1894 409 
Q 2359 409 2629 706 
Q 2900 1003 2900 1516 
L 2900 3500 
L 3475 3500 
L 3475 0 
L 2900 0 
L 2900 538 
Q 2691 219 2414 64 
Q 2138 -91 1772 -91 
Q 1169 -91 856 284 
Q 544 659 544 1381 
z
M 1991 3584 
L 1991 3584 
z
" transform="scale(0.015625)"/>
      </defs>
      <use xlink:href="#DejaVuSans-4e"/>
      <use xlink:href="#DejaVuSans-6f" x="74.804688"/>
      <use xlink:href="#DejaVuSans-72" x="135.986328"/>
      <use xlink:href="#DejaVuSans-6d" x="175.349609"/>
      <use xlink:href="#DejaVuSans-61" x="272.761719"/>
      <use xlink:href="#DejaVuSans-6c" x="334.041016"/>
      <use xlink:href="#DejaVuSans-69" x="361.824219"/>
      <use xlink:href="#DejaVuSans-7a" x="389.607422"/>
      <use xlink:href="#DejaVuSans-65" x="442.097656"/>
      <use xlink:href="#DejaVuSans-64" x="503.621094"/>
      <use xlink:href="#DejaVuSans-20" x="567.097656"/>
      <use xlink:href="#DejaVuSans-64" x="598.884766"/>
      <use xlink:href="#DejaVuSans-69" x="662.361328"/>
      <use xlink:href="#DejaVuSans-73" x="690.144531"/>
      <use xlink:href="#DejaVuSans-74" x="742.244141"/>
      <use xlink:href="#DejaVuSans-61" x="781.453125"/>
      <use xlink:href="#DejaVuSans-6e" x="842.732422"/>
      <use xlink:href="#DejaVuSans-63" x="906.111328"/>
      <use xlink:href="#DejaVuSans-65" x="961.091797"/>
      <use xlink:href="#DejaVuSans-20" x="1022.615234"/>
      <use xlink:href="#DejaVuSans-66" x="1054.402344"/>
      <use xlink:href="#DejaVuSans-72" x="1089.607422"/>
      <use xlink:href="#DejaVuSans-6f" x="1128.470703"/>
      <use xlink:href="#DejaVuSans-6d" x="1189.652344"/>
      <use xlink:href="#DejaVuSans-20" x="1287.064453"/>
      <use xlink:href="#DejaVuSans-65" x="1318.851562"/>
      <use xlink:href="#DejaVuSans-71" x="1380.375"/>
      <use xlink:href="#DejaVuSans-75" x="1443.851562"/>
      <use xlink:href="#DejaVuSans-61" x="1507.230469"/>
      <use xlink:href="#DejaVuSans-74" x="1568.509766"/>
      <use xlink:href="#DejaVuSans-6f" x="1607.71875"/>
      <use xlink:href="#DejaVuSans-72" x="1668.900391"/>
     </g>
    </g>
   </g>
   <g id="matplotlib.axis_2">
    <g id="ytick_1">
     <g id="line2d_7">
      <defs>
       <path id="m03705a5787" d="M 0 0 
L -6 0 
" style="stroke: #000000; stroke-width: 1.5"/>
      </defs>
      <g>
       <use xlink:href="#m03705a5787" x="55.26875" y="376.74" style="stroke: #000000; stroke-width: 1.5"/>
      </g>
     </g>
     <g id="text_8">
      <!-- 0.0 -->
      <g transform="translate(26.685 381.299062) scale(0.12 -0.12)">
       <use xlink:href="#DejaVuSans-30"/>
       <use xlink:href="#DejaVuSans-2e" x="63.623047"/>
       <use xlink:href="#DejaVuSans-30" x="95.410156"/>
      </g>
     </g>
    </g>
    <g id="ytick_2">
     <g id="line2d_8">
      <g>
       <use xlink:href="#m03705a5787" x="55.26875" y="306.351429" style="stroke: #000000; stroke-width: 1.5"/>
      </g>
     </g>
     <g id="text_9">
      <!-- 0.2 -->
      <g transform="translate(26.685 310.910491) scale(0.12 -0.12)">
       <use xlink:href="#DejaVuSans-30"/>
       <use xlink:href="#DejaVuSans-2e" x="63.623047"/>
       <use xlink:href="#DejaVuSans-32" x="95.410156"/>
      </g>
     </g>
    </g>
    <g id="ytick_3">
     <g id="line2d_9">
      <g>
       <use xlink:href="#m03705a5787" x="55.26875" y="235.962857" style="stroke: #000000; stroke-width: 1.5"/>
      </g>
     </g>
     <g id="text_10">
      <!-- 0.4 -->
      <g transform="translate(26.685 240.52192) scale(0.12 -0.12)">
       <use xlink:href="#DejaVuSans-30"/>
       <use xlink:href="#DejaVuSans-2e" x="63.623047"/>
       <use xlink:href="#DejaVuSans-34" x="95.410156"/>
      </g>
     </g>
    </g>
    <g id="ytick_4">
     <g id="line2d_10">
      <g>
       <use xlink:href="#m03705a5787" x="55.26875" y="165.574286" style="stroke: #000000; stroke-width: 1.5"/>
      </g>
     </g>
     <g id="text_11">
      <!-- 0.6 -->
      <g transform="translate(26.685 170.133348) scale(0.12 -0.12)">
       <use xlink:href="#DejaVuSans-30"/>
       <use xlink:href="#DejaVuSans-2e" x="63.623047"/>
       <use xlink:href="#DejaVuSans-36" x="95.410156"/>
      </g>
     </g>
    </g>
    <g id="ytick_5">
     <g id="line2d_11">
      <g>
       <use xlink:href="#m03705a5787" x="55.26875" y="95.185714" style="stroke: #000000; stroke-width: 1.5"/>
      </g>
     </g>
     <g id="text_12">
      <!-- 0.8 -->
      <g transform="translate(26.685 99.744777) scale(0.12 -0.12)">
       <use xlink:href="#DejaVuSans-30"/>
       <use xlink:href="#DejaVuSans-2e" x="63.623047"/>
       <use xlink:href="#DejaVuSans-38" x="95.410156"/>
      </g>
     </g>
    </g>
    <g id="ytick_6">
     <g id="line2d_12">
      <g>
       <use xlink:href="#m03705a5787" x="55.26875" y="24.797143" style="stroke: #000000; stroke-width: 1.5"/>
      </g>
     </g>
     <g id="text_13">
      <!-- 1.0 -->
      <g transform="translate(26.685 29.356205) scale(0.12 -0.12)">
       <use xlink:href="#DejaVuSans-31"/>
       <use xlink:href="#DejaVuSans-2e" x="63.623047"/>
       <use xlink:href="#DejaVuSans-30" x="95.410156"/>
      </g>
     </g>
    </g>
    <g id="text_14">
     <!-- Peak-Normalized intensity -->
     <g transform="translate(19.3575 296.44125) rotate(-90) scale(0.16 -0.16)">
      <defs>
       <path id="DejaVuSans-50" d="M 1259 4147 
L 1259 2394 
L 2053 2394 
Q 2494 2394 2734 2622 
Q 2975 2850 2975 3272 
Q 2975 3691 2734 3919 
Q 2494 4147 2053 4147 
L 1259 4147 
z
M 628 4666 
L 2053 4666 
Q 2838 4666 3239 4311 
Q 3641 3956 3641 3272 
Q 3641 2581 3239 2228 
Q 2838 1875 2053 1875 
L 1259 1875 
L 1259 0 
L 628 0 
L 628 4666 
z
" transform="scale(0.015625)"/>
       <path id="DejaVuSans-6b" d="M 581 4863 
L 1159 4863 
L 1159 1991 
L 2875 3500 
L 3609 3500 
L 1753 1863 
L 3688 0 
L 2938 0 
L 1159 1709 
L 1159 0 
L 581 0 
L 581 4863 
z
" transform="scale(0.015625)"/>
       <path id="DejaVuSans-2d" d="M 313 2009 
L 1997 2009 
L 1997 1497 
L 313 1497 
L 313 2009 
z
" transform="scale(0.015625)"/>
       <path id="DejaVuSans-79" d="M 2059 -325 
Q 1816 -950 1584 -1140 
Q 1353 -1331 966 -1331 
L 506 -1331 
L 506 -850 
L 844 -850 
Q 1081 -850 1212 -737 
Q 1344 -625 1503 -206 
L 1606 56 
L 191 3500 
L 800 3500 
L 1894 763 
L 2988 3500 
L 3597 3500 
L 2059 -325 
z
" transform="scale(0.015625)"/>
      </defs>
      <use xlink:href="#DejaVuSans-50"/>
      <use xlink:href="#DejaVuSans-65" x="56.677734"/>
      <use xlink:href="#DejaVuSans-61" x="118.201172"/>
      <use xlink:href="#DejaVuSans-6b" x="179.480469"/>
      <use xlink:href="#DejaVuSans-2d" x="237.390625"/>
      <use xlink:href="#DejaVuSans-4e" x="273.474609"/>
      <use xlink:href="#DejaVuSans-6f" x="348.279297"/>
      <use xlink:href="#DejaVuSans-72" x="409.460938"/>
      <use xlink:href="#DejaVuSans-6d" x="448.824219"/>
      <use xlink:href="#DejaVuSans-61" x="546.236328"/>
      <use xlink:href="#DejaVuSans-6c" x="607.515625"/>
      <use xlink:href="#DejaVuSans-69" x="635.298828"/>
      <use xlink:href="#DejaVuSans-7a" x="663.082031"/>
      <use xlink:href="#DejaVuSans-65" x="715.572266"/>
      <use xlink:href="#DejaVuSans-64" x="777.095703"/>
      <use xlink:href="#DejaVuSans-20" x="840.572266"/>
      <use xlink:href="#DejaVuSans-69" x="872.359375"/>
      <use xlink:href="#DejaVuSans-6e" x="900.142578"/>
      <use xlink:href="#DejaVuSans-74" x="963.521484"/>
      <use xlink:href="#DejaVuSans-65" x="1002.730469"/>
      <use xlink:href="#DejaVuSans-6e" x="1064.253906"/>
      <use xlink:href="#DejaVuSans-73" x="1127.632812"/>
      <use xlink:href="#DejaVuSans-69" x="1179.732422"/>
      <use xlink:href="#DejaVuSans-74" x="1207.515625"/>
      <use xlink:href="#DejaVuSans-79" x="1246.724609"/>
     </g>
    </g>
   </g>
   <g id="line2d_13">
    <path d="M 67.66175 369.043437 
L 92.44775 363.585873 
L 117.23375 358.548123 
L 142.01975 357.148748 
L 166.80575 369.043437 
L 191.59175 353.510372 
L 216.37775 362.886186 
L 241.16375 342.875121 
L 265.94975 352.530809 
L 290.73575 304.252366 
L 315.52175 314.467805 
L 340.30775 215.811855 
L 365.09375 253.175172 
L 389.87975 70.276836 
L 414.66575 202.657728 
L 439.45175 24.797143 
L 464.23775 246.738046 
L 489.02375 156.058535 
L 513.80975 268.708236 
L 538.59575 263.530548 
" clip-path="url(#pf2dfb4eafe)" style="fill: none; stroke: #808080; stroke-opacity: 0.3; stroke-width: 1.5; stroke-linecap: square"/>
   </g>
   <g id="line2d_14">
    <path d="M 67.66175 238.017998 
L 92.44775 173.794849 
L 117.23375 271.414035 
L 142.01975 140.398811 
L 166.80575 294.534369 
L 191.59175 101.864922 
L 216.37775 263.707258 
L 241.16375 207.190886 
L 265.94975 258.569406 
L 290.73575 122.41633 
L 315.52175 266.276184 
L 340.30775 50.486403 
L 365.09375 227.742294 
L 389.87975 181.501627 
L 414.66575 191.777331 
L 439.45175 24.797143 
L 464.23775 291.965443 
L 489.02375 243.15585 
L 513.80975 335.637185 
L 538.59575 330.499333 
" clip-path="url(#pf2dfb4eafe)" style="fill: none; stroke: #808080; stroke-opacity: 0.3; stroke-width: 1.5; stroke-linecap: square"/>
   </g>
   <g id="line2d_15">
    <path d="M 67.66175 24.797143 
L 92.44775 90.808851 
L 117.23375 192.696488 
L 142.01975 250.097973 
L 166.80575 342.299109 
L 191.59175 366.69474 
L 216.37775 343.375387 
L 241.16375 340.505312 
L 265.94975 356.64948 
L 290.73575 366.335981 
L 315.52175 355.931962 
L 340.30775 359.878314 
L 365.09375 332.253849 
L 389.87975 315.392163 
L 414.66575 244.716584 
L 439.45175 234.312564 
L 464.23775 175.476042 
L 489.02375 219.603434 
L 513.80975 299.606754 
L 538.59575 332.612608 
" clip-path="url(#pf2dfb4eafe)" style="fill: none; stroke: #808080; stroke-opacity: 0.3; stroke-width: 1.5; stroke-linecap: square"/>
   </g>
   <g id="line2d_16">
    <path d="M 67.66175 333.664207 
L 92.44775 350.642986 
L 117.23375 336.494003 
L 142.01975 277.277888 
L 166.80575 198.358004 
L 191.59175 79.29693 
L 216.37775 24.797143 
L 241.16375 156.85432 
L 265.94975 292.055715 
L 290.73575 327.794999 
L 315.52175 369.508297 
L 340.30775 366.468886 
L 365.09375 370.346756 
L 389.87975 334.921894 
L 414.66575 369.298683 
L 439.45175 365.840043 
L 464.23775 351.900674 
L 489.02375 360.809293 
L 513.80975 363.324668 
L 538.59575 368.25061 
" clip-path="url(#pf2dfb4eafe)" style="fill: none; stroke: #808080; stroke-opacity: 0.3; stroke-width: 1.5; stroke-linecap: square"/>
   </g>
   <g id="line2d_17">
    <path d="M 67.66175 66.605668 
L 92.44775 156.918615 
L 117.23375 146.956427 
L 142.01975 99.105264 
L 166.80575 88.653132 
L 191.59175 128.501883 
L 216.37775 24.797143 
L 241.16375 114.78346 
L 265.94975 123.929075 
L 290.73575 152.999065 
L 315.52175 152.182493 
L 340.30775 185.172032 
L 365.09375 193.01113 
L 389.87975 159.205018 
L 414.66575 238.902519 
L 439.45175 229.59359 
L 464.23775 250.171223 
L 489.02375 253.600829 
L 513.80975 286.427053 
L 538.59575 271.892058 
" clip-path="url(#pf2dfb4eafe)" style="fill: none; stroke: #808080; stroke-opacity: 0.3; stroke-width: 1.5; stroke-linecap: square"/>
   </g>
   <g id="line2d_18">
    <path d="M 67.66175 252.759124 
L 92.44775 263.643955 
L 117.23375 213.202057 
L 142.01975 169.57424 
L 166.80575 145.857698 
L 191.59175 132.49502 
L 216.37775 24.797143 
L 241.16375 154.176187 
L 265.94975 142.848883 
L 290.73575 149.839953 
L 315.52175 170.901658 
L 340.30775 167.184887 
L 365.09375 152.229306 
L 389.87975 91.34505 
L 414.66575 224.52936 
L 439.45175 240.63537 
L 464.23775 267.360726 
L 489.02375 276.741149 
L 513.80975 309.661125 
L 538.59575 307.62575 
" clip-path="url(#pf2dfb4eafe)" style="fill: none; stroke: #808080; stroke-opacity: 0.3; stroke-width: 1.5; stroke-linecap: square"/>
   </g>
   <g id="line2d_19">
    <path d="M 67.66175 357.315651 
L 92.44775 372.789285 
L 117.23375 372.789285 
L 142.01975 327.685289 
L 166.80575 288.507366 
L 191.59175 311.88243 
L 216.37775 243.40337 
L 241.16375 300.359511 
L 265.94975 215.748366 
L 290.73575 24.797143 
L 315.52175 76.485664 
L 340.30775 55.415184 
L 365.09375 238.13575 
L 389.87975 278.630579 
L 414.66575 280.605936 
L 439.45175 358.632556 
L 464.23775 342.829697 
L 489.02375 312.870108 
L 513.80975 234.843488 
L 538.59575 222.332891 
" clip-path="url(#pf2dfb4eafe)" style="fill: none; stroke: #808080; stroke-opacity: 0.3; stroke-width: 1.5; stroke-linecap: square"/>
   </g>
   <g id="line2d_20">
    <path d="M 67.66175 372.363242 
L 92.44775 374.165436 
L 117.23375 371.204688 
L 142.01975 373.650524 
L 166.80575 342.755759 
L 191.59175 344.81541 
L 216.37775 309.801344 
L 241.16375 342.240846 
L 265.94975 343.528128 
L 290.73575 349.964538 
L 315.52175 355.628578 
L 340.30775 365.669376 
L 365.09375 358.460598 
L 389.87975 365.540648 
L 414.66575 367.085386 
L 439.45175 351.380548 
L 464.23775 261.14209 
L 489.02375 155.070066 
L 513.80975 147.346375 
L 538.59575 24.797143 
" clip-path="url(#pf2dfb4eafe)" style="fill: none; stroke: #808080; stroke-opacity: 0.3; stroke-width: 1.5; stroke-linecap: square"/>
   </g>
   <g id="line2d_21">
    <path d="M 67.66175 336.809808 
L 92.44775 242.091677 
L 117.23375 190.089567 
L 142.01975 267.164124 
L 166.80575 182.660694 
L 191.59175 222.590886 
L 216.37775 24.797143 
L 241.16375 92.585609 
L 265.94975 74.942035 
L 290.73575 36.869061 
L 315.52175 126.015537 
L 340.30775 207.73314 
L 365.09375 184.517912 
L 389.87975 182.660694 
L 414.66575 243.020286 
L 439.45175 274.592997 
L 464.23775 304.308489 
L 489.02375 298.736834 
L 513.80975 361.882254 
L 538.59575 368.382518 
" clip-path="url(#pf2dfb4eafe)" style="fill: none; stroke: #808080; stroke-opacity: 0.3; stroke-width: 1.5; stroke-linecap: square"/>
   </g>
   <g id="line2d_22">
    <path d="M 67.66175 369.919791 
L 92.44775 370.220682 
L 117.23375 363.901959 
L 142.01975 274.236267 
L 166.80575 135.02376 
L 191.59175 24.797143 
L 216.37775 65.016318 
L 241.16375 54.685707 
L 265.94975 68.025234 
L 290.73575 95.205774 
L 315.52175 83.370705 
L 340.30775 132.917519 
L 365.09375 192.393756 
L 389.87975 334.715475 
L 414.66575 364.202851 
L 439.45175 374.132273 
L 464.23775 370.722168 
L 489.02375 366.309092 
L 513.80975 365.907903 
L 538.59575 367.011172 
" clip-path="url(#pf2dfb4eafe)" style="fill: none; stroke: #808080; stroke-opacity: 0.3; stroke-width: 1.5; stroke-linecap: square"/>
   </g>
   <g id="line2d_23">
    <path d="M 67.66175 286.133813 
L 92.44775 297.68166 
L 117.23375 229.54936 
L 142.01975 157.24207 
L 166.80575 143.562312 
L 191.59175 24.797143 
L 216.37775 83.602335 
L 241.16375 265.258858 
L 265.94975 337.21083 
L 290.73575 350.091121 
L 315.52175 316.780023 
L 340.30775 205.298881 
L 365.09375 152.001124 
L 389.87975 269.966826 
L 414.66575 306.298131 
L 439.45175 355.865045 
L 464.23775 360.217695 
L 489.02375 366.968745 
L 513.80975 374.963408 
L 538.59575 376.295852 
" clip-path="url(#pf2dfb4eafe)" style="fill: none; stroke: #808080; stroke-opacity: 0.3; stroke-width: 1.5; stroke-linecap: square"/>
   </g>
   <g id="line2d_24">
    <path d="M 67.66175 24.797143 
L 92.44775 300.349302 
L 117.23375 350.821728 
L 142.01975 361.052625 
L 166.80575 369.919402 
L 191.59175 364.462924 
L 216.37775 355.596146 
L 241.16375 344.00113 
L 265.94975 355.596146 
L 290.73575 369.237342 
L 315.52175 367.873223 
L 340.30775 370.601462 
L 365.09375 361.734684 
L 389.87975 367.191163 
L 414.66575 364.462924 
L 439.45175 364.462924 
L 464.23775 369.919402 
L 489.02375 369.237342 
L 513.80975 373.329701 
L 538.59575 368.555282 
" clip-path="url(#pf2dfb4eafe)" style="fill: none; stroke: #808080; stroke-opacity: 0.3; stroke-width: 1.5; stroke-linecap: square"/>
   </g>
   <g id="line2d_25">
    <path d="M 67.66175 224.099615 
L 92.44775 111.229337 
L 117.23375 103.320509 
L 142.01975 24.797143 
L 166.80575 168.059917 
L 191.59175 208.394942 
L 216.37775 301.380165 
L 241.16375 296.069952 
L 265.94975 344.426787 
L 290.73575 357.758812 
L 315.52175 365.780624 
L 340.30775 365.102724 
L 365.09375 357.306879 
L 389.87975 365.66764 
L 414.66575 350.640867 
L 439.45175 341.376239 
L 464.23775 352.448599 
L 489.02375 345.21767 
L 513.80975 364.763774 
L 538.59575 367.814322 
" clip-path="url(#pf2dfb4eafe)" style="fill: none; stroke: #808080; stroke-opacity: 0.3; stroke-width: 1.5; stroke-linecap: square"/>
   </g>
   <g id="line2d_26">
    <path d="M 67.66175 24.797143 
L 92.44775 325.72443 
L 117.23375 325.078663 
L 142.01975 323.141363 
L 166.80575 366.407733 
L 191.59175 363.824666 
L 216.37775 347.034731 
L 241.16375 347.680498 
L 265.94975 274.70886 
L 290.73575 310.226029 
L 315.52175 231.44249 
L 340.30775 197.216855 
L 365.09375 320.558296 
L 389.87975 263.085059 
L 414.66575 317.329463 
L 439.45175 337.993997 
L 464.23775 352.200865 
L 489.02375 352.200865 
L 513.80975 336.056697 
L 538.59575 361.241599 
" clip-path="url(#pf2dfb4eafe)" style="fill: none; stroke: #808080; stroke-opacity: 0.3; stroke-width: 1.5; stroke-linecap: square"/>
   </g>
   <g id="line2d_27">
    <path d="M 67.66175 24.797143 
L 92.44775 129.477582 
L 117.23375 175.935376 
L 142.01975 167.512812 
L 166.80575 288.369923 
L 191.59175 295.923492 
L 216.37775 259.425714 
L 241.16375 286.297705 
L 265.94975 271.12372 
L 290.73575 224.264851 
L 315.52175 289.840529 
L 340.30775 295.188189 
L 365.09375 300.66954 
L 389.87975 286.698779 
L 414.66575 316.445136 
L 439.45175 319.252658 
L 464.23775 308.624184 
L 489.02375 333.35711 
L 513.80975 331.218046 
L 538.59575 364.373537 
" clip-path="url(#pf2dfb4eafe)" style="fill: none; stroke: #808080; stroke-opacity: 0.3; stroke-width: 1.5; stroke-linecap: square"/>
   </g>
   <g id="line2d_28">
    <path d="M 67.66175 24.797143 
L 92.44775 108.567158 
L 117.23375 191.68442 
L 142.01975 236.506818 
L 166.80575 329.632965 
L 191.59175 321.364756 
L 216.37775 297.321674 
L 241.16375 331.80881 
L 265.94975 351.391411 
L 290.73575 350.629865 
L 315.52175 334.202239 
L 340.30775 333.223109 
L 365.09375 319.732873 
L 389.87975 278.60941 
L 414.66575 272.081877 
L 439.45175 258.918017 
L 464.23775 226.82431 
L 489.02375 294.166699 
L 513.80975 327.457121 
L 538.59575 297.321674 
" clip-path="url(#pf2dfb4eafe)" style="fill: none; stroke: #808080; stroke-opacity: 0.3; stroke-width: 1.5; stroke-linecap: square"/>
   </g>
   <g id="line2d_29">
    <path d="M 67.66175 106.577954 
L 92.44775 24.797143 
L 117.23375 149.646177 
L 142.01975 164.252576 
L 166.80575 303.445168 
L 191.59175 307.387769 
L 216.37775 320.679967 
L 241.16375 279.30143 
L 265.94975 296.348486 
L 290.73575 264.432192 
L 315.52175 306.148666 
L 340.30775 320.266933 
L 365.09375 357.026995 
L 389.87975 370.093901 
L 414.66575 373.02269 
L 439.45175 371.70849 
L 464.23775 374.261794 
L 489.02375 372.046427 
L 513.80975 374.937668 
L 538.59575 374.975217 
" clip-path="url(#pf2dfb4eafe)" style="fill: none; stroke: #808080; stroke-opacity: 0.3; stroke-width: 1.5; stroke-linecap: square"/>
   </g>
   <g id="line2d_30">
    <path d="M 67.66175 24.797143 
L 92.44775 130.48829 
L 117.23375 316.259974 
L 142.01975 347.988976 
L 166.80575 368.509952 
L 191.59175 372.24596 
L 216.37775 372.462541 
L 241.16375 356.381459 
L 265.94975 349.126022 
L 290.73575 294.277081 
L 315.52175 301.586664 
L 340.30775 288.591851 
L 365.09375 341.708149 
L 389.87975 355.190268 
L 414.66575 362.17498 
L 439.45175 360.009178 
L 464.23775 368.672387 
L 489.02375 366.77731 
L 513.80975 370.892334 
L 538.59575 373.166426 
" clip-path="url(#pf2dfb4eafe)" style="fill: none; stroke: #808080; stroke-opacity: 0.3; stroke-width: 1.5; stroke-linecap: square"/>
   </g>
   <g id="line2d_31">
    <path d="M 67.66175 337.259231 
L 92.44775 323.34696 
L 117.23375 353.239542 
L 142.01975 257.733681 
L 166.80575 186.480293 
L 191.59175 24.797143 
L 216.37775 125.191099 
L 241.16375 47.73359 
L 265.94975 140.231392 
L 290.73575 299.846502 
L 315.52175 343.463352 
L 340.30775 291.574341 
L 365.09375 187.044304 
L 389.87975 212.98881 
L 414.66575 312.06674 
L 439.45175 345.907399 
L 464.23775 362.263718 
L 489.02375 352.299524 
L 513.80975 339.327271 
L 538.59575 353.051538 
" clip-path="url(#pf2dfb4eafe)" style="fill: none; stroke: #808080; stroke-opacity: 0.3; stroke-width: 1.5; stroke-linecap: square"/>
   </g>
   <g id="line2d_32">
    <path d="M 67.66175 328.923588 
L 92.44775 265.051175 
L 117.23375 289.545366 
L 142.01975 243.48691 
L 166.80575 204.108688 
L 191.59175 93.474637 
L 216.37775 107.186696 
L 241.16375 24.797143 
L 265.94975 142.111429 
L 290.73575 236.806676 
L 315.52175 352.480203 
L 340.30775 364.082714 
L 365.09375 352.245808 
L 389.87975 324.00131 
L 414.66575 280.052402 
L 439.45175 297.631965 
L 464.23775 304.312199 
L 489.02375 354.472553 
L 513.80975 362.207561 
L 538.59575 363.027941 
" clip-path="url(#pf2dfb4eafe)" style="fill: none; stroke: #808080; stroke-opacity: 0.3; stroke-width: 1.5; stroke-linecap: square"/>
   </g>
   <g id="line2d_33">
    <path d="M 67.66175 247.511553 
L 92.44775 153.733218 
L 117.23375 210.161024 
L 142.01975 24.797143 
L 166.80575 117.113618 
L 191.59175 180.704539 
L 216.37775 304.231731 
L 241.16375 334.199866 
L 265.94975 332.445634 
L 290.73575 307.228545 
L 315.52175 334.857704 
L 340.30775 288.370547 
L 365.09375 309.713707 
L 389.87975 251.166204 
L 414.66575 285.593013 
L 439.45175 223.390859 
L 464.23775 285.154455 
L 489.02375 282.888571 
L 513.80975 291.148082 
L 538.59575 329.083356 
" clip-path="url(#pf2dfb4eafe)" style="fill: none; stroke: #808080; stroke-opacity: 0.3; stroke-width: 1.5; stroke-linecap: square"/>
   </g>
   <g id="line2d_34">
    <path d="M 67.66175 107.863114 
L 92.44775 25.00429 
L 117.23375 119.049056 
L 142.01975 24.797143 
L 166.80575 166.485733 
L 191.59175 180.571733 
L 216.37775 247.06594 
L 241.16375 293.052587 
L 265.94975 259.080469 
L 290.73575 120.291938 
L 315.52175 200.457851 
L 340.30775 75.133879 
L 365.09375 131.892174 
L 389.87975 121.949115 
L 414.66575 221.379704 
L 439.45175 98.541497 
L 464.23775 225.315498 
L 489.02375 151.15685 
L 513.80975 260.323352 
L 538.59575 301.131323 
" clip-path="url(#pf2dfb4eafe)" style="fill: none; stroke: #808080; stroke-opacity: 0.3; stroke-width: 1.5; stroke-linecap: square"/>
   </g>
   <g id="line2d_35">
    <path d="M 67.66175 367.485304 
L 92.44775 367.044604 
L 117.23375 370.922763 
L 142.01975 372.156722 
L 166.80575 361.315507 
L 191.59175 347.477534 
L 216.37775 322.798345 
L 241.16375 279.521625 
L 265.94975 225.84439 
L 290.73575 33.963699 
L 315.52175 129.948114 
L 340.30775 146.694706 
L 365.09375 24.797143 
L 389.87975 145.637027 
L 414.66575 165.380378 
L 439.45175 177.102992 
L 464.23775 164.146418 
L 489.02375 329.937682 
L 513.80975 347.036834 
L 538.59575 333.90398 
" clip-path="url(#pf2dfb4eafe)" style="fill: none; stroke: #808080; stroke-opacity: 0.3; stroke-width: 1.5; stroke-linecap: square"/>
   </g>
   <g id="line2d_36">
    <path d="M 67.66175 276.297881 
L 92.44775 286.579358 
L 117.23375 356.967929 
L 142.01975 341.150273 
L 166.80575 356.177047 
L 191.59175 238.335506 
L 216.37775 331.659679 
L 241.16375 334.032327 
L 265.94975 314.260257 
L 290.73575 254.153162 
L 315.52175 183.764591 
L 340.30775 91.2313 
L 365.09375 24.797143 
L 389.87975 218.563435 
L 414.66575 258.107576 
L 439.45175 280.252295 
L 464.23775 335.614093 
L 489.02375 357.758812 
L 513.80975 321.378202 
L 538.59575 256.525811 
" clip-path="url(#pf2dfb4eafe)" style="fill: none; stroke: #808080; stroke-opacity: 0.3; stroke-width: 1.5; stroke-linecap: square"/>
   </g>
   <g id="line2d_37">
    <path d="M 67.66175 107.767584 
L 92.44775 179.274544 
L 117.23375 24.797143 
L 142.01975 153.062315 
L 166.80575 100.498059 
L 191.59175 198.357046 
L 216.37775 313.341356 
L 241.16375 302.506968 
L 265.94975 333.472348 
L 290.73575 341.93016 
L 315.52175 315.368435 
L 340.30775 343.817441 
L 365.09375 360.593267 
L 389.87975 334.870333 
L 414.66575 344.097038 
L 439.45175 326.762017 
L 464.23775 315.228637 
L 489.02375 342.629153 
L 513.80975 343.188347 
L 538.59575 351.785958 
" clip-path="url(#pf2dfb4eafe)" style="fill: none; stroke: #808080; stroke-opacity: 0.3; stroke-width: 1.5; stroke-linecap: square"/>
   </g>
   <g id="line2d_38">
    <path d="M 67.66175 24.797143 
L 92.44775 280.329198 
L 117.23375 280.329198 
L 142.01975 333.485424 
L 166.80575 309.339295 
L 191.59175 165.5048 
L 216.37775 250.103108 
L 241.16375 257.225348 
L 265.94975 277.028648 
L 290.73575 294.399963 
L 315.52175 208.238237 
L 340.30775 263.479021 
L 365.09375 251.492813 
L 389.87975 219.877019 
L 414.66575 237.422048 
L 439.45175 67.878006 
L 464.23775 228.910103 
L 489.02375 283.977174 
L 513.80975 310.902713 
L 538.59575 319.935797 
" clip-path="url(#pf2dfb4eafe)" style="fill: none; stroke: #808080; stroke-opacity: 0.3; stroke-width: 1.5; stroke-linecap: square"/>
   </g>
   <g id="line2d_39">
    <path d="M 67.66175 61.456383 
L 92.44775 57.068597 
L 117.23375 33.006548 
L 142.01975 24.797143 
L 166.80575 141.144229 
L 191.59175 54.803934 
L 216.37775 97.690998 
L 241.16375 140.648833 
L 265.94975 271.928544 
L 290.73575 276.811724 
L 315.52175 325.926613 
L 340.30775 342.911589 
L 365.09375 366.690556 
L 389.87975 370.9368 
L 414.66575 365.982849 
L 439.45175 359.755024 
L 464.23775 365.20437 
L 489.02375 359.40117 
L 513.80975 363.647414 
L 538.59575 374.475337 
" clip-path="url(#pf2dfb4eafe)" style="fill: none; stroke: #808080; stroke-opacity: 0.3; stroke-width: 1.5; stroke-linecap: square"/>
   </g>
   <g id="line2d_40">
    <path d="M 67.66175 134.582936 
L 92.44775 24.797143 
L 117.23375 75.402195 
L 142.01975 189.00884 
L 166.80575 110.554027 
L 191.59175 154.96081 
L 216.37775 159.545831 
L 241.16375 117.261744 
L 265.94975 192.914599 
L 290.73575 117.091928 
L 315.52175 135.856554 
L 340.30775 98.751842 
L 365.09375 209.301806 
L 389.87975 160.39491 
L 414.66575 234.179793 
L 439.45175 258.123795 
L 464.23775 315.521472 
L 489.02375 284.61503 
L 513.80975 294.549243 
L 538.59575 299.304081 
" clip-path="url(#pf2dfb4eafe)" style="fill: none; stroke: #808080; stroke-opacity: 0.3; stroke-width: 1.5; stroke-linecap: square"/>
   </g>
   <g id="line2d_41">
    <path d="M 67.66175 357.239561 
L 92.44775 369.661073 
L 117.23375 333.331488 
L 142.01975 336.002781 
L 166.80575 335.201393 
L 191.59175 367.123345 
L 216.37775 349.359246 
L 241.16375 338.006251 
L 265.94975 327.588208 
L 290.73575 348.290729 
L 315.52175 329.858807 
L 340.30775 338.27338 
L 365.09375 329.057419 
L 389.87975 253.726956 
L 414.66575 24.797143 
L 439.45175 133.385205 
L 464.23775 238.500586 
L 489.02375 55.650577 
L 513.80975 129.912524 
L 538.59575 192.020087 
" clip-path="url(#pf2dfb4eafe)" style="fill: none; stroke: #808080; stroke-opacity: 0.3; stroke-width: 1.5; stroke-linecap: square"/>
   </g>
   <g id="line2d_42">
    <path d="M 67.66175 330.83441 
L 92.44775 360.213988 
L 117.23375 321.041217 
L 142.01975 306.963503 
L 166.80575 308.187652 
L 191.59175 342.463826 
L 216.37775 270.239031 
L 241.16375 197.402161 
L 265.94975 232.902484 
L 290.73575 286.152969 
L 315.52175 191.893491 
L 340.30775 43.159379 
L 365.09375 155.169019 
L 389.87975 24.797143 
L 414.66575 125.177366 
L 439.45175 48.66805 
L 464.23775 246.980199 
L 489.02375 172.307106 
L 513.80975 267.790733 
L 538.59575 211.479876 
" clip-path="url(#pf2dfb4eafe)" style="fill: none; stroke: #808080; stroke-opacity: 0.3; stroke-width: 1.5; stroke-linecap: square"/>
   </g>
   <g id="line2d_43">
    <path d="M 67.66175 195.552027 
L 92.44775 297.100757 
L 117.23375 24.797143 
L 142.01975 218.852592 
L 166.80575 155.558521 
L 191.59175 332.225488 
L 216.37775 236.936612 
L 241.16375 270.670265 
L 265.94975 98.176533 
L 290.73575 269.279187 
L 315.52175 305.099458 
L 340.30775 240.066539 
L 365.09375 303.708379 
L 389.87975 346.831813 
L 414.66575 320.749091 
L 439.45175 327.008944 
L 464.23775 360.742597 
L 489.02375 354.830514 
L 513.80975 376.74 
L 538.59575 376.74 
" clip-path="url(#pf2dfb4eafe)" style="fill: none; stroke: #808080; stroke-opacity: 0.3; stroke-width: 1.5; stroke-linecap: square"/>
   </g>
   <g id="line2d_44">
    <path d="M 67.66175 350.214895 
L 92.44775 344.068834 
L 117.23375 327.248036 
L 142.01975 156.937453 
L 166.80575 122.325425 
L 191.59175 24.797143 
L 216.37775 119.575872 
L 241.16375 98.873351 
L 265.94975 283.740394 
L 290.73575 277.432595 
L 315.52175 348.435772 
L 340.30775 239.585798 
L 365.09375 345.52448 
L 389.87975 365.580047 
L 414.66575 371.402631 
L 439.45175 376.74 
L 464.23775 376.74 
L 489.02375 376.74 
L 513.80975 376.74 
L 538.59575 376.74 
" clip-path="url(#pf2dfb4eafe)" style="fill: none; stroke: #808080; stroke-opacity: 0.3; stroke-width: 1.5; stroke-linecap: square"/>
   </g>
   <g id="line2d_45">
    <path d="M 67.66175 209.058712 
L 92.44775 235.007839 
L 117.23375 243.107234 
L 142.01975 228.189545 
L 166.80575 240.627818 
L 191.59175 219.701527 
L 216.37775 226.868977 
L 241.16375 239.030902 
L 265.94975 257.515148 
L 290.73575 247.346009 
L 315.52175 265.314766 
L 340.30775 239.042502 
L 365.09375 261.407284 
L 389.87975 256.937936 
L 414.66575 279.238766 
L 439.45175 265.920276 
L 464.23775 303.138068 
L 489.02375 296.924752 
L 513.80975 319.120502 
L 538.59575 318.121363 
" clip-path="url(#pf2dfb4eafe)" style="fill: none; stroke: #000000; stroke-width: 2; stroke-linecap: square"/>
   </g>
   <g id="patch_3">
    <path d="M 55.26875 376.74 
L 55.26875 7.2 
" style="fill: none; stroke: #000000; stroke-width: 1.5; stroke-linejoin: miter; stroke-linecap: square"/>
   </g>
   <g id="patch_4">
    <path d="M 55.26875 376.74 
L 550.98875 376.74 
" style="fill: none; stroke: #000000; stroke-width: 1.5; stroke-linejoin: miter; stroke-linecap: square"/>
   </g>
   <g id="legend_1">
    <g id="patch_5">
     <path d="M 445.824687 29.878125 
L 543.98875 29.878125 
Q 545.98875 29.878125 545.98875 27.878125 
L 545.98875 14.2 
Q 545.98875 12.2 543.98875 12.2 
L 445.824687 12.2 
Q 443.824687 12.2 443.824687 14.2 
L 443.824687 27.878125 
Q 443.824687 29.878125 445.824687 29.878125 
z
" style="fill: #ffffff; opacity: 0.8; stroke: #cccccc; stroke-linejoin: miter"/>
    </g>
    <g id="line2d_46">
     <path d="M 447.824687 20.298438 
L 457.824687 20.298438 
L 467.824687 20.298438 
" style="fill: none; stroke: #000000; stroke-width: 2; stroke-linecap: square"/>
    </g>
    <g id="text_15">
     <!-- Overall Mean -->
     <g transform="translate(475.824687 23.798438) scale(0.1 -0.1)">
      <defs>
       <path id="DejaVuSans-4f" d="M 2522 4238 
Q 1834 4238 1429 3725 
Q 1025 3213 1025 2328 
Q 1025 1447 1429 934 
Q 1834 422 2522 422 
Q 3209 422 3611 934 
Q 4013 1447 4013 2328 
Q 4013 3213 3611 3725 
Q 3209 4238 2522 4238 
z
M 2522 4750 
Q 3503 4750 4090 4092 
Q 4678 3434 4678 2328 
Q 4678 1225 4090 567 
Q 3503 -91 2522 -91 
Q 1538 -91 948 565 
Q 359 1222 359 2328 
Q 359 3434 948 4092 
Q 1538 4750 2522 4750 
z
" transform="scale(0.015625)"/>
       <path id="DejaVuSans-76" d="M 191 3500 
L 800 3500 
L 1894 563 
L 2988 3500 
L 3597 3500 
L 2284 0 
L 1503 0 
L 191 3500 
z
" transform="scale(0.015625)"/>
       <path id="DejaVuSans-4d" d="M 628 4666 
L 1569 4666 
L 2759 1491 
L 3956 4666 
L 4897 4666 
L 4897 0 
L 4281 0 
L 4281 4097 
L 3078 897 
L 2444 897 
L 1241 4097 
L 1241 0 
L 628 0 
L 628 4666 
z
" transform="scale(0.015625)"/>
      </defs>
      <use xlink:href="#DejaVuSans-4f"/>
      <use xlink:href="#DejaVuSans-76" x="78.710938"/>
      <use xlink:href="#DejaVuSans-65" x="137.890625"/>
      <use xlink:href="#DejaVuSans-72" x="199.414062"/>
      <use xlink:href="#DejaVuSans-61" x="240.527344"/>
      <use xlink:href="#DejaVuSans-6c" x="301.806641"/>
      <use xlink:href="#DejaVuSans-6c" x="329.589844"/>
      <use xlink:href="#DejaVuSans-20" x="357.373047"/>
      <use xlink:href="#DejaVuSans-4d" x="389.160156"/>
      <use xlink:href="#DejaVuSans-65" x="475.439453"/>
      <use xlink:href="#DejaVuSans-61" x="536.962891"/>
      <use xlink:href="#DejaVuSans-6e" x="598.242188"/>
     </g>
    </g>
   </g>
  </g>
 </g>
 <defs>
  <clipPath id="pf2dfb4eafe">
   <rect x="55.26875" y="7.2" width="495.72" height="369.54"/>
  </clipPath>
 </defs>
</svg>
