<?xml version="1.0" encoding="utf-8" standalone="no"?>
<!DOCTYPE svg PUBLIC "-//W3C//DTD SVG 1.1//EN"
  "http://www.w3.org/Graphics/SVG/1.1/DTD/svg11.dtd">
<svg xmlns:xlink="http://www.w3.org/1999/xlink" width="570.025625pt" height="424.53875pt" viewBox="0 0 570.025625 424.53875" xmlns="http://www.w3.org/2000/svg" version="1.1">
 <metadata>
  <rdf:RDF xmlns:dc="http://purl.org/dc/elements/1.1/" xmlns:cc="http://creativecommons.org/ns#" xmlns:rdf="http://www.w3.org/1999/02/22-rdf-syntax-ns#">
   <cc:Work>
    <dc:type rdf:resource="http://purl.org/dc/dcmitype/StillImage"/>
    <dc:date>2026-01-16T17:00:44.638104</dc:date>
    <dc:format>image/svg+xml</dc:format>
    <dc:creator>
     <cc:Agent>
      <dc:title>Matplotlib v3.10.8, https://matplotlib.org/</dc:title>
     </cc:Agent>
    </dc:creator>
   </cc:Work>
  </rdf:RDF>
 </metadata>
 <defs>
  <style type="text/css">*{stroke-linejoin: round; stroke-linecap: butt}</style>
 </defs>
 <g id="figure_1">
  <g id="patch_1">
   <path d="M 0 424.53875 
L 570.025625 424.53875 
L 570.025625 0 
L 0 0 
z
" style="fill: #ffffff"/>
  </g>
  <g id="axes_1">
   <g id="patch_2">
    <path d="M 55.26875 376.74 
L 553.28375 376.74 
L 553.28375 7.2 
L 55.26875 7.2 
z
" style="fill: #ffffff"/>
   </g>
   <g id="matplotlib.axis_1">
    <g id="xtick_1">
     <g id="line2d_1">
      <defs>
       <path id="m66881bad76" d="M 0 0 
L 0 6 
" style="stroke: #000000; stroke-width: 1.5"/>
      </defs>
      <g>
       <use xlink:href="#m66881bad76" x="55.26875" y="376.74" style="stroke: #000000; stroke-width: 1.5"/>
      </g>
     </g>
     <g id="text_1">
      <!-- 0.0 -->
      <g transform="translate(45.726875 395.358125) scale(0.12 -0.12)">
       <defs>
        <path id="DejaVuSans-30" d="M 2034 4250 
Q 1547 4250 1301 3770 
Q 1056 3291 1056 2328 
Q 1056 1369 1301 889 
Q 1547 409 2034 409 
Q 2525 409 2770 889 
Q 3016 1369 3016 2328 
Q 3016 3291 2770 3770 
Q 2525 4250 2034 4250 
z
M 2034 4750 
Q 2819 4750 3233 4129 
Q 3647 3509 3647 2328 
Q 3647 1150 3233 529 
Q 2819 -91 2034 -91 
Q 1250 -91 836 529 
Q 422 1150 422 2328 
Q 422 3509 836 4129 
Q 1250 4750 2034 4750 
z
" transform="scale(0.015625)"/>
        <path id="DejaVuSans-2e" d="M 684 794 
L 1344 794 
L 1344 0 
L 684 0 
L 684 794 
z
" transform="scale(0.015625)"/>
       </defs>
       <use xlink:href="#DejaVuSans-30"/>
       <use xlink:href="#DejaVuSans-2e" transform="translate(63.623047 0)"/>
       <use xlink:href="#DejaVuSans-30" transform="translate(95.410156 0)"/>
      </g>
     </g>
    </g>
    <g id="xtick_2">
     <g id="line2d_2">
      <g>
       <use xlink:href="#m66881bad76" x="154.87175" y="376.74" style="stroke: #000000; stroke-width: 1.5"/>
      </g>
     </g>
     <g id="text_2">
      <!-- 0.2 -->
      <g transform="translate(145.329875 395.358125) scale(0.12 -0.12)">
       <defs>
        <path id="DejaVuSans-32" d="M 1228 531 
L 3431 531 
L 3431 0 
L 469 0 
L 469 531 
Q 828 903 1448 1529 
Q 2069 2156 2228 2338 
Q 2531 2678 2651 2914 
Q 2772 3150 2772 3378 
Q 2772 3750 2511 3984 
Q 2250 4219 1831 4219 
Q 1534 4219 1204 4116 
Q 875 4013 500 3803 
L 500 4441 
Q 881 4594 1212 4672 
Q 1544 4750 1819 4750 
Q 2544 4750 2975 4387 
Q 3406 4025 3406 3419 
Q 3406 3131 3298 2873 
Q 3191 2616 2906 2266 
Q 2828 2175 2409 1742 
Q 1991 1309 1228 531 
z
" transform="scale(0.015625)"/>
       </defs>
       <use xlink:href="#DejaVuSans-30"/>
       <use xlink:href="#DejaVuSans-2e" transform="translate(63.623047 0)"/>
       <use xlink:href="#DejaVuSans-32" transform="translate(95.410156 0)"/>
      </g>
     </g>
    </g>
    <g id="xtick_3">
     <g id="line2d_3">
      <g>
       <use xlink:href="#m66881bad76" x="254.47475" y="376.74" style="stroke: #000000; stroke-width: 1.5"/>
      </g>
     </g>
     <g id="text_3">
      <!-- 0.4 -->
      <g transform="translate(244.932875 395.358125) scale(0.12 -0.12)">
       <defs>
        <path id="DejaVuSans-34" d="M 2419 4116 
L 825 1625 
L 2419 1625 
L 2419 4116 
z
M 2253 4666 
L 3047 4666 
L 3047 1625 
L 3713 1625 
L 3713 1100 
L 3047 1100 
L 3047 0 
L 2419 0 
L 2419 1100 
L 313 1100 
L 313 1709 
L 2253 4666 
z
" transform="scale(0.015625)"/>
       </defs>
       <use xlink:href="#DejaVuSans-30"/>
       <use xlink:href="#DejaVuSans-2e" transform="translate(63.623047 0)"/>
       <use xlink:href="#DejaVuSans-34" transform="translate(95.410156 0)"/>
      </g>
     </g>
    </g>
    <g id="xtick_4">
     <g id="line2d_4">
      <g>
       <use xlink:href="#m66881bad76" x="354.07775" y="376.74" style="stroke: #000000; stroke-width: 1.5"/>
      </g>
     </g>
     <g id="text_4">
      <!-- 0.6 -->
      <g transform="translate(344.535875 395.358125) scale(0.12 -0.12)">
       <defs>
        <path id="DejaVuSans-36" d="M 2113 2584 
Q 1688 2584 1439 2293 
Q 1191 2003 1191 1497 
Q 1191 994 1439 701 
Q 1688 409 2113 409 
Q 2538 409 2786 701 
Q 3034 994 3034 1497 
Q 3034 2003 2786 2293 
Q 2538 2584 2113 2584 
z
M 3366 4563 
L 3366 3988 
Q 3128 4100 2886 4159 
Q 2644 4219 2406 4219 
Q 1781 4219 1451 3797 
Q 1122 3375 1075 2522 
Q 1259 2794 1537 2939 
Q 1816 3084 2150 3084 
Q 2853 3084 3261 2657 
Q 3669 2231 3669 1497 
Q 3669 778 3244 343 
Q 2819 -91 2113 -91 
Q 1303 -91 875 529 
Q 447 1150 447 2328 
Q 447 3434 972 4092 
Q 1497 4750 2381 4750 
Q 2619 4750 2861 4703 
Q 3103 4656 3366 4563 
z
" transform="scale(0.015625)"/>
       </defs>
       <use xlink:href="#DejaVuSans-30"/>
       <use xlink:href="#DejaVuSans-2e" transform="translate(63.623047 0)"/>
       <use xlink:href="#DejaVuSans-36" transform="translate(95.410156 0)"/>
      </g>
     </g>
    </g>
    <g id="xtick_5">
     <g id="line2d_5">
      <g>
       <use xlink:href="#m66881bad76" x="453.68075" y="376.74" style="stroke: #000000; stroke-width: 1.5"/>
      </g>
     </g>
     <g id="text_5">
      <!-- 0.8 -->
      <g transform="translate(444.138875 395.358125) scale(0.12 -0.12)">
       <defs>
        <path id="DejaVuSans-38" d="M 2034 2216 
Q 1584 2216 1326 1975 
Q 1069 1734 1069 1313 
Q 1069 891 1326 650 
Q 1584 409 2034 409 
Q 2484 409 2743 651 
Q 3003 894 3003 1313 
Q 3003 1734 2745 1975 
Q 2488 2216 2034 2216 
z
M 1403 2484 
Q 997 2584 770 2862 
Q 544 3141 544 3541 
Q 544 4100 942 4425 
Q 1341 4750 2034 4750 
Q 2731 4750 3128 4425 
Q 3525 4100 3525 3541 
Q 3525 3141 3298 2862 
Q 3072 2584 2669 2484 
Q 3125 2378 3379 2068 
Q 3634 1759 3634 1313 
Q 3634 634 3220 271 
Q 2806 -91 2034 -91 
Q 1263 -91 848 271 
Q 434 634 434 1313 
Q 434 1759 690 2068 
Q 947 2378 1403 2484 
z
M 1172 3481 
Q 1172 3119 1398 2916 
Q 1625 2713 2034 2713 
Q 2441 2713 2670 2916 
Q 2900 3119 2900 3481 
Q 2900 3844 2670 4047 
Q 2441 4250 2034 4250 
Q 1625 4250 1398 4047 
Q 1172 3844 1172 3481 
z
" transform="scale(0.015625)"/>
       </defs>
       <use xlink:href="#DejaVuSans-30"/>
       <use xlink:href="#DejaVuSans-2e" transform="translate(63.623047 0)"/>
       <use xlink:href="#DejaVuSans-38" transform="translate(95.410156 0)"/>
      </g>
     </g>
    </g>
    <g id="xtick_6">
     <g id="line2d_6">
      <g>
       <use xlink:href="#m66881bad76" x="553.28375" y="376.74" style="stroke: #000000; stroke-width: 1.5"/>
      </g>
     </g>
     <g id="text_6">
      <!-- 1.0 -->
      <g transform="translate(543.741875 395.358125) scale(0.12 -0.12)">
       <defs>
        <path id="DejaVuSans-31" d="M 794 531 
L 1825 531 
L 1825 4091 
L 703 3866 
L 703 4441 
L 1819 4666 
L 2450 4666 
L 2450 531 
L 3481 531 
L 3481 0 
L 794 0 
L 794 531 
z
" transform="scale(0.015625)"/>
       </defs>
       <use xlink:href="#DejaVuSans-31"/>
       <use xlink:href="#DejaVuSans-2e" transform="translate(63.623047 0)"/>
       <use xlink:href="#DejaVuSans-30" transform="translate(95.410156 0)"/>
      </g>
     </g>
    </g>
    <g id="text_7">
     <!-- Normalized distance from equator -->
     <g transform="translate(167.475 414.01125) scale(0.16 -0.16)">
      <defs>
       <path id="DejaVuSans-4e" d="M 628 4666 
L 1478 4666 
L 3547 763 
L 3547 4666 
L 4159 4666 
L 4159 0 
L 3309 0 
L 1241 3903 
L 1241 0 
L 628 0 
L 628 4666 
z
" transform="scale(0.015625)"/>
       <path id="DejaVuSans-6f" d="M 1959 3097 
Q 1497 3097 1228 2736 
Q 959 2375 959 1747 
Q 959 1119 1226 758 
Q 1494 397 1959 397 
Q 2419 397 2687 759 
Q 2956 1122 2956 1747 
Q 2956 2369 2687 2733 
Q 2419 3097 1959 3097 
z
M 1959 3584 
Q 2709 3584 3137 3096 
Q 3566 2609 3566 1747 
Q 3566 888 3137 398 
Q 2709 -91 1959 -91 
Q 1206 -91 779 398 
Q 353 888 353 1747 
Q 353 2609 779 3096 
Q 1206 3584 1959 3584 
z
" transform="scale(0.015625)"/>
       <path id="DejaVuSans-72" d="M 2631 2963 
Q 2534 3019 2420 3045 
Q 2306 3072 2169 3072 
Q 1681 3072 1420 2755 
Q 1159 2438 1159 1844 
L 1159 0 
L 581 0 
L 581 3500 
L 1159 3500 
L 1159 2956 
Q 1341 3275 1631 3429 
Q 1922 3584 2338 3584 
Q 2397 3584 2469 3576 
Q 2541 3569 2628 3553 
L 2631 2963 
z
" transform="scale(0.015625)"/>
       <path id="DejaVuSans-6d" d="M 3328 2828 
Q 3544 3216 3844 3400 
Q 4144 3584 4550 3584 
Q 5097 3584 5394 3201 
Q 5691 2819 5691 2113 
L 5691 0 
L 5113 0 
L 5113 2094 
Q 5113 2597 4934 2840 
Q 4756 3084 4391 3084 
Q 3944 3084 3684 2787 
Q 3425 2491 3425 1978 
L 3425 0 
L 2847 0 
L 2847 2094 
Q 2847 2600 2669 2842 
Q 2491 3084 2119 3084 
Q 1678 3084 1418 2786 
Q 1159 2488 1159 1978 
L 1159 0 
L 581 0 
L 581 3500 
L 1159 3500 
L 1159 2956 
Q 1356 3278 1631 3431 
Q 1906 3584 2284 3584 
Q 2666 3584 2933 3390 
Q 3200 3197 3328 2828 
z
" transform="scale(0.015625)"/>
       <path id="DejaVuSans-61" d="M 2194 1759 
Q 1497 1759 1228 1600 
Q 959 1441 959 1056 
Q 959 750 1161 570 
Q 1363 391 1709 391 
Q 2188 391 2477 730 
Q 2766 1069 2766 1631 
L 2766 1759 
L 2194 1759 
z
M 3341 1997 
L 3341 0 
L 2766 0 
L 2766 531 
Q 2569 213 2275 61 
Q 1981 -91 1556 -91 
Q 1019 -91 701 211 
Q 384 513 384 1019 
Q 384 1609 779 1909 
Q 1175 2209 1959 2209 
L 2766 2209 
L 2766 2266 
Q 2766 2663 2505 2880 
Q 2244 3097 1772 3097 
Q 1472 3097 1187 3025 
Q 903 2953 641 2809 
L 641 3341 
Q 956 3463 1253 3523 
Q 1550 3584 1831 3584 
Q 2591 3584 2966 3190 
Q 3341 2797 3341 1997 
z
" transform="scale(0.015625)"/>
       <path id="DejaVuSans-6c" d="M 603 4863 
L 1178 4863 
L 1178 0 
L 603 0 
L 603 4863 
z
" transform="scale(0.015625)"/>
       <path id="DejaVuSans-69" d="M 603 3500 
L 1178 3500 
L 1178 0 
L 603 0 
L 603 3500 
z
M 603 4863 
L 1178 4863 
L 1178 4134 
L 603 4134 
L 603 4863 
z
" transform="scale(0.015625)"/>
       <path id="DejaVuSans-7a" d="M 353 3500 
L 3084 3500 
L 3084 2975 
L 922 459 
L 3084 459 
L 3084 0 
L 275 0 
L 275 525 
L 2438 3041 
L 353 3041 
L 353 3500 
z
" transform="scale(0.015625)"/>
       <path id="DejaVuSans-65" d="M 3597 1894 
L 3597 1613 
L 953 1613 
Q 991 1019 1311 708 
Q 1631 397 2203 397 
Q 2534 397 2845 478 
Q 3156 559 3463 722 
L 3463 178 
Q 3153 47 2828 -22 
Q 2503 -91 2169 -91 
Q 1331 -91 842 396 
Q 353 884 353 1716 
Q 353 2575 817 3079 
Q 1281 3584 2069 3584 
Q 2775 3584 3186 3129 
Q 3597 2675 3597 1894 
z
M 3022 2063 
Q 3016 2534 2758 2815 
Q 2500 3097 2075 3097 
Q 1594 3097 1305 2825 
Q 1016 2553 972 2059 
L 3022 2063 
z
" transform="scale(0.015625)"/>
       <path id="DejaVuSans-64" d="M 2906 2969 
L 2906 4863 
L 3481 4863 
L 3481 0 
L 2906 0 
L 2906 525 
Q 2725 213 2448 61 
Q 2172 -91 1784 -91 
Q 1150 -91 751 415 
Q 353 922 353 1747 
Q 353 2572 751 3078 
Q 1150 3584 1784 3584 
Q 2172 3584 2448 3432 
Q 2725 3281 2906 2969 
z
M 947 1747 
Q 947 1113 1208 752 
Q 1469 391 1925 391 
Q 2381 391 2643 752 
Q 2906 1113 2906 1747 
Q 2906 2381 2643 2742 
Q 2381 3103 1925 3103 
Q 1469 3103 1208 2742 
Q 947 2381 947 1747 
z
" transform="scale(0.015625)"/>
       <path id="DejaVuSans-20" transform="scale(0.015625)"/>
       <path id="DejaVuSans-73" d="M 2834 3397 
L 2834 2853 
Q 2591 2978 2328 3040 
Q 2066 3103 1784 3103 
Q 1356 3103 1142 2972 
Q 928 2841 928 2578 
Q 928 2378 1081 2264 
Q 1234 2150 1697 2047 
L 1894 2003 
Q 2506 1872 2764 1633 
Q 3022 1394 3022 966 
Q 3022 478 2636 193 
Q 2250 -91 1575 -91 
Q 1294 -91 989 -36 
Q 684 19 347 128 
L 347 722 
Q 666 556 975 473 
Q 1284 391 1588 391 
Q 1994 391 2212 530 
Q 2431 669 2431 922 
Q 2431 1156 2273 1281 
Q 2116 1406 1581 1522 
L 1381 1569 
Q 847 1681 609 1914 
Q 372 2147 372 2553 
Q 372 3047 722 3315 
Q 1072 3584 1716 3584 
Q 2034 3584 2315 3537 
Q 2597 3491 2834 3397 
z
" transform="scale(0.015625)"/>
       <path id="DejaVuSans-74" d="M 1172 4494 
L 1172 3500 
L 2356 3500 
L 2356 3053 
L 1172 3053 
L 1172 1153 
Q 1172 725 1289 603 
Q 1406 481 1766 481 
L 2356 481 
L 2356 0 
L 1766 0 
Q 1100 0 847 248 
Q 594 497 594 1153 
L 594 3053 
L 172 3053 
L 172 3500 
L 594 3500 
L 594 4494 
L 1172 4494 
z
" transform="scale(0.015625)"/>
       <path id="DejaVuSans-6e" d="M 3513 2113 
L 3513 0 
L 2938 0 
L 2938 2094 
Q 2938 2591 2744 2837 
Q 2550 3084 2163 3084 
Q 1697 3084 1428 2787 
Q 1159 2491 1159 1978 
L 1159 0 
L 581 0 
L 581 3500 
L 1159 3500 
L 1159 2956 
Q 1366 3272 1645 3428 
Q 1925 3584 2291 3584 
Q 2894 3584 3203 3211 
Q 3513 2838 3513 2113 
z
" transform="scale(0.015625)"/>
       <path id="DejaVuSans-63" d="M 3122 3366 
L 3122 2828 
Q 2878 2963 2633 3030 
Q 2388 3097 2138 3097 
Q 1578 3097 1268 2742 
Q 959 2388 959 1747 
Q 959 1106 1268 751 
Q 1578 397 2138 397 
Q 2388 397 2633 464 
Q 2878 531 3122 666 
L 3122 134 
Q 2881 22 2623 -34 
Q 2366 -91 2075 -91 
Q 1284 -91 818 406 
Q 353 903 353 1747 
Q 353 2603 823 3093 
Q 1294 3584 2113 3584 
Q 2378 3584 2631 3529 
Q 2884 3475 3122 3366 
z
" transform="scale(0.015625)"/>
       <path id="DejaVuSans-66" d="M 2375 4863 
L 2375 4384 
L 1825 4384 
Q 1516 4384 1395 4259 
Q 1275 4134 1275 3809 
L 1275 3500 
L 2222 3500 
L 2222 3053 
L 1275 3053 
L 1275 0 
L 697 0 
L 697 3053 
L 147 3053 
L 147 3500 
L 697 3500 
L 697 3744 
Q 697 4328 969 4595 
Q 1241 4863 1831 4863 
L 2375 4863 
z
" transform="scale(0.015625)"/>
       <path id="DejaVuSans-71" d="M 947 1747 
Q 947 1113 1208 752 
Q 1469 391 1925 391 
Q 2381 391 2643 752 
Q 2906 1113 2906 1747 
Q 2906 2381 2643 2742 
Q 2381 3103 1925 3103 
Q 1469 3103 1208 2742 
Q 947 2381 947 1747 
z
M 2906 525 
Q 2725 213 2448 61 
Q 2172 -91 1784 -91 
Q 1150 -91 751 415 
Q 353 922 353 1747 
Q 353 2572 751 3078 
Q 1150 3584 1784 3584 
Q 2172 3584 2448 3432 
Q 2725 3281 2906 2969 
L 2906 3500 
L 3481 3500 
L 3481 -1331 
L 2906 -1331 
L 2906 525 
z
" transform="scale(0.015625)"/>
       <path id="DejaVuSans-75" d="M 544 1381 
L 544 3500 
L 1119 3500 
L 1119 1403 
Q 1119 906 1312 657 
Q 1506 409 1894 409 
Q 2359 409 2629 706 
Q 2900 1003 2900 1516 
L 2900 3500 
L 3475 3500 
L 3475 0 
L 2900 0 
L 2900 538 
Q 2691 219 2414 64 
Q 2138 -91 1772 -91 
Q 1169 -91 856 284 
Q 544 659 544 1381 
z
M 1991 3584 
L 1991 3584 
z
" transform="scale(0.015625)"/>
      </defs>
      <use xlink:href="#DejaVuSans-4e"/>
      <use xlink:href="#DejaVuSans-6f" transform="translate(74.804688 0)"/>
      <use xlink:href="#DejaVuSans-72" transform="translate(135.986328 0)"/>
      <use xlink:href="#DejaVuSans-6d" transform="translate(175.349609 0)"/>
      <use xlink:href="#DejaVuSans-61" transform="translate(272.761719 0)"/>
      <use xlink:href="#DejaVuSans-6c" transform="translate(334.041016 0)"/>
      <use xlink:href="#DejaVuSans-69" transform="translate(361.824219 0)"/>
      <use xlink:href="#DejaVuSans-7a" transform="translate(389.607422 0)"/>
      <use xlink:href="#DejaVuSans-65" transform="translate(442.097656 0)"/>
      <use xlink:href="#DejaVuSans-64" transform="translate(503.621094 0)"/>
      <use xlink:href="#DejaVuSans-20" transform="translate(567.097656 0)"/>
      <use xlink:href="#DejaVuSans-64" transform="translate(598.884766 0)"/>
      <use xlink:href="#DejaVuSans-69" transform="translate(662.361328 0)"/>
      <use xlink:href="#DejaVuSans-73" transform="translate(690.144531 0)"/>
      <use xlink:href="#DejaVuSans-74" transform="translate(742.244141 0)"/>
      <use xlink:href="#DejaVuSans-61" transform="translate(781.453125 0)"/>
      <use xlink:href="#DejaVuSans-6e" transform="translate(842.732422 0)"/>
      <use xlink:href="#DejaVuSans-63" transform="translate(906.111328 0)"/>
      <use xlink:href="#DejaVuSans-65" transform="translate(961.091797 0)"/>
      <use xlink:href="#DejaVuSans-20" transform="translate(1022.615234 0)"/>
      <use xlink:href="#DejaVuSans-66" transform="translate(1054.402344 0)"/>
      <use xlink:href="#DejaVuSans-72" transform="translate(1089.607422 0)"/>
      <use xlink:href="#DejaVuSans-6f" transform="translate(1128.470703 0)"/>
      <use xlink:href="#DejaVuSans-6d" transform="translate(1189.652344 0)"/>
      <use xlink:href="#DejaVuSans-20" transform="translate(1287.064453 0)"/>
      <use xlink:href="#DejaVuSans-65" transform="translate(1318.851562 0)"/>
      <use xlink:href="#DejaVuSans-71" transform="translate(1380.375 0)"/>
      <use xlink:href="#DejaVuSans-75" transform="translate(1443.851562 0)"/>
      <use xlink:href="#DejaVuSans-61" transform="translate(1507.230469 0)"/>
      <use xlink:href="#DejaVuSans-74" transform="translate(1568.509766 0)"/>
      <use xlink:href="#DejaVuSans-6f" transform="translate(1607.71875 0)"/>
      <use xlink:href="#DejaVuSans-72" transform="translate(1668.900391 0)"/>
     </g>
    </g>
   </g>
   <g id="matplotlib.axis_2">
    <g id="ytick_1">
     <g id="line2d_7">
      <defs>
       <path id="md845f89e78" d="M 0 0 
L -6 0 
" style="stroke: #000000; stroke-width: 1.5"/>
      </defs>
      <g>
       <use xlink:href="#md845f89e78" x="55.26875" y="376.74" style="stroke: #000000; stroke-width: 1.5"/>
      </g>
     </g>
     <g id="text_8">
      <!-- 0.0 -->
      <g transform="translate(26.685 381.299062) scale(0.12 -0.12)">
       <use xlink:href="#DejaVuSans-30"/>
       <use xlink:href="#DejaVuSans-2e" transform="translate(63.623047 0)"/>
       <use xlink:href="#DejaVuSans-30" transform="translate(95.410156 0)"/>
      </g>
     </g>
    </g>
    <g id="ytick_2">
     <g id="line2d_8">
      <g>
       <use xlink:href="#md845f89e78" x="55.26875" y="306.351429" style="stroke: #000000; stroke-width: 1.5"/>
      </g>
     </g>
     <g id="text_9">
      <!-- 0.2 -->
      <g transform="translate(26.685 310.910491) scale(0.12 -0.12)">
       <use xlink:href="#DejaVuSans-30"/>
       <use xlink:href="#DejaVuSans-2e" transform="translate(63.623047 0)"/>
       <use xlink:href="#DejaVuSans-32" transform="translate(95.410156 0)"/>
      </g>
     </g>
    </g>
    <g id="ytick_3">
     <g id="line2d_9">
      <g>
       <use xlink:href="#md845f89e78" x="55.26875" y="235.962857" style="stroke: #000000; stroke-width: 1.5"/>
      </g>
     </g>
     <g id="text_10">
      <!-- 0.4 -->
      <g transform="translate(26.685 240.52192) scale(0.12 -0.12)">
       <use xlink:href="#DejaVuSans-30"/>
       <use xlink:href="#DejaVuSans-2e" transform="translate(63.623047 0)"/>
       <use xlink:href="#DejaVuSans-34" transform="translate(95.410156 0)"/>
      </g>
     </g>
    </g>
    <g id="ytick_4">
     <g id="line2d_10">
      <g>
       <use xlink:href="#md845f89e78" x="55.26875" y="165.574286" style="stroke: #000000; stroke-width: 1.5"/>
      </g>
     </g>
     <g id="text_11">
      <!-- 0.6 -->
      <g transform="translate(26.685 170.133348) scale(0.12 -0.12)">
       <use xlink:href="#DejaVuSans-30"/>
       <use xlink:href="#DejaVuSans-2e" transform="translate(63.623047 0)"/>
       <use xlink:href="#DejaVuSans-36" transform="translate(95.410156 0)"/>
      </g>
     </g>
    </g>
    <g id="ytick_5">
     <g id="line2d_11">
      <g>
       <use xlink:href="#md845f89e78" x="55.26875" y="95.185714" style="stroke: #000000; stroke-width: 1.5"/>
      </g>
     </g>
     <g id="text_12">
      <!-- 0.8 -->
      <g transform="translate(26.685 99.744777) scale(0.12 -0.12)">
       <use xlink:href="#DejaVuSans-30"/>
       <use xlink:href="#DejaVuSans-2e" transform="translate(63.623047 0)"/>
       <use xlink:href="#DejaVuSans-38" transform="translate(95.410156 0)"/>
      </g>
     </g>
    </g>
    <g id="ytick_6">
     <g id="line2d_12">
      <g>
       <use xlink:href="#md845f89e78" x="55.26875" y="24.797143" style="stroke: #000000; stroke-width: 1.5"/>
      </g>
     </g>
     <g id="text_13">
      <!-- 1.0 -->
      <g transform="translate(26.685 29.356205) scale(0.12 -0.12)">
       <use xlink:href="#DejaVuSans-31"/>
       <use xlink:href="#DejaVuSans-2e" transform="translate(63.623047 0)"/>
       <use xlink:href="#DejaVuSans-30" transform="translate(95.410156 0)"/>
      </g>
     </g>
    </g>
    <g id="text_14">
     <!-- Peak-Normalized intensity -->
     <g transform="translate(19.3575 296.44125) rotate(-90) scale(0.16 -0.16)">
      <defs>
       <path id="DejaVuSans-50" d="M 1259 4147 
L 1259 2394 
L 2053 2394 
Q 2494 2394 2734 2622 
Q 2975 2850 2975 3272 
Q 2975 3691 2734 3919 
Q 2494 4147 2053 4147 
L 1259 4147 
z
M 628 4666 
L 2053 4666 
Q 2838 4666 3239 4311 
Q 3641 3956 3641 3272 
Q 3641 2581 3239 2228 
Q 2838 1875 2053 1875 
L 1259 1875 
L 1259 0 
L 628 0 
L 628 4666 
z
" transform="scale(0.015625)"/>
       <path id="DejaVuSans-6b" d="M 581 4863 
L 1159 4863 
L 1159 1991 
L 2875 3500 
L 3609 3500 
L 1753 1863 
L 3688 0 
L 2938 0 
L 1159 1709 
L 1159 0 
L 581 0 
L 581 4863 
z
" transform="scale(0.015625)"/>
       <path id="DejaVuSans-2d" d="M 313 2009 
L 1997 2009 
L 1997 1497 
L 313 1497 
L 313 2009 
z
" transform="scale(0.015625)"/>
       <path id="DejaVuSans-79" d="M 2059 -325 
Q 1816 -950 1584 -1140 
Q 1353 -1331 966 -1331 
L 506 -1331 
L 506 -850 
L 844 -850 
Q 1081 -850 1212 -737 
Q 1344 -625 1503 -206 
L 1606 56 
L 191 3500 
L 800 3500 
L 1894 763 
L 2988 3500 
L 3597 3500 
L 2059 -325 
z
" transform="scale(0.015625)"/>
      </defs>
      <use xlink:href="#DejaVuSans-50"/>
      <use xlink:href="#DejaVuSans-65" transform="translate(56.677734 0)"/>
      <use xlink:href="#DejaVuSans-61" transform="translate(118.201172 0)"/>
      <use xlink:href="#DejaVuSans-6b" transform="translate(179.480469 0)"/>
      <use xlink:href="#DejaVuSans-2d" transform="translate(237.390625 0)"/>
      <use xlink:href="#DejaVuSans-4e" transform="translate(273.474609 0)"/>
      <use xlink:href="#DejaVuSans-6f" transform="translate(348.279297 0)"/>
      <use xlink:href="#DejaVuSans-72" transform="translate(409.460938 0)"/>
      <use xlink:href="#DejaVuSans-6d" transform="translate(448.824219 0)"/>
      <use xlink:href="#DejaVuSans-61" transform="translate(546.236328 0)"/>
      <use xlink:href="#DejaVuSans-6c" transform="translate(607.515625 0)"/>
      <use xlink:href="#DejaVuSans-69" transform="translate(635.298828 0)"/>
      <use xlink:href="#DejaVuSans-7a" transform="translate(663.082031 0)"/>
      <use xlink:href="#DejaVuSans-65" transform="translate(715.572266 0)"/>
      <use xlink:href="#DejaVuSans-64" transform="translate(777.095703 0)"/>
      <use xlink:href="#DejaVuSans-20" transform="translate(840.572266 0)"/>
      <use xlink:href="#DejaVuSans-69" transform="translate(872.359375 0)"/>
      <use xlink:href="#DejaVuSans-6e" transform="translate(900.142578 0)"/>
      <use xlink:href="#DejaVuSans-74" transform="translate(963.521484 0)"/>
      <use xlink:href="#DejaVuSans-65" transform="translate(1002.730469 0)"/>
      <use xlink:href="#DejaVuSans-6e" transform="translate(1064.253906 0)"/>
      <use xlink:href="#DejaVuSans-73" transform="translate(1127.632812 0)"/>
      <use xlink:href="#DejaVuSans-69" transform="translate(1179.732422 0)"/>
      <use xlink:href="#DejaVuSans-74" transform="translate(1207.515625 0)"/>
      <use xlink:href="#DejaVuSans-79" transform="translate(1246.724609 0)"/>
     </g>
    </g>
   </g>
   <g id="line2d_13">
    <path d="M 67.719125 351.801374 
L 92.619875 310.470505 
L 117.520625 211.486576 
L 142.421375 175.05937 
L 167.322125 83.360883 
L 192.222875 24.797143 
L 217.123625 98.98255 
L 242.024375 185.987532 
L 266.925125 262.414613 
L 291.825875 271.451363 
L 316.726625 294.428524 
L 341.627375 327.072905 
L 366.528125 342.484415 
L 391.428875 363.360007 
L 416.329625 375.198849 
L 441.230375 373.377489 
L 466.131125 376.109529 
L 491.031875 374.358221 
L 515.932625 375.198849 
L 540.833375 375.549111 
" clip-path="url(#pb79f4a0a0e)" style="fill: none; stroke: #808080; stroke-opacity: 0.3; stroke-width: 1.5; stroke-linecap: square"/>
   </g>
   <g id="line2d_14">
    <path d="M 67.719125 282.316307 
L 92.619875 185.031289 
L 117.520625 362.43338 
L 142.421375 210.783206 
L 167.322125 144.972753 
L 192.222875 210.783206 
L 217.123625 144.972753 
L 242.024375 299.484251 
L 266.925125 279.454983 
L 291.825875 216.505854 
L 316.726625 233.673798 
L 341.627375 310.929547 
L 366.528125 299.484251 
L 391.428875 362.43338 
L 416.329625 339.542787 
L 441.230375 245.119094 
L 466.131125 24.797143 
L 491.031875 47.687735 
L 515.932625 348.12676 
L 540.833375 376.74 
" clip-path="url(#pb79f4a0a0e)" style="fill: none; stroke: #808080; stroke-opacity: 0.3; stroke-width: 1.5; stroke-linecap: square"/>
   </g>
   <g id="line2d_15">
    <path d="M 67.719125 263.373791 
L 92.619875 244.761429 
L 117.520625 227.841099 
L 142.421375 46.793571 
L 167.322125 195.692473 
L 192.222875 117.858956 
L 217.123625 205.84467 
L 242.024375 349.667473 
L 266.925125 281.986154 
L 291.825875 263.373791 
L 316.726625 207.536703 
L 341.627375 259.989725 
L 366.528125 222.765 
L 391.428875 303.982582 
L 416.329625 271.833956 
L 441.230375 331.05511 
L 466.131125 332.747143 
L 491.031875 24.797143 
L 515.932625 29.873242 
L 540.833375 236.301264 
" clip-path="url(#pb79f4a0a0e)" style="fill: none; stroke: #808080; stroke-opacity: 0.3; stroke-width: 1.5; stroke-linecap: square"/>
   </g>
   <g id="line2d_16">
    <path d="M 67.719125 371.359088 
L 92.619875 361.143153 
L 117.520625 344.454526 
L 142.421375 306.476203 
L 167.322125 268.263928 
L 192.222875 324.256609 
L 217.123625 334.550528 
L 242.024375 310.141462 
L 266.925125 300.939323 
L 291.825875 330.807285 
L 316.726625 275.516462 
L 341.627375 278.089941 
L 366.528125 276.140336 
L 391.428875 310.765336 
L 416.329625 253.836844 
L 441.230375 182.403284 
L 466.131125 35.325015 
L 491.031875 24.797143 
L 515.932625 110.969724 
L 540.833375 288.851766 
" clip-path="url(#pb79f4a0a0e)" style="fill: none; stroke: #808080; stroke-opacity: 0.3; stroke-width: 1.5; stroke-linecap: square"/>
   </g>
   <g id="line2d_17">
    <path d="M 67.719125 376.155943 
L 92.619875 376.3993 
L 117.520625 375.863915 
L 142.421375 355.665286 
L 167.322125 260.756066 
L 192.222875 193.638212 
L 217.123625 26.890013 
L 242.024375 31.173096 
L 266.925125 24.797143 
L 291.825875 136.69268 
L 316.726625 195.244368 
L 341.627375 226.102033 
L 366.528125 251.459829 
L 391.428875 231.796586 
L 416.329625 238.269881 
L 441.230375 229.84973 
L 466.131125 291.857087 
L 491.031875 345.979678 
L 515.932625 373.430345 
L 540.833375 376.107272 
" clip-path="url(#pb79f4a0a0e)" style="fill: none; stroke: #808080; stroke-opacity: 0.3; stroke-width: 1.5; stroke-linecap: square"/>
   </g>
   <g id="line2d_18">
    <path d="M 67.719125 284.123459 
L 92.619875 321.170075 
L 117.520625 290.297895 
L 142.421375 277.949023 
L 167.322125 290.297895 
L 192.222875 185.332481 
L 217.123625 117.413684 
L 242.024375 86.541504 
L 266.925125 265.60015 
L 291.825875 142.111429 
L 316.726625 154.460301 
L 341.627375 117.413684 
L 366.528125 228.553534 
L 391.428875 24.797143 
L 416.329625 105.064812 
L 441.230375 203.855789 
L 466.131125 296.472331 
L 491.031875 191.506917 
L 515.932625 228.553534 
L 540.833375 358.216692 
" clip-path="url(#pb79f4a0a0e)" style="fill: none; stroke: #808080; stroke-opacity: 0.3; stroke-width: 1.5; stroke-linecap: square"/>
   </g>
   <g id="line2d_19">
    <path d="M 67.719125 332.287927 
L 92.619875 274.243072 
L 117.520625 322.36887 
L 142.421375 362.779845 
L 167.322125 316.49091 
L 192.222875 319.062517 
L 217.123625 213.626609 
L 242.024375 208.483394 
L 266.925125 24.797143 
L 291.825875 109.660191 
L 316.726625 216.932962 
L 341.627375 171.746144 
L 366.528125 288.937972 
L 391.428875 264.691387 
L 416.329625 298.122285 
L 441.230375 269.467229 
L 466.131125 252.935467 
L 491.031875 277.549424 
L 515.932625 312.817185 
L 540.833375 374.535765 
" clip-path="url(#pb79f4a0a0e)" style="fill: none; stroke: #808080; stroke-opacity: 0.3; stroke-width: 1.5; stroke-linecap: square"/>
   </g>
   <g id="line2d_20">
    <path d="M 67.719125 371.396738 
L 92.619875 362.420058 
L 117.520625 358.572909 
L 142.421375 342.899341 
L 167.322125 359.00037 
L 192.222875 359.926536 
L 217.123625 340.762036 
L 242.024375 283.33978 
L 266.925125 225.490064 
L 291.825875 103.948664 
L 316.726625 139.499167 
L 341.627375 25.295847 
L 366.528125 24.797143 
L 391.428875 76.448676 
L 416.329625 167.49786 
L 441.230375 242.303528 
L 466.131125 310.839769 
L 491.031875 322.808676 
L 515.932625 356.435604 
L 540.833375 371.966686 
" clip-path="url(#pb79f4a0a0e)" style="fill: none; stroke: #808080; stroke-opacity: 0.3; stroke-width: 1.5; stroke-linecap: square"/>
   </g>
   <g id="line2d_21">
    <path d="M 67.719125 310.558171 
L 92.619875 345.986164 
L 117.520625 374.827844 
L 142.421375 375.996384 
L 167.322125 365.054605 
L 192.222875 294.251733 
L 217.123625 272.580636 
L 242.024375 207.354885 
L 266.925125 226.051517 
L 291.825875 121.042307 
L 316.726625 24.797143 
L 341.627375 174.795125 
L 366.528125 310.770633 
L 391.428875 341.790045 
L 416.329625 342.214969 
L 441.230375 315.869714 
L 466.131125 259.036201 
L 491.031875 259.354894 
L 515.932625 284.000454 
L 540.833375 323.146528 
" clip-path="url(#pb79f4a0a0e)" style="fill: none; stroke: #808080; stroke-opacity: 0.3; stroke-width: 1.5; stroke-linecap: square"/>
   </g>
   <g id="line2d_22">
    <path d="M 67.719125 24.797143 
L 92.619875 302.788817 
L 117.520625 373.231367 
L 142.421375 376.20021 
L 167.322125 376.74 
L 192.222875 376.470105 
L 217.123625 375.660421 
L 242.024375 375.930316 
L 266.925125 376.74 
L 291.825875 375.120631 
L 316.726625 376.74 
L 341.627375 376.74 
L 366.528125 376.74 
L 391.428875 376.74 
L 416.329625 376.74 
L 441.230375 376.74 
L 466.131125 376.74 
L 491.031875 376.74 
L 515.932625 376.74 
L 540.833375 375.660421 
" clip-path="url(#pb79f4a0a0e)" style="fill: none; stroke: #808080; stroke-opacity: 0.3; stroke-width: 1.5; stroke-linecap: square"/>
   </g>
   <g id="line2d_23">
    <path d="M 67.719125 368.483276 
L 92.619875 340.764274 
L 117.520625 276.332339 
L 142.421375 238.144991 
L 167.322125 150.4173 
L 192.222875 116.505755 
L 217.123625 197.746021 
L 242.024375 77.581199 
L 266.925125 24.797143 
L 291.825875 33.643633 
L 316.726625 81.267237 
L 341.627375 113.114601 
L 366.528125 149.532651 
L 391.428875 244.484976 
L 416.329625 278.986286 
L 441.230375 309.949001 
L 466.131125 355.803307 
L 491.031875 371.874431 
L 515.932625 373.348846 
L 540.833375 376.002793 
" clip-path="url(#pb79f4a0a0e)" style="fill: none; stroke: #808080; stroke-opacity: 0.3; stroke-width: 1.5; stroke-linecap: square"/>
   </g>
   <g id="line2d_24">
    <path d="M 67.719125 371.216921 
L 92.619875 370.296408 
L 117.520625 370.756665 
L 142.421375 373.825042 
L 167.322125 373.364785 
L 192.222875 366.00068 
L 217.123625 364.159654 
L 242.024375 337.004516 
L 266.925125 287.910482 
L 291.825875 172.386083 
L 316.726625 108.870676 
L 341.627375 69.595449 
L 366.528125 24.797143 
L 391.428875 83.403146 
L 416.329625 138.327097 
L 441.230375 177.909162 
L 466.131125 199.848058 
L 491.031875 260.295088 
L 515.932625 357.255805 
L 540.833375 373.978461 
" clip-path="url(#pb79f4a0a0e)" style="fill: none; stroke: #808080; stroke-opacity: 0.3; stroke-width: 1.5; stroke-linecap: square"/>
   </g>
   <g id="line2d_25">
    <path d="M 67.719125 24.797143 
L 92.619875 330.463141 
L 117.520625 368.108999 
L 142.421375 367.833541 
L 167.322125 357.366156 
L 192.222875 369.394467 
L 217.123625 373.067233 
L 242.024375 355.713411 
L 266.925125 367.007169 
L 291.825875 363.609859 
L 316.726625 360.488008 
L 341.627375 364.61987 
L 366.528125 342.491452 
L 391.428875 322.84215 
L 416.329625 353.785209 
L 441.230375 368.476275 
L 466.131125 368.017179 
L 491.031875 371.414488 
L 515.932625 371.873584 
L 540.833375 374.995436 
" clip-path="url(#pb79f4a0a0e)" style="fill: none; stroke: #808080; stroke-opacity: 0.3; stroke-width: 1.5; stroke-linecap: square"/>
   </g>
   <g id="line2d_26">
    <path d="M 67.719125 38.913181 
L 92.619875 24.797143 
L 117.520625 148.00908 
L 142.421375 326.599321 
L 167.322125 370.927514 
L 192.222875 374.312808 
L 217.123625 372.524351 
L 242.024375 370.033285 
L 266.925125 375.46253 
L 291.825875 375.526404 
L 316.726625 367.414472 
L 341.627375 330.112362 
L 366.528125 174.005585 
L 391.428875 91.289432 
L 416.329625 249.567908 
L 441.230375 360.771631 
L 466.131125 342.950931 
L 491.031875 306.287555 
L 515.932625 334.966746 
L 540.833375 372.396604 
" clip-path="url(#pb79f4a0a0e)" style="fill: none; stroke: #808080; stroke-opacity: 0.3; stroke-width: 1.5; stroke-linecap: square"/>
   </g>
   <g id="line2d_27">
    <path d="M 67.719125 327.358263 
L 92.619875 350.089539 
L 117.520625 337.548145 
L 142.421375 343.818842 
L 167.322125 376.74 
L 192.222875 376.74 
L 217.123625 363.414769 
L 242.024375 314.816869 
L 266.925125 297.572453 
L 291.825875 306.194661 
L 316.726625 220.756417 
L 341.627375 24.797143 
L 366.528125 156.481775 
L 391.428875 285.814897 
L 416.329625 317.168381 
L 441.230375 300.707801 
L 466.131125 332.845122 
L 491.031875 314.033032 
L 515.932625 288.950245 
L 540.833375 375.172326 
" clip-path="url(#pb79f4a0a0e)" style="fill: none; stroke: #808080; stroke-opacity: 0.3; stroke-width: 1.5; stroke-linecap: square"/>
   </g>
   <g id="line2d_28">
    <path d="M 67.719125 372.241021 
L 92.619875 376.63775 
L 117.520625 374.286011 
L 142.421375 375.819754 
L 167.322125 370.40053 
L 192.222875 369.071286 
L 217.123625 368.048791 
L 242.024375 365.083554 
L 266.925125 371.423025 
L 291.825875 369.378034 
L 316.726625 371.218526 
L 341.627375 331.64796 
L 366.528125 307.721572 
L 391.428875 278.375959 
L 416.329625 235.32891 
L 441.230375 215.492503 
L 466.131125 143.917837 
L 491.031875 73.058918 
L 515.932625 24.797143 
L 540.833375 142.179595 
" clip-path="url(#pb79f4a0a0e)" style="fill: none; stroke: #808080; stroke-opacity: 0.3; stroke-width: 1.5; stroke-linecap: square"/>
   </g>
   <g id="line2d_29">
    <path d="M 67.719125 376.256657 
L 92.619875 376.601902 
L 117.520625 376.04951 
L 142.421375 375.35902 
L 167.322125 367.832676 
L 192.222875 316.460205 
L 217.123625 306.379048 
L 242.024375 245.408763 
L 266.925125 224.694057 
L 291.825875 79.829212 
L 316.726625 200.457851 
L 341.627375 89.703222 
L 366.528125 146.461517 
L 391.428875 24.797143 
L 416.329625 108.829801 
L 441.230375 29.768672 
L 466.131125 256.663753 
L 491.031875 331.996235 
L 515.932625 345.391745 
L 540.833375 363.068294 
" clip-path="url(#pb79f4a0a0e)" style="fill: none; stroke: #808080; stroke-opacity: 0.3; stroke-width: 1.5; stroke-linecap: square"/>
   </g>
   <g id="line2d_30">
    <path d="M 67.719125 348.204093 
L 92.619875 272.10834 
L 117.520625 348.204093 
L 142.421375 272.10834 
L 167.322125 176.988649 
L 192.222875 300.644247 
L 217.123625 300.644247 
L 242.024375 338.692124 
L 266.925125 253.084402 
L 291.825875 148.452741 
L 316.726625 243.572432 
L 341.627375 310.156216 
L 366.528125 24.797143 
L 391.428875 34.309112 
L 416.329625 205.524556 
L 441.230375 186.500618 
L 466.131125 338.692124 
L 491.031875 253.084402 
L 515.932625 319.668185 
L 540.833375 243.572432 
" clip-path="url(#pb79f4a0a0e)" style="fill: none; stroke: #808080; stroke-opacity: 0.3; stroke-width: 1.5; stroke-linecap: square"/>
   </g>
   <g id="line2d_31">
    <path d="M 67.719125 24.797143 
L 92.619875 41.058529 
L 117.520625 100.296436 
L 142.421375 53.254569 
L 167.322125 100.877199 
L 192.222875 223.418359 
L 217.123625 303.563762 
L 242.024375 303.563762 
L 266.925125 314.017511 
L 291.825875 184.507185 
L 316.726625 184.507185 
L 341.627375 287.88314 
L 366.528125 35.831655 
L 391.428875 171.149618 
L 416.329625 335.505771 
L 441.230375 363.963197 
L 466.131125 251.875785 
L 491.031875 323.309731 
L 515.932625 265.233352 
L 540.833375 162.438161 
" clip-path="url(#pb79f4a0a0e)" style="fill: none; stroke: #808080; stroke-opacity: 0.3; stroke-width: 1.5; stroke-linecap: square"/>
   </g>
   <g id="line2d_32">
    <path d="M 67.719125 343.745357 
L 92.619875 358.77625 
L 117.520625 354.560268 
L 142.421375 312.033839 
L 167.322125 358.409643 
L 192.222875 362.442321 
L 217.123625 314.416786 
L 242.024375 319.915893 
L 266.925125 292.237054 
L 291.825875 147.610536 
L 316.726625 54.675625 
L 341.627375 24.797143 
L 366.528125 80.154821 
L 391.428875 111.316429 
L 416.329625 316.249821 
L 441.230375 321.748929 
L 466.131125 341.179107 
L 491.031875 365.741786 
L 515.932625 352.360625 
L 540.833375 333.663661 
" clip-path="url(#pb79f4a0a0e)" style="fill: none; stroke: #808080; stroke-opacity: 0.3; stroke-width: 1.5; stroke-linecap: square"/>
   </g>
   <g id="line2d_33">
    <path d="M 67.719125 331.861381 
L 92.619875 364.929837 
L 117.520625 329.499348 
L 142.421375 194.86349 
L 167.322125 201.949588 
L 192.222875 232.656012 
L 217.123625 109.830316 
L 242.024375 232.656012 
L 266.925125 249.19024 
L 291.825875 301.154957 
L 316.726625 341.309511 
L 341.627375 261.000403 
L 366.528125 249.19024 
L 391.428875 183.053327 
L 416.329625 194.86349 
L 441.230375 211.397718 
L 466.131125 79.123893 
L 491.031875 24.797143 
L 515.932625 232.656012 
L 540.833375 242.104142 
" clip-path="url(#pb79f4a0a0e)" style="fill: none; stroke: #808080; stroke-opacity: 0.3; stroke-width: 1.5; stroke-linecap: square"/>
   </g>
   <g id="line2d_34">
    <path d="M 67.719125 374.960514 
L 92.619875 375.355955 
L 117.520625 375.751396 
L 142.421375 374.169631 
L 167.322125 372.719679 
L 192.222875 373.181027 
L 217.123625 362.965457 
L 242.024375 326.584848 
L 266.925125 78.313547 
L 291.825875 124.118844 
L 316.726625 55.70748 
L 341.627375 24.797143 
L 366.528125 279.395506 
L 391.428875 361.713226 
L 416.329625 375.026421 
L 441.230375 371.731075 
L 466.131125 375.68549 
L 491.031875 375.421862 
L 515.932625 375.553676 
L 540.833375 374.037817 
" clip-path="url(#pb79f4a0a0e)" style="fill: none; stroke: #808080; stroke-opacity: 0.3; stroke-width: 1.5; stroke-linecap: square"/>
   </g>
   <g id="line2d_35">
    <path d="M 67.719125 249.835737 
L 92.619875 178.981633 
L 117.520625 164.457007 
L 142.421375 94.720181 
L 167.322125 171.533107 
L 192.222875 48.632426 
L 217.123625 24.797143 
L 242.024375 73.771202 
L 266.925125 233.914512 
L 291.825875 89.04068 
L 316.726625 237.452562 
L 341.627375 248.532245 
L 366.528125 316.686259 
L 391.428875 323.762358 
L 416.329625 334.748934 
L 441.230375 359.515283 
L 466.131125 368.732834 
L 491.031875 368.546621 
L 515.932625 371.712245 
L 540.833375 373.388163 
" clip-path="url(#pb79f4a0a0e)" style="fill: none; stroke: #808080; stroke-opacity: 0.3; stroke-width: 1.5; stroke-linecap: square"/>
   </g>
   <g id="line2d_36">
    <path d="M 67.719125 24.797143 
L 92.619875 47.920852 
L 117.520625 234.29795 
L 142.421375 330.492581 
L 167.322125 328.18021 
L 192.222875 366.103094 
L 217.123625 286.095059 
L 242.024375 306.906398 
L 266.925125 372.115258 
L 291.825875 303.206604 
L 316.726625 305.056501 
L 341.627375 362.865774 
L 366.528125 368.415465 
L 391.428875 356.85361 
L 416.329625 343.441858 
L 441.230375 376.277526 
L 466.131125 373.502681 
L 491.031875 319.855675 
L 515.932625 367.490516 
L 540.833375 376.74 
" clip-path="url(#pb79f4a0a0e)" style="fill: none; stroke: #808080; stroke-opacity: 0.3; stroke-width: 1.5; stroke-linecap: square"/>
   </g>
   <g id="line2d_37">
    <path d="M 67.719125 24.797143 
L 92.619875 307.68792 
L 117.520625 290.981772 
L 142.421375 358.920108 
L 167.322125 336.645244 
L 192.222875 302.119204 
L 217.123625 346.668933 
L 242.024375 335.531501 
L 266.925125 317.711609 
L 291.825875 339.986474 
L 316.726625 338.872731 
L 341.627375 356.692622 
L 366.528125 343.327703 
L 391.428875 365.602568 
L 416.329625 332.190271 
L 441.230375 286.526799 
L 466.131125 348.89642 
L 491.031875 365.602568 
L 515.932625 370.057541 
L 540.833375 376.74 
" clip-path="url(#pb79f4a0a0e)" style="fill: none; stroke: #808080; stroke-opacity: 0.3; stroke-width: 1.5; stroke-linecap: square"/>
   </g>
   <g id="line2d_38">
    <path d="M 67.719125 356.929178 
L 92.619875 289.315726 
L 117.520625 152.645118 
L 142.421375 159.462607 
L 167.322125 89.763805 
L 192.222875 92.651212 
L 217.123625 167.964417 
L 242.024375 70.755041 
L 266.925125 24.797143 
L 291.825875 30.732369 
L 316.726625 199.004045 
L 341.627375 249.052437 
L 366.528125 334.311155 
L 391.428875 368.478807 
L 416.329625 371.205803 
L 441.230375 374.09321 
L 466.131125 367.837161 
L 491.031875 362.784198 
L 515.932625 358.613499 
L 540.833375 368.960042 
" clip-path="url(#pb79f4a0a0e)" style="fill: none; stroke: #808080; stroke-opacity: 0.3; stroke-width: 1.5; stroke-linecap: square"/>
   </g>
   <g id="line2d_39">
    <path d="M 67.719125 159.722308 
L 92.619875 146.452332 
L 117.520625 135.242911 
L 142.421375 128.319445 
L 167.322125 24.797143 
L 192.222875 191.949394 
L 217.123625 293.905674 
L 242.024375 222.115925 
L 266.925125 274.289187 
L 291.825875 266.046966 
L 316.726625 333.056226 
L 341.627375 340.474225 
L 366.528125 364.541512 
L 391.428875 360.997357 
L 416.329625 365.777845 
L 441.230375 374.102489 
L 466.131125 369.734112 
L 491.031875 373.7728 
L 515.932625 372.618889 
L 540.833375 364.623934 
" clip-path="url(#pb79f4a0a0e)" style="fill: none; stroke: #808080; stroke-opacity: 0.3; stroke-width: 1.5; stroke-linecap: square"/>
   </g>
   <g id="line2d_40">
    <path d="M 67.719125 24.797143 
L 92.619875 55.41878 
L 117.520625 78.899946 
L 142.421375 101.557212 
L 167.322125 127.647396 
L 192.222875 145.635892 
L 217.123625 195.893826 
L 242.024375 224.455713 
L 266.925125 264.964157 
L 291.825875 288.719957 
L 316.726625 299.293347 
L 341.627375 333.759854 
L 366.528125 345.294462 
L 391.428875 359.300771 
L 416.329625 370.423429 
L 441.230375 373.444398 
L 466.131125 372.757814 
L 491.031875 374.817565 
L 515.932625 376.32805 
L 540.833375 375.916099 
" clip-path="url(#pb79f4a0a0e)" style="fill: none; stroke: #808080; stroke-opacity: 0.3; stroke-width: 1.5; stroke-linecap: square"/>
   </g>
   <g id="line2d_41">
    <path d="M 67.719125 143.836639 
L 92.619875 343.098403 
L 117.520625 187.829496 
L 142.421375 309.456807 
L 167.322125 193.005126 
L 192.222875 198.180756 
L 217.123625 200.768571 
L 242.024375 182.653866 
L 266.925125 182.653866 
L 291.825875 92.080336 
L 316.726625 211.119832 
L 341.627375 226.646723 
L 366.528125 193.005126 
L 391.428875 71.377815 
L 416.329625 24.797143 
L 441.230375 61.026555 
L 466.131125 154.187899 
L 491.031875 123.134118 
L 515.932625 167.126975 
L 540.833375 265.46395 
" clip-path="url(#pb79f4a0a0e)" style="fill: none; stroke: #808080; stroke-opacity: 0.3; stroke-width: 1.5; stroke-linecap: square"/>
   </g>
   <g id="line2d_42">
    <path d="M 67.719125 365.046387 
L 92.619875 345.847917 
L 117.520625 306.840117 
L 142.421375 291.132278 
L 167.322125 288.688836 
L 192.222875 321.937095 
L 217.123625 331.012736 
L 242.024375 298.462603 
L 266.925125 283.365624 
L 291.825875 240.954459 
L 316.726625 236.678436 
L 341.627375 185.453429 
L 366.528125 62.40869 
L 391.428875 130.912321 
L 416.329625 24.797143 
L 441.230375 117.473392 
L 466.131125 193.830943 
L 491.031875 239.209144 
L 515.932625 229.086314 
L 540.833375 251.339086 
" clip-path="url(#pb79f4a0a0e)" style="fill: none; stroke: #808080; stroke-opacity: 0.3; stroke-width: 1.5; stroke-linecap: square"/>
   </g>
   <g id="line2d_43">
    <path d="M 67.719125 254.025552 
L 92.619875 279.367216 
L 117.520625 285.065833 
L 142.421375 273.749801 
L 167.322125 259.962816 
L 192.222875 261.813791 
L 217.123625 257.17169 
L 242.024375 254.660339 
L 266.925125 245.259735 
L 291.825875 210.929806 
L 316.726625 228.986951 
L 341.627375 226.795897 
L 366.528125 230.699485 
L 391.428875 239.554672 
L 416.329625 268.162277 
L 441.230375 277.030573 
L 466.131125 283.098071 
L 491.031875 271.48724 
L 515.932625 301.707856 
L 540.833375 331.461883 
" clip-path="url(#pb79f4a0a0e)" style="fill: none; stroke: #000000; stroke-width: 2; stroke-linecap: square"/>
   </g>
   <g id="patch_3">
    <path d="M 55.26875 376.74 
L 55.26875 7.2 
" style="fill: none; stroke: #000000; stroke-width: 1.5; stroke-linejoin: miter; stroke-linecap: square"/>
   </g>
   <g id="patch_4">
    <path d="M 55.26875 376.74 
L 553.28375 376.74 
" style="fill: none; stroke: #000000; stroke-width: 1.5; stroke-linejoin: miter; stroke-linecap: square"/>
   </g>
   <g id="legend_1">
    <g id="patch_5">
     <path d="M 448.119687 29.878125 
L 546.28375 29.878125 
Q 548.28375 29.878125 548.28375 27.878125 
L 548.28375 14.2 
Q 548.28375 12.2 546.28375 12.2 
L 448.119687 12.2 
Q 446.119687 12.2 446.119687 14.2 
L 446.119687 27.878125 
Q 446.119687 29.878125 448.119687 29.878125 
z
" style="fill: #ffffff; opacity: 0.8; stroke: #cccccc; stroke-linejoin: miter"/>
    </g>
    <g id="line2d_44">
     <path d="M 450.119687 20.298438 
L 460.119687 20.298438 
L 470.119687 20.298438 
" style="fill: none; stroke: #000000; stroke-width: 2; stroke-linecap: square"/>
    </g>
    <g id="text_15">
     <!-- Overall Mean -->
     <g transform="translate(478.119687 23.798438) scale(0.1 -0.1)">
      <defs>
       <path id="DejaVuSans-4f" d="M 2522 4238 
Q 1834 4238 1429 3725 
Q 1025 3213 1025 2328 
Q 1025 1447 1429 934 
Q 1834 422 2522 422 
Q 3209 422 3611 934 
Q 4013 1447 4013 2328 
Q 4013 3213 3611 3725 
Q 3209 4238 2522 4238 
z
M 2522 4750 
Q 3503 4750 4090 4092 
Q 4678 3434 4678 2328 
Q 4678 1225 4090 567 
Q 3503 -91 2522 -91 
Q 1538 -91 948 565 
Q 359 1222 359 2328 
Q 359 3434 948 4092 
Q 1538 4750 2522 4750 
z
" transform="scale(0.015625)"/>
       <path id="DejaVuSans-76" d="M 191 3500 
L 800 3500 
L 1894 563 
L 2988 3500 
L 3597 3500 
L 2284 0 
L 1503 0 
L 191 3500 
z
" transform="scale(0.015625)"/>
       <path id="DejaVuSans-4d" d="M 628 4666 
L 1569 4666 
L 2759 1491 
L 3956 4666 
L 4897 4666 
L 4897 0 
L 4281 0 
L 4281 4097 
L 3078 897 
L 2444 897 
L 1241 4097 
L 1241 0 
L 628 0 
L 628 4666 
z
" transform="scale(0.015625)"/>
      </defs>
      <use xlink:href="#DejaVuSans-4f"/>
      <use xlink:href="#DejaVuSans-76" transform="translate(78.710938 0)"/>
      <use xlink:href="#DejaVuSans-65" transform="translate(137.890625 0)"/>
      <use xlink:href="#DejaVuSans-72" transform="translate(199.414062 0)"/>
      <use xlink:href="#DejaVuSans-61" transform="translate(240.527344 0)"/>
      <use xlink:href="#DejaVuSans-6c" transform="translate(301.806641 0)"/>
      <use xlink:href="#DejaVuSans-6c" transform="translate(329.589844 0)"/>
      <use xlink:href="#DejaVuSans-20" transform="translate(357.373047 0)"/>
      <use xlink:href="#DejaVuSans-4d" transform="translate(389.160156 0)"/>
      <use xlink:href="#DejaVuSans-65" transform="translate(475.439453 0)"/>
      <use xlink:href="#DejaVuSans-61" transform="translate(536.962891 0)"/>
      <use xlink:href="#DejaVuSans-6e" transform="translate(598.242188 0)"/>
     </g>
    </g>
   </g>
  </g>
 </g>
 <defs>
  <clipPath id="pb79f4a0a0e">
   <rect x="55.26875" y="7.2" width="498.015" height="369.54"/>
  </clipPath>
 </defs>
</svg>
