<?xml version="1.0" encoding="utf-8" standalone="no"?>
<!DOCTYPE svg PUBLIC "-//W3C//DTD SVG 1.1//EN"
  "http://www.w3.org/Graphics/SVG/1.1/DTD/svg11.dtd">
<svg xmlns:xlink="http://www.w3.org/1999/xlink" width="568.644219pt" height="280.669375pt" viewBox="0 0 568.644219 280.669375" xmlns="http://www.w3.org/2000/svg" version="1.1">
 <metadata>
  <rdf:RDF xmlns:dc="http://purl.org/dc/elements/1.1/" xmlns:cc="http://creativecommons.org/ns#" xmlns:rdf="http://www.w3.org/1999/02/22-rdf-syntax-ns#">
   <cc:Work>
    <dc:type rdf:resource="http://purl.org/dc/dcmitype/StillImage"/>
    <dc:date>2026-01-11T22:27:09.473118</dc:date>
    <dc:format>image/svg+xml</dc:format>
    <dc:creator>
     <cc:Agent>
      <dc:title>Matplotlib v3.10.8, https://matplotlib.org/</dc:title>
     </cc:Agent>
    </dc:creator>
   </cc:Work>
  </rdf:RDF>
 </metadata>
 <defs>
  <style type="text/css">*{stroke-linejoin: round; stroke-linecap: butt}</style>
 </defs>
 <g id="figure_1">
  <g id="patch_1">
   <path d="M 0 280.669375 
L 568.644219 280.669375 
L 568.644219 0 
L 0 0 
z
" style="fill: #ffffff"/>
  </g>
  <g id="axes_1">
   <g id="patch_2">
    <path d="M 58.51375 248.42 
L 540.26375 248.42 
L 540.26375 7.2 
L 58.51375 7.2 
z
" style="fill: #ffffff"/>
   </g>
   <g id="matplotlib.axis_1">
    <g id="xtick_1">
     <g id="line2d_1">
      <defs>
       <path id="m99cc39e73c" d="M 0 0 
L 0 8 
" style="stroke: #000000; stroke-width: 2"/>
      </defs>
      <g>
       <use xlink:href="#m99cc39e73c" x="58.51375" y="248.42" style="stroke: #000000; stroke-width: 2"/>
      </g>
     </g>
     <g id="text_1">
      <!-- Pole 1 -->
      <g transform="translate(37.333281 270.557813) scale(0.14 -0.14)">
       <defs>
        <path id="DejaVuSans-50" d="M 1259 4147 
L 1259 2394 
L 2053 2394 
Q 2494 2394 2734 2622 
Q 2975 2850 2975 3272 
Q 2975 3691 2734 3919 
Q 2494 4147 2053 4147 
L 1259 4147 
z
M 628 4666 
L 2053 4666 
Q 2838 4666 3239 4311 
Q 3641 3956 3641 3272 
Q 3641 2581 3239 2228 
Q 2838 1875 2053 1875 
L 1259 1875 
L 1259 0 
L 628 0 
L 628 4666 
z
" transform="scale(0.015625)"/>
        <path id="DejaVuSans-6f" d="M 1959 3097 
Q 1497 3097 1228 2736 
Q 959 2375 959 1747 
Q 959 1119 1226 758 
Q 1494 397 1959 397 
Q 2419 397 2687 759 
Q 2956 1122 2956 1747 
Q 2956 2369 2687 2733 
Q 2419 3097 1959 3097 
z
M 1959 3584 
Q 2709 3584 3137 3096 
Q 3566 2609 3566 1747 
Q 3566 888 3137 398 
Q 2709 -91 1959 -91 
Q 1206 -91 779 398 
Q 353 888 353 1747 
Q 353 2609 779 3096 
Q 1206 3584 1959 3584 
z
" transform="scale(0.015625)"/>
        <path id="DejaVuSans-6c" d="M 603 4863 
L 1178 4863 
L 1178 0 
L 603 0 
L 603 4863 
z
" transform="scale(0.015625)"/>
        <path id="DejaVuSans-65" d="M 3597 1894 
L 3597 1613 
L 953 1613 
Q 991 1019 1311 708 
Q 1631 397 2203 397 
Q 2534 397 2845 478 
Q 3156 559 3463 722 
L 3463 178 
Q 3153 47 2828 -22 
Q 2503 -91 2169 -91 
Q 1331 -91 842 396 
Q 353 884 353 1716 
Q 353 2575 817 3079 
Q 1281 3584 2069 3584 
Q 2775 3584 3186 3129 
Q 3597 2675 3597 1894 
z
M 3022 2063 
Q 3016 2534 2758 2815 
Q 2500 3097 2075 3097 
Q 1594 3097 1305 2825 
Q 1016 2553 972 2059 
L 3022 2063 
z
" transform="scale(0.015625)"/>
        <path id="DejaVuSans-20" transform="scale(0.015625)"/>
        <path id="DejaVuSans-31" d="M 794 531 
L 1825 531 
L 1825 4091 
L 703 3866 
L 703 4441 
L 1819 4666 
L 2450 4666 
L 2450 531 
L 3481 531 
L 3481 0 
L 794 0 
L 794 531 
z
" transform="scale(0.015625)"/>
       </defs>
       <use xlink:href="#DejaVuSans-50"/>
       <use xlink:href="#DejaVuSans-6f" transform="translate(56.677734 0)"/>
       <use xlink:href="#DejaVuSans-6c" transform="translate(117.859375 0)"/>
       <use xlink:href="#DejaVuSans-65" transform="translate(145.642578 0)"/>
       <use xlink:href="#DejaVuSans-20" transform="translate(207.166016 0)"/>
       <use xlink:href="#DejaVuSans-31" transform="translate(238.953125 0)"/>
      </g>
     </g>
    </g>
    <g id="xtick_2">
     <g id="line2d_2">
      <g>
       <use xlink:href="#m99cc39e73c" x="302.290858" y="248.42" style="stroke: #000000; stroke-width: 2"/>
      </g>
     </g>
     <g id="text_2">
      <!-- Equator -->
      <g transform="translate(274.79289 270.557813) scale(0.14 -0.14)">
       <defs>
        <path id="DejaVuSans-45" d="M 628 4666 
L 3578 4666 
L 3578 4134 
L 1259 4134 
L 1259 2753 
L 3481 2753 
L 3481 2222 
L 1259 2222 
L 1259 531 
L 3634 531 
L 3634 0 
L 628 0 
L 628 4666 
z
" transform="scale(0.015625)"/>
        <path id="DejaVuSans-71" d="M 947 1747 
Q 947 1113 1208 752 
Q 1469 391 1925 391 
Q 2381 391 2643 752 
Q 2906 1113 2906 1747 
Q 2906 2381 2643 2742 
Q 2381 3103 1925 3103 
Q 1469 3103 1208 2742 
Q 947 2381 947 1747 
z
M 2906 525 
Q 2725 213 2448 61 
Q 2172 -91 1784 -91 
Q 1150 -91 751 415 
Q 353 922 353 1747 
Q 353 2572 751 3078 
Q 1150 3584 1784 3584 
Q 2172 3584 2448 3432 
Q 2725 3281 2906 2969 
L 2906 3500 
L 3481 3500 
L 3481 -1331 
L 2906 -1331 
L 2906 525 
z
" transform="scale(0.015625)"/>
        <path id="DejaVuSans-75" d="M 544 1381 
L 544 3500 
L 1119 3500 
L 1119 1403 
Q 1119 906 1312 657 
Q 1506 409 1894 409 
Q 2359 409 2629 706 
Q 2900 1003 2900 1516 
L 2900 3500 
L 3475 3500 
L 3475 0 
L 2900 0 
L 2900 538 
Q 2691 219 2414 64 
Q 2138 -91 1772 -91 
Q 1169 -91 856 284 
Q 544 659 544 1381 
z
M 1991 3584 
L 1991 3584 
z
" transform="scale(0.015625)"/>
        <path id="DejaVuSans-61" d="M 2194 1759 
Q 1497 1759 1228 1600 
Q 959 1441 959 1056 
Q 959 750 1161 570 
Q 1363 391 1709 391 
Q 2188 391 2477 730 
Q 2766 1069 2766 1631 
L 2766 1759 
L 2194 1759 
z
M 3341 1997 
L 3341 0 
L 2766 0 
L 2766 531 
Q 2569 213 2275 61 
Q 1981 -91 1556 -91 
Q 1019 -91 701 211 
Q 384 513 384 1019 
Q 384 1609 779 1909 
Q 1175 2209 1959 2209 
L 2766 2209 
L 2766 2266 
Q 2766 2663 2505 2880 
Q 2244 3097 1772 3097 
Q 1472 3097 1187 3025 
Q 903 2953 641 2809 
L 641 3341 
Q 956 3463 1253 3523 
Q 1550 3584 1831 3584 
Q 2591 3584 2966 3190 
Q 3341 2797 3341 1997 
z
" transform="scale(0.015625)"/>
        <path id="DejaVuSans-74" d="M 1172 4494 
L 1172 3500 
L 2356 3500 
L 2356 3053 
L 1172 3053 
L 1172 1153 
Q 1172 725 1289 603 
Q 1406 481 1766 481 
L 2356 481 
L 2356 0 
L 1766 0 
Q 1100 0 847 248 
Q 594 497 594 1153 
L 594 3053 
L 172 3053 
L 172 3500 
L 594 3500 
L 594 4494 
L 1172 4494 
z
" transform="scale(0.015625)"/>
        <path id="DejaVuSans-72" d="M 2631 2963 
Q 2534 3019 2420 3045 
Q 2306 3072 2169 3072 
Q 1681 3072 1420 2755 
Q 1159 2438 1159 1844 
L 1159 0 
L 581 0 
L 581 3500 
L 1159 3500 
L 1159 2956 
Q 1341 3275 1631 3429 
Q 1922 3584 2338 3584 
Q 2397 3584 2469 3576 
Q 2541 3569 2628 3553 
L 2631 2963 
z
" transform="scale(0.015625)"/>
       </defs>
       <use xlink:href="#DejaVuSans-45"/>
       <use xlink:href="#DejaVuSans-71" transform="translate(63.183594 0)"/>
       <use xlink:href="#DejaVuSans-75" transform="translate(126.660156 0)"/>
       <use xlink:href="#DejaVuSans-61" transform="translate(190.039062 0)"/>
       <use xlink:href="#DejaVuSans-74" transform="translate(251.318359 0)"/>
       <use xlink:href="#DejaVuSans-6f" transform="translate(290.527344 0)"/>
       <use xlink:href="#DejaVuSans-72" transform="translate(351.708984 0)"/>
      </g>
     </g>
    </g>
    <g id="xtick_3">
     <g id="line2d_3">
      <g>
       <use xlink:href="#m99cc39e73c" x="540.26375" y="248.42" style="stroke: #000000; stroke-width: 2"/>
      </g>
     </g>
     <g id="text_3">
      <!-- Pole 2 -->
      <g transform="translate(519.083281 270.557813) scale(0.14 -0.14)">
       <defs>
        <path id="DejaVuSans-32" d="M 1228 531 
L 3431 531 
L 3431 0 
L 469 0 
L 469 531 
Q 828 903 1448 1529 
Q 2069 2156 2228 2338 
Q 2531 2678 2651 2914 
Q 2772 3150 2772 3378 
Q 2772 3750 2511 3984 
Q 2250 4219 1831 4219 
Q 1534 4219 1204 4116 
Q 875 4013 500 3803 
L 500 4441 
Q 881 4594 1212 4672 
Q 1544 4750 1819 4750 
Q 2544 4750 2975 4387 
Q 3406 4025 3406 3419 
Q 3406 3131 3298 2873 
Q 3191 2616 2906 2266 
Q 2828 2175 2409 1742 
Q 1991 1309 1228 531 
z
" transform="scale(0.015625)"/>
       </defs>
       <use xlink:href="#DejaVuSans-50"/>
       <use xlink:href="#DejaVuSans-6f" transform="translate(56.677734 0)"/>
       <use xlink:href="#DejaVuSans-6c" transform="translate(117.859375 0)"/>
       <use xlink:href="#DejaVuSans-65" transform="translate(145.642578 0)"/>
       <use xlink:href="#DejaVuSans-20" transform="translate(207.166016 0)"/>
       <use xlink:href="#DejaVuSans-32" transform="translate(238.953125 0)"/>
      </g>
     </g>
    </g>
   </g>
   <g id="matplotlib.axis_2">
    <g id="ytick_1">
     <g id="line2d_4">
      <defs>
       <path id="m78a57233ce" d="M 0 0 
L -8 0 
" style="stroke: #000000; stroke-width: 2"/>
      </defs>
      <g>
       <use xlink:href="#m78a57233ce" x="58.51375" y="248.42" style="stroke: #000000; stroke-width: 2"/>
      </g>
     </g>
     <g id="text_4">
      <!-- 0.0 -->
      <g transform="translate(24.749375 253.738906) scale(0.14 -0.14)">
       <defs>
        <path id="DejaVuSans-30" d="M 2034 4250 
Q 1547 4250 1301 3770 
Q 1056 3291 1056 2328 
Q 1056 1369 1301 889 
Q 1547 409 2034 409 
Q 2525 409 2770 889 
Q 3016 1369 3016 2328 
Q 3016 3291 2770 3770 
Q 2525 4250 2034 4250 
z
M 2034 4750 
Q 2819 4750 3233 4129 
Q 3647 3509 3647 2328 
Q 3647 1150 3233 529 
Q 2819 -91 2034 -91 
Q 1250 -91 836 529 
Q 422 1150 422 2328 
Q 422 3509 836 4129 
Q 1250 4750 2034 4750 
z
" transform="scale(0.015625)"/>
        <path id="DejaVuSans-2e" d="M 684 794 
L 1344 794 
L 1344 0 
L 684 0 
L 684 794 
z
" transform="scale(0.015625)"/>
       </defs>
       <use xlink:href="#DejaVuSans-30"/>
       <use xlink:href="#DejaVuSans-2e" transform="translate(63.623047 0)"/>
       <use xlink:href="#DejaVuSans-30" transform="translate(95.410156 0)"/>
      </g>
     </g>
    </g>
    <g id="ytick_2">
     <g id="line2d_5">
      <g>
       <use xlink:href="#m78a57233ce" x="58.51375" y="202.641625" style="stroke: #000000; stroke-width: 2"/>
      </g>
     </g>
     <g id="text_5">
      <!-- 0.2 -->
      <g transform="translate(24.749375 207.960531) scale(0.14 -0.14)">
       <use xlink:href="#DejaVuSans-30"/>
       <use xlink:href="#DejaVuSans-2e" transform="translate(63.623047 0)"/>
       <use xlink:href="#DejaVuSans-32" transform="translate(95.410156 0)"/>
      </g>
     </g>
    </g>
    <g id="ytick_3">
     <g id="line2d_6">
      <g>
       <use xlink:href="#m78a57233ce" x="58.51375" y="156.863249" style="stroke: #000000; stroke-width: 2"/>
      </g>
     </g>
     <g id="text_6">
      <!-- 0.4 -->
      <g transform="translate(24.749375 162.182156) scale(0.14 -0.14)">
       <defs>
        <path id="DejaVuSans-34" d="M 2419 4116 
L 825 1625 
L 2419 1625 
L 2419 4116 
z
M 2253 4666 
L 3047 4666 
L 3047 1625 
L 3713 1625 
L 3713 1100 
L 3047 1100 
L 3047 0 
L 2419 0 
L 2419 1100 
L 313 1100 
L 313 1709 
L 2253 4666 
z
" transform="scale(0.015625)"/>
       </defs>
       <use xlink:href="#DejaVuSans-30"/>
       <use xlink:href="#DejaVuSans-2e" transform="translate(63.623047 0)"/>
       <use xlink:href="#DejaVuSans-34" transform="translate(95.410156 0)"/>
      </g>
     </g>
    </g>
    <g id="ytick_4">
     <g id="line2d_7">
      <g>
       <use xlink:href="#m78a57233ce" x="58.51375" y="111.084874" style="stroke: #000000; stroke-width: 2"/>
      </g>
     </g>
     <g id="text_7">
      <!-- 0.6 -->
      <g transform="translate(24.749375 116.40378) scale(0.14 -0.14)">
       <defs>
        <path id="DejaVuSans-36" d="M 2113 2584 
Q 1688 2584 1439 2293 
Q 1191 2003 1191 1497 
Q 1191 994 1439 701 
Q 1688 409 2113 409 
Q 2538 409 2786 701 
Q 3034 994 3034 1497 
Q 3034 2003 2786 2293 
Q 2538 2584 2113 2584 
z
M 3366 4563 
L 3366 3988 
Q 3128 4100 2886 4159 
Q 2644 4219 2406 4219 
Q 1781 4219 1451 3797 
Q 1122 3375 1075 2522 
Q 1259 2794 1537 2939 
Q 1816 3084 2150 3084 
Q 2853 3084 3261 2657 
Q 3669 2231 3669 1497 
Q 3669 778 3244 343 
Q 2819 -91 2113 -91 
Q 1303 -91 875 529 
Q 447 1150 447 2328 
Q 447 3434 972 4092 
Q 1497 4750 2381 4750 
Q 2619 4750 2861 4703 
Q 3103 4656 3366 4563 
z
" transform="scale(0.015625)"/>
       </defs>
       <use xlink:href="#DejaVuSans-30"/>
       <use xlink:href="#DejaVuSans-2e" transform="translate(63.623047 0)"/>
       <use xlink:href="#DejaVuSans-36" transform="translate(95.410156 0)"/>
      </g>
     </g>
    </g>
    <g id="ytick_5">
     <g id="line2d_8">
      <g>
       <use xlink:href="#m78a57233ce" x="58.51375" y="65.306499" style="stroke: #000000; stroke-width: 2"/>
      </g>
     </g>
     <g id="text_8">
      <!-- 0.8 -->
      <g transform="translate(24.749375 70.625405) scale(0.14 -0.14)">
       <defs>
        <path id="DejaVuSans-38" d="M 2034 2216 
Q 1584 2216 1326 1975 
Q 1069 1734 1069 1313 
Q 1069 891 1326 650 
Q 1584 409 2034 409 
Q 2484 409 2743 651 
Q 3003 894 3003 1313 
Q 3003 1734 2745 1975 
Q 2488 2216 2034 2216 
z
M 1403 2484 
Q 997 2584 770 2862 
Q 544 3141 544 3541 
Q 544 4100 942 4425 
Q 1341 4750 2034 4750 
Q 2731 4750 3128 4425 
Q 3525 4100 3525 3541 
Q 3525 3141 3298 2862 
Q 3072 2584 2669 2484 
Q 3125 2378 3379 2068 
Q 3634 1759 3634 1313 
Q 3634 634 3220 271 
Q 2806 -91 2034 -91 
Q 1263 -91 848 271 
Q 434 634 434 1313 
Q 434 1759 690 2068 
Q 947 2378 1403 2484 
z
M 1172 3481 
Q 1172 3119 1398 2916 
Q 1625 2713 2034 2713 
Q 2441 2713 2670 2916 
Q 2900 3119 2900 3481 
Q 2900 3844 2670 4047 
Q 2441 4250 2034 4250 
Q 1625 4250 1398 4047 
Q 1172 3844 1172 3481 
z
" transform="scale(0.015625)"/>
       </defs>
       <use xlink:href="#DejaVuSans-30"/>
       <use xlink:href="#DejaVuSans-2e" transform="translate(63.623047 0)"/>
       <use xlink:href="#DejaVuSans-38" transform="translate(95.410156 0)"/>
      </g>
     </g>
    </g>
    <g id="ytick_6">
     <g id="line2d_9">
      <g>
       <use xlink:href="#m78a57233ce" x="58.51375" y="19.528123" style="stroke: #000000; stroke-width: 2"/>
      </g>
     </g>
     <g id="text_9">
      <!-- 1.0 -->
      <g transform="translate(24.749375 24.84703) scale(0.14 -0.14)">
       <use xlink:href="#DejaVuSans-31"/>
       <use xlink:href="#DejaVuSans-2e" transform="translate(63.623047 0)"/>
       <use xlink:href="#DejaVuSans-30" transform="translate(95.410156 0)"/>
      </g>
     </g>
    </g>
    <g id="text_10">
     <!-- Normalized Intensity -->
     <g transform="translate(17.837813 200.199844) rotate(-90) scale(0.14 -0.14)">
      <defs>
       <path id="DejaVuSans-4e" d="M 628 4666 
L 1478 4666 
L 3547 763 
L 3547 4666 
L 4159 4666 
L 4159 0 
L 3309 0 
L 1241 3903 
L 1241 0 
L 628 0 
L 628 4666 
z
" transform="scale(0.015625)"/>
       <path id="DejaVuSans-6d" d="M 3328 2828 
Q 3544 3216 3844 3400 
Q 4144 3584 4550 3584 
Q 5097 3584 5394 3201 
Q 5691 2819 5691 2113 
L 5691 0 
L 5113 0 
L 5113 2094 
Q 5113 2597 4934 2840 
Q 4756 3084 4391 3084 
Q 3944 3084 3684 2787 
Q 3425 2491 3425 1978 
L 3425 0 
L 2847 0 
L 2847 2094 
Q 2847 2600 2669 2842 
Q 2491 3084 2119 3084 
Q 1678 3084 1418 2786 
Q 1159 2488 1159 1978 
L 1159 0 
L 581 0 
L 581 3500 
L 1159 3500 
L 1159 2956 
Q 1356 3278 1631 3431 
Q 1906 3584 2284 3584 
Q 2666 3584 2933 3390 
Q 3200 3197 3328 2828 
z
" transform="scale(0.015625)"/>
       <path id="DejaVuSans-69" d="M 603 3500 
L 1178 3500 
L 1178 0 
L 603 0 
L 603 3500 
z
M 603 4863 
L 1178 4863 
L 1178 4134 
L 603 4134 
L 603 4863 
z
" transform="scale(0.015625)"/>
       <path id="DejaVuSans-7a" d="M 353 3500 
L 3084 3500 
L 3084 2975 
L 922 459 
L 3084 459 
L 3084 0 
L 275 0 
L 275 525 
L 2438 3041 
L 353 3041 
L 353 3500 
z
" transform="scale(0.015625)"/>
       <path id="DejaVuSans-64" d="M 2906 2969 
L 2906 4863 
L 3481 4863 
L 3481 0 
L 2906 0 
L 2906 525 
Q 2725 213 2448 61 
Q 2172 -91 1784 -91 
Q 1150 -91 751 415 
Q 353 922 353 1747 
Q 353 2572 751 3078 
Q 1150 3584 1784 3584 
Q 2172 3584 2448 3432 
Q 2725 3281 2906 2969 
z
M 947 1747 
Q 947 1113 1208 752 
Q 1469 391 1925 391 
Q 2381 391 2643 752 
Q 2906 1113 2906 1747 
Q 2906 2381 2643 2742 
Q 2381 3103 1925 3103 
Q 1469 3103 1208 2742 
Q 947 2381 947 1747 
z
" transform="scale(0.015625)"/>
       <path id="DejaVuSans-49" d="M 628 4666 
L 1259 4666 
L 1259 0 
L 628 0 
L 628 4666 
z
" transform="scale(0.015625)"/>
       <path id="DejaVuSans-6e" d="M 3513 2113 
L 3513 0 
L 2938 0 
L 2938 2094 
Q 2938 2591 2744 2837 
Q 2550 3084 2163 3084 
Q 1697 3084 1428 2787 
Q 1159 2491 1159 1978 
L 1159 0 
L 581 0 
L 581 3500 
L 1159 3500 
L 1159 2956 
Q 1366 3272 1645 3428 
Q 1925 3584 2291 3584 
Q 2894 3584 3203 3211 
Q 3513 2838 3513 2113 
z
" transform="scale(0.015625)"/>
       <path id="DejaVuSans-73" d="M 2834 3397 
L 2834 2853 
Q 2591 2978 2328 3040 
Q 2066 3103 1784 3103 
Q 1356 3103 1142 2972 
Q 928 2841 928 2578 
Q 928 2378 1081 2264 
Q 1234 2150 1697 2047 
L 1894 2003 
Q 2506 1872 2764 1633 
Q 3022 1394 3022 966 
Q 3022 478 2636 193 
Q 2250 -91 1575 -91 
Q 1294 -91 989 -36 
Q 684 19 347 128 
L 347 722 
Q 666 556 975 473 
Q 1284 391 1588 391 
Q 1994 391 2212 530 
Q 2431 669 2431 922 
Q 2431 1156 2273 1281 
Q 2116 1406 1581 1522 
L 1381 1569 
Q 847 1681 609 1914 
Q 372 2147 372 2553 
Q 372 3047 722 3315 
Q 1072 3584 1716 3584 
Q 2034 3584 2315 3537 
Q 2597 3491 2834 3397 
z
" transform="scale(0.015625)"/>
       <path id="DejaVuSans-79" d="M 2059 -325 
Q 1816 -950 1584 -1140 
Q 1353 -1331 966 -1331 
L 506 -1331 
L 506 -850 
L 844 -850 
Q 1081 -850 1212 -737 
Q 1344 -625 1503 -206 
L 1606 56 
L 191 3500 
L 800 3500 
L 1894 763 
L 2988 3500 
L 3597 3500 
L 2059 -325 
z
" transform="scale(0.015625)"/>
      </defs>
      <use xlink:href="#DejaVuSans-4e"/>
      <use xlink:href="#DejaVuSans-6f" transform="translate(74.804688 0)"/>
      <use xlink:href="#DejaVuSans-72" transform="translate(135.986328 0)"/>
      <use xlink:href="#DejaVuSans-6d" transform="translate(175.349609 0)"/>
      <use xlink:href="#DejaVuSans-61" transform="translate(272.761719 0)"/>
      <use xlink:href="#DejaVuSans-6c" transform="translate(334.041016 0)"/>
      <use xlink:href="#DejaVuSans-69" transform="translate(361.824219 0)"/>
      <use xlink:href="#DejaVuSans-7a" transform="translate(389.607422 0)"/>
      <use xlink:href="#DejaVuSans-65" transform="translate(442.097656 0)"/>
      <use xlink:href="#DejaVuSans-64" transform="translate(503.621094 0)"/>
      <use xlink:href="#DejaVuSans-20" transform="translate(567.097656 0)"/>
      <use xlink:href="#DejaVuSans-49" transform="translate(598.884766 0)"/>
      <use xlink:href="#DejaVuSans-6e" transform="translate(628.376953 0)"/>
      <use xlink:href="#DejaVuSans-74" transform="translate(691.755859 0)"/>
      <use xlink:href="#DejaVuSans-65" transform="translate(730.964844 0)"/>
      <use xlink:href="#DejaVuSans-6e" transform="translate(792.488281 0)"/>
      <use xlink:href="#DejaVuSans-73" transform="translate(855.867188 0)"/>
      <use xlink:href="#DejaVuSans-69" transform="translate(907.966797 0)"/>
      <use xlink:href="#DejaVuSans-74" transform="translate(935.75 0)"/>
      <use xlink:href="#DejaVuSans-79" transform="translate(974.958984 0)"/>
     </g>
    </g>
   </g>
   <g id="line2d_10">
    <path d="M 58.51375 133.596355 
L 60.934604 135.656512 
L 63.355459 139.406413 
L 65.776313 143.872088 
L 68.197167 148.079563 
L 70.618021 151.056644 
L 73.038876 152.185404 
L 75.45973 151.62774 
L 77.880584 149.791305 
L 80.301438 148.108209 
L 82.722293 148.413583 
L 87.564001 153.258075 
L 89.984856 154.304567 
L 92.40571 155.582014 
L 94.826564 159.305424 
L 97.247418 165.694352 
L 99.668273 173.492183 
L 102.089127 181.842711 
L 104.509981 190.816183 
L 106.930835 200.362293 
L 109.35169 208.767937 
L 111.772544 213.670583 
L 114.193398 214.643694 
L 116.614253 213.639538 
L 119.035107 212.459758 
L 121.455961 211.803325 
L 123.876815 211.996754 
L 126.29767 211.800535 
L 128.718524 208.858565 
L 131.139378 201.92626 
L 133.560232 192.097602 
L 135.981087 180.841237 
L 138.401941 170.204972 
L 140.822795 162.427451 
L 143.243649 158.245339 
L 145.664504 156.608627 
L 148.085358 155.942273 
L 150.506212 153.160333 
L 152.927067 145.22444 
L 155.347921 134.080145 
L 157.768775 125.12139 
L 160.189629 121.583792 
L 162.610484 122.266105 
L 165.031338 125.543185 
L 167.452192 130.443176 
L 172.293901 141.85997 
L 174.714755 145.812934 
L 177.135609 147.54477 
L 179.556464 149.799379 
L 181.977318 155.755382 
L 184.398172 165.151755 
L 186.819026 175.419554 
L 189.239881 184.919219 
L 194.081589 202.614044 
L 196.502443 210.485199 
L 198.923298 216.549043 
L 201.344152 220.596554 
L 203.765006 223.245544 
L 206.185861 225.021061 
L 208.606715 225.992963 
L 211.027569 226.110172 
L 213.448423 225.015062 
L 215.869278 222.156331 
L 218.290132 217.631795 
L 220.710986 212.755396 
L 223.13184 208.552048 
L 225.552695 203.525186 
L 227.973549 195.36239 
L 230.394403 184.860664 
L 232.815258 176.18188 
L 235.236112 172.242178 
L 237.656966 171.400563 
L 240.07782 171.313572 
L 242.498675 172.055411 
L 244.919529 175.216515 
L 247.340383 181.43378 
L 249.761237 189.581122 
L 252.182092 198.216746 
L 254.602946 205.145135 
L 257.0238 207.971852 
L 259.444655 206.065992 
L 261.865509 200.645508 
L 264.286363 192.642369 
L 266.707217 181.826931 
L 269.128072 168.107268 
L 271.548926 155.317685 
L 273.96978 149.632025 
L 276.390634 152.10817 
L 278.811489 154.814069 
L 281.232343 150.905456 
L 283.653197 144.594078 
L 286.074052 143.623235 
L 288.494906 149.063669 
L 290.91576 155.205165 
L 293.336614 157.40503 
L 295.757469 155.137045 
L 298.178323 148.992183 
L 300.599177 143.165923 
L 303.020031 143.916904 
L 305.440886 152.150771 
L 307.86174 159.681867 
L 310.282594 159.407239 
L 312.703448 154.70691 
L 315.124303 152.221352 
L 317.545157 153.440952 
L 319.966011 154.785672 
L 322.386866 154.269308 
L 324.80772 155.147631 
L 327.228574 161.063416 
L 329.649428 170.117116 
L 332.070283 177.26251 
L 334.491137 179.406382 
L 336.911991 176.711335 
L 339.332845 169.703955 
L 341.7537 159.235674 
L 344.174554 146.228476 
L 346.595408 130.887875 
L 349.016263 112.737577 
L 351.437117 92.637758 
L 353.857971 75.265919 
L 356.278825 65.265512 
L 358.69968 60.632969 
L 361.120534 55.734458 
L 363.541388 48.420842 
L 365.962242 42.12369 
L 368.383097 40.034963 
L 370.803951 41.698168 
L 375.64566 49.282129 
L 378.066514 50.402413 
L 382.908222 45.605093 
L 385.329077 47.45622 
L 390.170785 58.213123 
L 392.591639 61.669712 
L 395.012494 62.617783 
L 397.433348 61.245827 
L 399.854202 60.349769 
L 402.275057 63.293757 
L 404.695911 69.406704 
L 407.116765 74.404905 
L 409.537619 74.955424 
L 411.958474 70.541523 
L 414.379328 61.314579 
L 419.221036 37.520958 
L 421.641891 28.046766 
L 424.062745 21.63711 
L 426.483599 18.723638 
L 428.904454 18.769046 
L 431.325308 21.077267 
L 433.746162 27.137751 
L 436.167016 40.327964 
L 438.587871 60.48105 
L 441.008725 78.330699 
L 443.429579 84.585178 
L 445.850433 81.668621 
L 448.271288 77.798817 
L 450.692142 76.756309 
L 453.112996 75.875834 
L 455.533851 73.082979 
L 457.954705 71.166059 
L 460.375559 74.075353 
L 462.796413 82.453533 
L 465.217268 94.160717 
L 467.638122 106.77543 
L 470.058976 117.400978 
L 472.47983 123.632253 
L 474.900685 127.631218 
L 477.321539 133.683447 
L 479.742393 141.740006 
L 482.163247 145.693015 
L 484.584102 141.498377 
L 487.004956 135.916336 
L 489.42581 138.070028 
L 491.846665 148.256826 
L 494.267519 159.591143 
L 496.688373 167.568456 
L 499.109227 173.786585 
L 501.530082 180.509769 
L 503.950936 188.350478 
L 506.37179 197.105957 
L 508.792644 204.907212 
L 511.213499 207.642772 
L 513.634353 202.65104 
L 516.055207 193.94116 
L 518.476062 187.011583 
L 520.896916 183.632809 
L 523.31777 182.633318 
L 525.738624 183.090892 
L 528.159479 184.833322 
L 530.580333 187.788104 
L 533.001187 191.851588 
L 535.422041 196.905971 
L 537.842896 202.833378 
L 540.26375 209.515935 
L 540.26375 209.515935 
" clip-path="url(#p0995e7cb81)" style="fill: none; stroke: #b200f4; stroke-width: 2; stroke-linecap: square"/>
   </g>
   <g id="line2d_11">
    <path d="M 58.51375 190.472689 
L 60.934604 214.992235 
L 63.355459 229.700921 
L 65.776313 237.225339 
L 68.197167 240.192084 
L 70.618021 241.223408 
L 73.038876 242.075275 
L 75.45973 242.596756 
L 80.301438 242.467191 
L 85.143147 244.396386 
L 87.564001 241.498436 
L 92.40571 223.792906 
L 94.826564 221.141559 
L 97.247418 220.874193 
L 99.668273 211.251441 
L 104.509981 164.248488 
L 106.930835 151.977479 
L 111.772544 145.350068 
L 114.193398 138.222258 
L 116.614253 129.966347 
L 119.035107 123.121549 
L 121.455961 118.264661 
L 123.876815 115.628918 
L 126.29767 116.970379 
L 128.718524 125.121862 
L 131.139378 140.475491 
L 133.560232 158.350199 
L 135.981087 174.211966 
L 138.401941 188.691718 
L 143.243649 220.686058 
L 145.664504 232.653397 
L 148.085358 237.097185 
L 152.927067 237.395738 
L 157.768775 239.955635 
L 160.189629 240.594909 
L 162.610484 241.577269 
L 165.031338 243.65797 
L 167.452192 245.2485 
L 169.873046 243.92622 
L 172.293901 240.127559 
L 174.714755 237.585295 
L 177.135609 238.482027 
L 179.556464 239.000141 
L 181.977318 234.497355 
L 184.398172 226.165924 
L 186.819026 219.094819 
L 189.239881 214.669025 
L 191.660735 206.997885 
L 194.081589 190.985856 
L 196.502443 171.605107 
L 198.923298 157.520914 
L 201.344152 152.805435 
L 203.765006 156.394363 
L 208.606715 175.148239 
L 211.027569 177.992585 
L 213.448423 174.844723 
L 215.869278 170.504995 
L 218.290132 167.801718 
L 220.710986 165.748234 
L 223.13184 163.52135 
L 225.552695 163.765455 
L 227.973549 170.25682 
L 230.394403 182.759007 
L 232.815258 196.692898 
L 235.236112 208.483366 
L 237.656966 218.490326 
L 240.07782 227.422697 
L 242.498675 230.99305 
L 244.919529 221.829614 
L 247.340383 199.140976 
L 249.761237 174.092726 
L 252.182092 157.437197 
L 254.602946 150.327189 
L 257.0238 150.531341 
L 259.444655 156.948514 
L 261.865509 169.666372 
L 264.286363 187.821878 
L 266.707217 207.419341 
L 269.128072 224.068908 
L 271.548926 235.688009 
L 273.96978 241.622974 
L 276.390634 242.787103 
L 278.811489 242.793478 
L 281.232343 244.745188 
L 283.653197 247.407646 
L 286.074052 248.145069 
L 288.494906 246.569446 
L 290.91576 244.577183 
L 293.336614 243.605801 
L 295.757469 243.407977 
L 300.599177 243.372942 
L 305.440886 242.51119 
L 307.86174 242.787179 
L 310.282594 244.423507 
L 312.703448 246.203072 
L 315.124303 246.349494 
L 317.545157 244.097815 
L 319.966011 239.679532 
L 322.386866 233.782503 
L 324.80772 228.295585 
L 327.228574 225.041339 
L 329.649428 223.031988 
L 332.070283 219.673065 
L 334.491137 212.586369 
L 336.911991 199.778566 
L 339.332845 180.042946 
L 351.437117 60.840793 
L 353.857971 41.630609 
L 356.278825 30.845155 
L 358.69968 26.860356 
L 361.120534 24.889502 
L 363.541388 22.471937 
L 365.962242 20.884629 
L 368.383097 21.34263 
L 373.224805 24.850813 
L 375.64566 25.563988 
L 378.066514 24.535568 
L 380.487368 21.846341 
L 382.908222 19.688672 
L 385.329077 20.267705 
L 387.749931 22.671137 
L 390.170785 24.350765 
L 392.591639 24.890464 
L 395.012494 27.168079 
L 397.433348 33.484504 
L 399.854202 42.035924 
L 402.275057 49.947385 
L 404.695911 57.33802 
L 407.116765 67.010889 
L 409.537619 82.692757 
L 411.958474 110.274642 
L 414.379328 154.105766 
L 416.800182 201.913528 
L 419.221036 233.053578 
L 421.641891 240.625771 
L 424.062745 238.24974 
L 426.483599 238.514675 
L 428.904454 241.551944 
L 431.325308 244.028256 
L 433.746162 245.010563 
L 436.167016 245.648522 
L 438.587871 246.752265 
L 441.008725 248.100939 
L 443.429579 249.196393 
L 445.850433 248.550156 
L 448.271288 244.188169 
L 450.692142 234.716131 
L 453.112996 219.578985 
L 455.533851 200.198537 
L 457.954705 186.520279 
L 460.375559 190.049017 
L 465.217268 227.029739 
L 467.638122 236.521755 
L 470.058976 238.958223 
L 472.47983 238.203188 
L 474.900685 237.316287 
L 477.321539 238.914772 
L 479.742393 243.253484 
L 482.163247 247.299792 
L 484.584102 248.338894 
L 487.004956 246.069905 
L 489.42581 240.919754 
L 491.846665 234.607245 
L 494.267519 229.894459 
L 496.688373 226.962623 
L 499.109227 219.841377 
L 501.530082 203.019866 
L 503.950936 181.48152 
L 506.37179 165.034285 
L 508.792644 159.020357 
L 511.213499 162.716987 
L 513.634353 174.705479 
L 516.055207 192.459878 
L 518.476062 213.016631 
L 520.896916 231.070498 
L 523.31777 239.488239 
L 525.738624 235.954204 
L 528.159479 229.236356 
L 530.580333 228.441912 
L 533.001187 233.7041 
L 535.422041 241.079329 
L 537.842896 246.603578 
L 540.26375 246.312825 
L 540.26375 246.312825 
" clip-path="url(#p0995e7cb81)" style="fill: none; stroke: #00c000; stroke-width: 2; stroke-linecap: square"/>
   </g>
   <g id="patch_3">
    <path d="M 58.51375 248.42 
L 58.51375 7.2 
" style="fill: none; stroke: #000000; stroke-width: 2; stroke-linejoin: miter; stroke-linecap: square"/>
   </g>
   <g id="patch_4">
    <path d="M 58.51375 248.42 
L 540.26375 248.42 
" style="fill: none; stroke: #000000; stroke-width: 2; stroke-linejoin: miter; stroke-linecap: square"/>
   </g>
   <g id="legend_1">
    <g id="line2d_12">
     <path d="M 449.66375 20.298437 
L 459.66375 20.298437 
L 469.66375 20.298437 
" style="fill: none; stroke: #b200f4; stroke-width: 2; stroke-linecap: square"/>
    </g>
    <g id="text_11">
     <!-- Membrane -->
     <g transform="translate(477.66375 23.798437) scale(0.1 -0.1)">
      <defs>
       <path id="DejaVuSans-4d" d="M 628 4666 
L 1569 4666 
L 2759 1491 
L 3956 4666 
L 4897 4666 
L 4897 0 
L 4281 0 
L 4281 4097 
L 3078 897 
L 2444 897 
L 1241 4097 
L 1241 0 
L 628 0 
L 628 4666 
z
" transform="scale(0.015625)"/>
       <path id="DejaVuSans-62" d="M 3116 1747 
Q 3116 2381 2855 2742 
Q 2594 3103 2138 3103 
Q 1681 3103 1420 2742 
Q 1159 2381 1159 1747 
Q 1159 1113 1420 752 
Q 1681 391 2138 391 
Q 2594 391 2855 752 
Q 3116 1113 3116 1747 
z
M 1159 2969 
Q 1341 3281 1617 3432 
Q 1894 3584 2278 3584 
Q 2916 3584 3314 3078 
Q 3713 2572 3713 1747 
Q 3713 922 3314 415 
Q 2916 -91 2278 -91 
Q 1894 -91 1617 61 
Q 1341 213 1159 525 
L 1159 0 
L 581 0 
L 581 4863 
L 1159 4863 
L 1159 2969 
z
" transform="scale(0.015625)"/>
      </defs>
      <use xlink:href="#DejaVuSans-4d"/>
      <use xlink:href="#DejaVuSans-65" transform="translate(86.279297 0)"/>
      <use xlink:href="#DejaVuSans-6d" transform="translate(147.802734 0)"/>
      <use xlink:href="#DejaVuSans-62" transform="translate(245.214844 0)"/>
      <use xlink:href="#DejaVuSans-72" transform="translate(308.691406 0)"/>
      <use xlink:href="#DejaVuSans-61" transform="translate(349.804688 0)"/>
      <use xlink:href="#DejaVuSans-6e" transform="translate(411.083984 0)"/>
      <use xlink:href="#DejaVuSans-65" transform="translate(474.462891 0)"/>
     </g>
    </g>
    <g id="line2d_13">
     <path d="M 449.66375 34.976562 
L 459.66375 34.976562 
L 469.66375 34.976562 
" style="fill: none; stroke: #00c000; stroke-width: 2; stroke-linecap: square"/>
    </g>
    <g id="text_12">
     <!-- $\mathrm{FtsZ^{MTS}}$ -->
     <g transform="translate(477.66375 38.476562) scale(0.1 -0.1)">
      <defs>
       <path id="DejaVuSans-46" d="M 628 4666 
L 3309 4666 
L 3309 4134 
L 1259 4134 
L 1259 2759 
L 3109 2759 
L 3109 2228 
L 1259 2228 
L 1259 0 
L 628 0 
L 628 4666 
z
" transform="scale(0.015625)"/>
       <path id="DejaVuSans-5a" d="M 359 4666 
L 4025 4666 
L 4025 4184 
L 1075 531 
L 4097 531 
L 4097 0 
L 288 0 
L 288 481 
L 3238 4134 
L 359 4134 
L 359 4666 
z
" transform="scale(0.015625)"/>
       <path id="DejaVuSans-54" d="M -19 4666 
L 3928 4666 
L 3928 4134 
L 2272 4134 
L 2272 0 
L 1638 0 
L 1638 4134 
L -19 4134 
L -19 4666 
z
" transform="scale(0.015625)"/>
       <path id="DejaVuSans-53" d="M 3425 4513 
L 3425 3897 
Q 3066 4069 2747 4153 
Q 2428 4238 2131 4238 
Q 1616 4238 1336 4038 
Q 1056 3838 1056 3469 
Q 1056 3159 1242 3001 
Q 1428 2844 1947 2747 
L 2328 2669 
Q 3034 2534 3370 2195 
Q 3706 1856 3706 1288 
Q 3706 609 3251 259 
Q 2797 -91 1919 -91 
Q 1588 -91 1214 -16 
Q 841 59 441 206 
L 441 856 
Q 825 641 1194 531 
Q 1563 422 1919 422 
Q 2459 422 2753 634 
Q 3047 847 3047 1241 
Q 3047 1584 2836 1778 
Q 2625 1972 2144 2069 
L 1759 2144 
Q 1053 2284 737 2584 
Q 422 2884 422 3419 
Q 422 4038 858 4394 
Q 1294 4750 2059 4750 
Q 2388 4750 2728 4690 
Q 3069 4631 3425 4513 
z
" transform="scale(0.015625)"/>
      </defs>
      <use xlink:href="#DejaVuSans-46" transform="translate(0 0.765625)"/>
      <use xlink:href="#DejaVuSans-74" transform="translate(57.519531 0.765625)"/>
      <use xlink:href="#DejaVuSans-73" transform="translate(96.728516 0.765625)"/>
      <use xlink:href="#DejaVuSans-5a" transform="translate(148.828125 0.765625)"/>
      <use xlink:href="#DejaVuSans-4d" transform="translate(218.291016 39.046875) scale(0.7)"/>
      <use xlink:href="#DejaVuSans-54" transform="translate(278.686523 39.046875) scale(0.7)"/>
      <use xlink:href="#DejaVuSans-53" transform="translate(321.445312 39.046875) scale(0.7)"/>
     </g>
    </g>
   </g>
  </g>
 </g>
 <defs>
  <clipPath id="p0995e7cb81">
   <rect x="58.51375" y="7.2" width="481.75" height="241.22"/>
  </clipPath>
 </defs>
</svg>
