<?xml version="1.0" encoding="utf-8" standalone="no"?>
<!DOCTYPE svg PUBLIC "-//W3C//DTD SVG 1.1//EN"
  "http://www.w3.org/Graphics/SVG/1.1/DTD/svg11.dtd">
<svg xmlns:xlink="http://www.w3.org/1999/xlink" width="568.599219pt" height="280.669375pt" viewBox="0 0 568.599219 280.669375" xmlns="http://www.w3.org/2000/svg" version="1.1">
 <metadata>
  <rdf:RDF xmlns:dc="http://purl.org/dc/elements/1.1/" xmlns:cc="http://creativecommons.org/ns#" xmlns:rdf="http://www.w3.org/1999/02/22-rdf-syntax-ns#">
   <cc:Work>
    <dc:type rdf:resource="http://purl.org/dc/dcmitype/StillImage"/>
    <dc:date>2025-12-01T04:54:13.649465</dc:date>
    <dc:format>image/svg+xml</dc:format>
    <dc:creator>
     <cc:Agent>
      <dc:title>Matplotlib v3.8.4, https://matplotlib.org/</dc:title>
     </cc:Agent>
    </dc:creator>
   </cc:Work>
  </rdf:RDF>
 </metadata>
 <defs>
  <style type="text/css">*{stroke-linejoin: round; stroke-linecap: butt}</style>
 </defs>
 <g id="figure_1">
  <g id="patch_1">
   <path d="M 0 280.669375 
L 568.599219 280.669375 
L 568.599219 0 
L 0 0 
z
" style="fill: #ffffff"/>
  </g>
  <g id="axes_1">
   <g id="patch_2">
    <path d="M 58.51375 248.42 
L 540.21875 248.42 
L 540.21875 7.2 
L 58.51375 7.2 
z
" style="fill: #ffffff"/>
   </g>
   <g id="matplotlib.axis_1">
    <g id="xtick_1">
     <g id="line2d_1">
      <defs>
       <path id="m1b58780d0c" d="M 0 0 
L 0 8 
" style="stroke: #000000; stroke-width: 2"/>
      </defs>
      <g>
       <use xlink:href="#m1b58780d0c" x="58.51375" y="248.42" style="stroke: #000000; stroke-width: 2"/>
      </g>
     </g>
     <g id="text_1">
      <!-- Pole 1 -->
      <g transform="translate(37.333281 270.557813) scale(0.14 -0.14)">
       <defs>
        <path id="DejaVuSans-50" d="M 1259 4147 
L 1259 2394 
L 2053 2394 
Q 2494 2394 2734 2622 
Q 2975 2850 2975 3272 
Q 2975 3691 2734 3919 
Q 2494 4147 2053 4147 
L 1259 4147 
z
M 628 4666 
L 2053 4666 
Q 2838 4666 3239 4311 
Q 3641 3956 3641 3272 
Q 3641 2581 3239 2228 
Q 2838 1875 2053 1875 
L 1259 1875 
L 1259 0 
L 628 0 
L 628 4666 
z
" transform="scale(0.015625)"/>
        <path id="DejaVuSans-6f" d="M 1959 3097 
Q 1497 3097 1228 2736 
Q 959 2375 959 1747 
Q 959 1119 1226 758 
Q 1494 397 1959 397 
Q 2419 397 2687 759 
Q 2956 1122 2956 1747 
Q 2956 2369 2687 2733 
Q 2419 3097 1959 3097 
z
M 1959 3584 
Q 2709 3584 3137 3096 
Q 3566 2609 3566 1747 
Q 3566 888 3137 398 
Q 2709 -91 1959 -91 
Q 1206 -91 779 398 
Q 353 888 353 1747 
Q 353 2609 779 3096 
Q 1206 3584 1959 3584 
z
" transform="scale(0.015625)"/>
        <path id="DejaVuSans-6c" d="M 603 4863 
L 1178 4863 
L 1178 0 
L 603 0 
L 603 4863 
z
" transform="scale(0.015625)"/>
        <path id="DejaVuSans-65" d="M 3597 1894 
L 3597 1613 
L 953 1613 
Q 991 1019 1311 708 
Q 1631 397 2203 397 
Q 2534 397 2845 478 
Q 3156 559 3463 722 
L 3463 178 
Q 3153 47 2828 -22 
Q 2503 -91 2169 -91 
Q 1331 -91 842 396 
Q 353 884 353 1716 
Q 353 2575 817 3079 
Q 1281 3584 2069 3584 
Q 2775 3584 3186 3129 
Q 3597 2675 3597 1894 
z
M 3022 2063 
Q 3016 2534 2758 2815 
Q 2500 3097 2075 3097 
Q 1594 3097 1305 2825 
Q 1016 2553 972 2059 
L 3022 2063 
z
" transform="scale(0.015625)"/>
        <path id="DejaVuSans-20" transform="scale(0.015625)"/>
        <path id="DejaVuSans-31" d="M 794 531 
L 1825 531 
L 1825 4091 
L 703 3866 
L 703 4441 
L 1819 4666 
L 2450 4666 
L 2450 531 
L 3481 531 
L 3481 0 
L 794 0 
L 794 531 
z
" transform="scale(0.015625)"/>
       </defs>
       <use xlink:href="#DejaVuSans-50"/>
       <use xlink:href="#DejaVuSans-6f" x="56.677734"/>
       <use xlink:href="#DejaVuSans-6c" x="117.859375"/>
       <use xlink:href="#DejaVuSans-65" x="145.642578"/>
       <use xlink:href="#DejaVuSans-20" x="207.166016"/>
       <use xlink:href="#DejaVuSans-31" x="238.953125"/>
      </g>
     </g>
    </g>
    <g id="xtick_2">
     <g id="line2d_2">
      <g>
       <use xlink:href="#m1b58780d0c" x="302.268087" y="248.42" style="stroke: #000000; stroke-width: 2"/>
      </g>
     </g>
     <g id="text_2">
      <!-- Equator -->
      <g transform="translate(274.770119 270.557813) scale(0.14 -0.14)">
       <defs>
        <path id="DejaVuSans-45" d="M 628 4666 
L 3578 4666 
L 3578 4134 
L 1259 4134 
L 1259 2753 
L 3481 2753 
L 3481 2222 
L 1259 2222 
L 1259 531 
L 3634 531 
L 3634 0 
L 628 0 
L 628 4666 
z
" transform="scale(0.015625)"/>
        <path id="DejaVuSans-71" d="M 947 1747 
Q 947 1113 1208 752 
Q 1469 391 1925 391 
Q 2381 391 2643 752 
Q 2906 1113 2906 1747 
Q 2906 2381 2643 2742 
Q 2381 3103 1925 3103 
Q 1469 3103 1208 2742 
Q 947 2381 947 1747 
z
M 2906 525 
Q 2725 213 2448 61 
Q 2172 -91 1784 -91 
Q 1150 -91 751 415 
Q 353 922 353 1747 
Q 353 2572 751 3078 
Q 1150 3584 1784 3584 
Q 2172 3584 2448 3432 
Q 2725 3281 2906 2969 
L 2906 3500 
L 3481 3500 
L 3481 -1331 
L 2906 -1331 
L 2906 525 
z
" transform="scale(0.015625)"/>
        <path id="DejaVuSans-75" d="M 544 1381 
L 544 3500 
L 1119 3500 
L 1119 1403 
Q 1119 906 1312 657 
Q 1506 409 1894 409 
Q 2359 409 2629 706 
Q 2900 1003 2900 1516 
L 2900 3500 
L 3475 3500 
L 3475 0 
L 2900 0 
L 2900 538 
Q 2691 219 2414 64 
Q 2138 -91 1772 -91 
Q 1169 -91 856 284 
Q 544 659 544 1381 
z
M 1991 3584 
L 1991 3584 
z
" transform="scale(0.015625)"/>
        <path id="DejaVuSans-61" d="M 2194 1759 
Q 1497 1759 1228 1600 
Q 959 1441 959 1056 
Q 959 750 1161 570 
Q 1363 391 1709 391 
Q 2188 391 2477 730 
Q 2766 1069 2766 1631 
L 2766 1759 
L 2194 1759 
z
M 3341 1997 
L 3341 0 
L 2766 0 
L 2766 531 
Q 2569 213 2275 61 
Q 1981 -91 1556 -91 
Q 1019 -91 701 211 
Q 384 513 384 1019 
Q 384 1609 779 1909 
Q 1175 2209 1959 2209 
L 2766 2209 
L 2766 2266 
Q 2766 2663 2505 2880 
Q 2244 3097 1772 3097 
Q 1472 3097 1187 3025 
Q 903 2953 641 2809 
L 641 3341 
Q 956 3463 1253 3523 
Q 1550 3584 1831 3584 
Q 2591 3584 2966 3190 
Q 3341 2797 3341 1997 
z
" transform="scale(0.015625)"/>
        <path id="DejaVuSans-74" d="M 1172 4494 
L 1172 3500 
L 2356 3500 
L 2356 3053 
L 1172 3053 
L 1172 1153 
Q 1172 725 1289 603 
Q 1406 481 1766 481 
L 2356 481 
L 2356 0 
L 1766 0 
Q 1100 0 847 248 
Q 594 497 594 1153 
L 594 3053 
L 172 3053 
L 172 3500 
L 594 3500 
L 594 4494 
L 1172 4494 
z
" transform="scale(0.015625)"/>
        <path id="DejaVuSans-72" d="M 2631 2963 
Q 2534 3019 2420 3045 
Q 2306 3072 2169 3072 
Q 1681 3072 1420 2755 
Q 1159 2438 1159 1844 
L 1159 0 
L 581 0 
L 581 3500 
L 1159 3500 
L 1159 2956 
Q 1341 3275 1631 3429 
Q 1922 3584 2338 3584 
Q 2397 3584 2469 3576 
Q 2541 3569 2628 3553 
L 2631 2963 
z
" transform="scale(0.015625)"/>
       </defs>
       <use xlink:href="#DejaVuSans-45"/>
       <use xlink:href="#DejaVuSans-71" x="63.183594"/>
       <use xlink:href="#DejaVuSans-75" x="126.660156"/>
       <use xlink:href="#DejaVuSans-61" x="190.039062"/>
       <use xlink:href="#DejaVuSans-74" x="251.318359"/>
       <use xlink:href="#DejaVuSans-6f" x="290.527344"/>
       <use xlink:href="#DejaVuSans-72" x="351.708984"/>
      </g>
     </g>
    </g>
    <g id="xtick_3">
     <g id="line2d_3">
      <g>
       <use xlink:href="#m1b58780d0c" x="540.21875" y="248.42" style="stroke: #000000; stroke-width: 2"/>
      </g>
     </g>
     <g id="text_3">
      <!-- Pole 2 -->
      <g transform="translate(519.038281 270.557813) scale(0.14 -0.14)">
       <defs>
        <path id="DejaVuSans-32" d="M 1228 531 
L 3431 531 
L 3431 0 
L 469 0 
L 469 531 
Q 828 903 1448 1529 
Q 2069 2156 2228 2338 
Q 2531 2678 2651 2914 
Q 2772 3150 2772 3378 
Q 2772 3750 2511 3984 
Q 2250 4219 1831 4219 
Q 1534 4219 1204 4116 
Q 875 4013 500 3803 
L 500 4441 
Q 881 4594 1212 4672 
Q 1544 4750 1819 4750 
Q 2544 4750 2975 4387 
Q 3406 4025 3406 3419 
Q 3406 3131 3298 2873 
Q 3191 2616 2906 2266 
Q 2828 2175 2409 1742 
Q 1991 1309 1228 531 
z
" transform="scale(0.015625)"/>
       </defs>
       <use xlink:href="#DejaVuSans-50"/>
       <use xlink:href="#DejaVuSans-6f" x="56.677734"/>
       <use xlink:href="#DejaVuSans-6c" x="117.859375"/>
       <use xlink:href="#DejaVuSans-65" x="145.642578"/>
       <use xlink:href="#DejaVuSans-20" x="207.166016"/>
       <use xlink:href="#DejaVuSans-32" x="238.953125"/>
      </g>
     </g>
    </g>
   </g>
   <g id="matplotlib.axis_2">
    <g id="ytick_1">
     <g id="line2d_4">
      <defs>
       <path id="m20712f81c2" d="M 0 0 
L -8 0 
" style="stroke: #000000; stroke-width: 2"/>
      </defs>
      <g>
       <use xlink:href="#m20712f81c2" x="58.51375" y="248.42" style="stroke: #000000; stroke-width: 2"/>
      </g>
     </g>
     <g id="text_4">
      <!-- 0.0 -->
      <g transform="translate(24.749375 253.738906) scale(0.14 -0.14)">
       <defs>
        <path id="DejaVuSans-30" d="M 2034 4250 
Q 1547 4250 1301 3770 
Q 1056 3291 1056 2328 
Q 1056 1369 1301 889 
Q 1547 409 2034 409 
Q 2525 409 2770 889 
Q 3016 1369 3016 2328 
Q 3016 3291 2770 3770 
Q 2525 4250 2034 4250 
z
M 2034 4750 
Q 2819 4750 3233 4129 
Q 3647 3509 3647 2328 
Q 3647 1150 3233 529 
Q 2819 -91 2034 -91 
Q 1250 -91 836 529 
Q 422 1150 422 2328 
Q 422 3509 836 4129 
Q 1250 4750 2034 4750 
z
" transform="scale(0.015625)"/>
        <path id="DejaVuSans-2e" d="M 684 794 
L 1344 794 
L 1344 0 
L 684 0 
L 684 794 
z
" transform="scale(0.015625)"/>
       </defs>
       <use xlink:href="#DejaVuSans-30"/>
       <use xlink:href="#DejaVuSans-2e" x="63.623047"/>
       <use xlink:href="#DejaVuSans-30" x="95.410156"/>
      </g>
     </g>
    </g>
    <g id="ytick_2">
     <g id="line2d_5">
      <g>
       <use xlink:href="#m20712f81c2" x="58.51375" y="202.641625" style="stroke: #000000; stroke-width: 2"/>
      </g>
     </g>
     <g id="text_5">
      <!-- 0.2 -->
      <g transform="translate(24.749375 207.960531) scale(0.14 -0.14)">
       <use xlink:href="#DejaVuSans-30"/>
       <use xlink:href="#DejaVuSans-2e" x="63.623047"/>
       <use xlink:href="#DejaVuSans-32" x="95.410156"/>
      </g>
     </g>
    </g>
    <g id="ytick_3">
     <g id="line2d_6">
      <g>
       <use xlink:href="#m20712f81c2" x="58.51375" y="156.863249" style="stroke: #000000; stroke-width: 2"/>
      </g>
     </g>
     <g id="text_6">
      <!-- 0.4 -->
      <g transform="translate(24.749375 162.182156) scale(0.14 -0.14)">
       <defs>
        <path id="DejaVuSans-34" d="M 2419 4116 
L 825 1625 
L 2419 1625 
L 2419 4116 
z
M 2253 4666 
L 3047 4666 
L 3047 1625 
L 3713 1625 
L 3713 1100 
L 3047 1100 
L 3047 0 
L 2419 0 
L 2419 1100 
L 313 1100 
L 313 1709 
L 2253 4666 
z
" transform="scale(0.015625)"/>
       </defs>
       <use xlink:href="#DejaVuSans-30"/>
       <use xlink:href="#DejaVuSans-2e" x="63.623047"/>
       <use xlink:href="#DejaVuSans-34" x="95.410156"/>
      </g>
     </g>
    </g>
    <g id="ytick_4">
     <g id="line2d_7">
      <g>
       <use xlink:href="#m20712f81c2" x="58.51375" y="111.084874" style="stroke: #000000; stroke-width: 2"/>
      </g>
     </g>
     <g id="text_7">
      <!-- 0.6 -->
      <g transform="translate(24.749375 116.40378) scale(0.14 -0.14)">
       <defs>
        <path id="DejaVuSans-36" d="M 2113 2584 
Q 1688 2584 1439 2293 
Q 1191 2003 1191 1497 
Q 1191 994 1439 701 
Q 1688 409 2113 409 
Q 2538 409 2786 701 
Q 3034 994 3034 1497 
Q 3034 2003 2786 2293 
Q 2538 2584 2113 2584 
z
M 3366 4563 
L 3366 3988 
Q 3128 4100 2886 4159 
Q 2644 4219 2406 4219 
Q 1781 4219 1451 3797 
Q 1122 3375 1075 2522 
Q 1259 2794 1537 2939 
Q 1816 3084 2150 3084 
Q 2853 3084 3261 2657 
Q 3669 2231 3669 1497 
Q 3669 778 3244 343 
Q 2819 -91 2113 -91 
Q 1303 -91 875 529 
Q 447 1150 447 2328 
Q 447 3434 972 4092 
Q 1497 4750 2381 4750 
Q 2619 4750 2861 4703 
Q 3103 4656 3366 4563 
z
" transform="scale(0.015625)"/>
       </defs>
       <use xlink:href="#DejaVuSans-30"/>
       <use xlink:href="#DejaVuSans-2e" x="63.623047"/>
       <use xlink:href="#DejaVuSans-36" x="95.410156"/>
      </g>
     </g>
    </g>
    <g id="ytick_5">
     <g id="line2d_8">
      <g>
       <use xlink:href="#m20712f81c2" x="58.51375" y="65.306499" style="stroke: #000000; stroke-width: 2"/>
      </g>
     </g>
     <g id="text_8">
      <!-- 0.8 -->
      <g transform="translate(24.749375 70.625405) scale(0.14 -0.14)">
       <defs>
        <path id="DejaVuSans-38" d="M 2034 2216 
Q 1584 2216 1326 1975 
Q 1069 1734 1069 1313 
Q 1069 891 1326 650 
Q 1584 409 2034 409 
Q 2484 409 2743 651 
Q 3003 894 3003 1313 
Q 3003 1734 2745 1975 
Q 2488 2216 2034 2216 
z
M 1403 2484 
Q 997 2584 770 2862 
Q 544 3141 544 3541 
Q 544 4100 942 4425 
Q 1341 4750 2034 4750 
Q 2731 4750 3128 4425 
Q 3525 4100 3525 3541 
Q 3525 3141 3298 2862 
Q 3072 2584 2669 2484 
Q 3125 2378 3379 2068 
Q 3634 1759 3634 1313 
Q 3634 634 3220 271 
Q 2806 -91 2034 -91 
Q 1263 -91 848 271 
Q 434 634 434 1313 
Q 434 1759 690 2068 
Q 947 2378 1403 2484 
z
M 1172 3481 
Q 1172 3119 1398 2916 
Q 1625 2713 2034 2713 
Q 2441 2713 2670 2916 
Q 2900 3119 2900 3481 
Q 2900 3844 2670 4047 
Q 2441 4250 2034 4250 
Q 1625 4250 1398 4047 
Q 1172 3844 1172 3481 
z
" transform="scale(0.015625)"/>
       </defs>
       <use xlink:href="#DejaVuSans-30"/>
       <use xlink:href="#DejaVuSans-2e" x="63.623047"/>
       <use xlink:href="#DejaVuSans-38" x="95.410156"/>
      </g>
     </g>
    </g>
    <g id="ytick_6">
     <g id="line2d_9">
      <g>
       <use xlink:href="#m20712f81c2" x="58.51375" y="19.528123" style="stroke: #000000; stroke-width: 2"/>
      </g>
     </g>
     <g id="text_9">
      <!-- 1.0 -->
      <g transform="translate(24.749375 24.84703) scale(0.14 -0.14)">
       <use xlink:href="#DejaVuSans-31"/>
       <use xlink:href="#DejaVuSans-2e" x="63.623047"/>
       <use xlink:href="#DejaVuSans-30" x="95.410156"/>
      </g>
     </g>
    </g>
    <g id="text_10">
     <!-- Normalized Intensity -->
     <g transform="translate(17.837813 200.199844) rotate(-90) scale(0.14 -0.14)">
      <defs>
       <path id="DejaVuSans-4e" d="M 628 4666 
L 1478 4666 
L 3547 763 
L 3547 4666 
L 4159 4666 
L 4159 0 
L 3309 0 
L 1241 3903 
L 1241 0 
L 628 0 
L 628 4666 
z
" transform="scale(0.015625)"/>
       <path id="DejaVuSans-6d" d="M 3328 2828 
Q 3544 3216 3844 3400 
Q 4144 3584 4550 3584 
Q 5097 3584 5394 3201 
Q 5691 2819 5691 2113 
L 5691 0 
L 5113 0 
L 5113 2094 
Q 5113 2597 4934 2840 
Q 4756 3084 4391 3084 
Q 3944 3084 3684 2787 
Q 3425 2491 3425 1978 
L 3425 0 
L 2847 0 
L 2847 2094 
Q 2847 2600 2669 2842 
Q 2491 3084 2119 3084 
Q 1678 3084 1418 2786 
Q 1159 2488 1159 1978 
L 1159 0 
L 581 0 
L 581 3500 
L 1159 3500 
L 1159 2956 
Q 1356 3278 1631 3431 
Q 1906 3584 2284 3584 
Q 2666 3584 2933 3390 
Q 3200 3197 3328 2828 
z
" transform="scale(0.015625)"/>
       <path id="DejaVuSans-69" d="M 603 3500 
L 1178 3500 
L 1178 0 
L 603 0 
L 603 3500 
z
M 603 4863 
L 1178 4863 
L 1178 4134 
L 603 4134 
L 603 4863 
z
" transform="scale(0.015625)"/>
       <path id="DejaVuSans-7a" d="M 353 3500 
L 3084 3500 
L 3084 2975 
L 922 459 
L 3084 459 
L 3084 0 
L 275 0 
L 275 525 
L 2438 3041 
L 353 3041 
L 353 3500 
z
" transform="scale(0.015625)"/>
       <path id="DejaVuSans-64" d="M 2906 2969 
L 2906 4863 
L 3481 4863 
L 3481 0 
L 2906 0 
L 2906 525 
Q 2725 213 2448 61 
Q 2172 -91 1784 -91 
Q 1150 -91 751 415 
Q 353 922 353 1747 
Q 353 2572 751 3078 
Q 1150 3584 1784 3584 
Q 2172 3584 2448 3432 
Q 2725 3281 2906 2969 
z
M 947 1747 
Q 947 1113 1208 752 
Q 1469 391 1925 391 
Q 2381 391 2643 752 
Q 2906 1113 2906 1747 
Q 2906 2381 2643 2742 
Q 2381 3103 1925 3103 
Q 1469 3103 1208 2742 
Q 947 2381 947 1747 
z
" transform="scale(0.015625)"/>
       <path id="DejaVuSans-49" d="M 628 4666 
L 1259 4666 
L 1259 0 
L 628 0 
L 628 4666 
z
" transform="scale(0.015625)"/>
       <path id="DejaVuSans-6e" d="M 3513 2113 
L 3513 0 
L 2938 0 
L 2938 2094 
Q 2938 2591 2744 2837 
Q 2550 3084 2163 3084 
Q 1697 3084 1428 2787 
Q 1159 2491 1159 1978 
L 1159 0 
L 581 0 
L 581 3500 
L 1159 3500 
L 1159 2956 
Q 1366 3272 1645 3428 
Q 1925 3584 2291 3584 
Q 2894 3584 3203 3211 
Q 3513 2838 3513 2113 
z
" transform="scale(0.015625)"/>
       <path id="DejaVuSans-73" d="M 2834 3397 
L 2834 2853 
Q 2591 2978 2328 3040 
Q 2066 3103 1784 3103 
Q 1356 3103 1142 2972 
Q 928 2841 928 2578 
Q 928 2378 1081 2264 
Q 1234 2150 1697 2047 
L 1894 2003 
Q 2506 1872 2764 1633 
Q 3022 1394 3022 966 
Q 3022 478 2636 193 
Q 2250 -91 1575 -91 
Q 1294 -91 989 -36 
Q 684 19 347 128 
L 347 722 
Q 666 556 975 473 
Q 1284 391 1588 391 
Q 1994 391 2212 530 
Q 2431 669 2431 922 
Q 2431 1156 2273 1281 
Q 2116 1406 1581 1522 
L 1381 1569 
Q 847 1681 609 1914 
Q 372 2147 372 2553 
Q 372 3047 722 3315 
Q 1072 3584 1716 3584 
Q 2034 3584 2315 3537 
Q 2597 3491 2834 3397 
z
" transform="scale(0.015625)"/>
       <path id="DejaVuSans-79" d="M 2059 -325 
Q 1816 -950 1584 -1140 
Q 1353 -1331 966 -1331 
L 506 -1331 
L 506 -850 
L 844 -850 
Q 1081 -850 1212 -737 
Q 1344 -625 1503 -206 
L 1606 56 
L 191 3500 
L 800 3500 
L 1894 763 
L 2988 3500 
L 3597 3500 
L 2059 -325 
z
" transform="scale(0.015625)"/>
      </defs>
      <use xlink:href="#DejaVuSans-4e"/>
      <use xlink:href="#DejaVuSans-6f" x="74.804688"/>
      <use xlink:href="#DejaVuSans-72" x="135.986328"/>
      <use xlink:href="#DejaVuSans-6d" x="175.349609"/>
      <use xlink:href="#DejaVuSans-61" x="272.761719"/>
      <use xlink:href="#DejaVuSans-6c" x="334.041016"/>
      <use xlink:href="#DejaVuSans-69" x="361.824219"/>
      <use xlink:href="#DejaVuSans-7a" x="389.607422"/>
      <use xlink:href="#DejaVuSans-65" x="442.097656"/>
      <use xlink:href="#DejaVuSans-64" x="503.621094"/>
      <use xlink:href="#DejaVuSans-20" x="567.097656"/>
      <use xlink:href="#DejaVuSans-49" x="598.884766"/>
      <use xlink:href="#DejaVuSans-6e" x="628.376953"/>
      <use xlink:href="#DejaVuSans-74" x="691.755859"/>
      <use xlink:href="#DejaVuSans-65" x="730.964844"/>
      <use xlink:href="#DejaVuSans-6e" x="792.488281"/>
      <use xlink:href="#DejaVuSans-73" x="855.867188"/>
      <use xlink:href="#DejaVuSans-69" x="907.966797"/>
      <use xlink:href="#DejaVuSans-74" x="935.75"/>
      <use xlink:href="#DejaVuSans-79" x="974.958984"/>
     </g>
    </g>
   </g>
   <g id="line2d_10">
    <path d="M 58.51375 133.596355 
L 60.934378 135.656512 
L 63.355006 139.406413 
L 65.775634 143.872088 
L 68.196263 148.079563 
L 70.616891 151.056644 
L 73.037519 152.185404 
L 75.458147 151.62774 
L 77.878775 149.791305 
L 80.299403 148.108209 
L 82.720031 148.413583 
L 87.561288 153.258075 
L 89.981916 154.304567 
L 92.402544 155.582014 
L 94.823172 159.305424 
L 97.2438 165.694352 
L 99.664428 173.492183 
L 102.085057 181.842711 
L 104.505685 190.816183 
L 106.926313 200.362293 
L 109.346941 208.767937 
L 111.767569 213.670583 
L 114.188197 214.643694 
L 116.608825 213.639538 
L 119.029454 212.459758 
L 121.450082 211.803325 
L 123.87071 211.996754 
L 126.291338 211.800535 
L 128.711966 208.858565 
L 131.132594 201.92626 
L 133.553222 192.097602 
L 135.973851 180.841237 
L 138.394479 170.204972 
L 140.815107 162.427451 
L 143.235735 158.245339 
L 145.656363 156.608627 
L 148.076991 155.942273 
L 150.497619 153.160333 
L 152.918247 145.22444 
L 155.338876 134.080145 
L 157.759504 125.12139 
L 160.180132 121.583792 
L 162.60076 122.266105 
L 165.021388 125.543185 
L 167.442016 130.443176 
L 172.283273 141.85997 
L 174.703901 145.812934 
L 177.124529 147.54477 
L 179.545157 149.799379 
L 181.965785 155.755382 
L 184.386413 165.151755 
L 186.807041 175.419554 
L 189.22767 184.919219 
L 194.068926 202.614044 
L 196.489554 210.485199 
L 198.910182 216.549043 
L 201.33081 220.596554 
L 203.751438 223.245544 
L 206.172067 225.021061 
L 208.592695 225.992963 
L 211.013323 226.110172 
L 213.433951 225.015062 
L 215.854579 222.156331 
L 218.275207 217.631795 
L 220.695835 212.755396 
L 223.116464 208.552048 
L 225.537092 203.525186 
L 227.95772 195.36239 
L 230.378348 184.860664 
L 232.798976 176.18188 
L 235.219604 172.242178 
L 237.640232 171.400563 
L 240.060861 171.313572 
L 242.481489 172.055411 
L 244.902117 175.216515 
L 247.322745 181.43378 
L 249.743373 189.581122 
L 252.164001 198.216746 
L 254.584629 205.145135 
L 257.005258 207.971852 
L 259.425886 206.065992 
L 261.846514 200.645508 
L 264.267142 192.642369 
L 266.68777 181.826931 
L 269.108398 168.107268 
L 271.529026 155.317685 
L 273.949655 149.632025 
L 276.370283 152.10817 
L 278.790911 154.814069 
L 281.211539 150.905456 
L 283.632167 144.594078 
L 286.052795 143.623235 
L 288.473423 149.063669 
L 290.894052 155.205165 
L 293.31468 157.40503 
L 295.735308 155.137045 
L 298.155936 148.992183 
L 300.576564 143.165923 
L 302.997192 143.916904 
L 305.41782 152.150771 
L 307.838448 159.681867 
L 310.259077 159.407239 
L 312.679705 154.70691 
L 315.100333 152.221352 
L 317.520961 153.440952 
L 319.941589 154.785672 
L 322.362217 154.269308 
L 324.782845 155.147631 
L 327.203474 161.063416 
L 329.624102 170.117116 
L 332.04473 177.26251 
L 334.465358 179.406382 
L 336.885986 176.711335 
L 339.306614 169.703955 
L 341.727242 159.235674 
L 344.147871 146.228476 
L 346.568499 130.887875 
L 348.989127 112.737577 
L 351.409755 92.637758 
L 353.830383 75.265919 
L 356.251011 65.265512 
L 358.671639 60.632969 
L 361.092268 55.734458 
L 363.512896 48.420842 
L 365.933524 42.12369 
L 368.354152 40.034963 
L 370.77478 41.698168 
L 375.616036 49.282129 
L 378.036665 50.402413 
L 382.877921 45.605093 
L 385.298549 47.45622 
L 390.139805 58.213123 
L 392.560433 61.669712 
L 394.981062 62.617783 
L 397.40169 61.245827 
L 399.822318 60.349769 
L 402.242946 63.293757 
L 404.663574 69.406704 
L 407.084202 74.404905 
L 409.50483 74.955424 
L 411.925459 70.541523 
L 414.346087 61.314579 
L 419.187343 37.520958 
L 421.607971 28.046766 
L 424.028599 21.63711 
L 426.449227 18.723638 
L 428.869856 18.769046 
L 431.290484 21.077267 
L 433.711112 27.137751 
L 436.13174 40.327964 
L 438.552368 60.48105 
L 440.972996 78.330699 
L 443.393624 84.585178 
L 445.814253 81.668621 
L 448.234881 77.798817 
L 450.655509 76.756309 
L 453.076137 75.875834 
L 455.496765 73.082979 
L 457.917393 71.166059 
L 460.338021 74.075353 
L 462.758649 82.453533 
L 465.179278 94.160717 
L 467.599906 106.77543 
L 470.020534 117.400978 
L 472.441162 123.632253 
L 474.86179 127.631218 
L 477.282418 133.683447 
L 479.703046 141.740006 
L 482.123675 145.693015 
L 484.544303 141.498377 
L 486.964931 135.916336 
L 489.385559 138.070028 
L 491.806187 148.256826 
L 494.226815 159.591143 
L 496.647443 167.568456 
L 499.068072 173.786585 
L 501.4887 180.509769 
L 503.909328 188.350478 
L 506.329956 197.105957 
L 508.750584 204.907212 
L 511.171212 207.642772 
L 513.59184 202.65104 
L 516.012469 193.94116 
L 518.433097 187.011583 
L 520.853725 183.632809 
L 523.274353 182.633318 
L 525.694981 183.090892 
L 528.115609 184.833322 
L 530.536237 187.788104 
L 532.956866 191.851588 
L 535.377494 196.905971 
L 537.798122 202.833378 
L 540.21875 209.515935 
L 540.21875 209.515935 
" clip-path="url(#paa066301b8)" style="fill: none; stroke: #b200f4; stroke-width: 2; stroke-linecap: square"/>
   </g>
   <g id="line2d_11">
    <path d="M 58.51375 190.472689 
L 60.934378 214.992235 
L 63.355006 229.700921 
L 65.775634 237.225339 
L 68.196263 240.192084 
L 70.616891 241.223408 
L 73.037519 242.075275 
L 75.458147 242.596756 
L 80.299403 242.467191 
L 85.14066 244.396386 
L 87.561288 241.498436 
L 92.402544 223.792906 
L 94.823172 221.141559 
L 97.2438 220.874193 
L 99.664428 211.251441 
L 104.505685 164.248488 
L 106.926313 151.977479 
L 111.767569 145.350068 
L 114.188197 138.222258 
L 116.608825 129.966347 
L 119.029454 123.121549 
L 121.450082 118.264661 
L 123.87071 115.628918 
L 126.291338 116.970379 
L 128.711966 125.121862 
L 131.132594 140.475491 
L 133.553222 158.350199 
L 135.973851 174.211966 
L 138.394479 188.691718 
L 143.235735 220.686058 
L 145.656363 232.653397 
L 148.076991 237.097185 
L 152.918247 237.395738 
L 157.759504 239.955635 
L 160.180132 240.594909 
L 162.60076 241.577269 
L 165.021388 243.65797 
L 167.442016 245.2485 
L 169.862644 243.92622 
L 172.283273 240.127559 
L 174.703901 237.585295 
L 177.124529 238.482027 
L 179.545157 239.000141 
L 181.965785 234.497355 
L 184.386413 226.165924 
L 186.807041 219.094819 
L 189.22767 214.669025 
L 191.648298 206.997885 
L 194.068926 190.985856 
L 196.489554 171.605107 
L 198.910182 157.520914 
L 201.33081 152.805435 
L 203.751438 156.394363 
L 208.592695 175.148239 
L 211.013323 177.992585 
L 213.433951 174.844723 
L 215.854579 170.504995 
L 218.275207 167.801718 
L 220.695835 165.748234 
L 223.116464 163.52135 
L 225.537092 163.765455 
L 227.95772 170.25682 
L 230.378348 182.759007 
L 232.798976 196.692898 
L 235.219604 208.483366 
L 237.640232 218.490326 
L 240.060861 227.422697 
L 242.481489 230.99305 
L 244.902117 221.829614 
L 247.322745 199.140976 
L 249.743373 174.092726 
L 252.164001 157.437197 
L 254.584629 150.327189 
L 257.005258 150.531341 
L 259.425886 156.948514 
L 261.846514 169.666372 
L 264.267142 187.821878 
L 266.68777 207.419341 
L 269.108398 224.068908 
L 271.529026 235.688009 
L 273.949655 241.622974 
L 276.370283 242.787103 
L 278.790911 242.793478 
L 281.211539 244.745188 
L 283.632167 247.407646 
L 286.052795 248.145069 
L 288.473423 246.569446 
L 290.894052 244.577183 
L 293.31468 243.605801 
L 295.735308 243.407977 
L 300.576564 243.372942 
L 305.41782 242.51119 
L 307.838448 242.787179 
L 310.259077 244.423507 
L 312.679705 246.203072 
L 315.100333 246.349494 
L 317.520961 244.097815 
L 319.941589 239.679532 
L 322.362217 233.782503 
L 324.782845 228.295585 
L 327.203474 225.041339 
L 329.624102 223.031988 
L 332.04473 219.673065 
L 334.465358 212.586369 
L 336.885986 199.778566 
L 339.306614 180.042946 
L 351.409755 60.840793 
L 353.830383 41.630609 
L 356.251011 30.845155 
L 358.671639 26.860356 
L 361.092268 24.889502 
L 363.512896 22.471937 
L 365.933524 20.884629 
L 368.354152 21.34263 
L 373.195408 24.850813 
L 375.616036 25.563988 
L 378.036665 24.535568 
L 380.457293 21.846341 
L 382.877921 19.688672 
L 385.298549 20.267705 
L 387.719177 22.671137 
L 390.139805 24.350765 
L 392.560433 24.890464 
L 394.981062 27.168079 
L 397.40169 33.484504 
L 399.822318 42.035924 
L 402.242946 49.947385 
L 404.663574 57.33802 
L 407.084202 67.010889 
L 409.50483 82.692757 
L 411.925459 110.274642 
L 414.346087 154.105766 
L 416.766715 201.913528 
L 419.187343 233.053578 
L 421.607971 240.625771 
L 424.028599 238.24974 
L 426.449227 238.514675 
L 428.869856 241.551944 
L 431.290484 244.028256 
L 433.711112 245.010563 
L 436.13174 245.648522 
L 438.552368 246.752265 
L 440.972996 248.100939 
L 443.393624 249.196393 
L 445.814253 248.550156 
L 448.234881 244.188169 
L 450.655509 234.716131 
L 453.076137 219.578985 
L 455.496765 200.198537 
L 457.917393 186.520279 
L 460.338021 190.049017 
L 465.179278 227.029739 
L 467.599906 236.521755 
L 470.020534 238.958223 
L 472.441162 238.203188 
L 474.86179 237.316287 
L 477.282418 238.914772 
L 479.703046 243.253484 
L 482.123675 247.299792 
L 484.544303 248.338894 
L 486.964931 246.069905 
L 489.385559 240.919754 
L 491.806187 234.607245 
L 494.226815 229.894459 
L 496.647443 226.962623 
L 499.068072 219.841377 
L 501.4887 203.019866 
L 503.909328 181.48152 
L 506.329956 165.034285 
L 508.750584 159.020357 
L 511.171212 162.716987 
L 513.59184 174.705479 
L 516.012469 192.459878 
L 518.433097 213.016631 
L 520.853725 231.070498 
L 523.274353 239.488239 
L 525.694981 235.954204 
L 528.115609 229.236356 
L 530.536237 228.441912 
L 532.956866 233.7041 
L 535.377494 241.079329 
L 537.798122 246.603578 
L 540.21875 246.312825 
L 540.21875 246.312825 
" clip-path="url(#paa066301b8)" style="fill: none; stroke: #00c000; stroke-width: 2; stroke-linecap: square"/>
   </g>
   <g id="patch_3">
    <path d="M 58.51375 248.42 
L 58.51375 7.2 
" style="fill: none; stroke: #000000; stroke-width: 2; stroke-linejoin: miter; stroke-linecap: square"/>
   </g>
   <g id="patch_4">
    <path d="M 58.51375 248.42 
L 540.21875 248.42 
" style="fill: none; stroke: #000000; stroke-width: 2; stroke-linejoin: miter; stroke-linecap: square"/>
   </g>
   <g id="legend_1">
    <g id="line2d_12">
     <path d="M 449.61875 20.298437 
L 459.61875 20.298437 
L 469.61875 20.298437 
" style="fill: none; stroke: #b200f4; stroke-width: 2; stroke-linecap: square"/>
    </g>
    <g id="text_11">
     <!-- Membrane -->
     <g transform="translate(477.61875 23.798437) scale(0.1 -0.1)">
      <defs>
       <path id="DejaVuSans-4d" d="M 628 4666 
L 1569 4666 
L 2759 1491 
L 3956 4666 
L 4897 4666 
L 4897 0 
L 4281 0 
L 4281 4097 
L 3078 897 
L 2444 897 
L 1241 4097 
L 1241 0 
L 628 0 
L 628 4666 
z
" transform="scale(0.015625)"/>
       <path id="DejaVuSans-62" d="M 3116 1747 
Q 3116 2381 2855 2742 
Q 2594 3103 2138 3103 
Q 1681 3103 1420 2742 
Q 1159 2381 1159 1747 
Q 1159 1113 1420 752 
Q 1681 391 2138 391 
Q 2594 391 2855 752 
Q 3116 1113 3116 1747 
z
M 1159 2969 
Q 1341 3281 1617 3432 
Q 1894 3584 2278 3584 
Q 2916 3584 3314 3078 
Q 3713 2572 3713 1747 
Q 3713 922 3314 415 
Q 2916 -91 2278 -91 
Q 1894 -91 1617 61 
Q 1341 213 1159 525 
L 1159 0 
L 581 0 
L 581 4863 
L 1159 4863 
L 1159 2969 
z
" transform="scale(0.015625)"/>
      </defs>
      <use xlink:href="#DejaVuSans-4d"/>
      <use xlink:href="#DejaVuSans-65" x="86.279297"/>
      <use xlink:href="#DejaVuSans-6d" x="147.802734"/>
      <use xlink:href="#DejaVuSans-62" x="245.214844"/>
      <use xlink:href="#DejaVuSans-72" x="308.691406"/>
      <use xlink:href="#DejaVuSans-61" x="349.804688"/>
      <use xlink:href="#DejaVuSans-6e" x="411.083984"/>
      <use xlink:href="#DejaVuSans-65" x="474.462891"/>
     </g>
    </g>
    <g id="line2d_13">
     <path d="M 449.61875 34.976562 
L 459.61875 34.976562 
L 469.61875 34.976562 
" style="fill: none; stroke: #00c000; stroke-width: 2; stroke-linecap: square"/>
    </g>
    <g id="text_12">
     <!-- $\mathrm{FtsZ^{MTS}}$ -->
     <g transform="translate(477.61875 38.476562) scale(0.1 -0.1)">
      <defs>
       <path id="DejaVuSans-46" d="M 628 4666 
L 3309 4666 
L 3309 4134 
L 1259 4134 
L 1259 2759 
L 3109 2759 
L 3109 2228 
L 1259 2228 
L 1259 0 
L 628 0 
L 628 4666 
z
" transform="scale(0.015625)"/>
       <path id="DejaVuSans-5a" d="M 359 4666 
L 4025 4666 
L 4025 4184 
L 1075 531 
L 4097 531 
L 4097 0 
L 288 0 
L 288 481 
L 3238 4134 
L 359 4134 
L 359 4666 
z
" transform="scale(0.015625)"/>
       <path id="DejaVuSans-54" d="M -19 4666 
L 3928 4666 
L 3928 4134 
L 2272 4134 
L 2272 0 
L 1638 0 
L 1638 4134 
L -19 4134 
L -19 4666 
z
" transform="scale(0.015625)"/>
       <path id="DejaVuSans-53" d="M 3425 4513 
L 3425 3897 
Q 3066 4069 2747 4153 
Q 2428 4238 2131 4238 
Q 1616 4238 1336 4038 
Q 1056 3838 1056 3469 
Q 1056 3159 1242 3001 
Q 1428 2844 1947 2747 
L 2328 2669 
Q 3034 2534 3370 2195 
Q 3706 1856 3706 1288 
Q 3706 609 3251 259 
Q 2797 -91 1919 -91 
Q 1588 -91 1214 -16 
Q 841 59 441 206 
L 441 856 
Q 825 641 1194 531 
Q 1563 422 1919 422 
Q 2459 422 2753 634 
Q 3047 847 3047 1241 
Q 3047 1584 2836 1778 
Q 2625 1972 2144 2069 
L 1759 2144 
Q 1053 2284 737 2584 
Q 422 2884 422 3419 
Q 422 4038 858 4394 
Q 1294 4750 2059 4750 
Q 2388 4750 2728 4690 
Q 3069 4631 3425 4513 
z
" transform="scale(0.015625)"/>
      </defs>
      <use xlink:href="#DejaVuSans-46" transform="translate(0 0.765625)"/>
      <use xlink:href="#DejaVuSans-74" transform="translate(57.519531 0.765625)"/>
      <use xlink:href="#DejaVuSans-73" transform="translate(96.728516 0.765625)"/>
      <use xlink:href="#DejaVuSans-5a" transform="translate(148.828125 0.765625)"/>
      <use xlink:href="#DejaVuSans-4d" transform="translate(218.291016 39.046875) scale(0.7)"/>
      <use xlink:href="#DejaVuSans-54" transform="translate(278.686523 39.046875) scale(0.7)"/>
      <use xlink:href="#DejaVuSans-53" transform="translate(321.445312 39.046875) scale(0.7)"/>
     </g>
    </g>
   </g>
  </g>
 </g>
 <defs>
  <clipPath id="paa066301b8">
   <rect x="58.51375" y="7.2" width="481.705" height="241.22"/>
  </clipPath>
 </defs>
</svg>
