<?xml version="1.0" encoding="utf-8" standalone="no"?>
<!DOCTYPE svg PUBLIC "-//W3C//DTD SVG 1.1//EN"
  "http://www.w3.org/Graphics/SVG/1.1/DTD/svg11.dtd">
<svg xmlns:xlink="http://www.w3.org/1999/xlink" width="496.48511pt" height="281.751562pt" viewBox="0 0 496.48511 281.751562" xmlns="http://www.w3.org/2000/svg" version="1.1">
 <metadata>
  <rdf:RDF xmlns:dc="http://purl.org/dc/elements/1.1/" xmlns:cc="http://creativecommons.org/ns#" xmlns:rdf="http://www.w3.org/1999/02/22-rdf-syntax-ns#">
   <cc:Work>
    <dc:type rdf:resource="http://purl.org/dc/dcmitype/StillImage"/>
    <dc:date>2026-01-16T15:20:33.694702</dc:date>
    <dc:format>image/svg+xml</dc:format>
    <dc:creator>
     <cc:Agent>
      <dc:title>Matplotlib v3.10.8, https://matplotlib.org/</dc:title>
     </cc:Agent>
    </dc:creator>
   </cc:Work>
  </rdf:RDF>
 </metadata>
 <defs>
  <style type="text/css">*{stroke-linejoin: round; stroke-linecap: butt}</style>
 </defs>
 <g id="figure_1">
  <g id="patch_1">
   <path d="M 0 281.751562 
L 496.48511 281.751562 
L 496.48511 0 
L 0 0 
z
" style="fill: #ffffff"/>
  </g>
  <g id="axes_1">
   <g id="patch_2">
    <path d="M 64.9075 234.017187 
L 373.8255 234.017187 
L 373.8255 30.877187 
L 64.9075 30.877187 
z
" style="fill: #ffffff"/>
   </g>
   <g id="patch_3">
    <path d="M 177.241318 234.017187 
L 373.8255 234.017187 
L 373.8255 30.877187 
L 177.241318 30.877187 
z
" clip-path="url(#pfd505d2aed)" style="fill: #84888f; opacity: 0.2"/>
   </g>
   <g id="matplotlib.axis_1">
    <g id="xtick_1">
     <g id="line2d_1">
      <defs>
       <path id="ma921002258" d="M 0 0 
L 0 4 
" style="stroke: #000000; stroke-width: 2"/>
      </defs>
      <g>
       <use xlink:href="#ma921002258" x="64.9075" y="234.017187" style="stroke: #000000; stroke-width: 2"/>
      </g>
     </g>
    </g>
    <g id="xtick_2">
     <g id="line2d_2">
      <g>
       <use xlink:href="#ma921002258" x="92.990955" y="234.017187" style="stroke: #000000; stroke-width: 2"/>
      </g>
     </g>
     <g id="text_1">
      <!-- 0 -->
      <g transform="translate(88.537205 252.155) scale(0.14 -0.14)">
       <defs>
        <path id="DejaVuSans-30" d="M 2034 4250 
Q 1547 4250 1301 3770 
Q 1056 3291 1056 2328 
Q 1056 1369 1301 889 
Q 1547 409 2034 409 
Q 2525 409 2770 889 
Q 3016 1369 3016 2328 
Q 3016 3291 2770 3770 
Q 2525 4250 2034 4250 
z
M 2034 4750 
Q 2819 4750 3233 4129 
Q 3647 3509 3647 2328 
Q 3647 1150 3233 529 
Q 2819 -91 2034 -91 
Q 1250 -91 836 529 
Q 422 1150 422 2328 
Q 422 3509 836 4129 
Q 1250 4750 2034 4750 
z
" transform="scale(0.015625)"/>
       </defs>
       <use xlink:href="#DejaVuSans-30"/>
      </g>
     </g>
    </g>
    <g id="xtick_3">
     <g id="line2d_3">
      <g>
       <use xlink:href="#ma921002258" x="121.074409" y="234.017187" style="stroke: #000000; stroke-width: 2"/>
      </g>
     </g>
    </g>
    <g id="xtick_4">
     <g id="line2d_4">
      <g>
       <use xlink:href="#ma921002258" x="149.157864" y="234.017187" style="stroke: #000000; stroke-width: 2"/>
      </g>
     </g>
    </g>
    <g id="xtick_5">
     <g id="line2d_5">
      <g>
       <use xlink:href="#ma921002258" x="177.241318" y="234.017187" style="stroke: #000000; stroke-width: 2"/>
      </g>
     </g>
    </g>
    <g id="xtick_6">
     <g id="line2d_6">
      <g>
       <use xlink:href="#ma921002258" x="205.324773" y="234.017187" style="stroke: #000000; stroke-width: 2"/>
      </g>
     </g>
    </g>
    <g id="xtick_7">
     <g id="line2d_7">
      <g>
       <use xlink:href="#ma921002258" x="233.408227" y="234.017187" style="stroke: #000000; stroke-width: 2"/>
      </g>
     </g>
     <g id="text_2">
      <!-- 5 -->
      <g transform="translate(228.954477 252.155) scale(0.14 -0.14)">
       <defs>
        <path id="DejaVuSans-35" d="M 691 4666 
L 3169 4666 
L 3169 4134 
L 1269 4134 
L 1269 2991 
Q 1406 3038 1543 3061 
Q 1681 3084 1819 3084 
Q 2600 3084 3056 2656 
Q 3513 2228 3513 1497 
Q 3513 744 3044 326 
Q 2575 -91 1722 -91 
Q 1428 -91 1123 -41 
Q 819 9 494 109 
L 494 744 
Q 775 591 1075 516 
Q 1375 441 1709 441 
Q 2250 441 2565 725 
Q 2881 1009 2881 1497 
Q 2881 1984 2565 2268 
Q 2250 2553 1709 2553 
Q 1456 2553 1204 2497 
Q 953 2441 691 2322 
L 691 4666 
z
" transform="scale(0.015625)"/>
       </defs>
       <use xlink:href="#DejaVuSans-35"/>
      </g>
     </g>
    </g>
    <g id="xtick_8">
     <g id="line2d_8">
      <g>
       <use xlink:href="#ma921002258" x="261.491682" y="234.017187" style="stroke: #000000; stroke-width: 2"/>
      </g>
     </g>
    </g>
    <g id="xtick_9">
     <g id="line2d_9">
      <g>
       <use xlink:href="#ma921002258" x="289.575136" y="234.017187" style="stroke: #000000; stroke-width: 2"/>
      </g>
     </g>
    </g>
    <g id="xtick_10">
     <g id="line2d_10">
      <g>
       <use xlink:href="#ma921002258" x="317.658591" y="234.017187" style="stroke: #000000; stroke-width: 2"/>
      </g>
     </g>
    </g>
    <g id="xtick_11">
     <g id="line2d_11">
      <g>
       <use xlink:href="#ma921002258" x="345.742045" y="234.017187" style="stroke: #000000; stroke-width: 2"/>
      </g>
     </g>
    </g>
    <g id="xtick_12">
     <g id="line2d_12">
      <g>
       <use xlink:href="#ma921002258" x="373.8255" y="234.017187" style="stroke: #000000; stroke-width: 2"/>
      </g>
     </g>
     <g id="text_3">
      <!-- 10 -->
      <g transform="translate(364.918 252.155) scale(0.14 -0.14)">
       <defs>
        <path id="DejaVuSans-31" d="M 794 531 
L 1825 531 
L 1825 4091 
L 703 3866 
L 703 4441 
L 1819 4666 
L 2450 4666 
L 2450 531 
L 3481 531 
L 3481 0 
L 794 0 
L 794 531 
z
" transform="scale(0.015625)"/>
       </defs>
       <use xlink:href="#DejaVuSans-31"/>
       <use xlink:href="#DejaVuSans-30" transform="translate(63.623047 0)"/>
      </g>
     </g>
    </g>
    <g id="text_4">
     <!-- Length (μm) -->
     <g transform="translate(170.104 271.224063) scale(0.16 -0.16)">
      <defs>
       <path id="DejaVuSans-4c" d="M 628 4666 
L 1259 4666 
L 1259 531 
L 3531 531 
L 3531 0 
L 628 0 
L 628 4666 
z
" transform="scale(0.015625)"/>
       <path id="DejaVuSans-65" d="M 3597 1894 
L 3597 1613 
L 953 1613 
Q 991 1019 1311 708 
Q 1631 397 2203 397 
Q 2534 397 2845 478 
Q 3156 559 3463 722 
L 3463 178 
Q 3153 47 2828 -22 
Q 2503 -91 2169 -91 
Q 1331 -91 842 396 
Q 353 884 353 1716 
Q 353 2575 817 3079 
Q 1281 3584 2069 3584 
Q 2775 3584 3186 3129 
Q 3597 2675 3597 1894 
z
M 3022 2063 
Q 3016 2534 2758 2815 
Q 2500 3097 2075 3097 
Q 1594 3097 1305 2825 
Q 1016 2553 972 2059 
L 3022 2063 
z
" transform="scale(0.015625)"/>
       <path id="DejaVuSans-6e" d="M 3513 2113 
L 3513 0 
L 2938 0 
L 2938 2094 
Q 2938 2591 2744 2837 
Q 2550 3084 2163 3084 
Q 1697 3084 1428 2787 
Q 1159 2491 1159 1978 
L 1159 0 
L 581 0 
L 581 3500 
L 1159 3500 
L 1159 2956 
Q 1366 3272 1645 3428 
Q 1925 3584 2291 3584 
Q 2894 3584 3203 3211 
Q 3513 2838 3513 2113 
z
" transform="scale(0.015625)"/>
       <path id="DejaVuSans-67" d="M 2906 1791 
Q 2906 2416 2648 2759 
Q 2391 3103 1925 3103 
Q 1463 3103 1205 2759 
Q 947 2416 947 1791 
Q 947 1169 1205 825 
Q 1463 481 1925 481 
Q 2391 481 2648 825 
Q 2906 1169 2906 1791 
z
M 3481 434 
Q 3481 -459 3084 -895 
Q 2688 -1331 1869 -1331 
Q 1566 -1331 1297 -1286 
Q 1028 -1241 775 -1147 
L 775 -588 
Q 1028 -725 1275 -790 
Q 1522 -856 1778 -856 
Q 2344 -856 2625 -561 
Q 2906 -266 2906 331 
L 2906 616 
Q 2728 306 2450 153 
Q 2172 0 1784 0 
Q 1141 0 747 490 
Q 353 981 353 1791 
Q 353 2603 747 3093 
Q 1141 3584 1784 3584 
Q 2172 3584 2450 3431 
Q 2728 3278 2906 2969 
L 2906 3500 
L 3481 3500 
L 3481 434 
z
" transform="scale(0.015625)"/>
       <path id="DejaVuSans-74" d="M 1172 4494 
L 1172 3500 
L 2356 3500 
L 2356 3053 
L 1172 3053 
L 1172 1153 
Q 1172 725 1289 603 
Q 1406 481 1766 481 
L 2356 481 
L 2356 0 
L 1766 0 
Q 1100 0 847 248 
Q 594 497 594 1153 
L 594 3053 
L 172 3053 
L 172 3500 
L 594 3500 
L 594 4494 
L 1172 4494 
z
" transform="scale(0.015625)"/>
       <path id="DejaVuSans-68" d="M 3513 2113 
L 3513 0 
L 2938 0 
L 2938 2094 
Q 2938 2591 2744 2837 
Q 2550 3084 2163 3084 
Q 1697 3084 1428 2787 
Q 1159 2491 1159 1978 
L 1159 0 
L 581 0 
L 581 4863 
L 1159 4863 
L 1159 2956 
Q 1366 3272 1645 3428 
Q 1925 3584 2291 3584 
Q 2894 3584 3203 3211 
Q 3513 2838 3513 2113 
z
" transform="scale(0.015625)"/>
       <path id="DejaVuSans-20" transform="scale(0.015625)"/>
       <path id="DejaVuSans-28" d="M 1984 4856 
Q 1566 4138 1362 3434 
Q 1159 2731 1159 2009 
Q 1159 1288 1364 580 
Q 1569 -128 1984 -844 
L 1484 -844 
Q 1016 -109 783 600 
Q 550 1309 550 2009 
Q 550 2706 781 3412 
Q 1013 4119 1484 4856 
L 1984 4856 
z
" transform="scale(0.015625)"/>
       <path id="DejaVuSans-3bc" d="M 544 -1331 
L 544 3500 
L 1119 3500 
L 1119 1325 
Q 1119 872 1334 640 
Q 1550 409 1972 409 
Q 2434 409 2667 671 
Q 2900 934 2900 1459 
L 2900 3500 
L 3475 3500 
L 3475 806 
Q 3475 619 3529 530 
Q 3584 441 3700 441 
Q 3728 441 3778 458 
Q 3828 475 3916 513 
L 3916 50 
Q 3788 -22 3673 -56 
Q 3559 -91 3450 -91 
Q 3234 -91 3106 31 
Q 2978 153 2931 403 
Q 2775 156 2548 32 
Q 2322 -91 2016 -91 
Q 1697 -91 1473 31 
Q 1250 153 1119 397 
L 1119 -1331 
L 544 -1331 
z
" transform="scale(0.015625)"/>
       <path id="DejaVuSans-6d" d="M 3328 2828 
Q 3544 3216 3844 3400 
Q 4144 3584 4550 3584 
Q 5097 3584 5394 3201 
Q 5691 2819 5691 2113 
L 5691 0 
L 5113 0 
L 5113 2094 
Q 5113 2597 4934 2840 
Q 4756 3084 4391 3084 
Q 3944 3084 3684 2787 
Q 3425 2491 3425 1978 
L 3425 0 
L 2847 0 
L 2847 2094 
Q 2847 2600 2669 2842 
Q 2491 3084 2119 3084 
Q 1678 3084 1418 2786 
Q 1159 2488 1159 1978 
L 1159 0 
L 581 0 
L 581 3500 
L 1159 3500 
L 1159 2956 
Q 1356 3278 1631 3431 
Q 1906 3584 2284 3584 
Q 2666 3584 2933 3390 
Q 3200 3197 3328 2828 
z
" transform="scale(0.015625)"/>
       <path id="DejaVuSans-29" d="M 513 4856 
L 1013 4856 
Q 1481 4119 1714 3412 
Q 1947 2706 1947 2009 
Q 1947 1309 1714 600 
Q 1481 -109 1013 -844 
L 513 -844 
Q 928 -128 1133 580 
Q 1338 1288 1338 2009 
Q 1338 2731 1133 3434 
Q 928 4138 513 4856 
z
" transform="scale(0.015625)"/>
      </defs>
      <use xlink:href="#DejaVuSans-4c"/>
      <use xlink:href="#DejaVuSans-65" transform="translate(53.962891 0)"/>
      <use xlink:href="#DejaVuSans-6e" transform="translate(115.486328 0)"/>
      <use xlink:href="#DejaVuSans-67" transform="translate(178.865234 0)"/>
      <use xlink:href="#DejaVuSans-74" transform="translate(242.341797 0)"/>
      <use xlink:href="#DejaVuSans-68" transform="translate(281.550781 0)"/>
      <use xlink:href="#DejaVuSans-20" transform="translate(344.929688 0)"/>
      <use xlink:href="#DejaVuSans-28" transform="translate(376.716797 0)"/>
      <use xlink:href="#DejaVuSans-3bc" transform="translate(415.730469 0)"/>
      <use xlink:href="#DejaVuSans-6d" transform="translate(479.353516 0)"/>
      <use xlink:href="#DejaVuSans-29" transform="translate(576.765625 0)"/>
     </g>
    </g>
   </g>
   <g id="matplotlib.axis_2">
    <g id="ytick_1">
     <g id="line2d_13">
      <defs>
       <path id="m3141098273" d="M 0 0 
L -8 0 
" style="stroke: #000000; stroke-width: 2"/>
      </defs>
      <g>
       <use xlink:href="#m3141098273" x="64.9075" y="234.017187" style="stroke: #000000; stroke-width: 2"/>
      </g>
     </g>
     <g id="text_5">
      <!-- 0 -->
      <g transform="translate(44.5 239.336094) scale(0.14 -0.14)">
       <use xlink:href="#DejaVuSans-30"/>
      </g>
     </g>
    </g>
    <g id="ytick_2">
     <g id="line2d_14">
      <g>
       <use xlink:href="#m3141098273" x="64.9075" y="174.270129" style="stroke: #000000; stroke-width: 2"/>
      </g>
     </g>
     <g id="text_6">
      <!-- 200 -->
      <g transform="translate(26.685 179.589035) scale(0.14 -0.14)">
       <defs>
        <path id="DejaVuSans-32" d="M 1228 531 
L 3431 531 
L 3431 0 
L 469 0 
L 469 531 
Q 828 903 1448 1529 
Q 2069 2156 2228 2338 
Q 2531 2678 2651 2914 
Q 2772 3150 2772 3378 
Q 2772 3750 2511 3984 
Q 2250 4219 1831 4219 
Q 1534 4219 1204 4116 
Q 875 4013 500 3803 
L 500 4441 
Q 881 4594 1212 4672 
Q 1544 4750 1819 4750 
Q 2544 4750 2975 4387 
Q 3406 4025 3406 3419 
Q 3406 3131 3298 2873 
Q 3191 2616 2906 2266 
Q 2828 2175 2409 1742 
Q 1991 1309 1228 531 
z
" transform="scale(0.015625)"/>
       </defs>
       <use xlink:href="#DejaVuSans-32"/>
       <use xlink:href="#DejaVuSans-30" transform="translate(63.623047 0)"/>
       <use xlink:href="#DejaVuSans-30" transform="translate(127.246094 0)"/>
      </g>
     </g>
    </g>
    <g id="ytick_3">
     <g id="line2d_15">
      <g>
       <use xlink:href="#m3141098273" x="64.9075" y="114.52307" style="stroke: #000000; stroke-width: 2"/>
      </g>
     </g>
     <g id="text_7">
      <!-- 400 -->
      <g transform="translate(26.685 119.841976) scale(0.14 -0.14)">
       <defs>
        <path id="DejaVuSans-34" d="M 2419 4116 
L 825 1625 
L 2419 1625 
L 2419 4116 
z
M 2253 4666 
L 3047 4666 
L 3047 1625 
L 3713 1625 
L 3713 1100 
L 3047 1100 
L 3047 0 
L 2419 0 
L 2419 1100 
L 313 1100 
L 313 1709 
L 2253 4666 
z
" transform="scale(0.015625)"/>
       </defs>
       <use xlink:href="#DejaVuSans-34"/>
       <use xlink:href="#DejaVuSans-30" transform="translate(63.623047 0)"/>
       <use xlink:href="#DejaVuSans-30" transform="translate(127.246094 0)"/>
      </g>
     </g>
    </g>
    <g id="ytick_4">
     <g id="line2d_16">
      <g>
       <use xlink:href="#m3141098273" x="64.9075" y="54.776011" style="stroke: #000000; stroke-width: 2"/>
      </g>
     </g>
     <g id="text_8">
      <!-- 600 -->
      <g transform="translate(26.685 60.094917) scale(0.14 -0.14)">
       <defs>
        <path id="DejaVuSans-36" d="M 2113 2584 
Q 1688 2584 1439 2293 
Q 1191 2003 1191 1497 
Q 1191 994 1439 701 
Q 1688 409 2113 409 
Q 2538 409 2786 701 
Q 3034 994 3034 1497 
Q 3034 2003 2786 2293 
Q 2538 2584 2113 2584 
z
M 3366 4563 
L 3366 3988 
Q 3128 4100 2886 4159 
Q 2644 4219 2406 4219 
Q 1781 4219 1451 3797 
Q 1122 3375 1075 2522 
Q 1259 2794 1537 2939 
Q 1816 3084 2150 3084 
Q 2853 3084 3261 2657 
Q 3669 2231 3669 1497 
Q 3669 778 3244 343 
Q 2819 -91 2113 -91 
Q 1303 -91 875 529 
Q 447 1150 447 2328 
Q 447 3434 972 4092 
Q 1497 4750 2381 4750 
Q 2619 4750 2861 4703 
Q 3103 4656 3366 4563 
z
" transform="scale(0.015625)"/>
       </defs>
       <use xlink:href="#DejaVuSans-36"/>
       <use xlink:href="#DejaVuSans-30" transform="translate(63.623047 0)"/>
       <use xlink:href="#DejaVuSans-30" transform="translate(127.246094 0)"/>
      </g>
     </g>
    </g>
    <g id="text_9">
     <!-- Intensity (a.u.) -->
     <g transform="translate(19.3575 191.109687) rotate(-90) scale(0.16 -0.16)">
      <defs>
       <path id="DejaVuSans-49" d="M 628 4666 
L 1259 4666 
L 1259 0 
L 628 0 
L 628 4666 
z
" transform="scale(0.015625)"/>
       <path id="DejaVuSans-73" d="M 2834 3397 
L 2834 2853 
Q 2591 2978 2328 3040 
Q 2066 3103 1784 3103 
Q 1356 3103 1142 2972 
Q 928 2841 928 2578 
Q 928 2378 1081 2264 
Q 1234 2150 1697 2047 
L 1894 2003 
Q 2506 1872 2764 1633 
Q 3022 1394 3022 966 
Q 3022 478 2636 193 
Q 2250 -91 1575 -91 
Q 1294 -91 989 -36 
Q 684 19 347 128 
L 347 722 
Q 666 556 975 473 
Q 1284 391 1588 391 
Q 1994 391 2212 530 
Q 2431 669 2431 922 
Q 2431 1156 2273 1281 
Q 2116 1406 1581 1522 
L 1381 1569 
Q 847 1681 609 1914 
Q 372 2147 372 2553 
Q 372 3047 722 3315 
Q 1072 3584 1716 3584 
Q 2034 3584 2315 3537 
Q 2597 3491 2834 3397 
z
" transform="scale(0.015625)"/>
       <path id="DejaVuSans-69" d="M 603 3500 
L 1178 3500 
L 1178 0 
L 603 0 
L 603 3500 
z
M 603 4863 
L 1178 4863 
L 1178 4134 
L 603 4134 
L 603 4863 
z
" transform="scale(0.015625)"/>
       <path id="DejaVuSans-79" d="M 2059 -325 
Q 1816 -950 1584 -1140 
Q 1353 -1331 966 -1331 
L 506 -1331 
L 506 -850 
L 844 -850 
Q 1081 -850 1212 -737 
Q 1344 -625 1503 -206 
L 1606 56 
L 191 3500 
L 800 3500 
L 1894 763 
L 2988 3500 
L 3597 3500 
L 2059 -325 
z
" transform="scale(0.015625)"/>
       <path id="DejaVuSans-61" d="M 2194 1759 
Q 1497 1759 1228 1600 
Q 959 1441 959 1056 
Q 959 750 1161 570 
Q 1363 391 1709 391 
Q 2188 391 2477 730 
Q 2766 1069 2766 1631 
L 2766 1759 
L 2194 1759 
z
M 3341 1997 
L 3341 0 
L 2766 0 
L 2766 531 
Q 2569 213 2275 61 
Q 1981 -91 1556 -91 
Q 1019 -91 701 211 
Q 384 513 384 1019 
Q 384 1609 779 1909 
Q 1175 2209 1959 2209 
L 2766 2209 
L 2766 2266 
Q 2766 2663 2505 2880 
Q 2244 3097 1772 3097 
Q 1472 3097 1187 3025 
Q 903 2953 641 2809 
L 641 3341 
Q 956 3463 1253 3523 
Q 1550 3584 1831 3584 
Q 2591 3584 2966 3190 
Q 3341 2797 3341 1997 
z
" transform="scale(0.015625)"/>
       <path id="DejaVuSans-2e" d="M 684 794 
L 1344 794 
L 1344 0 
L 684 0 
L 684 794 
z
" transform="scale(0.015625)"/>
       <path id="DejaVuSans-75" d="M 544 1381 
L 544 3500 
L 1119 3500 
L 1119 1403 
Q 1119 906 1312 657 
Q 1506 409 1894 409 
Q 2359 409 2629 706 
Q 2900 1003 2900 1516 
L 2900 3500 
L 3475 3500 
L 3475 0 
L 2900 0 
L 2900 538 
Q 2691 219 2414 64 
Q 2138 -91 1772 -91 
Q 1169 -91 856 284 
Q 544 659 544 1381 
z
M 1991 3584 
L 1991 3584 
z
" transform="scale(0.015625)"/>
      </defs>
      <use xlink:href="#DejaVuSans-49"/>
      <use xlink:href="#DejaVuSans-6e" transform="translate(29.492188 0)"/>
      <use xlink:href="#DejaVuSans-74" transform="translate(92.871094 0)"/>
      <use xlink:href="#DejaVuSans-65" transform="translate(132.080078 0)"/>
      <use xlink:href="#DejaVuSans-6e" transform="translate(193.603516 0)"/>
      <use xlink:href="#DejaVuSans-73" transform="translate(256.982422 0)"/>
      <use xlink:href="#DejaVuSans-69" transform="translate(309.082031 0)"/>
      <use xlink:href="#DejaVuSans-74" transform="translate(336.865234 0)"/>
      <use xlink:href="#DejaVuSans-79" transform="translate(376.074219 0)"/>
      <use xlink:href="#DejaVuSans-20" transform="translate(435.253906 0)"/>
      <use xlink:href="#DejaVuSans-28" transform="translate(467.041016 0)"/>
      <use xlink:href="#DejaVuSans-61" transform="translate(506.054688 0)"/>
      <use xlink:href="#DejaVuSans-2e" transform="translate(567.333984 0)"/>
      <use xlink:href="#DejaVuSans-75" transform="translate(599.121094 0)"/>
      <use xlink:href="#DejaVuSans-2e" transform="translate(662.5 0)"/>
      <use xlink:href="#DejaVuSans-29" transform="translate(694.287109 0)"/>
     </g>
    </g>
   </g>
   <g id="line2d_17">
    <path d="M 92.990955 210.417099 
L 95.245145 181.275725 
L 96.747938 164.549883 
L 98.250732 151.403726 
L 101.256319 131.029857 
L 102.007716 127.338523 
L 102.759113 126.168353 
L 103.510509 128.12998 
L 104.261906 132.748273 
L 105.013303 139.433768 
L 105.7647 147.146604 
L 106.516097 153.491855 
L 107.267493 155.820791 
L 108.01889 152.361653 
L 108.770287 145.875748 
L 109.521684 140.584717 
L 110.27308 140.25747 
L 111.024477 144.49899 
L 112.527271 156.188502 
L 113.278668 159.547 
L 114.030064 160.214896 
L 114.781461 157.711532 
L 117.035651 142.596877 
L 117.787048 140.87705 
L 118.538445 140.339774 
L 119.289842 139.298485 
L 120.792635 134.509553 
L 121.544032 134.923748 
L 122.295429 139.825429 
L 123.046826 146.988884 
L 123.798222 152.524907 
L 124.549619 152.87984 
L 125.301016 148.727161 
L 126.052413 143.59947 
L 126.80381 140.988056 
L 127.555206 141.826364 
L 129.058 146.334759 
L 129.809397 146.785774 
L 130.560793 145.671758 
L 131.31219 143.1746 
L 132.814984 136.175127 
L 133.566381 133.74934 
L 134.317777 133.162442 
L 135.069174 133.503397 
L 135.820571 133.339847 
L 136.571968 131.499896 
L 137.323364 129.120826 
L 138.074761 128.546383 
L 138.826158 131.948405 
L 140.328952 144.043011 
L 141.080348 145.387255 
L 141.831745 141.733393 
L 142.583142 136.5832 
L 143.334539 133.726228 
L 144.085935 135.345674 
L 144.837332 140.062054 
L 146.340126 151.606169 
L 147.091522 156.17606 
L 147.842919 159.296816 
L 148.594316 160.571339 
L 149.345713 159.816302 
L 150.09711 156.933838 
L 151.599903 146.580491 
L 152.3513 143.535976 
L 153.102697 145.464364 
L 154.60549 157.342226 
L 155.356887 158.245758 
L 156.108284 153.173461 
L 156.859681 147.000342 
L 157.611077 145.180415 
L 158.362474 150.518266 
L 159.113871 158.327327 
L 159.865268 162.606347 
L 160.616664 158.959411 
L 162.119458 143.777978 
L 162.870855 142.985991 
L 164.373648 151.746943 
L 165.125045 152.612451 
L 165.876442 149.481931 
L 166.627839 145.403179 
L 167.379235 143.466957 
L 168.130632 144.545967 
L 168.882029 146.582748 
L 169.633426 147.324406 
L 170.384823 145.494214 
L 171.136219 141.917038 
L 174.141806 125.107361 
L 175.6446 115.645535 
L 176.395997 113.713599 
L 177.147394 115.86516 
L 177.89879 121.501499 
L 179.401584 135.174392 
L 180.152981 139.746668 
L 180.904377 141.453111 
L 181.655774 139.46717 
L 183.158568 129.198832 
L 183.909965 127.079876 
L 184.661361 129.763976 
L 186.164155 139.731451 
L 186.915552 141.763124 
L 188.418345 142.084144 
L 189.169742 143.715592 
L 189.921139 146.091504 
L 190.672536 147.341166 
L 191.423932 145.731326 
L 192.926726 138.081684 
L 193.678123 136.886869 
L 194.429519 138.664369 
L 195.180916 141.24359 
L 195.932313 142.292495 
L 196.68371 140.800104 
L 197.435107 138.516605 
L 198.186503 137.538466 
L 198.9379 139.066244 
L 199.689297 141.145547 
L 200.440694 141.127869 
L 201.19209 136.88812 
L 203.446281 114.138594 
L 204.197678 109.55395 
L 204.949074 108.005523 
L 205.700471 109.999627 
L 207.203265 119.188762 
L 207.954661 121.399573 
L 208.706058 120.638912 
L 209.457455 119.52315 
L 210.208852 120.952481 
L 210.960249 126.481528 
L 212.463042 141.159577 
L 213.214439 145.569917 
L 213.965836 147.385281 
L 214.717232 147.295674 
L 215.468629 146.02126 
L 216.220026 144.522284 
L 216.971423 143.873855 
L 217.72282 145.036054 
L 218.474216 147.207574 
L 219.225613 148.215923 
L 219.97701 145.910764 
L 220.728407 140.221379 
L 221.479803 133.674852 
L 222.2312 128.954467 
L 222.982597 127.693188 
L 223.733994 129.392426 
L 224.485391 133.295358 
L 225.988184 142.968455 
L 226.739581 145.013119 
L 227.490978 143.175999 
L 228.242374 139.473212 
L 228.993771 137.156541 
L 229.745168 139.110858 
L 231.247962 149.316383 
L 231.999358 150.855619 
L 232.750755 148.454876 
L 233.502152 144.41995 
L 234.253549 141.151214 
L 235.004945 139.82835 
L 235.756342 139.720943 
L 236.507739 139.932487 
L 237.259136 139.720824 
L 238.010533 138.741808 
L 238.761929 136.714574 
L 240.264723 130.537305 
L 241.01612 128.89338 
L 241.767516 129.89777 
L 242.518913 133.29005 
L 244.773104 148.202174 
L 245.5245 151.28508 
L 246.275897 151.612466 
L 247.027294 149.337008 
L 247.778691 146.108593 
L 248.530087 143.660955 
L 249.281484 142.909059 
L 250.784278 143.509247 
L 251.535675 143.214187 
L 252.287071 141.930683 
L 253.038468 139.407288 
L 254.541262 132.08332 
L 255.292658 130.670455 
L 256.044055 133.01966 
L 256.795452 137.305532 
L 257.546849 139.685668 
L 258.298246 136.494871 
L 259.801039 119.661682 
L 260.552436 115.26092 
L 261.303833 117.000283 
L 262.055229 122.570484 
L 262.806626 129.309841 
L 263.558023 134.874863 
L 264.30942 137.717965 
L 265.060817 136.41398 
L 265.812213 130.379715 
L 266.56361 122.621925 
L 267.315007 117.103973 
L 268.066404 117.198814 
L 268.8178 121.885927 
L 269.569197 128.163846 
L 270.320594 133.1396 
L 271.071991 135.573413 
L 271.823388 135.442314 
L 272.574784 132.790544 
L 273.326181 128.897545 
L 274.077578 126.502044 
L 274.828975 128.40662 
L 276.331768 142.524396 
L 277.083165 146.237947 
L 277.834562 143.553297 
L 278.585958 137.677935 
L 279.337355 132.993193 
L 280.088752 132.976235 
L 281.591546 139.197466 
L 282.342942 139.316216 
L 283.094339 136.743797 
L 283.845736 133.556993 
L 284.597133 131.770478 
L 285.348529 131.745908 
L 286.099926 132.32401 
L 286.851323 132.311959 
L 287.60272 131.740723 
L 288.354117 132.450616 
L 289.105513 136.42324 
L 290.608307 152.690412 
L 291.359704 158.404219 
L 292.1111 158.803476 
L 292.862497 155.656182 
L 293.613894 151.836233 
L 294.365291 149.868266 
L 295.116688 149.765075 
L 295.868084 150.44023 
L 296.619481 150.879206 
L 297.370878 151.096206 
L 298.122275 151.84162 
L 298.873671 153.847694 
L 299.625068 156.824636 
L 300.376465 159.308346 
L 301.127862 159.777386 
L 301.879259 157.480935 
L 302.630655 153.100836 
L 304.884846 136.445708 
L 305.636242 133.472087 
L 306.387639 133.479975 
L 307.890433 137.455456 
L 308.64183 138.166684 
L 309.393226 138.019906 
L 310.144623 138.635444 
L 310.89602 141.517427 
L 311.647417 145.739004 
L 312.398813 148.197888 
L 313.15021 145.766027 
L 313.901607 137.832357 
L 315.404401 117.766192 
L 316.155797 112.207377 
L 316.907194 114.01386 
L 317.658591 126.472482 
L 317.658591 126.472482 
" clip-path="url(#pfd505d2aed)" style="fill: none; stroke: #8b1c0f; stroke-width: 2; stroke-linecap: square"/>
   </g>
   <g id="line2d_18">
    <path d="M 92.990955 193.687923 
L 95.245145 165.134632 
L 96.747938 149.152096 
L 97.499335 143.143585 
L 98.250732 138.908579 
L 99.002129 136.597479 
L 99.753526 136.271853 
L 100.504922 137.942007 
L 102.759113 147.301295 
L 103.510509 148.94905 
L 104.261906 149.173865 
L 105.013303 147.782804 
L 106.516097 143.007279 
L 107.267493 142.350759 
L 108.01889 143.803692 
L 109.521684 149.057386 
L 111.775874 155.049902 
L 114.030064 163.146565 
L 114.781461 164.928275 
L 115.532858 165.372644 
L 116.284255 163.91957 
L 117.035651 160.307519 
L 117.787048 156.13467 
L 118.538445 153.714009 
L 119.289842 154.929517 
L 120.041239 157.785193 
L 120.792635 158.229396 
L 121.544032 152.54907 
L 123.046826 130.866467 
L 123.798222 124.069381 
L 124.549619 122.933515 
L 125.301016 125.856515 
L 126.052413 131.118782 
L 128.306603 149.084281 
L 129.058 153.201822 
L 129.809397 156.136799 
L 130.560793 158.111076 
L 131.31219 159.178347 
L 132.063587 158.980074 
L 132.814984 157.095745 
L 133.566381 153.389068 
L 135.069174 144.062938 
L 135.820571 140.500429 
L 136.571968 138.866239 
L 137.323364 139.970735 
L 138.074761 144.338275 
L 139.577555 156.274909 
L 140.328952 159.585063 
L 141.080348 161.234728 
L 141.831745 163.596858 
L 142.583142 168.835244 
L 143.334539 175.609522 
L 144.085935 179.837112 
L 144.837332 177.532971 
L 146.340126 159.325435 
L 147.091522 153.446043 
L 147.842919 153.360965 
L 149.345713 160.111435 
L 150.09711 162.136316 
L 150.848506 162.464391 
L 151.599903 161.153607 
L 153.102697 156.019957 
L 153.854093 154.851677 
L 154.60549 155.946217 
L 155.356887 158.154676 
L 156.108284 159.855441 
L 156.859681 159.751295 
L 157.611077 158.266485 
L 158.362474 156.394095 
L 159.113871 155.091295 
L 159.865268 155.039852 
L 160.616664 156.795188 
L 161.368061 160.769345 
L 162.119458 165.776436 
L 162.870855 169.627981 
L 163.622252 170.23687 
L 164.373648 167.553124 
L 165.876442 159.052921 
L 166.627839 155.715867 
L 168.130632 150.435677 
L 168.882029 148.20707 
L 169.633426 146.940193 
L 170.384823 147.35404 
L 171.136219 149.695878 
L 173.39041 160.423612 
L 174.141806 163.13623 
L 174.893203 164.995075 
L 175.6446 165.936281 
L 177.147394 166.730619 
L 177.89879 167.527649 
L 178.650187 168.810517 
L 179.401584 170.518474 
L 180.904377 174.515456 
L 181.655774 175.846768 
L 182.407171 176.071549 
L 183.158568 175.713165 
L 183.909965 175.976983 
L 184.661361 177.996535 
L 185.412758 181.210426 
L 186.164155 183.495056 
L 186.915552 182.72736 
L 188.418345 174.447225 
L 189.169742 172.160232 
L 189.921139 173.086713 
L 191.423932 177.875867 
L 192.175329 178.721016 
L 192.926726 178.662738 
L 193.678123 178.447602 
L 194.429519 178.671127 
L 195.180916 179.442789 
L 195.932313 180.774488 
L 196.68371 182.638199 
L 198.9379 189.118507 
L 199.689297 190.641614 
L 200.440694 191.308455 
L 201.19209 190.847629 
L 203.446281 187.189243 
L 204.197678 186.538365 
L 204.949074 185.553223 
L 205.700471 183.613668 
L 206.451868 181.250797 
L 207.203265 180.14695 
L 207.954661 181.992228 
L 209.457455 191.686576 
L 210.208852 194.322967 
L 210.960249 193.45433 
L 212.463042 188.317503 
L 213.214439 187.384651 
L 213.965836 187.607592 
L 215.468629 188.974761 
L 216.220026 188.978974 
L 216.971423 187.853105 
L 218.474216 183.399378 
L 219.225613 183.878632 
L 219.97701 188.594699 
L 221.479803 202.66972 
L 222.2312 206.089435 
L 222.982597 206.24484 
L 223.733994 204.96191 
L 224.485391 203.986686 
L 225.236787 203.421874 
L 225.988184 202.048497 
L 226.739581 198.66588 
L 228.242374 188.654923 
L 228.993771 185.900474 
L 229.745168 185.931009 
L 231.247962 188.88192 
L 231.999358 189.493423 
L 232.750755 189.723326 
L 233.502152 190.196697 
L 234.253549 191.304989 
L 237.259136 197.041792 
L 238.010533 199.095434 
L 239.513326 204.860874 
L 240.264723 206.256692 
L 241.01612 205.101512 
L 242.518913 199.813773 
L 243.27031 199.284771 
L 244.773104 201.263188 
L 245.5245 200.349755 
L 246.275897 197.567471 
L 247.027294 194.302319 
L 247.778691 191.957519 
L 248.530087 190.970194 
L 250.032881 190.207408 
L 250.784278 189.286501 
L 252.287071 186.874939 
L 253.038468 185.923384 
L 253.789865 185.533865 
L 254.541262 186.010467 
L 255.292658 187.617588 
L 256.044055 190.499542 
L 256.795452 194.778008 
L 258.298246 205.682337 
L 259.049642 209.266345 
L 259.801039 209.73844 
L 260.552436 208.050637 
L 261.303833 205.997325 
L 262.055229 205.182349 
L 262.806626 205.538608 
L 263.558023 206.138641 
L 264.30942 206.097331 
L 265.060817 205.17492 
L 265.812213 203.584099 
L 267.315007 199.460656 
L 268.066404 197.819798 
L 268.8178 197.144682 
L 269.569197 197.659014 
L 270.320594 199.216427 
L 271.071991 201.643874 
L 272.574784 207.203045 
L 273.326181 208.796102 
L 274.077578 208.919588 
L 274.828975 208.039683 
L 279.337355 200.325516 
L 280.088752 199.448064 
L 280.840149 199.276506 
L 281.591546 199.979931 
L 282.342942 201.678049 
L 284.597133 209.510301 
L 285.348529 209.57688 
L 286.099926 207.899679 
L 286.851323 205.817878 
L 287.60272 204.66373 
L 288.354117 204.960682 
L 289.105513 206.4011 
L 290.608307 211.050004 
L 291.359704 212.684197 
L 292.1111 212.552077 
L 292.862497 210.51805 
L 293.613894 208.048327 
L 294.365291 206.78501 
L 295.116688 207.487551 
L 295.868084 208.619039 
L 296.619481 208.273908 
L 297.370878 205.358645 
L 298.122275 201.737569 
L 298.873671 199.948247 
L 299.625068 201.905657 
L 301.127862 210.891225 
L 301.879259 213.551102 
L 302.630655 214.123502 
L 303.382052 213.264589 
L 304.884846 209.909405 
L 305.636242 208.76694 
L 306.387639 208.835807 
L 307.890433 210.849357 
L 308.64183 210.830328 
L 310.144623 208.756379 
L 310.89602 208.839231 
L 311.647417 210.314874 
L 312.398813 212.250325 
L 313.15021 213.615769 
L 313.901607 213.962848 
L 314.653004 214.039245 
L 315.404401 214.739868 
L 316.155797 216.959624 
L 316.907194 221.593418 
L 317.658591 229.536158 
L 317.658591 229.536158 
" clip-path="url(#pfd505d2aed)" style="fill: none; stroke: #1d0cfd; stroke-width: 2; stroke-linecap: square"/>
   </g>
   <g id="line2d_19">
    <path d="M 92.990955 186.518276 
L 93.742351 190.610834 
L 94.493748 191.618469 
L 95.245145 190.523293 
L 96.747938 185.952965 
L 97.499335 184.44204 
L 98.250732 184.748435 
L 99.002129 187.090155 
L 100.504922 193.215603 
L 101.256319 194.69596 
L 102.007716 194.951052 
L 102.759113 194.536117 
L 103.510509 193.975997 
L 104.261906 193.261501 
L 105.013303 191.929002 
L 105.7647 189.502711 
L 107.267493 182.456723 
L 108.01889 180.124324 
L 108.770287 179.963563 
L 109.521684 181.381882 
L 110.27308 183.164955 
L 111.024477 184.134113 
L 111.775874 184.038762 
L 112.527271 183.598107 
L 113.278668 183.576572 
L 114.030064 184.469884 
L 114.781461 186.028404 
L 116.284255 189.61844 
L 117.035651 190.777873 
L 117.787048 190.823163 
L 118.538445 189.240197 
L 119.289842 186.107676 
L 120.792635 178.602852 
L 121.544032 175.956919 
L 122.295429 174.978876 
L 123.046826 176.279582 
L 123.798222 180.31406 
L 125.301016 190.589902 
L 126.052413 192.285791 
L 126.80381 190.298305 
L 128.306603 183.308859 
L 129.058 182.218847 
L 129.809397 183.055714 
L 130.560793 185.016922 
L 132.814984 192.239973 
L 135.069174 200.173458 
L 135.820571 201.412568 
L 136.571968 201.08498 
L 137.323364 199.665314 
L 138.074761 197.953273 
L 138.826158 196.719373 
L 139.577555 196.136935 
L 140.328952 195.824287 
L 141.080348 195.379283 
L 143.334539 193.145191 
L 144.085935 193.114395 
L 144.837332 193.632948 
L 145.588729 194.554938 
L 147.091522 196.911502 
L 147.842919 197.737065 
L 148.594316 197.840474 
L 149.345713 196.965883 
L 150.09711 195.196968 
L 150.848506 192.682139 
L 152.3513 186.500727 
L 153.102697 184.080578 
L 153.854093 183.052881 
L 154.60549 183.560747 
L 156.859681 187.738069 
L 157.611077 188.596157 
L 159.113871 189.892794 
L 159.865268 189.798972 
L 160.616664 187.852666 
L 161.368061 182.915472 
L 163.622252 159.954862 
L 164.373648 157.064477 
L 165.125045 157.43675 
L 165.876442 159.81197 
L 169.633426 175.705663 
L 170.384823 177.416354 
L 171.136219 177.199207 
L 171.887616 174.538149 
L 172.639013 170.632547 
L 173.39041 167.341565 
L 174.141806 166.463813 
L 174.893203 168.335155 
L 177.147394 178.92569 
L 177.89879 181.22216 
L 178.650187 182.291438 
L 179.401584 181.938306 
L 180.152981 180.512791 
L 181.655774 176.888931 
L 182.407171 175.740975 
L 183.158568 175.416066 
L 183.909965 176.134305 
L 184.661361 177.94638 
L 186.164155 182.642446 
L 186.915552 184.299772 
L 187.666948 185.340931 
L 188.418345 186.175252 
L 190.672536 189.144764 
L 191.423932 188.64048 
L 192.175329 186.471832 
L 193.678123 180.687716 
L 194.429519 179.275832 
L 195.180916 179.322533 
L 195.932313 180.244961 
L 196.68371 181.444729 
L 197.435107 182.389014 
L 198.186503 182.66943 
L 198.9379 181.891486 
L 199.689297 179.863236 
L 200.440694 177.492004 
L 201.19209 176.056289 
L 201.943487 176.759587 
L 203.446281 182.291772 
L 204.197678 183.969296 
L 204.949074 183.700035 
L 205.700471 182.942227 
L 206.451868 183.463942 
L 207.203265 186.67175 
L 208.706058 195.692247 
L 209.457455 197.244768 
L 210.208852 195.727061 
L 211.711645 189.537407 
L 212.463042 187.545323 
L 213.965836 185.09673 
L 216.220026 180.232587 
L 216.971423 180.052747 
L 218.474216 182.030811 
L 219.225613 182.017383 
L 219.97701 180.318579 
L 220.728407 178.079614 
L 221.479803 176.863661 
L 222.2312 178.083286 
L 222.982597 181.376248 
L 223.733994 185.223765 
L 224.485391 188.096861 
L 225.236787 189.189959 
L 225.988184 188.912592 
L 226.739581 187.790614 
L 228.242374 185.112013 
L 228.993771 184.600859 
L 229.745168 185.28745 
L 231.247962 188.245925 
L 231.999358 188.523676 
L 232.750755 187.290876 
L 233.502152 185.483502 
L 234.253549 184.20124 
L 235.004945 184.395873 
L 235.756342 186.128869 
L 236.507739 189.130149 
L 238.761929 200.479676 
L 239.513326 201.402193 
L 240.264723 199.54673 
L 241.767516 193.247195 
L 242.518913 191.919665 
L 243.27031 192.132361 
L 244.021707 192.975374 
L 244.773104 193.555167 
L 245.5245 193.663138 
L 246.275897 193.919623 
L 247.027294 194.994543 
L 248.530087 199.597727 
L 249.281484 201.069322 
L 250.032881 200.59936 
L 251.535675 196.577919 
L 252.287071 195.666564 
L 253.038468 196.091251 
L 253.789865 196.304713 
L 254.541262 194.620261 
L 255.292658 190.060601 
L 256.044055 184.583305 
L 256.795452 180.904815 
L 257.546849 181.524416 
L 258.298246 186.040283 
L 259.049642 191.982981 
L 259.801039 196.848437 
L 260.552436 199.116288 
L 261.303833 199.07661 
L 262.055229 197.214166 
L 262.806626 194.007217 
L 264.30942 185.325275 
L 265.812213 176.621836 
L 266.56361 173.643004 
L 267.315007 172.403272 
L 268.066404 173.237064 
L 268.8178 175.829269 
L 269.569197 179.774323 
L 271.071991 189.413114 
L 271.823388 193.130085 
L 272.574784 194.716255 
L 273.326181 194.192807 
L 274.077578 192.719555 
L 274.828975 191.512189 
L 275.580371 191.388515 
L 276.331768 192.025981 
L 277.083165 192.899018 
L 277.834562 193.5253 
L 278.585958 193.795356 
L 279.337355 193.790215 
L 280.088752 193.589749 
L 280.840149 193.164956 
L 281.591546 192.342868 
L 282.342942 190.940646 
L 283.845736 187.095359 
L 284.597133 186.174622 
L 285.348529 186.962368 
L 286.099926 189.352376 
L 288.354117 199.597357 
L 289.105513 201.992022 
L 289.85691 202.948282 
L 290.608307 202.117241 
L 291.359704 200.06019 
L 292.1111 197.598734 
L 292.862497 195.53234 
L 293.613894 194.322904 
L 294.365291 194.169374 
L 295.116688 195.260264 
L 295.868084 197.296908 
L 296.619481 198.997139 
L 297.370878 198.960408 
L 298.122275 196.168431 
L 299.625068 187.937491 
L 300.376465 186.44054 
L 301.127862 187.775343 
L 301.879259 190.95108 
L 303.382052 198.564293 
L 304.133449 200.600485 
L 304.884846 199.716148 
L 305.636242 194.931211 
L 307.139036 180.729509 
L 307.890433 176.468534 
L 308.64183 175.777139 
L 309.393226 177.45031 
L 312.398813 188.622783 
L 313.901607 195.452702 
L 316.155797 206.137522 
L 316.907194 209.150693 
L 317.658591 211.61204 
L 317.658591 211.61204 
" clip-path="url(#pfd505d2aed)" style="fill: none; stroke: #378ca8; stroke-width: 2; stroke-linecap: square"/>
   </g>
   <g id="patch_4">
    <path d="M 64.9075 234.017187 
L 64.9075 30.877187 
" style="fill: none; stroke: #000000; stroke-width: 2; stroke-linejoin: miter; stroke-linecap: square"/>
   </g>
   <g id="patch_5">
    <path d="M 64.9075 234.017187 
L 373.8255 234.017187 
" style="fill: none; stroke: #000000; stroke-width: 2; stroke-linejoin: miter; stroke-linecap: square"/>
   </g>
   <g id="text_10">
    <!-- bleached region -->
    <g transform="translate(211.097159 47.09748) scale(0.16 -0.16)">
     <defs>
      <path id="DejaVuSans-62" d="M 3116 1747 
Q 3116 2381 2855 2742 
Q 2594 3103 2138 3103 
Q 1681 3103 1420 2742 
Q 1159 2381 1159 1747 
Q 1159 1113 1420 752 
Q 1681 391 2138 391 
Q 2594 391 2855 752 
Q 3116 1113 3116 1747 
z
M 1159 2969 
Q 1341 3281 1617 3432 
Q 1894 3584 2278 3584 
Q 2916 3584 3314 3078 
Q 3713 2572 3713 1747 
Q 3713 922 3314 415 
Q 2916 -91 2278 -91 
Q 1894 -91 1617 61 
Q 1341 213 1159 525 
L 1159 0 
L 581 0 
L 581 4863 
L 1159 4863 
L 1159 2969 
z
" transform="scale(0.015625)"/>
      <path id="DejaVuSans-6c" d="M 603 4863 
L 1178 4863 
L 1178 0 
L 603 0 
L 603 4863 
z
" transform="scale(0.015625)"/>
      <path id="DejaVuSans-63" d="M 3122 3366 
L 3122 2828 
Q 2878 2963 2633 3030 
Q 2388 3097 2138 3097 
Q 1578 3097 1268 2742 
Q 959 2388 959 1747 
Q 959 1106 1268 751 
Q 1578 397 2138 397 
Q 2388 397 2633 464 
Q 2878 531 3122 666 
L 3122 134 
Q 2881 22 2623 -34 
Q 2366 -91 2075 -91 
Q 1284 -91 818 406 
Q 353 903 353 1747 
Q 353 2603 823 3093 
Q 1294 3584 2113 3584 
Q 2378 3584 2631 3529 
Q 2884 3475 3122 3366 
z
" transform="scale(0.015625)"/>
      <path id="DejaVuSans-64" d="M 2906 2969 
L 2906 4863 
L 3481 4863 
L 3481 0 
L 2906 0 
L 2906 525 
Q 2725 213 2448 61 
Q 2172 -91 1784 -91 
Q 1150 -91 751 415 
Q 353 922 353 1747 
Q 353 2572 751 3078 
Q 1150 3584 1784 3584 
Q 2172 3584 2448 3432 
Q 2725 3281 2906 2969 
z
M 947 1747 
Q 947 1113 1208 752 
Q 1469 391 1925 391 
Q 2381 391 2643 752 
Q 2906 1113 2906 1747 
Q 2906 2381 2643 2742 
Q 2381 3103 1925 3103 
Q 1469 3103 1208 2742 
Q 947 2381 947 1747 
z
" transform="scale(0.015625)"/>
      <path id="DejaVuSans-72" d="M 2631 2963 
Q 2534 3019 2420 3045 
Q 2306 3072 2169 3072 
Q 1681 3072 1420 2755 
Q 1159 2438 1159 1844 
L 1159 0 
L 581 0 
L 581 3500 
L 1159 3500 
L 1159 2956 
Q 1341 3275 1631 3429 
Q 1922 3584 2338 3584 
Q 2397 3584 2469 3576 
Q 2541 3569 2628 3553 
L 2631 2963 
z
" transform="scale(0.015625)"/>
      <path id="DejaVuSans-6f" d="M 1959 3097 
Q 1497 3097 1228 2736 
Q 959 2375 959 1747 
Q 959 1119 1226 758 
Q 1494 397 1959 397 
Q 2419 397 2687 759 
Q 2956 1122 2956 1747 
Q 2956 2369 2687 2733 
Q 2419 3097 1959 3097 
z
M 1959 3584 
Q 2709 3584 3137 3096 
Q 3566 2609 3566 1747 
Q 3566 888 3137 398 
Q 2709 -91 1959 -91 
Q 1206 -91 779 398 
Q 353 888 353 1747 
Q 353 2609 779 3096 
Q 1206 3584 1959 3584 
z
" transform="scale(0.015625)"/>
     </defs>
     <use xlink:href="#DejaVuSans-62"/>
     <use xlink:href="#DejaVuSans-6c" transform="translate(63.476562 0)"/>
     <use xlink:href="#DejaVuSans-65" transform="translate(91.259766 0)"/>
     <use xlink:href="#DejaVuSans-61" transform="translate(152.783203 0)"/>
     <use xlink:href="#DejaVuSans-63" transform="translate(214.0625 0)"/>
     <use xlink:href="#DejaVuSans-68" transform="translate(269.042969 0)"/>
     <use xlink:href="#DejaVuSans-65" transform="translate(332.421875 0)"/>
     <use xlink:href="#DejaVuSans-64" transform="translate(393.945312 0)"/>
     <use xlink:href="#DejaVuSans-20" transform="translate(457.421875 0)"/>
     <use xlink:href="#DejaVuSans-72" transform="translate(489.208984 0)"/>
     <use xlink:href="#DejaVuSans-65" transform="translate(528.072266 0)"/>
     <use xlink:href="#DejaVuSans-67" transform="translate(589.595703 0)"/>
     <use xlink:href="#DejaVuSans-69" transform="translate(653.072266 0)"/>
     <use xlink:href="#DejaVuSans-6f" transform="translate(680.855469 0)"/>
     <use xlink:href="#DejaVuSans-6e" transform="translate(742.037109 0)"/>
    </g>
   </g>
   <g id="text_11">
    <!-- membrane -->
    <g transform="translate(64.9075 20.877187) scale(0.18 -0.18)">
     <use xlink:href="#DejaVuSans-6d"/>
     <use xlink:href="#DejaVuSans-65" transform="translate(97.412109 0)"/>
     <use xlink:href="#DejaVuSans-6d" transform="translate(158.935547 0)"/>
     <use xlink:href="#DejaVuSans-62" transform="translate(256.347656 0)"/>
     <use xlink:href="#DejaVuSans-72" transform="translate(319.824219 0)"/>
     <use xlink:href="#DejaVuSans-61" transform="translate(360.9375 0)"/>
     <use xlink:href="#DejaVuSans-6e" transform="translate(422.216797 0)"/>
     <use xlink:href="#DejaVuSans-65" transform="translate(485.595703 0)"/>
    </g>
   </g>
   <g id="legend_1">
    <g id="line2d_20">
     <path d="M 389.00386 43.975625 
L 399.00386 43.975625 
L 409.00386 43.975625 
" style="fill: none; stroke: #8b1c0f; stroke-width: 2; stroke-linecap: square"/>
    </g>
    <g id="text_12">
     <!-- Pre-bleach -->
     <g transform="translate(417.00386 47.475625) scale(0.1 -0.1)">
      <defs>
       <path id="DejaVuSans-50" d="M 1259 4147 
L 1259 2394 
L 2053 2394 
Q 2494 2394 2734 2622 
Q 2975 2850 2975 3272 
Q 2975 3691 2734 3919 
Q 2494 4147 2053 4147 
L 1259 4147 
z
M 628 4666 
L 2053 4666 
Q 2838 4666 3239 4311 
Q 3641 3956 3641 3272 
Q 3641 2581 3239 2228 
Q 2838 1875 2053 1875 
L 1259 1875 
L 1259 0 
L 628 0 
L 628 4666 
z
" transform="scale(0.015625)"/>
       <path id="DejaVuSans-2d" d="M 313 2009 
L 1997 2009 
L 1997 1497 
L 313 1497 
L 313 2009 
z
" transform="scale(0.015625)"/>
      </defs>
      <use xlink:href="#DejaVuSans-50"/>
      <use xlink:href="#DejaVuSans-72" transform="translate(58.552734 0)"/>
      <use xlink:href="#DejaVuSans-65" transform="translate(97.416016 0)"/>
      <use xlink:href="#DejaVuSans-2d" transform="translate(158.939453 0)"/>
      <use xlink:href="#DejaVuSans-62" transform="translate(195.023438 0)"/>
      <use xlink:href="#DejaVuSans-6c" transform="translate(258.5 0)"/>
      <use xlink:href="#DejaVuSans-65" transform="translate(286.283203 0)"/>
      <use xlink:href="#DejaVuSans-61" transform="translate(347.806641 0)"/>
      <use xlink:href="#DejaVuSans-63" transform="translate(409.085938 0)"/>
      <use xlink:href="#DejaVuSans-68" transform="translate(464.066406 0)"/>
     </g>
    </g>
    <g id="line2d_21">
     <path d="M 389.00386 58.65375 
L 399.00386 58.65375 
L 409.00386 58.65375 
" style="fill: none; stroke: #1d0cfd; stroke-width: 2; stroke-linecap: square"/>
    </g>
    <g id="text_13">
     <!-- Post-bleach -->
     <g transform="translate(417.00386 62.15375) scale(0.1 -0.1)">
      <use xlink:href="#DejaVuSans-50"/>
      <use xlink:href="#DejaVuSans-6f" transform="translate(56.677734 0)"/>
      <use xlink:href="#DejaVuSans-73" transform="translate(117.859375 0)"/>
      <use xlink:href="#DejaVuSans-74" transform="translate(169.958984 0)"/>
      <use xlink:href="#DejaVuSans-2d" transform="translate(209.167969 0)"/>
      <use xlink:href="#DejaVuSans-62" transform="translate(245.251953 0)"/>
      <use xlink:href="#DejaVuSans-6c" transform="translate(308.728516 0)"/>
      <use xlink:href="#DejaVuSans-65" transform="translate(336.511719 0)"/>
      <use xlink:href="#DejaVuSans-61" transform="translate(398.035156 0)"/>
      <use xlink:href="#DejaVuSans-63" transform="translate(459.314453 0)"/>
      <use xlink:href="#DejaVuSans-68" transform="translate(514.294922 0)"/>
     </g>
    </g>
    <g id="line2d_22">
     <path d="M 389.00386 73.331875 
L 399.00386 73.331875 
L 409.00386 73.331875 
" style="fill: none; stroke: #378ca8; stroke-width: 2; stroke-linecap: square"/>
    </g>
    <g id="text_14">
     <!-- Post-recovery -->
     <g transform="translate(417.00386 76.831875) scale(0.1 -0.1)">
      <defs>
       <path id="DejaVuSans-76" d="M 191 3500 
L 800 3500 
L 1894 563 
L 2988 3500 
L 3597 3500 
L 2284 0 
L 1503 0 
L 191 3500 
z
" transform="scale(0.015625)"/>
      </defs>
      <use xlink:href="#DejaVuSans-50"/>
      <use xlink:href="#DejaVuSans-6f" transform="translate(56.677734 0)"/>
      <use xlink:href="#DejaVuSans-73" transform="translate(117.859375 0)"/>
      <use xlink:href="#DejaVuSans-74" transform="translate(169.958984 0)"/>
      <use xlink:href="#DejaVuSans-2d" transform="translate(209.167969 0)"/>
      <use xlink:href="#DejaVuSans-72" transform="translate(245.251953 0)"/>
      <use xlink:href="#DejaVuSans-65" transform="translate(284.115234 0)"/>
      <use xlink:href="#DejaVuSans-63" transform="translate(345.638672 0)"/>
      <use xlink:href="#DejaVuSans-6f" transform="translate(400.619141 0)"/>
      <use xlink:href="#DejaVuSans-76" transform="translate(461.800781 0)"/>
      <use xlink:href="#DejaVuSans-65" transform="translate(520.980469 0)"/>
      <use xlink:href="#DejaVuSans-72" transform="translate(582.503906 0)"/>
      <use xlink:href="#DejaVuSans-79" transform="translate(623.617188 0)"/>
     </g>
    </g>
   </g>
  </g>
 </g>
 <defs>
  <clipPath id="pfd505d2aed">
   <rect x="64.9075" y="30.877187" width="308.918" height="203.14"/>
  </clipPath>
 </defs>
</svg>
