<?xml version="1.0" encoding="utf-8" standalone="no"?>
<!DOCTYPE svg PUBLIC "-//W3C//DTD SVG 1.1//EN"
  "http://www.w3.org/Graphics/SVG/1.1/DTD/svg11.dtd">
<svg xmlns:xlink="http://www.w3.org/1999/xlink" width="496.39621pt" height="281.751562pt" viewBox="0 0 496.39621 281.751562" xmlns="http://www.w3.org/2000/svg" version="1.1">
 <metadata>
  <rdf:RDF xmlns:dc="http://purl.org/dc/elements/1.1/" xmlns:cc="http://creativecommons.org/ns#" xmlns:rdf="http://www.w3.org/1999/02/22-rdf-syntax-ns#">
   <cc:Work>
    <dc:type rdf:resource="http://purl.org/dc/dcmitype/StillImage"/>
    <dc:date>2026-01-16T15:20:33.550505</dc:date>
    <dc:format>image/svg+xml</dc:format>
    <dc:creator>
     <cc:Agent>
      <dc:title>Matplotlib v3.10.8, https://matplotlib.org/</dc:title>
     </cc:Agent>
    </dc:creator>
   </cc:Work>
  </rdf:RDF>
 </metadata>
 <defs>
  <style type="text/css">*{stroke-linejoin: round; stroke-linecap: butt}</style>
 </defs>
 <g id="figure_1">
  <g id="patch_1">
   <path d="M 0 281.751562 
L 496.39621 281.751562 
L 496.39621 0 
L 0 0 
z
" style="fill: #ffffff"/>
  </g>
  <g id="axes_1">
   <g id="patch_2">
    <path d="M 73.815 234.017187 
L 373.913 234.017187 
L 373.913 30.877187 
L 73.815 30.877187 
z
" style="fill: #ffffff"/>
   </g>
   <g id="patch_3">
    <path d="M 182.941545 234.017187 
L 373.913 234.017187 
L 373.913 30.877187 
L 182.941545 30.877187 
z
" clip-path="url(#pbf0d73e87f)" style="fill: #84888f; opacity: 0.2"/>
   </g>
   <g id="matplotlib.axis_1">
    <g id="xtick_1">
     <g id="line2d_1">
      <defs>
       <path id="m0fbefb6d84" d="M 0 0 
L 0 4 
" style="stroke: #000000; stroke-width: 2"/>
      </defs>
      <g>
       <use xlink:href="#m0fbefb6d84" x="73.815" y="234.017187" style="stroke: #000000; stroke-width: 2"/>
      </g>
     </g>
    </g>
    <g id="xtick_2">
     <g id="line2d_2">
      <g>
       <use xlink:href="#m0fbefb6d84" x="101.096636" y="234.017187" style="stroke: #000000; stroke-width: 2"/>
      </g>
     </g>
     <g id="text_1">
      <!-- 0 -->
      <g transform="translate(96.642886 252.155) scale(0.14 -0.14)">
       <defs>
        <path id="DejaVuSans-30" d="M 2034 4250 
Q 1547 4250 1301 3770 
Q 1056 3291 1056 2328 
Q 1056 1369 1301 889 
Q 1547 409 2034 409 
Q 2525 409 2770 889 
Q 3016 1369 3016 2328 
Q 3016 3291 2770 3770 
Q 2525 4250 2034 4250 
z
M 2034 4750 
Q 2819 4750 3233 4129 
Q 3647 3509 3647 2328 
Q 3647 1150 3233 529 
Q 2819 -91 2034 -91 
Q 1250 -91 836 529 
Q 422 1150 422 2328 
Q 422 3509 836 4129 
Q 1250 4750 2034 4750 
z
" transform="scale(0.015625)"/>
       </defs>
       <use xlink:href="#DejaVuSans-30"/>
      </g>
     </g>
    </g>
    <g id="xtick_3">
     <g id="line2d_3">
      <g>
       <use xlink:href="#m0fbefb6d84" x="128.378273" y="234.017187" style="stroke: #000000; stroke-width: 2"/>
      </g>
     </g>
    </g>
    <g id="xtick_4">
     <g id="line2d_4">
      <g>
       <use xlink:href="#m0fbefb6d84" x="155.659909" y="234.017187" style="stroke: #000000; stroke-width: 2"/>
      </g>
     </g>
    </g>
    <g id="xtick_5">
     <g id="line2d_5">
      <g>
       <use xlink:href="#m0fbefb6d84" x="182.941545" y="234.017187" style="stroke: #000000; stroke-width: 2"/>
      </g>
     </g>
    </g>
    <g id="xtick_6">
     <g id="line2d_6">
      <g>
       <use xlink:href="#m0fbefb6d84" x="210.223182" y="234.017187" style="stroke: #000000; stroke-width: 2"/>
      </g>
     </g>
    </g>
    <g id="xtick_7">
     <g id="line2d_7">
      <g>
       <use xlink:href="#m0fbefb6d84" x="237.504818" y="234.017187" style="stroke: #000000; stroke-width: 2"/>
      </g>
     </g>
     <g id="text_2">
      <!-- 5 -->
      <g transform="translate(233.051068 252.155) scale(0.14 -0.14)">
       <defs>
        <path id="DejaVuSans-35" d="M 691 4666 
L 3169 4666 
L 3169 4134 
L 1269 4134 
L 1269 2991 
Q 1406 3038 1543 3061 
Q 1681 3084 1819 3084 
Q 2600 3084 3056 2656 
Q 3513 2228 3513 1497 
Q 3513 744 3044 326 
Q 2575 -91 1722 -91 
Q 1428 -91 1123 -41 
Q 819 9 494 109 
L 494 744 
Q 775 591 1075 516 
Q 1375 441 1709 441 
Q 2250 441 2565 725 
Q 2881 1009 2881 1497 
Q 2881 1984 2565 2268 
Q 2250 2553 1709 2553 
Q 1456 2553 1204 2497 
Q 953 2441 691 2322 
L 691 4666 
z
" transform="scale(0.015625)"/>
       </defs>
       <use xlink:href="#DejaVuSans-35"/>
      </g>
     </g>
    </g>
    <g id="xtick_8">
     <g id="line2d_8">
      <g>
       <use xlink:href="#m0fbefb6d84" x="264.786455" y="234.017187" style="stroke: #000000; stroke-width: 2"/>
      </g>
     </g>
    </g>
    <g id="xtick_9">
     <g id="line2d_9">
      <g>
       <use xlink:href="#m0fbefb6d84" x="292.068091" y="234.017187" style="stroke: #000000; stroke-width: 2"/>
      </g>
     </g>
    </g>
    <g id="xtick_10">
     <g id="line2d_10">
      <g>
       <use xlink:href="#m0fbefb6d84" x="319.349727" y="234.017187" style="stroke: #000000; stroke-width: 2"/>
      </g>
     </g>
    </g>
    <g id="xtick_11">
     <g id="line2d_11">
      <g>
       <use xlink:href="#m0fbefb6d84" x="346.631364" y="234.017187" style="stroke: #000000; stroke-width: 2"/>
      </g>
     </g>
    </g>
    <g id="xtick_12">
     <g id="line2d_12">
      <g>
       <use xlink:href="#m0fbefb6d84" x="373.913" y="234.017187" style="stroke: #000000; stroke-width: 2"/>
      </g>
     </g>
     <g id="text_3">
      <!-- 10 -->
      <g transform="translate(365.0055 252.155) scale(0.14 -0.14)">
       <defs>
        <path id="DejaVuSans-31" d="M 794 531 
L 1825 531 
L 1825 4091 
L 703 3866 
L 703 4441 
L 1819 4666 
L 2450 4666 
L 2450 531 
L 3481 531 
L 3481 0 
L 794 0 
L 794 531 
z
" transform="scale(0.015625)"/>
       </defs>
       <use xlink:href="#DejaVuSans-31"/>
       <use xlink:href="#DejaVuSans-30" transform="translate(63.623047 0)"/>
      </g>
     </g>
    </g>
    <g id="text_4">
     <!-- Length (μm) -->
     <g transform="translate(174.6015 271.224063) scale(0.16 -0.16)">
      <defs>
       <path id="DejaVuSans-4c" d="M 628 4666 
L 1259 4666 
L 1259 531 
L 3531 531 
L 3531 0 
L 628 0 
L 628 4666 
z
" transform="scale(0.015625)"/>
       <path id="DejaVuSans-65" d="M 3597 1894 
L 3597 1613 
L 953 1613 
Q 991 1019 1311 708 
Q 1631 397 2203 397 
Q 2534 397 2845 478 
Q 3156 559 3463 722 
L 3463 178 
Q 3153 47 2828 -22 
Q 2503 -91 2169 -91 
Q 1331 -91 842 396 
Q 353 884 353 1716 
Q 353 2575 817 3079 
Q 1281 3584 2069 3584 
Q 2775 3584 3186 3129 
Q 3597 2675 3597 1894 
z
M 3022 2063 
Q 3016 2534 2758 2815 
Q 2500 3097 2075 3097 
Q 1594 3097 1305 2825 
Q 1016 2553 972 2059 
L 3022 2063 
z
" transform="scale(0.015625)"/>
       <path id="DejaVuSans-6e" d="M 3513 2113 
L 3513 0 
L 2938 0 
L 2938 2094 
Q 2938 2591 2744 2837 
Q 2550 3084 2163 3084 
Q 1697 3084 1428 2787 
Q 1159 2491 1159 1978 
L 1159 0 
L 581 0 
L 581 3500 
L 1159 3500 
L 1159 2956 
Q 1366 3272 1645 3428 
Q 1925 3584 2291 3584 
Q 2894 3584 3203 3211 
Q 3513 2838 3513 2113 
z
" transform="scale(0.015625)"/>
       <path id="DejaVuSans-67" d="M 2906 1791 
Q 2906 2416 2648 2759 
Q 2391 3103 1925 3103 
Q 1463 3103 1205 2759 
Q 947 2416 947 1791 
Q 947 1169 1205 825 
Q 1463 481 1925 481 
Q 2391 481 2648 825 
Q 2906 1169 2906 1791 
z
M 3481 434 
Q 3481 -459 3084 -895 
Q 2688 -1331 1869 -1331 
Q 1566 -1331 1297 -1286 
Q 1028 -1241 775 -1147 
L 775 -588 
Q 1028 -725 1275 -790 
Q 1522 -856 1778 -856 
Q 2344 -856 2625 -561 
Q 2906 -266 2906 331 
L 2906 616 
Q 2728 306 2450 153 
Q 2172 0 1784 0 
Q 1141 0 747 490 
Q 353 981 353 1791 
Q 353 2603 747 3093 
Q 1141 3584 1784 3584 
Q 2172 3584 2450 3431 
Q 2728 3278 2906 2969 
L 2906 3500 
L 3481 3500 
L 3481 434 
z
" transform="scale(0.015625)"/>
       <path id="DejaVuSans-74" d="M 1172 4494 
L 1172 3500 
L 2356 3500 
L 2356 3053 
L 1172 3053 
L 1172 1153 
Q 1172 725 1289 603 
Q 1406 481 1766 481 
L 2356 481 
L 2356 0 
L 1766 0 
Q 1100 0 847 248 
Q 594 497 594 1153 
L 594 3053 
L 172 3053 
L 172 3500 
L 594 3500 
L 594 4494 
L 1172 4494 
z
" transform="scale(0.015625)"/>
       <path id="DejaVuSans-68" d="M 3513 2113 
L 3513 0 
L 2938 0 
L 2938 2094 
Q 2938 2591 2744 2837 
Q 2550 3084 2163 3084 
Q 1697 3084 1428 2787 
Q 1159 2491 1159 1978 
L 1159 0 
L 581 0 
L 581 4863 
L 1159 4863 
L 1159 2956 
Q 1366 3272 1645 3428 
Q 1925 3584 2291 3584 
Q 2894 3584 3203 3211 
Q 3513 2838 3513 2113 
z
" transform="scale(0.015625)"/>
       <path id="DejaVuSans-20" transform="scale(0.015625)"/>
       <path id="DejaVuSans-28" d="M 1984 4856 
Q 1566 4138 1362 3434 
Q 1159 2731 1159 2009 
Q 1159 1288 1364 580 
Q 1569 -128 1984 -844 
L 1484 -844 
Q 1016 -109 783 600 
Q 550 1309 550 2009 
Q 550 2706 781 3412 
Q 1013 4119 1484 4856 
L 1984 4856 
z
" transform="scale(0.015625)"/>
       <path id="DejaVuSans-3bc" d="M 544 -1331 
L 544 3500 
L 1119 3500 
L 1119 1325 
Q 1119 872 1334 640 
Q 1550 409 1972 409 
Q 2434 409 2667 671 
Q 2900 934 2900 1459 
L 2900 3500 
L 3475 3500 
L 3475 806 
Q 3475 619 3529 530 
Q 3584 441 3700 441 
Q 3728 441 3778 458 
Q 3828 475 3916 513 
L 3916 50 
Q 3788 -22 3673 -56 
Q 3559 -91 3450 -91 
Q 3234 -91 3106 31 
Q 2978 153 2931 403 
Q 2775 156 2548 32 
Q 2322 -91 2016 -91 
Q 1697 -91 1473 31 
Q 1250 153 1119 397 
L 1119 -1331 
L 544 -1331 
z
" transform="scale(0.015625)"/>
       <path id="DejaVuSans-6d" d="M 3328 2828 
Q 3544 3216 3844 3400 
Q 4144 3584 4550 3584 
Q 5097 3584 5394 3201 
Q 5691 2819 5691 2113 
L 5691 0 
L 5113 0 
L 5113 2094 
Q 5113 2597 4934 2840 
Q 4756 3084 4391 3084 
Q 3944 3084 3684 2787 
Q 3425 2491 3425 1978 
L 3425 0 
L 2847 0 
L 2847 2094 
Q 2847 2600 2669 2842 
Q 2491 3084 2119 3084 
Q 1678 3084 1418 2786 
Q 1159 2488 1159 1978 
L 1159 0 
L 581 0 
L 581 3500 
L 1159 3500 
L 1159 2956 
Q 1356 3278 1631 3431 
Q 1906 3584 2284 3584 
Q 2666 3584 2933 3390 
Q 3200 3197 3328 2828 
z
" transform="scale(0.015625)"/>
       <path id="DejaVuSans-29" d="M 513 4856 
L 1013 4856 
Q 1481 4119 1714 3412 
Q 1947 2706 1947 2009 
Q 1947 1309 1714 600 
Q 1481 -109 1013 -844 
L 513 -844 
Q 928 -128 1133 580 
Q 1338 1288 1338 2009 
Q 1338 2731 1133 3434 
Q 928 4138 513 4856 
z
" transform="scale(0.015625)"/>
      </defs>
      <use xlink:href="#DejaVuSans-4c"/>
      <use xlink:href="#DejaVuSans-65" transform="translate(53.962891 0)"/>
      <use xlink:href="#DejaVuSans-6e" transform="translate(115.486328 0)"/>
      <use xlink:href="#DejaVuSans-67" transform="translate(178.865234 0)"/>
      <use xlink:href="#DejaVuSans-74" transform="translate(242.341797 0)"/>
      <use xlink:href="#DejaVuSans-68" transform="translate(281.550781 0)"/>
      <use xlink:href="#DejaVuSans-20" transform="translate(344.929688 0)"/>
      <use xlink:href="#DejaVuSans-28" transform="translate(376.716797 0)"/>
      <use xlink:href="#DejaVuSans-3bc" transform="translate(415.730469 0)"/>
      <use xlink:href="#DejaVuSans-6d" transform="translate(479.353516 0)"/>
      <use xlink:href="#DejaVuSans-29" transform="translate(576.765625 0)"/>
     </g>
    </g>
   </g>
   <g id="matplotlib.axis_2">
    <g id="ytick_1">
     <g id="line2d_13">
      <defs>
       <path id="m2fc68d46cb" d="M 0 0 
L -8 0 
" style="stroke: #000000; stroke-width: 2"/>
      </defs>
      <g>
       <use xlink:href="#m2fc68d46cb" x="73.815" y="234.017187" style="stroke: #000000; stroke-width: 2"/>
      </g>
     </g>
     <g id="text_5">
      <!-- 0 -->
      <g transform="translate(53.4075 239.336094) scale(0.14 -0.14)">
       <use xlink:href="#DejaVuSans-30"/>
      </g>
     </g>
    </g>
    <g id="ytick_2">
     <g id="line2d_14">
      <g>
       <use xlink:href="#m2fc68d46cb" x="73.815" y="193.389187" style="stroke: #000000; stroke-width: 2"/>
      </g>
     </g>
     <g id="text_6">
      <!-- 200 -->
      <g transform="translate(35.5925 198.708094) scale(0.14 -0.14)">
       <defs>
        <path id="DejaVuSans-32" d="M 1228 531 
L 3431 531 
L 3431 0 
L 469 0 
L 469 531 
Q 828 903 1448 1529 
Q 2069 2156 2228 2338 
Q 2531 2678 2651 2914 
Q 2772 3150 2772 3378 
Q 2772 3750 2511 3984 
Q 2250 4219 1831 4219 
Q 1534 4219 1204 4116 
Q 875 4013 500 3803 
L 500 4441 
Q 881 4594 1212 4672 
Q 1544 4750 1819 4750 
Q 2544 4750 2975 4387 
Q 3406 4025 3406 3419 
Q 3406 3131 3298 2873 
Q 3191 2616 2906 2266 
Q 2828 2175 2409 1742 
Q 1991 1309 1228 531 
z
" transform="scale(0.015625)"/>
       </defs>
       <use xlink:href="#DejaVuSans-32"/>
       <use xlink:href="#DejaVuSans-30" transform="translate(63.623047 0)"/>
       <use xlink:href="#DejaVuSans-30" transform="translate(127.246094 0)"/>
      </g>
     </g>
    </g>
    <g id="ytick_3">
     <g id="line2d_15">
      <g>
       <use xlink:href="#m2fc68d46cb" x="73.815" y="152.761187" style="stroke: #000000; stroke-width: 2"/>
      </g>
     </g>
     <g id="text_7">
      <!-- 400 -->
      <g transform="translate(35.5925 158.080094) scale(0.14 -0.14)">
       <defs>
        <path id="DejaVuSans-34" d="M 2419 4116 
L 825 1625 
L 2419 1625 
L 2419 4116 
z
M 2253 4666 
L 3047 4666 
L 3047 1625 
L 3713 1625 
L 3713 1100 
L 3047 1100 
L 3047 0 
L 2419 0 
L 2419 1100 
L 313 1100 
L 313 1709 
L 2253 4666 
z
" transform="scale(0.015625)"/>
       </defs>
       <use xlink:href="#DejaVuSans-34"/>
       <use xlink:href="#DejaVuSans-30" transform="translate(63.623047 0)"/>
       <use xlink:href="#DejaVuSans-30" transform="translate(127.246094 0)"/>
      </g>
     </g>
    </g>
    <g id="ytick_4">
     <g id="line2d_16">
      <g>
       <use xlink:href="#m2fc68d46cb" x="73.815" y="112.133187" style="stroke: #000000; stroke-width: 2"/>
      </g>
     </g>
     <g id="text_8">
      <!-- 600 -->
      <g transform="translate(35.5925 117.452094) scale(0.14 -0.14)">
       <defs>
        <path id="DejaVuSans-36" d="M 2113 2584 
Q 1688 2584 1439 2293 
Q 1191 2003 1191 1497 
Q 1191 994 1439 701 
Q 1688 409 2113 409 
Q 2538 409 2786 701 
Q 3034 994 3034 1497 
Q 3034 2003 2786 2293 
Q 2538 2584 2113 2584 
z
M 3366 4563 
L 3366 3988 
Q 3128 4100 2886 4159 
Q 2644 4219 2406 4219 
Q 1781 4219 1451 3797 
Q 1122 3375 1075 2522 
Q 1259 2794 1537 2939 
Q 1816 3084 2150 3084 
Q 2853 3084 3261 2657 
Q 3669 2231 3669 1497 
Q 3669 778 3244 343 
Q 2819 -91 2113 -91 
Q 1303 -91 875 529 
Q 447 1150 447 2328 
Q 447 3434 972 4092 
Q 1497 4750 2381 4750 
Q 2619 4750 2861 4703 
Q 3103 4656 3366 4563 
z
" transform="scale(0.015625)"/>
       </defs>
       <use xlink:href="#DejaVuSans-36"/>
       <use xlink:href="#DejaVuSans-30" transform="translate(63.623047 0)"/>
       <use xlink:href="#DejaVuSans-30" transform="translate(127.246094 0)"/>
      </g>
     </g>
    </g>
    <g id="ytick_5">
     <g id="line2d_17">
      <g>
       <use xlink:href="#m2fc68d46cb" x="73.815" y="71.505187" style="stroke: #000000; stroke-width: 2"/>
      </g>
     </g>
     <g id="text_9">
      <!-- 800 -->
      <g transform="translate(35.5925 76.824094) scale(0.14 -0.14)">
       <defs>
        <path id="DejaVuSans-38" d="M 2034 2216 
Q 1584 2216 1326 1975 
Q 1069 1734 1069 1313 
Q 1069 891 1326 650 
Q 1584 409 2034 409 
Q 2484 409 2743 651 
Q 3003 894 3003 1313 
Q 3003 1734 2745 1975 
Q 2488 2216 2034 2216 
z
M 1403 2484 
Q 997 2584 770 2862 
Q 544 3141 544 3541 
Q 544 4100 942 4425 
Q 1341 4750 2034 4750 
Q 2731 4750 3128 4425 
Q 3525 4100 3525 3541 
Q 3525 3141 3298 2862 
Q 3072 2584 2669 2484 
Q 3125 2378 3379 2068 
Q 3634 1759 3634 1313 
Q 3634 634 3220 271 
Q 2806 -91 2034 -91 
Q 1263 -91 848 271 
Q 434 634 434 1313 
Q 434 1759 690 2068 
Q 947 2378 1403 2484 
z
M 1172 3481 
Q 1172 3119 1398 2916 
Q 1625 2713 2034 2713 
Q 2441 2713 2670 2916 
Q 2900 3119 2900 3481 
Q 2900 3844 2670 4047 
Q 2441 4250 2034 4250 
Q 1625 4250 1398 4047 
Q 1172 3844 1172 3481 
z
" transform="scale(0.015625)"/>
       </defs>
       <use xlink:href="#DejaVuSans-38"/>
       <use xlink:href="#DejaVuSans-30" transform="translate(63.623047 0)"/>
       <use xlink:href="#DejaVuSans-30" transform="translate(127.246094 0)"/>
      </g>
     </g>
    </g>
    <g id="ytick_6">
     <g id="line2d_18">
      <g>
       <use xlink:href="#m2fc68d46cb" x="73.815" y="30.877187" style="stroke: #000000; stroke-width: 2"/>
      </g>
     </g>
     <g id="text_10">
      <!-- 1000 -->
      <g transform="translate(26.685 36.196094) scale(0.14 -0.14)">
       <use xlink:href="#DejaVuSans-31"/>
       <use xlink:href="#DejaVuSans-30" transform="translate(63.623047 0)"/>
       <use xlink:href="#DejaVuSans-30" transform="translate(127.246094 0)"/>
       <use xlink:href="#DejaVuSans-30" transform="translate(190.869141 0)"/>
      </g>
     </g>
    </g>
    <g id="text_11">
     <!-- Intensity (a.u.) -->
     <g transform="translate(19.3575 191.109687) rotate(-90) scale(0.16 -0.16)">
      <defs>
       <path id="DejaVuSans-49" d="M 628 4666 
L 1259 4666 
L 1259 0 
L 628 0 
L 628 4666 
z
" transform="scale(0.015625)"/>
       <path id="DejaVuSans-73" d="M 2834 3397 
L 2834 2853 
Q 2591 2978 2328 3040 
Q 2066 3103 1784 3103 
Q 1356 3103 1142 2972 
Q 928 2841 928 2578 
Q 928 2378 1081 2264 
Q 1234 2150 1697 2047 
L 1894 2003 
Q 2506 1872 2764 1633 
Q 3022 1394 3022 966 
Q 3022 478 2636 193 
Q 2250 -91 1575 -91 
Q 1294 -91 989 -36 
Q 684 19 347 128 
L 347 722 
Q 666 556 975 473 
Q 1284 391 1588 391 
Q 1994 391 2212 530 
Q 2431 669 2431 922 
Q 2431 1156 2273 1281 
Q 2116 1406 1581 1522 
L 1381 1569 
Q 847 1681 609 1914 
Q 372 2147 372 2553 
Q 372 3047 722 3315 
Q 1072 3584 1716 3584 
Q 2034 3584 2315 3537 
Q 2597 3491 2834 3397 
z
" transform="scale(0.015625)"/>
       <path id="DejaVuSans-69" d="M 603 3500 
L 1178 3500 
L 1178 0 
L 603 0 
L 603 3500 
z
M 603 4863 
L 1178 4863 
L 1178 4134 
L 603 4134 
L 603 4863 
z
" transform="scale(0.015625)"/>
       <path id="DejaVuSans-79" d="M 2059 -325 
Q 1816 -950 1584 -1140 
Q 1353 -1331 966 -1331 
L 506 -1331 
L 506 -850 
L 844 -850 
Q 1081 -850 1212 -737 
Q 1344 -625 1503 -206 
L 1606 56 
L 191 3500 
L 800 3500 
L 1894 763 
L 2988 3500 
L 3597 3500 
L 2059 -325 
z
" transform="scale(0.015625)"/>
       <path id="DejaVuSans-61" d="M 2194 1759 
Q 1497 1759 1228 1600 
Q 959 1441 959 1056 
Q 959 750 1161 570 
Q 1363 391 1709 391 
Q 2188 391 2477 730 
Q 2766 1069 2766 1631 
L 2766 1759 
L 2194 1759 
z
M 3341 1997 
L 3341 0 
L 2766 0 
L 2766 531 
Q 2569 213 2275 61 
Q 1981 -91 1556 -91 
Q 1019 -91 701 211 
Q 384 513 384 1019 
Q 384 1609 779 1909 
Q 1175 2209 1959 2209 
L 2766 2209 
L 2766 2266 
Q 2766 2663 2505 2880 
Q 2244 3097 1772 3097 
Q 1472 3097 1187 3025 
Q 903 2953 641 2809 
L 641 3341 
Q 956 3463 1253 3523 
Q 1550 3584 1831 3584 
Q 2591 3584 2966 3190 
Q 3341 2797 3341 1997 
z
" transform="scale(0.015625)"/>
       <path id="DejaVuSans-2e" d="M 684 794 
L 1344 794 
L 1344 0 
L 684 0 
L 684 794 
z
" transform="scale(0.015625)"/>
       <path id="DejaVuSans-75" d="M 544 1381 
L 544 3500 
L 1119 3500 
L 1119 1403 
Q 1119 906 1312 657 
Q 1506 409 1894 409 
Q 2359 409 2629 706 
Q 2900 1003 2900 1516 
L 2900 3500 
L 3475 3500 
L 3475 0 
L 2900 0 
L 2900 538 
Q 2691 219 2414 64 
Q 2138 -91 1772 -91 
Q 1169 -91 856 284 
Q 544 659 544 1381 
z
M 1991 3584 
L 1991 3584 
z
" transform="scale(0.015625)"/>
      </defs>
      <use xlink:href="#DejaVuSans-49"/>
      <use xlink:href="#DejaVuSans-6e" transform="translate(29.492188 0)"/>
      <use xlink:href="#DejaVuSans-74" transform="translate(92.871094 0)"/>
      <use xlink:href="#DejaVuSans-65" transform="translate(132.080078 0)"/>
      <use xlink:href="#DejaVuSans-6e" transform="translate(193.603516 0)"/>
      <use xlink:href="#DejaVuSans-73" transform="translate(256.982422 0)"/>
      <use xlink:href="#DejaVuSans-69" transform="translate(309.082031 0)"/>
      <use xlink:href="#DejaVuSans-74" transform="translate(336.865234 0)"/>
      <use xlink:href="#DejaVuSans-79" transform="translate(376.074219 0)"/>
      <use xlink:href="#DejaVuSans-20" transform="translate(435.253906 0)"/>
      <use xlink:href="#DejaVuSans-28" transform="translate(467.041016 0)"/>
      <use xlink:href="#DejaVuSans-61" transform="translate(506.054688 0)"/>
      <use xlink:href="#DejaVuSans-2e" transform="translate(567.333984 0)"/>
      <use xlink:href="#DejaVuSans-75" transform="translate(599.121094 0)"/>
      <use xlink:href="#DejaVuSans-2e" transform="translate(662.5 0)"/>
      <use xlink:href="#DejaVuSans-29" transform="translate(694.287109 0)"/>
     </g>
    </g>
   </g>
   <g id="line2d_19">
    <path d="M 101.096636 226.297867 
L 101.82658 215.099004 
L 102.556523 197.15557 
L 105.476297 107.084146 
L 106.20624 92.053463 
L 106.936184 81.662006 
L 108.396071 64.03804 
L 109.126014 54.092529 
L 109.855958 46.20494 
L 110.585901 43.344161 
L 111.315845 46.818043 
L 112.045788 54.934616 
L 113.505675 76.827855 
L 114.235618 85.392122 
L 114.965562 88.278684 
L 115.695505 83.461631 
L 117.155392 66.627452 
L 117.885336 64.670697 
L 118.615279 68.00821 
L 119.345223 73.17874 
L 120.075166 76.818558 
L 120.805109 77.833204 
L 121.535053 77.103249 
L 122.99494 73.871927 
L 124.454827 70.864661 
L 125.18477 69.872976 
L 125.914714 69.22562 
L 126.644657 68.861777 
L 128.834487 68.325057 
L 130.294374 67.237279 
L 131.024318 66.983702 
L 131.754261 67.366737 
L 133.214148 69.143257 
L 133.944092 69.607819 
L 134.674035 69.226003 
L 135.403978 67.652298 
L 136.133922 64.55462 
L 136.863865 60.48299 
L 137.593809 57.535182 
L 138.323752 57.964696 
L 139.053696 62.912522 
L 140.513583 77.36045 
L 141.243526 81.916482 
L 141.973469 83.891585 
L 142.703413 83.92121 
L 143.433356 82.644046 
L 144.893243 78.84456 
L 145.623187 77.656539 
L 146.35313 77.395159 
L 147.083074 77.937652 
L 147.813017 79.151334 
L 148.54296 80.960888 
L 149.272904 83.368934 
L 150.002847 86.383271 
L 151.462734 93.757524 
L 152.922621 101.156859 
L 153.652565 104.267731 
L 154.382508 106.733328 
L 155.112452 108.318511 
L 155.842395 108.468549 
L 156.572338 106.500946 
L 157.302282 101.867007 
L 158.762169 89.858104 
L 159.492112 86.622752 
L 160.951999 84.798094 
L 161.681943 81.191279 
L 163.141829 68.984217 
L 163.871773 68.129075 
L 164.601716 74.012781 
L 165.33166 82.364591 
L 166.061603 87.833332 
L 166.791547 86.415029 
L 168.251434 74.992673 
L 168.981377 73.470283 
L 169.71132 75.609072 
L 170.441264 78.697651 
L 171.171207 80.13318 
L 171.901151 79.406117 
L 172.631094 77.73009 
L 173.361038 76.35118 
L 174.090981 75.754717 
L 174.820925 75.421043 
L 175.550868 74.764071 
L 176.280811 73.641659 
L 177.010755 72.867439 
L 177.740698 73.379136 
L 178.470642 75.71735 
L 179.930529 81.933353 
L 180.660472 83.546732 
L 181.390416 84.0277 
L 182.120359 84.066389 
L 182.850303 84.324056 
L 183.580246 85.118466 
L 184.310189 86.547867 
L 185.770076 90.778031 
L 186.50002 91.332756 
L 187.229963 88.79759 
L 188.68985 76.915503 
L 189.419794 72.821272 
L 190.149737 72.544059 
L 190.87968 74.812633 
L 191.609624 77.856031 
L 192.339567 80.199591 
L 193.069511 81.759252 
L 194.529398 83.807048 
L 195.989285 85.96775 
L 196.719228 87.409497 
L 197.449171 88.544751 
L 198.179115 88.257019 
L 198.909058 85.439249 
L 199.639002 79.914231 
L 201.828832 57.942926 
L 202.558776 54.037212 
L 203.288719 55.452826 
L 204.018663 63.211436 
L 205.478549 83.176784 
L 206.208493 87.289436 
L 206.938436 86.522747 
L 207.66838 82.652114 
L 209.128267 72.195031 
L 209.85821 68.1024 
L 210.588154 66.217335 
L 211.318097 66.424006 
L 212.04804 67.416855 
L 212.777984 67.851618 
L 214.237871 66.536918 
L 214.967814 66.753161 
L 215.697758 68.43455 
L 216.427701 70.755654 
L 217.157645 72.667586 
L 217.887588 73.203697 
L 218.617531 71.771146 
L 219.347475 67.883237 
L 220.807362 54.155276 
L 221.537305 49.449675 
L 222.267249 50.093355 
L 222.997192 55.41548 
L 223.727136 61.983987 
L 224.457079 66.363243 
L 225.187022 67.587315 
L 225.916966 67.775353 
L 226.646909 69.231209 
L 228.106796 76.961131 
L 228.83674 79.267946 
L 229.566683 78.448655 
L 231.02657 73.166099 
L 231.756514 72.108111 
L 232.486457 72.3259 
L 233.2164 72.852629 
L 233.946344 72.755311 
L 234.676287 71.471423 
L 235.406231 68.662069 
L 236.136174 64.053544 
L 236.866118 58.731532 
L 237.596061 55.103897 
L 238.326005 55.593709 
L 239.785891 65.104115 
L 240.515835 66.187946 
L 241.245778 61.622526 
L 241.975722 55.531858 
L 242.705665 52.985793 
L 243.435609 57.633267 
L 244.895496 76.363517 
L 245.625439 82.255638 
L 246.355382 84.247282 
L 247.085326 83.697877 
L 247.815269 81.931755 
L 249.275156 76.976174 
L 250.735043 71.60499 
L 251.464987 70.009092 
L 252.19493 70.091227 
L 252.924874 71.990653 
L 254.38476 77.112268 
L 255.114704 78.400028 
L 255.844647 78.859077 
L 256.574591 79.001725 
L 257.304534 79.306637 
L 258.034478 80.060741 
L 258.764421 81.483155 
L 259.494365 83.665223 
L 260.224308 85.3898 
L 260.954251 84.672216 
L 261.684195 79.627604 
L 263.144082 60.317738 
L 263.874025 51.249867 
L 264.603969 45.539187 
L 265.333912 44.437362 
L 266.063856 49.121443 
L 267.523742 69.230165 
L 268.253686 74.139997 
L 268.983629 70.028369 
L 269.713573 61.119066 
L 270.443516 53.754669 
L 271.17346 53.348973 
L 271.903403 58.404224 
L 272.633347 64.306371 
L 273.36329 66.710479 
L 274.093234 65.250378 
L 274.823177 62.488405 
L 275.55312 61.012422 
L 276.283064 62.064971 
L 277.013007 65.299226 
L 277.742951 70.272422 
L 278.472894 76.052405 
L 279.202838 80.770331 
L 279.932781 82.451948 
L 280.662725 80.079067 
L 282.122611 71.958204 
L 282.852555 71.060456 
L 283.582498 72.650056 
L 286.502272 83.744239 
L 289.422046 93.452425 
L 290.881933 97.802367 
L 291.611876 99.622656 
L 292.34182 101.088082 
L 293.071763 102.106126 
L 293.801707 102.583766 
L 295.261593 102.569374 
L 295.991537 103.31728 
L 296.72148 105.310369 
L 297.451424 107.807703 
L 298.181367 109.519709 
L 298.911311 109.250356 
L 299.641254 107.091865 
L 301.101141 101.167455 
L 301.831085 98.94056 
L 302.561028 97.329073 
L 304.020915 95.315322 
L 304.750858 93.569855 
L 305.480802 89.997018 
L 306.940689 78.241759 
L 307.670632 74.150143 
L 308.400576 73.737861 
L 309.130519 75.982582 
L 309.860462 78.944743 
L 310.590406 80.905508 
L 311.320349 82.253477 
L 312.050293 84.544156 
L 312.780236 89.281142 
L 313.51018 96.747797 
L 314.970067 116.602093 
L 319.349727 181.200787 
L 319.349727 181.200787 
" clip-path="url(#pbf0d73e87f)" style="fill: none; stroke: #8b1c0f; stroke-width: 2; stroke-linecap: square"/>
   </g>
   <g id="line2d_20">
    <path d="M 101.096636 199.483387 
L 102.556523 178.729545 
L 104.01641 162.908736 
L 105.476297 150.233489 
L 106.20624 144.606886 
L 106.936184 140.007734 
L 107.666127 137.389473 
L 108.396071 137.592134 
L 109.126014 140.057687 
L 109.855958 143.300717 
L 110.585901 145.852803 
L 111.315845 146.886439 
L 112.045788 146.148987 
L 112.775732 143.43229 
L 114.235618 135.41141 
L 114.965562 133.281679 
L 115.695505 133.434835 
L 116.425449 134.535724 
L 117.155392 135.083294 
L 117.885336 134.350772 
L 118.615279 133.349023 
L 119.345223 133.325328 
L 120.075166 134.918332 
L 120.805109 136.867498 
L 121.535053 137.542889 
L 122.264996 135.785821 
L 123.724883 129.189548 
L 124.454827 127.142787 
L 125.18477 126.634826 
L 125.914714 127.531028 
L 126.644657 129.652672 
L 128.104544 135.091844 
L 128.834487 136.925873 
L 129.564431 138.152932 
L 130.294374 139.661448 
L 131.024318 142.310192 
L 132.484205 149.622287 
L 133.214148 152.141592 
L 133.944092 153.226465 
L 135.403978 153.917061 
L 136.133922 154.573136 
L 136.863865 155.017752 
L 137.593809 154.650316 
L 138.323752 153.26891 
L 139.053696 151.648908 
L 139.783639 150.712644 
L 140.513583 151.003632 
L 141.243526 151.768724 
L 141.973469 151.977564 
L 142.703413 150.875918 
L 144.1633 147.457111 
L 144.893243 147.00692 
L 145.623187 147.936107 
L 146.35313 150.219035 
L 148.54296 161.050182 
L 149.272904 162.48005 
L 150.002847 161.986862 
L 150.732791 160.327966 
L 152.192678 156.458011 
L 152.922621 155.337923 
L 153.652565 155.358778 
L 154.382508 156.138485 
L 155.112452 156.119328 
L 155.842395 153.664936 
L 157.302282 143.127118 
L 158.032225 140.219307 
L 158.762169 141.07213 
L 159.492112 143.02303 
L 160.222056 142.756872 
L 160.951999 138.166426 
L 161.681943 131.683511 
L 162.411886 126.805937 
L 163.141829 126.22907 
L 164.601716 130.318514 
L 165.33166 129.422507 
L 166.061603 125.984755 
L 167.52149 117.846632 
L 168.251434 115.682205 
L 168.981377 115.72986 
L 169.71132 118.550327 
L 170.441264 123.837785 
L 173.361038 149.957088 
L 174.090981 154.181567 
L 174.820925 156.699748 
L 175.550868 157.656715 
L 176.280811 157.232728 
L 177.740698 154.442493 
L 178.470642 154.009471 
L 179.200585 155.014845 
L 179.930529 156.352205 
L 180.660472 156.628467 
L 181.390416 154.84727 
L 183.580246 145.148081 
L 184.310189 143.114636 
L 185.040133 142.083532 
L 185.770076 142.069193 
L 186.50002 142.491946 
L 187.229963 142.474863 
L 188.68985 139.878336 
L 189.419794 140.439528 
L 190.149737 144.985905 
L 191.609624 158.946539 
L 192.339567 160.544798 
L 193.069511 156.933453 
L 193.799454 152.260725 
L 194.529398 150.918764 
L 195.259341 154.616294 
L 195.989285 160.538932 
L 196.719228 165.442709 
L 197.449171 167.424346 
L 198.909058 167.837128 
L 199.639002 169.052457 
L 201.098889 172.805048 
L 201.828832 174.058548 
L 202.558776 174.581344 
L 203.288719 174.387986 
L 204.018663 173.510781 
L 204.748606 172.096245 
L 206.208493 168.414096 
L 208.398323 162.586907 
L 209.128267 160.923175 
L 209.85821 159.672139 
L 210.588154 159.025431 
L 211.318097 159.145185 
L 212.04804 160.164028 
L 212.777984 162.200579 
L 213.507927 164.833264 
L 214.237871 166.911293 
L 214.967814 167.24293 
L 216.427701 164.074182 
L 217.157645 164.394518 
L 217.887588 167.556901 
L 218.617531 171.655352 
L 219.347475 174.347644 
L 220.077418 173.932336 
L 220.807362 170.97049 
L 222.997192 157.535403 
L 223.727136 155.30976 
L 224.457079 155.925535 
L 225.187022 158.710045 
L 226.646909 165.382597 
L 227.376853 167.552221 
L 228.106796 168.885372 
L 228.83674 169.465774 
L 229.566683 169.266391 
L 230.296627 168.171108 
L 231.02657 166.071299 
L 232.486457 159.786049 
L 233.2164 156.518006 
L 233.946344 153.934595 
L 234.676287 152.860974 
L 235.406231 154.132884 
L 236.136174 157.729314 
L 236.866118 161.916927 
L 237.596061 164.759912 
L 238.326005 165.181241 
L 239.055948 164.47651 
L 239.785891 164.347609 
L 240.515835 166.004527 
L 241.975722 171.425352 
L 242.705665 173.018237 
L 243.435609 173.324252 
L 244.165552 172.413828 
L 245.625439 168.213399 
L 246.355382 166.848042 
L 247.085326 167.32518 
L 247.815269 169.018118 
L 248.545213 170.263364 
L 249.275156 169.458881 
L 250.0051 166.437145 
L 251.464987 158.117338 
L 252.19493 154.903392 
L 252.924874 153.416166 
L 253.654817 154.406417 
L 254.38476 157.735236 
L 255.114704 161.84577 
L 255.844647 165.058756 
L 256.574591 166.50485 
L 257.304534 167.080088 
L 258.034478 167.912794 
L 258.764421 169.726332 
L 260.224308 174.056389 
L 260.954251 175.307996 
L 262.414138 176.981117 
L 263.874025 179.77996 
L 264.603969 180.436 
L 265.333912 179.613847 
L 266.063856 177.253995 
L 266.793799 173.636085 
L 268.983629 159.987099 
L 269.713573 157.274054 
L 270.443516 156.527025 
L 271.17346 157.774922 
L 271.903403 161.016494 
L 274.093234 174.944528 
L 274.823177 177.666695 
L 276.283064 181.087437 
L 277.742951 184.283112 
L 278.472894 185.081751 
L 279.202838 184.895164 
L 279.932781 183.930689 
L 282.122611 179.521746 
L 282.852555 178.634588 
L 283.582498 178.550324 
L 284.312442 179.273459 
L 285.042385 180.691949 
L 286.502272 184.573866 
L 287.232216 185.654234 
L 287.962159 185.144076 
L 288.692102 183.24256 
L 289.422046 180.869406 
L 290.151989 178.939441 
L 290.881933 177.812298 
L 291.611876 177.277122 
L 292.34182 177.098838 
L 293.071763 177.1245 
L 293.801707 177.315129 
L 295.261593 177.997092 
L 295.991537 178.156525 
L 296.72148 177.871718 
L 297.451424 176.798615 
L 298.181367 174.33827 
L 298.911311 169.850834 
L 300.371198 157.49823 
L 301.101141 155.318288 
L 301.831085 159.15592 
L 304.020915 182.788591 
L 304.750858 187.029034 
L 305.480802 189.196517 
L 306.210745 189.812944 
L 306.940689 189.5171 
L 307.670632 189.019087 
L 308.400576 188.997396 
L 309.130519 189.5858 
L 311.320349 192.17398 
L 312.050293 193.401119 
L 312.780236 195.406968 
L 314.970067 203.886527 
L 316.429953 207.950142 
L 317.159897 210.608316 
L 317.88984 214.578905 
L 318.619784 220.533033 
L 319.349727 229.141827 
L 319.349727 229.141827 
" clip-path="url(#pbf0d73e87f)" style="fill: none; stroke: #1d0cfd; stroke-width: 2; stroke-linecap: square"/>
   </g>
   <g id="line2d_21">
    <path d="M 101.096636 154.589447 
L 101.82658 152.088693 
L 102.556523 153.145207 
L 103.286467 156.396315 
L 104.746354 164.031615 
L 105.476297 165.690458 
L 106.20624 164.108081 
L 106.936184 159.288516 
L 107.666127 153.648803 
L 108.396071 149.855709 
L 109.126014 149.966677 
L 109.855958 152.950654 
L 110.585901 156.80037 
L 111.315845 159.591133 
L 112.045788 160.848667 
L 113.505675 161.841281 
L 114.965562 163.514459 
L 115.695505 163.453273 
L 116.425449 162.044323 
L 117.885336 157.381482 
L 118.615279 155.797658 
L 119.345223 155.518711 
L 120.075166 156.761608 
L 120.805109 159.728131 
L 122.99494 173.381568 
L 123.724883 175.521097 
L 124.454827 175.85047 
L 125.18477 175.204016 
L 127.3746 172.883365 
L 128.104544 171.36197 
L 129.564431 166.862869 
L 130.294374 165.858831 
L 131.024318 167.01046 
L 132.484205 172.736809 
L 133.214148 174.41474 
L 133.944092 174.09947 
L 134.674035 172.224382 
L 136.863865 163.211506 
L 137.593809 161.954329 
L 138.323752 163.179875 
L 139.053696 166.647926 
L 140.513583 175.755257 
L 141.243526 179.460776 
L 141.973469 182.29046 
L 142.703413 184.2787 
L 143.433356 185.443496 
L 144.1633 185.710786 
L 144.893243 184.974385 
L 145.623187 183.147369 
L 147.813017 175.619503 
L 148.54296 174.370206 
L 150.002847 173.028811 
L 150.732791 172.022847 
L 152.192678 169.422732 
L 152.922621 168.399998 
L 153.652565 167.757011 
L 154.382508 167.385954 
L 155.842395 167.007468 
L 158.032225 166.705452 
L 158.762169 166.295446 
L 159.492112 165.098423 
L 160.222056 162.657088 
L 162.411886 152.534494 
L 163.141829 151.381335 
L 163.871773 152.094157 
L 164.601716 154.674129 
L 165.33166 159.05002 
L 166.791547 168.751295 
L 167.52149 170.964906 
L 168.251434 170.493426 
L 168.981377 168.911439 
L 169.71132 167.990998 
L 170.441264 169.087665 
L 171.901151 173.968752 
L 172.631094 175.187296 
L 173.361038 174.781 
L 174.090981 173.074214 
L 174.820925 170.41332 
L 176.280811 164.244121 
L 177.010755 162.101663 
L 177.740698 161.346048 
L 179.200585 161.432555 
L 179.930529 160.420814 
L 181.390416 156.808157 
L 182.120359 156.498477 
L 182.850303 158.18148 
L 184.310189 163.656561 
L 185.040133 165.241097 
L 185.770076 165.480744 
L 186.50002 164.546942 
L 187.229963 162.626692 
L 187.959907 160.369935 
L 188.68985 159.003638 
L 189.419794 159.790881 
L 190.149737 163.364574 
L 191.609624 172.429421 
L 192.339567 174.201645 
L 193.069511 173.620953 
L 194.529398 170.117544 
L 195.259341 168.973778 
L 196.719228 167.208696 
L 197.449171 166.012931 
L 198.179115 165.140101 
L 198.909058 165.398515 
L 199.639002 167.494173 
L 200.368945 170.706109 
L 201.098889 173.265703 
L 201.828832 173.390588 
L 202.558776 170.460182 
L 204.018663 162.016701 
L 204.748606 159.837957 
L 205.478549 159.253298 
L 206.208493 159.394872 
L 206.938436 159.421356 
L 207.66838 159.011086 
L 209.85821 156.959469 
L 210.588154 157.752718 
L 211.318097 160.97884 
L 212.04804 167.394767 
L 212.777984 175.298283 
L 213.507927 181.945985 
L 214.237871 184.671772 
L 214.967814 183.068678 
L 216.427701 175.390745 
L 217.157645 173.077038 
L 218.617531 170.618902 
L 220.077418 166.9433 
L 220.807362 166.082596 
L 221.537305 167.389841 
L 222.997192 174.521491 
L 223.727136 176.751818 
L 224.457079 176.187433 
L 225.187022 173.677033 
L 225.916966 170.568092 
L 226.646909 168.114677 
L 228.83674 163.345946 
L 229.566683 161.230897 
L 230.296627 159.505394 
L 231.02657 159.030586 
L 231.756514 160.39276 
L 233.2164 165.381527 
L 233.946344 166.859072 
L 234.676287 167.084225 
L 235.406231 166.492965 
L 236.866118 164.635517 
L 237.596061 164.102462 
L 238.326005 164.251069 
L 239.785891 166.39455 
L 240.515835 166.668871 
L 241.245778 165.099817 
L 243.435609 155.524356 
L 244.165552 154.590118 
L 244.895496 154.882494 
L 245.625439 155.653277 
L 246.355382 156.24253 
L 247.085326 156.671713 
L 247.815269 157.279421 
L 248.545213 158.39823 
L 249.275156 160.101284 
L 255.114704 176.400085 
L 255.844647 178.089533 
L 256.574591 179.218734 
L 257.304534 179.336181 
L 258.034478 177.975999 
L 260.224308 169.420876 
L 260.954251 169.81439 
L 261.684195 172.373325 
L 262.414138 175.338155 
L 263.144082 176.929703 
L 263.874025 176.258239 
L 264.603969 174.07098 
L 266.063856 168.725023 
L 266.793799 166.564755 
L 267.523742 164.802028 
L 268.253686 163.42355 
L 271.903403 158.083295 
L 272.633347 157.633748 
L 273.36329 158.005502 
L 275.55312 161.0734 
L 276.283064 161.659768 
L 277.742951 162.575354 
L 278.472894 163.266471 
L 279.202838 164.169419 
L 280.662725 166.502094 
L 281.392668 167.668782 
L 282.122611 168.451016 
L 282.852555 168.54571 
L 284.312442 167.369643 
L 285.042385 167.191633 
L 285.772329 167.848925 
L 287.232216 170.290602 
L 287.962159 171.174686 
L 288.692102 171.471157 
L 289.422046 171.105244 
L 290.151989 170.010179 
L 290.881933 168.517181 
L 291.611876 167.606068 
L 292.34182 168.316334 
L 293.071763 171.251407 
L 293.801707 175.018377 
L 294.53165 177.653373 
L 295.261593 177.339726 
L 296.72148 171.318665 
L 297.451424 169.995869 
L 298.181367 171.584721 
L 299.641254 178.031125 
L 300.371198 179.968126 
L 301.101141 180.630466 
L 301.831085 180.543134 
L 303.290971 180.003967 
L 304.020915 180.043365 
L 304.750858 180.491476 
L 305.480802 181.261684 
L 306.210745 181.671324 
L 306.940689 180.945404 
L 307.670632 178.479906 
L 309.130519 171.57923 
L 309.860462 169.612332 
L 310.590406 169.637398 
L 311.320349 171.507476 
L 312.050293 175.03317 
L 312.780236 179.929116 
L 314.970067 196.752516 
L 316.429953 205.500731 
L 317.88984 212.026307 
L 319.349727 216.750287 
L 319.349727 216.750287 
" clip-path="url(#pbf0d73e87f)" style="fill: none; stroke: #378ca8; stroke-width: 2; stroke-linecap: square"/>
   </g>
   <g id="patch_4">
    <path d="M 73.815 234.017187 
L 73.815 30.877187 
" style="fill: none; stroke: #000000; stroke-width: 2; stroke-linejoin: miter; stroke-linecap: square"/>
   </g>
   <g id="patch_5">
    <path d="M 73.815 234.017187 
L 373.913 234.017187 
" style="fill: none; stroke: #000000; stroke-width: 2; stroke-linejoin: miter; stroke-linecap: square"/>
   </g>
   <g id="text_12">
    <!-- bleached region -->
    <g transform="translate(213.991023 47.097487) scale(0.16 -0.16)">
     <defs>
      <path id="DejaVuSans-62" d="M 3116 1747 
Q 3116 2381 2855 2742 
Q 2594 3103 2138 3103 
Q 1681 3103 1420 2742 
Q 1159 2381 1159 1747 
Q 1159 1113 1420 752 
Q 1681 391 2138 391 
Q 2594 391 2855 752 
Q 3116 1113 3116 1747 
z
M 1159 2969 
Q 1341 3281 1617 3432 
Q 1894 3584 2278 3584 
Q 2916 3584 3314 3078 
Q 3713 2572 3713 1747 
Q 3713 922 3314 415 
Q 2916 -91 2278 -91 
Q 1894 -91 1617 61 
Q 1341 213 1159 525 
L 1159 0 
L 581 0 
L 581 4863 
L 1159 4863 
L 1159 2969 
z
" transform="scale(0.015625)"/>
      <path id="DejaVuSans-6c" d="M 603 4863 
L 1178 4863 
L 1178 0 
L 603 0 
L 603 4863 
z
" transform="scale(0.015625)"/>
      <path id="DejaVuSans-63" d="M 3122 3366 
L 3122 2828 
Q 2878 2963 2633 3030 
Q 2388 3097 2138 3097 
Q 1578 3097 1268 2742 
Q 959 2388 959 1747 
Q 959 1106 1268 751 
Q 1578 397 2138 397 
Q 2388 397 2633 464 
Q 2878 531 3122 666 
L 3122 134 
Q 2881 22 2623 -34 
Q 2366 -91 2075 -91 
Q 1284 -91 818 406 
Q 353 903 353 1747 
Q 353 2603 823 3093 
Q 1294 3584 2113 3584 
Q 2378 3584 2631 3529 
Q 2884 3475 3122 3366 
z
" transform="scale(0.015625)"/>
      <path id="DejaVuSans-64" d="M 2906 2969 
L 2906 4863 
L 3481 4863 
L 3481 0 
L 2906 0 
L 2906 525 
Q 2725 213 2448 61 
Q 2172 -91 1784 -91 
Q 1150 -91 751 415 
Q 353 922 353 1747 
Q 353 2572 751 3078 
Q 1150 3584 1784 3584 
Q 2172 3584 2448 3432 
Q 2725 3281 2906 2969 
z
M 947 1747 
Q 947 1113 1208 752 
Q 1469 391 1925 391 
Q 2381 391 2643 752 
Q 2906 1113 2906 1747 
Q 2906 2381 2643 2742 
Q 2381 3103 1925 3103 
Q 1469 3103 1208 2742 
Q 947 2381 947 1747 
z
" transform="scale(0.015625)"/>
      <path id="DejaVuSans-72" d="M 2631 2963 
Q 2534 3019 2420 3045 
Q 2306 3072 2169 3072 
Q 1681 3072 1420 2755 
Q 1159 2438 1159 1844 
L 1159 0 
L 581 0 
L 581 3500 
L 1159 3500 
L 1159 2956 
Q 1341 3275 1631 3429 
Q 1922 3584 2338 3584 
Q 2397 3584 2469 3576 
Q 2541 3569 2628 3553 
L 2631 2963 
z
" transform="scale(0.015625)"/>
      <path id="DejaVuSans-6f" d="M 1959 3097 
Q 1497 3097 1228 2736 
Q 959 2375 959 1747 
Q 959 1119 1226 758 
Q 1494 397 1959 397 
Q 2419 397 2687 759 
Q 2956 1122 2956 1747 
Q 2956 2369 2687 2733 
Q 2419 3097 1959 3097 
z
M 1959 3584 
Q 2709 3584 3137 3096 
Q 3566 2609 3566 1747 
Q 3566 888 3137 398 
Q 2709 -91 1959 -91 
Q 1206 -91 779 398 
Q 353 888 353 1747 
Q 353 2609 779 3096 
Q 1206 3584 1959 3584 
z
" transform="scale(0.015625)"/>
     </defs>
     <use xlink:href="#DejaVuSans-62"/>
     <use xlink:href="#DejaVuSans-6c" transform="translate(63.476562 0)"/>
     <use xlink:href="#DejaVuSans-65" transform="translate(91.259766 0)"/>
     <use xlink:href="#DejaVuSans-61" transform="translate(152.783203 0)"/>
     <use xlink:href="#DejaVuSans-63" transform="translate(214.0625 0)"/>
     <use xlink:href="#DejaVuSans-68" transform="translate(269.042969 0)"/>
     <use xlink:href="#DejaVuSans-65" transform="translate(332.421875 0)"/>
     <use xlink:href="#DejaVuSans-64" transform="translate(393.945312 0)"/>
     <use xlink:href="#DejaVuSans-20" transform="translate(457.421875 0)"/>
     <use xlink:href="#DejaVuSans-72" transform="translate(489.208984 0)"/>
     <use xlink:href="#DejaVuSans-65" transform="translate(528.072266 0)"/>
     <use xlink:href="#DejaVuSans-67" transform="translate(589.595703 0)"/>
     <use xlink:href="#DejaVuSans-69" transform="translate(653.072266 0)"/>
     <use xlink:href="#DejaVuSans-6f" transform="translate(680.855469 0)"/>
     <use xlink:href="#DejaVuSans-6e" transform="translate(742.037109 0)"/>
    </g>
   </g>
   <g id="text_13">
    <!-- purified mBaojin -->
    <g transform="translate(73.815 20.877187) scale(0.18 -0.18)">
     <defs>
      <path id="DejaVuSans-70" d="M 1159 525 
L 1159 -1331 
L 581 -1331 
L 581 3500 
L 1159 3500 
L 1159 2969 
Q 1341 3281 1617 3432 
Q 1894 3584 2278 3584 
Q 2916 3584 3314 3078 
Q 3713 2572 3713 1747 
Q 3713 922 3314 415 
Q 2916 -91 2278 -91 
Q 1894 -91 1617 61 
Q 1341 213 1159 525 
z
M 3116 1747 
Q 3116 2381 2855 2742 
Q 2594 3103 2138 3103 
Q 1681 3103 1420 2742 
Q 1159 2381 1159 1747 
Q 1159 1113 1420 752 
Q 1681 391 2138 391 
Q 2594 391 2855 752 
Q 3116 1113 3116 1747 
z
" transform="scale(0.015625)"/>
      <path id="DejaVuSans-66" d="M 2375 4863 
L 2375 4384 
L 1825 4384 
Q 1516 4384 1395 4259 
Q 1275 4134 1275 3809 
L 1275 3500 
L 2222 3500 
L 2222 3053 
L 1275 3053 
L 1275 0 
L 697 0 
L 697 3053 
L 147 3053 
L 147 3500 
L 697 3500 
L 697 3744 
Q 697 4328 969 4595 
Q 1241 4863 1831 4863 
L 2375 4863 
z
" transform="scale(0.015625)"/>
      <path id="DejaVuSans-42" d="M 1259 2228 
L 1259 519 
L 2272 519 
Q 2781 519 3026 730 
Q 3272 941 3272 1375 
Q 3272 1813 3026 2020 
Q 2781 2228 2272 2228 
L 1259 2228 
z
M 1259 4147 
L 1259 2741 
L 2194 2741 
Q 2656 2741 2882 2914 
Q 3109 3088 3109 3444 
Q 3109 3797 2882 3972 
Q 2656 4147 2194 4147 
L 1259 4147 
z
M 628 4666 
L 2241 4666 
Q 2963 4666 3353 4366 
Q 3744 4066 3744 3513 
Q 3744 3084 3544 2831 
Q 3344 2578 2956 2516 
Q 3422 2416 3680 2098 
Q 3938 1781 3938 1306 
Q 3938 681 3513 340 
Q 3088 0 2303 0 
L 628 0 
L 628 4666 
z
" transform="scale(0.015625)"/>
      <path id="DejaVuSans-6a" d="M 603 3500 
L 1178 3500 
L 1178 -63 
Q 1178 -731 923 -1031 
Q 669 -1331 103 -1331 
L -116 -1331 
L -116 -844 
L 38 -844 
Q 366 -844 484 -692 
Q 603 -541 603 -63 
L 603 3500 
z
M 603 4863 
L 1178 4863 
L 1178 4134 
L 603 4134 
L 603 4863 
z
" transform="scale(0.015625)"/>
     </defs>
     <use xlink:href="#DejaVuSans-70"/>
     <use xlink:href="#DejaVuSans-75" transform="translate(63.476562 0)"/>
     <use xlink:href="#DejaVuSans-72" transform="translate(126.855469 0)"/>
     <use xlink:href="#DejaVuSans-69" transform="translate(167.96875 0)"/>
     <use xlink:href="#DejaVuSans-66" transform="translate(195.751953 0)"/>
     <use xlink:href="#DejaVuSans-69" transform="translate(230.957031 0)"/>
     <use xlink:href="#DejaVuSans-65" transform="translate(258.740234 0)"/>
     <use xlink:href="#DejaVuSans-64" transform="translate(320.263672 0)"/>
     <use xlink:href="#DejaVuSans-20" transform="translate(383.740234 0)"/>
     <use xlink:href="#DejaVuSans-6d" transform="translate(415.527344 0)"/>
     <use xlink:href="#DejaVuSans-42" transform="translate(512.939453 0)"/>
     <use xlink:href="#DejaVuSans-61" transform="translate(581.542969 0)"/>
     <use xlink:href="#DejaVuSans-6f" transform="translate(642.822266 0)"/>
     <use xlink:href="#DejaVuSans-6a" transform="translate(704.003906 0)"/>
     <use xlink:href="#DejaVuSans-69" transform="translate(731.787109 0)"/>
     <use xlink:href="#DejaVuSans-6e" transform="translate(759.570312 0)"/>
    </g>
   </g>
   <g id="legend_1">
    <g id="line2d_22">
     <path d="M 388.91496 43.975625 
L 398.91496 43.975625 
L 408.91496 43.975625 
" style="fill: none; stroke: #8b1c0f; stroke-width: 2; stroke-linecap: square"/>
    </g>
    <g id="text_14">
     <!-- Pre-bleach -->
     <g transform="translate(416.91496 47.475625) scale(0.1 -0.1)">
      <defs>
       <path id="DejaVuSans-50" d="M 1259 4147 
L 1259 2394 
L 2053 2394 
Q 2494 2394 2734 2622 
Q 2975 2850 2975 3272 
Q 2975 3691 2734 3919 
Q 2494 4147 2053 4147 
L 1259 4147 
z
M 628 4666 
L 2053 4666 
Q 2838 4666 3239 4311 
Q 3641 3956 3641 3272 
Q 3641 2581 3239 2228 
Q 2838 1875 2053 1875 
L 1259 1875 
L 1259 0 
L 628 0 
L 628 4666 
z
" transform="scale(0.015625)"/>
       <path id="DejaVuSans-2d" d="M 313 2009 
L 1997 2009 
L 1997 1497 
L 313 1497 
L 313 2009 
z
" transform="scale(0.015625)"/>
      </defs>
      <use xlink:href="#DejaVuSans-50"/>
      <use xlink:href="#DejaVuSans-72" transform="translate(58.552734 0)"/>
      <use xlink:href="#DejaVuSans-65" transform="translate(97.416016 0)"/>
      <use xlink:href="#DejaVuSans-2d" transform="translate(158.939453 0)"/>
      <use xlink:href="#DejaVuSans-62" transform="translate(195.023438 0)"/>
      <use xlink:href="#DejaVuSans-6c" transform="translate(258.5 0)"/>
      <use xlink:href="#DejaVuSans-65" transform="translate(286.283203 0)"/>
      <use xlink:href="#DejaVuSans-61" transform="translate(347.806641 0)"/>
      <use xlink:href="#DejaVuSans-63" transform="translate(409.085938 0)"/>
      <use xlink:href="#DejaVuSans-68" transform="translate(464.066406 0)"/>
     </g>
    </g>
    <g id="line2d_23">
     <path d="M 388.91496 58.65375 
L 398.91496 58.65375 
L 408.91496 58.65375 
" style="fill: none; stroke: #1d0cfd; stroke-width: 2; stroke-linecap: square"/>
    </g>
    <g id="text_15">
     <!-- Post-bleach -->
     <g transform="translate(416.91496 62.15375) scale(0.1 -0.1)">
      <use xlink:href="#DejaVuSans-50"/>
      <use xlink:href="#DejaVuSans-6f" transform="translate(56.677734 0)"/>
      <use xlink:href="#DejaVuSans-73" transform="translate(117.859375 0)"/>
      <use xlink:href="#DejaVuSans-74" transform="translate(169.958984 0)"/>
      <use xlink:href="#DejaVuSans-2d" transform="translate(209.167969 0)"/>
      <use xlink:href="#DejaVuSans-62" transform="translate(245.251953 0)"/>
      <use xlink:href="#DejaVuSans-6c" transform="translate(308.728516 0)"/>
      <use xlink:href="#DejaVuSans-65" transform="translate(336.511719 0)"/>
      <use xlink:href="#DejaVuSans-61" transform="translate(398.035156 0)"/>
      <use xlink:href="#DejaVuSans-63" transform="translate(459.314453 0)"/>
      <use xlink:href="#DejaVuSans-68" transform="translate(514.294922 0)"/>
     </g>
    </g>
    <g id="line2d_24">
     <path d="M 388.91496 73.331875 
L 398.91496 73.331875 
L 408.91496 73.331875 
" style="fill: none; stroke: #378ca8; stroke-width: 2; stroke-linecap: square"/>
    </g>
    <g id="text_16">
     <!-- Post-recovery -->
     <g transform="translate(416.91496 76.831875) scale(0.1 -0.1)">
      <defs>
       <path id="DejaVuSans-76" d="M 191 3500 
L 800 3500 
L 1894 563 
L 2988 3500 
L 3597 3500 
L 2284 0 
L 1503 0 
L 191 3500 
z
" transform="scale(0.015625)"/>
      </defs>
      <use xlink:href="#DejaVuSans-50"/>
      <use xlink:href="#DejaVuSans-6f" transform="translate(56.677734 0)"/>
      <use xlink:href="#DejaVuSans-73" transform="translate(117.859375 0)"/>
      <use xlink:href="#DejaVuSans-74" transform="translate(169.958984 0)"/>
      <use xlink:href="#DejaVuSans-2d" transform="translate(209.167969 0)"/>
      <use xlink:href="#DejaVuSans-72" transform="translate(245.251953 0)"/>
      <use xlink:href="#DejaVuSans-65" transform="translate(284.115234 0)"/>
      <use xlink:href="#DejaVuSans-63" transform="translate(345.638672 0)"/>
      <use xlink:href="#DejaVuSans-6f" transform="translate(400.619141 0)"/>
      <use xlink:href="#DejaVuSans-76" transform="translate(461.800781 0)"/>
      <use xlink:href="#DejaVuSans-65" transform="translate(520.980469 0)"/>
      <use xlink:href="#DejaVuSans-72" transform="translate(582.503906 0)"/>
      <use xlink:href="#DejaVuSans-79" transform="translate(623.617188 0)"/>
     </g>
    </g>
   </g>
  </g>
 </g>
 <defs>
  <clipPath id="pbf0d73e87f">
   <rect x="73.815" y="30.877187" width="300.098" height="203.14"/>
  </clipPath>
 </defs>
</svg>
