<?xml version="1.0" encoding="utf-8" standalone="no"?>
<!DOCTYPE svg PUBLIC "-//W3C//DTD SVG 1.1//EN"
  "http://www.w3.org/Graphics/SVG/1.1/DTD/svg11.dtd">
<svg xmlns:xlink="http://www.w3.org/1999/xlink" width="568.644219pt" height="280.669375pt" viewBox="0 0 568.644219 280.669375" xmlns="http://www.w3.org/2000/svg" version="1.1">
 <metadata>
  <rdf:RDF xmlns:dc="http://purl.org/dc/elements/1.1/" xmlns:cc="http://creativecommons.org/ns#" xmlns:rdf="http://www.w3.org/1999/02/22-rdf-syntax-ns#">
   <cc:Work>
    <dc:type rdf:resource="http://purl.org/dc/dcmitype/StillImage"/>
    <dc:date>2026-01-13T16:18:16.540755</dc:date>
    <dc:format>image/svg+xml</dc:format>
    <dc:creator>
     <cc:Agent>
      <dc:title>Matplotlib v3.10.8, https://matplotlib.org/</dc:title>
     </cc:Agent>
    </dc:creator>
   </cc:Work>
  </rdf:RDF>
 </metadata>
 <defs>
  <style type="text/css">*{stroke-linejoin: round; stroke-linecap: butt}</style>
 </defs>
 <g id="figure_1">
  <g id="patch_1">
   <path d="M 0 280.669375 
L 568.644219 280.669375 
L 568.644219 0 
L 0 0 
z
" style="fill: #ffffff"/>
  </g>
  <g id="axes_1">
   <g id="patch_2">
    <path d="M 58.51375 248.42 
L 540.26375 248.42 
L 540.26375 7.2 
L 58.51375 7.2 
z
" style="fill: #ffffff"/>
   </g>
   <g id="matplotlib.axis_1">
    <g id="xtick_1">
     <g id="line2d_1">
      <defs>
       <path id="m79f0c2b3e6" d="M 0 0 
L 0 8 
" style="stroke: #000000; stroke-width: 2"/>
      </defs>
      <g>
       <use xlink:href="#m79f0c2b3e6" x="58.51375" y="248.42" style="stroke: #000000; stroke-width: 2"/>
      </g>
     </g>
     <g id="text_1">
      <!-- Pole 1 -->
      <g transform="translate(37.333281 270.557813) scale(0.14 -0.14)">
       <defs>
        <path id="DejaVuSans-50" d="M 1259 4147 
L 1259 2394 
L 2053 2394 
Q 2494 2394 2734 2622 
Q 2975 2850 2975 3272 
Q 2975 3691 2734 3919 
Q 2494 4147 2053 4147 
L 1259 4147 
z
M 628 4666 
L 2053 4666 
Q 2838 4666 3239 4311 
Q 3641 3956 3641 3272 
Q 3641 2581 3239 2228 
Q 2838 1875 2053 1875 
L 1259 1875 
L 1259 0 
L 628 0 
L 628 4666 
z
" transform="scale(0.015625)"/>
        <path id="DejaVuSans-6f" d="M 1959 3097 
Q 1497 3097 1228 2736 
Q 959 2375 959 1747 
Q 959 1119 1226 758 
Q 1494 397 1959 397 
Q 2419 397 2687 759 
Q 2956 1122 2956 1747 
Q 2956 2369 2687 2733 
Q 2419 3097 1959 3097 
z
M 1959 3584 
Q 2709 3584 3137 3096 
Q 3566 2609 3566 1747 
Q 3566 888 3137 398 
Q 2709 -91 1959 -91 
Q 1206 -91 779 398 
Q 353 888 353 1747 
Q 353 2609 779 3096 
Q 1206 3584 1959 3584 
z
" transform="scale(0.015625)"/>
        <path id="DejaVuSans-6c" d="M 603 4863 
L 1178 4863 
L 1178 0 
L 603 0 
L 603 4863 
z
" transform="scale(0.015625)"/>
        <path id="DejaVuSans-65" d="M 3597 1894 
L 3597 1613 
L 953 1613 
Q 991 1019 1311 708 
Q 1631 397 2203 397 
Q 2534 397 2845 478 
Q 3156 559 3463 722 
L 3463 178 
Q 3153 47 2828 -22 
Q 2503 -91 2169 -91 
Q 1331 -91 842 396 
Q 353 884 353 1716 
Q 353 2575 817 3079 
Q 1281 3584 2069 3584 
Q 2775 3584 3186 3129 
Q 3597 2675 3597 1894 
z
M 3022 2063 
Q 3016 2534 2758 2815 
Q 2500 3097 2075 3097 
Q 1594 3097 1305 2825 
Q 1016 2553 972 2059 
L 3022 2063 
z
" transform="scale(0.015625)"/>
        <path id="DejaVuSans-20" transform="scale(0.015625)"/>
        <path id="DejaVuSans-31" d="M 794 531 
L 1825 531 
L 1825 4091 
L 703 3866 
L 703 4441 
L 1819 4666 
L 2450 4666 
L 2450 531 
L 3481 531 
L 3481 0 
L 794 0 
L 794 531 
z
" transform="scale(0.015625)"/>
       </defs>
       <use xlink:href="#DejaVuSans-50"/>
       <use xlink:href="#DejaVuSans-6f" transform="translate(56.677734 0)"/>
       <use xlink:href="#DejaVuSans-6c" transform="translate(117.859375 0)"/>
       <use xlink:href="#DejaVuSans-65" transform="translate(145.642578 0)"/>
       <use xlink:href="#DejaVuSans-20" transform="translate(207.166016 0)"/>
       <use xlink:href="#DejaVuSans-31" transform="translate(238.953125 0)"/>
      </g>
     </g>
    </g>
    <g id="xtick_2">
     <g id="line2d_2">
      <g>
       <use xlink:href="#m79f0c2b3e6" x="300.814046" y="248.42" style="stroke: #000000; stroke-width: 2"/>
      </g>
     </g>
     <g id="text_2">
      <!-- Equator -->
      <g transform="translate(273.316077 270.557813) scale(0.14 -0.14)">
       <defs>
        <path id="DejaVuSans-45" d="M 628 4666 
L 3578 4666 
L 3578 4134 
L 1259 4134 
L 1259 2753 
L 3481 2753 
L 3481 2222 
L 1259 2222 
L 1259 531 
L 3634 531 
L 3634 0 
L 628 0 
L 628 4666 
z
" transform="scale(0.015625)"/>
        <path id="DejaVuSans-71" d="M 947 1747 
Q 947 1113 1208 752 
Q 1469 391 1925 391 
Q 2381 391 2643 752 
Q 2906 1113 2906 1747 
Q 2906 2381 2643 2742 
Q 2381 3103 1925 3103 
Q 1469 3103 1208 2742 
Q 947 2381 947 1747 
z
M 2906 525 
Q 2725 213 2448 61 
Q 2172 -91 1784 -91 
Q 1150 -91 751 415 
Q 353 922 353 1747 
Q 353 2572 751 3078 
Q 1150 3584 1784 3584 
Q 2172 3584 2448 3432 
Q 2725 3281 2906 2969 
L 2906 3500 
L 3481 3500 
L 3481 -1331 
L 2906 -1331 
L 2906 525 
z
" transform="scale(0.015625)"/>
        <path id="DejaVuSans-75" d="M 544 1381 
L 544 3500 
L 1119 3500 
L 1119 1403 
Q 1119 906 1312 657 
Q 1506 409 1894 409 
Q 2359 409 2629 706 
Q 2900 1003 2900 1516 
L 2900 3500 
L 3475 3500 
L 3475 0 
L 2900 0 
L 2900 538 
Q 2691 219 2414 64 
Q 2138 -91 1772 -91 
Q 1169 -91 856 284 
Q 544 659 544 1381 
z
M 1991 3584 
L 1991 3584 
z
" transform="scale(0.015625)"/>
        <path id="DejaVuSans-61" d="M 2194 1759 
Q 1497 1759 1228 1600 
Q 959 1441 959 1056 
Q 959 750 1161 570 
Q 1363 391 1709 391 
Q 2188 391 2477 730 
Q 2766 1069 2766 1631 
L 2766 1759 
L 2194 1759 
z
M 3341 1997 
L 3341 0 
L 2766 0 
L 2766 531 
Q 2569 213 2275 61 
Q 1981 -91 1556 -91 
Q 1019 -91 701 211 
Q 384 513 384 1019 
Q 384 1609 779 1909 
Q 1175 2209 1959 2209 
L 2766 2209 
L 2766 2266 
Q 2766 2663 2505 2880 
Q 2244 3097 1772 3097 
Q 1472 3097 1187 3025 
Q 903 2953 641 2809 
L 641 3341 
Q 956 3463 1253 3523 
Q 1550 3584 1831 3584 
Q 2591 3584 2966 3190 
Q 3341 2797 3341 1997 
z
" transform="scale(0.015625)"/>
        <path id="DejaVuSans-74" d="M 1172 4494 
L 1172 3500 
L 2356 3500 
L 2356 3053 
L 1172 3053 
L 1172 1153 
Q 1172 725 1289 603 
Q 1406 481 1766 481 
L 2356 481 
L 2356 0 
L 1766 0 
Q 1100 0 847 248 
Q 594 497 594 1153 
L 594 3053 
L 172 3053 
L 172 3500 
L 594 3500 
L 594 4494 
L 1172 4494 
z
" transform="scale(0.015625)"/>
        <path id="DejaVuSans-72" d="M 2631 2963 
Q 2534 3019 2420 3045 
Q 2306 3072 2169 3072 
Q 1681 3072 1420 2755 
Q 1159 2438 1159 1844 
L 1159 0 
L 581 0 
L 581 3500 
L 1159 3500 
L 1159 2956 
Q 1341 3275 1631 3429 
Q 1922 3584 2338 3584 
Q 2397 3584 2469 3576 
Q 2541 3569 2628 3553 
L 2631 2963 
z
" transform="scale(0.015625)"/>
       </defs>
       <use xlink:href="#DejaVuSans-45"/>
       <use xlink:href="#DejaVuSans-71" transform="translate(63.183594 0)"/>
       <use xlink:href="#DejaVuSans-75" transform="translate(126.660156 0)"/>
       <use xlink:href="#DejaVuSans-61" transform="translate(190.039062 0)"/>
       <use xlink:href="#DejaVuSans-74" transform="translate(251.318359 0)"/>
       <use xlink:href="#DejaVuSans-6f" transform="translate(290.527344 0)"/>
       <use xlink:href="#DejaVuSans-72" transform="translate(351.708984 0)"/>
      </g>
     </g>
    </g>
    <g id="xtick_3">
     <g id="line2d_3">
      <g>
       <use xlink:href="#m79f0c2b3e6" x="540.26375" y="248.42" style="stroke: #000000; stroke-width: 2"/>
      </g>
     </g>
     <g id="text_3">
      <!-- Pole 2 -->
      <g transform="translate(519.083281 270.557813) scale(0.14 -0.14)">
       <defs>
        <path id="DejaVuSans-32" d="M 1228 531 
L 3431 531 
L 3431 0 
L 469 0 
L 469 531 
Q 828 903 1448 1529 
Q 2069 2156 2228 2338 
Q 2531 2678 2651 2914 
Q 2772 3150 2772 3378 
Q 2772 3750 2511 3984 
Q 2250 4219 1831 4219 
Q 1534 4219 1204 4116 
Q 875 4013 500 3803 
L 500 4441 
Q 881 4594 1212 4672 
Q 1544 4750 1819 4750 
Q 2544 4750 2975 4387 
Q 3406 4025 3406 3419 
Q 3406 3131 3298 2873 
Q 3191 2616 2906 2266 
Q 2828 2175 2409 1742 
Q 1991 1309 1228 531 
z
" transform="scale(0.015625)"/>
       </defs>
       <use xlink:href="#DejaVuSans-50"/>
       <use xlink:href="#DejaVuSans-6f" transform="translate(56.677734 0)"/>
       <use xlink:href="#DejaVuSans-6c" transform="translate(117.859375 0)"/>
       <use xlink:href="#DejaVuSans-65" transform="translate(145.642578 0)"/>
       <use xlink:href="#DejaVuSans-20" transform="translate(207.166016 0)"/>
       <use xlink:href="#DejaVuSans-32" transform="translate(238.953125 0)"/>
      </g>
     </g>
    </g>
   </g>
   <g id="matplotlib.axis_2">
    <g id="ytick_1">
     <g id="line2d_4">
      <defs>
       <path id="m046fddae84" d="M 0 0 
L -8 0 
" style="stroke: #000000; stroke-width: 2"/>
      </defs>
      <g>
       <use xlink:href="#m046fddae84" x="58.51375" y="248.42" style="stroke: #000000; stroke-width: 2"/>
      </g>
     </g>
     <g id="text_4">
      <!-- 0.0 -->
      <g transform="translate(24.749375 253.738906) scale(0.14 -0.14)">
       <defs>
        <path id="DejaVuSans-30" d="M 2034 4250 
Q 1547 4250 1301 3770 
Q 1056 3291 1056 2328 
Q 1056 1369 1301 889 
Q 1547 409 2034 409 
Q 2525 409 2770 889 
Q 3016 1369 3016 2328 
Q 3016 3291 2770 3770 
Q 2525 4250 2034 4250 
z
M 2034 4750 
Q 2819 4750 3233 4129 
Q 3647 3509 3647 2328 
Q 3647 1150 3233 529 
Q 2819 -91 2034 -91 
Q 1250 -91 836 529 
Q 422 1150 422 2328 
Q 422 3509 836 4129 
Q 1250 4750 2034 4750 
z
" transform="scale(0.015625)"/>
        <path id="DejaVuSans-2e" d="M 684 794 
L 1344 794 
L 1344 0 
L 684 0 
L 684 794 
z
" transform="scale(0.015625)"/>
       </defs>
       <use xlink:href="#DejaVuSans-30"/>
       <use xlink:href="#DejaVuSans-2e" transform="translate(63.623047 0)"/>
       <use xlink:href="#DejaVuSans-30" transform="translate(95.410156 0)"/>
      </g>
     </g>
    </g>
    <g id="ytick_2">
     <g id="line2d_5">
      <g>
       <use xlink:href="#m046fddae84" x="58.51375" y="202.254875" style="stroke: #000000; stroke-width: 2"/>
      </g>
     </g>
     <g id="text_5">
      <!-- 0.2 -->
      <g transform="translate(24.749375 207.573781) scale(0.14 -0.14)">
       <use xlink:href="#DejaVuSans-30"/>
       <use xlink:href="#DejaVuSans-2e" transform="translate(63.623047 0)"/>
       <use xlink:href="#DejaVuSans-32" transform="translate(95.410156 0)"/>
      </g>
     </g>
    </g>
    <g id="ytick_3">
     <g id="line2d_6">
      <g>
       <use xlink:href="#m046fddae84" x="58.51375" y="156.089749" style="stroke: #000000; stroke-width: 2"/>
      </g>
     </g>
     <g id="text_6">
      <!-- 0.4 -->
      <g transform="translate(24.749375 161.408656) scale(0.14 -0.14)">
       <defs>
        <path id="DejaVuSans-34" d="M 2419 4116 
L 825 1625 
L 2419 1625 
L 2419 4116 
z
M 2253 4666 
L 3047 4666 
L 3047 1625 
L 3713 1625 
L 3713 1100 
L 3047 1100 
L 3047 0 
L 2419 0 
L 2419 1100 
L 313 1100 
L 313 1709 
L 2253 4666 
z
" transform="scale(0.015625)"/>
       </defs>
       <use xlink:href="#DejaVuSans-30"/>
       <use xlink:href="#DejaVuSans-2e" transform="translate(63.623047 0)"/>
       <use xlink:href="#DejaVuSans-34" transform="translate(95.410156 0)"/>
      </g>
     </g>
    </g>
    <g id="ytick_4">
     <g id="line2d_7">
      <g>
       <use xlink:href="#m046fddae84" x="58.51375" y="109.924624" style="stroke: #000000; stroke-width: 2"/>
      </g>
     </g>
     <g id="text_7">
      <!-- 0.6 -->
      <g transform="translate(24.749375 115.24353) scale(0.14 -0.14)">
       <defs>
        <path id="DejaVuSans-36" d="M 2113 2584 
Q 1688 2584 1439 2293 
Q 1191 2003 1191 1497 
Q 1191 994 1439 701 
Q 1688 409 2113 409 
Q 2538 409 2786 701 
Q 3034 994 3034 1497 
Q 3034 2003 2786 2293 
Q 2538 2584 2113 2584 
z
M 3366 4563 
L 3366 3988 
Q 3128 4100 2886 4159 
Q 2644 4219 2406 4219 
Q 1781 4219 1451 3797 
Q 1122 3375 1075 2522 
Q 1259 2794 1537 2939 
Q 1816 3084 2150 3084 
Q 2853 3084 3261 2657 
Q 3669 2231 3669 1497 
Q 3669 778 3244 343 
Q 2819 -91 2113 -91 
Q 1303 -91 875 529 
Q 447 1150 447 2328 
Q 447 3434 972 4092 
Q 1497 4750 2381 4750 
Q 2619 4750 2861 4703 
Q 3103 4656 3366 4563 
z
" transform="scale(0.015625)"/>
       </defs>
       <use xlink:href="#DejaVuSans-30"/>
       <use xlink:href="#DejaVuSans-2e" transform="translate(63.623047 0)"/>
       <use xlink:href="#DejaVuSans-36" transform="translate(95.410156 0)"/>
      </g>
     </g>
    </g>
    <g id="ytick_5">
     <g id="line2d_8">
      <g>
       <use xlink:href="#m046fddae84" x="58.51375" y="63.759499" style="stroke: #000000; stroke-width: 2"/>
      </g>
     </g>
     <g id="text_8">
      <!-- 0.8 -->
      <g transform="translate(24.749375 69.078405) scale(0.14 -0.14)">
       <defs>
        <path id="DejaVuSans-38" d="M 2034 2216 
Q 1584 2216 1326 1975 
Q 1069 1734 1069 1313 
Q 1069 891 1326 650 
Q 1584 409 2034 409 
Q 2484 409 2743 651 
Q 3003 894 3003 1313 
Q 3003 1734 2745 1975 
Q 2488 2216 2034 2216 
z
M 1403 2484 
Q 997 2584 770 2862 
Q 544 3141 544 3541 
Q 544 4100 942 4425 
Q 1341 4750 2034 4750 
Q 2731 4750 3128 4425 
Q 3525 4100 3525 3541 
Q 3525 3141 3298 2862 
Q 3072 2584 2669 2484 
Q 3125 2378 3379 2068 
Q 3634 1759 3634 1313 
Q 3634 634 3220 271 
Q 2806 -91 2034 -91 
Q 1263 -91 848 271 
Q 434 634 434 1313 
Q 434 1759 690 2068 
Q 947 2378 1403 2484 
z
M 1172 3481 
Q 1172 3119 1398 2916 
Q 1625 2713 2034 2713 
Q 2441 2713 2670 2916 
Q 2900 3119 2900 3481 
Q 2900 3844 2670 4047 
Q 2441 4250 2034 4250 
Q 1625 4250 1398 4047 
Q 1172 3844 1172 3481 
z
" transform="scale(0.015625)"/>
       </defs>
       <use xlink:href="#DejaVuSans-30"/>
       <use xlink:href="#DejaVuSans-2e" transform="translate(63.623047 0)"/>
       <use xlink:href="#DejaVuSans-38" transform="translate(95.410156 0)"/>
      </g>
     </g>
    </g>
    <g id="ytick_6">
     <g id="line2d_9">
      <g>
       <use xlink:href="#m046fddae84" x="58.51375" y="17.594373" style="stroke: #000000; stroke-width: 2"/>
      </g>
     </g>
     <g id="text_9">
      <!-- 1.0 -->
      <g transform="translate(24.749375 22.913279) scale(0.14 -0.14)">
       <use xlink:href="#DejaVuSans-31"/>
       <use xlink:href="#DejaVuSans-2e" transform="translate(63.623047 0)"/>
       <use xlink:href="#DejaVuSans-30" transform="translate(95.410156 0)"/>
      </g>
     </g>
    </g>
    <g id="text_10">
     <!-- Normalized Intensity -->
     <g transform="translate(17.837813 200.199844) rotate(-90) scale(0.14 -0.14)">
      <defs>
       <path id="DejaVuSans-4e" d="M 628 4666 
L 1478 4666 
L 3547 763 
L 3547 4666 
L 4159 4666 
L 4159 0 
L 3309 0 
L 1241 3903 
L 1241 0 
L 628 0 
L 628 4666 
z
" transform="scale(0.015625)"/>
       <path id="DejaVuSans-6d" d="M 3328 2828 
Q 3544 3216 3844 3400 
Q 4144 3584 4550 3584 
Q 5097 3584 5394 3201 
Q 5691 2819 5691 2113 
L 5691 0 
L 5113 0 
L 5113 2094 
Q 5113 2597 4934 2840 
Q 4756 3084 4391 3084 
Q 3944 3084 3684 2787 
Q 3425 2491 3425 1978 
L 3425 0 
L 2847 0 
L 2847 2094 
Q 2847 2600 2669 2842 
Q 2491 3084 2119 3084 
Q 1678 3084 1418 2786 
Q 1159 2488 1159 1978 
L 1159 0 
L 581 0 
L 581 3500 
L 1159 3500 
L 1159 2956 
Q 1356 3278 1631 3431 
Q 1906 3584 2284 3584 
Q 2666 3584 2933 3390 
Q 3200 3197 3328 2828 
z
" transform="scale(0.015625)"/>
       <path id="DejaVuSans-69" d="M 603 3500 
L 1178 3500 
L 1178 0 
L 603 0 
L 603 3500 
z
M 603 4863 
L 1178 4863 
L 1178 4134 
L 603 4134 
L 603 4863 
z
" transform="scale(0.015625)"/>
       <path id="DejaVuSans-7a" d="M 353 3500 
L 3084 3500 
L 3084 2975 
L 922 459 
L 3084 459 
L 3084 0 
L 275 0 
L 275 525 
L 2438 3041 
L 353 3041 
L 353 3500 
z
" transform="scale(0.015625)"/>
       <path id="DejaVuSans-64" d="M 2906 2969 
L 2906 4863 
L 3481 4863 
L 3481 0 
L 2906 0 
L 2906 525 
Q 2725 213 2448 61 
Q 2172 -91 1784 -91 
Q 1150 -91 751 415 
Q 353 922 353 1747 
Q 353 2572 751 3078 
Q 1150 3584 1784 3584 
Q 2172 3584 2448 3432 
Q 2725 3281 2906 2969 
z
M 947 1747 
Q 947 1113 1208 752 
Q 1469 391 1925 391 
Q 2381 391 2643 752 
Q 2906 1113 2906 1747 
Q 2906 2381 2643 2742 
Q 2381 3103 1925 3103 
Q 1469 3103 1208 2742 
Q 947 2381 947 1747 
z
" transform="scale(0.015625)"/>
       <path id="DejaVuSans-49" d="M 628 4666 
L 1259 4666 
L 1259 0 
L 628 0 
L 628 4666 
z
" transform="scale(0.015625)"/>
       <path id="DejaVuSans-6e" d="M 3513 2113 
L 3513 0 
L 2938 0 
L 2938 2094 
Q 2938 2591 2744 2837 
Q 2550 3084 2163 3084 
Q 1697 3084 1428 2787 
Q 1159 2491 1159 1978 
L 1159 0 
L 581 0 
L 581 3500 
L 1159 3500 
L 1159 2956 
Q 1366 3272 1645 3428 
Q 1925 3584 2291 3584 
Q 2894 3584 3203 3211 
Q 3513 2838 3513 2113 
z
" transform="scale(0.015625)"/>
       <path id="DejaVuSans-73" d="M 2834 3397 
L 2834 2853 
Q 2591 2978 2328 3040 
Q 2066 3103 1784 3103 
Q 1356 3103 1142 2972 
Q 928 2841 928 2578 
Q 928 2378 1081 2264 
Q 1234 2150 1697 2047 
L 1894 2003 
Q 2506 1872 2764 1633 
Q 3022 1394 3022 966 
Q 3022 478 2636 193 
Q 2250 -91 1575 -91 
Q 1294 -91 989 -36 
Q 684 19 347 128 
L 347 722 
Q 666 556 975 473 
Q 1284 391 1588 391 
Q 1994 391 2212 530 
Q 2431 669 2431 922 
Q 2431 1156 2273 1281 
Q 2116 1406 1581 1522 
L 1381 1569 
Q 847 1681 609 1914 
Q 372 2147 372 2553 
Q 372 3047 722 3315 
Q 1072 3584 1716 3584 
Q 2034 3584 2315 3537 
Q 2597 3491 2834 3397 
z
" transform="scale(0.015625)"/>
       <path id="DejaVuSans-79" d="M 2059 -325 
Q 1816 -950 1584 -1140 
Q 1353 -1331 966 -1331 
L 506 -1331 
L 506 -850 
L 844 -850 
Q 1081 -850 1212 -737 
Q 1344 -625 1503 -206 
L 1606 56 
L 191 3500 
L 800 3500 
L 1894 763 
L 2988 3500 
L 3597 3500 
L 2059 -325 
z
" transform="scale(0.015625)"/>
      </defs>
      <use xlink:href="#DejaVuSans-4e"/>
      <use xlink:href="#DejaVuSans-6f" transform="translate(74.804688 0)"/>
      <use xlink:href="#DejaVuSans-72" transform="translate(135.986328 0)"/>
      <use xlink:href="#DejaVuSans-6d" transform="translate(175.349609 0)"/>
      <use xlink:href="#DejaVuSans-61" transform="translate(272.761719 0)"/>
      <use xlink:href="#DejaVuSans-6c" transform="translate(334.041016 0)"/>
      <use xlink:href="#DejaVuSans-69" transform="translate(361.824219 0)"/>
      <use xlink:href="#DejaVuSans-7a" transform="translate(389.607422 0)"/>
      <use xlink:href="#DejaVuSans-65" transform="translate(442.097656 0)"/>
      <use xlink:href="#DejaVuSans-64" transform="translate(503.621094 0)"/>
      <use xlink:href="#DejaVuSans-20" transform="translate(567.097656 0)"/>
      <use xlink:href="#DejaVuSans-49" transform="translate(598.884766 0)"/>
      <use xlink:href="#DejaVuSans-6e" transform="translate(628.376953 0)"/>
      <use xlink:href="#DejaVuSans-74" transform="translate(691.755859 0)"/>
      <use xlink:href="#DejaVuSans-65" transform="translate(730.964844 0)"/>
      <use xlink:href="#DejaVuSans-6e" transform="translate(792.488281 0)"/>
      <use xlink:href="#DejaVuSans-73" transform="translate(855.867188 0)"/>
      <use xlink:href="#DejaVuSans-69" transform="translate(907.966797 0)"/>
      <use xlink:href="#DejaVuSans-74" transform="translate(935.75 0)"/>
      <use xlink:href="#DejaVuSans-79" transform="translate(974.958984 0)"/>
     </g>
    </g>
   </g>
   <g id="line2d_10">
    <path d="M 58.51375 146.538344 
L 59.934841 137.520321 
L 61.355933 136.097651 
L 62.777024 137.603885 
L 64.198116 137.37257 
L 65.619207 131.391455 
L 67.040299 118.359664 
L 68.46139 100.238336 
L 69.882482 89.787448 
L 71.303573 96.945744 
L 72.724664 107.308673 
L 74.145756 105.235281 
L 75.566847 98.240013 
L 76.987939 96.917583 
L 78.40903 97.421423 
L 79.830122 93.717683 
L 81.251213 88.053909 
L 82.672305 84.362007 
L 84.093396 83.533353 
L 85.514487 86.410892 
L 86.935579 97.721616 
L 88.35667 119.313026 
L 89.777762 133.831009 
L 91.198853 124.982936 
L 92.619945 109.511055 
L 94.041036 108.485308 
L 95.462128 114.728807 
L 96.883219 115.150191 
L 99.725402 106.789672 
L 101.146493 104.837098 
L 102.567585 105.642908 
L 103.988676 108.671642 
L 105.409768 112.796555 
L 106.830859 115.798665 
L 108.251951 115.705561 
L 109.673042 113.841248 
L 111.094133 112.547151 
L 112.515225 113.646994 
L 113.936316 117.988175 
L 115.357408 121.931932 
L 116.778499 121.211831 
L 118.199591 116.925488 
L 119.620682 112.036188 
L 121.041774 109.280317 
L 122.462865 110.593906 
L 123.883956 113.654999 
L 125.305048 115.12397 
L 126.726139 114.962976 
L 128.147231 114.230323 
L 129.568322 113.13221 
L 130.989414 111.55566 
L 132.410505 109.422069 
L 133.831597 106.804175 
L 135.252688 104.654785 
L 136.673779 103.740739 
L 138.094871 101.368222 
L 139.515962 94.786792 
L 140.937054 90.043305 
L 142.358145 94.753666 
L 143.779237 102.96462 
L 145.200328 105.036367 
L 146.62142 104.597444 
L 148.042511 109.599527 
L 150.884694 128.427628 
L 152.305785 132.099305 
L 153.726877 125.920687 
L 155.147968 115.773329 
L 156.56906 110.652061 
L 157.990151 109.48126 
L 159.411243 107.503905 
L 160.832334 106.414926 
L 163.674517 113.315122 
L 165.095608 110.151388 
L 166.5167 104.781902 
L 167.937791 105.576093 
L 169.358883 109.945598 
L 170.779974 110.902102 
L 173.622157 106.236827 
L 175.043249 103.12639 
L 176.46434 97.04429 
L 177.885431 89.065537 
L 179.306523 81.965876 
L 180.727614 78.778727 
L 182.148706 81.971412 
L 183.569797 87.902344 
L 184.990889 90.610754 
L 186.41198 91.905941 
L 187.833072 96.730652 
L 189.254163 100.899644 
L 190.675254 96.620889 
L 192.096346 88.50671 
L 193.517437 86.915482 
L 194.938529 92.067417 
L 196.35962 98.767523 
L 197.780712 104.300268 
L 199.201803 107.558172 
L 200.622895 109.171722 
L 202.043986 110.473762 
L 203.465077 109.897399 
L 204.886169 104.942404 
L 206.30726 101.036097 
L 207.728352 107.060325 
L 209.149443 118.62307 
L 210.570535 124.101459 
L 211.991626 120.440044 
L 214.833809 100.272138 
L 216.2549 98.689196 
L 217.675992 102.295559 
L 219.097083 101.527576 
L 220.518175 96.938485 
L 221.939266 95.146784 
L 223.360358 96.975909 
L 224.781449 99.348379 
L 226.202541 98.491025 
L 227.623632 90.909335 
L 229.044723 81.67072 
L 230.465815 80.66138 
L 231.886906 85.947909 
L 233.307998 87.903801 
L 234.729089 82.658532 
L 236.150181 71.136512 
L 237.571272 63.407309 
L 238.992364 73.923674 
L 240.413455 90.230793 
L 241.834546 83.186131 
L 243.255638 60.219885 
L 244.676729 53.350503 
L 246.097821 62.310781 
L 247.518912 64.07334 
L 248.940004 57.468914 
L 250.361095 56.977441 
L 251.782187 59.916948 
L 253.203278 51.379492 
L 254.624369 33.860742 
L 256.045461 22.875905 
L 257.466552 23.11847 
L 258.887644 30.440996 
L 260.308735 39.747915 
L 261.729827 45.465413 
L 263.150918 43.457549 
L 265.993101 18.686516 
L 267.414192 22.534383 
L 268.835284 38.968314 
L 270.256375 46.854812 
L 271.677467 43.155806 
L 273.098558 40.186637 
L 274.51965 41.67319 
L 275.940741 43.624938 
L 277.361833 44.29971 
L 278.782924 44.178712 
L 280.204015 44.295957 
L 281.625107 46.083674 
L 283.046198 50.452285 
L 284.46729 57.539777 
L 285.888381 61.77466 
L 287.309473 53.073749 
L 288.730564 35.755336 
L 290.151656 27.233383 
L 291.572747 34.564061 
L 292.993838 54.182384 
L 294.41493 75.353573 
L 295.836021 81.618937 
L 297.257113 73.55976 
L 298.678204 68.094183 
L 300.099296 69.898443 
L 301.520387 71.033776 
L 302.941479 68.426275 
L 304.36257 64.562335 
L 305.783662 64.631021 
L 307.204753 75.889451 
L 308.625844 94.561097 
L 310.046936 105.775716 
L 311.468027 106.639788 
L 312.889119 107.272303 
L 314.31021 113.230852 
L 315.731302 124.43111 
L 317.152393 138.49396 
L 318.573485 150.909806 
L 319.994576 159.002565 
L 321.415667 162.367099 
L 322.836759 164.175893 
L 324.25785 171.215802 
L 325.678942 182.287542 
L 327.100033 187.169163 
L 328.521125 184.859547 
L 329.942216 185.36185 
L 331.363308 191.027622 
L 332.784399 194.675721 
L 334.20549 195.285861 
L 335.626582 199.636539 
L 337.047673 207.377101 
L 338.468765 209.168946 
L 341.310948 197.374833 
L 342.732039 196.348672 
L 344.153131 199.638078 
L 346.995313 211.539583 
L 348.416405 215.151931 
L 349.837496 214.858239 
L 351.258588 211.000803 
L 352.679679 206.398707 
L 354.100771 204.237762 
L 355.521862 207.85609 
L 356.942954 215.791087 
L 358.364045 220.183221 
L 359.785136 218.120894 
L 361.206228 214.091664 
L 362.627319 211.490361 
L 364.048411 211.413031 
L 365.469502 213.830725 
L 368.311685 220.807469 
L 369.732777 223.321416 
L 371.153868 222.994992 
L 372.574959 216.415359 
L 373.996051 206.304767 
L 375.417142 204.488286 
L 376.838234 212.027553 
L 378.259325 212.793608 
L 381.101508 188.360124 
L 382.5226 181.922281 
L 383.943691 178.023349 
L 385.364782 175.64236 
L 386.785874 179.154576 
L 388.206965 187.8887 
L 389.628057 192.367273 
L 391.049148 188.594178 
L 392.47024 182.810897 
L 393.891331 179.754502 
L 395.312423 180.070098 
L 396.733514 182.520691 
L 398.154605 183.377858 
L 399.575697 181.542972 
L 400.996788 180.807858 
L 402.41788 182.555683 
L 403.838971 183.153555 
L 405.260063 180.435298 
L 408.102246 170.874204 
L 409.523337 167.996619 
L 412.36552 167.125749 
L 413.786611 164.665707 
L 415.207703 159.949304 
L 419.470977 140.785393 
L 420.892069 139.234146 
L 422.31316 141.16126 
L 423.734251 139.621464 
L 425.155343 132.435298 
L 426.576434 128.288086 
L 427.997526 130.210199 
L 429.418617 127.305242 
L 430.839709 115.196261 
L 432.2608 106.250771 
L 433.681892 107.778826 
L 435.102983 112.303759 
L 436.524074 114.081758 
L 437.945166 114.943798 
L 439.366257 116.866718 
L 440.787349 120.067806 
L 442.20844 124.92131 
L 443.629532 132.634235 
L 445.050623 142.347438 
L 446.471715 148.368777 
L 447.892806 146.505444 
L 449.313897 137.440128 
L 450.734989 124.893309 
L 452.15608 118.012803 
L 453.577172 121.527916 
L 454.998263 128.06815 
L 456.419355 131.813112 
L 457.840446 134.729138 
L 459.261538 138.392891 
L 460.682629 140.701612 
L 462.103721 139.079156 
L 463.524812 131.1352 
L 464.945903 118.240556 
L 466.366995 111.088603 
L 467.788086 115.982987 
L 469.209178 124.425538 
L 470.630269 129.652251 
L 472.051361 135.37542 
L 473.472452 143.914225 
L 474.893544 149.531053 
L 476.314635 148.408395 
L 477.735726 145.368447 
L 479.156818 145.116508 
L 480.577909 148.144242 
L 481.999001 151.774214 
L 483.420092 146.528295 
L 484.841184 129.320278 
L 486.262275 118.350343 
L 487.683367 126.649883 
L 489.104458 141.776834 
L 490.525549 150.923023 
L 491.946641 153.433445 
L 493.367732 151.1557 
L 494.788824 146.827173 
L 496.209915 143.403819 
L 497.631007 144.004298 
L 499.052098 149.241437 
L 500.47319 151.939666 
L 501.894281 147.14469 
L 503.315372 141.499784 
L 504.736464 140.527795 
L 506.157555 139.004854 
L 507.578647 132.722242 
L 508.999738 127.653313 
L 510.42083 129.144869 
L 511.841921 133.70972 
L 513.263013 137.179164 
L 514.684104 139.186533 
L 516.105195 140.161332 
L 517.526287 140.534925 
L 518.947378 140.294062 
L 520.36847 137.880679 
L 521.789561 133.126655 
L 523.210653 131.958817 
L 524.631744 138.166927 
L 526.052836 143.015929 
L 527.473927 138.851651 
L 528.895018 132.27983 
L 531.737201 127.884441 
L 533.158293 121.611473 
L 534.579384 119.518679 
L 536.000476 129.328228 
L 537.421567 145.75414 
L 538.842659 160.371843 
L 540.26375 164.756762 
L 540.26375 164.756762 
" clip-path="url(#p63d2855388)" style="fill: none; stroke: #b200f4; stroke-width: 2; stroke-linecap: square"/>
   </g>
   <g id="line2d_11">
    <path d="M 58.51375 241.262616 
L 59.934841 236.484732 
L 61.355933 231.207498 
L 62.777024 226.650738 
L 64.198116 224.034277 
L 65.619207 224.470494 
L 67.040299 228.626465 
L 68.46139 235.699739 
L 69.882482 239.174827 
L 71.303573 234.239633 
L 72.724664 229.866142 
L 75.566847 239.168345 
L 76.987939 233.320573 
L 78.40903 225.038011 
L 79.830122 224.431031 
L 81.251213 228.538561 
L 82.672305 231.692206 
L 84.093396 232.798127 
L 85.514487 232.299467 
L 86.935579 231.668537 
L 89.777762 232.80267 
L 91.198853 232.50925 
L 92.619945 233.994883 
L 94.041036 239.080306 
L 95.462128 239.757778 
L 98.30431 216.711921 
L 99.725402 217.446209 
L 102.567585 237.045997 
L 103.988676 241.604478 
L 105.409768 237.87988 
L 106.830859 232.422789 
L 108.251951 233.116059 
L 111.094133 242.783833 
L 112.515225 245.898779 
L 113.936316 247.344062 
L 115.357408 247.488305 
L 116.778499 246.854239 
L 118.199591 245.929125 
L 119.620682 245.174046 
L 121.041774 244.971264 
L 122.462865 245.295885 
L 123.883956 243.875905 
L 125.305048 238.500031 
L 126.726139 232.312002 
L 128.147231 229.855626 
L 129.568322 231.973786 
L 130.989414 237.501494 
L 132.410505 241.512082 
L 133.831597 238.976221 
L 135.252688 233.488325 
L 136.673779 231.181367 
L 138.094871 232.638495 
L 139.515962 236.023111 
L 140.937054 238.189913 
L 142.358145 236.307348 
L 143.779237 233.239267 
L 145.200328 233.379114 
L 146.62142 235.437016 
L 148.042511 235.942258 
L 149.463603 232.910716 
L 150.884694 226.050287 
L 152.305785 222.589439 
L 153.726877 230.615849 
L 155.147968 240.679417 
L 156.56906 238.445983 
L 157.990151 230.902895 
L 159.411243 232.116619 
L 160.832334 237.11082 
L 162.253426 234.420526 
L 163.674517 229.791097 
L 165.095608 234.805247 
L 166.5167 243.93682 
L 167.937791 245.416721 
L 169.358883 242.347487 
L 170.779974 243.490677 
L 172.201066 245.338321 
L 173.622157 240.03684 
L 175.043249 233.581476 
L 176.46434 236.953308 
L 177.885431 244.977 
L 179.306523 245.82888 
L 180.727614 240.856994 
L 182.148706 237.605483 
L 183.569797 238.456597 
L 184.990889 242.683364 
L 186.41198 246.020803 
L 187.833072 243.218024 
L 189.254163 237.058196 
L 190.675254 234.074352 
L 192.096346 235.359649 
L 194.938529 242.657986 
L 196.35962 244.16653 
L 197.780712 243.196835 
L 199.201803 240.550656 
L 200.622895 237.194431 
L 202.043986 234.293046 
L 203.465077 234.141836 
L 204.886169 239.103539 
L 206.30726 245.404932 
L 207.728352 246.353479 
L 209.149443 242.875469 
L 210.570535 240.214102 
L 211.991626 240.41937 
L 214.833809 245.942857 
L 216.2549 244.127979 
L 217.675992 238.119053 
L 219.097083 231.035452 
L 220.518175 226.271017 
L 221.939266 226.888806 
L 223.360358 230.314186 
L 224.781449 230.78522 
L 226.202541 228.381971 
L 227.623632 226.858443 
L 229.044723 227.115594 
L 230.465815 228.087598 
L 231.886906 228.671942 
L 234.729089 227.169857 
L 236.150181 228.95931 
L 238.992364 236.581965 
L 240.413455 238.522396 
L 241.834546 238.117806 
L 243.255638 235.934056 
L 246.097821 230.493429 
L 247.518912 227.06184 
L 248.940004 224.328006 
L 250.361095 224.682454 
L 251.782187 226.831158 
L 253.203278 226.733886 
L 254.624369 221.613898 
L 256.045461 210.311677 
L 257.466552 200.714051 
L 258.887644 206.461858 
L 260.308735 220.132518 
L 261.729827 219.057311 
L 263.150918 208.29332 
L 264.57201 213.890422 
L 265.993101 231.078075 
L 267.414192 230.978712 
L 268.835284 215.320595 
L 270.256375 210.545792 
L 271.677467 216.732775 
L 273.098558 212.317277 
L 274.51965 201.151243 
L 275.940741 208.001908 
L 277.361833 227.784604 
L 278.782924 230.101891 
L 280.204015 212.209173 
L 281.625107 195.989278 
L 283.046198 188.547785 
L 285.888381 177.5567 
L 287.309473 174.765672 
L 288.730564 177.98767 
L 290.151656 190.32136 
L 291.572747 205.49593 
L 292.993838 209.007835 
L 295.836021 190.969709 
L 297.257113 187.281135 
L 298.678204 187.325319 
L 300.099296 191.12037 
L 302.941479 208.939821 
L 304.36257 203.883561 
L 305.783662 186.137924 
L 307.204753 171.205653 
L 308.625844 168.324279 
L 310.046936 179.079036 
L 311.468027 193.44104 
L 312.889119 190.247306 
L 315.731302 145.932053 
L 317.152393 130.149508 
L 319.994576 91.792781 
L 321.415667 90.763311 
L 322.836759 106.588893 
L 324.25785 116.028448 
L 325.678942 114.395076 
L 327.100033 119.01433 
L 328.521125 132.743629 
L 329.942216 140.554378 
L 331.363308 135.52828 
L 332.784399 121.509408 
L 334.20549 103.900614 
L 335.626582 89.149255 
L 337.047673 80.98096 
L 338.468765 79.601076 
L 339.889856 80.233707 
L 341.310948 72.545004 
L 342.732039 57.617825 
L 344.153131 50.91492 
L 345.574222 55.437275 
L 346.995313 57.459708 
L 348.416405 53.517187 
L 349.837496 54.55974 
L 351.258588 62.523653 
L 352.679679 66.376888 
L 354.100771 59.302182 
L 355.521862 41.472382 
L 356.942954 21.847801 
L 358.364045 20.245198 
L 361.206228 60.298655 
L 364.048411 84.979722 
L 365.469502 99.859111 
L 366.890594 107.03928 
L 368.311685 106.268135 
L 369.732777 112.389398 
L 372.574959 146.141841 
L 373.996051 153.498096 
L 375.417142 152.973915 
L 376.838234 148.71124 
L 378.259325 148.292555 
L 379.680417 153.668432 
L 381.101508 157.779105 
L 383.943691 157.416311 
L 385.364782 161.1027 
L 386.785874 170.38066 
L 388.206965 180.502913 
L 389.628057 176.752038 
L 391.049148 157.622315 
L 392.47024 144.508265 
L 393.891331 146.978857 
L 395.312423 151.474497 
L 396.733514 145.703565 
L 398.154605 123.364171 
L 399.575697 91.904778 
L 400.996788 81.150793 
L 402.41788 103.665529 
L 403.838971 138.151489 
L 405.260063 166.624925 
L 406.681154 183.040662 
L 408.102246 187.029175 
L 409.523337 186.209564 
L 410.944428 186.104407 
L 412.36552 186.858028 
L 413.786611 186.501562 
L 415.207703 180.274208 
L 416.628794 170.892361 
L 418.049886 175.649923 
L 419.470977 198.889507 
L 420.892069 217.084869 
L 422.31316 217.132349 
L 423.734251 212.358973 
L 425.155343 209.966577 
L 426.576434 199.038625 
L 427.997526 178.575359 
L 429.418617 171.770456 
L 430.839709 189.287485 
L 432.2608 210.208836 
L 433.681892 218.322341 
L 435.102983 215.284953 
L 436.524074 206.629279 
L 437.945166 201.346453 
L 439.366257 204.359584 
L 442.20844 217.528097 
L 443.629532 226.458276 
L 445.050623 237.18367 
L 446.471715 241.511129 
L 447.892806 235.928639 
L 449.313897 229.837359 
L 450.734989 229.2611 
L 452.15608 228.392894 
L 453.577172 224.598833 
L 454.998263 226.516004 
L 456.419355 237.484827 
L 457.840446 244.450288 
L 460.682629 235.021038 
L 462.103721 237.750532 
L 463.524812 239.821667 
L 464.945903 235.898571 
L 466.366995 233.797929 
L 467.788086 238.343328 
L 469.209178 241.613179 
L 470.630269 238.527262 
L 472.051361 236.509422 
L 473.472452 240.161034 
L 474.893544 241.418511 
L 476.314635 235.587994 
L 477.735726 232.491293 
L 479.156818 237.960019 
L 480.577909 240.433929 
L 481.999001 232.811589 
L 483.420092 228.447357 
L 486.262275 244.976114 
L 487.683367 243.938953 
L 489.104458 241.816701 
L 490.525549 245.520908 
L 491.946641 248.416828 
L 494.788824 242.359007 
L 496.209915 243.643654 
L 497.631007 239.946843 
L 499.052098 224.723629 
L 500.47319 207.15408 
L 501.894281 196.961166 
L 503.315372 196.161477 
L 504.736464 203.607897 
L 506.157555 212.866587 
L 507.578647 217.744363 
L 508.999738 216.220631 
L 510.42083 210.051845 
L 511.841921 210.657953 
L 514.684104 239.793109 
L 516.105195 241.92465 
L 517.526287 238.359776 
L 518.947378 236.736175 
L 520.36847 233.363323 
L 521.789561 225.462992 
L 523.210653 222.160904 
L 524.631744 230.396628 
L 526.052836 239.796336 
L 527.473927 239.93603 
L 528.895018 234.450546 
L 530.31611 229.513946 
L 531.737201 228.778409 
L 534.579384 238.696065 
L 536.000476 239.22666 
L 537.421567 237.512504 
L 538.842659 237.64177 
L 540.26375 243.702633 
L 540.26375 243.702633 
" clip-path="url(#p63d2855388)" style="fill: none; stroke: #00c000; stroke-width: 2; stroke-linecap: square"/>
   </g>
   <g id="patch_3">
    <path d="M 58.51375 248.42 
L 58.51375 7.2 
" style="fill: none; stroke: #000000; stroke-width: 2; stroke-linejoin: miter; stroke-linecap: square"/>
   </g>
   <g id="patch_4">
    <path d="M 58.51375 248.42 
L 540.26375 248.42 
" style="fill: none; stroke: #000000; stroke-width: 2; stroke-linejoin: miter; stroke-linecap: square"/>
   </g>
   <g id="legend_1">
    <g id="line2d_12">
     <path d="M 449.66375 20.298437 
L 459.66375 20.298437 
L 469.66375 20.298437 
" style="fill: none; stroke: #b200f4; stroke-width: 2; stroke-linecap: square"/>
    </g>
    <g id="text_11">
     <!-- Membrane -->
     <g transform="translate(477.66375 23.798437) scale(0.1 -0.1)">
      <defs>
       <path id="DejaVuSans-4d" d="M 628 4666 
L 1569 4666 
L 2759 1491 
L 3956 4666 
L 4897 4666 
L 4897 0 
L 4281 0 
L 4281 4097 
L 3078 897 
L 2444 897 
L 1241 4097 
L 1241 0 
L 628 0 
L 628 4666 
z
" transform="scale(0.015625)"/>
       <path id="DejaVuSans-62" d="M 3116 1747 
Q 3116 2381 2855 2742 
Q 2594 3103 2138 3103 
Q 1681 3103 1420 2742 
Q 1159 2381 1159 1747 
Q 1159 1113 1420 752 
Q 1681 391 2138 391 
Q 2594 391 2855 752 
Q 3116 1113 3116 1747 
z
M 1159 2969 
Q 1341 3281 1617 3432 
Q 1894 3584 2278 3584 
Q 2916 3584 3314 3078 
Q 3713 2572 3713 1747 
Q 3713 922 3314 415 
Q 2916 -91 2278 -91 
Q 1894 -91 1617 61 
Q 1341 213 1159 525 
L 1159 0 
L 581 0 
L 581 4863 
L 1159 4863 
L 1159 2969 
z
" transform="scale(0.015625)"/>
      </defs>
      <use xlink:href="#DejaVuSans-4d"/>
      <use xlink:href="#DejaVuSans-65" transform="translate(86.279297 0)"/>
      <use xlink:href="#DejaVuSans-6d" transform="translate(147.802734 0)"/>
      <use xlink:href="#DejaVuSans-62" transform="translate(245.214844 0)"/>
      <use xlink:href="#DejaVuSans-72" transform="translate(308.691406 0)"/>
      <use xlink:href="#DejaVuSans-61" transform="translate(349.804688 0)"/>
      <use xlink:href="#DejaVuSans-6e" transform="translate(411.083984 0)"/>
      <use xlink:href="#DejaVuSans-65" transform="translate(474.462891 0)"/>
     </g>
    </g>
    <g id="line2d_13">
     <path d="M 449.66375 34.976562 
L 459.66375 34.976562 
L 469.66375 34.976562 
" style="fill: none; stroke: #00c000; stroke-width: 2; stroke-linecap: square"/>
    </g>
    <g id="text_12">
     <!-- $\mathrm{FtsZ^{MTS}}$ -->
     <g transform="translate(477.66375 38.476562) scale(0.1 -0.1)">
      <defs>
       <path id="DejaVuSans-46" d="M 628 4666 
L 3309 4666 
L 3309 4134 
L 1259 4134 
L 1259 2759 
L 3109 2759 
L 3109 2228 
L 1259 2228 
L 1259 0 
L 628 0 
L 628 4666 
z
" transform="scale(0.015625)"/>
       <path id="DejaVuSans-5a" d="M 359 4666 
L 4025 4666 
L 4025 4184 
L 1075 531 
L 4097 531 
L 4097 0 
L 288 0 
L 288 481 
L 3238 4134 
L 359 4134 
L 359 4666 
z
" transform="scale(0.015625)"/>
       <path id="DejaVuSans-54" d="M -19 4666 
L 3928 4666 
L 3928 4134 
L 2272 4134 
L 2272 0 
L 1638 0 
L 1638 4134 
L -19 4134 
L -19 4666 
z
" transform="scale(0.015625)"/>
       <path id="DejaVuSans-53" d="M 3425 4513 
L 3425 3897 
Q 3066 4069 2747 4153 
Q 2428 4238 2131 4238 
Q 1616 4238 1336 4038 
Q 1056 3838 1056 3469 
Q 1056 3159 1242 3001 
Q 1428 2844 1947 2747 
L 2328 2669 
Q 3034 2534 3370 2195 
Q 3706 1856 3706 1288 
Q 3706 609 3251 259 
Q 2797 -91 1919 -91 
Q 1588 -91 1214 -16 
Q 841 59 441 206 
L 441 856 
Q 825 641 1194 531 
Q 1563 422 1919 422 
Q 2459 422 2753 634 
Q 3047 847 3047 1241 
Q 3047 1584 2836 1778 
Q 2625 1972 2144 2069 
L 1759 2144 
Q 1053 2284 737 2584 
Q 422 2884 422 3419 
Q 422 4038 858 4394 
Q 1294 4750 2059 4750 
Q 2388 4750 2728 4690 
Q 3069 4631 3425 4513 
z
" transform="scale(0.015625)"/>
      </defs>
      <use xlink:href="#DejaVuSans-46" transform="translate(0 0.765625)"/>
      <use xlink:href="#DejaVuSans-74" transform="translate(57.519531 0.765625)"/>
      <use xlink:href="#DejaVuSans-73" transform="translate(96.728516 0.765625)"/>
      <use xlink:href="#DejaVuSans-5a" transform="translate(148.828125 0.765625)"/>
      <use xlink:href="#DejaVuSans-4d" transform="translate(218.291016 39.046875) scale(0.7)"/>
      <use xlink:href="#DejaVuSans-54" transform="translate(278.686523 39.046875) scale(0.7)"/>
      <use xlink:href="#DejaVuSans-53" transform="translate(321.445312 39.046875) scale(0.7)"/>
     </g>
    </g>
   </g>
  </g>
 </g>
 <defs>
  <clipPath id="p63d2855388">
   <rect x="58.51375" y="7.2" width="481.75" height="241.22"/>
  </clipPath>
 </defs>
</svg>
