<?xml version="1.0" encoding="utf-8" standalone="no"?>
<!DOCTYPE svg PUBLIC "-//W3C//DTD SVG 1.1//EN"
  "http://www.w3.org/Graphics/SVG/1.1/DTD/svg11.dtd">
<svg xmlns:xlink="http://www.w3.org/1999/xlink" width="496.48511pt" height="281.751562pt" viewBox="0 0 496.48511 281.751562" xmlns="http://www.w3.org/2000/svg" version="1.1">
 <metadata>
  <rdf:RDF xmlns:dc="http://purl.org/dc/elements/1.1/" xmlns:cc="http://creativecommons.org/ns#" xmlns:rdf="http://www.w3.org/1999/02/22-rdf-syntax-ns#">
   <cc:Work>
    <dc:type rdf:resource="http://purl.org/dc/dcmitype/StillImage"/>
    <dc:date>2026-01-08T15:25:50.720556</dc:date>
    <dc:format>image/svg+xml</dc:format>
    <dc:creator>
     <cc:Agent>
      <dc:title>Matplotlib v3.10.8, https://matplotlib.org/</dc:title>
     </cc:Agent>
    </dc:creator>
   </cc:Work>
  </rdf:RDF>
 </metadata>
 <defs>
  <style type="text/css">*{stroke-linejoin: round; stroke-linecap: butt}</style>
 </defs>
 <g id="figure_1">
  <g id="patch_1">
   <path d="M 0 281.751562 
L 496.48511 281.751562 
L 496.48511 0 
L 0 0 
z
" style="fill: #ffffff"/>
  </g>
  <g id="axes_1">
   <g id="patch_2">
    <path d="M 64.9075 234.017187 
L 373.8255 234.017187 
L 373.8255 30.877187 
L 64.9075 30.877187 
z
" style="fill: #ffffff"/>
   </g>
   <g id="patch_3">
    <path d="M 177.241318 234.017187 
L 373.8255 234.017187 
L 373.8255 30.877187 
L 177.241318 30.877187 
z
" clip-path="url(#p4489b310c4)" style="fill: #84888f; opacity: 0.2"/>
   </g>
   <g id="matplotlib.axis_1">
    <g id="xtick_1">
     <g id="line2d_1">
      <defs>
       <path id="mf8b35d87a1" d="M 0 0 
L 0 4 
" style="stroke: #000000; stroke-width: 2"/>
      </defs>
      <g>
       <use xlink:href="#mf8b35d87a1" x="64.9075" y="234.017187" style="stroke: #000000; stroke-width: 2"/>
      </g>
     </g>
    </g>
    <g id="xtick_2">
     <g id="line2d_2">
      <g>
       <use xlink:href="#mf8b35d87a1" x="92.990955" y="234.017187" style="stroke: #000000; stroke-width: 2"/>
      </g>
     </g>
     <g id="text_1">
      <!-- 0 -->
      <g transform="translate(88.537205 252.155) scale(0.14 -0.14)">
       <defs>
        <path id="DejaVuSans-30" d="M 2034 4250 
Q 1547 4250 1301 3770 
Q 1056 3291 1056 2328 
Q 1056 1369 1301 889 
Q 1547 409 2034 409 
Q 2525 409 2770 889 
Q 3016 1369 3016 2328 
Q 3016 3291 2770 3770 
Q 2525 4250 2034 4250 
z
M 2034 4750 
Q 2819 4750 3233 4129 
Q 3647 3509 3647 2328 
Q 3647 1150 3233 529 
Q 2819 -91 2034 -91 
Q 1250 -91 836 529 
Q 422 1150 422 2328 
Q 422 3509 836 4129 
Q 1250 4750 2034 4750 
z
" transform="scale(0.015625)"/>
       </defs>
       <use xlink:href="#DejaVuSans-30"/>
      </g>
     </g>
    </g>
    <g id="xtick_3">
     <g id="line2d_3">
      <g>
       <use xlink:href="#mf8b35d87a1" x="121.074409" y="234.017187" style="stroke: #000000; stroke-width: 2"/>
      </g>
     </g>
    </g>
    <g id="xtick_4">
     <g id="line2d_4">
      <g>
       <use xlink:href="#mf8b35d87a1" x="149.157864" y="234.017187" style="stroke: #000000; stroke-width: 2"/>
      </g>
     </g>
    </g>
    <g id="xtick_5">
     <g id="line2d_5">
      <g>
       <use xlink:href="#mf8b35d87a1" x="177.241318" y="234.017187" style="stroke: #000000; stroke-width: 2"/>
      </g>
     </g>
    </g>
    <g id="xtick_6">
     <g id="line2d_6">
      <g>
       <use xlink:href="#mf8b35d87a1" x="205.324773" y="234.017187" style="stroke: #000000; stroke-width: 2"/>
      </g>
     </g>
    </g>
    <g id="xtick_7">
     <g id="line2d_7">
      <g>
       <use xlink:href="#mf8b35d87a1" x="233.408227" y="234.017187" style="stroke: #000000; stroke-width: 2"/>
      </g>
     </g>
     <g id="text_2">
      <!-- 5 -->
      <g transform="translate(228.954477 252.155) scale(0.14 -0.14)">
       <defs>
        <path id="DejaVuSans-35" d="M 691 4666 
L 3169 4666 
L 3169 4134 
L 1269 4134 
L 1269 2991 
Q 1406 3038 1543 3061 
Q 1681 3084 1819 3084 
Q 2600 3084 3056 2656 
Q 3513 2228 3513 1497 
Q 3513 744 3044 326 
Q 2575 -91 1722 -91 
Q 1428 -91 1123 -41 
Q 819 9 494 109 
L 494 744 
Q 775 591 1075 516 
Q 1375 441 1709 441 
Q 2250 441 2565 725 
Q 2881 1009 2881 1497 
Q 2881 1984 2565 2268 
Q 2250 2553 1709 2553 
Q 1456 2553 1204 2497 
Q 953 2441 691 2322 
L 691 4666 
z
" transform="scale(0.015625)"/>
       </defs>
       <use xlink:href="#DejaVuSans-35"/>
      </g>
     </g>
    </g>
    <g id="xtick_8">
     <g id="line2d_8">
      <g>
       <use xlink:href="#mf8b35d87a1" x="261.491682" y="234.017187" style="stroke: #000000; stroke-width: 2"/>
      </g>
     </g>
    </g>
    <g id="xtick_9">
     <g id="line2d_9">
      <g>
       <use xlink:href="#mf8b35d87a1" x="289.575136" y="234.017187" style="stroke: #000000; stroke-width: 2"/>
      </g>
     </g>
    </g>
    <g id="xtick_10">
     <g id="line2d_10">
      <g>
       <use xlink:href="#mf8b35d87a1" x="317.658591" y="234.017187" style="stroke: #000000; stroke-width: 2"/>
      </g>
     </g>
    </g>
    <g id="xtick_11">
     <g id="line2d_11">
      <g>
       <use xlink:href="#mf8b35d87a1" x="345.742045" y="234.017187" style="stroke: #000000; stroke-width: 2"/>
      </g>
     </g>
    </g>
    <g id="xtick_12">
     <g id="line2d_12">
      <g>
       <use xlink:href="#mf8b35d87a1" x="373.8255" y="234.017187" style="stroke: #000000; stroke-width: 2"/>
      </g>
     </g>
     <g id="text_3">
      <!-- 10 -->
      <g transform="translate(364.918 252.155) scale(0.14 -0.14)">
       <defs>
        <path id="DejaVuSans-31" d="M 794 531 
L 1825 531 
L 1825 4091 
L 703 3866 
L 703 4441 
L 1819 4666 
L 2450 4666 
L 2450 531 
L 3481 531 
L 3481 0 
L 794 0 
L 794 531 
z
" transform="scale(0.015625)"/>
       </defs>
       <use xlink:href="#DejaVuSans-31"/>
       <use xlink:href="#DejaVuSans-30" transform="translate(63.623047 0)"/>
      </g>
     </g>
    </g>
    <g id="text_4">
     <!-- Length (μm) -->
     <g transform="translate(170.104 271.224063) scale(0.16 -0.16)">
      <defs>
       <path id="DejaVuSans-4c" d="M 628 4666 
L 1259 4666 
L 1259 531 
L 3531 531 
L 3531 0 
L 628 0 
L 628 4666 
z
" transform="scale(0.015625)"/>
       <path id="DejaVuSans-65" d="M 3597 1894 
L 3597 1613 
L 953 1613 
Q 991 1019 1311 708 
Q 1631 397 2203 397 
Q 2534 397 2845 478 
Q 3156 559 3463 722 
L 3463 178 
Q 3153 47 2828 -22 
Q 2503 -91 2169 -91 
Q 1331 -91 842 396 
Q 353 884 353 1716 
Q 353 2575 817 3079 
Q 1281 3584 2069 3584 
Q 2775 3584 3186 3129 
Q 3597 2675 3597 1894 
z
M 3022 2063 
Q 3016 2534 2758 2815 
Q 2500 3097 2075 3097 
Q 1594 3097 1305 2825 
Q 1016 2553 972 2059 
L 3022 2063 
z
" transform="scale(0.015625)"/>
       <path id="DejaVuSans-6e" d="M 3513 2113 
L 3513 0 
L 2938 0 
L 2938 2094 
Q 2938 2591 2744 2837 
Q 2550 3084 2163 3084 
Q 1697 3084 1428 2787 
Q 1159 2491 1159 1978 
L 1159 0 
L 581 0 
L 581 3500 
L 1159 3500 
L 1159 2956 
Q 1366 3272 1645 3428 
Q 1925 3584 2291 3584 
Q 2894 3584 3203 3211 
Q 3513 2838 3513 2113 
z
" transform="scale(0.015625)"/>
       <path id="DejaVuSans-67" d="M 2906 1791 
Q 2906 2416 2648 2759 
Q 2391 3103 1925 3103 
Q 1463 3103 1205 2759 
Q 947 2416 947 1791 
Q 947 1169 1205 825 
Q 1463 481 1925 481 
Q 2391 481 2648 825 
Q 2906 1169 2906 1791 
z
M 3481 434 
Q 3481 -459 3084 -895 
Q 2688 -1331 1869 -1331 
Q 1566 -1331 1297 -1286 
Q 1028 -1241 775 -1147 
L 775 -588 
Q 1028 -725 1275 -790 
Q 1522 -856 1778 -856 
Q 2344 -856 2625 -561 
Q 2906 -266 2906 331 
L 2906 616 
Q 2728 306 2450 153 
Q 2172 0 1784 0 
Q 1141 0 747 490 
Q 353 981 353 1791 
Q 353 2603 747 3093 
Q 1141 3584 1784 3584 
Q 2172 3584 2450 3431 
Q 2728 3278 2906 2969 
L 2906 3500 
L 3481 3500 
L 3481 434 
z
" transform="scale(0.015625)"/>
       <path id="DejaVuSans-74" d="M 1172 4494 
L 1172 3500 
L 2356 3500 
L 2356 3053 
L 1172 3053 
L 1172 1153 
Q 1172 725 1289 603 
Q 1406 481 1766 481 
L 2356 481 
L 2356 0 
L 1766 0 
Q 1100 0 847 248 
Q 594 497 594 1153 
L 594 3053 
L 172 3053 
L 172 3500 
L 594 3500 
L 594 4494 
L 1172 4494 
z
" transform="scale(0.015625)"/>
       <path id="DejaVuSans-68" d="M 3513 2113 
L 3513 0 
L 2938 0 
L 2938 2094 
Q 2938 2591 2744 2837 
Q 2550 3084 2163 3084 
Q 1697 3084 1428 2787 
Q 1159 2491 1159 1978 
L 1159 0 
L 581 0 
L 581 4863 
L 1159 4863 
L 1159 2956 
Q 1366 3272 1645 3428 
Q 1925 3584 2291 3584 
Q 2894 3584 3203 3211 
Q 3513 2838 3513 2113 
z
" transform="scale(0.015625)"/>
       <path id="DejaVuSans-20" transform="scale(0.015625)"/>
       <path id="DejaVuSans-28" d="M 1984 4856 
Q 1566 4138 1362 3434 
Q 1159 2731 1159 2009 
Q 1159 1288 1364 580 
Q 1569 -128 1984 -844 
L 1484 -844 
Q 1016 -109 783 600 
Q 550 1309 550 2009 
Q 550 2706 781 3412 
Q 1013 4119 1484 4856 
L 1984 4856 
z
" transform="scale(0.015625)"/>
       <path id="DejaVuSans-3bc" d="M 544 -1331 
L 544 3500 
L 1119 3500 
L 1119 1325 
Q 1119 872 1334 640 
Q 1550 409 1972 409 
Q 2434 409 2667 671 
Q 2900 934 2900 1459 
L 2900 3500 
L 3475 3500 
L 3475 806 
Q 3475 619 3529 530 
Q 3584 441 3700 441 
Q 3728 441 3778 458 
Q 3828 475 3916 513 
L 3916 50 
Q 3788 -22 3673 -56 
Q 3559 -91 3450 -91 
Q 3234 -91 3106 31 
Q 2978 153 2931 403 
Q 2775 156 2548 32 
Q 2322 -91 2016 -91 
Q 1697 -91 1473 31 
Q 1250 153 1119 397 
L 1119 -1331 
L 544 -1331 
z
" transform="scale(0.015625)"/>
       <path id="DejaVuSans-6d" d="M 3328 2828 
Q 3544 3216 3844 3400 
Q 4144 3584 4550 3584 
Q 5097 3584 5394 3201 
Q 5691 2819 5691 2113 
L 5691 0 
L 5113 0 
L 5113 2094 
Q 5113 2597 4934 2840 
Q 4756 3084 4391 3084 
Q 3944 3084 3684 2787 
Q 3425 2491 3425 1978 
L 3425 0 
L 2847 0 
L 2847 2094 
Q 2847 2600 2669 2842 
Q 2491 3084 2119 3084 
Q 1678 3084 1418 2786 
Q 1159 2488 1159 1978 
L 1159 0 
L 581 0 
L 581 3500 
L 1159 3500 
L 1159 2956 
Q 1356 3278 1631 3431 
Q 1906 3584 2284 3584 
Q 2666 3584 2933 3390 
Q 3200 3197 3328 2828 
z
" transform="scale(0.015625)"/>
       <path id="DejaVuSans-29" d="M 513 4856 
L 1013 4856 
Q 1481 4119 1714 3412 
Q 1947 2706 1947 2009 
Q 1947 1309 1714 600 
Q 1481 -109 1013 -844 
L 513 -844 
Q 928 -128 1133 580 
Q 1338 1288 1338 2009 
Q 1338 2731 1133 3434 
Q 928 4138 513 4856 
z
" transform="scale(0.015625)"/>
      </defs>
      <use xlink:href="#DejaVuSans-4c"/>
      <use xlink:href="#DejaVuSans-65" transform="translate(53.962891 0)"/>
      <use xlink:href="#DejaVuSans-6e" transform="translate(115.486328 0)"/>
      <use xlink:href="#DejaVuSans-67" transform="translate(178.865234 0)"/>
      <use xlink:href="#DejaVuSans-74" transform="translate(242.341797 0)"/>
      <use xlink:href="#DejaVuSans-68" transform="translate(281.550781 0)"/>
      <use xlink:href="#DejaVuSans-20" transform="translate(344.929688 0)"/>
      <use xlink:href="#DejaVuSans-28" transform="translate(376.716797 0)"/>
      <use xlink:href="#DejaVuSans-3bc" transform="translate(415.730469 0)"/>
      <use xlink:href="#DejaVuSans-6d" transform="translate(479.353516 0)"/>
      <use xlink:href="#DejaVuSans-29" transform="translate(576.765625 0)"/>
     </g>
    </g>
   </g>
   <g id="matplotlib.axis_2">
    <g id="ytick_1">
     <g id="line2d_13">
      <defs>
       <path id="m52282ccd74" d="M 0 0 
L -8 0 
" style="stroke: #000000; stroke-width: 2"/>
      </defs>
      <g>
       <use xlink:href="#m52282ccd74" x="64.9075" y="234.017187" style="stroke: #000000; stroke-width: 2"/>
      </g>
     </g>
     <g id="text_5">
      <!-- 0 -->
      <g transform="translate(44.5 239.336094) scale(0.14 -0.14)">
       <use xlink:href="#DejaVuSans-30"/>
      </g>
     </g>
    </g>
    <g id="ytick_2">
     <g id="line2d_14">
      <g>
       <use xlink:href="#m52282ccd74" x="64.9075" y="174.270129" style="stroke: #000000; stroke-width: 2"/>
      </g>
     </g>
     <g id="text_6">
      <!-- 200 -->
      <g transform="translate(26.685 179.589035) scale(0.14 -0.14)">
       <defs>
        <path id="DejaVuSans-32" d="M 1228 531 
L 3431 531 
L 3431 0 
L 469 0 
L 469 531 
Q 828 903 1448 1529 
Q 2069 2156 2228 2338 
Q 2531 2678 2651 2914 
Q 2772 3150 2772 3378 
Q 2772 3750 2511 3984 
Q 2250 4219 1831 4219 
Q 1534 4219 1204 4116 
Q 875 4013 500 3803 
L 500 4441 
Q 881 4594 1212 4672 
Q 1544 4750 1819 4750 
Q 2544 4750 2975 4387 
Q 3406 4025 3406 3419 
Q 3406 3131 3298 2873 
Q 3191 2616 2906 2266 
Q 2828 2175 2409 1742 
Q 1991 1309 1228 531 
z
" transform="scale(0.015625)"/>
       </defs>
       <use xlink:href="#DejaVuSans-32"/>
       <use xlink:href="#DejaVuSans-30" transform="translate(63.623047 0)"/>
       <use xlink:href="#DejaVuSans-30" transform="translate(127.246094 0)"/>
      </g>
     </g>
    </g>
    <g id="ytick_3">
     <g id="line2d_15">
      <g>
       <use xlink:href="#m52282ccd74" x="64.9075" y="114.52307" style="stroke: #000000; stroke-width: 2"/>
      </g>
     </g>
     <g id="text_7">
      <!-- 400 -->
      <g transform="translate(26.685 119.841976) scale(0.14 -0.14)">
       <defs>
        <path id="DejaVuSans-34" d="M 2419 4116 
L 825 1625 
L 2419 1625 
L 2419 4116 
z
M 2253 4666 
L 3047 4666 
L 3047 1625 
L 3713 1625 
L 3713 1100 
L 3047 1100 
L 3047 0 
L 2419 0 
L 2419 1100 
L 313 1100 
L 313 1709 
L 2253 4666 
z
" transform="scale(0.015625)"/>
       </defs>
       <use xlink:href="#DejaVuSans-34"/>
       <use xlink:href="#DejaVuSans-30" transform="translate(63.623047 0)"/>
       <use xlink:href="#DejaVuSans-30" transform="translate(127.246094 0)"/>
      </g>
     </g>
    </g>
    <g id="ytick_4">
     <g id="line2d_16">
      <g>
       <use xlink:href="#m52282ccd74" x="64.9075" y="54.776011" style="stroke: #000000; stroke-width: 2"/>
      </g>
     </g>
     <g id="text_8">
      <!-- 600 -->
      <g transform="translate(26.685 60.094917) scale(0.14 -0.14)">
       <defs>
        <path id="DejaVuSans-36" d="M 2113 2584 
Q 1688 2584 1439 2293 
Q 1191 2003 1191 1497 
Q 1191 994 1439 701 
Q 1688 409 2113 409 
Q 2538 409 2786 701 
Q 3034 994 3034 1497 
Q 3034 2003 2786 2293 
Q 2538 2584 2113 2584 
z
M 3366 4563 
L 3366 3988 
Q 3128 4100 2886 4159 
Q 2644 4219 2406 4219 
Q 1781 4219 1451 3797 
Q 1122 3375 1075 2522 
Q 1259 2794 1537 2939 
Q 1816 3084 2150 3084 
Q 2853 3084 3261 2657 
Q 3669 2231 3669 1497 
Q 3669 778 3244 343 
Q 2819 -91 2113 -91 
Q 1303 -91 875 529 
Q 447 1150 447 2328 
Q 447 3434 972 4092 
Q 1497 4750 2381 4750 
Q 2619 4750 2861 4703 
Q 3103 4656 3366 4563 
z
" transform="scale(0.015625)"/>
       </defs>
       <use xlink:href="#DejaVuSans-36"/>
       <use xlink:href="#DejaVuSans-30" transform="translate(63.623047 0)"/>
       <use xlink:href="#DejaVuSans-30" transform="translate(127.246094 0)"/>
      </g>
     </g>
    </g>
    <g id="text_9">
     <!-- Intensity (a.u.) -->
     <g transform="translate(19.3575 191.109687) rotate(-90) scale(0.16 -0.16)">
      <defs>
       <path id="DejaVuSans-49" d="M 628 4666 
L 1259 4666 
L 1259 0 
L 628 0 
L 628 4666 
z
" transform="scale(0.015625)"/>
       <path id="DejaVuSans-73" d="M 2834 3397 
L 2834 2853 
Q 2591 2978 2328 3040 
Q 2066 3103 1784 3103 
Q 1356 3103 1142 2972 
Q 928 2841 928 2578 
Q 928 2378 1081 2264 
Q 1234 2150 1697 2047 
L 1894 2003 
Q 2506 1872 2764 1633 
Q 3022 1394 3022 966 
Q 3022 478 2636 193 
Q 2250 -91 1575 -91 
Q 1294 -91 989 -36 
Q 684 19 347 128 
L 347 722 
Q 666 556 975 473 
Q 1284 391 1588 391 
Q 1994 391 2212 530 
Q 2431 669 2431 922 
Q 2431 1156 2273 1281 
Q 2116 1406 1581 1522 
L 1381 1569 
Q 847 1681 609 1914 
Q 372 2147 372 2553 
Q 372 3047 722 3315 
Q 1072 3584 1716 3584 
Q 2034 3584 2315 3537 
Q 2597 3491 2834 3397 
z
" transform="scale(0.015625)"/>
       <path id="DejaVuSans-69" d="M 603 3500 
L 1178 3500 
L 1178 0 
L 603 0 
L 603 3500 
z
M 603 4863 
L 1178 4863 
L 1178 4134 
L 603 4134 
L 603 4863 
z
" transform="scale(0.015625)"/>
       <path id="DejaVuSans-79" d="M 2059 -325 
Q 1816 -950 1584 -1140 
Q 1353 -1331 966 -1331 
L 506 -1331 
L 506 -850 
L 844 -850 
Q 1081 -850 1212 -737 
Q 1344 -625 1503 -206 
L 1606 56 
L 191 3500 
L 800 3500 
L 1894 763 
L 2988 3500 
L 3597 3500 
L 2059 -325 
z
" transform="scale(0.015625)"/>
       <path id="DejaVuSans-61" d="M 2194 1759 
Q 1497 1759 1228 1600 
Q 959 1441 959 1056 
Q 959 750 1161 570 
Q 1363 391 1709 391 
Q 2188 391 2477 730 
Q 2766 1069 2766 1631 
L 2766 1759 
L 2194 1759 
z
M 3341 1997 
L 3341 0 
L 2766 0 
L 2766 531 
Q 2569 213 2275 61 
Q 1981 -91 1556 -91 
Q 1019 -91 701 211 
Q 384 513 384 1019 
Q 384 1609 779 1909 
Q 1175 2209 1959 2209 
L 2766 2209 
L 2766 2266 
Q 2766 2663 2505 2880 
Q 2244 3097 1772 3097 
Q 1472 3097 1187 3025 
Q 903 2953 641 2809 
L 641 3341 
Q 956 3463 1253 3523 
Q 1550 3584 1831 3584 
Q 2591 3584 2966 3190 
Q 3341 2797 3341 1997 
z
" transform="scale(0.015625)"/>
       <path id="DejaVuSans-2e" d="M 684 794 
L 1344 794 
L 1344 0 
L 684 0 
L 684 794 
z
" transform="scale(0.015625)"/>
       <path id="DejaVuSans-75" d="M 544 1381 
L 544 3500 
L 1119 3500 
L 1119 1403 
Q 1119 906 1312 657 
Q 1506 409 1894 409 
Q 2359 409 2629 706 
Q 2900 1003 2900 1516 
L 2900 3500 
L 3475 3500 
L 3475 0 
L 2900 0 
L 2900 538 
Q 2691 219 2414 64 
Q 2138 -91 1772 -91 
Q 1169 -91 856 284 
Q 544 659 544 1381 
z
M 1991 3584 
L 1991 3584 
z
" transform="scale(0.015625)"/>
      </defs>
      <use xlink:href="#DejaVuSans-49"/>
      <use xlink:href="#DejaVuSans-6e" transform="translate(29.492188 0)"/>
      <use xlink:href="#DejaVuSans-74" transform="translate(92.871094 0)"/>
      <use xlink:href="#DejaVuSans-65" transform="translate(132.080078 0)"/>
      <use xlink:href="#DejaVuSans-6e" transform="translate(193.603516 0)"/>
      <use xlink:href="#DejaVuSans-73" transform="translate(256.982422 0)"/>
      <use xlink:href="#DejaVuSans-69" transform="translate(309.082031 0)"/>
      <use xlink:href="#DejaVuSans-74" transform="translate(336.865234 0)"/>
      <use xlink:href="#DejaVuSans-79" transform="translate(376.074219 0)"/>
      <use xlink:href="#DejaVuSans-20" transform="translate(435.253906 0)"/>
      <use xlink:href="#DejaVuSans-28" transform="translate(467.041016 0)"/>
      <use xlink:href="#DejaVuSans-61" transform="translate(506.054688 0)"/>
      <use xlink:href="#DejaVuSans-2e" transform="translate(567.333984 0)"/>
      <use xlink:href="#DejaVuSans-75" transform="translate(599.121094 0)"/>
      <use xlink:href="#DejaVuSans-2e" transform="translate(662.5 0)"/>
      <use xlink:href="#DejaVuSans-29" transform="translate(694.287109 0)"/>
     </g>
    </g>
   </g>
   <g id="line2d_17">
    <path d="M 92.990955 156.346011 
L 93.742351 136.12519 
L 94.493748 119.601879 
L 95.245145 106.906017 
L 95.996542 98.167543 
L 96.747938 93.516398 
L 97.499335 92.934325 
L 98.250732 95.131936 
L 99.002129 98.173615 
L 99.753526 100.390205 
L 100.504922 100.848693 
L 101.256319 98.83179 
L 102.007716 95.657846 
L 102.759113 94.634799 
L 103.510509 98.491288 
L 104.261906 106.216639 
L 105.7647 123.678297 
L 106.516097 127.615587 
L 107.267493 124.527005 
L 108.01889 117.6197 
L 108.770287 114.237663 
L 109.521684 119.222492 
L 110.27308 127.605427 
L 111.024477 132.221679 
L 111.775874 131.152801 
L 112.527271 129.390601 
L 113.278668 131.762222 
L 114.030064 137.944882 
L 114.781461 145.121357 
L 115.532858 151.172845 
L 116.284255 155.822825 
L 117.035651 159.084453 
L 117.787048 160.907986 
L 118.538445 161.184958 
L 119.289842 159.895129 
L 120.041239 157.502422 
L 121.544032 152.105529 
L 122.295429 151.067759 
L 123.046826 152.52286 
L 123.798222 155.267089 
L 124.549619 156.639959 
L 125.301016 155.079997 
L 126.052413 153.0762 
L 126.80381 153.94296 
L 127.555206 157.882572 
L 128.306603 161.183031 
L 129.058 160.430208 
L 131.31219 148.564815 
L 132.063587 147.130907 
L 132.814984 147.476124 
L 133.566381 148.338535 
L 134.317777 147.317996 
L 135.069174 142.452934 
L 135.820571 134.209137 
L 137.323364 113.80491 
L 138.074761 108.669434 
L 138.826158 112.518202 
L 139.577555 121.92403 
L 140.328952 128.723531 
L 141.080348 127.492261 
L 141.831745 122.418697 
L 142.583142 119.628426 
L 143.334539 121.487472 
L 144.837332 130.284848 
L 145.588729 132.376836 
L 146.340126 129.698381 
L 147.842919 113.836245 
L 148.594316 110.473703 
L 149.345713 112.663158 
L 150.848506 122.187363 
L 151.599903 125.161411 
L 152.3513 125.216103 
L 153.854093 119.771784 
L 154.60549 119.263187 
L 155.356887 120.415641 
L 156.108284 120.73969 
L 156.859681 118.71243 
L 157.611077 116.028759 
L 158.362474 114.967069 
L 159.113871 115.779386 
L 159.865268 116.392893 
L 160.616664 115.090904 
L 161.368061 113.464834 
L 162.119458 114.480146 
L 163.622252 124.072752 
L 164.373648 125.609395 
L 165.125045 124.686039 
L 165.876442 125.990709 
L 167.379235 139.02831 
L 168.130632 138.043651 
L 169.633426 117.218585 
L 170.384823 113.13424 
L 171.136219 114.487439 
L 171.887616 114.613262 
L 172.639013 109.285809 
L 173.39041 101.984937 
L 174.141806 97.566576 
L 174.893203 98.079073 
L 175.6446 102.493982 
L 177.147394 115.261602 
L 177.89879 116.194445 
L 178.650187 110.693814 
L 179.401584 102.888542 
L 180.152981 97.42843 
L 180.904377 96.123798 
L 181.655774 98.578859 
L 182.407171 103.746058 
L 183.158568 108.007259 
L 183.909965 107.126661 
L 185.412758 95.596403 
L 186.164155 96.723351 
L 186.915552 103.643931 
L 187.666948 112.066255 
L 188.418345 118.678798 
L 189.169742 123.144575 
L 189.921139 125.67577 
L 190.672536 126.6845 
L 191.423932 126.79217 
L 192.175329 126.547721 
L 192.926726 125.995907 
L 193.678123 124.991166 
L 194.429519 123.448842 
L 195.180916 121.407649 
L 197.435107 113.943863 
L 198.186503 112.211951 
L 198.9379 111.199051 
L 199.689297 110.925324 
L 200.440694 111.478976 
L 201.19209 113.044294 
L 203.446281 120.64454 
L 204.197678 120.833083 
L 204.949074 119.768255 
L 205.700471 118.23431 
L 206.451868 117.516528 
L 207.203265 119.401218 
L 208.706058 131.236113 
L 209.457455 133.65885 
L 210.208852 130.035165 
L 210.960249 122.522797 
L 212.463042 106.152828 
L 213.214439 101.960745 
L 213.965836 102.718713 
L 214.717232 107.185567 
L 216.220026 118.86417 
L 216.971423 120.034764 
L 217.72282 114.203396 
L 218.474216 105.16243 
L 219.225613 99.940752 
L 219.97701 102.598215 
L 220.728407 109.285632 
L 221.479803 114.973978 
L 222.2312 117.004743 
L 222.982597 114.983874 
L 224.485391 103.544964 
L 225.236787 102.834132 
L 226.739581 114.537202 
L 227.490978 115.671146 
L 228.242374 111.938328 
L 228.993771 107.565115 
L 229.745168 105.820761 
L 230.496565 106.155875 
L 231.247962 107.15168 
L 231.999358 107.875863 
L 232.750755 108.022243 
L 233.502152 107.371154 
L 234.253549 106.058883 
L 235.756342 102.574875 
L 238.010533 96.744543 
L 238.761929 97.030839 
L 239.513326 100.236717 
L 240.264723 104.929334 
L 241.01612 108.906116 
L 241.767516 111.015413 
L 242.518913 111.939079 
L 243.27031 112.463283 
L 244.021707 112.445196 
L 244.773104 111.14268 
L 245.5245 108.408698 
L 246.275897 106.218739 
L 247.027294 106.941423 
L 248.530087 113.62876 
L 249.281484 113.46341 
L 250.032881 109.811689 
L 251.535675 97.422108 
L 252.287071 94.947119 
L 253.038468 100.568031 
L 254.541262 122.70122 
L 255.292658 126.020035 
L 256.044055 125.333574 
L 256.795452 126.40493 
L 257.546849 130.373926 
L 258.298246 130.689155 
L 259.049642 121.067586 
L 259.801039 106.089378 
L 260.552436 97.020758 
L 261.303833 101.017228 
L 262.055229 111.222212 
L 262.806626 118.061202 
L 263.558023 118.04736 
L 265.060817 112.04592 
L 266.56361 107.744796 
L 267.315007 105.290725 
L 268.066404 105.27531 
L 268.8178 110.326476 
L 269.569197 117.383694 
L 270.320594 118.650825 
L 271.071991 109.169191 
L 271.823388 97.950879 
L 272.574784 97.941963 
L 274.077578 128.22013 
L 274.828975 133.19278 
L 275.580371 126.96253 
L 276.331768 116.725935 
L 277.083165 108.561054 
L 277.834562 104.71332 
L 278.585958 106.574684 
L 280.088752 118.668384 
L 280.840149 120.389171 
L 281.591546 118.832417 
L 282.342942 116.919144 
L 283.094339 116.100488 
L 283.845736 114.630451 
L 284.597133 110.524292 
L 285.348529 104.617064 
L 286.099926 99.985708 
L 286.851323 99.111689 
L 287.60272 101.554678 
L 288.354117 106.06254 
L 289.85691 116.141812 
L 290.608307 119.221232 
L 291.359704 120.639224 
L 292.1111 121.120965 
L 292.862497 121.013947 
L 293.613894 119.509231 
L 294.365291 115.622617 
L 295.116688 109.436587 
L 297.370878 88.279747 
L 298.122275 82.098584 
L 298.873671 77.111942 
L 299.625068 75.173632 
L 300.376465 77.989812 
L 301.127862 82.936319 
L 301.879259 84.101362 
L 302.630655 77.430576 
L 303.382052 67.046429 
L 304.133449 59.16395 
L 304.884846 56.892317 
L 305.636242 58.852284 
L 306.387639 63.538544 
L 307.139036 71.486463 
L 307.890433 84.318273 
L 308.64183 101.412722 
L 309.393226 115.720714 
L 310.144623 119.403308 
L 310.89602 112.979884 
L 311.647417 105.521617 
L 312.398813 104.972846 
L 313.15021 110.25448 
L 313.901607 116.972545 
L 316.155797 133.688475 
L 316.907194 141.844093 
L 317.658591 153.358658 
L 317.658591 153.358658 
" clip-path="url(#p4489b310c4)" style="fill: none; stroke: #8b1c0f; stroke-width: 2; stroke-linecap: square"/>
   </g>
   <g id="line2d_18">
    <path d="M 92.990955 172.178982 
L 93.742351 156.308949 
L 94.493748 145.833258 
L 95.245145 139.001143 
L 96.747938 129.264583 
L 97.499335 123.004605 
L 99.002129 109.541777 
L 99.753526 106.038958 
L 100.504922 104.975932 
L 101.256319 105.463832 
L 102.007716 107.167657 
L 102.759113 110.904767 
L 103.510509 117.575008 
L 105.013303 137.314324 
L 106.516097 157.362461 
L 108.01889 174.91244 
L 108.770287 180.642543 
L 109.521684 182.034977 
L 110.27308 178.967655 
L 111.024477 173.188295 
L 112.527271 160.064319 
L 113.278668 154.878105 
L 114.030064 151.505162 
L 114.781461 149.365459 
L 116.284255 146.034767 
L 117.035651 144.89366 
L 117.787048 144.60941 
L 118.538445 145.138429 
L 119.289842 146.16783 
L 120.041239 147.607555 
L 120.792635 150.326121 
L 121.544032 155.426066 
L 122.295429 162.396493 
L 123.046826 167.903653 
L 123.798222 168.592665 
L 125.301016 161.368003 
L 126.052413 160.508099 
L 126.80381 162.13907 
L 127.555206 164.616248 
L 128.306603 166.615643 
L 129.058 167.516426 
L 129.809397 166.819174 
L 130.560793 164.638942 
L 132.063587 158.558895 
L 132.814984 154.981479 
L 133.566381 150.294168 
L 136.571968 126.464963 
L 137.323364 123.737148 
L 138.074761 123.756564 
L 138.826158 124.808963 
L 139.577555 123.962457 
L 140.328952 119.361953 
L 141.831745 107.501885 
L 142.583142 104.729507 
L 143.334539 104.843768 
L 144.085935 107.854414 
L 146.340126 123.243403 
L 147.091522 125.606339 
L 147.842919 124.131485 
L 148.594316 119.646131 
L 149.345713 117.194741 
L 150.09711 121.851146 
L 150.848506 131.729921 
L 151.599903 139.24847 
L 152.3513 138.167238 
L 153.854093 122.728258 
L 154.60549 117.651913 
L 155.356887 115.949515 
L 156.108284 117.407307 
L 157.611077 124.45292 
L 158.362474 126.280169 
L 159.113871 126.978729 
L 159.865268 128.167072 
L 162.119458 135.750245 
L 162.870855 136.028301 
L 163.622252 134.811381 
L 164.373648 132.491515 
L 165.125045 130.740012 
L 165.876442 131.941687 
L 166.627839 136.994533 
L 167.379235 141.283491 
L 168.130632 139.000074 
L 168.882029 128.9831 
L 169.633426 117.274705 
L 170.384823 110.160542 
L 171.136219 109.095377 
L 171.887616 112.184831 
L 172.639013 117.264281 
L 173.39041 121.213973 
L 174.141806 120.658196 
L 175.6446 109.880511 
L 176.395997 110.400536 
L 177.147394 116.940294 
L 177.89879 125.175078 
L 178.650187 130.979785 
L 179.401584 132.323074 
L 180.152981 127.960419 
L 181.655774 110.205518 
L 182.407171 108.720331 
L 183.909965 118.748443 
L 184.661361 116.840586 
L 185.412758 111.239085 
L 186.164155 109.31473 
L 186.915552 115.444061 
L 187.666948 124.76767 
L 188.418345 130.780681 
L 189.169742 131.524238 
L 189.921139 131.001205 
L 190.672536 133.14605 
L 191.423932 137.060751 
L 192.175329 139.017097 
L 192.926726 136.603991 
L 193.678123 132.67764 
L 194.429519 131.33161 
L 195.932313 135.638403 
L 196.68371 133.440559 
L 197.435107 128.52783 
L 198.186503 126.372838 
L 198.9379 130.903531 
L 199.689297 137.928106 
L 200.440694 140.767361 
L 201.943487 132.642918 
L 202.694884 134.582942 
L 204.197678 150.004152 
L 204.949074 151.287407 
L 206.451868 144.289095 
L 207.203265 143.088451 
L 207.954661 142.950817 
L 208.706058 141.921553 
L 209.457455 140.085284 
L 210.208852 139.793505 
L 210.960249 143.03184 
L 211.711645 147.785731 
L 212.463042 150.068998 
L 213.214439 147.540395 
L 213.965836 143.209661 
L 214.717232 141.107013 
L 215.468629 142.759012 
L 216.971423 149.550601 
L 218.474216 154.532012 
L 219.225613 156.554295 
L 219.97701 155.863251 
L 220.728407 149.556453 
L 221.479803 138.605566 
L 222.2312 130.597188 
L 222.982597 133.090068 
L 223.733994 143.690422 
L 224.485391 152.415307 
L 225.236787 151.266126 
L 226.739581 136.73416 
L 227.490978 135.016066 
L 228.242374 137.476318 
L 230.496565 151.775177 
L 231.247962 152.714098 
L 231.999358 151.948748 
L 232.750755 152.013005 
L 233.502152 154.433429 
L 235.004945 161.182292 
L 237.259136 167.772202 
L 238.010533 170.343575 
L 238.761929 172.251606 
L 239.513326 172.766115 
L 240.264723 171.455546 
L 241.01612 167.973969 
L 241.767516 163.079158 
L 242.518913 159.120897 
L 243.27031 158.396935 
L 244.021707 161.159182 
L 244.773104 166.339658 
L 246.275897 179.179095 
L 247.027294 184.067401 
L 247.778691 186.142598 
L 248.530087 184.25138 
L 249.281484 177.498369 
L 250.032881 168.800618 
L 250.784278 164.123305 
L 251.535675 168.047541 
L 253.038468 184.641378 
L 253.789865 186.741573 
L 254.541262 183.943509 
L 256.044055 170.544607 
L 256.795452 167.016182 
L 257.546849 170.445979 
L 258.298246 177.889102 
L 259.049642 183.633322 
L 259.801039 184.057243 
L 261.303833 179.225646 
L 262.055229 179.112514 
L 262.806626 181.137802 
L 264.30942 189.213398 
L 265.060817 191.310896 
L 265.812213 189.873947 
L 266.56361 186.642447 
L 267.315007 184.048807 
L 268.066404 183.097548 
L 268.8178 182.632526 
L 270.320594 180.28565 
L 271.071991 181.030529 
L 272.574784 189.236208 
L 273.326181 190.565029 
L 274.077578 187.426195 
L 274.828975 182.470467 
L 275.580371 178.685359 
L 276.331768 177.113507 
L 277.083165 177.167348 
L 277.834562 178.259545 
L 278.585958 180.099421 
L 280.088752 184.710792 
L 280.840149 184.62119 
L 281.591546 180.089566 
L 282.342942 172.785551 
L 283.094339 168.32883 
L 283.845736 171.651439 
L 284.597133 181.100971 
L 285.348529 192.014379 
L 286.099926 200.620593 
L 286.851323 205.852221 
L 287.60272 207.172542 
L 288.354117 205.152986 
L 289.105513 201.784193 
L 289.85691 199.031595 
L 290.608307 197.690644 
L 291.359704 197.888078 
L 292.1111 199.546036 
L 293.613894 203.781538 
L 294.365291 204.918178 
L 295.868084 206.431632 
L 296.619481 206.688176 
L 297.370878 205.218698 
L 298.873671 197.146712 
L 299.625068 195.440055 
L 300.376465 197.15423 
L 301.127862 199.38443 
L 301.879259 198.948198 
L 303.382052 192.76116 
L 304.133449 192.087425 
L 304.884846 192.877924 
L 305.636242 192.970096 
L 307.139036 189.654088 
L 307.890433 190.053436 
L 308.64183 192.403657 
L 309.393226 194.217588 
L 310.144623 193.234253 
L 312.398813 183.668949 
L 313.15021 183.015104 
L 313.901607 184.878088 
L 316.155797 196.600781 
L 316.907194 196.790386 
L 317.658591 192.194246 
L 317.658591 192.194246 
" clip-path="url(#p4489b310c4)" style="fill: none; stroke: #1d0cfd; stroke-width: 2; stroke-linecap: square"/>
   </g>
   <g id="line2d_19">
    <path d="M 92.990955 135.135805 
L 93.742351 130.806293 
L 94.493748 129.834302 
L 95.245145 130.747942 
L 95.996542 132.07532 
L 96.747938 132.344546 
L 97.499335 130.274543 
L 98.250732 127.301504 
L 99.002129 126.885024 
L 99.753526 131.676601 
L 102.007716 155.348655 
L 102.759113 159.5484 
L 103.510509 160.871918 
L 104.261906 160.310624 
L 105.013303 160.081694 
L 105.7647 162.097911 
L 108.01889 174.13495 
L 108.770287 175.973166 
L 109.521684 174.832775 
L 111.024477 168.13346 
L 111.775874 167.568795 
L 112.527271 169.258305 
L 113.278668 171.396332 
L 114.030064 172.835114 
L 114.781461 174.642557 
L 115.532858 178.309066 
L 116.284255 183.646971 
L 117.035651 188.105212 
L 117.787048 189.177148 
L 118.538445 186.857467 
L 120.041239 178.388711 
L 120.792635 175.682362 
L 121.544032 176.429261 
L 123.046826 185.487811 
L 123.798222 187.649671 
L 124.549619 186.787061 
L 125.301016 184.641159 
L 126.052413 182.85542 
L 126.80381 182.23962 
L 127.555206 183.320921 
L 128.306603 186.086467 
L 129.058 189.343069 
L 129.809397 191.747261 
L 130.560793 192.080202 
L 131.31219 189.243353 
L 132.063587 182.491239 
L 133.566381 164.943972 
L 134.317777 158.905653 
L 135.069174 155.700547 
L 135.820571 155.32863 
L 136.571968 157.000532 
L 137.323364 158.985163 
L 138.074761 159.768163 
L 138.826158 160.292749 
L 139.577555 162.807103 
L 141.080348 174.381372 
L 141.831745 177.001341 
L 142.583142 175.585923 
L 143.334539 173.714166 
L 144.085935 174.915844 
L 144.837332 177.973983 
L 145.588729 178.534703 
L 146.340126 173.812439 
L 147.091522 168.260075 
L 147.842919 168.297022 
L 149.345713 182.048979 
L 150.09711 180.194631 
L 151.599903 160.976518 
L 152.3513 157.966174 
L 153.102697 159.305419 
L 153.854093 159.692259 
L 154.60549 156.275778 
L 155.356887 151.850635 
L 156.108284 149.859971 
L 156.859681 150.404171 
L 157.611077 150.201344 
L 158.362474 146.536582 
L 159.113871 141.964727 
L 159.865268 141.388341 
L 160.616664 147.263716 
L 161.368061 154.917111 
L 162.119458 158.508842 
L 162.870855 156.490997 
L 163.622252 152.683581 
L 164.373648 150.943386 
L 165.125045 152.226752 
L 165.876442 155.872249 
L 167.379235 165.200638 
L 168.130632 166.452683 
L 168.882029 164.160696 
L 169.633426 160.677959 
L 170.384823 158.462895 
L 171.136219 158.179737 
L 171.887616 159.248844 
L 172.639013 160.892682 
L 173.39041 161.52006 
L 174.141806 159.316479 
L 174.893203 154.336718 
L 175.6446 150.243654 
L 176.395997 150.860748 
L 177.89879 159.917454 
L 178.650187 160.298044 
L 179.401584 158.767063 
L 180.152981 159.495116 
L 180.904377 164.493486 
L 181.655774 170.538866 
L 182.407171 173.747239 
L 183.158568 173.197094 
L 183.909965 171.108721 
L 185.412758 168.186781 
L 186.164155 165.582453 
L 187.666948 157.015063 
L 188.418345 155.690647 
L 189.169742 156.672329 
L 189.921139 155.450355 
L 190.672536 148.019158 
L 191.423932 138.300672 
L 192.175329 134.859637 
L 192.926726 143.225762 
L 193.678123 156.883779 
L 194.429519 166.456945 
L 195.180916 167.333669 
L 195.932313 162.65345 
L 196.68371 156.20489 
L 197.435107 150.920706 
L 198.186503 149.11126 
L 198.9379 152.276742 
L 199.689297 157.961574 
L 200.440694 162.495234 
L 201.19209 163.820283 
L 201.943487 163.151945 
L 204.197678 159.860888 
L 204.949074 158.105916 
L 206.451868 153.245634 
L 208.706058 144.97728 
L 209.457455 143.207843 
L 210.208852 143.973051 
L 210.960249 148.476348 
L 211.711645 154.306349 
L 212.463042 157.270089 
L 213.214439 154.994725 
L 213.965836 151.019219 
L 214.717232 150.004483 
L 215.468629 153.602296 
L 216.971423 164.479034 
L 217.72282 167.347997 
L 218.474216 166.825217 
L 219.225613 162.589871 
L 219.97701 157.519227 
L 220.728407 155.282782 
L 221.479803 157.241507 
L 222.2312 160.814597 
L 222.982597 163.171583 
L 223.733994 163.484908 
L 224.485391 162.454302 
L 225.236787 160.715447 
L 225.988184 158.366092 
L 227.490978 152.161669 
L 228.242374 150.735776 
L 228.993771 152.967434 
L 229.745168 157.923162 
L 230.496565 161.985076 
L 231.247962 161.984067 
L 231.999358 158.483411 
L 233.502152 149.019442 
L 234.253549 145.459041 
L 235.004945 143.429923 
L 235.756342 143.91188 
L 236.507739 148.416737 
L 238.010533 168.513833 
L 238.761929 173.708212 
L 239.513326 169.578813 
L 240.264723 160.910197 
L 241.01612 154.265387 
L 241.767516 152.536923 
L 243.27031 154.022605 
L 244.021707 154.512316 
L 244.773104 156.266953 
L 245.5245 160.222354 
L 246.275897 164.860603 
L 247.027294 168.015109 
L 248.530087 170.028216 
L 249.281484 173.152389 
L 250.032881 177.555428 
L 250.784278 179.94897 
L 251.535675 177.66142 
L 252.287071 171.817523 
L 253.038468 164.849327 
L 253.789865 158.980418 
L 254.541262 155.964193 
L 255.292658 157.38083 
L 256.795452 167.562439 
L 257.546849 170.0317 
L 258.298246 169.841347 
L 259.049642 168.407689 
L 259.801039 166.700432 
L 260.552436 164.411437 
L 262.055229 157.34809 
L 262.806626 155.586269 
L 263.558023 157.827692 
L 264.30942 163.442924 
L 265.812213 176.227399 
L 266.56361 178.265675 
L 267.315007 173.541087 
L 268.066404 163.594594 
L 268.8178 156.699365 
L 269.569197 160.812757 
L 270.320594 173.010234 
L 271.071991 183.001406 
L 271.823388 182.996425 
L 272.574784 177.294344 
L 273.326181 173.615577 
L 274.077578 175.651211 
L 274.828975 179.504102 
L 275.580371 180.676938 
L 277.083165 176.760565 
L 277.834562 177.278987 
L 278.585958 179.835943 
L 279.337355 182.839325 
L 280.088752 184.941387 
L 280.840149 185.374598 
L 281.591546 183.521357 
L 282.342942 180.390294 
L 283.094339 178.674628 
L 283.845736 180.592373 
L 284.597133 184.177222 
L 285.348529 185.550405 
L 286.099926 182.419005 
L 286.851323 177.244131 
L 287.60272 173.314462 
L 288.354117 171.892676 
L 289.105513 171.64676 
L 289.85691 171.176531 
L 290.608307 170.088361 
L 292.1111 166.986826 
L 292.862497 166.480127 
L 293.613894 168.317132 
L 294.365291 172.17267 
L 295.116688 175.183522 
L 295.868084 174.560882 
L 296.619481 171.501703 
L 297.370878 170.032933 
L 298.122275 172.970047 
L 298.873671 176.979374 
L 299.625068 176.896165 
L 300.376465 170.786332 
L 301.127862 163.108672 
L 301.879259 158.866521 
L 302.630655 159.257068 
L 304.884846 167.906346 
L 305.636242 168.926766 
L 306.387639 168.263577 
L 307.139036 167.119523 
L 307.890433 166.883071 
L 308.64183 168.228363 
L 309.393226 171.053967 
L 310.89602 179.321976 
L 311.647417 182.183756 
L 312.398813 182.86141 
L 313.15021 182.58001 
L 313.901607 182.948728 
L 314.653004 184.737645 
L 315.404401 187.590008 
L 317.658591 198.168952 
L 317.658591 198.168952 
" clip-path="url(#p4489b310c4)" style="fill: none; stroke: #378ca8; stroke-width: 2; stroke-linecap: square"/>
   </g>
   <g id="patch_4">
    <path d="M 64.9075 234.017187 
L 64.9075 30.877187 
" style="fill: none; stroke: #000000; stroke-width: 2; stroke-linejoin: miter; stroke-linecap: square"/>
   </g>
   <g id="patch_5">
    <path d="M 64.9075 234.017187 
L 373.8255 234.017187 
" style="fill: none; stroke: #000000; stroke-width: 2; stroke-linejoin: miter; stroke-linecap: square"/>
   </g>
   <g id="text_10">
    <!-- bleached region -->
    <g transform="translate(211.097159 47.09748) scale(0.16 -0.16)">
     <defs>
      <path id="DejaVuSans-62" d="M 3116 1747 
Q 3116 2381 2855 2742 
Q 2594 3103 2138 3103 
Q 1681 3103 1420 2742 
Q 1159 2381 1159 1747 
Q 1159 1113 1420 752 
Q 1681 391 2138 391 
Q 2594 391 2855 752 
Q 3116 1113 3116 1747 
z
M 1159 2969 
Q 1341 3281 1617 3432 
Q 1894 3584 2278 3584 
Q 2916 3584 3314 3078 
Q 3713 2572 3713 1747 
Q 3713 922 3314 415 
Q 2916 -91 2278 -91 
Q 1894 -91 1617 61 
Q 1341 213 1159 525 
L 1159 0 
L 581 0 
L 581 4863 
L 1159 4863 
L 1159 2969 
z
" transform="scale(0.015625)"/>
      <path id="DejaVuSans-6c" d="M 603 4863 
L 1178 4863 
L 1178 0 
L 603 0 
L 603 4863 
z
" transform="scale(0.015625)"/>
      <path id="DejaVuSans-63" d="M 3122 3366 
L 3122 2828 
Q 2878 2963 2633 3030 
Q 2388 3097 2138 3097 
Q 1578 3097 1268 2742 
Q 959 2388 959 1747 
Q 959 1106 1268 751 
Q 1578 397 2138 397 
Q 2388 397 2633 464 
Q 2878 531 3122 666 
L 3122 134 
Q 2881 22 2623 -34 
Q 2366 -91 2075 -91 
Q 1284 -91 818 406 
Q 353 903 353 1747 
Q 353 2603 823 3093 
Q 1294 3584 2113 3584 
Q 2378 3584 2631 3529 
Q 2884 3475 3122 3366 
z
" transform="scale(0.015625)"/>
      <path id="DejaVuSans-64" d="M 2906 2969 
L 2906 4863 
L 3481 4863 
L 3481 0 
L 2906 0 
L 2906 525 
Q 2725 213 2448 61 
Q 2172 -91 1784 -91 
Q 1150 -91 751 415 
Q 353 922 353 1747 
Q 353 2572 751 3078 
Q 1150 3584 1784 3584 
Q 2172 3584 2448 3432 
Q 2725 3281 2906 2969 
z
M 947 1747 
Q 947 1113 1208 752 
Q 1469 391 1925 391 
Q 2381 391 2643 752 
Q 2906 1113 2906 1747 
Q 2906 2381 2643 2742 
Q 2381 3103 1925 3103 
Q 1469 3103 1208 2742 
Q 947 2381 947 1747 
z
" transform="scale(0.015625)"/>
      <path id="DejaVuSans-72" d="M 2631 2963 
Q 2534 3019 2420 3045 
Q 2306 3072 2169 3072 
Q 1681 3072 1420 2755 
Q 1159 2438 1159 1844 
L 1159 0 
L 581 0 
L 581 3500 
L 1159 3500 
L 1159 2956 
Q 1341 3275 1631 3429 
Q 1922 3584 2338 3584 
Q 2397 3584 2469 3576 
Q 2541 3569 2628 3553 
L 2631 2963 
z
" transform="scale(0.015625)"/>
      <path id="DejaVuSans-6f" d="M 1959 3097 
Q 1497 3097 1228 2736 
Q 959 2375 959 1747 
Q 959 1119 1226 758 
Q 1494 397 1959 397 
Q 2419 397 2687 759 
Q 2956 1122 2956 1747 
Q 2956 2369 2687 2733 
Q 2419 3097 1959 3097 
z
M 1959 3584 
Q 2709 3584 3137 3096 
Q 3566 2609 3566 1747 
Q 3566 888 3137 398 
Q 2709 -91 1959 -91 
Q 1206 -91 779 398 
Q 353 888 353 1747 
Q 353 2609 779 3096 
Q 1206 3584 1959 3584 
z
" transform="scale(0.015625)"/>
     </defs>
     <use xlink:href="#DejaVuSans-62"/>
     <use xlink:href="#DejaVuSans-6c" transform="translate(63.476562 0)"/>
     <use xlink:href="#DejaVuSans-65" transform="translate(91.259766 0)"/>
     <use xlink:href="#DejaVuSans-61" transform="translate(152.783203 0)"/>
     <use xlink:href="#DejaVuSans-63" transform="translate(214.0625 0)"/>
     <use xlink:href="#DejaVuSans-68" transform="translate(269.042969 0)"/>
     <use xlink:href="#DejaVuSans-65" transform="translate(332.421875 0)"/>
     <use xlink:href="#DejaVuSans-64" transform="translate(393.945312 0)"/>
     <use xlink:href="#DejaVuSans-20" transform="translate(457.421875 0)"/>
     <use xlink:href="#DejaVuSans-72" transform="translate(489.208984 0)"/>
     <use xlink:href="#DejaVuSans-65" transform="translate(528.072266 0)"/>
     <use xlink:href="#DejaVuSans-67" transform="translate(589.595703 0)"/>
     <use xlink:href="#DejaVuSans-69" transform="translate(653.072266 0)"/>
     <use xlink:href="#DejaVuSans-6f" transform="translate(680.855469 0)"/>
     <use xlink:href="#DejaVuSans-6e" transform="translate(742.037109 0)"/>
    </g>
   </g>
   <g id="text_11">
    <!-- membrane -->
    <g transform="translate(64.9075 20.877187) scale(0.18 -0.18)">
     <use xlink:href="#DejaVuSans-6d"/>
     <use xlink:href="#DejaVuSans-65" transform="translate(97.412109 0)"/>
     <use xlink:href="#DejaVuSans-6d" transform="translate(158.935547 0)"/>
     <use xlink:href="#DejaVuSans-62" transform="translate(256.347656 0)"/>
     <use xlink:href="#DejaVuSans-72" transform="translate(319.824219 0)"/>
     <use xlink:href="#DejaVuSans-61" transform="translate(360.9375 0)"/>
     <use xlink:href="#DejaVuSans-6e" transform="translate(422.216797 0)"/>
     <use xlink:href="#DejaVuSans-65" transform="translate(485.595703 0)"/>
    </g>
   </g>
   <g id="legend_1">
    <g id="line2d_20">
     <path d="M 389.00386 43.975625 
L 399.00386 43.975625 
L 409.00386 43.975625 
" style="fill: none; stroke: #8b1c0f; stroke-width: 2; stroke-linecap: square"/>
    </g>
    <g id="text_12">
     <!-- Pre-bleach -->
     <g transform="translate(417.00386 47.475625) scale(0.1 -0.1)">
      <defs>
       <path id="DejaVuSans-50" d="M 1259 4147 
L 1259 2394 
L 2053 2394 
Q 2494 2394 2734 2622 
Q 2975 2850 2975 3272 
Q 2975 3691 2734 3919 
Q 2494 4147 2053 4147 
L 1259 4147 
z
M 628 4666 
L 2053 4666 
Q 2838 4666 3239 4311 
Q 3641 3956 3641 3272 
Q 3641 2581 3239 2228 
Q 2838 1875 2053 1875 
L 1259 1875 
L 1259 0 
L 628 0 
L 628 4666 
z
" transform="scale(0.015625)"/>
       <path id="DejaVuSans-2d" d="M 313 2009 
L 1997 2009 
L 1997 1497 
L 313 1497 
L 313 2009 
z
" transform="scale(0.015625)"/>
      </defs>
      <use xlink:href="#DejaVuSans-50"/>
      <use xlink:href="#DejaVuSans-72" transform="translate(58.552734 0)"/>
      <use xlink:href="#DejaVuSans-65" transform="translate(97.416016 0)"/>
      <use xlink:href="#DejaVuSans-2d" transform="translate(158.939453 0)"/>
      <use xlink:href="#DejaVuSans-62" transform="translate(195.023438 0)"/>
      <use xlink:href="#DejaVuSans-6c" transform="translate(258.5 0)"/>
      <use xlink:href="#DejaVuSans-65" transform="translate(286.283203 0)"/>
      <use xlink:href="#DejaVuSans-61" transform="translate(347.806641 0)"/>
      <use xlink:href="#DejaVuSans-63" transform="translate(409.085938 0)"/>
      <use xlink:href="#DejaVuSans-68" transform="translate(464.066406 0)"/>
     </g>
    </g>
    <g id="line2d_21">
     <path d="M 389.00386 58.65375 
L 399.00386 58.65375 
L 409.00386 58.65375 
" style="fill: none; stroke: #1d0cfd; stroke-width: 2; stroke-linecap: square"/>
    </g>
    <g id="text_13">
     <!-- Post-bleach -->
     <g transform="translate(417.00386 62.15375) scale(0.1 -0.1)">
      <use xlink:href="#DejaVuSans-50"/>
      <use xlink:href="#DejaVuSans-6f" transform="translate(56.677734 0)"/>
      <use xlink:href="#DejaVuSans-73" transform="translate(117.859375 0)"/>
      <use xlink:href="#DejaVuSans-74" transform="translate(169.958984 0)"/>
      <use xlink:href="#DejaVuSans-2d" transform="translate(209.167969 0)"/>
      <use xlink:href="#DejaVuSans-62" transform="translate(245.251953 0)"/>
      <use xlink:href="#DejaVuSans-6c" transform="translate(308.728516 0)"/>
      <use xlink:href="#DejaVuSans-65" transform="translate(336.511719 0)"/>
      <use xlink:href="#DejaVuSans-61" transform="translate(398.035156 0)"/>
      <use xlink:href="#DejaVuSans-63" transform="translate(459.314453 0)"/>
      <use xlink:href="#DejaVuSans-68" transform="translate(514.294922 0)"/>
     </g>
    </g>
    <g id="line2d_22">
     <path d="M 389.00386 73.331875 
L 399.00386 73.331875 
L 409.00386 73.331875 
" style="fill: none; stroke: #378ca8; stroke-width: 2; stroke-linecap: square"/>
    </g>
    <g id="text_14">
     <!-- Post-recovery -->
     <g transform="translate(417.00386 76.831875) scale(0.1 -0.1)">
      <defs>
       <path id="DejaVuSans-76" d="M 191 3500 
L 800 3500 
L 1894 563 
L 2988 3500 
L 3597 3500 
L 2284 0 
L 1503 0 
L 191 3500 
z
" transform="scale(0.015625)"/>
      </defs>
      <use xlink:href="#DejaVuSans-50"/>
      <use xlink:href="#DejaVuSans-6f" transform="translate(56.677734 0)"/>
      <use xlink:href="#DejaVuSans-73" transform="translate(117.859375 0)"/>
      <use xlink:href="#DejaVuSans-74" transform="translate(169.958984 0)"/>
      <use xlink:href="#DejaVuSans-2d" transform="translate(209.167969 0)"/>
      <use xlink:href="#DejaVuSans-72" transform="translate(245.251953 0)"/>
      <use xlink:href="#DejaVuSans-65" transform="translate(284.115234 0)"/>
      <use xlink:href="#DejaVuSans-63" transform="translate(345.638672 0)"/>
      <use xlink:href="#DejaVuSans-6f" transform="translate(400.619141 0)"/>
      <use xlink:href="#DejaVuSans-76" transform="translate(461.800781 0)"/>
      <use xlink:href="#DejaVuSans-65" transform="translate(520.980469 0)"/>
      <use xlink:href="#DejaVuSans-72" transform="translate(582.503906 0)"/>
      <use xlink:href="#DejaVuSans-79" transform="translate(623.617188 0)"/>
     </g>
    </g>
   </g>
  </g>
 </g>
 <defs>
  <clipPath id="p4489b310c4">
   <rect x="64.9075" y="30.877187" width="308.918" height="203.14"/>
  </clipPath>
 </defs>
</svg>
