<?xml version="1.0" encoding="utf-8" standalone="no"?>
<!DOCTYPE svg PUBLIC "-//W3C//DTD SVG 1.1//EN"
  "http://www.w3.org/Graphics/SVG/1.1/DTD/svg11.dtd">
<svg xmlns:xlink="http://www.w3.org/1999/xlink" width="496.39621pt" height="281.751562pt" viewBox="0 0 496.39621 281.751562" xmlns="http://www.w3.org/2000/svg" version="1.1">
 <metadata>
  <rdf:RDF xmlns:dc="http://purl.org/dc/elements/1.1/" xmlns:cc="http://creativecommons.org/ns#" xmlns:rdf="http://www.w3.org/1999/02/22-rdf-syntax-ns#">
   <cc:Work>
    <dc:type rdf:resource="http://purl.org/dc/dcmitype/StillImage"/>
    <dc:date>2026-01-08T15:54:04.011226</dc:date>
    <dc:format>image/svg+xml</dc:format>
    <dc:creator>
     <cc:Agent>
      <dc:title>Matplotlib v3.10.8, https://matplotlib.org/</dc:title>
     </cc:Agent>
    </dc:creator>
   </cc:Work>
  </rdf:RDF>
 </metadata>
 <defs>
  <style type="text/css">*{stroke-linejoin: round; stroke-linecap: butt}</style>
 </defs>
 <g id="figure_1">
  <g id="patch_1">
   <path d="M 0 281.751562 
L 496.39621 281.751562 
L 496.39621 0 
L 0 0 
z
" style="fill: #ffffff"/>
  </g>
  <g id="axes_1">
   <g id="patch_2">
    <path d="M 73.815 234.017187 
L 373.913 234.017187 
L 373.913 30.877187 
L 73.815 30.877187 
z
" style="fill: #ffffff"/>
   </g>
   <g id="patch_3">
    <path d="M 182.941545 234.017187 
L 373.913 234.017187 
L 373.913 30.877187 
L 182.941545 30.877187 
z
" clip-path="url(#p6e41615616)" style="fill: #84888f; opacity: 0.2"/>
   </g>
   <g id="matplotlib.axis_1">
    <g id="xtick_1">
     <g id="line2d_1">
      <defs>
       <path id="m54e7d2d516" d="M 0 0 
L 0 4 
" style="stroke: #000000; stroke-width: 2"/>
      </defs>
      <g>
       <use xlink:href="#m54e7d2d516" x="73.815" y="234.017187" style="stroke: #000000; stroke-width: 2"/>
      </g>
     </g>
    </g>
    <g id="xtick_2">
     <g id="line2d_2">
      <g>
       <use xlink:href="#m54e7d2d516" x="101.096636" y="234.017187" style="stroke: #000000; stroke-width: 2"/>
      </g>
     </g>
     <g id="text_1">
      <!-- 0 -->
      <g transform="translate(96.642886 252.155) scale(0.14 -0.14)">
       <defs>
        <path id="DejaVuSans-30" d="M 2034 4250 
Q 1547 4250 1301 3770 
Q 1056 3291 1056 2328 
Q 1056 1369 1301 889 
Q 1547 409 2034 409 
Q 2525 409 2770 889 
Q 3016 1369 3016 2328 
Q 3016 3291 2770 3770 
Q 2525 4250 2034 4250 
z
M 2034 4750 
Q 2819 4750 3233 4129 
Q 3647 3509 3647 2328 
Q 3647 1150 3233 529 
Q 2819 -91 2034 -91 
Q 1250 -91 836 529 
Q 422 1150 422 2328 
Q 422 3509 836 4129 
Q 1250 4750 2034 4750 
z
" transform="scale(0.015625)"/>
       </defs>
       <use xlink:href="#DejaVuSans-30"/>
      </g>
     </g>
    </g>
    <g id="xtick_3">
     <g id="line2d_3">
      <g>
       <use xlink:href="#m54e7d2d516" x="128.378273" y="234.017187" style="stroke: #000000; stroke-width: 2"/>
      </g>
     </g>
    </g>
    <g id="xtick_4">
     <g id="line2d_4">
      <g>
       <use xlink:href="#m54e7d2d516" x="155.659909" y="234.017187" style="stroke: #000000; stroke-width: 2"/>
      </g>
     </g>
    </g>
    <g id="xtick_5">
     <g id="line2d_5">
      <g>
       <use xlink:href="#m54e7d2d516" x="182.941545" y="234.017187" style="stroke: #000000; stroke-width: 2"/>
      </g>
     </g>
    </g>
    <g id="xtick_6">
     <g id="line2d_6">
      <g>
       <use xlink:href="#m54e7d2d516" x="210.223182" y="234.017187" style="stroke: #000000; stroke-width: 2"/>
      </g>
     </g>
    </g>
    <g id="xtick_7">
     <g id="line2d_7">
      <g>
       <use xlink:href="#m54e7d2d516" x="237.504818" y="234.017187" style="stroke: #000000; stroke-width: 2"/>
      </g>
     </g>
     <g id="text_2">
      <!-- 5 -->
      <g transform="translate(233.051068 252.155) scale(0.14 -0.14)">
       <defs>
        <path id="DejaVuSans-35" d="M 691 4666 
L 3169 4666 
L 3169 4134 
L 1269 4134 
L 1269 2991 
Q 1406 3038 1543 3061 
Q 1681 3084 1819 3084 
Q 2600 3084 3056 2656 
Q 3513 2228 3513 1497 
Q 3513 744 3044 326 
Q 2575 -91 1722 -91 
Q 1428 -91 1123 -41 
Q 819 9 494 109 
L 494 744 
Q 775 591 1075 516 
Q 1375 441 1709 441 
Q 2250 441 2565 725 
Q 2881 1009 2881 1497 
Q 2881 1984 2565 2268 
Q 2250 2553 1709 2553 
Q 1456 2553 1204 2497 
Q 953 2441 691 2322 
L 691 4666 
z
" transform="scale(0.015625)"/>
       </defs>
       <use xlink:href="#DejaVuSans-35"/>
      </g>
     </g>
    </g>
    <g id="xtick_8">
     <g id="line2d_8">
      <g>
       <use xlink:href="#m54e7d2d516" x="264.786455" y="234.017187" style="stroke: #000000; stroke-width: 2"/>
      </g>
     </g>
    </g>
    <g id="xtick_9">
     <g id="line2d_9">
      <g>
       <use xlink:href="#m54e7d2d516" x="292.068091" y="234.017187" style="stroke: #000000; stroke-width: 2"/>
      </g>
     </g>
    </g>
    <g id="xtick_10">
     <g id="line2d_10">
      <g>
       <use xlink:href="#m54e7d2d516" x="319.349727" y="234.017187" style="stroke: #000000; stroke-width: 2"/>
      </g>
     </g>
    </g>
    <g id="xtick_11">
     <g id="line2d_11">
      <g>
       <use xlink:href="#m54e7d2d516" x="346.631364" y="234.017187" style="stroke: #000000; stroke-width: 2"/>
      </g>
     </g>
    </g>
    <g id="xtick_12">
     <g id="line2d_12">
      <g>
       <use xlink:href="#m54e7d2d516" x="373.913" y="234.017187" style="stroke: #000000; stroke-width: 2"/>
      </g>
     </g>
     <g id="text_3">
      <!-- 10 -->
      <g transform="translate(365.0055 252.155) scale(0.14 -0.14)">
       <defs>
        <path id="DejaVuSans-31" d="M 794 531 
L 1825 531 
L 1825 4091 
L 703 3866 
L 703 4441 
L 1819 4666 
L 2450 4666 
L 2450 531 
L 3481 531 
L 3481 0 
L 794 0 
L 794 531 
z
" transform="scale(0.015625)"/>
       </defs>
       <use xlink:href="#DejaVuSans-31"/>
       <use xlink:href="#DejaVuSans-30" transform="translate(63.623047 0)"/>
      </g>
     </g>
    </g>
    <g id="text_4">
     <!-- Length (μm) -->
     <g transform="translate(174.6015 271.224063) scale(0.16 -0.16)">
      <defs>
       <path id="DejaVuSans-4c" d="M 628 4666 
L 1259 4666 
L 1259 531 
L 3531 531 
L 3531 0 
L 628 0 
L 628 4666 
z
" transform="scale(0.015625)"/>
       <path id="DejaVuSans-65" d="M 3597 1894 
L 3597 1613 
L 953 1613 
Q 991 1019 1311 708 
Q 1631 397 2203 397 
Q 2534 397 2845 478 
Q 3156 559 3463 722 
L 3463 178 
Q 3153 47 2828 -22 
Q 2503 -91 2169 -91 
Q 1331 -91 842 396 
Q 353 884 353 1716 
Q 353 2575 817 3079 
Q 1281 3584 2069 3584 
Q 2775 3584 3186 3129 
Q 3597 2675 3597 1894 
z
M 3022 2063 
Q 3016 2534 2758 2815 
Q 2500 3097 2075 3097 
Q 1594 3097 1305 2825 
Q 1016 2553 972 2059 
L 3022 2063 
z
" transform="scale(0.015625)"/>
       <path id="DejaVuSans-6e" d="M 3513 2113 
L 3513 0 
L 2938 0 
L 2938 2094 
Q 2938 2591 2744 2837 
Q 2550 3084 2163 3084 
Q 1697 3084 1428 2787 
Q 1159 2491 1159 1978 
L 1159 0 
L 581 0 
L 581 3500 
L 1159 3500 
L 1159 2956 
Q 1366 3272 1645 3428 
Q 1925 3584 2291 3584 
Q 2894 3584 3203 3211 
Q 3513 2838 3513 2113 
z
" transform="scale(0.015625)"/>
       <path id="DejaVuSans-67" d="M 2906 1791 
Q 2906 2416 2648 2759 
Q 2391 3103 1925 3103 
Q 1463 3103 1205 2759 
Q 947 2416 947 1791 
Q 947 1169 1205 825 
Q 1463 481 1925 481 
Q 2391 481 2648 825 
Q 2906 1169 2906 1791 
z
M 3481 434 
Q 3481 -459 3084 -895 
Q 2688 -1331 1869 -1331 
Q 1566 -1331 1297 -1286 
Q 1028 -1241 775 -1147 
L 775 -588 
Q 1028 -725 1275 -790 
Q 1522 -856 1778 -856 
Q 2344 -856 2625 -561 
Q 2906 -266 2906 331 
L 2906 616 
Q 2728 306 2450 153 
Q 2172 0 1784 0 
Q 1141 0 747 490 
Q 353 981 353 1791 
Q 353 2603 747 3093 
Q 1141 3584 1784 3584 
Q 2172 3584 2450 3431 
Q 2728 3278 2906 2969 
L 2906 3500 
L 3481 3500 
L 3481 434 
z
" transform="scale(0.015625)"/>
       <path id="DejaVuSans-74" d="M 1172 4494 
L 1172 3500 
L 2356 3500 
L 2356 3053 
L 1172 3053 
L 1172 1153 
Q 1172 725 1289 603 
Q 1406 481 1766 481 
L 2356 481 
L 2356 0 
L 1766 0 
Q 1100 0 847 248 
Q 594 497 594 1153 
L 594 3053 
L 172 3053 
L 172 3500 
L 594 3500 
L 594 4494 
L 1172 4494 
z
" transform="scale(0.015625)"/>
       <path id="DejaVuSans-68" d="M 3513 2113 
L 3513 0 
L 2938 0 
L 2938 2094 
Q 2938 2591 2744 2837 
Q 2550 3084 2163 3084 
Q 1697 3084 1428 2787 
Q 1159 2491 1159 1978 
L 1159 0 
L 581 0 
L 581 4863 
L 1159 4863 
L 1159 2956 
Q 1366 3272 1645 3428 
Q 1925 3584 2291 3584 
Q 2894 3584 3203 3211 
Q 3513 2838 3513 2113 
z
" transform="scale(0.015625)"/>
       <path id="DejaVuSans-20" transform="scale(0.015625)"/>
       <path id="DejaVuSans-28" d="M 1984 4856 
Q 1566 4138 1362 3434 
Q 1159 2731 1159 2009 
Q 1159 1288 1364 580 
Q 1569 -128 1984 -844 
L 1484 -844 
Q 1016 -109 783 600 
Q 550 1309 550 2009 
Q 550 2706 781 3412 
Q 1013 4119 1484 4856 
L 1984 4856 
z
" transform="scale(0.015625)"/>
       <path id="DejaVuSans-3bc" d="M 544 -1331 
L 544 3500 
L 1119 3500 
L 1119 1325 
Q 1119 872 1334 640 
Q 1550 409 1972 409 
Q 2434 409 2667 671 
Q 2900 934 2900 1459 
L 2900 3500 
L 3475 3500 
L 3475 806 
Q 3475 619 3529 530 
Q 3584 441 3700 441 
Q 3728 441 3778 458 
Q 3828 475 3916 513 
L 3916 50 
Q 3788 -22 3673 -56 
Q 3559 -91 3450 -91 
Q 3234 -91 3106 31 
Q 2978 153 2931 403 
Q 2775 156 2548 32 
Q 2322 -91 2016 -91 
Q 1697 -91 1473 31 
Q 1250 153 1119 397 
L 1119 -1331 
L 544 -1331 
z
" transform="scale(0.015625)"/>
       <path id="DejaVuSans-6d" d="M 3328 2828 
Q 3544 3216 3844 3400 
Q 4144 3584 4550 3584 
Q 5097 3584 5394 3201 
Q 5691 2819 5691 2113 
L 5691 0 
L 5113 0 
L 5113 2094 
Q 5113 2597 4934 2840 
Q 4756 3084 4391 3084 
Q 3944 3084 3684 2787 
Q 3425 2491 3425 1978 
L 3425 0 
L 2847 0 
L 2847 2094 
Q 2847 2600 2669 2842 
Q 2491 3084 2119 3084 
Q 1678 3084 1418 2786 
Q 1159 2488 1159 1978 
L 1159 0 
L 581 0 
L 581 3500 
L 1159 3500 
L 1159 2956 
Q 1356 3278 1631 3431 
Q 1906 3584 2284 3584 
Q 2666 3584 2933 3390 
Q 3200 3197 3328 2828 
z
" transform="scale(0.015625)"/>
       <path id="DejaVuSans-29" d="M 513 4856 
L 1013 4856 
Q 1481 4119 1714 3412 
Q 1947 2706 1947 2009 
Q 1947 1309 1714 600 
Q 1481 -109 1013 -844 
L 513 -844 
Q 928 -128 1133 580 
Q 1338 1288 1338 2009 
Q 1338 2731 1133 3434 
Q 928 4138 513 4856 
z
" transform="scale(0.015625)"/>
      </defs>
      <use xlink:href="#DejaVuSans-4c"/>
      <use xlink:href="#DejaVuSans-65" transform="translate(53.962891 0)"/>
      <use xlink:href="#DejaVuSans-6e" transform="translate(115.486328 0)"/>
      <use xlink:href="#DejaVuSans-67" transform="translate(178.865234 0)"/>
      <use xlink:href="#DejaVuSans-74" transform="translate(242.341797 0)"/>
      <use xlink:href="#DejaVuSans-68" transform="translate(281.550781 0)"/>
      <use xlink:href="#DejaVuSans-20" transform="translate(344.929688 0)"/>
      <use xlink:href="#DejaVuSans-28" transform="translate(376.716797 0)"/>
      <use xlink:href="#DejaVuSans-3bc" transform="translate(415.730469 0)"/>
      <use xlink:href="#DejaVuSans-6d" transform="translate(479.353516 0)"/>
      <use xlink:href="#DejaVuSans-29" transform="translate(576.765625 0)"/>
     </g>
    </g>
   </g>
   <g id="matplotlib.axis_2">
    <g id="ytick_1">
     <g id="line2d_13">
      <defs>
       <path id="mf16966446f" d="M 0 0 
L -8 0 
" style="stroke: #000000; stroke-width: 2"/>
      </defs>
      <g>
       <use xlink:href="#mf16966446f" x="73.815" y="234.017187" style="stroke: #000000; stroke-width: 2"/>
      </g>
     </g>
     <g id="text_5">
      <!-- 0 -->
      <g transform="translate(53.4075 239.336094) scale(0.14 -0.14)">
       <use xlink:href="#DejaVuSans-30"/>
      </g>
     </g>
    </g>
    <g id="ytick_2">
     <g id="line2d_14">
      <g>
       <use xlink:href="#mf16966446f" x="73.815" y="193.389187" style="stroke: #000000; stroke-width: 2"/>
      </g>
     </g>
     <g id="text_6">
      <!-- 200 -->
      <g transform="translate(35.5925 198.708094) scale(0.14 -0.14)">
       <defs>
        <path id="DejaVuSans-32" d="M 1228 531 
L 3431 531 
L 3431 0 
L 469 0 
L 469 531 
Q 828 903 1448 1529 
Q 2069 2156 2228 2338 
Q 2531 2678 2651 2914 
Q 2772 3150 2772 3378 
Q 2772 3750 2511 3984 
Q 2250 4219 1831 4219 
Q 1534 4219 1204 4116 
Q 875 4013 500 3803 
L 500 4441 
Q 881 4594 1212 4672 
Q 1544 4750 1819 4750 
Q 2544 4750 2975 4387 
Q 3406 4025 3406 3419 
Q 3406 3131 3298 2873 
Q 3191 2616 2906 2266 
Q 2828 2175 2409 1742 
Q 1991 1309 1228 531 
z
" transform="scale(0.015625)"/>
       </defs>
       <use xlink:href="#DejaVuSans-32"/>
       <use xlink:href="#DejaVuSans-30" transform="translate(63.623047 0)"/>
       <use xlink:href="#DejaVuSans-30" transform="translate(127.246094 0)"/>
      </g>
     </g>
    </g>
    <g id="ytick_3">
     <g id="line2d_15">
      <g>
       <use xlink:href="#mf16966446f" x="73.815" y="152.761187" style="stroke: #000000; stroke-width: 2"/>
      </g>
     </g>
     <g id="text_7">
      <!-- 400 -->
      <g transform="translate(35.5925 158.080094) scale(0.14 -0.14)">
       <defs>
        <path id="DejaVuSans-34" d="M 2419 4116 
L 825 1625 
L 2419 1625 
L 2419 4116 
z
M 2253 4666 
L 3047 4666 
L 3047 1625 
L 3713 1625 
L 3713 1100 
L 3047 1100 
L 3047 0 
L 2419 0 
L 2419 1100 
L 313 1100 
L 313 1709 
L 2253 4666 
z
" transform="scale(0.015625)"/>
       </defs>
       <use xlink:href="#DejaVuSans-34"/>
       <use xlink:href="#DejaVuSans-30" transform="translate(63.623047 0)"/>
       <use xlink:href="#DejaVuSans-30" transform="translate(127.246094 0)"/>
      </g>
     </g>
    </g>
    <g id="ytick_4">
     <g id="line2d_16">
      <g>
       <use xlink:href="#mf16966446f" x="73.815" y="112.133187" style="stroke: #000000; stroke-width: 2"/>
      </g>
     </g>
     <g id="text_8">
      <!-- 600 -->
      <g transform="translate(35.5925 117.452094) scale(0.14 -0.14)">
       <defs>
        <path id="DejaVuSans-36" d="M 2113 2584 
Q 1688 2584 1439 2293 
Q 1191 2003 1191 1497 
Q 1191 994 1439 701 
Q 1688 409 2113 409 
Q 2538 409 2786 701 
Q 3034 994 3034 1497 
Q 3034 2003 2786 2293 
Q 2538 2584 2113 2584 
z
M 3366 4563 
L 3366 3988 
Q 3128 4100 2886 4159 
Q 2644 4219 2406 4219 
Q 1781 4219 1451 3797 
Q 1122 3375 1075 2522 
Q 1259 2794 1537 2939 
Q 1816 3084 2150 3084 
Q 2853 3084 3261 2657 
Q 3669 2231 3669 1497 
Q 3669 778 3244 343 
Q 2819 -91 2113 -91 
Q 1303 -91 875 529 
Q 447 1150 447 2328 
Q 447 3434 972 4092 
Q 1497 4750 2381 4750 
Q 2619 4750 2861 4703 
Q 3103 4656 3366 4563 
z
" transform="scale(0.015625)"/>
       </defs>
       <use xlink:href="#DejaVuSans-36"/>
       <use xlink:href="#DejaVuSans-30" transform="translate(63.623047 0)"/>
       <use xlink:href="#DejaVuSans-30" transform="translate(127.246094 0)"/>
      </g>
     </g>
    </g>
    <g id="ytick_5">
     <g id="line2d_17">
      <g>
       <use xlink:href="#mf16966446f" x="73.815" y="71.505187" style="stroke: #000000; stroke-width: 2"/>
      </g>
     </g>
     <g id="text_9">
      <!-- 800 -->
      <g transform="translate(35.5925 76.824094) scale(0.14 -0.14)">
       <defs>
        <path id="DejaVuSans-38" d="M 2034 2216 
Q 1584 2216 1326 1975 
Q 1069 1734 1069 1313 
Q 1069 891 1326 650 
Q 1584 409 2034 409 
Q 2484 409 2743 651 
Q 3003 894 3003 1313 
Q 3003 1734 2745 1975 
Q 2488 2216 2034 2216 
z
M 1403 2484 
Q 997 2584 770 2862 
Q 544 3141 544 3541 
Q 544 4100 942 4425 
Q 1341 4750 2034 4750 
Q 2731 4750 3128 4425 
Q 3525 4100 3525 3541 
Q 3525 3141 3298 2862 
Q 3072 2584 2669 2484 
Q 3125 2378 3379 2068 
Q 3634 1759 3634 1313 
Q 3634 634 3220 271 
Q 2806 -91 2034 -91 
Q 1263 -91 848 271 
Q 434 634 434 1313 
Q 434 1759 690 2068 
Q 947 2378 1403 2484 
z
M 1172 3481 
Q 1172 3119 1398 2916 
Q 1625 2713 2034 2713 
Q 2441 2713 2670 2916 
Q 2900 3119 2900 3481 
Q 2900 3844 2670 4047 
Q 2441 4250 2034 4250 
Q 1625 4250 1398 4047 
Q 1172 3844 1172 3481 
z
" transform="scale(0.015625)"/>
       </defs>
       <use xlink:href="#DejaVuSans-38"/>
       <use xlink:href="#DejaVuSans-30" transform="translate(63.623047 0)"/>
       <use xlink:href="#DejaVuSans-30" transform="translate(127.246094 0)"/>
      </g>
     </g>
    </g>
    <g id="ytick_6">
     <g id="line2d_18">
      <g>
       <use xlink:href="#mf16966446f" x="73.815" y="30.877187" style="stroke: #000000; stroke-width: 2"/>
      </g>
     </g>
     <g id="text_10">
      <!-- 1000 -->
      <g transform="translate(26.685 36.196094) scale(0.14 -0.14)">
       <use xlink:href="#DejaVuSans-31"/>
       <use xlink:href="#DejaVuSans-30" transform="translate(63.623047 0)"/>
       <use xlink:href="#DejaVuSans-30" transform="translate(127.246094 0)"/>
       <use xlink:href="#DejaVuSans-30" transform="translate(190.869141 0)"/>
      </g>
     </g>
    </g>
    <g id="text_11">
     <!-- Intensity (a.u.) -->
     <g transform="translate(19.3575 191.109687) rotate(-90) scale(0.16 -0.16)">
      <defs>
       <path id="DejaVuSans-49" d="M 628 4666 
L 1259 4666 
L 1259 0 
L 628 0 
L 628 4666 
z
" transform="scale(0.015625)"/>
       <path id="DejaVuSans-73" d="M 2834 3397 
L 2834 2853 
Q 2591 2978 2328 3040 
Q 2066 3103 1784 3103 
Q 1356 3103 1142 2972 
Q 928 2841 928 2578 
Q 928 2378 1081 2264 
Q 1234 2150 1697 2047 
L 1894 2003 
Q 2506 1872 2764 1633 
Q 3022 1394 3022 966 
Q 3022 478 2636 193 
Q 2250 -91 1575 -91 
Q 1294 -91 989 -36 
Q 684 19 347 128 
L 347 722 
Q 666 556 975 473 
Q 1284 391 1588 391 
Q 1994 391 2212 530 
Q 2431 669 2431 922 
Q 2431 1156 2273 1281 
Q 2116 1406 1581 1522 
L 1381 1569 
Q 847 1681 609 1914 
Q 372 2147 372 2553 
Q 372 3047 722 3315 
Q 1072 3584 1716 3584 
Q 2034 3584 2315 3537 
Q 2597 3491 2834 3397 
z
" transform="scale(0.015625)"/>
       <path id="DejaVuSans-69" d="M 603 3500 
L 1178 3500 
L 1178 0 
L 603 0 
L 603 3500 
z
M 603 4863 
L 1178 4863 
L 1178 4134 
L 603 4134 
L 603 4863 
z
" transform="scale(0.015625)"/>
       <path id="DejaVuSans-79" d="M 2059 -325 
Q 1816 -950 1584 -1140 
Q 1353 -1331 966 -1331 
L 506 -1331 
L 506 -850 
L 844 -850 
Q 1081 -850 1212 -737 
Q 1344 -625 1503 -206 
L 1606 56 
L 191 3500 
L 800 3500 
L 1894 763 
L 2988 3500 
L 3597 3500 
L 2059 -325 
z
" transform="scale(0.015625)"/>
       <path id="DejaVuSans-61" d="M 2194 1759 
Q 1497 1759 1228 1600 
Q 959 1441 959 1056 
Q 959 750 1161 570 
Q 1363 391 1709 391 
Q 2188 391 2477 730 
Q 2766 1069 2766 1631 
L 2766 1759 
L 2194 1759 
z
M 3341 1997 
L 3341 0 
L 2766 0 
L 2766 531 
Q 2569 213 2275 61 
Q 1981 -91 1556 -91 
Q 1019 -91 701 211 
Q 384 513 384 1019 
Q 384 1609 779 1909 
Q 1175 2209 1959 2209 
L 2766 2209 
L 2766 2266 
Q 2766 2663 2505 2880 
Q 2244 3097 1772 3097 
Q 1472 3097 1187 3025 
Q 903 2953 641 2809 
L 641 3341 
Q 956 3463 1253 3523 
Q 1550 3584 1831 3584 
Q 2591 3584 2966 3190 
Q 3341 2797 3341 1997 
z
" transform="scale(0.015625)"/>
       <path id="DejaVuSans-2e" d="M 684 794 
L 1344 794 
L 1344 0 
L 684 0 
L 684 794 
z
" transform="scale(0.015625)"/>
       <path id="DejaVuSans-75" d="M 544 1381 
L 544 3500 
L 1119 3500 
L 1119 1403 
Q 1119 906 1312 657 
Q 1506 409 1894 409 
Q 2359 409 2629 706 
Q 2900 1003 2900 1516 
L 2900 3500 
L 3475 3500 
L 3475 0 
L 2900 0 
L 2900 538 
Q 2691 219 2414 64 
Q 2138 -91 1772 -91 
Q 1169 -91 856 284 
Q 544 659 544 1381 
z
M 1991 3584 
L 1991 3584 
z
" transform="scale(0.015625)"/>
      </defs>
      <use xlink:href="#DejaVuSans-49"/>
      <use xlink:href="#DejaVuSans-6e" transform="translate(29.492188 0)"/>
      <use xlink:href="#DejaVuSans-74" transform="translate(92.871094 0)"/>
      <use xlink:href="#DejaVuSans-65" transform="translate(132.080078 0)"/>
      <use xlink:href="#DejaVuSans-6e" transform="translate(193.603516 0)"/>
      <use xlink:href="#DejaVuSans-73" transform="translate(256.982422 0)"/>
      <use xlink:href="#DejaVuSans-69" transform="translate(309.082031 0)"/>
      <use xlink:href="#DejaVuSans-74" transform="translate(336.865234 0)"/>
      <use xlink:href="#DejaVuSans-79" transform="translate(376.074219 0)"/>
      <use xlink:href="#DejaVuSans-20" transform="translate(435.253906 0)"/>
      <use xlink:href="#DejaVuSans-28" transform="translate(467.041016 0)"/>
      <use xlink:href="#DejaVuSans-61" transform="translate(506.054688 0)"/>
      <use xlink:href="#DejaVuSans-2e" transform="translate(567.333984 0)"/>
      <use xlink:href="#DejaVuSans-75" transform="translate(599.121094 0)"/>
      <use xlink:href="#DejaVuSans-2e" transform="translate(662.5 0)"/>
      <use xlink:href="#DejaVuSans-29" transform="translate(694.287109 0)"/>
     </g>
    </g>
   </g>
   <g id="line2d_19">
    <path d="M 101.096636 229.344967 
L 101.82658 230.18081 
L 102.556523 229.707477 
L 103.286467 228.349572 
L 105.476297 223.138474 
L 106.20624 221.608987 
L 106.936184 219.455925 
L 107.666127 216.137441 
L 108.396071 211.368738 
L 109.126014 204.924927 
L 110.585901 187.956036 
L 111.315845 178.65603 
L 112.045788 170.869585 
L 112.775732 166.778103 
L 113.505675 166.159911 
L 114.235618 164.290657 
L 114.965562 156.423068 
L 116.425449 132.075832 
L 117.155392 125.404327 
L 117.885336 123.447707 
L 118.615279 124.689163 
L 120.075166 130.052943 
L 120.805109 130.823023 
L 121.535053 130.314582 
L 122.264996 130.042359 
L 122.99494 130.868473 
L 123.724883 131.956108 
L 124.454827 132.253252 
L 125.18477 131.825011 
L 125.914714 131.779475 
L 126.644657 133.143534 
L 127.3746 136.295833 
L 128.104544 141.39459 
L 129.564431 155.700906 
L 130.294374 162.843787 
L 131.024318 168.174996 
L 131.754261 170.014911 
L 132.484205 167.669103 
L 133.214148 164.005808 
L 133.944092 162.623317 
L 134.674035 164.529669 
L 135.403978 167.474954 
L 136.133922 169.149026 
L 136.863865 168.366169 
L 137.593809 164.462277 
L 139.783639 144.935575 
L 141.243526 138.823043 
L 141.973469 134.37871 
L 142.703413 128.111533 
L 144.893243 104.221586 
L 145.623187 100.592007 
L 146.35313 99.990194 
L 147.083074 100.137085 
L 147.813017 99.378285 
L 148.54296 98.285102 
L 149.272904 97.885715 
L 150.002847 98.612426 
L 150.732791 100.181773 
L 151.462734 102.088178 
L 152.192678 102.527336 
L 152.922621 99.132215 
L 154.382508 84.631796 
L 155.112452 83.16594 
L 155.842395 87.273964 
L 156.572338 92.753954 
L 157.302282 96.128979 
L 158.032225 98.062676 
L 158.762169 100.442116 
L 159.492112 103.774092 
L 160.222056 106.322672 
L 160.951999 106.324264 
L 161.681943 103.896728 
L 163.141829 96.79542 
L 163.871773 94.805897 
L 164.601716 95.642364 
L 165.33166 98.005985 
L 166.061603 97.591218 
L 166.791547 90.987855 
L 167.52149 82.035313 
L 168.251434 77.586407 
L 168.981377 80.64767 
L 169.71132 85.66348 
L 170.441264 86.303308 
L 171.901151 78.693901 
L 172.631094 79.040041 
L 173.361038 81.895069 
L 174.090981 84.251842 
L 174.820925 84.762555 
L 175.550868 84.651554 
L 176.280811 85.210685 
L 177.010755 86.201563 
L 177.740698 86.508569 
L 178.470642 85.395475 
L 180.660472 79.145769 
L 181.390416 78.544436 
L 182.850303 80.838758 
L 183.580246 79.66257 
L 185.040133 71.570046 
L 185.770076 71.380187 
L 186.50002 75.139612 
L 187.959907 85.123818 
L 188.68985 86.880876 
L 189.419794 83.779571 
L 190.87968 69.902173 
L 191.609624 68.323637 
L 192.339567 70.582439 
L 193.069511 72.352602 
L 193.799454 70.877345 
L 194.529398 68.083744 
L 195.259341 66.678746 
L 195.989285 67.561024 
L 197.449171 72.099982 
L 198.179115 73.418577 
L 198.909058 72.419068 
L 200.368945 66.087538 
L 201.098889 66.074348 
L 201.828832 69.291898 
L 203.288719 78.805643 
L 204.018663 81.639982 
L 204.748606 80.874357 
L 205.478549 77.137037 
L 206.208493 74.386595 
L 206.938436 76.262556 
L 207.66838 81.364944 
L 208.398323 85.669423 
L 209.128267 86.54562 
L 210.588154 83.888873 
L 211.318097 83.410207 
L 212.04804 84.122662 
L 212.777984 85.997684 
L 213.507927 87.565383 
L 214.237871 86.850994 
L 215.697758 79.950426 
L 216.427701 79.070055 
L 217.157645 80.427194 
L 217.887588 81.459158 
L 218.617531 80.430618 
L 219.347475 79.009882 
L 220.077418 79.641499 
L 220.807362 82.546204 
L 221.537305 84.947103 
L 222.267249 84.29718 
L 222.997192 81.728377 
L 223.727136 80.196865 
L 224.457079 81.26784 
L 225.187022 82.79527 
L 225.916966 82.138967 
L 228.106796 73.232242 
L 228.83674 72.238569 
L 229.566683 71.816568 
L 230.296627 71.633966 
L 231.02657 71.993948 
L 231.756514 73.201776 
L 232.486457 74.747783 
L 233.2164 75.57139 
L 233.946344 75.243956 
L 234.676287 75.711229 
L 235.406231 79.407 
L 236.866118 94.042591 
L 237.596061 99.367748 
L 238.326005 101.606163 
L 239.055948 100.850582 
L 240.515835 95.223782 
L 241.245778 95.500381 
L 242.705665 101.780821 
L 243.435609 102.736949 
L 244.165552 101.096466 
L 244.895496 97.177818 
L 245.625439 92.060343 
L 246.355382 88.149747 
L 247.085326 87.673068 
L 247.815269 89.230977 
L 248.545213 89.084683 
L 250.0051 81.25972 
L 250.735043 82.417528 
L 251.464987 88.529888 
L 252.19493 93.256814 
L 252.924874 90.914232 
L 254.38476 76.667563 
L 255.114704 74.05573 
L 255.844647 75.276704 
L 256.574591 79.227801 
L 257.304534 83.825694 
L 258.034478 86.132309 
L 258.764421 84.041761 
L 259.494365 79.700774 
L 260.224308 76.543204 
L 260.954251 76.26257 
L 261.684195 77.657052 
L 263.144082 80.753799 
L 264.603969 82.89965 
L 267.523742 86.443796 
L 268.253686 86.766087 
L 269.713573 86.741335 
L 270.443516 86.996048 
L 271.17346 88.097157 
L 271.903403 90.54923 
L 272.633347 93.559633 
L 273.36329 95.255814 
L 274.093234 94.396945 
L 274.823177 92.856251 
L 275.55312 93.385147 
L 277.013007 99.840797 
L 277.742951 100.232519 
L 278.472894 97.062369 
L 279.202838 90.820485 
L 279.932781 82.792924 
L 280.662725 76.732396 
L 281.392668 76.734385 
L 282.122611 82.802086 
L 282.852555 90.350043 
L 283.582498 95.081623 
L 284.312442 96.236426 
L 285.042385 94.499751 
L 285.772329 91.141263 
L 286.502272 88.687381 
L 287.232216 89.601884 
L 287.962159 92.7809 
L 288.692102 94.284063 
L 289.422046 91.353117 
L 290.151989 86.831784 
L 290.881933 85.055888 
L 291.611876 86.774211 
L 292.34182 87.304128 
L 293.071763 82.314809 
L 293.801707 75.241807 
L 294.53165 73.866693 
L 295.261593 82.278798 
L 295.991537 93.339649 
L 296.72148 98.071924 
L 297.451424 94.270148 
L 298.181367 86.98201 
L 298.911311 81.054643 
L 299.641254 77.834556 
L 300.371198 77.308655 
L 301.101141 79.25981 
L 301.831085 83.056093 
L 302.561028 87.936401 
L 303.290971 91.997521 
L 304.020915 92.469132 
L 304.750858 87.731164 
L 305.480802 81.104372 
L 306.210745 77.148684 
L 306.940689 77.284196 
L 307.670632 78.393474 
L 308.400576 77.475665 
L 309.130519 75.81268 
L 309.860462 76.970281 
L 311.320349 87.727973 
L 312.050293 87.520046 
L 313.51018 77.246286 
L 314.240123 78.231979 
L 314.970067 83.892756 
L 317.159897 104.39242 
L 317.88984 114.093783 
L 318.619784 128.020981 
L 319.349727 147.885827 
L 319.349727 147.885827 
" clip-path="url(#p6e41615616)" style="fill: none; stroke: #8b1c0f; stroke-width: 2; stroke-linecap: square"/>
   </g>
   <g id="line2d_20">
    <path d="M 101.096636 230.157527 
L 102.556523 229.921995 
L 103.286467 229.647601 
L 104.01641 229.149928 
L 104.746354 228.33983 
L 105.476297 227.136711 
L 106.936184 223.806554 
L 107.666127 221.894334 
L 108.396071 219.668287 
L 109.126014 216.869032 
L 109.855958 213.249432 
L 110.585901 208.587876 
L 112.045788 195.999772 
L 112.775732 189.484705 
L 113.505675 184.127174 
L 114.235618 180.688263 
L 114.965562 179.840979 
L 116.425449 183.276088 
L 117.155392 182.77762 
L 117.885336 178.767608 
L 118.615279 171.593459 
L 120.075166 152.005402 
L 120.805109 145.168425 
L 121.535053 143.785017 
L 122.264996 147.539181 
L 122.99494 155.523151 
L 123.724883 165.493938 
L 124.454827 173.328033 
L 125.18477 175.212681 
L 126.644657 169.446122 
L 127.3746 169.91371 
L 128.104544 173.682828 
L 130.294374 192.120049 
L 131.024318 195.31137 
L 131.754261 195.925809 
L 133.214148 194.520206 
L 133.944092 193.25577 
L 134.674035 190.678137 
L 136.133922 183.330861 
L 136.863865 182.243165 
L 137.593809 183.206848 
L 138.323752 183.774236 
L 139.053696 181.719755 
L 139.783639 176.963852 
L 140.513583 170.336637 
L 142.703413 147.819529 
L 143.433356 142.224503 
L 144.1633 138.662237 
L 144.893243 137.515681 
L 145.623187 137.633674 
L 146.35313 137.050436 
L 147.083074 134.33056 
L 147.813017 129.918757 
L 149.272904 120.083403 
L 150.002847 118.47164 
L 150.732791 121.925962 
L 151.462734 128.454672 
L 152.192678 133.375501 
L 152.922621 133.135811 
L 154.382508 125.405772 
L 155.112452 123.053518 
L 155.842395 122.249601 
L 156.572338 122.611598 
L 157.302282 123.251809 
L 158.032225 122.868883 
L 158.762169 120.563853 
L 159.492112 117.800564 
L 160.222056 116.872683 
L 161.681943 120.34019 
L 162.411886 119.167499 
L 163.871773 111.350608 
L 164.601716 110.790749 
L 165.33166 114.321616 
L 166.061603 121.875933 
L 167.52149 141.913551 
L 168.251434 146.085434 
L 168.981377 144.197593 
L 169.71132 140.117716 
L 170.441264 137.661147 
L 171.171207 137.367182 
L 171.901151 137.947856 
L 172.631094 138.266602 
L 173.361038 137.818489 
L 174.090981 136.251803 
L 176.280811 128.766086 
L 177.010755 127.892727 
L 177.740698 128.691713 
L 178.470642 131.347156 
L 179.930529 138.268828 
L 180.660472 140.113799 
L 181.390416 139.370135 
L 182.120359 135.070474 
L 182.850303 128.699949 
L 183.580246 123.848441 
L 184.310189 123.423906 
L 185.040133 125.813953 
L 185.770076 127.725448 
L 186.50002 127.14738 
L 187.959907 123.36424 
L 188.68985 122.867748 
L 189.419794 124.447723 
L 190.149737 128.656708 
L 191.609624 140.679474 
L 192.339567 145.531574 
L 193.069511 148.398116 
L 193.799454 148.668833 
L 194.529398 146.638005 
L 195.259341 143.786143 
L 195.989285 141.529907 
L 196.719228 139.810578 
L 197.449171 137.705373 
L 198.179115 134.898058 
L 198.909058 133.476432 
L 199.639002 136.077658 
L 201.098889 150.150018 
L 201.828832 153.974062 
L 202.558776 154.329032 
L 203.288719 153.959711 
L 204.018663 154.904361 
L 204.748606 155.378849 
L 205.478549 152.430284 
L 206.938436 138.322697 
L 207.66838 135.536548 
L 208.398323 137.142449 
L 209.128267 139.399629 
L 209.85821 139.127749 
L 210.588154 137.588994 
L 211.318097 137.785048 
L 212.777984 143.60278 
L 213.507927 141.895834 
L 214.237871 136.615455 
L 214.967814 133.866498 
L 215.697758 139.074474 
L 217.157645 159.60113 
L 217.887588 163.899254 
L 218.617531 163.561732 
L 219.347475 160.595659 
L 220.807362 153.18659 
L 221.537305 151.181424 
L 222.267249 150.586427 
L 223.727136 150.450482 
L 224.457079 151.163523 
L 225.187022 153.8116 
L 227.376853 167.773659 
L 228.106796 170.08632 
L 228.83674 171.015807 
L 229.566683 170.961165 
L 230.296627 170.550085 
L 231.02657 170.482693 
L 232.486457 171.710971 
L 233.2164 171.803783 
L 234.676287 170.706159 
L 235.406231 170.546147 
L 236.136174 171.034562 
L 236.866118 172.274495 
L 240.515835 181.845905 
L 241.975722 186.716157 
L 242.705665 187.474461 
L 243.435609 185.945 
L 244.165552 183.994605 
L 244.895496 183.998083 
L 245.625439 186.559056 
L 246.355382 189.726347 
L 247.085326 191.518442 
L 247.815269 191.913532 
L 248.545213 192.154139 
L 250.0051 194.046523 
L 250.735043 193.714163 
L 251.464987 191.697523 
L 252.924874 186.647695 
L 253.654817 185.469151 
L 254.38476 185.911648 
L 255.844647 190.612438 
L 256.574591 191.23584 
L 257.304534 188.649488 
L 258.034478 183.181239 
L 259.494365 167.603403 
L 260.224308 163.249083 
L 260.954251 165.311217 
L 261.684195 171.230477 
L 262.414138 176.067542 
L 263.144082 176.573182 
L 263.874025 174.303066 
L 264.603969 171.640139 
L 265.333912 170.432824 
L 266.063856 171.876611 
L 266.793799 176.767293 
L 267.523742 182.546155 
L 268.253686 184.828857 
L 268.983629 181.090323 
L 269.713573 175.547193 
L 270.443516 173.856244 
L 271.17346 177.595764 
L 271.903403 182.172502 
L 272.633347 182.89533 
L 273.36329 180.237567 
L 274.093234 178.168303 
L 274.823177 179.694096 
L 275.55312 183.110953 
L 276.283064 185.379292 
L 277.013007 184.766282 
L 277.742951 182.000075 
L 279.202838 174.39904 
L 279.932781 172.49706 
L 280.662725 173.564316 
L 281.392668 176.216088 
L 282.122611 178.143322 
L 282.852555 178.04226 
L 283.582498 176.983905 
L 284.312442 176.353774 
L 285.042385 176.856121 
L 285.772329 178.489485 
L 286.502272 181.235654 
L 287.232216 185.196774 
L 287.962159 190.529588 
L 288.692102 196.784643 
L 289.422046 201.70564 
L 290.151989 202.762415 
L 290.881933 199.726265 
L 291.611876 195.315959 
L 292.34182 192.233631 
L 293.071763 191.105562 
L 293.801707 191.371558 
L 294.53165 192.52705 
L 295.261593 194.331026 
L 296.72148 198.893083 
L 297.451424 200.350488 
L 298.181367 200.137731 
L 298.911311 198.200649 
L 299.641254 195.03972 
L 301.101141 187.568442 
L 301.831085 184.980662 
L 302.561028 183.723732 
L 303.290971 182.814251 
L 304.020915 181.196395 
L 304.750858 179.185083 
L 305.480802 178.299656 
L 306.210745 179.716134 
L 306.940689 182.229361 
L 307.670632 183.726368 
L 308.400576 183.186156 
L 309.130519 182.303612 
L 309.860462 183.116206 
L 311.320349 188.195755 
L 312.050293 188.670431 
L 312.780236 187.431208 
L 313.51018 185.750729 
L 314.240123 184.734648 
L 314.970067 184.943996 
L 315.70001 186.818678 
L 317.88984 197.450701 
L 318.619784 199.258789 
L 319.349727 198.467687 
L 319.349727 198.467687 
" clip-path="url(#p6e41615616)" style="fill: none; stroke: #1d0cfd; stroke-width: 2; stroke-linecap: square"/>
   </g>
   <g id="line2d_21">
    <path d="M 101.096636 228.329267 
L 101.82658 226.005653 
L 102.556523 224.959076 
L 104.01641 224.342237 
L 104.746354 223.594579 
L 105.476297 221.801763 
L 106.20624 218.871906 
L 107.666127 210.708603 
L 108.396071 206.596973 
L 109.126014 203.631518 
L 110.585901 200.195418 
L 111.315845 196.790373 
L 112.775732 186.788552 
L 113.505675 183.04265 
L 115.695505 174.607344 
L 116.425449 173.416116 
L 117.155392 176.078522 
L 119.345223 195.316291 
L 120.075166 197.905777 
L 120.805109 197.088506 
L 122.264996 188.991206 
L 122.99494 187.780645 
L 124.454827 192.131162 
L 125.18477 190.743248 
L 125.914714 186.632853 
L 126.644657 183.264444 
L 127.3746 183.317476 
L 128.104544 185.981222 
L 129.564431 192.672367 
L 130.294374 194.888223 
L 131.024318 195.786875 
L 131.754261 195.829912 
L 132.484205 196.143711 
L 133.214148 197.609476 
L 133.944092 199.690756 
L 134.674035 201.376347 
L 135.403978 201.866968 
L 136.133922 200.827501 
L 136.863865 198.006973 
L 137.593809 193.64662 
L 139.783639 178.592863 
L 140.513583 175.420521 
L 141.243526 174.203981 
L 141.973469 174.829557 
L 142.703413 177.047018 
L 143.433356 179.727818 
L 144.1633 180.695549 
L 144.893243 178.039259 
L 146.35313 167.596496 
L 147.083074 164.4472 
L 147.813017 163.27756 
L 148.54296 163.556242 
L 149.272904 164.986519 
L 150.002847 167.61827 
L 151.462734 175.062523 
L 152.192678 176.350893 
L 152.922621 173.848964 
L 153.652565 169.552888 
L 154.382508 166.398288 
L 155.112452 165.655164 
L 155.842395 165.533079 
L 156.572338 164.031792 
L 158.032225 158.290678 
L 158.762169 156.893383 
L 160.222056 156.090275 
L 160.951999 154.945819 
L 161.681943 153.010035 
L 163.141829 147.760862 
L 163.871773 146.748678 
L 164.601716 148.526721 
L 165.33166 151.841939 
L 166.061603 154.343307 
L 166.791547 154.452145 
L 167.52149 152.84566 
L 168.251434 150.610052 
L 168.981377 148.907499 
L 169.71132 148.995202 
L 170.441264 151.927541 
L 171.901151 161.398272 
L 172.631094 164.173597 
L 173.361038 164.831739 
L 174.090981 163.468282 
L 175.550868 158.067565 
L 176.280811 156.926036 
L 177.010755 157.013365 
L 177.740698 156.867495 
L 178.470642 155.383327 
L 179.200585 153.246849 
L 179.930529 151.667158 
L 180.660472 151.470717 
L 181.390416 152.745301 
L 182.120359 155.473214 
L 185.770076 174.286984 
L 186.50002 177.587759 
L 187.229963 179.711737 
L 187.959907 179.590512 
L 188.68985 177.241294 
L 190.149737 170.521785 
L 190.87968 167.946566 
L 191.609624 166.500928 
L 192.339567 166.401296 
L 193.069511 167.325267 
L 193.799454 168.830787 
L 194.529398 169.801852 
L 195.259341 168.238618 
L 195.989285 162.492336 
L 196.719228 155.11749 
L 197.449171 151.13022 
L 198.179115 153.766379 
L 198.909058 159.209362 
L 199.639002 161.97588 
L 200.368945 159.972182 
L 201.098889 156.618003 
L 201.828832 155.629254 
L 202.558776 157.836314 
L 204.018663 166.582178 
L 204.748606 169.535604 
L 205.478549 168.502186 
L 206.938436 157.881894 
L 207.66838 156.711569 
L 209.128267 163.051833 
L 209.85821 163.280699 
L 210.588154 161.660926 
L 211.318097 161.216893 
L 212.04804 163.73311 
L 213.507927 171.639043 
L 214.237871 174.182399 
L 214.967814 175.41333 
L 215.697758 175.342742 
L 216.427701 174.000854 
L 217.157645 171.427496 
L 218.617531 164.841267 
L 219.347475 163.523475 
L 220.077418 164.375793 
L 221.537305 168.24549 
L 222.267249 169.513944 
L 222.997192 169.827377 
L 223.727136 169.057045 
L 224.457079 167.777581 
L 225.187022 166.736158 
L 225.916966 166.03735 
L 226.646909 164.688504 
L 227.376853 161.695006 
L 228.106796 157.615951 
L 228.83674 154.195201 
L 229.566683 152.849594 
L 230.296627 153.123256 
L 231.756514 154.615162 
L 233.2164 155.718732 
L 233.946344 157.014121 
L 234.676287 160.251643 
L 235.406231 166.279922 
L 236.136174 173.355905 
L 236.866118 178.667521 
L 237.596061 180.48827 
L 238.326005 180.013349 
L 239.055948 178.909864 
L 239.785891 178.444538 
L 240.515835 179.417563 
L 241.975722 185.389948 
L 242.705665 185.554894 
L 243.435609 181.135307 
L 244.165552 174.966599 
L 244.895496 170.801753 
L 245.625439 170.117169 
L 246.355382 171.105463 
L 247.085326 171.837537 
L 248.545213 172.050388 
L 249.275156 172.775313 
L 250.0051 174.56143 
L 250.735043 177.803231 
L 252.924874 191.348112 
L 253.654817 193.586669 
L 254.38476 193.044576 
L 255.114704 189.160369 
L 256.574591 178.282057 
L 257.304534 174.875877 
L 258.764421 169.895671 
L 260.224308 164.681345 
L 260.954251 163.334219 
L 261.684195 162.584755 
L 262.414138 161.531217 
L 263.144082 159.592808 
L 264.603969 154.552186 
L 265.333912 152.57737 
L 266.063856 151.974347 
L 266.793799 153.427027 
L 267.523742 156.466006 
L 268.983629 163.00661 
L 269.713573 164.851787 
L 270.443516 164.976524 
L 271.17346 163.897251 
L 271.903403 163.748943 
L 272.633347 166.543719 
L 273.36329 171.094732 
L 274.093234 174.049783 
L 274.823177 172.926868 
L 276.283064 166.38793 
L 277.742951 163.687054 
L 278.472894 160.223978 
L 279.202838 155.893542 
L 279.932781 154.551445 
L 280.662725 159.260669 
L 282.122611 176.720358 
L 282.852555 182.682694 
L 283.582498 185.473239 
L 284.312442 185.10063 
L 285.042385 182.070167 
L 286.502272 172.094641 
L 287.962159 162.081445 
L 288.692102 158.322234 
L 289.422046 155.726293 
L 290.151989 154.431344 
L 290.881933 154.401468 
L 291.611876 155.378355 
L 292.34182 157.080142 
L 293.801707 161.122653 
L 294.53165 162.70909 
L 295.261593 163.906871 
L 295.991537 164.805221 
L 296.72148 165.227376 
L 297.451424 164.574239 
L 298.181367 162.338332 
L 298.911311 159.728329 
L 299.641254 159.17142 
L 300.371198 162.41564 
L 301.831085 172.640349 
L 302.561028 175.172249 
L 303.290971 175.446667 
L 304.020915 173.740266 
L 304.750858 170.549561 
L 306.210745 162.584343 
L 306.940689 160.052955 
L 307.670632 160.656034 
L 308.400576 164.956407 
L 309.130519 170.726964 
L 309.860462 175.376507 
L 310.590406 177.963478 
L 311.320349 179.337436 
L 312.050293 180.318037 
L 312.780236 180.764041 
L 313.51018 180.072288 
L 314.240123 177.958425 
L 315.70001 172.56316 
L 316.429953 170.934209 
L 317.159897 170.743264 
L 317.88984 172.454011 
L 318.619784 176.530137 
L 319.349727 183.435327 
L 319.349727 183.435327 
" clip-path="url(#p6e41615616)" style="fill: none; stroke: #378ca8; stroke-width: 2; stroke-linecap: square"/>
   </g>
   <g id="patch_4">
    <path d="M 73.815 234.017187 
L 73.815 30.877187 
" style="fill: none; stroke: #000000; stroke-width: 2; stroke-linejoin: miter; stroke-linecap: square"/>
   </g>
   <g id="patch_5">
    <path d="M 73.815 234.017187 
L 373.913 234.017187 
" style="fill: none; stroke: #000000; stroke-width: 2; stroke-linejoin: miter; stroke-linecap: square"/>
   </g>
   <g id="text_12">
    <!-- bleached region -->
    <g transform="translate(213.991023 47.097487) scale(0.16 -0.16)">
     <defs>
      <path id="DejaVuSans-62" d="M 3116 1747 
Q 3116 2381 2855 2742 
Q 2594 3103 2138 3103 
Q 1681 3103 1420 2742 
Q 1159 2381 1159 1747 
Q 1159 1113 1420 752 
Q 1681 391 2138 391 
Q 2594 391 2855 752 
Q 3116 1113 3116 1747 
z
M 1159 2969 
Q 1341 3281 1617 3432 
Q 1894 3584 2278 3584 
Q 2916 3584 3314 3078 
Q 3713 2572 3713 1747 
Q 3713 922 3314 415 
Q 2916 -91 2278 -91 
Q 1894 -91 1617 61 
Q 1341 213 1159 525 
L 1159 0 
L 581 0 
L 581 4863 
L 1159 4863 
L 1159 2969 
z
" transform="scale(0.015625)"/>
      <path id="DejaVuSans-6c" d="M 603 4863 
L 1178 4863 
L 1178 0 
L 603 0 
L 603 4863 
z
" transform="scale(0.015625)"/>
      <path id="DejaVuSans-63" d="M 3122 3366 
L 3122 2828 
Q 2878 2963 2633 3030 
Q 2388 3097 2138 3097 
Q 1578 3097 1268 2742 
Q 959 2388 959 1747 
Q 959 1106 1268 751 
Q 1578 397 2138 397 
Q 2388 397 2633 464 
Q 2878 531 3122 666 
L 3122 134 
Q 2881 22 2623 -34 
Q 2366 -91 2075 -91 
Q 1284 -91 818 406 
Q 353 903 353 1747 
Q 353 2603 823 3093 
Q 1294 3584 2113 3584 
Q 2378 3584 2631 3529 
Q 2884 3475 3122 3366 
z
" transform="scale(0.015625)"/>
      <path id="DejaVuSans-64" d="M 2906 2969 
L 2906 4863 
L 3481 4863 
L 3481 0 
L 2906 0 
L 2906 525 
Q 2725 213 2448 61 
Q 2172 -91 1784 -91 
Q 1150 -91 751 415 
Q 353 922 353 1747 
Q 353 2572 751 3078 
Q 1150 3584 1784 3584 
Q 2172 3584 2448 3432 
Q 2725 3281 2906 2969 
z
M 947 1747 
Q 947 1113 1208 752 
Q 1469 391 1925 391 
Q 2381 391 2643 752 
Q 2906 1113 2906 1747 
Q 2906 2381 2643 2742 
Q 2381 3103 1925 3103 
Q 1469 3103 1208 2742 
Q 947 2381 947 1747 
z
" transform="scale(0.015625)"/>
      <path id="DejaVuSans-72" d="M 2631 2963 
Q 2534 3019 2420 3045 
Q 2306 3072 2169 3072 
Q 1681 3072 1420 2755 
Q 1159 2438 1159 1844 
L 1159 0 
L 581 0 
L 581 3500 
L 1159 3500 
L 1159 2956 
Q 1341 3275 1631 3429 
Q 1922 3584 2338 3584 
Q 2397 3584 2469 3576 
Q 2541 3569 2628 3553 
L 2631 2963 
z
" transform="scale(0.015625)"/>
      <path id="DejaVuSans-6f" d="M 1959 3097 
Q 1497 3097 1228 2736 
Q 959 2375 959 1747 
Q 959 1119 1226 758 
Q 1494 397 1959 397 
Q 2419 397 2687 759 
Q 2956 1122 2956 1747 
Q 2956 2369 2687 2733 
Q 2419 3097 1959 3097 
z
M 1959 3584 
Q 2709 3584 3137 3096 
Q 3566 2609 3566 1747 
Q 3566 888 3137 398 
Q 2709 -91 1959 -91 
Q 1206 -91 779 398 
Q 353 888 353 1747 
Q 353 2609 779 3096 
Q 1206 3584 1959 3584 
z
" transform="scale(0.015625)"/>
     </defs>
     <use xlink:href="#DejaVuSans-62"/>
     <use xlink:href="#DejaVuSans-6c" transform="translate(63.476562 0)"/>
     <use xlink:href="#DejaVuSans-65" transform="translate(91.259766 0)"/>
     <use xlink:href="#DejaVuSans-61" transform="translate(152.783203 0)"/>
     <use xlink:href="#DejaVuSans-63" transform="translate(214.0625 0)"/>
     <use xlink:href="#DejaVuSans-68" transform="translate(269.042969 0)"/>
     <use xlink:href="#DejaVuSans-65" transform="translate(332.421875 0)"/>
     <use xlink:href="#DejaVuSans-64" transform="translate(393.945312 0)"/>
     <use xlink:href="#DejaVuSans-20" transform="translate(457.421875 0)"/>
     <use xlink:href="#DejaVuSans-72" transform="translate(489.208984 0)"/>
     <use xlink:href="#DejaVuSans-65" transform="translate(528.072266 0)"/>
     <use xlink:href="#DejaVuSans-67" transform="translate(589.595703 0)"/>
     <use xlink:href="#DejaVuSans-69" transform="translate(653.072266 0)"/>
     <use xlink:href="#DejaVuSans-6f" transform="translate(680.855469 0)"/>
     <use xlink:href="#DejaVuSans-6e" transform="translate(742.037109 0)"/>
    </g>
   </g>
   <g id="text_13">
    <!-- purified mBaojin -->
    <g transform="translate(73.815 20.877187) scale(0.18 -0.18)">
     <defs>
      <path id="DejaVuSans-70" d="M 1159 525 
L 1159 -1331 
L 581 -1331 
L 581 3500 
L 1159 3500 
L 1159 2969 
Q 1341 3281 1617 3432 
Q 1894 3584 2278 3584 
Q 2916 3584 3314 3078 
Q 3713 2572 3713 1747 
Q 3713 922 3314 415 
Q 2916 -91 2278 -91 
Q 1894 -91 1617 61 
Q 1341 213 1159 525 
z
M 3116 1747 
Q 3116 2381 2855 2742 
Q 2594 3103 2138 3103 
Q 1681 3103 1420 2742 
Q 1159 2381 1159 1747 
Q 1159 1113 1420 752 
Q 1681 391 2138 391 
Q 2594 391 2855 752 
Q 3116 1113 3116 1747 
z
" transform="scale(0.015625)"/>
      <path id="DejaVuSans-66" d="M 2375 4863 
L 2375 4384 
L 1825 4384 
Q 1516 4384 1395 4259 
Q 1275 4134 1275 3809 
L 1275 3500 
L 2222 3500 
L 2222 3053 
L 1275 3053 
L 1275 0 
L 697 0 
L 697 3053 
L 147 3053 
L 147 3500 
L 697 3500 
L 697 3744 
Q 697 4328 969 4595 
Q 1241 4863 1831 4863 
L 2375 4863 
z
" transform="scale(0.015625)"/>
      <path id="DejaVuSans-42" d="M 1259 2228 
L 1259 519 
L 2272 519 
Q 2781 519 3026 730 
Q 3272 941 3272 1375 
Q 3272 1813 3026 2020 
Q 2781 2228 2272 2228 
L 1259 2228 
z
M 1259 4147 
L 1259 2741 
L 2194 2741 
Q 2656 2741 2882 2914 
Q 3109 3088 3109 3444 
Q 3109 3797 2882 3972 
Q 2656 4147 2194 4147 
L 1259 4147 
z
M 628 4666 
L 2241 4666 
Q 2963 4666 3353 4366 
Q 3744 4066 3744 3513 
Q 3744 3084 3544 2831 
Q 3344 2578 2956 2516 
Q 3422 2416 3680 2098 
Q 3938 1781 3938 1306 
Q 3938 681 3513 340 
Q 3088 0 2303 0 
L 628 0 
L 628 4666 
z
" transform="scale(0.015625)"/>
      <path id="DejaVuSans-6a" d="M 603 3500 
L 1178 3500 
L 1178 -63 
Q 1178 -731 923 -1031 
Q 669 -1331 103 -1331 
L -116 -1331 
L -116 -844 
L 38 -844 
Q 366 -844 484 -692 
Q 603 -541 603 -63 
L 603 3500 
z
M 603 4863 
L 1178 4863 
L 1178 4134 
L 603 4134 
L 603 4863 
z
" transform="scale(0.015625)"/>
     </defs>
     <use xlink:href="#DejaVuSans-70"/>
     <use xlink:href="#DejaVuSans-75" transform="translate(63.476562 0)"/>
     <use xlink:href="#DejaVuSans-72" transform="translate(126.855469 0)"/>
     <use xlink:href="#DejaVuSans-69" transform="translate(167.96875 0)"/>
     <use xlink:href="#DejaVuSans-66" transform="translate(195.751953 0)"/>
     <use xlink:href="#DejaVuSans-69" transform="translate(230.957031 0)"/>
     <use xlink:href="#DejaVuSans-65" transform="translate(258.740234 0)"/>
     <use xlink:href="#DejaVuSans-64" transform="translate(320.263672 0)"/>
     <use xlink:href="#DejaVuSans-20" transform="translate(383.740234 0)"/>
     <use xlink:href="#DejaVuSans-6d" transform="translate(415.527344 0)"/>
     <use xlink:href="#DejaVuSans-42" transform="translate(512.939453 0)"/>
     <use xlink:href="#DejaVuSans-61" transform="translate(581.542969 0)"/>
     <use xlink:href="#DejaVuSans-6f" transform="translate(642.822266 0)"/>
     <use xlink:href="#DejaVuSans-6a" transform="translate(704.003906 0)"/>
     <use xlink:href="#DejaVuSans-69" transform="translate(731.787109 0)"/>
     <use xlink:href="#DejaVuSans-6e" transform="translate(759.570312 0)"/>
    </g>
   </g>
   <g id="legend_1">
    <g id="line2d_22">
     <path d="M 388.91496 43.975625 
L 398.91496 43.975625 
L 408.91496 43.975625 
" style="fill: none; stroke: #8b1c0f; stroke-width: 2; stroke-linecap: square"/>
    </g>
    <g id="text_14">
     <!-- Pre-bleach -->
     <g transform="translate(416.91496 47.475625) scale(0.1 -0.1)">
      <defs>
       <path id="DejaVuSans-50" d="M 1259 4147 
L 1259 2394 
L 2053 2394 
Q 2494 2394 2734 2622 
Q 2975 2850 2975 3272 
Q 2975 3691 2734 3919 
Q 2494 4147 2053 4147 
L 1259 4147 
z
M 628 4666 
L 2053 4666 
Q 2838 4666 3239 4311 
Q 3641 3956 3641 3272 
Q 3641 2581 3239 2228 
Q 2838 1875 2053 1875 
L 1259 1875 
L 1259 0 
L 628 0 
L 628 4666 
z
" transform="scale(0.015625)"/>
       <path id="DejaVuSans-2d" d="M 313 2009 
L 1997 2009 
L 1997 1497 
L 313 1497 
L 313 2009 
z
" transform="scale(0.015625)"/>
      </defs>
      <use xlink:href="#DejaVuSans-50"/>
      <use xlink:href="#DejaVuSans-72" transform="translate(58.552734 0)"/>
      <use xlink:href="#DejaVuSans-65" transform="translate(97.416016 0)"/>
      <use xlink:href="#DejaVuSans-2d" transform="translate(158.939453 0)"/>
      <use xlink:href="#DejaVuSans-62" transform="translate(195.023438 0)"/>
      <use xlink:href="#DejaVuSans-6c" transform="translate(258.5 0)"/>
      <use xlink:href="#DejaVuSans-65" transform="translate(286.283203 0)"/>
      <use xlink:href="#DejaVuSans-61" transform="translate(347.806641 0)"/>
      <use xlink:href="#DejaVuSans-63" transform="translate(409.085938 0)"/>
      <use xlink:href="#DejaVuSans-68" transform="translate(464.066406 0)"/>
     </g>
    </g>
    <g id="line2d_23">
     <path d="M 388.91496 58.65375 
L 398.91496 58.65375 
L 408.91496 58.65375 
" style="fill: none; stroke: #1d0cfd; stroke-width: 2; stroke-linecap: square"/>
    </g>
    <g id="text_15">
     <!-- Post-bleach -->
     <g transform="translate(416.91496 62.15375) scale(0.1 -0.1)">
      <use xlink:href="#DejaVuSans-50"/>
      <use xlink:href="#DejaVuSans-6f" transform="translate(56.677734 0)"/>
      <use xlink:href="#DejaVuSans-73" transform="translate(117.859375 0)"/>
      <use xlink:href="#DejaVuSans-74" transform="translate(169.958984 0)"/>
      <use xlink:href="#DejaVuSans-2d" transform="translate(209.167969 0)"/>
      <use xlink:href="#DejaVuSans-62" transform="translate(245.251953 0)"/>
      <use xlink:href="#DejaVuSans-6c" transform="translate(308.728516 0)"/>
      <use xlink:href="#DejaVuSans-65" transform="translate(336.511719 0)"/>
      <use xlink:href="#DejaVuSans-61" transform="translate(398.035156 0)"/>
      <use xlink:href="#DejaVuSans-63" transform="translate(459.314453 0)"/>
      <use xlink:href="#DejaVuSans-68" transform="translate(514.294922 0)"/>
     </g>
    </g>
    <g id="line2d_24">
     <path d="M 388.91496 73.331875 
L 398.91496 73.331875 
L 408.91496 73.331875 
" style="fill: none; stroke: #378ca8; stroke-width: 2; stroke-linecap: square"/>
    </g>
    <g id="text_16">
     <!-- Post-recovery -->
     <g transform="translate(416.91496 76.831875) scale(0.1 -0.1)">
      <defs>
       <path id="DejaVuSans-76" d="M 191 3500 
L 800 3500 
L 1894 563 
L 2988 3500 
L 3597 3500 
L 2284 0 
L 1503 0 
L 191 3500 
z
" transform="scale(0.015625)"/>
      </defs>
      <use xlink:href="#DejaVuSans-50"/>
      <use xlink:href="#DejaVuSans-6f" transform="translate(56.677734 0)"/>
      <use xlink:href="#DejaVuSans-73" transform="translate(117.859375 0)"/>
      <use xlink:href="#DejaVuSans-74" transform="translate(169.958984 0)"/>
      <use xlink:href="#DejaVuSans-2d" transform="translate(209.167969 0)"/>
      <use xlink:href="#DejaVuSans-72" transform="translate(245.251953 0)"/>
      <use xlink:href="#DejaVuSans-65" transform="translate(284.115234 0)"/>
      <use xlink:href="#DejaVuSans-63" transform="translate(345.638672 0)"/>
      <use xlink:href="#DejaVuSans-6f" transform="translate(400.619141 0)"/>
      <use xlink:href="#DejaVuSans-76" transform="translate(461.800781 0)"/>
      <use xlink:href="#DejaVuSans-65" transform="translate(520.980469 0)"/>
      <use xlink:href="#DejaVuSans-72" transform="translate(582.503906 0)"/>
      <use xlink:href="#DejaVuSans-79" transform="translate(623.617188 0)"/>
     </g>
    </g>
   </g>
  </g>
 </g>
 <defs>
  <clipPath id="p6e41615616">
   <rect x="73.815" y="30.877187" width="300.098" height="203.14"/>
  </clipPath>
 </defs>
</svg>
