<?xml version="1.0" encoding="utf-8" standalone="no"?>
<!DOCTYPE svg PUBLIC "-//W3C//DTD SVG 1.1//EN"
  "http://www.w3.org/Graphics/SVG/1.1/DTD/svg11.dtd">
<svg xmlns:xlink="http://www.w3.org/1999/xlink" width="570.025625pt" height="423.895625pt" viewBox="0 0 570.025625 423.895625" xmlns="http://www.w3.org/2000/svg" version="1.1">
 <metadata>
  <rdf:RDF xmlns:dc="http://purl.org/dc/elements/1.1/" xmlns:cc="http://creativecommons.org/ns#" xmlns:rdf="http://www.w3.org/1999/02/22-rdf-syntax-ns#">
   <cc:Work>
    <dc:type rdf:resource="http://purl.org/dc/dcmitype/StillImage"/>
    <dc:date>2026-01-14T15:57:32.318069</dc:date>
    <dc:format>image/svg+xml</dc:format>
    <dc:creator>
     <cc:Agent>
      <dc:title>Matplotlib v3.10.8, https://matplotlib.org/</dc:title>
     </cc:Agent>
    </dc:creator>
   </cc:Work>
  </rdf:RDF>
 </metadata>
 <defs>
  <style type="text/css">*{stroke-linejoin: round; stroke-linecap: butt}</style>
 </defs>
 <g id="figure_1">
  <g id="patch_1">
   <path d="M 0 423.895625 
L 570.025625 423.895625 
L 570.025625 0 
L 0 0 
z
" style="fill: #ffffff"/>
  </g>
  <g id="axes_1">
   <g id="patch_2">
    <path d="M 55.26875 376.096875 
L 553.28375 376.096875 
L 553.28375 42.396875 
L 55.26875 42.396875 
z
" style="fill: #ffffff"/>
   </g>
   <g id="matplotlib.axis_1">
    <g id="xtick_1">
     <g id="line2d_1">
      <defs>
       <path id="m612c63db80" d="M 0 0 
L 0 6 
" style="stroke: #000000; stroke-width: 1.5"/>
      </defs>
      <g>
       <use xlink:href="#m612c63db80" x="55.26875" y="376.096875" style="stroke: #000000; stroke-width: 1.5"/>
      </g>
     </g>
     <g id="text_1">
      <!-- 0.0 -->
      <g transform="translate(45.726875 394.715) scale(0.12 -0.12)">
       <defs>
        <path id="DejaVuSans-30" d="M 2034 4250 
Q 1547 4250 1301 3770 
Q 1056 3291 1056 2328 
Q 1056 1369 1301 889 
Q 1547 409 2034 409 
Q 2525 409 2770 889 
Q 3016 1369 3016 2328 
Q 3016 3291 2770 3770 
Q 2525 4250 2034 4250 
z
M 2034 4750 
Q 2819 4750 3233 4129 
Q 3647 3509 3647 2328 
Q 3647 1150 3233 529 
Q 2819 -91 2034 -91 
Q 1250 -91 836 529 
Q 422 1150 422 2328 
Q 422 3509 836 4129 
Q 1250 4750 2034 4750 
z
" transform="scale(0.015625)"/>
        <path id="DejaVuSans-2e" d="M 684 794 
L 1344 794 
L 1344 0 
L 684 0 
L 684 794 
z
" transform="scale(0.015625)"/>
       </defs>
       <use xlink:href="#DejaVuSans-30"/>
       <use xlink:href="#DejaVuSans-2e" transform="translate(63.623047 0)"/>
       <use xlink:href="#DejaVuSans-30" transform="translate(95.410156 0)"/>
      </g>
     </g>
    </g>
    <g id="xtick_2">
     <g id="line2d_2">
      <g>
       <use xlink:href="#m612c63db80" x="154.87175" y="376.096875" style="stroke: #000000; stroke-width: 1.5"/>
      </g>
     </g>
     <g id="text_2">
      <!-- 0.2 -->
      <g transform="translate(145.329875 394.715) scale(0.12 -0.12)">
       <defs>
        <path id="DejaVuSans-32" d="M 1228 531 
L 3431 531 
L 3431 0 
L 469 0 
L 469 531 
Q 828 903 1448 1529 
Q 2069 2156 2228 2338 
Q 2531 2678 2651 2914 
Q 2772 3150 2772 3378 
Q 2772 3750 2511 3984 
Q 2250 4219 1831 4219 
Q 1534 4219 1204 4116 
Q 875 4013 500 3803 
L 500 4441 
Q 881 4594 1212 4672 
Q 1544 4750 1819 4750 
Q 2544 4750 2975 4387 
Q 3406 4025 3406 3419 
Q 3406 3131 3298 2873 
Q 3191 2616 2906 2266 
Q 2828 2175 2409 1742 
Q 1991 1309 1228 531 
z
" transform="scale(0.015625)"/>
       </defs>
       <use xlink:href="#DejaVuSans-30"/>
       <use xlink:href="#DejaVuSans-2e" transform="translate(63.623047 0)"/>
       <use xlink:href="#DejaVuSans-32" transform="translate(95.410156 0)"/>
      </g>
     </g>
    </g>
    <g id="xtick_3">
     <g id="line2d_3">
      <g>
       <use xlink:href="#m612c63db80" x="254.47475" y="376.096875" style="stroke: #000000; stroke-width: 1.5"/>
      </g>
     </g>
     <g id="text_3">
      <!-- 0.4 -->
      <g transform="translate(244.932875 394.715) scale(0.12 -0.12)">
       <defs>
        <path id="DejaVuSans-34" d="M 2419 4116 
L 825 1625 
L 2419 1625 
L 2419 4116 
z
M 2253 4666 
L 3047 4666 
L 3047 1625 
L 3713 1625 
L 3713 1100 
L 3047 1100 
L 3047 0 
L 2419 0 
L 2419 1100 
L 313 1100 
L 313 1709 
L 2253 4666 
z
" transform="scale(0.015625)"/>
       </defs>
       <use xlink:href="#DejaVuSans-30"/>
       <use xlink:href="#DejaVuSans-2e" transform="translate(63.623047 0)"/>
       <use xlink:href="#DejaVuSans-34" transform="translate(95.410156 0)"/>
      </g>
     </g>
    </g>
    <g id="xtick_4">
     <g id="line2d_4">
      <g>
       <use xlink:href="#m612c63db80" x="354.07775" y="376.096875" style="stroke: #000000; stroke-width: 1.5"/>
      </g>
     </g>
     <g id="text_4">
      <!-- 0.6 -->
      <g transform="translate(344.535875 394.715) scale(0.12 -0.12)">
       <defs>
        <path id="DejaVuSans-36" d="M 2113 2584 
Q 1688 2584 1439 2293 
Q 1191 2003 1191 1497 
Q 1191 994 1439 701 
Q 1688 409 2113 409 
Q 2538 409 2786 701 
Q 3034 994 3034 1497 
Q 3034 2003 2786 2293 
Q 2538 2584 2113 2584 
z
M 3366 4563 
L 3366 3988 
Q 3128 4100 2886 4159 
Q 2644 4219 2406 4219 
Q 1781 4219 1451 3797 
Q 1122 3375 1075 2522 
Q 1259 2794 1537 2939 
Q 1816 3084 2150 3084 
Q 2853 3084 3261 2657 
Q 3669 2231 3669 1497 
Q 3669 778 3244 343 
Q 2819 -91 2113 -91 
Q 1303 -91 875 529 
Q 447 1150 447 2328 
Q 447 3434 972 4092 
Q 1497 4750 2381 4750 
Q 2619 4750 2861 4703 
Q 3103 4656 3366 4563 
z
" transform="scale(0.015625)"/>
       </defs>
       <use xlink:href="#DejaVuSans-30"/>
       <use xlink:href="#DejaVuSans-2e" transform="translate(63.623047 0)"/>
       <use xlink:href="#DejaVuSans-36" transform="translate(95.410156 0)"/>
      </g>
     </g>
    </g>
    <g id="xtick_5">
     <g id="line2d_5">
      <g>
       <use xlink:href="#m612c63db80" x="453.68075" y="376.096875" style="stroke: #000000; stroke-width: 1.5"/>
      </g>
     </g>
     <g id="text_5">
      <!-- 0.8 -->
      <g transform="translate(444.138875 394.715) scale(0.12 -0.12)">
       <defs>
        <path id="DejaVuSans-38" d="M 2034 2216 
Q 1584 2216 1326 1975 
Q 1069 1734 1069 1313 
Q 1069 891 1326 650 
Q 1584 409 2034 409 
Q 2484 409 2743 651 
Q 3003 894 3003 1313 
Q 3003 1734 2745 1975 
Q 2488 2216 2034 2216 
z
M 1403 2484 
Q 997 2584 770 2862 
Q 544 3141 544 3541 
Q 544 4100 942 4425 
Q 1341 4750 2034 4750 
Q 2731 4750 3128 4425 
Q 3525 4100 3525 3541 
Q 3525 3141 3298 2862 
Q 3072 2584 2669 2484 
Q 3125 2378 3379 2068 
Q 3634 1759 3634 1313 
Q 3634 634 3220 271 
Q 2806 -91 2034 -91 
Q 1263 -91 848 271 
Q 434 634 434 1313 
Q 434 1759 690 2068 
Q 947 2378 1403 2484 
z
M 1172 3481 
Q 1172 3119 1398 2916 
Q 1625 2713 2034 2713 
Q 2441 2713 2670 2916 
Q 2900 3119 2900 3481 
Q 2900 3844 2670 4047 
Q 2441 4250 2034 4250 
Q 1625 4250 1398 4047 
Q 1172 3844 1172 3481 
z
" transform="scale(0.015625)"/>
       </defs>
       <use xlink:href="#DejaVuSans-30"/>
       <use xlink:href="#DejaVuSans-2e" transform="translate(63.623047 0)"/>
       <use xlink:href="#DejaVuSans-38" transform="translate(95.410156 0)"/>
      </g>
     </g>
    </g>
    <g id="xtick_6">
     <g id="line2d_6">
      <g>
       <use xlink:href="#m612c63db80" x="553.28375" y="376.096875" style="stroke: #000000; stroke-width: 1.5"/>
      </g>
     </g>
     <g id="text_6">
      <!-- 1.0 -->
      <g transform="translate(543.741875 394.715) scale(0.12 -0.12)">
       <defs>
        <path id="DejaVuSans-31" d="M 794 531 
L 1825 531 
L 1825 4091 
L 703 3866 
L 703 4441 
L 1819 4666 
L 2450 4666 
L 2450 531 
L 3481 531 
L 3481 0 
L 794 0 
L 794 531 
z
" transform="scale(0.015625)"/>
       </defs>
       <use xlink:href="#DejaVuSans-31"/>
       <use xlink:href="#DejaVuSans-2e" transform="translate(63.623047 0)"/>
       <use xlink:href="#DejaVuSans-30" transform="translate(95.410156 0)"/>
      </g>
     </g>
    </g>
    <g id="text_7">
     <!-- Normalized distance from equator -->
     <g transform="translate(167.475 413.368125) scale(0.16 -0.16)">
      <defs>
       <path id="DejaVuSans-4e" d="M 628 4666 
L 1478 4666 
L 3547 763 
L 3547 4666 
L 4159 4666 
L 4159 0 
L 3309 0 
L 1241 3903 
L 1241 0 
L 628 0 
L 628 4666 
z
" transform="scale(0.015625)"/>
       <path id="DejaVuSans-6f" d="M 1959 3097 
Q 1497 3097 1228 2736 
Q 959 2375 959 1747 
Q 959 1119 1226 758 
Q 1494 397 1959 397 
Q 2419 397 2687 759 
Q 2956 1122 2956 1747 
Q 2956 2369 2687 2733 
Q 2419 3097 1959 3097 
z
M 1959 3584 
Q 2709 3584 3137 3096 
Q 3566 2609 3566 1747 
Q 3566 888 3137 398 
Q 2709 -91 1959 -91 
Q 1206 -91 779 398 
Q 353 888 353 1747 
Q 353 2609 779 3096 
Q 1206 3584 1959 3584 
z
" transform="scale(0.015625)"/>
       <path id="DejaVuSans-72" d="M 2631 2963 
Q 2534 3019 2420 3045 
Q 2306 3072 2169 3072 
Q 1681 3072 1420 2755 
Q 1159 2438 1159 1844 
L 1159 0 
L 581 0 
L 581 3500 
L 1159 3500 
L 1159 2956 
Q 1341 3275 1631 3429 
Q 1922 3584 2338 3584 
Q 2397 3584 2469 3576 
Q 2541 3569 2628 3553 
L 2631 2963 
z
" transform="scale(0.015625)"/>
       <path id="DejaVuSans-6d" d="M 3328 2828 
Q 3544 3216 3844 3400 
Q 4144 3584 4550 3584 
Q 5097 3584 5394 3201 
Q 5691 2819 5691 2113 
L 5691 0 
L 5113 0 
L 5113 2094 
Q 5113 2597 4934 2840 
Q 4756 3084 4391 3084 
Q 3944 3084 3684 2787 
Q 3425 2491 3425 1978 
L 3425 0 
L 2847 0 
L 2847 2094 
Q 2847 2600 2669 2842 
Q 2491 3084 2119 3084 
Q 1678 3084 1418 2786 
Q 1159 2488 1159 1978 
L 1159 0 
L 581 0 
L 581 3500 
L 1159 3500 
L 1159 2956 
Q 1356 3278 1631 3431 
Q 1906 3584 2284 3584 
Q 2666 3584 2933 3390 
Q 3200 3197 3328 2828 
z
" transform="scale(0.015625)"/>
       <path id="DejaVuSans-61" d="M 2194 1759 
Q 1497 1759 1228 1600 
Q 959 1441 959 1056 
Q 959 750 1161 570 
Q 1363 391 1709 391 
Q 2188 391 2477 730 
Q 2766 1069 2766 1631 
L 2766 1759 
L 2194 1759 
z
M 3341 1997 
L 3341 0 
L 2766 0 
L 2766 531 
Q 2569 213 2275 61 
Q 1981 -91 1556 -91 
Q 1019 -91 701 211 
Q 384 513 384 1019 
Q 384 1609 779 1909 
Q 1175 2209 1959 2209 
L 2766 2209 
L 2766 2266 
Q 2766 2663 2505 2880 
Q 2244 3097 1772 3097 
Q 1472 3097 1187 3025 
Q 903 2953 641 2809 
L 641 3341 
Q 956 3463 1253 3523 
Q 1550 3584 1831 3584 
Q 2591 3584 2966 3190 
Q 3341 2797 3341 1997 
z
" transform="scale(0.015625)"/>
       <path id="DejaVuSans-6c" d="M 603 4863 
L 1178 4863 
L 1178 0 
L 603 0 
L 603 4863 
z
" transform="scale(0.015625)"/>
       <path id="DejaVuSans-69" d="M 603 3500 
L 1178 3500 
L 1178 0 
L 603 0 
L 603 3500 
z
M 603 4863 
L 1178 4863 
L 1178 4134 
L 603 4134 
L 603 4863 
z
" transform="scale(0.015625)"/>
       <path id="DejaVuSans-7a" d="M 353 3500 
L 3084 3500 
L 3084 2975 
L 922 459 
L 3084 459 
L 3084 0 
L 275 0 
L 275 525 
L 2438 3041 
L 353 3041 
L 353 3500 
z
" transform="scale(0.015625)"/>
       <path id="DejaVuSans-65" d="M 3597 1894 
L 3597 1613 
L 953 1613 
Q 991 1019 1311 708 
Q 1631 397 2203 397 
Q 2534 397 2845 478 
Q 3156 559 3463 722 
L 3463 178 
Q 3153 47 2828 -22 
Q 2503 -91 2169 -91 
Q 1331 -91 842 396 
Q 353 884 353 1716 
Q 353 2575 817 3079 
Q 1281 3584 2069 3584 
Q 2775 3584 3186 3129 
Q 3597 2675 3597 1894 
z
M 3022 2063 
Q 3016 2534 2758 2815 
Q 2500 3097 2075 3097 
Q 1594 3097 1305 2825 
Q 1016 2553 972 2059 
L 3022 2063 
z
" transform="scale(0.015625)"/>
       <path id="DejaVuSans-64" d="M 2906 2969 
L 2906 4863 
L 3481 4863 
L 3481 0 
L 2906 0 
L 2906 525 
Q 2725 213 2448 61 
Q 2172 -91 1784 -91 
Q 1150 -91 751 415 
Q 353 922 353 1747 
Q 353 2572 751 3078 
Q 1150 3584 1784 3584 
Q 2172 3584 2448 3432 
Q 2725 3281 2906 2969 
z
M 947 1747 
Q 947 1113 1208 752 
Q 1469 391 1925 391 
Q 2381 391 2643 752 
Q 2906 1113 2906 1747 
Q 2906 2381 2643 2742 
Q 2381 3103 1925 3103 
Q 1469 3103 1208 2742 
Q 947 2381 947 1747 
z
" transform="scale(0.015625)"/>
       <path id="DejaVuSans-20" transform="scale(0.015625)"/>
       <path id="DejaVuSans-73" d="M 2834 3397 
L 2834 2853 
Q 2591 2978 2328 3040 
Q 2066 3103 1784 3103 
Q 1356 3103 1142 2972 
Q 928 2841 928 2578 
Q 928 2378 1081 2264 
Q 1234 2150 1697 2047 
L 1894 2003 
Q 2506 1872 2764 1633 
Q 3022 1394 3022 966 
Q 3022 478 2636 193 
Q 2250 -91 1575 -91 
Q 1294 -91 989 -36 
Q 684 19 347 128 
L 347 722 
Q 666 556 975 473 
Q 1284 391 1588 391 
Q 1994 391 2212 530 
Q 2431 669 2431 922 
Q 2431 1156 2273 1281 
Q 2116 1406 1581 1522 
L 1381 1569 
Q 847 1681 609 1914 
Q 372 2147 372 2553 
Q 372 3047 722 3315 
Q 1072 3584 1716 3584 
Q 2034 3584 2315 3537 
Q 2597 3491 2834 3397 
z
" transform="scale(0.015625)"/>
       <path id="DejaVuSans-74" d="M 1172 4494 
L 1172 3500 
L 2356 3500 
L 2356 3053 
L 1172 3053 
L 1172 1153 
Q 1172 725 1289 603 
Q 1406 481 1766 481 
L 2356 481 
L 2356 0 
L 1766 0 
Q 1100 0 847 248 
Q 594 497 594 1153 
L 594 3053 
L 172 3053 
L 172 3500 
L 594 3500 
L 594 4494 
L 1172 4494 
z
" transform="scale(0.015625)"/>
       <path id="DejaVuSans-6e" d="M 3513 2113 
L 3513 0 
L 2938 0 
L 2938 2094 
Q 2938 2591 2744 2837 
Q 2550 3084 2163 3084 
Q 1697 3084 1428 2787 
Q 1159 2491 1159 1978 
L 1159 0 
L 581 0 
L 581 3500 
L 1159 3500 
L 1159 2956 
Q 1366 3272 1645 3428 
Q 1925 3584 2291 3584 
Q 2894 3584 3203 3211 
Q 3513 2838 3513 2113 
z
" transform="scale(0.015625)"/>
       <path id="DejaVuSans-63" d="M 3122 3366 
L 3122 2828 
Q 2878 2963 2633 3030 
Q 2388 3097 2138 3097 
Q 1578 3097 1268 2742 
Q 959 2388 959 1747 
Q 959 1106 1268 751 
Q 1578 397 2138 397 
Q 2388 397 2633 464 
Q 2878 531 3122 666 
L 3122 134 
Q 2881 22 2623 -34 
Q 2366 -91 2075 -91 
Q 1284 -91 818 406 
Q 353 903 353 1747 
Q 353 2603 823 3093 
Q 1294 3584 2113 3584 
Q 2378 3584 2631 3529 
Q 2884 3475 3122 3366 
z
" transform="scale(0.015625)"/>
       <path id="DejaVuSans-66" d="M 2375 4863 
L 2375 4384 
L 1825 4384 
Q 1516 4384 1395 4259 
Q 1275 4134 1275 3809 
L 1275 3500 
L 2222 3500 
L 2222 3053 
L 1275 3053 
L 1275 0 
L 697 0 
L 697 3053 
L 147 3053 
L 147 3500 
L 697 3500 
L 697 3744 
Q 697 4328 969 4595 
Q 1241 4863 1831 4863 
L 2375 4863 
z
" transform="scale(0.015625)"/>
       <path id="DejaVuSans-71" d="M 947 1747 
Q 947 1113 1208 752 
Q 1469 391 1925 391 
Q 2381 391 2643 752 
Q 2906 1113 2906 1747 
Q 2906 2381 2643 2742 
Q 2381 3103 1925 3103 
Q 1469 3103 1208 2742 
Q 947 2381 947 1747 
z
M 2906 525 
Q 2725 213 2448 61 
Q 2172 -91 1784 -91 
Q 1150 -91 751 415 
Q 353 922 353 1747 
Q 353 2572 751 3078 
Q 1150 3584 1784 3584 
Q 2172 3584 2448 3432 
Q 2725 3281 2906 2969 
L 2906 3500 
L 3481 3500 
L 3481 -1331 
L 2906 -1331 
L 2906 525 
z
" transform="scale(0.015625)"/>
       <path id="DejaVuSans-75" d="M 544 1381 
L 544 3500 
L 1119 3500 
L 1119 1403 
Q 1119 906 1312 657 
Q 1506 409 1894 409 
Q 2359 409 2629 706 
Q 2900 1003 2900 1516 
L 2900 3500 
L 3475 3500 
L 3475 0 
L 2900 0 
L 2900 538 
Q 2691 219 2414 64 
Q 2138 -91 1772 -91 
Q 1169 -91 856 284 
Q 544 659 544 1381 
z
M 1991 3584 
L 1991 3584 
z
" transform="scale(0.015625)"/>
      </defs>
      <use xlink:href="#DejaVuSans-4e"/>
      <use xlink:href="#DejaVuSans-6f" transform="translate(74.804688 0)"/>
      <use xlink:href="#DejaVuSans-72" transform="translate(135.986328 0)"/>
      <use xlink:href="#DejaVuSans-6d" transform="translate(175.349609 0)"/>
      <use xlink:href="#DejaVuSans-61" transform="translate(272.761719 0)"/>
      <use xlink:href="#DejaVuSans-6c" transform="translate(334.041016 0)"/>
      <use xlink:href="#DejaVuSans-69" transform="translate(361.824219 0)"/>
      <use xlink:href="#DejaVuSans-7a" transform="translate(389.607422 0)"/>
      <use xlink:href="#DejaVuSans-65" transform="translate(442.097656 0)"/>
      <use xlink:href="#DejaVuSans-64" transform="translate(503.621094 0)"/>
      <use xlink:href="#DejaVuSans-20" transform="translate(567.097656 0)"/>
      <use xlink:href="#DejaVuSans-64" transform="translate(598.884766 0)"/>
      <use xlink:href="#DejaVuSans-69" transform="translate(662.361328 0)"/>
      <use xlink:href="#DejaVuSans-73" transform="translate(690.144531 0)"/>
      <use xlink:href="#DejaVuSans-74" transform="translate(742.244141 0)"/>
      <use xlink:href="#DejaVuSans-61" transform="translate(781.453125 0)"/>
      <use xlink:href="#DejaVuSans-6e" transform="translate(842.732422 0)"/>
      <use xlink:href="#DejaVuSans-63" transform="translate(906.111328 0)"/>
      <use xlink:href="#DejaVuSans-65" transform="translate(961.091797 0)"/>
      <use xlink:href="#DejaVuSans-20" transform="translate(1022.615234 0)"/>
      <use xlink:href="#DejaVuSans-66" transform="translate(1054.402344 0)"/>
      <use xlink:href="#DejaVuSans-72" transform="translate(1089.607422 0)"/>
      <use xlink:href="#DejaVuSans-6f" transform="translate(1128.470703 0)"/>
      <use xlink:href="#DejaVuSans-6d" transform="translate(1189.652344 0)"/>
      <use xlink:href="#DejaVuSans-20" transform="translate(1287.064453 0)"/>
      <use xlink:href="#DejaVuSans-65" transform="translate(1318.851562 0)"/>
      <use xlink:href="#DejaVuSans-71" transform="translate(1380.375 0)"/>
      <use xlink:href="#DejaVuSans-75" transform="translate(1443.851562 0)"/>
      <use xlink:href="#DejaVuSans-61" transform="translate(1507.230469 0)"/>
      <use xlink:href="#DejaVuSans-74" transform="translate(1568.509766 0)"/>
      <use xlink:href="#DejaVuSans-6f" transform="translate(1607.71875 0)"/>
      <use xlink:href="#DejaVuSans-72" transform="translate(1668.900391 0)"/>
     </g>
    </g>
   </g>
   <g id="matplotlib.axis_2">
    <g id="ytick_1">
     <g id="line2d_7">
      <defs>
       <path id="m35784e2354" d="M 0 0 
L -6 0 
" style="stroke: #000000; stroke-width: 1.5"/>
      </defs>
      <g>
       <use xlink:href="#m35784e2354" x="55.26875" y="376.096875" style="stroke: #000000; stroke-width: 1.5"/>
      </g>
     </g>
     <g id="text_8">
      <!-- 0.0 -->
      <g transform="translate(26.685 380.655937) scale(0.12 -0.12)">
       <use xlink:href="#DejaVuSans-30"/>
       <use xlink:href="#DejaVuSans-2e" transform="translate(63.623047 0)"/>
       <use xlink:href="#DejaVuSans-30" transform="translate(95.410156 0)"/>
      </g>
     </g>
    </g>
    <g id="ytick_2">
     <g id="line2d_8">
      <g>
       <use xlink:href="#m35784e2354" x="55.26875" y="312.513397" style="stroke: #000000; stroke-width: 1.5"/>
      </g>
     </g>
     <g id="text_9">
      <!-- 0.2 -->
      <g transform="translate(26.685 317.07246) scale(0.12 -0.12)">
       <use xlink:href="#DejaVuSans-30"/>
       <use xlink:href="#DejaVuSans-2e" transform="translate(63.623047 0)"/>
       <use xlink:href="#DejaVuSans-32" transform="translate(95.410156 0)"/>
      </g>
     </g>
    </g>
    <g id="ytick_3">
     <g id="line2d_9">
      <g>
       <use xlink:href="#m35784e2354" x="55.26875" y="248.92992" style="stroke: #000000; stroke-width: 1.5"/>
      </g>
     </g>
     <g id="text_10">
      <!-- 0.4 -->
      <g transform="translate(26.685 253.488982) scale(0.12 -0.12)">
       <use xlink:href="#DejaVuSans-30"/>
       <use xlink:href="#DejaVuSans-2e" transform="translate(63.623047 0)"/>
       <use xlink:href="#DejaVuSans-34" transform="translate(95.410156 0)"/>
      </g>
     </g>
    </g>
    <g id="ytick_4">
     <g id="line2d_10">
      <g>
       <use xlink:href="#m35784e2354" x="55.26875" y="185.346442" style="stroke: #000000; stroke-width: 1.5"/>
      </g>
     </g>
     <g id="text_11">
      <!-- 0.6 -->
      <g transform="translate(26.685 189.905505) scale(0.12 -0.12)">
       <use xlink:href="#DejaVuSans-30"/>
       <use xlink:href="#DejaVuSans-2e" transform="translate(63.623047 0)"/>
       <use xlink:href="#DejaVuSans-36" transform="translate(95.410156 0)"/>
      </g>
     </g>
    </g>
    <g id="ytick_5">
     <g id="line2d_11">
      <g>
       <use xlink:href="#m35784e2354" x="55.26875" y="121.762964" style="stroke: #000000; stroke-width: 1.5"/>
      </g>
     </g>
     <g id="text_12">
      <!-- 0.8 -->
      <g transform="translate(26.685 126.322027) scale(0.12 -0.12)">
       <use xlink:href="#DejaVuSans-30"/>
       <use xlink:href="#DejaVuSans-2e" transform="translate(63.623047 0)"/>
       <use xlink:href="#DejaVuSans-38" transform="translate(95.410156 0)"/>
      </g>
     </g>
    </g>
    <g id="ytick_6">
     <g id="line2d_12">
      <g>
       <use xlink:href="#m35784e2354" x="55.26875" y="58.179487" style="stroke: #000000; stroke-width: 1.5"/>
      </g>
     </g>
     <g id="text_13">
      <!-- 1.0 -->
      <g transform="translate(26.685 62.738549) scale(0.12 -0.12)">
       <use xlink:href="#DejaVuSans-31"/>
       <use xlink:href="#DejaVuSans-2e" transform="translate(63.623047 0)"/>
       <use xlink:href="#DejaVuSans-30" transform="translate(95.410156 0)"/>
      </g>
     </g>
    </g>
    <g id="text_14">
     <!-- Peak-Normalized intensity -->
     <g transform="translate(19.3575 313.718125) rotate(-90) scale(0.16 -0.16)">
      <defs>
       <path id="DejaVuSans-50" d="M 1259 4147 
L 1259 2394 
L 2053 2394 
Q 2494 2394 2734 2622 
Q 2975 2850 2975 3272 
Q 2975 3691 2734 3919 
Q 2494 4147 2053 4147 
L 1259 4147 
z
M 628 4666 
L 2053 4666 
Q 2838 4666 3239 4311 
Q 3641 3956 3641 3272 
Q 3641 2581 3239 2228 
Q 2838 1875 2053 1875 
L 1259 1875 
L 1259 0 
L 628 0 
L 628 4666 
z
" transform="scale(0.015625)"/>
       <path id="DejaVuSans-6b" d="M 581 4863 
L 1159 4863 
L 1159 1991 
L 2875 3500 
L 3609 3500 
L 1753 1863 
L 3688 0 
L 2938 0 
L 1159 1709 
L 1159 0 
L 581 0 
L 581 4863 
z
" transform="scale(0.015625)"/>
       <path id="DejaVuSans-2d" d="M 313 2009 
L 1997 2009 
L 1997 1497 
L 313 1497 
L 313 2009 
z
" transform="scale(0.015625)"/>
       <path id="DejaVuSans-79" d="M 2059 -325 
Q 1816 -950 1584 -1140 
Q 1353 -1331 966 -1331 
L 506 -1331 
L 506 -850 
L 844 -850 
Q 1081 -850 1212 -737 
Q 1344 -625 1503 -206 
L 1606 56 
L 191 3500 
L 800 3500 
L 1894 763 
L 2988 3500 
L 3597 3500 
L 2059 -325 
z
" transform="scale(0.015625)"/>
      </defs>
      <use xlink:href="#DejaVuSans-50"/>
      <use xlink:href="#DejaVuSans-65" transform="translate(56.677734 0)"/>
      <use xlink:href="#DejaVuSans-61" transform="translate(118.201172 0)"/>
      <use xlink:href="#DejaVuSans-6b" transform="translate(179.480469 0)"/>
      <use xlink:href="#DejaVuSans-2d" transform="translate(237.390625 0)"/>
      <use xlink:href="#DejaVuSans-4e" transform="translate(273.474609 0)"/>
      <use xlink:href="#DejaVuSans-6f" transform="translate(348.279297 0)"/>
      <use xlink:href="#DejaVuSans-72" transform="translate(409.460938 0)"/>
      <use xlink:href="#DejaVuSans-6d" transform="translate(448.824219 0)"/>
      <use xlink:href="#DejaVuSans-61" transform="translate(546.236328 0)"/>
      <use xlink:href="#DejaVuSans-6c" transform="translate(607.515625 0)"/>
      <use xlink:href="#DejaVuSans-69" transform="translate(635.298828 0)"/>
      <use xlink:href="#DejaVuSans-7a" transform="translate(663.082031 0)"/>
      <use xlink:href="#DejaVuSans-65" transform="translate(715.572266 0)"/>
      <use xlink:href="#DejaVuSans-64" transform="translate(777.095703 0)"/>
      <use xlink:href="#DejaVuSans-20" transform="translate(840.572266 0)"/>
      <use xlink:href="#DejaVuSans-69" transform="translate(872.359375 0)"/>
      <use xlink:href="#DejaVuSans-6e" transform="translate(900.142578 0)"/>
      <use xlink:href="#DejaVuSans-74" transform="translate(963.521484 0)"/>
      <use xlink:href="#DejaVuSans-65" transform="translate(1002.730469 0)"/>
      <use xlink:href="#DejaVuSans-6e" transform="translate(1064.253906 0)"/>
      <use xlink:href="#DejaVuSans-73" transform="translate(1127.632812 0)"/>
      <use xlink:href="#DejaVuSans-69" transform="translate(1179.732422 0)"/>
      <use xlink:href="#DejaVuSans-74" transform="translate(1207.515625 0)"/>
      <use xlink:href="#DejaVuSans-79" transform="translate(1246.724609 0)"/>
     </g>
    </g>
   </g>
   <g id="line2d_13">
    <path d="M 67.719125 244.910595 
L 92.619875 213.090945 
L 117.520625 178.759216 
L 142.421375 246.306194 
L 167.322125 234.583165 
L 192.222875 181.271294 
L 217.123625 160.058193 
L 242.024375 166.477947 
L 266.925125 138.845093 
L 291.825875 184.620731 
L 316.726625 179.317456 
L 341.627375 163.96587 
L 366.528125 142.473649 
L 391.428875 150.847242 
L 416.329625 242.398518 
L 441.230375 215.044783 
L 466.131125 128.238542 
L 491.031875 137.170374 
L 515.932625 127.401183 
L 540.833375 58.179487 
" clip-path="url(#pdaade78a7d)" style="fill: none; stroke: #808080; stroke-opacity: 0.3; stroke-width: 1.5; stroke-linecap: square"/>
   </g>
   <g id="line2d_14">
    <path d="M 67.719125 366.628979 
L 92.619875 365.929811 
L 117.520625 363.249668 
L 142.421375 365.055851 
L 167.322125 359.986885 
L 192.222875 342.886408 
L 217.123625 303.49996 
L 242.024375 309.763338 
L 266.925125 332.311497 
L 291.825875 350.955969 
L 316.726625 333.97202 
L 341.627375 282.466665 
L 366.528125 198.828726 
L 391.428875 58.179487 
L 416.329625 100.653926 
L 441.230375 89.117658 
L 466.131125 140.943465 
L 491.031875 222.046921 
L 515.932625 291.526713 
L 540.833375 300.266309 
" clip-path="url(#pdaade78a7d)" style="fill: none; stroke: #808080; stroke-opacity: 0.3; stroke-width: 1.5; stroke-linecap: square"/>
   </g>
   <g id="line2d_15">
    <path d="M 67.719125 122.149882 
L 92.619875 163.378114 
L 117.520625 169.69777 
L 142.421375 162.002407 
L 167.322125 122.278855 
L 192.222875 181.606237 
L 217.123625 172.793112 
L 242.024375 166.989346 
L 266.925125 145.708872 
L 291.825875 91.497401 
L 316.726625 108.779726 
L 341.627375 58.179487 
L 366.528125 127.007849 
L 391.428875 182.895963 
L 416.329625 144.806064 
L 441.230375 187.23804 
L 466.131125 197.942763 
L 491.031875 167.2043 
L 515.932625 259.935579 
L 540.833375 267.458979 
" clip-path="url(#pdaade78a7d)" style="fill: none; stroke: #808080; stroke-opacity: 0.3; stroke-width: 1.5; stroke-linecap: square"/>
   </g>
   <g id="line2d_16">
    <path d="M 67.719125 100.100682 
L 92.619875 81.08921 
L 117.520625 81.988806 
L 142.421375 96.922108 
L 167.322125 58.179487 
L 192.222875 115.693687 
L 217.123625 187.121646 
L 242.024375 244.096088 
L 266.925125 286.617014 
L 291.825875 268.685058 
L 316.726625 341.132559 
L 341.627375 341.672317 
L 366.528125 340.352909 
L 391.428875 339.333366 
L 416.329625 337.714093 
L 441.230375 347.309788 
L 466.131125 345.750488 
L 491.031875 356.845511 
L 515.932625 363.502525 
L 540.833375 364.282175 
" clip-path="url(#pdaade78a7d)" style="fill: none; stroke: #808080; stroke-opacity: 0.3; stroke-width: 1.5; stroke-linecap: square"/>
   </g>
   <g id="line2d_17">
    <path d="M 67.719125 58.179487 
L 92.619875 217.05304 
L 117.520625 260.304789 
L 142.421375 281.419817 
L 167.322125 343.402639 
L 192.222875 361.112017 
L 217.123625 362.474277 
L 242.024375 370.307271 
L 266.925125 369.796423 
L 291.825875 372.520943 
L 316.726625 371.158683 
L 341.627375 370.136988 
L 366.528125 371.158683 
L 391.428875 368.604446 
L 416.329625 369.966706 
L 441.230375 371.499248 
L 466.131125 372.010096 
L 491.031875 371.328966 
L 515.932625 370.647836 
L 540.833375 370.988401 
" clip-path="url(#pdaade78a7d)" style="fill: none; stroke: #808080; stroke-opacity: 0.3; stroke-width: 1.5; stroke-linecap: square"/>
   </g>
   <g id="line2d_18">
    <path d="M 67.719125 277.005741 
L 92.619875 242.305288 
L 117.520625 214.888218 
L 142.421375 148.873853 
L 167.322125 181.34754 
L 192.222875 190.950472 
L 217.123625 154.023252 
L 242.024375 185.708292 
L 266.925125 178.9816 
L 291.825875 109.209565 
L 316.726625 160.889117 
L 341.627375 155.368591 
L 366.528125 121.224829 
L 391.428875 58.179487 
L 416.329625 123.497987 
L 441.230375 132.033927 
L 466.131125 180.88363 
L 491.031875 236.27446 
L 515.932625 207.651225 
L 540.833375 291.433336 
" clip-path="url(#pdaade78a7d)" style="fill: none; stroke: #808080; stroke-opacity: 0.3; stroke-width: 1.5; stroke-linecap: square"/>
   </g>
   <g id="line2d_19">
    <path d="M 67.719125 58.179487 
L 92.619875 77.867982 
L 117.520625 109.628634 
L 142.421375 214.081283 
L 167.322125 211.231632 
L 192.222875 72.42774 
L 217.123625 75.225579 
L 242.024375 79.681396 
L 266.925125 77.764358 
L 291.825875 138.436011 
L 316.726625 152.943324 
L 341.627375 189.263416 
L 366.528125 281.436662 
L 391.428875 334.33654 
L 416.329625 344.180788 
L 441.230375 327.860061 
L 466.131125 318.015814 
L 491.031875 321.953513 
L 515.932625 329.258981 
L 540.833375 350.968137 
" clip-path="url(#pdaade78a7d)" style="fill: none; stroke: #808080; stroke-opacity: 0.3; stroke-width: 1.5; stroke-linecap: square"/>
   </g>
   <g id="line2d_20">
    <path d="M 67.719125 245.055658 
L 92.619875 300.076691 
L 117.520625 323.300558 
L 142.421375 304.092032 
L 167.322125 332.253685 
L 192.222875 343.91988 
L 217.123625 328.184082 
L 242.024375 332.524992 
L 266.925125 348.966188 
L 291.825875 343.323005 
L 316.726625 351.082382 
L 341.627375 342.72613 
L 366.528125 348.043745 
L 391.428875 322.215331 
L 416.329625 250.319011 
L 441.230375 127.851091 
L 466.131125 58.179487 
L 491.031875 113.743133 
L 515.932625 240.389179 
L 540.833375 294.433508 
" clip-path="url(#pdaade78a7d)" style="fill: none; stroke: #808080; stroke-opacity: 0.3; stroke-width: 1.5; stroke-linecap: square"/>
   </g>
   <g id="line2d_21">
    <path d="M 67.719125 314.914235 
L 92.619875 314.527003 
L 117.520625 342.214084 
L 142.421375 326.724808 
L 167.322125 298.650495 
L 192.222875 288.195234 
L 217.123625 203.77868 
L 242.024375 203.972296 
L 266.925125 205.521224 
L 291.825875 182.28731 
L 316.726625 86.060183 
L 341.627375 58.179487 
L 366.528125 293.035633 
L 391.428875 327.886504 
L 416.329625 230.304065 
L 441.230375 270.188951 
L 466.131125 277.546357 
L 491.031875 265.348552 
L 515.932625 246.761421 
L 540.833375 320.529098 
" clip-path="url(#pdaade78a7d)" style="fill: none; stroke: #808080; stroke-opacity: 0.3; stroke-width: 1.5; stroke-linecap: square"/>
   </g>
   <g id="line2d_22">
    <path d="M 67.719125 355.337934 
L 92.619875 354.038305 
L 117.520625 357.621066 
L 142.421375 354.28418 
L 167.322125 340.971763 
L 192.222875 345.116526 
L 217.123625 337.283626 
L 242.024375 282.699202 
L 266.925125 164.784201 
L 291.825875 163.976324 
L 316.726625 169.877343 
L 341.627375 141.988004 
L 366.528125 186.315895 
L 391.428875 177.358992 
L 416.329625 209.77947 
L 441.230375 151.506909 
L 466.131125 58.179487 
L 491.031875 64.010255 
L 515.932625 240.092442 
L 540.833375 346.17028 
" clip-path="url(#pdaade78a7d)" style="fill: none; stroke: #808080; stroke-opacity: 0.3; stroke-width: 1.5; stroke-linecap: square"/>
   </g>
   <g id="line2d_23">
    <path d="M 67.719125 58.179487 
L 92.619875 196.0387 
L 117.520625 343.005102 
L 142.421375 333.758872 
L 167.322125 342.240376 
L 192.222875 348.358183 
L 217.123625 346.68969 
L 242.024375 330.213325 
L 266.925125 335.496885 
L 291.825875 320.967094 
L 316.726625 337.095857 
L 341.627375 350.791402 
L 366.528125 360.871879 
L 391.428875 358.647222 
L 416.329625 361.358522 
L 441.230375 348.566745 
L 466.131125 335.496885 
L 491.031875 339.111953 
L 515.932625 338.76435 
L 540.833375 351.208525 
" clip-path="url(#pdaade78a7d)" style="fill: none; stroke: #808080; stroke-opacity: 0.3; stroke-width: 1.5; stroke-linecap: square"/>
   </g>
   <g id="line2d_24">
    <path d="M 67.719125 105.628997 
L 92.619875 58.179487 
L 117.520625 268.4993 
L 142.421375 330.461444 
L 167.322125 336.130442 
L 192.222875 349.679346 
L 217.123625 346.051187 
L 242.024375 336.697341 
L 266.925125 351.266665 
L 291.825875 335.110022 
L 316.726625 348.658926 
L 341.627375 352.513845 
L 366.528125 353.477574 
L 391.428875 355.291654 
L 416.329625 351.663495 
L 441.230375 340.83571 
L 466.131125 322.411467 
L 491.031875 359.883542 
L 515.932625 342.989929 
L 540.833375 338.341351 
" clip-path="url(#pdaade78a7d)" style="fill: none; stroke: #808080; stroke-opacity: 0.3; stroke-width: 1.5; stroke-linecap: square"/>
   </g>
   <g id="line2d_25">
    <path d="M 67.719125 345.506886 
L 92.619875 351.659384 
L 117.520625 351.486884 
L 142.421375 353.873133 
L 167.322125 345.075636 
L 192.222875 347.720635 
L 217.123625 307.154399 
L 242.024375 265.984414 
L 266.925125 166.480699 
L 291.825875 58.179487 
L 316.726625 83.766978 
L 341.627375 170.218197 
L 366.528125 267.220663 
L 391.428875 320.724394 
L 416.329625 346.944385 
L 441.230375 346.053136 
L 466.131125 351.745634 
L 491.031875 357.840631 
L 515.932625 364.654379 
L 540.833375 370.778127 
" clip-path="url(#pdaade78a7d)" style="fill: none; stroke: #808080; stroke-opacity: 0.3; stroke-width: 1.5; stroke-linecap: square"/>
   </g>
   <g id="line2d_26">
    <path d="M 67.719125 341.848228 
L 92.619875 329.947577 
L 117.520625 339.0513 
L 142.421375 315.551628 
L 167.322125 345.933935 
L 192.222875 350.321272 
L 217.123625 339.02388 
L 242.024375 325.286031 
L 266.925125 297.481285 
L 291.825875 170.413045 
L 316.726625 58.179487 
L 341.627375 92.236188 
L 366.528125 59.194058 
L 391.428875 151.849126 
L 416.329625 286.046788 
L 441.230375 306.502746 
L 466.131125 341.464336 
L 491.031875 356.463543 
L 515.932625 359.26047 
L 540.833375 368.419036 
" clip-path="url(#pdaade78a7d)" style="fill: none; stroke: #808080; stroke-opacity: 0.3; stroke-width: 1.5; stroke-linecap: square"/>
   </g>
   <g id="line2d_27">
    <path d="M 67.719125 305.028949 
L 92.619875 292.368902 
L 117.520625 105.300612 
L 142.421375 102.425279 
L 167.322125 58.179487 
L 192.222875 263.701405 
L 217.123625 295.158404 
L 242.024375 351.935497 
L 266.925125 333.911023 
L 291.825875 341.378305 
L 316.726625 347.300632 
L 341.627375 336.700525 
L 366.528125 353.222959 
L 391.428875 348.373517 
L 416.329625 357.686162 
L 441.230375 346.871478 
L 466.131125 354.553337 
L 491.031875 349.575149 
L 515.932625 358.372809 
L 540.833375 357.299924 
" clip-path="url(#pdaade78a7d)" style="fill: none; stroke: #808080; stroke-opacity: 0.3; stroke-width: 1.5; stroke-linecap: square"/>
   </g>
   <g id="line2d_28">
    <path d="M 67.719125 126.394044 
L 92.619875 188.663297 
L 117.520625 148.610712 
L 142.421375 186.785832 
L 167.322125 58.179487 
L 192.222875 147.046158 
L 217.123625 162.065877 
L 242.024375 210.567054 
L 266.925125 149.236534 
L 291.825875 216.199448 
L 316.726625 204.934659 
L 341.627375 154.243107 
L 366.528125 218.702735 
L 391.428875 206.186302 
L 416.329625 245.613065 
L 441.230375 211.505786 
L 466.131125 268.455555 
L 491.031875 219.641467 
L 515.932625 274.087949 
L 540.833375 272.210484 
" clip-path="url(#pdaade78a7d)" style="fill: none; stroke: #808080; stroke-opacity: 0.3; stroke-width: 1.5; stroke-linecap: square"/>
   </g>
   <g id="line2d_29">
    <path d="M 67.719125 342.096526 
L 92.619875 348.124289 
L 117.520625 341.578515 
L 142.421375 319.304049 
L 167.322125 315.207054 
L 192.222875 318.456395 
L 217.123625 334.467639 
L 242.024375 350.14924 
L 266.925125 319.82206 
L 291.825875 327.074212 
L 316.726625 300.891117 
L 341.627375 293.168047 
L 366.528125 304.941021 
L 391.428875 298.348155 
L 416.329625 238.918183 
L 441.230375 246.499978 
L 466.131125 183.161378 
L 491.031875 58.179487 
L 515.932625 75.038385 
L 540.833375 269.998834 
" clip-path="url(#pdaade78a7d)" style="fill: none; stroke: #808080; stroke-opacity: 0.3; stroke-width: 1.5; stroke-linecap: square"/>
   </g>
   <g id="line2d_30">
    <path d="M 67.719125 310.184703 
L 92.619875 306.489167 
L 117.520625 307.147276 
L 142.421375 329.776109 
L 167.322125 340.710847 
L 192.222875 314.69022 
L 217.123625 284.366571 
L 242.024375 291.707021 
L 266.925125 337.521549 
L 291.825875 346.127593 
L 316.726625 326.131196 
L 341.627375 302.034273 
L 366.528125 305.476691 
L 391.428875 286.594018 
L 416.329625 282.544115 
L 441.230375 109.157641 
L 466.131125 58.179487 
L 491.031875 123.281678 
L 515.932625 276.216141 
L 540.833375 338.280905 
" clip-path="url(#pdaade78a7d)" style="fill: none; stroke: #808080; stroke-opacity: 0.3; stroke-width: 1.5; stroke-linecap: square"/>
   </g>
   <g id="line2d_31">
    <path d="M 67.719125 58.179487 
L 92.619875 162.039315 
L 117.520625 174.715121 
L 142.421375 221.636047 
L 167.322125 220.511581 
L 192.222875 243.716483 
L 217.123625 275.712671 
L 242.024375 301.779852 
L 266.925125 310.060016 
L 291.825875 314.966779 
L 316.726625 260.787932 
L 341.627375 196.38666 
L 366.528125 185.346442 
L 391.428875 202.41789 
L 416.329625 245.454296 
L 441.230375 264.36578 
L 466.131125 254.24558 
L 491.031875 263.343538 
L 515.932625 221.124926 
L 540.833375 265.899144 
" clip-path="url(#pdaade78a7d)" style="fill: none; stroke: #808080; stroke-opacity: 0.3; stroke-width: 1.5; stroke-linecap: square"/>
   </g>
   <g id="line2d_32">
    <path d="M 67.719125 286.881666 
L 92.619875 294.205017 
L 117.520625 320.790311 
L 142.421375 314.954515 
L 167.322125 316.213216 
L 192.222875 315.488509 
L 217.123625 307.173453 
L 242.024375 297.523411 
L 266.925125 222.954906 
L 291.825875 137.439515 
L 316.726625 75.61059 
L 341.627375 63.176149 
L 366.528125 76.487867 
L 391.428875 58.179487 
L 416.329625 104.903998 
L 441.230375 176.802531 
L 466.131125 244.200255 
L 491.031875 287.644515 
L 515.932625 304.579766 
L 540.833375 333.262895 
" clip-path="url(#pdaade78a7d)" style="fill: none; stroke: #808080; stroke-opacity: 0.3; stroke-width: 1.5; stroke-linecap: square"/>
   </g>
   <g id="line2d_33">
    <path d="M 67.719125 296.599469 
L 92.619875 327.083708 
L 117.520625 328.889646 
L 142.421375 325.458363 
L 167.322125 349.080037 
L 192.222875 352.764151 
L 217.123625 343.048203 
L 242.024375 338.280526 
L 266.925125 331.41796 
L 291.825875 329.756497 
L 316.726625 328.095033 
L 341.627375 325.56672 
L 366.528125 317.295522 
L 391.428875 316.392553 
L 416.329625 259.07207 
L 441.230375 129.983596 
L 466.131125 58.179487 
L 491.031875 154.688832 
L 515.932625 270.268887 
L 540.833375 352.619676 
" clip-path="url(#pdaade78a7d)" style="fill: none; stroke: #808080; stroke-opacity: 0.3; stroke-width: 1.5; stroke-linecap: square"/>
   </g>
   <g id="line2d_34">
    <path d="M 67.719125 175.257551 
L 92.619875 262.538192 
L 117.520625 308.681183 
L 142.421375 283.96731 
L 167.322125 278.492717 
L 192.222875 273.018125 
L 217.123625 290.771446 
L 242.024375 312.669814 
L 266.925125 309.150434 
L 291.825875 281.699264 
L 316.726625 296.167829 
L 341.627375 291.709947 
L 366.528125 290.380403 
L 391.428875 219.132497 
L 416.329625 103.071143 
L 441.230375 67.877336 
L 466.131125 192.698037 
L 491.031875 274.660503 
L 515.932625 234.070312 
L 540.833375 58.179487 
" clip-path="url(#pdaade78a7d)" style="fill: none; stroke: #808080; stroke-opacity: 0.3; stroke-width: 1.5; stroke-linecap: square"/>
   </g>
   <g id="line2d_35">
    <path d="M 67.719125 337.31694 
L 92.619875 346.361254 
L 117.520625 331.65611 
L 142.421375 321.310456 
L 167.322125 346.686589 
L 192.222875 317.731771 
L 217.123625 320.074183 
L 242.024375 268.606182 
L 266.925125 92.534866 
L 291.825875 58.179487 
L 316.726625 175.43023 
L 341.627375 132.551074 
L 366.528125 249.476483 
L 391.428875 288.776954 
L 416.329625 340.179888 
L 441.230375 317.471503 
L 466.131125 342.196965 
L 491.031875 335.169729 
L 515.932625 325.409678 
L 540.833375 321.830993 
" clip-path="url(#pdaade78a7d)" style="fill: none; stroke: #808080; stroke-opacity: 0.3; stroke-width: 1.5; stroke-linecap: square"/>
   </g>
   <g id="line2d_36">
    <path d="M 67.719125 310.763735 
L 92.619875 318.395241 
L 117.520625 357.669579 
L 142.421375 304.807437 
L 167.322125 314.114152 
L 192.222875 269.255785 
L 217.123625 321.745659 
L 242.024375 238.171357 
L 266.925125 283.588127 
L 291.825875 247.105804 
L 316.726625 308.530123 
L 341.627375 313.369615 
L 366.528125 323.234733 
L 391.428875 299.223408 
L 416.329625 335.891866 
L 441.230375 229.050776 
L 466.131125 237.054551 
L 491.031875 58.179487 
L 515.932625 222.908344 
L 540.833375 248.781012 
" clip-path="url(#pdaade78a7d)" style="fill: none; stroke: #808080; stroke-opacity: 0.3; stroke-width: 1.5; stroke-linecap: square"/>
   </g>
   <g id="line2d_37">
    <path d="M 67.719125 370.831923 
L 92.619875 366.791379 
L 117.520625 369.607516 
L 142.421375 366.760768 
L 167.322125 366.117954 
L 192.222875 362.01619 
L 217.123625 362.0468 
L 242.024375 355.49622 
L 266.925125 347.23147 
L 291.825875 301.714124 
L 316.726625 254.635658 
L 341.627375 207.955125 
L 366.528125 85.667433 
L 391.428875 58.179487 
L 416.329625 165.8049 
L 441.230375 175.84504 
L 466.131125 287.357947 
L 491.031875 344.0174 
L 515.932625 369.546295 
L 540.833375 373.831721 
" clip-path="url(#pdaade78a7d)" style="fill: none; stroke: #808080; stroke-opacity: 0.3; stroke-width: 1.5; stroke-linecap: square"/>
   </g>
   <g id="line2d_38">
    <path d="M 67.719125 210.07335 
L 92.619875 194.530722 
L 117.520625 268.711446 
L 142.421375 226.322461 
L 167.322125 282.134625 
L 192.222875 287.786489 
L 217.123625 294.144837 
L 242.024375 268.711446 
L 266.925125 272.950345 
L 291.825875 186.052925 
L 316.726625 139.425042 
L 341.627375 104.80737 
L 366.528125 118.230549 
L 391.428875 222.083562 
L 416.329625 268.004963 
L 441.230375 58.179487 
L 466.131125 94.916607 
L 491.031875 126.001863 
L 515.932625 209.366867 
L 540.833375 315.33933 
" clip-path="url(#pdaade78a7d)" style="fill: none; stroke: #808080; stroke-opacity: 0.3; stroke-width: 1.5; stroke-linecap: square"/>
   </g>
   <g id="line2d_39">
    <path d="M 67.719125 83.786814 
L 92.619875 143.215141 
L 117.520625 166.88984 
L 142.421375 166.24563 
L 167.322125 65.265791 
L 192.222875 135.162522 
L 217.123625 86.524705 
L 242.024375 87.007862 
L 266.925125 70.58052 
L 291.825875 115.514132 
L 316.726625 58.179487 
L 341.627375 135.806731 
L 366.528125 235.820256 
L 391.428875 162.541426 
L 416.329625 128.559375 
L 441.230375 126.304641 
L 466.131125 241.457089 
L 491.031875 223.258171 
L 515.932625 280.270712 
L 540.833375 341.470614 
" clip-path="url(#pdaade78a7d)" style="fill: none; stroke: #808080; stroke-opacity: 0.3; stroke-width: 1.5; stroke-linecap: square"/>
   </g>
   <g id="line2d_40">
    <path d="M 67.719125 304.589761 
L 92.619875 248.402294 
L 117.520625 197.028251 
L 142.421375 201.332563 
L 167.322125 305.330288 
L 192.222875 236.276169 
L 217.123625 275.385238 
L 242.024375 256.825786 
L 266.925125 308.616375 
L 291.825875 294.731499 
L 316.726625 319.539145 
L 341.627375 321.621876 
L 366.528125 308.52381 
L 391.428875 196.148876 
L 416.329625 105.249218 
L 441.230375 79.238216 
L 466.131125 235.211662 
L 491.031875 86.689766 
L 515.932625 58.179487 
L 540.833375 161.436685 
" clip-path="url(#pdaade78a7d)" style="fill: none; stroke: #808080; stroke-opacity: 0.3; stroke-width: 1.5; stroke-linecap: square"/>
   </g>
   <g id="line2d_41">
    <path d="M 67.719125 262.637418 
L 92.619875 300.002419 
L 117.520625 310.498206 
L 142.421375 304.305692 
L 167.322125 317.320468 
L 192.222875 348.702871 
L 217.123625 334.848432 
L 242.024375 241.226012 
L 266.925125 58.179487 
L 291.825875 124.617818 
L 316.726625 298.00822 
L 341.627375 308.294091 
L 366.528125 322.14853 
L 391.428875 310.393248 
L 416.329625 272.188584 
L 441.230375 270.4043 
L 466.131125 257.179608 
L 491.031875 291.290916 
L 515.932625 359.828405 
L 540.833375 366.755625 
" clip-path="url(#pdaade78a7d)" style="fill: none; stroke: #808080; stroke-opacity: 0.3; stroke-width: 1.5; stroke-linecap: square"/>
   </g>
   <g id="line2d_42">
    <path d="M 67.719125 299.801648 
L 92.619875 226.020742 
L 117.520625 210.687504 
L 142.421375 189.3776 
L 167.322125 125.530325 
L 192.222875 138.060713 
L 217.123625 58.179487 
L 242.024375 101.623662 
L 266.925125 243.373682 
L 291.825875 316.000473 
L 316.726625 349.71711 
L 341.627375 294.773005 
L 366.528125 234.882695 
L 391.428875 195.189392 
L 416.329625 162.915398 
L 441.230375 303.0579 
L 466.131125 350.088075 
L 491.031875 352.808489 
L 515.932625 364.555728 
L 540.833375 367.399796 
" clip-path="url(#pdaade78a7d)" style="fill: none; stroke: #808080; stroke-opacity: 0.3; stroke-width: 1.5; stroke-linecap: square"/>
   </g>
   <g id="line2d_43">
    <path d="M 67.719125 121.930179 
L 92.619875 93.433968 
L 117.520625 161.713398 
L 142.421375 150.078026 
L 167.322125 143.528775 
L 192.222875 182.2669 
L 217.123625 58.179487 
L 242.024375 81.937942 
L 266.925125 194.32031 
L 291.825875 235.636333 
L 316.726625 275.767916 
L 341.627375 277.718757 
L 366.528125 216.127924 
L 391.428875 190.69732 
L 416.329625 215.988578 
L 441.230375 141.71728 
L 466.131125 183.730031 
L 491.031875 235.218295 
L 515.932625 245.599556 
L 540.833375 264.480908 
" clip-path="url(#pdaade78a7d)" style="fill: none; stroke: #808080; stroke-opacity: 0.3; stroke-width: 1.5; stroke-linecap: square"/>
   </g>
   <g id="line2d_44">
    <path d="M 67.719125 242.882134 
L 92.619875 263.416001 
L 117.520625 327.775884 
L 142.421375 317.50895 
L 167.322125 332.168701 
L 192.222875 334.007555 
L 217.123625 286.299515 
L 242.024375 290.998808 
L 266.925125 270.771416 
L 291.825875 80.296811 
L 316.726625 58.179487 
L 341.627375 139.497688 
L 366.528125 180.105709 
L 391.428875 298.098827 
L 416.329625 341.975921 
L 441.230375 323.84278 
L 466.131125 319.041328 
L 491.031875 323.944938 
L 515.932625 303.870785 
L 540.833375 315.516859 
" clip-path="url(#pdaade78a7d)" style="fill: none; stroke: #808080; stroke-opacity: 0.3; stroke-width: 1.5; stroke-linecap: square"/>
   </g>
   <g id="line2d_45">
    <path d="M 67.719125 58.179487 
L 92.619875 144.707184 
L 117.520625 291.290221 
L 142.421375 359.860194 
L 167.322125 368.805088 
L 192.222875 371.816913 
L 217.123625 372.790661 
L 242.024375 373.673828 
L 266.925125 372.858597 
L 291.825875 370.86581 
L 316.726625 372.926533 
L 341.627375 372.722725 
L 366.528125 372.020721 
L 391.428875 368.669216 
L 416.329625 364.638352 
L 441.230375 369.688255 
L 466.131125 371.907494 
L 491.031875 361.943562 
L 515.932625 352.817505 
L 540.833375 366.427331 
" clip-path="url(#pdaade78a7d)" style="fill: none; stroke: #808080; stroke-opacity: 0.3; stroke-width: 1.5; stroke-linecap: square"/>
   </g>
   <g id="line2d_46">
    <path d="M 67.719125 58.179487 
L 92.619875 70.360338 
L 117.520625 222.635108 
L 142.421375 343.426193 
L 167.322125 370.727126 
L 192.222875 373.327215 
L 217.123625 373.440262 
L 242.024375 372.677193 
L 266.925125 371.264101 
L 291.825875 372.677193 
L 316.726625 371.829338 
L 341.627375 368.77706 
L 366.528125 369.116202 
L 391.428875 355.154855 
L 416.329625 272.206367 
L 441.230375 262.371249 
L 466.131125 310.27506 
L 491.031875 358.546275 
L 515.932625 371.998909 
L 540.833375 371.574981 
" clip-path="url(#pdaade78a7d)" style="fill: none; stroke: #808080; stroke-opacity: 0.3; stroke-width: 1.5; stroke-linecap: square"/>
   </g>
   <g id="line2d_47">
    <path d="M 67.719125 222.212398 
L 92.619875 240.068532 
L 117.520625 263.399172 
L 142.421375 269.677973 
L 167.322125 268.428554 
L 192.222875 276.604455 
L 217.123625 266.464267 
L 242.024375 264.469706 
L 266.925125 252.951935 
L 291.825875 237.888705 
L 316.726625 241.323568 
L 341.627375 235.605504 
L 366.528125 250.525042 
L 391.428875 246.680316 
L 416.329625 250.308831 
L 441.230375 228.583657 
L 466.131125 243.320529 
L 491.031875 249.920874 
L 515.932625 281.204343 
L 540.833375 307.530999 
" clip-path="url(#pdaade78a7d)" style="fill: none; stroke: #000000; stroke-width: 2; stroke-linecap: square"/>
   </g>
   <g id="patch_3">
    <path d="M 55.26875 376.096875 
L 55.26875 42.396875 
" style="fill: none; stroke: #000000; stroke-width: 1.5; stroke-linejoin: miter; stroke-linecap: square"/>
   </g>
   <g id="patch_4">
    <path d="M 55.26875 376.096875 
L 553.28375 376.096875 
" style="fill: none; stroke: #000000; stroke-width: 1.5; stroke-linejoin: miter; stroke-linecap: square"/>
   </g>
   <g id="text_15">
    <!-- - MinCDE (n=17) -->
    <g transform="translate(220.321562 22.396875) scale(0.2 -0.2)">
     <defs>
      <path id="DejaVuSans-4d" d="M 628 4666 
L 1569 4666 
L 2759 1491 
L 3956 4666 
L 4897 4666 
L 4897 0 
L 4281 0 
L 4281 4097 
L 3078 897 
L 2444 897 
L 1241 4097 
L 1241 0 
L 628 0 
L 628 4666 
z
" transform="scale(0.015625)"/>
      <path id="DejaVuSans-43" d="M 4122 4306 
L 4122 3641 
Q 3803 3938 3442 4084 
Q 3081 4231 2675 4231 
Q 1875 4231 1450 3742 
Q 1025 3253 1025 2328 
Q 1025 1406 1450 917 
Q 1875 428 2675 428 
Q 3081 428 3442 575 
Q 3803 722 4122 1019 
L 4122 359 
Q 3791 134 3420 21 
Q 3050 -91 2638 -91 
Q 1578 -91 968 557 
Q 359 1206 359 2328 
Q 359 3453 968 4101 
Q 1578 4750 2638 4750 
Q 3056 4750 3426 4639 
Q 3797 4528 4122 4306 
z
" transform="scale(0.015625)"/>
      <path id="DejaVuSans-44" d="M 1259 4147 
L 1259 519 
L 2022 519 
Q 2988 519 3436 956 
Q 3884 1394 3884 2338 
Q 3884 3275 3436 3711 
Q 2988 4147 2022 4147 
L 1259 4147 
z
M 628 4666 
L 1925 4666 
Q 3281 4666 3915 4102 
Q 4550 3538 4550 2338 
Q 4550 1131 3912 565 
Q 3275 0 1925 0 
L 628 0 
L 628 4666 
z
" transform="scale(0.015625)"/>
      <path id="DejaVuSans-45" d="M 628 4666 
L 3578 4666 
L 3578 4134 
L 1259 4134 
L 1259 2753 
L 3481 2753 
L 3481 2222 
L 1259 2222 
L 1259 531 
L 3634 531 
L 3634 0 
L 628 0 
L 628 4666 
z
" transform="scale(0.015625)"/>
      <path id="DejaVuSans-28" d="M 1984 4856 
Q 1566 4138 1362 3434 
Q 1159 2731 1159 2009 
Q 1159 1288 1364 580 
Q 1569 -128 1984 -844 
L 1484 -844 
Q 1016 -109 783 600 
Q 550 1309 550 2009 
Q 550 2706 781 3412 
Q 1013 4119 1484 4856 
L 1984 4856 
z
" transform="scale(0.015625)"/>
      <path id="DejaVuSans-3d" d="M 678 2906 
L 4684 2906 
L 4684 2381 
L 678 2381 
L 678 2906 
z
M 678 1631 
L 4684 1631 
L 4684 1100 
L 678 1100 
L 678 1631 
z
" transform="scale(0.015625)"/>
      <path id="DejaVuSans-37" d="M 525 4666 
L 3525 4666 
L 3525 4397 
L 1831 0 
L 1172 0 
L 2766 4134 
L 525 4134 
L 525 4666 
z
" transform="scale(0.015625)"/>
      <path id="DejaVuSans-29" d="M 513 4856 
L 1013 4856 
Q 1481 4119 1714 3412 
Q 1947 2706 1947 2009 
Q 1947 1309 1714 600 
Q 1481 -109 1013 -844 
L 513 -844 
Q 928 -128 1133 580 
Q 1338 1288 1338 2009 
Q 1338 2731 1133 3434 
Q 928 4138 513 4856 
z
" transform="scale(0.015625)"/>
     </defs>
     <use xlink:href="#DejaVuSans-2d"/>
     <use xlink:href="#DejaVuSans-20" transform="translate(36.083984 0)"/>
     <use xlink:href="#DejaVuSans-4d" transform="translate(67.871094 0)"/>
     <use xlink:href="#DejaVuSans-69" transform="translate(154.150391 0)"/>
     <use xlink:href="#DejaVuSans-6e" transform="translate(181.933594 0)"/>
     <use xlink:href="#DejaVuSans-43" transform="translate(245.3125 0)"/>
     <use xlink:href="#DejaVuSans-44" transform="translate(315.136719 0)"/>
     <use xlink:href="#DejaVuSans-45" transform="translate(392.138672 0)"/>
     <use xlink:href="#DejaVuSans-20" transform="translate(455.322266 0)"/>
     <use xlink:href="#DejaVuSans-28" transform="translate(487.109375 0)"/>
     <use xlink:href="#DejaVuSans-6e" transform="translate(526.123047 0)"/>
     <use xlink:href="#DejaVuSans-3d" transform="translate(589.501953 0)"/>
     <use xlink:href="#DejaVuSans-31" transform="translate(673.291016 0)"/>
     <use xlink:href="#DejaVuSans-37" transform="translate(736.914062 0)"/>
     <use xlink:href="#DejaVuSans-29" transform="translate(800.537109 0)"/>
    </g>
   </g>
   <g id="legend_1">
    <g id="patch_5">
     <path d="M 448.119687 65.075 
L 546.28375 65.075 
Q 548.28375 65.075 548.28375 63.075 
L 548.28375 49.396875 
Q 548.28375 47.396875 546.28375 47.396875 
L 448.119687 47.396875 
Q 446.119687 47.396875 446.119687 49.396875 
L 446.119687 63.075 
Q 446.119687 65.075 448.119687 65.075 
z
" style="fill: #ffffff; opacity: 0.8; stroke: #cccccc; stroke-linejoin: miter"/>
    </g>
    <g id="line2d_48">
     <path d="M 450.119687 55.495312 
L 460.119687 55.495312 
L 470.119687 55.495312 
" style="fill: none; stroke: #000000; stroke-width: 2; stroke-linecap: square"/>
    </g>
    <g id="text_16">
     <!-- Overall Mean -->
     <g transform="translate(478.119687 58.995312) scale(0.1 -0.1)">
      <defs>
       <path id="DejaVuSans-4f" d="M 2522 4238 
Q 1834 4238 1429 3725 
Q 1025 3213 1025 2328 
Q 1025 1447 1429 934 
Q 1834 422 2522 422 
Q 3209 422 3611 934 
Q 4013 1447 4013 2328 
Q 4013 3213 3611 3725 
Q 3209 4238 2522 4238 
z
M 2522 4750 
Q 3503 4750 4090 4092 
Q 4678 3434 4678 2328 
Q 4678 1225 4090 567 
Q 3503 -91 2522 -91 
Q 1538 -91 948 565 
Q 359 1222 359 2328 
Q 359 3434 948 4092 
Q 1538 4750 2522 4750 
z
" transform="scale(0.015625)"/>
       <path id="DejaVuSans-76" d="M 191 3500 
L 800 3500 
L 1894 563 
L 2988 3500 
L 3597 3500 
L 2284 0 
L 1503 0 
L 191 3500 
z
" transform="scale(0.015625)"/>
      </defs>
      <use xlink:href="#DejaVuSans-4f"/>
      <use xlink:href="#DejaVuSans-76" transform="translate(78.710938 0)"/>
      <use xlink:href="#DejaVuSans-65" transform="translate(137.890625 0)"/>
      <use xlink:href="#DejaVuSans-72" transform="translate(199.414062 0)"/>
      <use xlink:href="#DejaVuSans-61" transform="translate(240.527344 0)"/>
      <use xlink:href="#DejaVuSans-6c" transform="translate(301.806641 0)"/>
      <use xlink:href="#DejaVuSans-6c" transform="translate(329.589844 0)"/>
      <use xlink:href="#DejaVuSans-20" transform="translate(357.373047 0)"/>
      <use xlink:href="#DejaVuSans-4d" transform="translate(389.160156 0)"/>
      <use xlink:href="#DejaVuSans-65" transform="translate(475.439453 0)"/>
      <use xlink:href="#DejaVuSans-61" transform="translate(536.962891 0)"/>
      <use xlink:href="#DejaVuSans-6e" transform="translate(598.242188 0)"/>
     </g>
    </g>
   </g>
  </g>
 </g>
 <defs>
  <clipPath id="pdaade78a7d">
   <rect x="55.26875" y="42.396875" width="498.015" height="333.7"/>
  </clipPath>
 </defs>
</svg>
