<?xml version="1.0" encoding="utf-8" standalone="no"?>
<!DOCTYPE svg PUBLIC "-//W3C//DTD SVG 1.1//EN"
  "http://www.w3.org/Graphics/SVG/1.1/DTD/svg11.dtd">
<svg xmlns:xlink="http://www.w3.org/1999/xlink" width="567.730625pt" height="423.895625pt" viewBox="0 0 567.730625 423.895625" xmlns="http://www.w3.org/2000/svg" version="1.1">
 <metadata>
  <rdf:RDF xmlns:dc="http://purl.org/dc/elements/1.1/" xmlns:cc="http://creativecommons.org/ns#" xmlns:rdf="http://www.w3.org/1999/02/22-rdf-syntax-ns#">
   <cc:Work>
    <dc:type rdf:resource="http://purl.org/dc/dcmitype/StillImage"/>
    <dc:date>2025-12-01T06:13:14.389862</dc:date>
    <dc:format>image/svg+xml</dc:format>
    <dc:creator>
     <cc:Agent>
      <dc:title>Matplotlib v3.8.4, https://matplotlib.org/</dc:title>
     </cc:Agent>
    </dc:creator>
   </cc:Work>
  </rdf:RDF>
 </metadata>
 <defs>
  <style type="text/css">*{stroke-linejoin: round; stroke-linecap: butt}</style>
 </defs>
 <g id="figure_1">
  <g id="patch_1">
   <path d="M 0 423.895625 
L 567.730625 423.895625 
L 567.730625 0 
L 0 0 
z
" style="fill: #ffffff"/>
  </g>
  <g id="axes_1">
   <g id="patch_2">
    <path d="M 55.26875 376.096875 
L 550.98875 376.096875 
L 550.98875 42.396875 
L 55.26875 42.396875 
z
" style="fill: #ffffff"/>
   </g>
   <g id="matplotlib.axis_1">
    <g id="xtick_1">
     <g id="line2d_1">
      <defs>
       <path id="m490ee25e46" d="M 0 0 
L 0 6 
" style="stroke: #000000; stroke-width: 1.5"/>
      </defs>
      <g>
       <use xlink:href="#m490ee25e46" x="55.26875" y="376.096875" style="stroke: #000000; stroke-width: 1.5"/>
      </g>
     </g>
     <g id="text_1">
      <!-- 0.0 -->
      <g transform="translate(45.726875 394.715) scale(0.12 -0.12)">
       <defs>
        <path id="DejaVuSans-30" d="M 2034 4250 
Q 1547 4250 1301 3770 
Q 1056 3291 1056 2328 
Q 1056 1369 1301 889 
Q 1547 409 2034 409 
Q 2525 409 2770 889 
Q 3016 1369 3016 2328 
Q 3016 3291 2770 3770 
Q 2525 4250 2034 4250 
z
M 2034 4750 
Q 2819 4750 3233 4129 
Q 3647 3509 3647 2328 
Q 3647 1150 3233 529 
Q 2819 -91 2034 -91 
Q 1250 -91 836 529 
Q 422 1150 422 2328 
Q 422 3509 836 4129 
Q 1250 4750 2034 4750 
z
" transform="scale(0.015625)"/>
        <path id="DejaVuSans-2e" d="M 684 794 
L 1344 794 
L 1344 0 
L 684 0 
L 684 794 
z
" transform="scale(0.015625)"/>
       </defs>
       <use xlink:href="#DejaVuSans-30"/>
       <use xlink:href="#DejaVuSans-2e" x="63.623047"/>
       <use xlink:href="#DejaVuSans-30" x="95.410156"/>
      </g>
     </g>
    </g>
    <g id="xtick_2">
     <g id="line2d_2">
      <g>
       <use xlink:href="#m490ee25e46" x="154.41275" y="376.096875" style="stroke: #000000; stroke-width: 1.5"/>
      </g>
     </g>
     <g id="text_2">
      <!-- 0.2 -->
      <g transform="translate(144.870875 394.715) scale(0.12 -0.12)">
       <defs>
        <path id="DejaVuSans-32" d="M 1228 531 
L 3431 531 
L 3431 0 
L 469 0 
L 469 531 
Q 828 903 1448 1529 
Q 2069 2156 2228 2338 
Q 2531 2678 2651 2914 
Q 2772 3150 2772 3378 
Q 2772 3750 2511 3984 
Q 2250 4219 1831 4219 
Q 1534 4219 1204 4116 
Q 875 4013 500 3803 
L 500 4441 
Q 881 4594 1212 4672 
Q 1544 4750 1819 4750 
Q 2544 4750 2975 4387 
Q 3406 4025 3406 3419 
Q 3406 3131 3298 2873 
Q 3191 2616 2906 2266 
Q 2828 2175 2409 1742 
Q 1991 1309 1228 531 
z
" transform="scale(0.015625)"/>
       </defs>
       <use xlink:href="#DejaVuSans-30"/>
       <use xlink:href="#DejaVuSans-2e" x="63.623047"/>
       <use xlink:href="#DejaVuSans-32" x="95.410156"/>
      </g>
     </g>
    </g>
    <g id="xtick_3">
     <g id="line2d_3">
      <g>
       <use xlink:href="#m490ee25e46" x="253.55675" y="376.096875" style="stroke: #000000; stroke-width: 1.5"/>
      </g>
     </g>
     <g id="text_3">
      <!-- 0.4 -->
      <g transform="translate(244.014875 394.715) scale(0.12 -0.12)">
       <defs>
        <path id="DejaVuSans-34" d="M 2419 4116 
L 825 1625 
L 2419 1625 
L 2419 4116 
z
M 2253 4666 
L 3047 4666 
L 3047 1625 
L 3713 1625 
L 3713 1100 
L 3047 1100 
L 3047 0 
L 2419 0 
L 2419 1100 
L 313 1100 
L 313 1709 
L 2253 4666 
z
" transform="scale(0.015625)"/>
       </defs>
       <use xlink:href="#DejaVuSans-30"/>
       <use xlink:href="#DejaVuSans-2e" x="63.623047"/>
       <use xlink:href="#DejaVuSans-34" x="95.410156"/>
      </g>
     </g>
    </g>
    <g id="xtick_4">
     <g id="line2d_4">
      <g>
       <use xlink:href="#m490ee25e46" x="352.70075" y="376.096875" style="stroke: #000000; stroke-width: 1.5"/>
      </g>
     </g>
     <g id="text_4">
      <!-- 0.6 -->
      <g transform="translate(343.158875 394.715) scale(0.12 -0.12)">
       <defs>
        <path id="DejaVuSans-36" d="M 2113 2584 
Q 1688 2584 1439 2293 
Q 1191 2003 1191 1497 
Q 1191 994 1439 701 
Q 1688 409 2113 409 
Q 2538 409 2786 701 
Q 3034 994 3034 1497 
Q 3034 2003 2786 2293 
Q 2538 2584 2113 2584 
z
M 3366 4563 
L 3366 3988 
Q 3128 4100 2886 4159 
Q 2644 4219 2406 4219 
Q 1781 4219 1451 3797 
Q 1122 3375 1075 2522 
Q 1259 2794 1537 2939 
Q 1816 3084 2150 3084 
Q 2853 3084 3261 2657 
Q 3669 2231 3669 1497 
Q 3669 778 3244 343 
Q 2819 -91 2113 -91 
Q 1303 -91 875 529 
Q 447 1150 447 2328 
Q 447 3434 972 4092 
Q 1497 4750 2381 4750 
Q 2619 4750 2861 4703 
Q 3103 4656 3366 4563 
z
" transform="scale(0.015625)"/>
       </defs>
       <use xlink:href="#DejaVuSans-30"/>
       <use xlink:href="#DejaVuSans-2e" x="63.623047"/>
       <use xlink:href="#DejaVuSans-36" x="95.410156"/>
      </g>
     </g>
    </g>
    <g id="xtick_5">
     <g id="line2d_5">
      <g>
       <use xlink:href="#m490ee25e46" x="451.84475" y="376.096875" style="stroke: #000000; stroke-width: 1.5"/>
      </g>
     </g>
     <g id="text_5">
      <!-- 0.8 -->
      <g transform="translate(442.302875 394.715) scale(0.12 -0.12)">
       <defs>
        <path id="DejaVuSans-38" d="M 2034 2216 
Q 1584 2216 1326 1975 
Q 1069 1734 1069 1313 
Q 1069 891 1326 650 
Q 1584 409 2034 409 
Q 2484 409 2743 651 
Q 3003 894 3003 1313 
Q 3003 1734 2745 1975 
Q 2488 2216 2034 2216 
z
M 1403 2484 
Q 997 2584 770 2862 
Q 544 3141 544 3541 
Q 544 4100 942 4425 
Q 1341 4750 2034 4750 
Q 2731 4750 3128 4425 
Q 3525 4100 3525 3541 
Q 3525 3141 3298 2862 
Q 3072 2584 2669 2484 
Q 3125 2378 3379 2068 
Q 3634 1759 3634 1313 
Q 3634 634 3220 271 
Q 2806 -91 2034 -91 
Q 1263 -91 848 271 
Q 434 634 434 1313 
Q 434 1759 690 2068 
Q 947 2378 1403 2484 
z
M 1172 3481 
Q 1172 3119 1398 2916 
Q 1625 2713 2034 2713 
Q 2441 2713 2670 2916 
Q 2900 3119 2900 3481 
Q 2900 3844 2670 4047 
Q 2441 4250 2034 4250 
Q 1625 4250 1398 4047 
Q 1172 3844 1172 3481 
z
" transform="scale(0.015625)"/>
       </defs>
       <use xlink:href="#DejaVuSans-30"/>
       <use xlink:href="#DejaVuSans-2e" x="63.623047"/>
       <use xlink:href="#DejaVuSans-38" x="95.410156"/>
      </g>
     </g>
    </g>
    <g id="xtick_6">
     <g id="line2d_6">
      <g>
       <use xlink:href="#m490ee25e46" x="550.98875" y="376.096875" style="stroke: #000000; stroke-width: 1.5"/>
      </g>
     </g>
     <g id="text_6">
      <!-- 1.0 -->
      <g transform="translate(541.446875 394.715) scale(0.12 -0.12)">
       <defs>
        <path id="DejaVuSans-31" d="M 794 531 
L 1825 531 
L 1825 4091 
L 703 3866 
L 703 4441 
L 1819 4666 
L 2450 4666 
L 2450 531 
L 3481 531 
L 3481 0 
L 794 0 
L 794 531 
z
" transform="scale(0.015625)"/>
       </defs>
       <use xlink:href="#DejaVuSans-31"/>
       <use xlink:href="#DejaVuSans-2e" x="63.623047"/>
       <use xlink:href="#DejaVuSans-30" x="95.410156"/>
      </g>
     </g>
    </g>
    <g id="text_7">
     <!-- Normalized distance from equator -->
     <g transform="translate(166.3275 413.368125) scale(0.16 -0.16)">
      <defs>
       <path id="DejaVuSans-4e" d="M 628 4666 
L 1478 4666 
L 3547 763 
L 3547 4666 
L 4159 4666 
L 4159 0 
L 3309 0 
L 1241 3903 
L 1241 0 
L 628 0 
L 628 4666 
z
" transform="scale(0.015625)"/>
       <path id="DejaVuSans-6f" d="M 1959 3097 
Q 1497 3097 1228 2736 
Q 959 2375 959 1747 
Q 959 1119 1226 758 
Q 1494 397 1959 397 
Q 2419 397 2687 759 
Q 2956 1122 2956 1747 
Q 2956 2369 2687 2733 
Q 2419 3097 1959 3097 
z
M 1959 3584 
Q 2709 3584 3137 3096 
Q 3566 2609 3566 1747 
Q 3566 888 3137 398 
Q 2709 -91 1959 -91 
Q 1206 -91 779 398 
Q 353 888 353 1747 
Q 353 2609 779 3096 
Q 1206 3584 1959 3584 
z
" transform="scale(0.015625)"/>
       <path id="DejaVuSans-72" d="M 2631 2963 
Q 2534 3019 2420 3045 
Q 2306 3072 2169 3072 
Q 1681 3072 1420 2755 
Q 1159 2438 1159 1844 
L 1159 0 
L 581 0 
L 581 3500 
L 1159 3500 
L 1159 2956 
Q 1341 3275 1631 3429 
Q 1922 3584 2338 3584 
Q 2397 3584 2469 3576 
Q 2541 3569 2628 3553 
L 2631 2963 
z
" transform="scale(0.015625)"/>
       <path id="DejaVuSans-6d" d="M 3328 2828 
Q 3544 3216 3844 3400 
Q 4144 3584 4550 3584 
Q 5097 3584 5394 3201 
Q 5691 2819 5691 2113 
L 5691 0 
L 5113 0 
L 5113 2094 
Q 5113 2597 4934 2840 
Q 4756 3084 4391 3084 
Q 3944 3084 3684 2787 
Q 3425 2491 3425 1978 
L 3425 0 
L 2847 0 
L 2847 2094 
Q 2847 2600 2669 2842 
Q 2491 3084 2119 3084 
Q 1678 3084 1418 2786 
Q 1159 2488 1159 1978 
L 1159 0 
L 581 0 
L 581 3500 
L 1159 3500 
L 1159 2956 
Q 1356 3278 1631 3431 
Q 1906 3584 2284 3584 
Q 2666 3584 2933 3390 
Q 3200 3197 3328 2828 
z
" transform="scale(0.015625)"/>
       <path id="DejaVuSans-61" d="M 2194 1759 
Q 1497 1759 1228 1600 
Q 959 1441 959 1056 
Q 959 750 1161 570 
Q 1363 391 1709 391 
Q 2188 391 2477 730 
Q 2766 1069 2766 1631 
L 2766 1759 
L 2194 1759 
z
M 3341 1997 
L 3341 0 
L 2766 0 
L 2766 531 
Q 2569 213 2275 61 
Q 1981 -91 1556 -91 
Q 1019 -91 701 211 
Q 384 513 384 1019 
Q 384 1609 779 1909 
Q 1175 2209 1959 2209 
L 2766 2209 
L 2766 2266 
Q 2766 2663 2505 2880 
Q 2244 3097 1772 3097 
Q 1472 3097 1187 3025 
Q 903 2953 641 2809 
L 641 3341 
Q 956 3463 1253 3523 
Q 1550 3584 1831 3584 
Q 2591 3584 2966 3190 
Q 3341 2797 3341 1997 
z
" transform="scale(0.015625)"/>
       <path id="DejaVuSans-6c" d="M 603 4863 
L 1178 4863 
L 1178 0 
L 603 0 
L 603 4863 
z
" transform="scale(0.015625)"/>
       <path id="DejaVuSans-69" d="M 603 3500 
L 1178 3500 
L 1178 0 
L 603 0 
L 603 3500 
z
M 603 4863 
L 1178 4863 
L 1178 4134 
L 603 4134 
L 603 4863 
z
" transform="scale(0.015625)"/>
       <path id="DejaVuSans-7a" d="M 353 3500 
L 3084 3500 
L 3084 2975 
L 922 459 
L 3084 459 
L 3084 0 
L 275 0 
L 275 525 
L 2438 3041 
L 353 3041 
L 353 3500 
z
" transform="scale(0.015625)"/>
       <path id="DejaVuSans-65" d="M 3597 1894 
L 3597 1613 
L 953 1613 
Q 991 1019 1311 708 
Q 1631 397 2203 397 
Q 2534 397 2845 478 
Q 3156 559 3463 722 
L 3463 178 
Q 3153 47 2828 -22 
Q 2503 -91 2169 -91 
Q 1331 -91 842 396 
Q 353 884 353 1716 
Q 353 2575 817 3079 
Q 1281 3584 2069 3584 
Q 2775 3584 3186 3129 
Q 3597 2675 3597 1894 
z
M 3022 2063 
Q 3016 2534 2758 2815 
Q 2500 3097 2075 3097 
Q 1594 3097 1305 2825 
Q 1016 2553 972 2059 
L 3022 2063 
z
" transform="scale(0.015625)"/>
       <path id="DejaVuSans-64" d="M 2906 2969 
L 2906 4863 
L 3481 4863 
L 3481 0 
L 2906 0 
L 2906 525 
Q 2725 213 2448 61 
Q 2172 -91 1784 -91 
Q 1150 -91 751 415 
Q 353 922 353 1747 
Q 353 2572 751 3078 
Q 1150 3584 1784 3584 
Q 2172 3584 2448 3432 
Q 2725 3281 2906 2969 
z
M 947 1747 
Q 947 1113 1208 752 
Q 1469 391 1925 391 
Q 2381 391 2643 752 
Q 2906 1113 2906 1747 
Q 2906 2381 2643 2742 
Q 2381 3103 1925 3103 
Q 1469 3103 1208 2742 
Q 947 2381 947 1747 
z
" transform="scale(0.015625)"/>
       <path id="DejaVuSans-20" transform="scale(0.015625)"/>
       <path id="DejaVuSans-73" d="M 2834 3397 
L 2834 2853 
Q 2591 2978 2328 3040 
Q 2066 3103 1784 3103 
Q 1356 3103 1142 2972 
Q 928 2841 928 2578 
Q 928 2378 1081 2264 
Q 1234 2150 1697 2047 
L 1894 2003 
Q 2506 1872 2764 1633 
Q 3022 1394 3022 966 
Q 3022 478 2636 193 
Q 2250 -91 1575 -91 
Q 1294 -91 989 -36 
Q 684 19 347 128 
L 347 722 
Q 666 556 975 473 
Q 1284 391 1588 391 
Q 1994 391 2212 530 
Q 2431 669 2431 922 
Q 2431 1156 2273 1281 
Q 2116 1406 1581 1522 
L 1381 1569 
Q 847 1681 609 1914 
Q 372 2147 372 2553 
Q 372 3047 722 3315 
Q 1072 3584 1716 3584 
Q 2034 3584 2315 3537 
Q 2597 3491 2834 3397 
z
" transform="scale(0.015625)"/>
       <path id="DejaVuSans-74" d="M 1172 4494 
L 1172 3500 
L 2356 3500 
L 2356 3053 
L 1172 3053 
L 1172 1153 
Q 1172 725 1289 603 
Q 1406 481 1766 481 
L 2356 481 
L 2356 0 
L 1766 0 
Q 1100 0 847 248 
Q 594 497 594 1153 
L 594 3053 
L 172 3053 
L 172 3500 
L 594 3500 
L 594 4494 
L 1172 4494 
z
" transform="scale(0.015625)"/>
       <path id="DejaVuSans-6e" d="M 3513 2113 
L 3513 0 
L 2938 0 
L 2938 2094 
Q 2938 2591 2744 2837 
Q 2550 3084 2163 3084 
Q 1697 3084 1428 2787 
Q 1159 2491 1159 1978 
L 1159 0 
L 581 0 
L 581 3500 
L 1159 3500 
L 1159 2956 
Q 1366 3272 1645 3428 
Q 1925 3584 2291 3584 
Q 2894 3584 3203 3211 
Q 3513 2838 3513 2113 
z
" transform="scale(0.015625)"/>
       <path id="DejaVuSans-63" d="M 3122 3366 
L 3122 2828 
Q 2878 2963 2633 3030 
Q 2388 3097 2138 3097 
Q 1578 3097 1268 2742 
Q 959 2388 959 1747 
Q 959 1106 1268 751 
Q 1578 397 2138 397 
Q 2388 397 2633 464 
Q 2878 531 3122 666 
L 3122 134 
Q 2881 22 2623 -34 
Q 2366 -91 2075 -91 
Q 1284 -91 818 406 
Q 353 903 353 1747 
Q 353 2603 823 3093 
Q 1294 3584 2113 3584 
Q 2378 3584 2631 3529 
Q 2884 3475 3122 3366 
z
" transform="scale(0.015625)"/>
       <path id="DejaVuSans-66" d="M 2375 4863 
L 2375 4384 
L 1825 4384 
Q 1516 4384 1395 4259 
Q 1275 4134 1275 3809 
L 1275 3500 
L 2222 3500 
L 2222 3053 
L 1275 3053 
L 1275 0 
L 697 0 
L 697 3053 
L 147 3053 
L 147 3500 
L 697 3500 
L 697 3744 
Q 697 4328 969 4595 
Q 1241 4863 1831 4863 
L 2375 4863 
z
" transform="scale(0.015625)"/>
       <path id="DejaVuSans-71" d="M 947 1747 
Q 947 1113 1208 752 
Q 1469 391 1925 391 
Q 2381 391 2643 752 
Q 2906 1113 2906 1747 
Q 2906 2381 2643 2742 
Q 2381 3103 1925 3103 
Q 1469 3103 1208 2742 
Q 947 2381 947 1747 
z
M 2906 525 
Q 2725 213 2448 61 
Q 2172 -91 1784 -91 
Q 1150 -91 751 415 
Q 353 922 353 1747 
Q 353 2572 751 3078 
Q 1150 3584 1784 3584 
Q 2172 3584 2448 3432 
Q 2725 3281 2906 2969 
L 2906 3500 
L 3481 3500 
L 3481 -1331 
L 2906 -1331 
L 2906 525 
z
" transform="scale(0.015625)"/>
       <path id="DejaVuSans-75" d="M 544 1381 
L 544 3500 
L 1119 3500 
L 1119 1403 
Q 1119 906 1312 657 
Q 1506 409 1894 409 
Q 2359 409 2629 706 
Q 2900 1003 2900 1516 
L 2900 3500 
L 3475 3500 
L 3475 0 
L 2900 0 
L 2900 538 
Q 2691 219 2414 64 
Q 2138 -91 1772 -91 
Q 1169 -91 856 284 
Q 544 659 544 1381 
z
M 1991 3584 
L 1991 3584 
z
" transform="scale(0.015625)"/>
      </defs>
      <use xlink:href="#DejaVuSans-4e"/>
      <use xlink:href="#DejaVuSans-6f" x="74.804688"/>
      <use xlink:href="#DejaVuSans-72" x="135.986328"/>
      <use xlink:href="#DejaVuSans-6d" x="175.349609"/>
      <use xlink:href="#DejaVuSans-61" x="272.761719"/>
      <use xlink:href="#DejaVuSans-6c" x="334.041016"/>
      <use xlink:href="#DejaVuSans-69" x="361.824219"/>
      <use xlink:href="#DejaVuSans-7a" x="389.607422"/>
      <use xlink:href="#DejaVuSans-65" x="442.097656"/>
      <use xlink:href="#DejaVuSans-64" x="503.621094"/>
      <use xlink:href="#DejaVuSans-20" x="567.097656"/>
      <use xlink:href="#DejaVuSans-64" x="598.884766"/>
      <use xlink:href="#DejaVuSans-69" x="662.361328"/>
      <use xlink:href="#DejaVuSans-73" x="690.144531"/>
      <use xlink:href="#DejaVuSans-74" x="742.244141"/>
      <use xlink:href="#DejaVuSans-61" x="781.453125"/>
      <use xlink:href="#DejaVuSans-6e" x="842.732422"/>
      <use xlink:href="#DejaVuSans-63" x="906.111328"/>
      <use xlink:href="#DejaVuSans-65" x="961.091797"/>
      <use xlink:href="#DejaVuSans-20" x="1022.615234"/>
      <use xlink:href="#DejaVuSans-66" x="1054.402344"/>
      <use xlink:href="#DejaVuSans-72" x="1089.607422"/>
      <use xlink:href="#DejaVuSans-6f" x="1128.470703"/>
      <use xlink:href="#DejaVuSans-6d" x="1189.652344"/>
      <use xlink:href="#DejaVuSans-20" x="1287.064453"/>
      <use xlink:href="#DejaVuSans-65" x="1318.851562"/>
      <use xlink:href="#DejaVuSans-71" x="1380.375"/>
      <use xlink:href="#DejaVuSans-75" x="1443.851562"/>
      <use xlink:href="#DejaVuSans-61" x="1507.230469"/>
      <use xlink:href="#DejaVuSans-74" x="1568.509766"/>
      <use xlink:href="#DejaVuSans-6f" x="1607.71875"/>
      <use xlink:href="#DejaVuSans-72" x="1668.900391"/>
     </g>
    </g>
   </g>
   <g id="matplotlib.axis_2">
    <g id="ytick_1">
     <g id="line2d_7">
      <defs>
       <path id="mcbdd6335fe" d="M 0 0 
L -6 0 
" style="stroke: #000000; stroke-width: 1.5"/>
      </defs>
      <g>
       <use xlink:href="#mcbdd6335fe" x="55.26875" y="376.096875" style="stroke: #000000; stroke-width: 1.5"/>
      </g>
     </g>
     <g id="text_8">
      <!-- 0.0 -->
      <g transform="translate(26.685 380.655937) scale(0.12 -0.12)">
       <use xlink:href="#DejaVuSans-30"/>
       <use xlink:href="#DejaVuSans-2e" x="63.623047"/>
       <use xlink:href="#DejaVuSans-30" x="95.410156"/>
      </g>
     </g>
    </g>
    <g id="ytick_2">
     <g id="line2d_8">
      <g>
       <use xlink:href="#mcbdd6335fe" x="55.26875" y="312.513397" style="stroke: #000000; stroke-width: 1.5"/>
      </g>
     </g>
     <g id="text_9">
      <!-- 0.2 -->
      <g transform="translate(26.685 317.07246) scale(0.12 -0.12)">
       <use xlink:href="#DejaVuSans-30"/>
       <use xlink:href="#DejaVuSans-2e" x="63.623047"/>
       <use xlink:href="#DejaVuSans-32" x="95.410156"/>
      </g>
     </g>
    </g>
    <g id="ytick_3">
     <g id="line2d_9">
      <g>
       <use xlink:href="#mcbdd6335fe" x="55.26875" y="248.92992" style="stroke: #000000; stroke-width: 1.5"/>
      </g>
     </g>
     <g id="text_10">
      <!-- 0.4 -->
      <g transform="translate(26.685 253.488982) scale(0.12 -0.12)">
       <use xlink:href="#DejaVuSans-30"/>
       <use xlink:href="#DejaVuSans-2e" x="63.623047"/>
       <use xlink:href="#DejaVuSans-34" x="95.410156"/>
      </g>
     </g>
    </g>
    <g id="ytick_4">
     <g id="line2d_10">
      <g>
       <use xlink:href="#mcbdd6335fe" x="55.26875" y="185.346442" style="stroke: #000000; stroke-width: 1.5"/>
      </g>
     </g>
     <g id="text_11">
      <!-- 0.6 -->
      <g transform="translate(26.685 189.905505) scale(0.12 -0.12)">
       <use xlink:href="#DejaVuSans-30"/>
       <use xlink:href="#DejaVuSans-2e" x="63.623047"/>
       <use xlink:href="#DejaVuSans-36" x="95.410156"/>
      </g>
     </g>
    </g>
    <g id="ytick_5">
     <g id="line2d_11">
      <g>
       <use xlink:href="#mcbdd6335fe" x="55.26875" y="121.762964" style="stroke: #000000; stroke-width: 1.5"/>
      </g>
     </g>
     <g id="text_12">
      <!-- 0.8 -->
      <g transform="translate(26.685 126.322027) scale(0.12 -0.12)">
       <use xlink:href="#DejaVuSans-30"/>
       <use xlink:href="#DejaVuSans-2e" x="63.623047"/>
       <use xlink:href="#DejaVuSans-38" x="95.410156"/>
      </g>
     </g>
    </g>
    <g id="ytick_6">
     <g id="line2d_12">
      <g>
       <use xlink:href="#mcbdd6335fe" x="55.26875" y="58.179487" style="stroke: #000000; stroke-width: 1.5"/>
      </g>
     </g>
     <g id="text_13">
      <!-- 1.0 -->
      <g transform="translate(26.685 62.738549) scale(0.12 -0.12)">
       <use xlink:href="#DejaVuSans-31"/>
       <use xlink:href="#DejaVuSans-2e" x="63.623047"/>
       <use xlink:href="#DejaVuSans-30" x="95.410156"/>
      </g>
     </g>
    </g>
    <g id="text_14">
     <!-- Peak-Normalized intensity -->
     <g transform="translate(19.3575 313.718125) rotate(-90) scale(0.16 -0.16)">
      <defs>
       <path id="DejaVuSans-50" d="M 1259 4147 
L 1259 2394 
L 2053 2394 
Q 2494 2394 2734 2622 
Q 2975 2850 2975 3272 
Q 2975 3691 2734 3919 
Q 2494 4147 2053 4147 
L 1259 4147 
z
M 628 4666 
L 2053 4666 
Q 2838 4666 3239 4311 
Q 3641 3956 3641 3272 
Q 3641 2581 3239 2228 
Q 2838 1875 2053 1875 
L 1259 1875 
L 1259 0 
L 628 0 
L 628 4666 
z
" transform="scale(0.015625)"/>
       <path id="DejaVuSans-6b" d="M 581 4863 
L 1159 4863 
L 1159 1991 
L 2875 3500 
L 3609 3500 
L 1753 1863 
L 3688 0 
L 2938 0 
L 1159 1709 
L 1159 0 
L 581 0 
L 581 4863 
z
" transform="scale(0.015625)"/>
       <path id="DejaVuSans-2d" d="M 313 2009 
L 1997 2009 
L 1997 1497 
L 313 1497 
L 313 2009 
z
" transform="scale(0.015625)"/>
       <path id="DejaVuSans-79" d="M 2059 -325 
Q 1816 -950 1584 -1140 
Q 1353 -1331 966 -1331 
L 506 -1331 
L 506 -850 
L 844 -850 
Q 1081 -850 1212 -737 
Q 1344 -625 1503 -206 
L 1606 56 
L 191 3500 
L 800 3500 
L 1894 763 
L 2988 3500 
L 3597 3500 
L 2059 -325 
z
" transform="scale(0.015625)"/>
      </defs>
      <use xlink:href="#DejaVuSans-50"/>
      <use xlink:href="#DejaVuSans-65" x="56.677734"/>
      <use xlink:href="#DejaVuSans-61" x="118.201172"/>
      <use xlink:href="#DejaVuSans-6b" x="179.480469"/>
      <use xlink:href="#DejaVuSans-2d" x="237.390625"/>
      <use xlink:href="#DejaVuSans-4e" x="273.474609"/>
      <use xlink:href="#DejaVuSans-6f" x="348.279297"/>
      <use xlink:href="#DejaVuSans-72" x="409.460938"/>
      <use xlink:href="#DejaVuSans-6d" x="448.824219"/>
      <use xlink:href="#DejaVuSans-61" x="546.236328"/>
      <use xlink:href="#DejaVuSans-6c" x="607.515625"/>
      <use xlink:href="#DejaVuSans-69" x="635.298828"/>
      <use xlink:href="#DejaVuSans-7a" x="663.082031"/>
      <use xlink:href="#DejaVuSans-65" x="715.572266"/>
      <use xlink:href="#DejaVuSans-64" x="777.095703"/>
      <use xlink:href="#DejaVuSans-20" x="840.572266"/>
      <use xlink:href="#DejaVuSans-69" x="872.359375"/>
      <use xlink:href="#DejaVuSans-6e" x="900.142578"/>
      <use xlink:href="#DejaVuSans-74" x="963.521484"/>
      <use xlink:href="#DejaVuSans-65" x="1002.730469"/>
      <use xlink:href="#DejaVuSans-6e" x="1064.253906"/>
      <use xlink:href="#DejaVuSans-73" x="1127.632812"/>
      <use xlink:href="#DejaVuSans-69" x="1179.732422"/>
      <use xlink:href="#DejaVuSans-74" x="1207.515625"/>
      <use xlink:href="#DejaVuSans-79" x="1246.724609"/>
     </g>
    </g>
   </g>
   <g id="line2d_13">
    <path d="M 67.66175 244.910595 
L 92.44775 213.090945 
L 117.23375 178.759216 
L 142.01975 246.306194 
L 166.80575 234.583165 
L 191.59175 181.271294 
L 216.37775 160.058193 
L 241.16375 166.477947 
L 265.94975 138.845093 
L 290.73575 184.620731 
L 315.52175 179.317456 
L 340.30775 163.96587 
L 365.09375 142.473649 
L 389.87975 150.847242 
L 414.66575 242.398518 
L 439.45175 215.044783 
L 464.23775 128.238542 
L 489.02375 137.170374 
L 513.80975 127.401183 
L 538.59575 58.179487 
" clip-path="url(#pab85261d26)" style="fill: none; stroke: #808080; stroke-opacity: 0.3; stroke-width: 1.5; stroke-linecap: square"/>
   </g>
   <g id="line2d_14">
    <path d="M 67.66175 366.628979 
L 92.44775 365.929811 
L 117.23375 363.249668 
L 142.01975 365.055851 
L 166.80575 359.986885 
L 191.59175 342.886408 
L 216.37775 303.49996 
L 241.16375 309.763338 
L 265.94975 332.311497 
L 290.73575 350.955969 
L 315.52175 333.97202 
L 340.30775 282.466665 
L 365.09375 198.828726 
L 389.87975 58.179487 
L 414.66575 100.653926 
L 439.45175 89.117658 
L 464.23775 140.943465 
L 489.02375 222.046921 
L 513.80975 291.526713 
L 538.59575 300.266309 
" clip-path="url(#pab85261d26)" style="fill: none; stroke: #808080; stroke-opacity: 0.3; stroke-width: 1.5; stroke-linecap: square"/>
   </g>
   <g id="line2d_15">
    <path d="M 67.66175 122.149882 
L 92.44775 163.378114 
L 117.23375 169.69777 
L 142.01975 162.002407 
L 166.80575 122.278855 
L 191.59175 181.606237 
L 216.37775 172.793112 
L 241.16375 166.989346 
L 265.94975 145.708872 
L 290.73575 91.497401 
L 315.52175 108.779726 
L 340.30775 58.179487 
L 365.09375 127.007849 
L 389.87975 182.895963 
L 414.66575 144.806064 
L 439.45175 187.23804 
L 464.23775 197.942763 
L 489.02375 167.2043 
L 513.80975 259.935579 
L 538.59575 267.458979 
" clip-path="url(#pab85261d26)" style="fill: none; stroke: #808080; stroke-opacity: 0.3; stroke-width: 1.5; stroke-linecap: square"/>
   </g>
   <g id="line2d_16">
    <path d="M 67.66175 100.100682 
L 92.44775 81.08921 
L 117.23375 81.988806 
L 142.01975 96.922108 
L 166.80575 58.179487 
L 191.59175 115.693687 
L 216.37775 187.121646 
L 241.16375 244.096088 
L 265.94975 286.617014 
L 290.73575 268.685058 
L 315.52175 341.132559 
L 340.30775 341.672317 
L 365.09375 340.352909 
L 389.87975 339.333366 
L 414.66575 337.714093 
L 439.45175 347.309788 
L 464.23775 345.750488 
L 489.02375 356.845511 
L 513.80975 363.502525 
L 538.59575 364.282175 
" clip-path="url(#pab85261d26)" style="fill: none; stroke: #808080; stroke-opacity: 0.3; stroke-width: 1.5; stroke-linecap: square"/>
   </g>
   <g id="line2d_17">
    <path d="M 67.66175 58.179487 
L 92.44775 217.05304 
L 117.23375 260.304789 
L 142.01975 281.419817 
L 166.80575 343.402639 
L 191.59175 361.112017 
L 216.37775 362.474277 
L 241.16375 370.307271 
L 265.94975 369.796423 
L 290.73575 372.520943 
L 315.52175 371.158683 
L 340.30775 370.136988 
L 365.09375 371.158683 
L 389.87975 368.604446 
L 414.66575 369.966706 
L 439.45175 371.499248 
L 464.23775 372.010096 
L 489.02375 371.328966 
L 513.80975 370.647836 
L 538.59575 370.988401 
" clip-path="url(#pab85261d26)" style="fill: none; stroke: #808080; stroke-opacity: 0.3; stroke-width: 1.5; stroke-linecap: square"/>
   </g>
   <g id="line2d_18">
    <path d="M 67.66175 277.005741 
L 92.44775 242.305288 
L 117.23375 214.888218 
L 142.01975 148.873853 
L 166.80575 181.34754 
L 191.59175 190.950472 
L 216.37775 154.023252 
L 241.16375 185.708292 
L 265.94975 178.9816 
L 290.73575 109.209565 
L 315.52175 160.889117 
L 340.30775 155.368591 
L 365.09375 121.224829 
L 389.87975 58.179487 
L 414.66575 123.497987 
L 439.45175 132.033927 
L 464.23775 180.88363 
L 489.02375 236.27446 
L 513.80975 207.651225 
L 538.59575 291.433336 
" clip-path="url(#pab85261d26)" style="fill: none; stroke: #808080; stroke-opacity: 0.3; stroke-width: 1.5; stroke-linecap: square"/>
   </g>
   <g id="line2d_19">
    <path d="M 67.66175 58.179487 
L 92.44775 77.867982 
L 117.23375 109.628634 
L 142.01975 214.081283 
L 166.80575 211.231632 
L 191.59175 72.42774 
L 216.37775 75.225579 
L 241.16375 79.681396 
L 265.94975 77.764358 
L 290.73575 138.436011 
L 315.52175 152.943324 
L 340.30775 189.263416 
L 365.09375 281.436662 
L 389.87975 334.33654 
L 414.66575 344.180788 
L 439.45175 327.860061 
L 464.23775 318.015814 
L 489.02375 321.953513 
L 513.80975 329.258981 
L 538.59575 350.968137 
" clip-path="url(#pab85261d26)" style="fill: none; stroke: #808080; stroke-opacity: 0.3; stroke-width: 1.5; stroke-linecap: square"/>
   </g>
   <g id="line2d_20">
    <path d="M 67.66175 245.055658 
L 92.44775 300.076691 
L 117.23375 323.300558 
L 142.01975 304.092032 
L 166.80575 332.253685 
L 191.59175 343.91988 
L 216.37775 328.184082 
L 241.16375 332.524992 
L 265.94975 348.966188 
L 290.73575 343.323005 
L 315.52175 351.082382 
L 340.30775 342.72613 
L 365.09375 348.043745 
L 389.87975 322.215331 
L 414.66575 250.319011 
L 439.45175 127.851091 
L 464.23775 58.179487 
L 489.02375 113.743133 
L 513.80975 240.389179 
L 538.59575 294.433508 
" clip-path="url(#pab85261d26)" style="fill: none; stroke: #808080; stroke-opacity: 0.3; stroke-width: 1.5; stroke-linecap: square"/>
   </g>
   <g id="line2d_21">
    <path d="M 67.66175 314.914235 
L 92.44775 314.527003 
L 117.23375 342.214084 
L 142.01975 326.724808 
L 166.80575 298.650495 
L 191.59175 288.195234 
L 216.37775 203.77868 
L 241.16375 203.972296 
L 265.94975 205.521224 
L 290.73575 182.28731 
L 315.52175 86.060183 
L 340.30775 58.179487 
L 365.09375 293.035633 
L 389.87975 327.886504 
L 414.66575 230.304065 
L 439.45175 270.188951 
L 464.23775 277.546357 
L 489.02375 265.348552 
L 513.80975 246.761421 
L 538.59575 320.529098 
" clip-path="url(#pab85261d26)" style="fill: none; stroke: #808080; stroke-opacity: 0.3; stroke-width: 1.5; stroke-linecap: square"/>
   </g>
   <g id="line2d_22">
    <path d="M 67.66175 355.337934 
L 92.44775 354.038305 
L 117.23375 357.621066 
L 142.01975 354.28418 
L 166.80575 340.971763 
L 191.59175 345.116526 
L 216.37775 337.283626 
L 241.16375 282.699202 
L 265.94975 164.784201 
L 290.73575 163.976324 
L 315.52175 169.877343 
L 340.30775 141.988004 
L 365.09375 186.315895 
L 389.87975 177.358992 
L 414.66575 209.77947 
L 439.45175 151.506909 
L 464.23775 58.179487 
L 489.02375 64.010255 
L 513.80975 240.092442 
L 538.59575 346.17028 
" clip-path="url(#pab85261d26)" style="fill: none; stroke: #808080; stroke-opacity: 0.3; stroke-width: 1.5; stroke-linecap: square"/>
   </g>
   <g id="line2d_23">
    <path d="M 67.66175 58.179487 
L 92.44775 196.0387 
L 117.23375 343.005102 
L 142.01975 333.758872 
L 166.80575 342.240376 
L 191.59175 348.358183 
L 216.37775 346.68969 
L 241.16375 330.213325 
L 265.94975 335.496885 
L 290.73575 320.967094 
L 315.52175 337.095857 
L 340.30775 350.791402 
L 365.09375 360.871879 
L 389.87975 358.647222 
L 414.66575 361.358522 
L 439.45175 348.566745 
L 464.23775 335.496885 
L 489.02375 339.111953 
L 513.80975 338.76435 
L 538.59575 351.208525 
" clip-path="url(#pab85261d26)" style="fill: none; stroke: #808080; stroke-opacity: 0.3; stroke-width: 1.5; stroke-linecap: square"/>
   </g>
   <g id="line2d_24">
    <path d="M 67.66175 105.628997 
L 92.44775 58.179487 
L 117.23375 268.4993 
L 142.01975 330.461444 
L 166.80575 336.130442 
L 191.59175 349.679346 
L 216.37775 346.051187 
L 241.16375 336.697341 
L 265.94975 351.266665 
L 290.73575 335.110022 
L 315.52175 348.658926 
L 340.30775 352.513845 
L 365.09375 353.477574 
L 389.87975 355.291654 
L 414.66575 351.663495 
L 439.45175 340.83571 
L 464.23775 322.411467 
L 489.02375 359.883542 
L 513.80975 342.989929 
L 538.59575 338.341351 
" clip-path="url(#pab85261d26)" style="fill: none; stroke: #808080; stroke-opacity: 0.3; stroke-width: 1.5; stroke-linecap: square"/>
   </g>
   <g id="line2d_25">
    <path d="M 67.66175 345.506886 
L 92.44775 351.659384 
L 117.23375 351.486884 
L 142.01975 353.873133 
L 166.80575 345.075636 
L 191.59175 347.720635 
L 216.37775 307.154399 
L 241.16375 265.984414 
L 265.94975 166.480699 
L 290.73575 58.179487 
L 315.52175 83.766978 
L 340.30775 170.218197 
L 365.09375 267.220663 
L 389.87975 320.724394 
L 414.66575 346.944385 
L 439.45175 346.053136 
L 464.23775 351.745634 
L 489.02375 357.840631 
L 513.80975 364.654379 
L 538.59575 370.778127 
" clip-path="url(#pab85261d26)" style="fill: none; stroke: #808080; stroke-opacity: 0.3; stroke-width: 1.5; stroke-linecap: square"/>
   </g>
   <g id="line2d_26">
    <path d="M 67.66175 341.848228 
L 92.44775 329.947577 
L 117.23375 339.0513 
L 142.01975 315.551628 
L 166.80575 345.933935 
L 191.59175 350.321272 
L 216.37775 339.02388 
L 241.16375 325.286031 
L 265.94975 297.481285 
L 290.73575 170.413045 
L 315.52175 58.179487 
L 340.30775 92.236188 
L 365.09375 59.194058 
L 389.87975 151.849126 
L 414.66575 286.046788 
L 439.45175 306.502746 
L 464.23775 341.464336 
L 489.02375 356.463543 
L 513.80975 359.26047 
L 538.59575 368.419036 
" clip-path="url(#pab85261d26)" style="fill: none; stroke: #808080; stroke-opacity: 0.3; stroke-width: 1.5; stroke-linecap: square"/>
   </g>
   <g id="line2d_27">
    <path d="M 67.66175 305.028949 
L 92.44775 292.368902 
L 117.23375 105.300612 
L 142.01975 102.425279 
L 166.80575 58.179487 
L 191.59175 263.701405 
L 216.37775 295.158404 
L 241.16375 351.935497 
L 265.94975 333.911023 
L 290.73575 341.378305 
L 315.52175 347.300632 
L 340.30775 336.700525 
L 365.09375 353.222959 
L 389.87975 348.373517 
L 414.66575 357.686162 
L 439.45175 346.871478 
L 464.23775 354.553337 
L 489.02375 349.575149 
L 513.80975 358.372809 
L 538.59575 357.299924 
" clip-path="url(#pab85261d26)" style="fill: none; stroke: #808080; stroke-opacity: 0.3; stroke-width: 1.5; stroke-linecap: square"/>
   </g>
   <g id="line2d_28">
    <path d="M 67.66175 126.394044 
L 92.44775 188.663297 
L 117.23375 148.610712 
L 142.01975 186.785832 
L 166.80575 58.179487 
L 191.59175 147.046158 
L 216.37775 162.065877 
L 241.16375 210.567054 
L 265.94975 149.236534 
L 290.73575 216.199448 
L 315.52175 204.934659 
L 340.30775 154.243107 
L 365.09375 218.702735 
L 389.87975 206.186302 
L 414.66575 245.613065 
L 439.45175 211.505786 
L 464.23775 268.455555 
L 489.02375 219.641467 
L 513.80975 274.087949 
L 538.59575 272.210484 
" clip-path="url(#pab85261d26)" style="fill: none; stroke: #808080; stroke-opacity: 0.3; stroke-width: 1.5; stroke-linecap: square"/>
   </g>
   <g id="line2d_29">
    <path d="M 67.66175 342.096526 
L 92.44775 348.124289 
L 117.23375 341.578515 
L 142.01975 319.304049 
L 166.80575 315.207054 
L 191.59175 318.456395 
L 216.37775 334.467639 
L 241.16375 350.14924 
L 265.94975 319.82206 
L 290.73575 327.074212 
L 315.52175 300.891117 
L 340.30775 293.168047 
L 365.09375 304.941021 
L 389.87975 298.348155 
L 414.66575 238.918183 
L 439.45175 246.499978 
L 464.23775 183.161378 
L 489.02375 58.179487 
L 513.80975 75.038385 
L 538.59575 269.998834 
" clip-path="url(#pab85261d26)" style="fill: none; stroke: #808080; stroke-opacity: 0.3; stroke-width: 1.5; stroke-linecap: square"/>
   </g>
   <g id="line2d_30">
    <path d="M 67.66175 310.184703 
L 92.44775 306.489167 
L 117.23375 307.147276 
L 142.01975 329.776109 
L 166.80575 340.710847 
L 191.59175 314.69022 
L 216.37775 284.366571 
L 241.16375 291.707021 
L 265.94975 337.521549 
L 290.73575 346.127593 
L 315.52175 326.131196 
L 340.30775 302.034273 
L 365.09375 305.476691 
L 389.87975 286.594018 
L 414.66575 282.544115 
L 439.45175 109.157641 
L 464.23775 58.179487 
L 489.02375 123.281678 
L 513.80975 276.216141 
L 538.59575 338.280905 
" clip-path="url(#pab85261d26)" style="fill: none; stroke: #808080; stroke-opacity: 0.3; stroke-width: 1.5; stroke-linecap: square"/>
   </g>
   <g id="line2d_31">
    <path d="M 67.66175 58.179487 
L 92.44775 162.039315 
L 117.23375 174.715121 
L 142.01975 221.636047 
L 166.80575 220.511581 
L 191.59175 243.716483 
L 216.37775 275.712671 
L 241.16375 301.779852 
L 265.94975 310.060016 
L 290.73575 314.966779 
L 315.52175 260.787932 
L 340.30775 196.38666 
L 365.09375 185.346442 
L 389.87975 202.41789 
L 414.66575 245.454296 
L 439.45175 264.36578 
L 464.23775 254.24558 
L 489.02375 263.343538 
L 513.80975 221.124926 
L 538.59575 265.899144 
" clip-path="url(#pab85261d26)" style="fill: none; stroke: #808080; stroke-opacity: 0.3; stroke-width: 1.5; stroke-linecap: square"/>
   </g>
   <g id="line2d_32">
    <path d="M 67.66175 286.881666 
L 92.44775 294.205017 
L 117.23375 320.790311 
L 142.01975 314.954515 
L 166.80575 316.213216 
L 191.59175 315.488509 
L 216.37775 307.173453 
L 241.16375 297.523411 
L 265.94975 222.954906 
L 290.73575 137.439515 
L 315.52175 75.61059 
L 340.30775 63.176149 
L 365.09375 76.487867 
L 389.87975 58.179487 
L 414.66575 104.903998 
L 439.45175 176.802531 
L 464.23775 244.200255 
L 489.02375 287.644515 
L 513.80975 304.579766 
L 538.59575 333.262895 
" clip-path="url(#pab85261d26)" style="fill: none; stroke: #808080; stroke-opacity: 0.3; stroke-width: 1.5; stroke-linecap: square"/>
   </g>
   <g id="line2d_33">
    <path d="M 67.66175 296.599469 
L 92.44775 327.083708 
L 117.23375 328.889646 
L 142.01975 325.458363 
L 166.80575 349.080037 
L 191.59175 352.764151 
L 216.37775 343.048203 
L 241.16375 338.280526 
L 265.94975 331.41796 
L 290.73575 329.756497 
L 315.52175 328.095033 
L 340.30775 325.56672 
L 365.09375 317.295522 
L 389.87975 316.392553 
L 414.66575 259.07207 
L 439.45175 129.983596 
L 464.23775 58.179487 
L 489.02375 154.688832 
L 513.80975 270.268887 
L 538.59575 352.619676 
" clip-path="url(#pab85261d26)" style="fill: none; stroke: #808080; stroke-opacity: 0.3; stroke-width: 1.5; stroke-linecap: square"/>
   </g>
   <g id="line2d_34">
    <path d="M 67.66175 175.257551 
L 92.44775 262.538192 
L 117.23375 308.681183 
L 142.01975 283.96731 
L 166.80575 278.492717 
L 191.59175 273.018125 
L 216.37775 290.771446 
L 241.16375 312.669814 
L 265.94975 309.150434 
L 290.73575 281.699264 
L 315.52175 296.167829 
L 340.30775 291.709947 
L 365.09375 290.380403 
L 389.87975 219.132497 
L 414.66575 103.071143 
L 439.45175 67.877336 
L 464.23775 192.698037 
L 489.02375 274.660503 
L 513.80975 234.070312 
L 538.59575 58.179487 
" clip-path="url(#pab85261d26)" style="fill: none; stroke: #808080; stroke-opacity: 0.3; stroke-width: 1.5; stroke-linecap: square"/>
   </g>
   <g id="line2d_35">
    <path d="M 67.66175 337.31694 
L 92.44775 346.361254 
L 117.23375 331.65611 
L 142.01975 321.310456 
L 166.80575 346.686589 
L 191.59175 317.731771 
L 216.37775 320.074183 
L 241.16375 268.606182 
L 265.94975 92.534866 
L 290.73575 58.179487 
L 315.52175 175.43023 
L 340.30775 132.551074 
L 365.09375 249.476483 
L 389.87975 288.776954 
L 414.66575 340.179888 
L 439.45175 317.471503 
L 464.23775 342.196965 
L 489.02375 335.169729 
L 513.80975 325.409678 
L 538.59575 321.830993 
" clip-path="url(#pab85261d26)" style="fill: none; stroke: #808080; stroke-opacity: 0.3; stroke-width: 1.5; stroke-linecap: square"/>
   </g>
   <g id="line2d_36">
    <path d="M 67.66175 310.763735 
L 92.44775 318.395241 
L 117.23375 357.669579 
L 142.01975 304.807437 
L 166.80575 314.114152 
L 191.59175 269.255785 
L 216.37775 321.745659 
L 241.16375 238.171357 
L 265.94975 283.588127 
L 290.73575 247.105804 
L 315.52175 308.530123 
L 340.30775 313.369615 
L 365.09375 323.234733 
L 389.87975 299.223408 
L 414.66575 335.891866 
L 439.45175 229.050776 
L 464.23775 237.054551 
L 489.02375 58.179487 
L 513.80975 222.908344 
L 538.59575 248.781012 
" clip-path="url(#pab85261d26)" style="fill: none; stroke: #808080; stroke-opacity: 0.3; stroke-width: 1.5; stroke-linecap: square"/>
   </g>
   <g id="line2d_37">
    <path d="M 67.66175 370.831923 
L 92.44775 366.791379 
L 117.23375 369.607516 
L 142.01975 366.760768 
L 166.80575 366.117954 
L 191.59175 362.01619 
L 216.37775 362.0468 
L 241.16375 355.49622 
L 265.94975 347.23147 
L 290.73575 301.714124 
L 315.52175 254.635658 
L 340.30775 207.955125 
L 365.09375 85.667433 
L 389.87975 58.179487 
L 414.66575 165.8049 
L 439.45175 175.84504 
L 464.23775 287.357947 
L 489.02375 344.0174 
L 513.80975 369.546295 
L 538.59575 373.831721 
" clip-path="url(#pab85261d26)" style="fill: none; stroke: #808080; stroke-opacity: 0.3; stroke-width: 1.5; stroke-linecap: square"/>
   </g>
   <g id="line2d_38">
    <path d="M 67.66175 210.07335 
L 92.44775 194.530722 
L 117.23375 268.711446 
L 142.01975 226.322461 
L 166.80575 282.134625 
L 191.59175 287.786489 
L 216.37775 294.144837 
L 241.16375 268.711446 
L 265.94975 272.950345 
L 290.73575 186.052925 
L 315.52175 139.425042 
L 340.30775 104.80737 
L 365.09375 118.230549 
L 389.87975 222.083562 
L 414.66575 268.004963 
L 439.45175 58.179487 
L 464.23775 94.916607 
L 489.02375 126.001863 
L 513.80975 209.366867 
L 538.59575 315.33933 
" clip-path="url(#pab85261d26)" style="fill: none; stroke: #808080; stroke-opacity: 0.3; stroke-width: 1.5; stroke-linecap: square"/>
   </g>
   <g id="line2d_39">
    <path d="M 67.66175 83.786814 
L 92.44775 143.215141 
L 117.23375 166.88984 
L 142.01975 166.24563 
L 166.80575 65.265791 
L 191.59175 135.162522 
L 216.37775 86.524705 
L 241.16375 87.007862 
L 265.94975 70.58052 
L 290.73575 115.514132 
L 315.52175 58.179487 
L 340.30775 135.806731 
L 365.09375 235.820256 
L 389.87975 162.541426 
L 414.66575 128.559375 
L 439.45175 126.304641 
L 464.23775 241.457089 
L 489.02375 223.258171 
L 513.80975 280.270712 
L 538.59575 341.470614 
" clip-path="url(#pab85261d26)" style="fill: none; stroke: #808080; stroke-opacity: 0.3; stroke-width: 1.5; stroke-linecap: square"/>
   </g>
   <g id="line2d_40">
    <path d="M 67.66175 304.589761 
L 92.44775 248.402294 
L 117.23375 197.028251 
L 142.01975 201.332563 
L 166.80575 305.330288 
L 191.59175 236.276169 
L 216.37775 275.385238 
L 241.16375 256.825786 
L 265.94975 308.616375 
L 290.73575 294.731499 
L 315.52175 319.539145 
L 340.30775 321.621876 
L 365.09375 308.52381 
L 389.87975 196.148876 
L 414.66575 105.249218 
L 439.45175 79.238216 
L 464.23775 235.211662 
L 489.02375 86.689766 
L 513.80975 58.179487 
L 538.59575 161.436685 
" clip-path="url(#pab85261d26)" style="fill: none; stroke: #808080; stroke-opacity: 0.3; stroke-width: 1.5; stroke-linecap: square"/>
   </g>
   <g id="line2d_41">
    <path d="M 67.66175 262.637418 
L 92.44775 300.002419 
L 117.23375 310.498206 
L 142.01975 304.305692 
L 166.80575 317.320468 
L 191.59175 348.702871 
L 216.37775 334.848432 
L 241.16375 241.226012 
L 265.94975 58.179487 
L 290.73575 124.617818 
L 315.52175 298.00822 
L 340.30775 308.294091 
L 365.09375 322.14853 
L 389.87975 310.393248 
L 414.66575 272.188584 
L 439.45175 270.4043 
L 464.23775 257.179608 
L 489.02375 291.290916 
L 513.80975 359.828405 
L 538.59575 366.755625 
" clip-path="url(#pab85261d26)" style="fill: none; stroke: #808080; stroke-opacity: 0.3; stroke-width: 1.5; stroke-linecap: square"/>
   </g>
   <g id="line2d_42">
    <path d="M 67.66175 299.801648 
L 92.44775 226.020742 
L 117.23375 210.687504 
L 142.01975 189.3776 
L 166.80575 125.530325 
L 191.59175 138.060713 
L 216.37775 58.179487 
L 241.16375 101.623662 
L 265.94975 243.373682 
L 290.73575 316.000473 
L 315.52175 349.71711 
L 340.30775 294.773005 
L 365.09375 234.882695 
L 389.87975 195.189392 
L 414.66575 162.915398 
L 439.45175 303.0579 
L 464.23775 350.088075 
L 489.02375 352.808489 
L 513.80975 364.555728 
L 538.59575 367.399796 
" clip-path="url(#pab85261d26)" style="fill: none; stroke: #808080; stroke-opacity: 0.3; stroke-width: 1.5; stroke-linecap: square"/>
   </g>
   <g id="line2d_43">
    <path d="M 67.66175 121.930179 
L 92.44775 93.433968 
L 117.23375 161.713398 
L 142.01975 150.078026 
L 166.80575 143.528775 
L 191.59175 182.2669 
L 216.37775 58.179487 
L 241.16375 81.937942 
L 265.94975 194.32031 
L 290.73575 235.636333 
L 315.52175 275.767916 
L 340.30775 277.718757 
L 365.09375 216.127924 
L 389.87975 190.69732 
L 414.66575 215.988578 
L 439.45175 141.71728 
L 464.23775 183.730031 
L 489.02375 235.218295 
L 513.80975 245.599556 
L 538.59575 264.480908 
" clip-path="url(#pab85261d26)" style="fill: none; stroke: #808080; stroke-opacity: 0.3; stroke-width: 1.5; stroke-linecap: square"/>
   </g>
   <g id="line2d_44">
    <path d="M 67.66175 242.882134 
L 92.44775 263.416001 
L 117.23375 327.775884 
L 142.01975 317.50895 
L 166.80575 332.168701 
L 191.59175 334.007555 
L 216.37775 286.299515 
L 241.16375 290.998808 
L 265.94975 270.771416 
L 290.73575 80.296811 
L 315.52175 58.179487 
L 340.30775 139.497688 
L 365.09375 180.105709 
L 389.87975 298.098827 
L 414.66575 341.975921 
L 439.45175 323.84278 
L 464.23775 319.041328 
L 489.02375 323.944938 
L 513.80975 303.870785 
L 538.59575 315.516859 
" clip-path="url(#pab85261d26)" style="fill: none; stroke: #808080; stroke-opacity: 0.3; stroke-width: 1.5; stroke-linecap: square"/>
   </g>
   <g id="line2d_45">
    <path d="M 67.66175 58.179487 
L 92.44775 144.707184 
L 117.23375 291.290221 
L 142.01975 359.860194 
L 166.80575 368.805088 
L 191.59175 371.816913 
L 216.37775 372.790661 
L 241.16375 373.673828 
L 265.94975 372.858597 
L 290.73575 370.86581 
L 315.52175 372.926533 
L 340.30775 372.722725 
L 365.09375 372.020721 
L 389.87975 368.669216 
L 414.66575 364.638352 
L 439.45175 369.688255 
L 464.23775 371.907494 
L 489.02375 361.943562 
L 513.80975 352.817505 
L 538.59575 366.427331 
" clip-path="url(#pab85261d26)" style="fill: none; stroke: #808080; stroke-opacity: 0.3; stroke-width: 1.5; stroke-linecap: square"/>
   </g>
   <g id="line2d_46">
    <path d="M 67.66175 58.179487 
L 92.44775 70.360338 
L 117.23375 222.635108 
L 142.01975 343.426193 
L 166.80575 370.727126 
L 191.59175 373.327215 
L 216.37775 373.440262 
L 241.16375 372.677193 
L 265.94975 371.264101 
L 290.73575 372.677193 
L 315.52175 371.829338 
L 340.30775 368.77706 
L 365.09375 369.116202 
L 389.87975 355.154855 
L 414.66575 272.206367 
L 439.45175 262.371249 
L 464.23775 310.27506 
L 489.02375 358.546275 
L 513.80975 371.998909 
L 538.59575 371.574981 
" clip-path="url(#pab85261d26)" style="fill: none; stroke: #808080; stroke-opacity: 0.3; stroke-width: 1.5; stroke-linecap: square"/>
   </g>
   <g id="line2d_47">
    <path d="M 67.66175 222.212398 
L 92.44775 240.068532 
L 117.23375 263.399172 
L 142.01975 269.677973 
L 166.80575 268.428554 
L 191.59175 276.604455 
L 216.37775 266.464267 
L 241.16375 264.469706 
L 265.94975 252.951935 
L 290.73575 237.888705 
L 315.52175 241.323568 
L 340.30775 235.605504 
L 365.09375 250.525042 
L 389.87975 246.680316 
L 414.66575 250.308831 
L 439.45175 228.583657 
L 464.23775 243.320529 
L 489.02375 249.920874 
L 513.80975 281.204343 
L 538.59575 307.530999 
" clip-path="url(#pab85261d26)" style="fill: none; stroke: #000000; stroke-width: 2; stroke-linecap: square"/>
   </g>
   <g id="patch_3">
    <path d="M 55.26875 376.096875 
L 55.26875 42.396875 
" style="fill: none; stroke: #000000; stroke-width: 1.5; stroke-linejoin: miter; stroke-linecap: square"/>
   </g>
   <g id="patch_4">
    <path d="M 55.26875 376.096875 
L 550.98875 376.096875 
" style="fill: none; stroke: #000000; stroke-width: 1.5; stroke-linejoin: miter; stroke-linecap: square"/>
   </g>
   <g id="text_15">
    <!-- - MinCDE (n=17) -->
    <g transform="translate(219.174062 22.396875) scale(0.2 -0.2)">
     <defs>
      <path id="DejaVuSans-4d" d="M 628 4666 
L 1569 4666 
L 2759 1491 
L 3956 4666 
L 4897 4666 
L 4897 0 
L 4281 0 
L 4281 4097 
L 3078 897 
L 2444 897 
L 1241 4097 
L 1241 0 
L 628 0 
L 628 4666 
z
" transform="scale(0.015625)"/>
      <path id="DejaVuSans-43" d="M 4122 4306 
L 4122 3641 
Q 3803 3938 3442 4084 
Q 3081 4231 2675 4231 
Q 1875 4231 1450 3742 
Q 1025 3253 1025 2328 
Q 1025 1406 1450 917 
Q 1875 428 2675 428 
Q 3081 428 3442 575 
Q 3803 722 4122 1019 
L 4122 359 
Q 3791 134 3420 21 
Q 3050 -91 2638 -91 
Q 1578 -91 968 557 
Q 359 1206 359 2328 
Q 359 3453 968 4101 
Q 1578 4750 2638 4750 
Q 3056 4750 3426 4639 
Q 3797 4528 4122 4306 
z
" transform="scale(0.015625)"/>
      <path id="DejaVuSans-44" d="M 1259 4147 
L 1259 519 
L 2022 519 
Q 2988 519 3436 956 
Q 3884 1394 3884 2338 
Q 3884 3275 3436 3711 
Q 2988 4147 2022 4147 
L 1259 4147 
z
M 628 4666 
L 1925 4666 
Q 3281 4666 3915 4102 
Q 4550 3538 4550 2338 
Q 4550 1131 3912 565 
Q 3275 0 1925 0 
L 628 0 
L 628 4666 
z
" transform="scale(0.015625)"/>
      <path id="DejaVuSans-45" d="M 628 4666 
L 3578 4666 
L 3578 4134 
L 1259 4134 
L 1259 2753 
L 3481 2753 
L 3481 2222 
L 1259 2222 
L 1259 531 
L 3634 531 
L 3634 0 
L 628 0 
L 628 4666 
z
" transform="scale(0.015625)"/>
      <path id="DejaVuSans-28" d="M 1984 4856 
Q 1566 4138 1362 3434 
Q 1159 2731 1159 2009 
Q 1159 1288 1364 580 
Q 1569 -128 1984 -844 
L 1484 -844 
Q 1016 -109 783 600 
Q 550 1309 550 2009 
Q 550 2706 781 3412 
Q 1013 4119 1484 4856 
L 1984 4856 
z
" transform="scale(0.015625)"/>
      <path id="DejaVuSans-3d" d="M 678 2906 
L 4684 2906 
L 4684 2381 
L 678 2381 
L 678 2906 
z
M 678 1631 
L 4684 1631 
L 4684 1100 
L 678 1100 
L 678 1631 
z
" transform="scale(0.015625)"/>
      <path id="DejaVuSans-37" d="M 525 4666 
L 3525 4666 
L 3525 4397 
L 1831 0 
L 1172 0 
L 2766 4134 
L 525 4134 
L 525 4666 
z
" transform="scale(0.015625)"/>
      <path id="DejaVuSans-29" d="M 513 4856 
L 1013 4856 
Q 1481 4119 1714 3412 
Q 1947 2706 1947 2009 
Q 1947 1309 1714 600 
Q 1481 -109 1013 -844 
L 513 -844 
Q 928 -128 1133 580 
Q 1338 1288 1338 2009 
Q 1338 2731 1133 3434 
Q 928 4138 513 4856 
z
" transform="scale(0.015625)"/>
     </defs>
     <use xlink:href="#DejaVuSans-2d"/>
     <use xlink:href="#DejaVuSans-20" x="36.083984"/>
     <use xlink:href="#DejaVuSans-4d" x="67.871094"/>
     <use xlink:href="#DejaVuSans-69" x="154.150391"/>
     <use xlink:href="#DejaVuSans-6e" x="181.933594"/>
     <use xlink:href="#DejaVuSans-43" x="245.3125"/>
     <use xlink:href="#DejaVuSans-44" x="315.136719"/>
     <use xlink:href="#DejaVuSans-45" x="392.138672"/>
     <use xlink:href="#DejaVuSans-20" x="455.322266"/>
     <use xlink:href="#DejaVuSans-28" x="487.109375"/>
     <use xlink:href="#DejaVuSans-6e" x="526.123047"/>
     <use xlink:href="#DejaVuSans-3d" x="589.501953"/>
     <use xlink:href="#DejaVuSans-31" x="673.291016"/>
     <use xlink:href="#DejaVuSans-37" x="736.914062"/>
     <use xlink:href="#DejaVuSans-29" x="800.537109"/>
    </g>
   </g>
   <g id="legend_1">
    <g id="patch_5">
     <path d="M 445.824687 65.075 
L 543.98875 65.075 
Q 545.98875 65.075 545.98875 63.075 
L 545.98875 49.396875 
Q 545.98875 47.396875 543.98875 47.396875 
L 445.824687 47.396875 
Q 443.824687 47.396875 443.824687 49.396875 
L 443.824687 63.075 
Q 443.824687 65.075 445.824687 65.075 
z
" style="fill: #ffffff; opacity: 0.8; stroke: #cccccc; stroke-linejoin: miter"/>
    </g>
    <g id="line2d_48">
     <path d="M 447.824687 55.495312 
L 457.824687 55.495312 
L 467.824687 55.495312 
" style="fill: none; stroke: #000000; stroke-width: 2; stroke-linecap: square"/>
    </g>
    <g id="text_16">
     <!-- Overall Mean -->
     <g transform="translate(475.824687 58.995312) scale(0.1 -0.1)">
      <defs>
       <path id="DejaVuSans-4f" d="M 2522 4238 
Q 1834 4238 1429 3725 
Q 1025 3213 1025 2328 
Q 1025 1447 1429 934 
Q 1834 422 2522 422 
Q 3209 422 3611 934 
Q 4013 1447 4013 2328 
Q 4013 3213 3611 3725 
Q 3209 4238 2522 4238 
z
M 2522 4750 
Q 3503 4750 4090 4092 
Q 4678 3434 4678 2328 
Q 4678 1225 4090 567 
Q 3503 -91 2522 -91 
Q 1538 -91 948 565 
Q 359 1222 359 2328 
Q 359 3434 948 4092 
Q 1538 4750 2522 4750 
z
" transform="scale(0.015625)"/>
       <path id="DejaVuSans-76" d="M 191 3500 
L 800 3500 
L 1894 563 
L 2988 3500 
L 3597 3500 
L 2284 0 
L 1503 0 
L 191 3500 
z
" transform="scale(0.015625)"/>
      </defs>
      <use xlink:href="#DejaVuSans-4f"/>
      <use xlink:href="#DejaVuSans-76" x="78.710938"/>
      <use xlink:href="#DejaVuSans-65" x="137.890625"/>
      <use xlink:href="#DejaVuSans-72" x="199.414062"/>
      <use xlink:href="#DejaVuSans-61" x="240.527344"/>
      <use xlink:href="#DejaVuSans-6c" x="301.806641"/>
      <use xlink:href="#DejaVuSans-6c" x="329.589844"/>
      <use xlink:href="#DejaVuSans-20" x="357.373047"/>
      <use xlink:href="#DejaVuSans-4d" x="389.160156"/>
      <use xlink:href="#DejaVuSans-65" x="475.439453"/>
      <use xlink:href="#DejaVuSans-61" x="536.962891"/>
      <use xlink:href="#DejaVuSans-6e" x="598.242188"/>
     </g>
    </g>
   </g>
  </g>
 </g>
 <defs>
  <clipPath id="pab85261d26">
   <rect x="55.26875" y="42.396875" width="495.72" height="333.7"/>
  </clipPath>
 </defs>
</svg>
