<?xml version="1.0" encoding="utf-8" standalone="no"?>
<!DOCTYPE svg PUBLIC "-//W3C//DTD SVG 1.1//EN"
  "http://www.w3.org/Graphics/SVG/1.1/DTD/svg11.dtd">
<svg xmlns:xlink="http://www.w3.org/1999/xlink" width="570.025625pt" height="423.895625pt" viewBox="0 0 570.025625 423.895625" xmlns="http://www.w3.org/2000/svg" version="1.1">
 <metadata>
  <rdf:RDF xmlns:dc="http://purl.org/dc/elements/1.1/" xmlns:cc="http://creativecommons.org/ns#" xmlns:rdf="http://www.w3.org/1999/02/22-rdf-syntax-ns#">
   <cc:Work>
    <dc:type rdf:resource="http://purl.org/dc/dcmitype/StillImage"/>
    <dc:date>2026-01-14T15:57:32.552655</dc:date>
    <dc:format>image/svg+xml</dc:format>
    <dc:creator>
     <cc:Agent>
      <dc:title>Matplotlib v3.10.8, https://matplotlib.org/</dc:title>
     </cc:Agent>
    </dc:creator>
   </cc:Work>
  </rdf:RDF>
 </metadata>
 <defs>
  <style type="text/css">*{stroke-linejoin: round; stroke-linecap: butt}</style>
 </defs>
 <g id="figure_1">
  <g id="patch_1">
   <path d="M 0 423.895625 
L 570.025625 423.895625 
L 570.025625 0 
L 0 0 
z
" style="fill: #ffffff"/>
  </g>
  <g id="axes_1">
   <g id="patch_2">
    <path d="M 55.26875 376.096875 
L 553.28375 376.096875 
L 553.28375 42.396875 
L 55.26875 42.396875 
z
" style="fill: #ffffff"/>
   </g>
   <g id="matplotlib.axis_1">
    <g id="xtick_1">
     <g id="line2d_1">
      <defs>
       <path id="mcb76b4468c" d="M 0 0 
L 0 6 
" style="stroke: #000000; stroke-width: 1.5"/>
      </defs>
      <g>
       <use xlink:href="#mcb76b4468c" x="55.26875" y="376.096875" style="stroke: #000000; stroke-width: 1.5"/>
      </g>
     </g>
     <g id="text_1">
      <!-- 0.0 -->
      <g transform="translate(45.726875 394.715) scale(0.12 -0.12)">
       <defs>
        <path id="DejaVuSans-30" d="M 2034 4250 
Q 1547 4250 1301 3770 
Q 1056 3291 1056 2328 
Q 1056 1369 1301 889 
Q 1547 409 2034 409 
Q 2525 409 2770 889 
Q 3016 1369 3016 2328 
Q 3016 3291 2770 3770 
Q 2525 4250 2034 4250 
z
M 2034 4750 
Q 2819 4750 3233 4129 
Q 3647 3509 3647 2328 
Q 3647 1150 3233 529 
Q 2819 -91 2034 -91 
Q 1250 -91 836 529 
Q 422 1150 422 2328 
Q 422 3509 836 4129 
Q 1250 4750 2034 4750 
z
" transform="scale(0.015625)"/>
        <path id="DejaVuSans-2e" d="M 684 794 
L 1344 794 
L 1344 0 
L 684 0 
L 684 794 
z
" transform="scale(0.015625)"/>
       </defs>
       <use xlink:href="#DejaVuSans-30"/>
       <use xlink:href="#DejaVuSans-2e" transform="translate(63.623047 0)"/>
       <use xlink:href="#DejaVuSans-30" transform="translate(95.410156 0)"/>
      </g>
     </g>
    </g>
    <g id="xtick_2">
     <g id="line2d_2">
      <g>
       <use xlink:href="#mcb76b4468c" x="154.87175" y="376.096875" style="stroke: #000000; stroke-width: 1.5"/>
      </g>
     </g>
     <g id="text_2">
      <!-- 0.2 -->
      <g transform="translate(145.329875 394.715) scale(0.12 -0.12)">
       <defs>
        <path id="DejaVuSans-32" d="M 1228 531 
L 3431 531 
L 3431 0 
L 469 0 
L 469 531 
Q 828 903 1448 1529 
Q 2069 2156 2228 2338 
Q 2531 2678 2651 2914 
Q 2772 3150 2772 3378 
Q 2772 3750 2511 3984 
Q 2250 4219 1831 4219 
Q 1534 4219 1204 4116 
Q 875 4013 500 3803 
L 500 4441 
Q 881 4594 1212 4672 
Q 1544 4750 1819 4750 
Q 2544 4750 2975 4387 
Q 3406 4025 3406 3419 
Q 3406 3131 3298 2873 
Q 3191 2616 2906 2266 
Q 2828 2175 2409 1742 
Q 1991 1309 1228 531 
z
" transform="scale(0.015625)"/>
       </defs>
       <use xlink:href="#DejaVuSans-30"/>
       <use xlink:href="#DejaVuSans-2e" transform="translate(63.623047 0)"/>
       <use xlink:href="#DejaVuSans-32" transform="translate(95.410156 0)"/>
      </g>
     </g>
    </g>
    <g id="xtick_3">
     <g id="line2d_3">
      <g>
       <use xlink:href="#mcb76b4468c" x="254.47475" y="376.096875" style="stroke: #000000; stroke-width: 1.5"/>
      </g>
     </g>
     <g id="text_3">
      <!-- 0.4 -->
      <g transform="translate(244.932875 394.715) scale(0.12 -0.12)">
       <defs>
        <path id="DejaVuSans-34" d="M 2419 4116 
L 825 1625 
L 2419 1625 
L 2419 4116 
z
M 2253 4666 
L 3047 4666 
L 3047 1625 
L 3713 1625 
L 3713 1100 
L 3047 1100 
L 3047 0 
L 2419 0 
L 2419 1100 
L 313 1100 
L 313 1709 
L 2253 4666 
z
" transform="scale(0.015625)"/>
       </defs>
       <use xlink:href="#DejaVuSans-30"/>
       <use xlink:href="#DejaVuSans-2e" transform="translate(63.623047 0)"/>
       <use xlink:href="#DejaVuSans-34" transform="translate(95.410156 0)"/>
      </g>
     </g>
    </g>
    <g id="xtick_4">
     <g id="line2d_4">
      <g>
       <use xlink:href="#mcb76b4468c" x="354.07775" y="376.096875" style="stroke: #000000; stroke-width: 1.5"/>
      </g>
     </g>
     <g id="text_4">
      <!-- 0.6 -->
      <g transform="translate(344.535875 394.715) scale(0.12 -0.12)">
       <defs>
        <path id="DejaVuSans-36" d="M 2113 2584 
Q 1688 2584 1439 2293 
Q 1191 2003 1191 1497 
Q 1191 994 1439 701 
Q 1688 409 2113 409 
Q 2538 409 2786 701 
Q 3034 994 3034 1497 
Q 3034 2003 2786 2293 
Q 2538 2584 2113 2584 
z
M 3366 4563 
L 3366 3988 
Q 3128 4100 2886 4159 
Q 2644 4219 2406 4219 
Q 1781 4219 1451 3797 
Q 1122 3375 1075 2522 
Q 1259 2794 1537 2939 
Q 1816 3084 2150 3084 
Q 2853 3084 3261 2657 
Q 3669 2231 3669 1497 
Q 3669 778 3244 343 
Q 2819 -91 2113 -91 
Q 1303 -91 875 529 
Q 447 1150 447 2328 
Q 447 3434 972 4092 
Q 1497 4750 2381 4750 
Q 2619 4750 2861 4703 
Q 3103 4656 3366 4563 
z
" transform="scale(0.015625)"/>
       </defs>
       <use xlink:href="#DejaVuSans-30"/>
       <use xlink:href="#DejaVuSans-2e" transform="translate(63.623047 0)"/>
       <use xlink:href="#DejaVuSans-36" transform="translate(95.410156 0)"/>
      </g>
     </g>
    </g>
    <g id="xtick_5">
     <g id="line2d_5">
      <g>
       <use xlink:href="#mcb76b4468c" x="453.68075" y="376.096875" style="stroke: #000000; stroke-width: 1.5"/>
      </g>
     </g>
     <g id="text_5">
      <!-- 0.8 -->
      <g transform="translate(444.138875 394.715) scale(0.12 -0.12)">
       <defs>
        <path id="DejaVuSans-38" d="M 2034 2216 
Q 1584 2216 1326 1975 
Q 1069 1734 1069 1313 
Q 1069 891 1326 650 
Q 1584 409 2034 409 
Q 2484 409 2743 651 
Q 3003 894 3003 1313 
Q 3003 1734 2745 1975 
Q 2488 2216 2034 2216 
z
M 1403 2484 
Q 997 2584 770 2862 
Q 544 3141 544 3541 
Q 544 4100 942 4425 
Q 1341 4750 2034 4750 
Q 2731 4750 3128 4425 
Q 3525 4100 3525 3541 
Q 3525 3141 3298 2862 
Q 3072 2584 2669 2484 
Q 3125 2378 3379 2068 
Q 3634 1759 3634 1313 
Q 3634 634 3220 271 
Q 2806 -91 2034 -91 
Q 1263 -91 848 271 
Q 434 634 434 1313 
Q 434 1759 690 2068 
Q 947 2378 1403 2484 
z
M 1172 3481 
Q 1172 3119 1398 2916 
Q 1625 2713 2034 2713 
Q 2441 2713 2670 2916 
Q 2900 3119 2900 3481 
Q 2900 3844 2670 4047 
Q 2441 4250 2034 4250 
Q 1625 4250 1398 4047 
Q 1172 3844 1172 3481 
z
" transform="scale(0.015625)"/>
       </defs>
       <use xlink:href="#DejaVuSans-30"/>
       <use xlink:href="#DejaVuSans-2e" transform="translate(63.623047 0)"/>
       <use xlink:href="#DejaVuSans-38" transform="translate(95.410156 0)"/>
      </g>
     </g>
    </g>
    <g id="xtick_6">
     <g id="line2d_6">
      <g>
       <use xlink:href="#mcb76b4468c" x="553.28375" y="376.096875" style="stroke: #000000; stroke-width: 1.5"/>
      </g>
     </g>
     <g id="text_6">
      <!-- 1.0 -->
      <g transform="translate(543.741875 394.715) scale(0.12 -0.12)">
       <defs>
        <path id="DejaVuSans-31" d="M 794 531 
L 1825 531 
L 1825 4091 
L 703 3866 
L 703 4441 
L 1819 4666 
L 2450 4666 
L 2450 531 
L 3481 531 
L 3481 0 
L 794 0 
L 794 531 
z
" transform="scale(0.015625)"/>
       </defs>
       <use xlink:href="#DejaVuSans-31"/>
       <use xlink:href="#DejaVuSans-2e" transform="translate(63.623047 0)"/>
       <use xlink:href="#DejaVuSans-30" transform="translate(95.410156 0)"/>
      </g>
     </g>
    </g>
    <g id="text_7">
     <!-- Normalized distance from equator -->
     <g transform="translate(167.475 413.368125) scale(0.16 -0.16)">
      <defs>
       <path id="DejaVuSans-4e" d="M 628 4666 
L 1478 4666 
L 3547 763 
L 3547 4666 
L 4159 4666 
L 4159 0 
L 3309 0 
L 1241 3903 
L 1241 0 
L 628 0 
L 628 4666 
z
" transform="scale(0.015625)"/>
       <path id="DejaVuSans-6f" d="M 1959 3097 
Q 1497 3097 1228 2736 
Q 959 2375 959 1747 
Q 959 1119 1226 758 
Q 1494 397 1959 397 
Q 2419 397 2687 759 
Q 2956 1122 2956 1747 
Q 2956 2369 2687 2733 
Q 2419 3097 1959 3097 
z
M 1959 3584 
Q 2709 3584 3137 3096 
Q 3566 2609 3566 1747 
Q 3566 888 3137 398 
Q 2709 -91 1959 -91 
Q 1206 -91 779 398 
Q 353 888 353 1747 
Q 353 2609 779 3096 
Q 1206 3584 1959 3584 
z
" transform="scale(0.015625)"/>
       <path id="DejaVuSans-72" d="M 2631 2963 
Q 2534 3019 2420 3045 
Q 2306 3072 2169 3072 
Q 1681 3072 1420 2755 
Q 1159 2438 1159 1844 
L 1159 0 
L 581 0 
L 581 3500 
L 1159 3500 
L 1159 2956 
Q 1341 3275 1631 3429 
Q 1922 3584 2338 3584 
Q 2397 3584 2469 3576 
Q 2541 3569 2628 3553 
L 2631 2963 
z
" transform="scale(0.015625)"/>
       <path id="DejaVuSans-6d" d="M 3328 2828 
Q 3544 3216 3844 3400 
Q 4144 3584 4550 3584 
Q 5097 3584 5394 3201 
Q 5691 2819 5691 2113 
L 5691 0 
L 5113 0 
L 5113 2094 
Q 5113 2597 4934 2840 
Q 4756 3084 4391 3084 
Q 3944 3084 3684 2787 
Q 3425 2491 3425 1978 
L 3425 0 
L 2847 0 
L 2847 2094 
Q 2847 2600 2669 2842 
Q 2491 3084 2119 3084 
Q 1678 3084 1418 2786 
Q 1159 2488 1159 1978 
L 1159 0 
L 581 0 
L 581 3500 
L 1159 3500 
L 1159 2956 
Q 1356 3278 1631 3431 
Q 1906 3584 2284 3584 
Q 2666 3584 2933 3390 
Q 3200 3197 3328 2828 
z
" transform="scale(0.015625)"/>
       <path id="DejaVuSans-61" d="M 2194 1759 
Q 1497 1759 1228 1600 
Q 959 1441 959 1056 
Q 959 750 1161 570 
Q 1363 391 1709 391 
Q 2188 391 2477 730 
Q 2766 1069 2766 1631 
L 2766 1759 
L 2194 1759 
z
M 3341 1997 
L 3341 0 
L 2766 0 
L 2766 531 
Q 2569 213 2275 61 
Q 1981 -91 1556 -91 
Q 1019 -91 701 211 
Q 384 513 384 1019 
Q 384 1609 779 1909 
Q 1175 2209 1959 2209 
L 2766 2209 
L 2766 2266 
Q 2766 2663 2505 2880 
Q 2244 3097 1772 3097 
Q 1472 3097 1187 3025 
Q 903 2953 641 2809 
L 641 3341 
Q 956 3463 1253 3523 
Q 1550 3584 1831 3584 
Q 2591 3584 2966 3190 
Q 3341 2797 3341 1997 
z
" transform="scale(0.015625)"/>
       <path id="DejaVuSans-6c" d="M 603 4863 
L 1178 4863 
L 1178 0 
L 603 0 
L 603 4863 
z
" transform="scale(0.015625)"/>
       <path id="DejaVuSans-69" d="M 603 3500 
L 1178 3500 
L 1178 0 
L 603 0 
L 603 3500 
z
M 603 4863 
L 1178 4863 
L 1178 4134 
L 603 4134 
L 603 4863 
z
" transform="scale(0.015625)"/>
       <path id="DejaVuSans-7a" d="M 353 3500 
L 3084 3500 
L 3084 2975 
L 922 459 
L 3084 459 
L 3084 0 
L 275 0 
L 275 525 
L 2438 3041 
L 353 3041 
L 353 3500 
z
" transform="scale(0.015625)"/>
       <path id="DejaVuSans-65" d="M 3597 1894 
L 3597 1613 
L 953 1613 
Q 991 1019 1311 708 
Q 1631 397 2203 397 
Q 2534 397 2845 478 
Q 3156 559 3463 722 
L 3463 178 
Q 3153 47 2828 -22 
Q 2503 -91 2169 -91 
Q 1331 -91 842 396 
Q 353 884 353 1716 
Q 353 2575 817 3079 
Q 1281 3584 2069 3584 
Q 2775 3584 3186 3129 
Q 3597 2675 3597 1894 
z
M 3022 2063 
Q 3016 2534 2758 2815 
Q 2500 3097 2075 3097 
Q 1594 3097 1305 2825 
Q 1016 2553 972 2059 
L 3022 2063 
z
" transform="scale(0.015625)"/>
       <path id="DejaVuSans-64" d="M 2906 2969 
L 2906 4863 
L 3481 4863 
L 3481 0 
L 2906 0 
L 2906 525 
Q 2725 213 2448 61 
Q 2172 -91 1784 -91 
Q 1150 -91 751 415 
Q 353 922 353 1747 
Q 353 2572 751 3078 
Q 1150 3584 1784 3584 
Q 2172 3584 2448 3432 
Q 2725 3281 2906 2969 
z
M 947 1747 
Q 947 1113 1208 752 
Q 1469 391 1925 391 
Q 2381 391 2643 752 
Q 2906 1113 2906 1747 
Q 2906 2381 2643 2742 
Q 2381 3103 1925 3103 
Q 1469 3103 1208 2742 
Q 947 2381 947 1747 
z
" transform="scale(0.015625)"/>
       <path id="DejaVuSans-20" transform="scale(0.015625)"/>
       <path id="DejaVuSans-73" d="M 2834 3397 
L 2834 2853 
Q 2591 2978 2328 3040 
Q 2066 3103 1784 3103 
Q 1356 3103 1142 2972 
Q 928 2841 928 2578 
Q 928 2378 1081 2264 
Q 1234 2150 1697 2047 
L 1894 2003 
Q 2506 1872 2764 1633 
Q 3022 1394 3022 966 
Q 3022 478 2636 193 
Q 2250 -91 1575 -91 
Q 1294 -91 989 -36 
Q 684 19 347 128 
L 347 722 
Q 666 556 975 473 
Q 1284 391 1588 391 
Q 1994 391 2212 530 
Q 2431 669 2431 922 
Q 2431 1156 2273 1281 
Q 2116 1406 1581 1522 
L 1381 1569 
Q 847 1681 609 1914 
Q 372 2147 372 2553 
Q 372 3047 722 3315 
Q 1072 3584 1716 3584 
Q 2034 3584 2315 3537 
Q 2597 3491 2834 3397 
z
" transform="scale(0.015625)"/>
       <path id="DejaVuSans-74" d="M 1172 4494 
L 1172 3500 
L 2356 3500 
L 2356 3053 
L 1172 3053 
L 1172 1153 
Q 1172 725 1289 603 
Q 1406 481 1766 481 
L 2356 481 
L 2356 0 
L 1766 0 
Q 1100 0 847 248 
Q 594 497 594 1153 
L 594 3053 
L 172 3053 
L 172 3500 
L 594 3500 
L 594 4494 
L 1172 4494 
z
" transform="scale(0.015625)"/>
       <path id="DejaVuSans-6e" d="M 3513 2113 
L 3513 0 
L 2938 0 
L 2938 2094 
Q 2938 2591 2744 2837 
Q 2550 3084 2163 3084 
Q 1697 3084 1428 2787 
Q 1159 2491 1159 1978 
L 1159 0 
L 581 0 
L 581 3500 
L 1159 3500 
L 1159 2956 
Q 1366 3272 1645 3428 
Q 1925 3584 2291 3584 
Q 2894 3584 3203 3211 
Q 3513 2838 3513 2113 
z
" transform="scale(0.015625)"/>
       <path id="DejaVuSans-63" d="M 3122 3366 
L 3122 2828 
Q 2878 2963 2633 3030 
Q 2388 3097 2138 3097 
Q 1578 3097 1268 2742 
Q 959 2388 959 1747 
Q 959 1106 1268 751 
Q 1578 397 2138 397 
Q 2388 397 2633 464 
Q 2878 531 3122 666 
L 3122 134 
Q 2881 22 2623 -34 
Q 2366 -91 2075 -91 
Q 1284 -91 818 406 
Q 353 903 353 1747 
Q 353 2603 823 3093 
Q 1294 3584 2113 3584 
Q 2378 3584 2631 3529 
Q 2884 3475 3122 3366 
z
" transform="scale(0.015625)"/>
       <path id="DejaVuSans-66" d="M 2375 4863 
L 2375 4384 
L 1825 4384 
Q 1516 4384 1395 4259 
Q 1275 4134 1275 3809 
L 1275 3500 
L 2222 3500 
L 2222 3053 
L 1275 3053 
L 1275 0 
L 697 0 
L 697 3053 
L 147 3053 
L 147 3500 
L 697 3500 
L 697 3744 
Q 697 4328 969 4595 
Q 1241 4863 1831 4863 
L 2375 4863 
z
" transform="scale(0.015625)"/>
       <path id="DejaVuSans-71" d="M 947 1747 
Q 947 1113 1208 752 
Q 1469 391 1925 391 
Q 2381 391 2643 752 
Q 2906 1113 2906 1747 
Q 2906 2381 2643 2742 
Q 2381 3103 1925 3103 
Q 1469 3103 1208 2742 
Q 947 2381 947 1747 
z
M 2906 525 
Q 2725 213 2448 61 
Q 2172 -91 1784 -91 
Q 1150 -91 751 415 
Q 353 922 353 1747 
Q 353 2572 751 3078 
Q 1150 3584 1784 3584 
Q 2172 3584 2448 3432 
Q 2725 3281 2906 2969 
L 2906 3500 
L 3481 3500 
L 3481 -1331 
L 2906 -1331 
L 2906 525 
z
" transform="scale(0.015625)"/>
       <path id="DejaVuSans-75" d="M 544 1381 
L 544 3500 
L 1119 3500 
L 1119 1403 
Q 1119 906 1312 657 
Q 1506 409 1894 409 
Q 2359 409 2629 706 
Q 2900 1003 2900 1516 
L 2900 3500 
L 3475 3500 
L 3475 0 
L 2900 0 
L 2900 538 
Q 2691 219 2414 64 
Q 2138 -91 1772 -91 
Q 1169 -91 856 284 
Q 544 659 544 1381 
z
M 1991 3584 
L 1991 3584 
z
" transform="scale(0.015625)"/>
      </defs>
      <use xlink:href="#DejaVuSans-4e"/>
      <use xlink:href="#DejaVuSans-6f" transform="translate(74.804688 0)"/>
      <use xlink:href="#DejaVuSans-72" transform="translate(135.986328 0)"/>
      <use xlink:href="#DejaVuSans-6d" transform="translate(175.349609 0)"/>
      <use xlink:href="#DejaVuSans-61" transform="translate(272.761719 0)"/>
      <use xlink:href="#DejaVuSans-6c" transform="translate(334.041016 0)"/>
      <use xlink:href="#DejaVuSans-69" transform="translate(361.824219 0)"/>
      <use xlink:href="#DejaVuSans-7a" transform="translate(389.607422 0)"/>
      <use xlink:href="#DejaVuSans-65" transform="translate(442.097656 0)"/>
      <use xlink:href="#DejaVuSans-64" transform="translate(503.621094 0)"/>
      <use xlink:href="#DejaVuSans-20" transform="translate(567.097656 0)"/>
      <use xlink:href="#DejaVuSans-64" transform="translate(598.884766 0)"/>
      <use xlink:href="#DejaVuSans-69" transform="translate(662.361328 0)"/>
      <use xlink:href="#DejaVuSans-73" transform="translate(690.144531 0)"/>
      <use xlink:href="#DejaVuSans-74" transform="translate(742.244141 0)"/>
      <use xlink:href="#DejaVuSans-61" transform="translate(781.453125 0)"/>
      <use xlink:href="#DejaVuSans-6e" transform="translate(842.732422 0)"/>
      <use xlink:href="#DejaVuSans-63" transform="translate(906.111328 0)"/>
      <use xlink:href="#DejaVuSans-65" transform="translate(961.091797 0)"/>
      <use xlink:href="#DejaVuSans-20" transform="translate(1022.615234 0)"/>
      <use xlink:href="#DejaVuSans-66" transform="translate(1054.402344 0)"/>
      <use xlink:href="#DejaVuSans-72" transform="translate(1089.607422 0)"/>
      <use xlink:href="#DejaVuSans-6f" transform="translate(1128.470703 0)"/>
      <use xlink:href="#DejaVuSans-6d" transform="translate(1189.652344 0)"/>
      <use xlink:href="#DejaVuSans-20" transform="translate(1287.064453 0)"/>
      <use xlink:href="#DejaVuSans-65" transform="translate(1318.851562 0)"/>
      <use xlink:href="#DejaVuSans-71" transform="translate(1380.375 0)"/>
      <use xlink:href="#DejaVuSans-75" transform="translate(1443.851562 0)"/>
      <use xlink:href="#DejaVuSans-61" transform="translate(1507.230469 0)"/>
      <use xlink:href="#DejaVuSans-74" transform="translate(1568.509766 0)"/>
      <use xlink:href="#DejaVuSans-6f" transform="translate(1607.71875 0)"/>
      <use xlink:href="#DejaVuSans-72" transform="translate(1668.900391 0)"/>
     </g>
    </g>
   </g>
   <g id="matplotlib.axis_2">
    <g id="ytick_1">
     <g id="line2d_7">
      <defs>
       <path id="m768ff19677" d="M 0 0 
L -6 0 
" style="stroke: #000000; stroke-width: 1.5"/>
      </defs>
      <g>
       <use xlink:href="#m768ff19677" x="55.26875" y="376.096875" style="stroke: #000000; stroke-width: 1.5"/>
      </g>
     </g>
     <g id="text_8">
      <!-- 0.0 -->
      <g transform="translate(26.685 380.655937) scale(0.12 -0.12)">
       <use xlink:href="#DejaVuSans-30"/>
       <use xlink:href="#DejaVuSans-2e" transform="translate(63.623047 0)"/>
       <use xlink:href="#DejaVuSans-30" transform="translate(95.410156 0)"/>
      </g>
     </g>
    </g>
    <g id="ytick_2">
     <g id="line2d_8">
      <g>
       <use xlink:href="#m768ff19677" x="55.26875" y="312.53497" style="stroke: #000000; stroke-width: 1.5"/>
      </g>
     </g>
     <g id="text_9">
      <!-- 0.2 -->
      <g transform="translate(26.685 317.094033) scale(0.12 -0.12)">
       <use xlink:href="#DejaVuSans-30"/>
       <use xlink:href="#DejaVuSans-2e" transform="translate(63.623047 0)"/>
       <use xlink:href="#DejaVuSans-32" transform="translate(95.410156 0)"/>
      </g>
     </g>
    </g>
    <g id="ytick_3">
     <g id="line2d_9">
      <g>
       <use xlink:href="#m768ff19677" x="55.26875" y="248.973065" style="stroke: #000000; stroke-width: 1.5"/>
      </g>
     </g>
     <g id="text_10">
      <!-- 0.4 -->
      <g transform="translate(26.685 253.532128) scale(0.12 -0.12)">
       <use xlink:href="#DejaVuSans-30"/>
       <use xlink:href="#DejaVuSans-2e" transform="translate(63.623047 0)"/>
       <use xlink:href="#DejaVuSans-34" transform="translate(95.410156 0)"/>
      </g>
     </g>
    </g>
    <g id="ytick_4">
     <g id="line2d_10">
      <g>
       <use xlink:href="#m768ff19677" x="55.26875" y="185.411161" style="stroke: #000000; stroke-width: 1.5"/>
      </g>
     </g>
     <g id="text_11">
      <!-- 0.6 -->
      <g transform="translate(26.685 189.970223) scale(0.12 -0.12)">
       <use xlink:href="#DejaVuSans-30"/>
       <use xlink:href="#DejaVuSans-2e" transform="translate(63.623047 0)"/>
       <use xlink:href="#DejaVuSans-36" transform="translate(95.410156 0)"/>
      </g>
     </g>
    </g>
    <g id="ytick_5">
     <g id="line2d_11">
      <g>
       <use xlink:href="#m768ff19677" x="55.26875" y="121.849256" style="stroke: #000000; stroke-width: 1.5"/>
      </g>
     </g>
     <g id="text_12">
      <!-- 0.8 -->
      <g transform="translate(26.685 126.408318) scale(0.12 -0.12)">
       <use xlink:href="#DejaVuSans-30"/>
       <use xlink:href="#DejaVuSans-2e" transform="translate(63.623047 0)"/>
       <use xlink:href="#DejaVuSans-38" transform="translate(95.410156 0)"/>
      </g>
     </g>
    </g>
    <g id="ytick_6">
     <g id="line2d_12">
      <g>
       <use xlink:href="#m768ff19677" x="55.26875" y="58.287351" style="stroke: #000000; stroke-width: 1.5"/>
      </g>
     </g>
     <g id="text_13">
      <!-- 1.0 -->
      <g transform="translate(26.685 62.846414) scale(0.12 -0.12)">
       <use xlink:href="#DejaVuSans-31"/>
       <use xlink:href="#DejaVuSans-2e" transform="translate(63.623047 0)"/>
       <use xlink:href="#DejaVuSans-30" transform="translate(95.410156 0)"/>
      </g>
     </g>
    </g>
    <g id="text_14">
     <!-- Peak-Normalized intensity -->
     <g transform="translate(19.3575 313.718125) rotate(-90) scale(0.16 -0.16)">
      <defs>
       <path id="DejaVuSans-50" d="M 1259 4147 
L 1259 2394 
L 2053 2394 
Q 2494 2394 2734 2622 
Q 2975 2850 2975 3272 
Q 2975 3691 2734 3919 
Q 2494 4147 2053 4147 
L 1259 4147 
z
M 628 4666 
L 2053 4666 
Q 2838 4666 3239 4311 
Q 3641 3956 3641 3272 
Q 3641 2581 3239 2228 
Q 2838 1875 2053 1875 
L 1259 1875 
L 1259 0 
L 628 0 
L 628 4666 
z
" transform="scale(0.015625)"/>
       <path id="DejaVuSans-6b" d="M 581 4863 
L 1159 4863 
L 1159 1991 
L 2875 3500 
L 3609 3500 
L 1753 1863 
L 3688 0 
L 2938 0 
L 1159 1709 
L 1159 0 
L 581 0 
L 581 4863 
z
" transform="scale(0.015625)"/>
       <path id="DejaVuSans-2d" d="M 313 2009 
L 1997 2009 
L 1997 1497 
L 313 1497 
L 313 2009 
z
" transform="scale(0.015625)"/>
       <path id="DejaVuSans-79" d="M 2059 -325 
Q 1816 -950 1584 -1140 
Q 1353 -1331 966 -1331 
L 506 -1331 
L 506 -850 
L 844 -850 
Q 1081 -850 1212 -737 
Q 1344 -625 1503 -206 
L 1606 56 
L 191 3500 
L 800 3500 
L 1894 763 
L 2988 3500 
L 3597 3500 
L 2059 -325 
z
" transform="scale(0.015625)"/>
      </defs>
      <use xlink:href="#DejaVuSans-50"/>
      <use xlink:href="#DejaVuSans-65" transform="translate(56.677734 0)"/>
      <use xlink:href="#DejaVuSans-61" transform="translate(118.201172 0)"/>
      <use xlink:href="#DejaVuSans-6b" transform="translate(179.480469 0)"/>
      <use xlink:href="#DejaVuSans-2d" transform="translate(237.390625 0)"/>
      <use xlink:href="#DejaVuSans-4e" transform="translate(273.474609 0)"/>
      <use xlink:href="#DejaVuSans-6f" transform="translate(348.279297 0)"/>
      <use xlink:href="#DejaVuSans-72" transform="translate(409.460938 0)"/>
      <use xlink:href="#DejaVuSans-6d" transform="translate(448.824219 0)"/>
      <use xlink:href="#DejaVuSans-61" transform="translate(546.236328 0)"/>
      <use xlink:href="#DejaVuSans-6c" transform="translate(607.515625 0)"/>
      <use xlink:href="#DejaVuSans-69" transform="translate(635.298828 0)"/>
      <use xlink:href="#DejaVuSans-7a" transform="translate(663.082031 0)"/>
      <use xlink:href="#DejaVuSans-65" transform="translate(715.572266 0)"/>
      <use xlink:href="#DejaVuSans-64" transform="translate(777.095703 0)"/>
      <use xlink:href="#DejaVuSans-20" transform="translate(840.572266 0)"/>
      <use xlink:href="#DejaVuSans-69" transform="translate(872.359375 0)"/>
      <use xlink:href="#DejaVuSans-6e" transform="translate(900.142578 0)"/>
      <use xlink:href="#DejaVuSans-74" transform="translate(963.521484 0)"/>
      <use xlink:href="#DejaVuSans-65" transform="translate(1002.730469 0)"/>
      <use xlink:href="#DejaVuSans-6e" transform="translate(1064.253906 0)"/>
      <use xlink:href="#DejaVuSans-73" transform="translate(1127.632812 0)"/>
      <use xlink:href="#DejaVuSans-69" transform="translate(1179.732422 0)"/>
      <use xlink:href="#DejaVuSans-74" transform="translate(1207.515625 0)"/>
      <use xlink:href="#DejaVuSans-79" transform="translate(1246.724609 0)"/>
     </g>
    </g>
   </g>
   <g id="line2d_13">
    <path d="M 67.719125 58.287351 
L 92.619875 79.474653 
L 117.520625 61.714709 
L 142.421375 98.792487 
L 167.322125 176.686978 
L 192.222875 262.370918 
L 217.123625 269.848789 
L 242.024375 337.149629 
L 266.925125 341.200143 
L 291.825875 345.873812 
L 316.726625 321.570731 
L 341.627375 348.366436 
L 366.528125 330.606492 
L 391.428875 338.707519 
L 416.329625 350.85906 
L 441.230375 352.105372 
L 466.131125 333.410694 
L 491.031875 336.838051 
L 515.932625 348.678014 
L 540.833375 362.699023 
" clip-path="url(#p77a51a7fb7)" style="fill: none; stroke: #808080; stroke-opacity: 0.3; stroke-width: 1.5; stroke-linecap: square"/>
   </g>
   <g id="line2d_14">
    <path d="M 67.719125 110.668699 
L 92.619875 60.268158 
L 117.520625 58.287351 
L 142.421375 165.911213 
L 167.322125 262.310501 
L 192.222875 330.538308 
L 217.123625 270.45382 
L 242.024375 248.66494 
L 266.925125 114.190134 
L 291.825875 92.401254 
L 316.726625 123.653991 
L 341.627375 213.010409 
L 366.528125 294.003418 
L 391.428875 352.987457 
L 416.329625 354.528085 
L 441.230375 357.82943 
L 466.131125 359.810237 
L 491.031875 347.045035 
L 515.932625 358.489699 
L 540.833375 348.365573 
" clip-path="url(#p77a51a7fb7)" style="fill: none; stroke: #808080; stroke-opacity: 0.3; stroke-width: 1.5; stroke-linecap: square"/>
   </g>
   <g id="line2d_15">
    <path d="M 67.719125 284.725031 
L 92.619875 315.310824 
L 117.520625 303.102209 
L 142.421375 297.961739 
L 167.322125 341.141683 
L 192.222875 344.997035 
L 217.123625 329.575626 
L 242.024375 320.836828 
L 266.925125 279.584561 
L 291.825875 339.47103 
L 316.726625 303.616256 
L 341.627375 239.617411 
L 366.528125 254.524772 
L 391.428875 282.283308 
L 416.329625 246.428533 
L 441.230375 58.287351 
L 466.131125 82.447558 
L 491.031875 249.12728 
L 515.932625 227.408796 
L 540.833375 291.022106 
" clip-path="url(#p77a51a7fb7)" style="fill: none; stroke: #808080; stroke-opacity: 0.3; stroke-width: 1.5; stroke-linecap: square"/>
   </g>
   <g id="line2d_16">
    <path d="M 67.719125 330.626829 
L 92.619875 271.763037 
L 117.520625 90.707082 
L 142.421375 195.384349 
L 167.322125 328.428881 
L 192.222875 289.415306 
L 217.123625 250.539103 
L 242.024375 132.468092 
L 266.925125 155.61523 
L 291.825875 218.050686 
L 316.726625 58.287351 
L 341.627375 96.614067 
L 366.528125 242.022055 
L 391.428875 305.968601 
L 416.329625 352.468935 
L 441.230375 352.194192 
L 466.131125 353.22448 
L 491.031875 356.040601 
L 515.932625 362.565758 
L 540.833375 356.658774 
" clip-path="url(#p77a51a7fb7)" style="fill: none; stroke: #808080; stroke-opacity: 0.3; stroke-width: 1.5; stroke-linecap: square"/>
   </g>
   <g id="line2d_17">
    <path d="M 67.719125 58.287351 
L 92.619875 63.220093 
L 117.520625 73.261747 
L 142.421375 98.630134 
L 167.322125 212.699794 
L 192.222875 277.794373 
L 217.123625 336.10643 
L 242.024375 360.505887 
L 266.925125 358.479939 
L 291.825875 362.884173 
L 316.726625 371.86881 
L 341.627375 374.159012 
L 366.528125 350.376149 
L 391.428875 319.282257 
L 416.329625 308.712095 
L 441.230375 260.177437 
L 466.131125 254.187679 
L 491.031875 261.410622 
L 515.932625 302.369998 
L 540.833375 356.453991 
" clip-path="url(#p77a51a7fb7)" style="fill: none; stroke: #808080; stroke-opacity: 0.3; stroke-width: 1.5; stroke-linecap: square"/>
   </g>
   <g id="line2d_18">
    <path d="M 67.719125 92.323401 
L 92.619875 90.730581 
L 117.520625 58.287351 
L 142.421375 74.550883 
L 167.322125 102.299485 
L 192.222875 141.197828 
L 217.123625 170.790749 
L 242.024375 218.743017 
L 266.925125 288.910933 
L 291.825875 318.084691 
L 316.726625 322.52782 
L 341.627375 342.479988 
L 366.528125 360.420172 
L 391.428875 368.468105 
L 416.329625 362.767486 
L 441.230375 363.354314 
L 466.131125 353.881226 
L 491.031875 344.408139 
L 515.932625 351.366247 
L 540.833375 333.090733 
" clip-path="url(#p77a51a7fb7)" style="fill: none; stroke: #808080; stroke-opacity: 0.3; stroke-width: 1.5; stroke-linecap: square"/>
   </g>
   <g id="line2d_19">
    <path d="M 67.719125 58.287351 
L 92.619875 246.818425 
L 117.520625 317.517577 
L 142.421375 345.797238 
L 167.322125 318.864228 
L 192.222875 328.290781 
L 217.123625 295.971169 
L 242.024375 359.937069 
L 266.925125 332.330733 
L 291.825875 333.677383 
L 316.726625 361.957044 
L 341.627375 301.357771 
L 366.528125 339.063986 
L 391.428875 347.817214 
L 416.329625 304.051072 
L 441.230375 291.257892 
L 466.131125 283.851314 
L 491.031875 272.404785 
L 515.932625 273.07811 
L 540.833375 281.831338 
" clip-path="url(#p77a51a7fb7)" style="fill: none; stroke: #808080; stroke-opacity: 0.3; stroke-width: 1.5; stroke-linecap: square"/>
   </g>
   <g id="line2d_20">
    <path d="M 67.719125 319.653904 
L 92.619875 195.920062 
L 117.520625 86.424088 
L 142.421375 58.287351 
L 167.322125 127.7817 
L 192.222875 235.582691 
L 217.123625 277.618297 
L 242.024375 327.789827 
L 266.925125 356.774056 
L 291.825875 361.011516 
L 316.726625 369.994932 
L 341.627375 364.740481 
L 366.528125 363.384494 
L 391.428875 366.604964 
L 416.329625 364.401485 
L 441.230375 367.791453 
L 466.131125 356.265561 
L 491.031875 358.130043 
L 515.932625 365.248977 
L 540.833375 373.3849 
" clip-path="url(#p77a51a7fb7)" style="fill: none; stroke: #808080; stroke-opacity: 0.3; stroke-width: 1.5; stroke-linecap: square"/>
   </g>
   <g id="line2d_21">
    <path d="M 67.719125 58.287351 
L 92.619875 172.846598 
L 117.520625 325.345897 
L 142.421375 303.419503 
L 167.322125 353.677754 
L 192.222875 335.44682 
L 217.123625 360.083217 
L 242.024375 338.156823 
L 266.925125 359.836853 
L 291.825875 341.852283 
L 316.726625 326.824081 
L 341.627375 367.7205 
L 366.528125 349.982294 
L 391.428875 364.764132 
L 416.329625 363.285948 
L 441.230375 371.41596 
L 466.131125 367.7205 
L 491.031875 373.140507 
L 515.932625 371.662324 
L 540.833375 368.705956 
" clip-path="url(#p77a51a7fb7)" style="fill: none; stroke: #808080; stroke-opacity: 0.3; stroke-width: 1.5; stroke-linecap: square"/>
   </g>
   <g id="line2d_22">
    <path d="M 67.719125 213.653581 
L 92.619875 58.287351 
L 117.520625 222.541056 
L 142.421375 75.239387 
L 167.322125 245.253493 
L 192.222875 131.526729 
L 217.123625 294.792937 
L 242.024375 272.903415 
L 266.925125 342.521969 
L 291.825875 335.609489 
L 316.726625 354.04277 
L 341.627375 365.892737 
L 366.528125 367.044817 
L 391.428875 365.728154 
L 416.329625 350.092781 
L 441.230375 371.488555 
L 466.131125 351.080279 
L 491.031875 369.348977 
L 515.932625 367.867731 
L 540.833375 369.678143 
" clip-path="url(#p77a51a7fb7)" style="fill: none; stroke: #808080; stroke-opacity: 0.3; stroke-width: 1.5; stroke-linecap: square"/>
   </g>
   <g id="line2d_23">
    <path d="M 67.719125 148.379788 
L 92.619875 166.975026 
L 117.520625 137.640292 
L 142.421375 132.867183 
L 167.322125 58.287351 
L 192.222875 228.329368 
L 217.123625 305.991833 
L 242.024375 360.982029 
L 266.925125 369.036651 
L 291.825875 367.346175 
L 316.726625 372.119284 
L 341.627375 368.241133 
L 366.528125 362.771945 
L 391.428875 358.297155 
L 416.329625 347.25934 
L 441.230375 365.1585 
L 466.131125 368.837771 
L 491.031875 373.71032 
L 515.932625 375.599676 
L 540.833375 373.412001 
" clip-path="url(#p77a51a7fb7)" style="fill: none; stroke: #808080; stroke-opacity: 0.3; stroke-width: 1.5; stroke-linecap: square"/>
   </g>
   <g id="line2d_24">
    <path d="M 67.719125 58.287351 
L 92.619875 226.670643 
L 117.520625 331.49203 
L 142.421375 369.963709 
L 167.322125 359.927619 
L 192.222875 361.6003 
L 217.123625 353.236892 
L 242.024375 354.909573 
L 266.925125 354.909573 
L 291.825875 337.625196 
L 316.726625 353.794452 
L 341.627375 361.6003 
L 366.528125 349.891528 
L 391.428875 342.643241 
L 416.329625 349.891528 
L 441.230375 370.521269 
L 466.131125 355.467134 
L 491.031875 354.352013 
L 515.932625 358.812497 
L 540.833375 360.485179 
" clip-path="url(#p77a51a7fb7)" style="fill: none; stroke: #808080; stroke-opacity: 0.3; stroke-width: 1.5; stroke-linecap: square"/>
   </g>
   <g id="line2d_25">
    <path d="M 67.719125 195.712418 
L 92.619875 94.049357 
L 117.520625 62.485826 
L 142.421375 72.682121 
L 167.322125 58.287351 
L 192.222875 108.594072 
L 217.123625 263.71271 
L 242.024375 338.235632 
L 266.925125 360.802432 
L 291.825875 359.902759 
L 316.726625 357.578604 
L 341.627375 362.076969 
L 366.528125 345.657935 
L 391.428875 340.184924 
L 416.329625 260.413908 
L 441.230375 169.546925 
L 466.131125 229.225241 
L 491.031875 296.100942 
L 515.932625 346.257717 
L 540.833375 356.903849 
" clip-path="url(#p77a51a7fb7)" style="fill: none; stroke: #808080; stroke-opacity: 0.3; stroke-width: 1.5; stroke-linecap: square"/>
   </g>
   <g id="line2d_26">
    <path d="M 67.719125 277.199779 
L 92.619875 225.958173 
L 117.520625 156.387533 
L 142.421375 118.215326 
L 167.322125 58.287351 
L 192.222875 198.145855 
L 217.123625 288.1972 
L 242.024375 351.631598 
L 266.925125 348.523631 
L 291.825875 337.127753 
L 316.726625 344.778133 
L 341.627375 352.747279 
L 366.528125 364.541614 
L 391.428875 358.32568 
L 416.329625 332.58534 
L 441.230375 305.410554 
L 466.131125 257.994138 
L 491.031875 234.485159 
L 515.932625 166.10989 
L 540.833375 266.202358 
" clip-path="url(#p77a51a7fb7)" style="fill: none; stroke: #808080; stroke-opacity: 0.3; stroke-width: 1.5; stroke-linecap: square"/>
   </g>
   <g id="line2d_27">
    <path d="M 67.719125 58.287351 
L 92.619875 265.088686 
L 117.520625 289.072522 
L 142.421375 238.497912 
L 167.322125 237.170743 
L 192.222875 327.513018 
L 217.123625 349.032112 
L 242.024375 351.923444 
L 266.925125 351.544253 
L 291.825875 334.907244 
L 316.726625 341.827481 
L 341.627375 340.263318 
L 366.528125 335.760424 
L 391.428875 331.210131 
L 416.329625 307.273694 
L 441.230375 258.12105 
L 466.131125 285.091016 
L 491.031875 325.854057 
L 515.932625 365.526924 
L 540.833375 373.205543 
" clip-path="url(#p77a51a7fb7)" style="fill: none; stroke: #808080; stroke-opacity: 0.3; stroke-width: 1.5; stroke-linecap: square"/>
   </g>
   <g id="line2d_28">
    <path d="M 67.719125 58.287351 
L 92.619875 110.678677 
L 117.520625 186.412209 
L 142.421375 290.960971 
L 167.322125 358.227691 
L 192.222875 350.930327 
L 217.123625 364.168493 
L 242.024375 361.876372 
L 266.925125 356.075904 
L 291.825875 361.268259 
L 316.726625 353.082114 
L 341.627375 342.978073 
L 366.528125 358.227691 
L 391.428875 367.583285 
L 416.329625 359.350362 
L 441.230375 362.999044 
L 466.131125 372.494971 
L 491.031875 366.133168 
L 515.932625 340.592396 
L 540.833375 356.216238 
" clip-path="url(#p77a51a7fb7)" style="fill: none; stroke: #808080; stroke-opacity: 0.3; stroke-width: 1.5; stroke-linecap: square"/>
   </g>
   <g id="line2d_29">
    <path d="M 67.719125 64.447096 
L 92.619875 58.287351 
L 117.520625 230.094281 
L 142.421375 98.74189 
L 167.322125 167.997396 
L 192.222875 260.393565 
L 217.123625 335.808816 
L 242.024375 359.781876 
L 266.925125 370.936008 
L 291.825875 368.938253 
L 316.726625 369.104733 
L 341.627375 364.609784 
L 366.528125 367.772896 
L 391.428875 368.105855 
L 416.329625 365.94162 
L 441.230375 351.457897 
L 466.131125 333.811061 
L 491.031875 342.467999 
L 515.932625 361.446672 
L 540.833375 373.266722 
" clip-path="url(#p77a51a7fb7)" style="fill: none; stroke: #808080; stroke-opacity: 0.3; stroke-width: 1.5; stroke-linecap: square"/>
   </g>
   <g id="line2d_30">
    <path d="M 67.719125 58.287351 
L 92.619875 140.280853 
L 117.520625 317.820502 
L 142.421375 332.220187 
L 167.322125 368.134696 
L 192.222875 370.167593 
L 217.123625 371.014633 
L 242.024375 369.320553 
L 266.925125 374.063978 
L 291.825875 371.522857 
L 316.726625 370.167593 
L 341.627375 371.861673 
L 366.528125 373.04753 
L 391.428875 372.369898 
L 416.329625 373.04753 
L 441.230375 372.539306 
L 466.131125 373.04753 
L 491.031875 369.828777 
L 515.932625 372.878122 
L 540.833375 369.828777 
" clip-path="url(#p77a51a7fb7)" style="fill: none; stroke: #808080; stroke-opacity: 0.3; stroke-width: 1.5; stroke-linecap: square"/>
   </g>
   <g id="line2d_31">
    <path d="M 67.719125 354.170481 
L 92.619875 354.416845 
L 117.520625 315.244974 
L 142.421375 58.287351 
L 167.322125 167.180227 
L 192.222875 208.569374 
L 217.123625 340.127735 
L 242.024375 359.836853 
L 266.925125 367.474136 
L 291.825875 366.981408 
L 316.726625 366.735044 
L 341.627375 359.590489 
L 366.528125 363.778676 
L 391.428875 348.750474 
L 416.329625 362.546857 
L 441.230375 338.156823 
L 466.131125 290.115849 
L 491.031875 303.912231 
L 515.932625 366.48868 
L 540.833375 368.95232 
" clip-path="url(#p77a51a7fb7)" style="fill: none; stroke: #808080; stroke-opacity: 0.3; stroke-width: 1.5; stroke-linecap: square"/>
   </g>
   <g id="line2d_32">
    <path d="M 67.719125 364.237499 
L 92.619875 336.05788 
L 117.520625 277.849015 
L 142.421375 139.997366 
L 167.322125 182.756401 
L 192.222875 58.287351 
L 217.123625 209.086393 
L 242.024375 275.455379 
L 266.925125 359.776632 
L 291.825875 353.792543 
L 316.726625 364.128697 
L 341.627375 331.053005 
L 366.528125 315.929581 
L 391.428875 353.139734 
L 416.329625 370.221588 
L 441.230375 362.27907 
L 466.131125 368.589563 
L 491.031875 370.112786 
L 515.932625 371.962414 
L 540.833375 365.107912 
" clip-path="url(#p77a51a7fb7)" style="fill: none; stroke: #808080; stroke-opacity: 0.3; stroke-width: 1.5; stroke-linecap: square"/>
   </g>
   <g id="line2d_33">
    <path d="M 67.719125 58.287351 
L 92.619875 121.493878 
L 117.520625 256.029858 
L 142.421375 317.967178 
L 167.322125 345.635898 
L 192.222875 353.758825 
L 217.123625 361.120228 
L 242.024375 339.543703 
L 266.925125 310.605775 
L 291.825875 291.567665 
L 316.726625 328.120837 
L 341.627375 344.874374 
L 366.528125 360.358704 
L 391.428875 364.420167 
L 416.329625 354.266508 
L 441.230375 316.444129 
L 466.131125 295.629128 
L 491.031875 349.951203 
L 515.932625 357.058765 
L 540.833375 366.450899 
" clip-path="url(#p77a51a7fb7)" style="fill: none; stroke: #808080; stroke-opacity: 0.3; stroke-width: 1.5; stroke-linecap: square"/>
   </g>
   <g id="line2d_34">
    <path d="M 67.719125 95.889388 
L 92.619875 89.92368 
L 117.520625 61.541374 
L 142.421375 83.777194 
L 167.322125 58.287351 
L 192.222875 127.887275 
L 217.123625 176.155275 
L 242.024375 285.345805 
L 266.925125 351.691707 
L 291.825875 369.769609 
L 316.726625 371.938957 
L 341.627375 370.673504 
L 366.528125 368.142598 
L 391.428875 363.442343 
L 416.329625 364.707797 
L 441.230375 365.430913 
L 466.131125 361.996111 
L 491.031875 348.980021 
L 515.932625 335.783153 
L 540.833375 321.140052 
" clip-path="url(#p77a51a7fb7)" style="fill: none; stroke: #808080; stroke-opacity: 0.3; stroke-width: 1.5; stroke-linecap: square"/>
   </g>
   <g id="line2d_35">
    <path d="M 67.719125 183.776437 
L 92.619875 58.287351 
L 117.520625 189.906651 
L 142.421375 81.245603 
L 167.322125 205.652887 
L 192.222875 273.686242 
L 217.123625 310.347325 
L 242.024375 363.235446 
L 266.925125 367.322255 
L 291.825875 360.71124 
L 316.726625 365.759651 
L 341.627375 363.475846 
L 366.528125 372.731267 
L 391.428875 368.163657 
L 416.329625 371.649465 
L 441.230375 370.086861 
L 466.131125 370.928263 
L 491.031875 369.72626 
L 515.932625 372.971668 
L 540.833375 375.495874 
" clip-path="url(#p77a51a7fb7)" style="fill: none; stroke: #808080; stroke-opacity: 0.3; stroke-width: 1.5; stroke-linecap: square"/>
   </g>
   <g id="line2d_36">
    <path d="M 67.719125 58.287351 
L 92.619875 76.518285 
L 117.520625 152.644752 
L 142.421375 143.036558 
L 167.322125 168.165683 
L 192.222875 292.333125 
L 217.123625 323.128621 
L 242.024375 344.808651 
L 266.925125 355.648665 
L 291.825875 315.491338 
L 316.726625 312.042242 
L 341.627375 282.478566 
L 366.528125 354.663209 
L 391.428875 360.822309 
L 416.329625 360.329581 
L 441.230375 372.401415 
L 466.131125 368.213228 
L 491.031875 358.358669 
L 515.932625 349.243202 
L 540.833375 351.953206 
" clip-path="url(#p77a51a7fb7)" style="fill: none; stroke: #808080; stroke-opacity: 0.3; stroke-width: 1.5; stroke-linecap: square"/>
   </g>
   <g id="line2d_37">
    <path d="M 67.719125 58.287351 
L 92.619875 239.036164 
L 117.520625 221.046946 
L 142.421375 249.315717 
L 167.322125 295.573707 
L 192.222875 289.577301 
L 217.123625 323.842479 
L 242.024375 340.975068 
L 266.925125 304.996631 
L 291.825875 340.118438 
L 316.726625 296.430337 
L 341.627375 314.419555 
L 366.528125 316.132814 
L 391.428875 313.562926 
L 416.329625 327.268997 
L 441.230375 314.419555 
L 466.131125 275.87123 
L 491.031875 289.577301 
L 515.932625 257.025382 
L 540.833375 147.376813 
" clip-path="url(#p77a51a7fb7)" style="fill: none; stroke: #808080; stroke-opacity: 0.3; stroke-width: 1.5; stroke-linecap: square"/>
   </g>
   <g id="line2d_38">
    <path d="M 67.719125 303.485795 
L 92.619875 307.83935 
L 117.520625 282.184472 
L 142.421375 154.998469 
L 167.322125 102.133871 
L 192.222875 89.384173 
L 217.123625 58.287351 
L 242.024375 71.192532 
L 266.925125 131.831336 
L 291.825875 241.758603 
L 316.726625 341.11295 
L 341.627375 361.1704 
L 366.528125 359.460075 
L 391.428875 361.014916 
L 416.329625 357.594266 
L 441.230375 355.417488 
L 466.131125 363.81363 
L 491.031875 362.725241 
L 515.932625 356.505877 
L 540.833375 360.703948 
" clip-path="url(#p77a51a7fb7)" style="fill: none; stroke: #808080; stroke-opacity: 0.3; stroke-width: 1.5; stroke-linecap: square"/>
   </g>
   <g id="line2d_39">
    <path d="M 67.719125 58.287351 
L 92.619875 142.032866 
L 117.520625 192.139031 
L 142.421375 214.957331 
L 167.322125 207.429644 
L 192.222875 250.008122 
L 217.123625 314.46394 
L 242.024375 273.767384 
L 266.925125 306.465773 
L 291.825875 332.812676 
L 316.726625 355.395737 
L 341.627375 368.333948 
L 366.528125 370.45111 
L 391.428875 372.097791 
L 416.329625 372.333032 
L 441.230375 372.803512 
L 466.131125 373.509233 
L 491.031875 374.214953 
L 515.932625 374.685434 
L 540.833375 376.096875 
" clip-path="url(#p77a51a7fb7)" style="fill: none; stroke: #808080; stroke-opacity: 0.3; stroke-width: 1.5; stroke-linecap: square"/>
   </g>
   <g id="line2d_40">
    <path d="M 67.719125 153.097141 
L 92.619875 131.393695 
L 117.520625 114.005554 
L 142.421375 109.81717 
L 167.322125 97.252017 
L 192.222875 62.602656 
L 217.123625 216.938272 
L 242.024375 58.287351 
L 266.925125 62.729577 
L 291.825875 66.156437 
L 316.726625 106.517231 
L 341.627375 171.246807 
L 366.528125 191.934887 
L 391.428875 237.499431 
L 416.329625 266.437359 
L 441.230375 303.752055 
L 466.131125 310.098092 
L 491.031875 330.151568 
L 515.932625 350.712728 
L 540.833375 357.566447 
" clip-path="url(#p77a51a7fb7)" style="fill: none; stroke: #808080; stroke-opacity: 0.3; stroke-width: 1.5; stroke-linecap: square"/>
   </g>
   <g id="line2d_41">
    <path d="M 67.719125 125.754827 
L 92.619875 58.287351 
L 117.520625 83.179078 
L 142.421375 191.713712 
L 167.322125 305.360789 
L 192.222875 298.739757 
L 217.123625 349.94799 
L 242.024375 366.961527 
L 266.925125 365.536748 
L 291.825875 357.82618 
L 316.726625 367.799633 
L 341.627375 360.508117 
L 366.528125 372.493022 
L 391.428875 363.525296 
L 416.329625 333.940179 
L 441.230375 214.761608 
L 466.131125 203.028134 
L 491.031875 321.45241 
L 515.932625 362.771001 
L 540.833375 371.738728 
" clip-path="url(#p77a51a7fb7)" style="fill: none; stroke: #808080; stroke-opacity: 0.3; stroke-width: 1.5; stroke-linecap: square"/>
   </g>
   <g id="line2d_42">
    <path d="M 67.719125 58.287351 
L 92.619875 250.125743 
L 117.520625 326.696431 
L 142.421375 350.847759 
L 167.322125 364.570105 
L 192.222875 326.147537 
L 217.123625 324.500856 
L 242.024375 349.201078 
L 266.925125 300.623974 
L 291.825875 352.494441 
L 316.726625 352.494441 
L 341.627375 333.00871 
L 366.528125 343.437693 
L 391.428875 344.261033 
L 416.329625 297.056164 
L 441.230375 287.176076 
L 466.131125 320.933046 
L 491.031875 311.052957 
L 515.932625 314.620767 
L 540.833375 342.614352 
" clip-path="url(#p77a51a7fb7)" style="fill: none; stroke: #808080; stroke-opacity: 0.3; stroke-width: 1.5; stroke-linecap: square"/>
   </g>
   <g id="line2d_43">
    <path d="M 67.719125 58.287351 
L 92.619875 204.071536 
L 117.520625 227.605269 
L 142.421375 294.041205 
L 167.322125 356.311878 
L 192.222875 363.601088 
L 217.123625 369.432455 
L 242.024375 373.181191 
L 266.925125 365.683719 
L 291.825875 368.807666 
L 316.726625 369.640718 
L 341.627375 367.974613 
L 366.528125 373.805981 
L 391.428875 367.558087 
L 416.329625 372.972928 
L 441.230375 368.182876 
L 466.131125 371.515086 
L 491.031875 375.472086 
L 515.932625 375.055559 
L 540.833375 374.847296 
" clip-path="url(#p77a51a7fb7)" style="fill: none; stroke: #808080; stroke-opacity: 0.3; stroke-width: 1.5; stroke-linecap: square"/>
   </g>
   <g id="line2d_44">
    <path d="M 67.719125 227.892233 
L 92.619875 201.860598 
L 117.520625 252.805944 
L 142.421375 110.670026 
L 167.322125 176.787184 
L 192.222875 58.287351 
L 217.123625 132.709079 
L 242.024375 110.82973 
L 266.925125 228.690749 
L 291.825875 187.487303 
L 316.726625 294.4885 
L 341.627375 264.30458 
L 366.528125 278.198765 
L 391.428875 285.066006 
L 416.329625 345.114439 
L 441.230375 360.126547 
L 466.131125 365.716162 
L 491.031875 353.898119 
L 515.932625 318.284288 
L 540.833375 324.19331 
" clip-path="url(#p77a51a7fb7)" style="fill: none; stroke: #808080; stroke-opacity: 0.3; stroke-width: 1.5; stroke-linecap: square"/>
   </g>
   <g id="line2d_45">
    <path d="M 67.719125 58.287351 
L 92.619875 69.07462 
L 117.520625 199.766526 
L 142.421375 258.266712 
L 167.322125 323.405218 
L 192.222875 269.053981 
L 217.123625 208.479319 
L 242.024375 157.032347 
L 266.925125 220.096378 
L 291.825875 123.425857 
L 316.726625 124.255647 
L 341.627375 173.628144 
L 366.528125 275.6923 
L 391.428875 234.617701 
L 416.329625 279.841249 
L 441.230375 319.671163 
L 466.131125 346.224439 
L 491.031875 360.330867 
L 515.932625 374.437295 
L 540.833375 370.703241 
" clip-path="url(#p77a51a7fb7)" style="fill: none; stroke: #808080; stroke-opacity: 0.3; stroke-width: 1.5; stroke-linecap: square"/>
   </g>
   <g id="line2d_46">
    <path d="M 67.719125 255.767614 
L 92.619875 101.027253 
L 117.520625 58.287351 
L 142.421375 222.671588 
L 167.322125 117.904034 
L 192.222875 222.890767 
L 217.123625 283.822524 
L 242.024375 339.713164 
L 266.925125 364.042031 
L 291.825875 363.603673 
L 316.726625 370.836579 
L 341.627375 372.80919 
L 366.528125 375.220159 
L 391.428875 376.096875 
L 416.329625 375.220159 
L 441.230375 375.220159 
L 466.131125 375.658517 
L 491.031875 365.576284 
L 515.932625 365.137926 
L 540.833375 368.425611 
" clip-path="url(#p77a51a7fb7)" style="fill: none; stroke: #808080; stroke-opacity: 0.3; stroke-width: 1.5; stroke-linecap: square"/>
   </g>
   <g id="line2d_47">
    <path d="M 67.719125 146.346241 
L 92.619875 164.237519 
L 117.520625 191.750808 
L 142.421375 186.756898 
L 167.322125 223.819753 
L 192.222875 247.872053 
L 217.123625 287.921549 
L 242.024375 299.270112 
L 266.925125 311.133914 
L 291.825875 314.128232 
L 316.726625 319.543923 
L 341.627375 324.055506 
L 366.528125 338.280325 
L 391.428875 343.099136 
L 416.329625 340.142923 
L 441.230375 326.411375 
L 466.131125 324.520238 
L 491.031875 337.538807 
L 515.932625 341.726579 
L 540.833375 347.493473 
" clip-path="url(#p77a51a7fb7)" style="fill: none; stroke: #000000; stroke-width: 2; stroke-linecap: square"/>
   </g>
   <g id="patch_3">
    <path d="M 55.26875 376.096875 
L 55.26875 42.396875 
" style="fill: none; stroke: #000000; stroke-width: 1.5; stroke-linejoin: miter; stroke-linecap: square"/>
   </g>
   <g id="patch_4">
    <path d="M 55.26875 376.096875 
L 553.28375 376.096875 
" style="fill: none; stroke: #000000; stroke-width: 1.5; stroke-linejoin: miter; stroke-linecap: square"/>
   </g>
   <g id="text_15">
    <!-- + MinCDE (n=17) -->
    <g transform="translate(215.549687 22.396875) scale(0.2 -0.2)">
     <defs>
      <path id="DejaVuSans-2b" d="M 2944 4013 
L 2944 2272 
L 4684 2272 
L 4684 1741 
L 2944 1741 
L 2944 0 
L 2419 0 
L 2419 1741 
L 678 1741 
L 678 2272 
L 2419 2272 
L 2419 4013 
L 2944 4013 
z
" transform="scale(0.015625)"/>
      <path id="DejaVuSans-4d" d="M 628 4666 
L 1569 4666 
L 2759 1491 
L 3956 4666 
L 4897 4666 
L 4897 0 
L 4281 0 
L 4281 4097 
L 3078 897 
L 2444 897 
L 1241 4097 
L 1241 0 
L 628 0 
L 628 4666 
z
" transform="scale(0.015625)"/>
      <path id="DejaVuSans-43" d="M 4122 4306 
L 4122 3641 
Q 3803 3938 3442 4084 
Q 3081 4231 2675 4231 
Q 1875 4231 1450 3742 
Q 1025 3253 1025 2328 
Q 1025 1406 1450 917 
Q 1875 428 2675 428 
Q 3081 428 3442 575 
Q 3803 722 4122 1019 
L 4122 359 
Q 3791 134 3420 21 
Q 3050 -91 2638 -91 
Q 1578 -91 968 557 
Q 359 1206 359 2328 
Q 359 3453 968 4101 
Q 1578 4750 2638 4750 
Q 3056 4750 3426 4639 
Q 3797 4528 4122 4306 
z
" transform="scale(0.015625)"/>
      <path id="DejaVuSans-44" d="M 1259 4147 
L 1259 519 
L 2022 519 
Q 2988 519 3436 956 
Q 3884 1394 3884 2338 
Q 3884 3275 3436 3711 
Q 2988 4147 2022 4147 
L 1259 4147 
z
M 628 4666 
L 1925 4666 
Q 3281 4666 3915 4102 
Q 4550 3538 4550 2338 
Q 4550 1131 3912 565 
Q 3275 0 1925 0 
L 628 0 
L 628 4666 
z
" transform="scale(0.015625)"/>
      <path id="DejaVuSans-45" d="M 628 4666 
L 3578 4666 
L 3578 4134 
L 1259 4134 
L 1259 2753 
L 3481 2753 
L 3481 2222 
L 1259 2222 
L 1259 531 
L 3634 531 
L 3634 0 
L 628 0 
L 628 4666 
z
" transform="scale(0.015625)"/>
      <path id="DejaVuSans-28" d="M 1984 4856 
Q 1566 4138 1362 3434 
Q 1159 2731 1159 2009 
Q 1159 1288 1364 580 
Q 1569 -128 1984 -844 
L 1484 -844 
Q 1016 -109 783 600 
Q 550 1309 550 2009 
Q 550 2706 781 3412 
Q 1013 4119 1484 4856 
L 1984 4856 
z
" transform="scale(0.015625)"/>
      <path id="DejaVuSans-3d" d="M 678 2906 
L 4684 2906 
L 4684 2381 
L 678 2381 
L 678 2906 
z
M 678 1631 
L 4684 1631 
L 4684 1100 
L 678 1100 
L 678 1631 
z
" transform="scale(0.015625)"/>
      <path id="DejaVuSans-37" d="M 525 4666 
L 3525 4666 
L 3525 4397 
L 1831 0 
L 1172 0 
L 2766 4134 
L 525 4134 
L 525 4666 
z
" transform="scale(0.015625)"/>
      <path id="DejaVuSans-29" d="M 513 4856 
L 1013 4856 
Q 1481 4119 1714 3412 
Q 1947 2706 1947 2009 
Q 1947 1309 1714 600 
Q 1481 -109 1013 -844 
L 513 -844 
Q 928 -128 1133 580 
Q 1338 1288 1338 2009 
Q 1338 2731 1133 3434 
Q 928 4138 513 4856 
z
" transform="scale(0.015625)"/>
     </defs>
     <use xlink:href="#DejaVuSans-2b"/>
     <use xlink:href="#DejaVuSans-20" transform="translate(83.789062 0)"/>
     <use xlink:href="#DejaVuSans-4d" transform="translate(115.576172 0)"/>
     <use xlink:href="#DejaVuSans-69" transform="translate(201.855469 0)"/>
     <use xlink:href="#DejaVuSans-6e" transform="translate(229.638672 0)"/>
     <use xlink:href="#DejaVuSans-43" transform="translate(293.017578 0)"/>
     <use xlink:href="#DejaVuSans-44" transform="translate(362.841797 0)"/>
     <use xlink:href="#DejaVuSans-45" transform="translate(439.84375 0)"/>
     <use xlink:href="#DejaVuSans-20" transform="translate(503.027344 0)"/>
     <use xlink:href="#DejaVuSans-28" transform="translate(534.814453 0)"/>
     <use xlink:href="#DejaVuSans-6e" transform="translate(573.828125 0)"/>
     <use xlink:href="#DejaVuSans-3d" transform="translate(637.207031 0)"/>
     <use xlink:href="#DejaVuSans-31" transform="translate(720.996094 0)"/>
     <use xlink:href="#DejaVuSans-37" transform="translate(784.619141 0)"/>
     <use xlink:href="#DejaVuSans-29" transform="translate(848.242188 0)"/>
    </g>
   </g>
   <g id="legend_1">
    <g id="patch_5">
     <path d="M 448.119687 65.075 
L 546.28375 65.075 
Q 548.28375 65.075 548.28375 63.075 
L 548.28375 49.396875 
Q 548.28375 47.396875 546.28375 47.396875 
L 448.119687 47.396875 
Q 446.119687 47.396875 446.119687 49.396875 
L 446.119687 63.075 
Q 446.119687 65.075 448.119687 65.075 
z
" style="fill: #ffffff; opacity: 0.8; stroke: #cccccc; stroke-linejoin: miter"/>
    </g>
    <g id="line2d_48">
     <path d="M 450.119687 55.495312 
L 460.119687 55.495312 
L 470.119687 55.495312 
" style="fill: none; stroke: #000000; stroke-width: 2; stroke-linecap: square"/>
    </g>
    <g id="text_16">
     <!-- Overall Mean -->
     <g transform="translate(478.119687 58.995312) scale(0.1 -0.1)">
      <defs>
       <path id="DejaVuSans-4f" d="M 2522 4238 
Q 1834 4238 1429 3725 
Q 1025 3213 1025 2328 
Q 1025 1447 1429 934 
Q 1834 422 2522 422 
Q 3209 422 3611 934 
Q 4013 1447 4013 2328 
Q 4013 3213 3611 3725 
Q 3209 4238 2522 4238 
z
M 2522 4750 
Q 3503 4750 4090 4092 
Q 4678 3434 4678 2328 
Q 4678 1225 4090 567 
Q 3503 -91 2522 -91 
Q 1538 -91 948 565 
Q 359 1222 359 2328 
Q 359 3434 948 4092 
Q 1538 4750 2522 4750 
z
" transform="scale(0.015625)"/>
       <path id="DejaVuSans-76" d="M 191 3500 
L 800 3500 
L 1894 563 
L 2988 3500 
L 3597 3500 
L 2284 0 
L 1503 0 
L 191 3500 
z
" transform="scale(0.015625)"/>
      </defs>
      <use xlink:href="#DejaVuSans-4f"/>
      <use xlink:href="#DejaVuSans-76" transform="translate(78.710938 0)"/>
      <use xlink:href="#DejaVuSans-65" transform="translate(137.890625 0)"/>
      <use xlink:href="#DejaVuSans-72" transform="translate(199.414062 0)"/>
      <use xlink:href="#DejaVuSans-61" transform="translate(240.527344 0)"/>
      <use xlink:href="#DejaVuSans-6c" transform="translate(301.806641 0)"/>
      <use xlink:href="#DejaVuSans-6c" transform="translate(329.589844 0)"/>
      <use xlink:href="#DejaVuSans-20" transform="translate(357.373047 0)"/>
      <use xlink:href="#DejaVuSans-4d" transform="translate(389.160156 0)"/>
      <use xlink:href="#DejaVuSans-65" transform="translate(475.439453 0)"/>
      <use xlink:href="#DejaVuSans-61" transform="translate(536.962891 0)"/>
      <use xlink:href="#DejaVuSans-6e" transform="translate(598.242188 0)"/>
     </g>
    </g>
   </g>
  </g>
 </g>
 <defs>
  <clipPath id="p77a51a7fb7">
   <rect x="55.26875" y="42.396875" width="498.015" height="333.7"/>
  </clipPath>
 </defs>
</svg>
