<?xml version="1.0" encoding="utf-8" standalone="no"?>
<!DOCTYPE svg PUBLIC "-//W3C//DTD SVG 1.1//EN"
  "http://www.w3.org/Graphics/SVG/1.1/DTD/svg11.dtd">
<svg xmlns:xlink="http://www.w3.org/1999/xlink" width="567.730625pt" height="423.895625pt" viewBox="0 0 567.730625 423.895625" xmlns="http://www.w3.org/2000/svg" version="1.1">
 <metadata>
  <rdf:RDF xmlns:dc="http://purl.org/dc/elements/1.1/" xmlns:cc="http://creativecommons.org/ns#" xmlns:rdf="http://www.w3.org/1999/02/22-rdf-syntax-ns#">
   <cc:Work>
    <dc:type rdf:resource="http://purl.org/dc/dcmitype/StillImage"/>
    <dc:date>2025-12-01T06:13:14.725603</dc:date>
    <dc:format>image/svg+xml</dc:format>
    <dc:creator>
     <cc:Agent>
      <dc:title>Matplotlib v3.8.4, https://matplotlib.org/</dc:title>
     </cc:Agent>
    </dc:creator>
   </cc:Work>
  </rdf:RDF>
 </metadata>
 <defs>
  <style type="text/css">*{stroke-linejoin: round; stroke-linecap: butt}</style>
 </defs>
 <g id="figure_1">
  <g id="patch_1">
   <path d="M 0 423.895625 
L 567.730625 423.895625 
L 567.730625 0 
L 0 0 
z
" style="fill: #ffffff"/>
  </g>
  <g id="axes_1">
   <g id="patch_2">
    <path d="M 55.26875 376.096875 
L 550.98875 376.096875 
L 550.98875 42.396875 
L 55.26875 42.396875 
z
" style="fill: #ffffff"/>
   </g>
   <g id="matplotlib.axis_1">
    <g id="xtick_1">
     <g id="line2d_1">
      <defs>
       <path id="m93ed440918" d="M 0 0 
L 0 6 
" style="stroke: #000000; stroke-width: 1.5"/>
      </defs>
      <g>
       <use xlink:href="#m93ed440918" x="55.26875" y="376.096875" style="stroke: #000000; stroke-width: 1.5"/>
      </g>
     </g>
     <g id="text_1">
      <!-- 0.0 -->
      <g transform="translate(45.726875 394.715) scale(0.12 -0.12)">
       <defs>
        <path id="DejaVuSans-30" d="M 2034 4250 
Q 1547 4250 1301 3770 
Q 1056 3291 1056 2328 
Q 1056 1369 1301 889 
Q 1547 409 2034 409 
Q 2525 409 2770 889 
Q 3016 1369 3016 2328 
Q 3016 3291 2770 3770 
Q 2525 4250 2034 4250 
z
M 2034 4750 
Q 2819 4750 3233 4129 
Q 3647 3509 3647 2328 
Q 3647 1150 3233 529 
Q 2819 -91 2034 -91 
Q 1250 -91 836 529 
Q 422 1150 422 2328 
Q 422 3509 836 4129 
Q 1250 4750 2034 4750 
z
" transform="scale(0.015625)"/>
        <path id="DejaVuSans-2e" d="M 684 794 
L 1344 794 
L 1344 0 
L 684 0 
L 684 794 
z
" transform="scale(0.015625)"/>
       </defs>
       <use xlink:href="#DejaVuSans-30"/>
       <use xlink:href="#DejaVuSans-2e" x="63.623047"/>
       <use xlink:href="#DejaVuSans-30" x="95.410156"/>
      </g>
     </g>
    </g>
    <g id="xtick_2">
     <g id="line2d_2">
      <g>
       <use xlink:href="#m93ed440918" x="154.41275" y="376.096875" style="stroke: #000000; stroke-width: 1.5"/>
      </g>
     </g>
     <g id="text_2">
      <!-- 0.2 -->
      <g transform="translate(144.870875 394.715) scale(0.12 -0.12)">
       <defs>
        <path id="DejaVuSans-32" d="M 1228 531 
L 3431 531 
L 3431 0 
L 469 0 
L 469 531 
Q 828 903 1448 1529 
Q 2069 2156 2228 2338 
Q 2531 2678 2651 2914 
Q 2772 3150 2772 3378 
Q 2772 3750 2511 3984 
Q 2250 4219 1831 4219 
Q 1534 4219 1204 4116 
Q 875 4013 500 3803 
L 500 4441 
Q 881 4594 1212 4672 
Q 1544 4750 1819 4750 
Q 2544 4750 2975 4387 
Q 3406 4025 3406 3419 
Q 3406 3131 3298 2873 
Q 3191 2616 2906 2266 
Q 2828 2175 2409 1742 
Q 1991 1309 1228 531 
z
" transform="scale(0.015625)"/>
       </defs>
       <use xlink:href="#DejaVuSans-30"/>
       <use xlink:href="#DejaVuSans-2e" x="63.623047"/>
       <use xlink:href="#DejaVuSans-32" x="95.410156"/>
      </g>
     </g>
    </g>
    <g id="xtick_3">
     <g id="line2d_3">
      <g>
       <use xlink:href="#m93ed440918" x="253.55675" y="376.096875" style="stroke: #000000; stroke-width: 1.5"/>
      </g>
     </g>
     <g id="text_3">
      <!-- 0.4 -->
      <g transform="translate(244.014875 394.715) scale(0.12 -0.12)">
       <defs>
        <path id="DejaVuSans-34" d="M 2419 4116 
L 825 1625 
L 2419 1625 
L 2419 4116 
z
M 2253 4666 
L 3047 4666 
L 3047 1625 
L 3713 1625 
L 3713 1100 
L 3047 1100 
L 3047 0 
L 2419 0 
L 2419 1100 
L 313 1100 
L 313 1709 
L 2253 4666 
z
" transform="scale(0.015625)"/>
       </defs>
       <use xlink:href="#DejaVuSans-30"/>
       <use xlink:href="#DejaVuSans-2e" x="63.623047"/>
       <use xlink:href="#DejaVuSans-34" x="95.410156"/>
      </g>
     </g>
    </g>
    <g id="xtick_4">
     <g id="line2d_4">
      <g>
       <use xlink:href="#m93ed440918" x="352.70075" y="376.096875" style="stroke: #000000; stroke-width: 1.5"/>
      </g>
     </g>
     <g id="text_4">
      <!-- 0.6 -->
      <g transform="translate(343.158875 394.715) scale(0.12 -0.12)">
       <defs>
        <path id="DejaVuSans-36" d="M 2113 2584 
Q 1688 2584 1439 2293 
Q 1191 2003 1191 1497 
Q 1191 994 1439 701 
Q 1688 409 2113 409 
Q 2538 409 2786 701 
Q 3034 994 3034 1497 
Q 3034 2003 2786 2293 
Q 2538 2584 2113 2584 
z
M 3366 4563 
L 3366 3988 
Q 3128 4100 2886 4159 
Q 2644 4219 2406 4219 
Q 1781 4219 1451 3797 
Q 1122 3375 1075 2522 
Q 1259 2794 1537 2939 
Q 1816 3084 2150 3084 
Q 2853 3084 3261 2657 
Q 3669 2231 3669 1497 
Q 3669 778 3244 343 
Q 2819 -91 2113 -91 
Q 1303 -91 875 529 
Q 447 1150 447 2328 
Q 447 3434 972 4092 
Q 1497 4750 2381 4750 
Q 2619 4750 2861 4703 
Q 3103 4656 3366 4563 
z
" transform="scale(0.015625)"/>
       </defs>
       <use xlink:href="#DejaVuSans-30"/>
       <use xlink:href="#DejaVuSans-2e" x="63.623047"/>
       <use xlink:href="#DejaVuSans-36" x="95.410156"/>
      </g>
     </g>
    </g>
    <g id="xtick_5">
     <g id="line2d_5">
      <g>
       <use xlink:href="#m93ed440918" x="451.84475" y="376.096875" style="stroke: #000000; stroke-width: 1.5"/>
      </g>
     </g>
     <g id="text_5">
      <!-- 0.8 -->
      <g transform="translate(442.302875 394.715) scale(0.12 -0.12)">
       <defs>
        <path id="DejaVuSans-38" d="M 2034 2216 
Q 1584 2216 1326 1975 
Q 1069 1734 1069 1313 
Q 1069 891 1326 650 
Q 1584 409 2034 409 
Q 2484 409 2743 651 
Q 3003 894 3003 1313 
Q 3003 1734 2745 1975 
Q 2488 2216 2034 2216 
z
M 1403 2484 
Q 997 2584 770 2862 
Q 544 3141 544 3541 
Q 544 4100 942 4425 
Q 1341 4750 2034 4750 
Q 2731 4750 3128 4425 
Q 3525 4100 3525 3541 
Q 3525 3141 3298 2862 
Q 3072 2584 2669 2484 
Q 3125 2378 3379 2068 
Q 3634 1759 3634 1313 
Q 3634 634 3220 271 
Q 2806 -91 2034 -91 
Q 1263 -91 848 271 
Q 434 634 434 1313 
Q 434 1759 690 2068 
Q 947 2378 1403 2484 
z
M 1172 3481 
Q 1172 3119 1398 2916 
Q 1625 2713 2034 2713 
Q 2441 2713 2670 2916 
Q 2900 3119 2900 3481 
Q 2900 3844 2670 4047 
Q 2441 4250 2034 4250 
Q 1625 4250 1398 4047 
Q 1172 3844 1172 3481 
z
" transform="scale(0.015625)"/>
       </defs>
       <use xlink:href="#DejaVuSans-30"/>
       <use xlink:href="#DejaVuSans-2e" x="63.623047"/>
       <use xlink:href="#DejaVuSans-38" x="95.410156"/>
      </g>
     </g>
    </g>
    <g id="xtick_6">
     <g id="line2d_6">
      <g>
       <use xlink:href="#m93ed440918" x="550.98875" y="376.096875" style="stroke: #000000; stroke-width: 1.5"/>
      </g>
     </g>
     <g id="text_6">
      <!-- 1.0 -->
      <g transform="translate(541.446875 394.715) scale(0.12 -0.12)">
       <defs>
        <path id="DejaVuSans-31" d="M 794 531 
L 1825 531 
L 1825 4091 
L 703 3866 
L 703 4441 
L 1819 4666 
L 2450 4666 
L 2450 531 
L 3481 531 
L 3481 0 
L 794 0 
L 794 531 
z
" transform="scale(0.015625)"/>
       </defs>
       <use xlink:href="#DejaVuSans-31"/>
       <use xlink:href="#DejaVuSans-2e" x="63.623047"/>
       <use xlink:href="#DejaVuSans-30" x="95.410156"/>
      </g>
     </g>
    </g>
    <g id="text_7">
     <!-- Normalized distance from equator -->
     <g transform="translate(166.3275 413.368125) scale(0.16 -0.16)">
      <defs>
       <path id="DejaVuSans-4e" d="M 628 4666 
L 1478 4666 
L 3547 763 
L 3547 4666 
L 4159 4666 
L 4159 0 
L 3309 0 
L 1241 3903 
L 1241 0 
L 628 0 
L 628 4666 
z
" transform="scale(0.015625)"/>
       <path id="DejaVuSans-6f" d="M 1959 3097 
Q 1497 3097 1228 2736 
Q 959 2375 959 1747 
Q 959 1119 1226 758 
Q 1494 397 1959 397 
Q 2419 397 2687 759 
Q 2956 1122 2956 1747 
Q 2956 2369 2687 2733 
Q 2419 3097 1959 3097 
z
M 1959 3584 
Q 2709 3584 3137 3096 
Q 3566 2609 3566 1747 
Q 3566 888 3137 398 
Q 2709 -91 1959 -91 
Q 1206 -91 779 398 
Q 353 888 353 1747 
Q 353 2609 779 3096 
Q 1206 3584 1959 3584 
z
" transform="scale(0.015625)"/>
       <path id="DejaVuSans-72" d="M 2631 2963 
Q 2534 3019 2420 3045 
Q 2306 3072 2169 3072 
Q 1681 3072 1420 2755 
Q 1159 2438 1159 1844 
L 1159 0 
L 581 0 
L 581 3500 
L 1159 3500 
L 1159 2956 
Q 1341 3275 1631 3429 
Q 1922 3584 2338 3584 
Q 2397 3584 2469 3576 
Q 2541 3569 2628 3553 
L 2631 2963 
z
" transform="scale(0.015625)"/>
       <path id="DejaVuSans-6d" d="M 3328 2828 
Q 3544 3216 3844 3400 
Q 4144 3584 4550 3584 
Q 5097 3584 5394 3201 
Q 5691 2819 5691 2113 
L 5691 0 
L 5113 0 
L 5113 2094 
Q 5113 2597 4934 2840 
Q 4756 3084 4391 3084 
Q 3944 3084 3684 2787 
Q 3425 2491 3425 1978 
L 3425 0 
L 2847 0 
L 2847 2094 
Q 2847 2600 2669 2842 
Q 2491 3084 2119 3084 
Q 1678 3084 1418 2786 
Q 1159 2488 1159 1978 
L 1159 0 
L 581 0 
L 581 3500 
L 1159 3500 
L 1159 2956 
Q 1356 3278 1631 3431 
Q 1906 3584 2284 3584 
Q 2666 3584 2933 3390 
Q 3200 3197 3328 2828 
z
" transform="scale(0.015625)"/>
       <path id="DejaVuSans-61" d="M 2194 1759 
Q 1497 1759 1228 1600 
Q 959 1441 959 1056 
Q 959 750 1161 570 
Q 1363 391 1709 391 
Q 2188 391 2477 730 
Q 2766 1069 2766 1631 
L 2766 1759 
L 2194 1759 
z
M 3341 1997 
L 3341 0 
L 2766 0 
L 2766 531 
Q 2569 213 2275 61 
Q 1981 -91 1556 -91 
Q 1019 -91 701 211 
Q 384 513 384 1019 
Q 384 1609 779 1909 
Q 1175 2209 1959 2209 
L 2766 2209 
L 2766 2266 
Q 2766 2663 2505 2880 
Q 2244 3097 1772 3097 
Q 1472 3097 1187 3025 
Q 903 2953 641 2809 
L 641 3341 
Q 956 3463 1253 3523 
Q 1550 3584 1831 3584 
Q 2591 3584 2966 3190 
Q 3341 2797 3341 1997 
z
" transform="scale(0.015625)"/>
       <path id="DejaVuSans-6c" d="M 603 4863 
L 1178 4863 
L 1178 0 
L 603 0 
L 603 4863 
z
" transform="scale(0.015625)"/>
       <path id="DejaVuSans-69" d="M 603 3500 
L 1178 3500 
L 1178 0 
L 603 0 
L 603 3500 
z
M 603 4863 
L 1178 4863 
L 1178 4134 
L 603 4134 
L 603 4863 
z
" transform="scale(0.015625)"/>
       <path id="DejaVuSans-7a" d="M 353 3500 
L 3084 3500 
L 3084 2975 
L 922 459 
L 3084 459 
L 3084 0 
L 275 0 
L 275 525 
L 2438 3041 
L 353 3041 
L 353 3500 
z
" transform="scale(0.015625)"/>
       <path id="DejaVuSans-65" d="M 3597 1894 
L 3597 1613 
L 953 1613 
Q 991 1019 1311 708 
Q 1631 397 2203 397 
Q 2534 397 2845 478 
Q 3156 559 3463 722 
L 3463 178 
Q 3153 47 2828 -22 
Q 2503 -91 2169 -91 
Q 1331 -91 842 396 
Q 353 884 353 1716 
Q 353 2575 817 3079 
Q 1281 3584 2069 3584 
Q 2775 3584 3186 3129 
Q 3597 2675 3597 1894 
z
M 3022 2063 
Q 3016 2534 2758 2815 
Q 2500 3097 2075 3097 
Q 1594 3097 1305 2825 
Q 1016 2553 972 2059 
L 3022 2063 
z
" transform="scale(0.015625)"/>
       <path id="DejaVuSans-64" d="M 2906 2969 
L 2906 4863 
L 3481 4863 
L 3481 0 
L 2906 0 
L 2906 525 
Q 2725 213 2448 61 
Q 2172 -91 1784 -91 
Q 1150 -91 751 415 
Q 353 922 353 1747 
Q 353 2572 751 3078 
Q 1150 3584 1784 3584 
Q 2172 3584 2448 3432 
Q 2725 3281 2906 2969 
z
M 947 1747 
Q 947 1113 1208 752 
Q 1469 391 1925 391 
Q 2381 391 2643 752 
Q 2906 1113 2906 1747 
Q 2906 2381 2643 2742 
Q 2381 3103 1925 3103 
Q 1469 3103 1208 2742 
Q 947 2381 947 1747 
z
" transform="scale(0.015625)"/>
       <path id="DejaVuSans-20" transform="scale(0.015625)"/>
       <path id="DejaVuSans-73" d="M 2834 3397 
L 2834 2853 
Q 2591 2978 2328 3040 
Q 2066 3103 1784 3103 
Q 1356 3103 1142 2972 
Q 928 2841 928 2578 
Q 928 2378 1081 2264 
Q 1234 2150 1697 2047 
L 1894 2003 
Q 2506 1872 2764 1633 
Q 3022 1394 3022 966 
Q 3022 478 2636 193 
Q 2250 -91 1575 -91 
Q 1294 -91 989 -36 
Q 684 19 347 128 
L 347 722 
Q 666 556 975 473 
Q 1284 391 1588 391 
Q 1994 391 2212 530 
Q 2431 669 2431 922 
Q 2431 1156 2273 1281 
Q 2116 1406 1581 1522 
L 1381 1569 
Q 847 1681 609 1914 
Q 372 2147 372 2553 
Q 372 3047 722 3315 
Q 1072 3584 1716 3584 
Q 2034 3584 2315 3537 
Q 2597 3491 2834 3397 
z
" transform="scale(0.015625)"/>
       <path id="DejaVuSans-74" d="M 1172 4494 
L 1172 3500 
L 2356 3500 
L 2356 3053 
L 1172 3053 
L 1172 1153 
Q 1172 725 1289 603 
Q 1406 481 1766 481 
L 2356 481 
L 2356 0 
L 1766 0 
Q 1100 0 847 248 
Q 594 497 594 1153 
L 594 3053 
L 172 3053 
L 172 3500 
L 594 3500 
L 594 4494 
L 1172 4494 
z
" transform="scale(0.015625)"/>
       <path id="DejaVuSans-6e" d="M 3513 2113 
L 3513 0 
L 2938 0 
L 2938 2094 
Q 2938 2591 2744 2837 
Q 2550 3084 2163 3084 
Q 1697 3084 1428 2787 
Q 1159 2491 1159 1978 
L 1159 0 
L 581 0 
L 581 3500 
L 1159 3500 
L 1159 2956 
Q 1366 3272 1645 3428 
Q 1925 3584 2291 3584 
Q 2894 3584 3203 3211 
Q 3513 2838 3513 2113 
z
" transform="scale(0.015625)"/>
       <path id="DejaVuSans-63" d="M 3122 3366 
L 3122 2828 
Q 2878 2963 2633 3030 
Q 2388 3097 2138 3097 
Q 1578 3097 1268 2742 
Q 959 2388 959 1747 
Q 959 1106 1268 751 
Q 1578 397 2138 397 
Q 2388 397 2633 464 
Q 2878 531 3122 666 
L 3122 134 
Q 2881 22 2623 -34 
Q 2366 -91 2075 -91 
Q 1284 -91 818 406 
Q 353 903 353 1747 
Q 353 2603 823 3093 
Q 1294 3584 2113 3584 
Q 2378 3584 2631 3529 
Q 2884 3475 3122 3366 
z
" transform="scale(0.015625)"/>
       <path id="DejaVuSans-66" d="M 2375 4863 
L 2375 4384 
L 1825 4384 
Q 1516 4384 1395 4259 
Q 1275 4134 1275 3809 
L 1275 3500 
L 2222 3500 
L 2222 3053 
L 1275 3053 
L 1275 0 
L 697 0 
L 697 3053 
L 147 3053 
L 147 3500 
L 697 3500 
L 697 3744 
Q 697 4328 969 4595 
Q 1241 4863 1831 4863 
L 2375 4863 
z
" transform="scale(0.015625)"/>
       <path id="DejaVuSans-71" d="M 947 1747 
Q 947 1113 1208 752 
Q 1469 391 1925 391 
Q 2381 391 2643 752 
Q 2906 1113 2906 1747 
Q 2906 2381 2643 2742 
Q 2381 3103 1925 3103 
Q 1469 3103 1208 2742 
Q 947 2381 947 1747 
z
M 2906 525 
Q 2725 213 2448 61 
Q 2172 -91 1784 -91 
Q 1150 -91 751 415 
Q 353 922 353 1747 
Q 353 2572 751 3078 
Q 1150 3584 1784 3584 
Q 2172 3584 2448 3432 
Q 2725 3281 2906 2969 
L 2906 3500 
L 3481 3500 
L 3481 -1331 
L 2906 -1331 
L 2906 525 
z
" transform="scale(0.015625)"/>
       <path id="DejaVuSans-75" d="M 544 1381 
L 544 3500 
L 1119 3500 
L 1119 1403 
Q 1119 906 1312 657 
Q 1506 409 1894 409 
Q 2359 409 2629 706 
Q 2900 1003 2900 1516 
L 2900 3500 
L 3475 3500 
L 3475 0 
L 2900 0 
L 2900 538 
Q 2691 219 2414 64 
Q 2138 -91 1772 -91 
Q 1169 -91 856 284 
Q 544 659 544 1381 
z
M 1991 3584 
L 1991 3584 
z
" transform="scale(0.015625)"/>
      </defs>
      <use xlink:href="#DejaVuSans-4e"/>
      <use xlink:href="#DejaVuSans-6f" x="74.804688"/>
      <use xlink:href="#DejaVuSans-72" x="135.986328"/>
      <use xlink:href="#DejaVuSans-6d" x="175.349609"/>
      <use xlink:href="#DejaVuSans-61" x="272.761719"/>
      <use xlink:href="#DejaVuSans-6c" x="334.041016"/>
      <use xlink:href="#DejaVuSans-69" x="361.824219"/>
      <use xlink:href="#DejaVuSans-7a" x="389.607422"/>
      <use xlink:href="#DejaVuSans-65" x="442.097656"/>
      <use xlink:href="#DejaVuSans-64" x="503.621094"/>
      <use xlink:href="#DejaVuSans-20" x="567.097656"/>
      <use xlink:href="#DejaVuSans-64" x="598.884766"/>
      <use xlink:href="#DejaVuSans-69" x="662.361328"/>
      <use xlink:href="#DejaVuSans-73" x="690.144531"/>
      <use xlink:href="#DejaVuSans-74" x="742.244141"/>
      <use xlink:href="#DejaVuSans-61" x="781.453125"/>
      <use xlink:href="#DejaVuSans-6e" x="842.732422"/>
      <use xlink:href="#DejaVuSans-63" x="906.111328"/>
      <use xlink:href="#DejaVuSans-65" x="961.091797"/>
      <use xlink:href="#DejaVuSans-20" x="1022.615234"/>
      <use xlink:href="#DejaVuSans-66" x="1054.402344"/>
      <use xlink:href="#DejaVuSans-72" x="1089.607422"/>
      <use xlink:href="#DejaVuSans-6f" x="1128.470703"/>
      <use xlink:href="#DejaVuSans-6d" x="1189.652344"/>
      <use xlink:href="#DejaVuSans-20" x="1287.064453"/>
      <use xlink:href="#DejaVuSans-65" x="1318.851562"/>
      <use xlink:href="#DejaVuSans-71" x="1380.375"/>
      <use xlink:href="#DejaVuSans-75" x="1443.851562"/>
      <use xlink:href="#DejaVuSans-61" x="1507.230469"/>
      <use xlink:href="#DejaVuSans-74" x="1568.509766"/>
      <use xlink:href="#DejaVuSans-6f" x="1607.71875"/>
      <use xlink:href="#DejaVuSans-72" x="1668.900391"/>
     </g>
    </g>
   </g>
   <g id="matplotlib.axis_2">
    <g id="ytick_1">
     <g id="line2d_7">
      <defs>
       <path id="m86ae130b68" d="M 0 0 
L -6 0 
" style="stroke: #000000; stroke-width: 1.5"/>
      </defs>
      <g>
       <use xlink:href="#m86ae130b68" x="55.26875" y="376.096875" style="stroke: #000000; stroke-width: 1.5"/>
      </g>
     </g>
     <g id="text_8">
      <!-- 0.0 -->
      <g transform="translate(26.685 380.655937) scale(0.12 -0.12)">
       <use xlink:href="#DejaVuSans-30"/>
       <use xlink:href="#DejaVuSans-2e" x="63.623047"/>
       <use xlink:href="#DejaVuSans-30" x="95.410156"/>
      </g>
     </g>
    </g>
    <g id="ytick_2">
     <g id="line2d_8">
      <g>
       <use xlink:href="#m86ae130b68" x="55.26875" y="312.53497" style="stroke: #000000; stroke-width: 1.5"/>
      </g>
     </g>
     <g id="text_9">
      <!-- 0.2 -->
      <g transform="translate(26.685 317.094033) scale(0.12 -0.12)">
       <use xlink:href="#DejaVuSans-30"/>
       <use xlink:href="#DejaVuSans-2e" x="63.623047"/>
       <use xlink:href="#DejaVuSans-32" x="95.410156"/>
      </g>
     </g>
    </g>
    <g id="ytick_3">
     <g id="line2d_9">
      <g>
       <use xlink:href="#m86ae130b68" x="55.26875" y="248.973065" style="stroke: #000000; stroke-width: 1.5"/>
      </g>
     </g>
     <g id="text_10">
      <!-- 0.4 -->
      <g transform="translate(26.685 253.532128) scale(0.12 -0.12)">
       <use xlink:href="#DejaVuSans-30"/>
       <use xlink:href="#DejaVuSans-2e" x="63.623047"/>
       <use xlink:href="#DejaVuSans-34" x="95.410156"/>
      </g>
     </g>
    </g>
    <g id="ytick_4">
     <g id="line2d_10">
      <g>
       <use xlink:href="#m86ae130b68" x="55.26875" y="185.411161" style="stroke: #000000; stroke-width: 1.5"/>
      </g>
     </g>
     <g id="text_11">
      <!-- 0.6 -->
      <g transform="translate(26.685 189.970223) scale(0.12 -0.12)">
       <use xlink:href="#DejaVuSans-30"/>
       <use xlink:href="#DejaVuSans-2e" x="63.623047"/>
       <use xlink:href="#DejaVuSans-36" x="95.410156"/>
      </g>
     </g>
    </g>
    <g id="ytick_5">
     <g id="line2d_11">
      <g>
       <use xlink:href="#m86ae130b68" x="55.26875" y="121.849256" style="stroke: #000000; stroke-width: 1.5"/>
      </g>
     </g>
     <g id="text_12">
      <!-- 0.8 -->
      <g transform="translate(26.685 126.408318) scale(0.12 -0.12)">
       <use xlink:href="#DejaVuSans-30"/>
       <use xlink:href="#DejaVuSans-2e" x="63.623047"/>
       <use xlink:href="#DejaVuSans-38" x="95.410156"/>
      </g>
     </g>
    </g>
    <g id="ytick_6">
     <g id="line2d_12">
      <g>
       <use xlink:href="#m86ae130b68" x="55.26875" y="58.287351" style="stroke: #000000; stroke-width: 1.5"/>
      </g>
     </g>
     <g id="text_13">
      <!-- 1.0 -->
      <g transform="translate(26.685 62.846414) scale(0.12 -0.12)">
       <use xlink:href="#DejaVuSans-31"/>
       <use xlink:href="#DejaVuSans-2e" x="63.623047"/>
       <use xlink:href="#DejaVuSans-30" x="95.410156"/>
      </g>
     </g>
    </g>
    <g id="text_14">
     <!-- Peak-Normalized intensity -->
     <g transform="translate(19.3575 313.718125) rotate(-90) scale(0.16 -0.16)">
      <defs>
       <path id="DejaVuSans-50" d="M 1259 4147 
L 1259 2394 
L 2053 2394 
Q 2494 2394 2734 2622 
Q 2975 2850 2975 3272 
Q 2975 3691 2734 3919 
Q 2494 4147 2053 4147 
L 1259 4147 
z
M 628 4666 
L 2053 4666 
Q 2838 4666 3239 4311 
Q 3641 3956 3641 3272 
Q 3641 2581 3239 2228 
Q 2838 1875 2053 1875 
L 1259 1875 
L 1259 0 
L 628 0 
L 628 4666 
z
" transform="scale(0.015625)"/>
       <path id="DejaVuSans-6b" d="M 581 4863 
L 1159 4863 
L 1159 1991 
L 2875 3500 
L 3609 3500 
L 1753 1863 
L 3688 0 
L 2938 0 
L 1159 1709 
L 1159 0 
L 581 0 
L 581 4863 
z
" transform="scale(0.015625)"/>
       <path id="DejaVuSans-2d" d="M 313 2009 
L 1997 2009 
L 1997 1497 
L 313 1497 
L 313 2009 
z
" transform="scale(0.015625)"/>
       <path id="DejaVuSans-79" d="M 2059 -325 
Q 1816 -950 1584 -1140 
Q 1353 -1331 966 -1331 
L 506 -1331 
L 506 -850 
L 844 -850 
Q 1081 -850 1212 -737 
Q 1344 -625 1503 -206 
L 1606 56 
L 191 3500 
L 800 3500 
L 1894 763 
L 2988 3500 
L 3597 3500 
L 2059 -325 
z
" transform="scale(0.015625)"/>
      </defs>
      <use xlink:href="#DejaVuSans-50"/>
      <use xlink:href="#DejaVuSans-65" x="56.677734"/>
      <use xlink:href="#DejaVuSans-61" x="118.201172"/>
      <use xlink:href="#DejaVuSans-6b" x="179.480469"/>
      <use xlink:href="#DejaVuSans-2d" x="237.390625"/>
      <use xlink:href="#DejaVuSans-4e" x="273.474609"/>
      <use xlink:href="#DejaVuSans-6f" x="348.279297"/>
      <use xlink:href="#DejaVuSans-72" x="409.460938"/>
      <use xlink:href="#DejaVuSans-6d" x="448.824219"/>
      <use xlink:href="#DejaVuSans-61" x="546.236328"/>
      <use xlink:href="#DejaVuSans-6c" x="607.515625"/>
      <use xlink:href="#DejaVuSans-69" x="635.298828"/>
      <use xlink:href="#DejaVuSans-7a" x="663.082031"/>
      <use xlink:href="#DejaVuSans-65" x="715.572266"/>
      <use xlink:href="#DejaVuSans-64" x="777.095703"/>
      <use xlink:href="#DejaVuSans-20" x="840.572266"/>
      <use xlink:href="#DejaVuSans-69" x="872.359375"/>
      <use xlink:href="#DejaVuSans-6e" x="900.142578"/>
      <use xlink:href="#DejaVuSans-74" x="963.521484"/>
      <use xlink:href="#DejaVuSans-65" x="1002.730469"/>
      <use xlink:href="#DejaVuSans-6e" x="1064.253906"/>
      <use xlink:href="#DejaVuSans-73" x="1127.632812"/>
      <use xlink:href="#DejaVuSans-69" x="1179.732422"/>
      <use xlink:href="#DejaVuSans-74" x="1207.515625"/>
      <use xlink:href="#DejaVuSans-79" x="1246.724609"/>
     </g>
    </g>
   </g>
   <g id="line2d_13">
    <path d="M 67.66175 58.287351 
L 92.44775 79.474653 
L 117.23375 61.714709 
L 142.01975 98.792487 
L 166.80575 176.686978 
L 191.59175 262.370918 
L 216.37775 269.848789 
L 241.16375 337.149629 
L 265.94975 341.200143 
L 290.73575 345.873812 
L 315.52175 321.570731 
L 340.30775 348.366436 
L 365.09375 330.606492 
L 389.87975 338.707519 
L 414.66575 350.85906 
L 439.45175 352.105372 
L 464.23775 333.410694 
L 489.02375 336.838051 
L 513.80975 348.678014 
L 538.59575 362.699023 
" clip-path="url(#p5b25846447)" style="fill: none; stroke: #808080; stroke-opacity: 0.3; stroke-width: 1.5; stroke-linecap: square"/>
   </g>
   <g id="line2d_14">
    <path d="M 67.66175 110.668699 
L 92.44775 60.268158 
L 117.23375 58.287351 
L 142.01975 165.911213 
L 166.80575 262.310501 
L 191.59175 330.538308 
L 216.37775 270.45382 
L 241.16375 248.66494 
L 265.94975 114.190134 
L 290.73575 92.401254 
L 315.52175 123.653991 
L 340.30775 213.010409 
L 365.09375 294.003418 
L 389.87975 352.987457 
L 414.66575 354.528085 
L 439.45175 357.82943 
L 464.23775 359.810237 
L 489.02375 347.045035 
L 513.80975 358.489699 
L 538.59575 348.365573 
" clip-path="url(#p5b25846447)" style="fill: none; stroke: #808080; stroke-opacity: 0.3; stroke-width: 1.5; stroke-linecap: square"/>
   </g>
   <g id="line2d_15">
    <path d="M 67.66175 284.725031 
L 92.44775 315.310824 
L 117.23375 303.102209 
L 142.01975 297.961739 
L 166.80575 341.141683 
L 191.59175 344.997035 
L 216.37775 329.575626 
L 241.16375 320.836828 
L 265.94975 279.584561 
L 290.73575 339.47103 
L 315.52175 303.616256 
L 340.30775 239.617411 
L 365.09375 254.524772 
L 389.87975 282.283308 
L 414.66575 246.428533 
L 439.45175 58.287351 
L 464.23775 82.447558 
L 489.02375 249.12728 
L 513.80975 227.408796 
L 538.59575 291.022106 
" clip-path="url(#p5b25846447)" style="fill: none; stroke: #808080; stroke-opacity: 0.3; stroke-width: 1.5; stroke-linecap: square"/>
   </g>
   <g id="line2d_16">
    <path d="M 67.66175 330.626829 
L 92.44775 271.763037 
L 117.23375 90.707082 
L 142.01975 195.384349 
L 166.80575 328.428881 
L 191.59175 289.415306 
L 216.37775 250.539103 
L 241.16375 132.468092 
L 265.94975 155.61523 
L 290.73575 218.050686 
L 315.52175 58.287351 
L 340.30775 96.614067 
L 365.09375 242.022055 
L 389.87975 305.968601 
L 414.66575 352.468935 
L 439.45175 352.194192 
L 464.23775 353.22448 
L 489.02375 356.040601 
L 513.80975 362.565758 
L 538.59575 356.658774 
" clip-path="url(#p5b25846447)" style="fill: none; stroke: #808080; stroke-opacity: 0.3; stroke-width: 1.5; stroke-linecap: square"/>
   </g>
   <g id="line2d_17">
    <path d="M 67.66175 58.287351 
L 92.44775 63.220093 
L 117.23375 73.261747 
L 142.01975 98.630134 
L 166.80575 212.699794 
L 191.59175 277.794373 
L 216.37775 336.10643 
L 241.16375 360.505887 
L 265.94975 358.479939 
L 290.73575 362.884173 
L 315.52175 371.86881 
L 340.30775 374.159012 
L 365.09375 350.376149 
L 389.87975 319.282257 
L 414.66575 308.712095 
L 439.45175 260.177437 
L 464.23775 254.187679 
L 489.02375 261.410622 
L 513.80975 302.369998 
L 538.59575 356.453991 
" clip-path="url(#p5b25846447)" style="fill: none; stroke: #808080; stroke-opacity: 0.3; stroke-width: 1.5; stroke-linecap: square"/>
   </g>
   <g id="line2d_18">
    <path d="M 67.66175 92.323401 
L 92.44775 90.730581 
L 117.23375 58.287351 
L 142.01975 74.550883 
L 166.80575 102.299485 
L 191.59175 141.197828 
L 216.37775 170.790749 
L 241.16375 218.743017 
L 265.94975 288.910933 
L 290.73575 318.084691 
L 315.52175 322.52782 
L 340.30775 342.479988 
L 365.09375 360.420172 
L 389.87975 368.468105 
L 414.66575 362.767486 
L 439.45175 363.354314 
L 464.23775 353.881226 
L 489.02375 344.408139 
L 513.80975 351.366247 
L 538.59575 333.090733 
" clip-path="url(#p5b25846447)" style="fill: none; stroke: #808080; stroke-opacity: 0.3; stroke-width: 1.5; stroke-linecap: square"/>
   </g>
   <g id="line2d_19">
    <path d="M 67.66175 58.287351 
L 92.44775 246.818425 
L 117.23375 317.517577 
L 142.01975 345.797238 
L 166.80575 318.864228 
L 191.59175 328.290781 
L 216.37775 295.971169 
L 241.16375 359.937069 
L 265.94975 332.330733 
L 290.73575 333.677383 
L 315.52175 361.957044 
L 340.30775 301.357771 
L 365.09375 339.063986 
L 389.87975 347.817214 
L 414.66575 304.051072 
L 439.45175 291.257892 
L 464.23775 283.851314 
L 489.02375 272.404785 
L 513.80975 273.07811 
L 538.59575 281.831338 
" clip-path="url(#p5b25846447)" style="fill: none; stroke: #808080; stroke-opacity: 0.3; stroke-width: 1.5; stroke-linecap: square"/>
   </g>
   <g id="line2d_20">
    <path d="M 67.66175 319.653904 
L 92.44775 195.920062 
L 117.23375 86.424088 
L 142.01975 58.287351 
L 166.80575 127.7817 
L 191.59175 235.582691 
L 216.37775 277.618297 
L 241.16375 327.789827 
L 265.94975 356.774056 
L 290.73575 361.011516 
L 315.52175 369.994932 
L 340.30775 364.740481 
L 365.09375 363.384494 
L 389.87975 366.604964 
L 414.66575 364.401485 
L 439.45175 367.791453 
L 464.23775 356.265561 
L 489.02375 358.130043 
L 513.80975 365.248977 
L 538.59575 373.3849 
" clip-path="url(#p5b25846447)" style="fill: none; stroke: #808080; stroke-opacity: 0.3; stroke-width: 1.5; stroke-linecap: square"/>
   </g>
   <g id="line2d_21">
    <path d="M 67.66175 58.287351 
L 92.44775 172.846598 
L 117.23375 325.345897 
L 142.01975 303.419503 
L 166.80575 353.677754 
L 191.59175 335.44682 
L 216.37775 360.083217 
L 241.16375 338.156823 
L 265.94975 359.836853 
L 290.73575 341.852283 
L 315.52175 326.824081 
L 340.30775 367.7205 
L 365.09375 349.982294 
L 389.87975 364.764132 
L 414.66575 363.285948 
L 439.45175 371.41596 
L 464.23775 367.7205 
L 489.02375 373.140507 
L 513.80975 371.662324 
L 538.59575 368.705956 
" clip-path="url(#p5b25846447)" style="fill: none; stroke: #808080; stroke-opacity: 0.3; stroke-width: 1.5; stroke-linecap: square"/>
   </g>
   <g id="line2d_22">
    <path d="M 67.66175 213.653581 
L 92.44775 58.287351 
L 117.23375 222.541056 
L 142.01975 75.239387 
L 166.80575 245.253493 
L 191.59175 131.526729 
L 216.37775 294.792937 
L 241.16375 272.903415 
L 265.94975 342.521969 
L 290.73575 335.609489 
L 315.52175 354.04277 
L 340.30775 365.892737 
L 365.09375 367.044817 
L 389.87975 365.728154 
L 414.66575 350.092781 
L 439.45175 371.488555 
L 464.23775 351.080279 
L 489.02375 369.348977 
L 513.80975 367.867731 
L 538.59575 369.678143 
" clip-path="url(#p5b25846447)" style="fill: none; stroke: #808080; stroke-opacity: 0.3; stroke-width: 1.5; stroke-linecap: square"/>
   </g>
   <g id="line2d_23">
    <path d="M 67.66175 148.379788 
L 92.44775 166.975026 
L 117.23375 137.640292 
L 142.01975 132.867183 
L 166.80575 58.287351 
L 191.59175 228.329368 
L 216.37775 305.991833 
L 241.16375 360.982029 
L 265.94975 369.036651 
L 290.73575 367.346175 
L 315.52175 372.119284 
L 340.30775 368.241133 
L 365.09375 362.771945 
L 389.87975 358.297155 
L 414.66575 347.25934 
L 439.45175 365.1585 
L 464.23775 368.837771 
L 489.02375 373.71032 
L 513.80975 375.599676 
L 538.59575 373.412001 
" clip-path="url(#p5b25846447)" style="fill: none; stroke: #808080; stroke-opacity: 0.3; stroke-width: 1.5; stroke-linecap: square"/>
   </g>
   <g id="line2d_24">
    <path d="M 67.66175 58.287351 
L 92.44775 226.670643 
L 117.23375 331.49203 
L 142.01975 369.963709 
L 166.80575 359.927619 
L 191.59175 361.6003 
L 216.37775 353.236892 
L 241.16375 354.909573 
L 265.94975 354.909573 
L 290.73575 337.625196 
L 315.52175 353.794452 
L 340.30775 361.6003 
L 365.09375 349.891528 
L 389.87975 342.643241 
L 414.66575 349.891528 
L 439.45175 370.521269 
L 464.23775 355.467134 
L 489.02375 354.352013 
L 513.80975 358.812497 
L 538.59575 360.485179 
" clip-path="url(#p5b25846447)" style="fill: none; stroke: #808080; stroke-opacity: 0.3; stroke-width: 1.5; stroke-linecap: square"/>
   </g>
   <g id="line2d_25">
    <path d="M 67.66175 195.712418 
L 92.44775 94.049357 
L 117.23375 62.485826 
L 142.01975 72.682121 
L 166.80575 58.287351 
L 191.59175 108.594072 
L 216.37775 263.71271 
L 241.16375 338.235632 
L 265.94975 360.802432 
L 290.73575 359.902759 
L 315.52175 357.578604 
L 340.30775 362.076969 
L 365.09375 345.657935 
L 389.87975 340.184924 
L 414.66575 260.413908 
L 439.45175 169.546925 
L 464.23775 229.225241 
L 489.02375 296.100942 
L 513.80975 346.257717 
L 538.59575 356.903849 
" clip-path="url(#p5b25846447)" style="fill: none; stroke: #808080; stroke-opacity: 0.3; stroke-width: 1.5; stroke-linecap: square"/>
   </g>
   <g id="line2d_26">
    <path d="M 67.66175 277.199779 
L 92.44775 225.958173 
L 117.23375 156.387533 
L 142.01975 118.215326 
L 166.80575 58.287351 
L 191.59175 198.145855 
L 216.37775 288.1972 
L 241.16375 351.631598 
L 265.94975 348.523631 
L 290.73575 337.127753 
L 315.52175 344.778133 
L 340.30775 352.747279 
L 365.09375 364.541614 
L 389.87975 358.32568 
L 414.66575 332.58534 
L 439.45175 305.410554 
L 464.23775 257.994138 
L 489.02375 234.485159 
L 513.80975 166.10989 
L 538.59575 266.202358 
" clip-path="url(#p5b25846447)" style="fill: none; stroke: #808080; stroke-opacity: 0.3; stroke-width: 1.5; stroke-linecap: square"/>
   </g>
   <g id="line2d_27">
    <path d="M 67.66175 58.287351 
L 92.44775 265.088686 
L 117.23375 289.072522 
L 142.01975 238.497912 
L 166.80575 237.170743 
L 191.59175 327.513018 
L 216.37775 349.032112 
L 241.16375 351.923444 
L 265.94975 351.544253 
L 290.73575 334.907244 
L 315.52175 341.827481 
L 340.30775 340.263318 
L 365.09375 335.760424 
L 389.87975 331.210131 
L 414.66575 307.273694 
L 439.45175 258.12105 
L 464.23775 285.091016 
L 489.02375 325.854057 
L 513.80975 365.526924 
L 538.59575 373.205543 
" clip-path="url(#p5b25846447)" style="fill: none; stroke: #808080; stroke-opacity: 0.3; stroke-width: 1.5; stroke-linecap: square"/>
   </g>
   <g id="line2d_28">
    <path d="M 67.66175 58.287351 
L 92.44775 110.678677 
L 117.23375 186.412209 
L 142.01975 290.960971 
L 166.80575 358.227691 
L 191.59175 350.930327 
L 216.37775 364.168493 
L 241.16375 361.876372 
L 265.94975 356.075904 
L 290.73575 361.268259 
L 315.52175 353.082114 
L 340.30775 342.978073 
L 365.09375 358.227691 
L 389.87975 367.583285 
L 414.66575 359.350362 
L 439.45175 362.999044 
L 464.23775 372.494971 
L 489.02375 366.133168 
L 513.80975 340.592396 
L 538.59575 356.216238 
" clip-path="url(#p5b25846447)" style="fill: none; stroke: #808080; stroke-opacity: 0.3; stroke-width: 1.5; stroke-linecap: square"/>
   </g>
   <g id="line2d_29">
    <path d="M 67.66175 64.447096 
L 92.44775 58.287351 
L 117.23375 230.094281 
L 142.01975 98.74189 
L 166.80575 167.997396 
L 191.59175 260.393565 
L 216.37775 335.808816 
L 241.16375 359.781876 
L 265.94975 370.936008 
L 290.73575 368.938253 
L 315.52175 369.104733 
L 340.30775 364.609784 
L 365.09375 367.772896 
L 389.87975 368.105855 
L 414.66575 365.94162 
L 439.45175 351.457897 
L 464.23775 333.811061 
L 489.02375 342.467999 
L 513.80975 361.446672 
L 538.59575 373.266722 
" clip-path="url(#p5b25846447)" style="fill: none; stroke: #808080; stroke-opacity: 0.3; stroke-width: 1.5; stroke-linecap: square"/>
   </g>
   <g id="line2d_30">
    <path d="M 67.66175 58.287351 
L 92.44775 140.280853 
L 117.23375 317.820502 
L 142.01975 332.220187 
L 166.80575 368.134696 
L 191.59175 370.167593 
L 216.37775 371.014633 
L 241.16375 369.320553 
L 265.94975 374.063978 
L 290.73575 371.522857 
L 315.52175 370.167593 
L 340.30775 371.861673 
L 365.09375 373.04753 
L 389.87975 372.369898 
L 414.66575 373.04753 
L 439.45175 372.539306 
L 464.23775 373.04753 
L 489.02375 369.828777 
L 513.80975 372.878122 
L 538.59575 369.828777 
" clip-path="url(#p5b25846447)" style="fill: none; stroke: #808080; stroke-opacity: 0.3; stroke-width: 1.5; stroke-linecap: square"/>
   </g>
   <g id="line2d_31">
    <path d="M 67.66175 354.170481 
L 92.44775 354.416845 
L 117.23375 315.244974 
L 142.01975 58.287351 
L 166.80575 167.180227 
L 191.59175 208.569374 
L 216.37775 340.127735 
L 241.16375 359.836853 
L 265.94975 367.474136 
L 290.73575 366.981408 
L 315.52175 366.735044 
L 340.30775 359.590489 
L 365.09375 363.778676 
L 389.87975 348.750474 
L 414.66575 362.546857 
L 439.45175 338.156823 
L 464.23775 290.115849 
L 489.02375 303.912231 
L 513.80975 366.48868 
L 538.59575 368.95232 
" clip-path="url(#p5b25846447)" style="fill: none; stroke: #808080; stroke-opacity: 0.3; stroke-width: 1.5; stroke-linecap: square"/>
   </g>
   <g id="line2d_32">
    <path d="M 67.66175 364.237499 
L 92.44775 336.05788 
L 117.23375 277.849015 
L 142.01975 139.997366 
L 166.80575 182.756401 
L 191.59175 58.287351 
L 216.37775 209.086393 
L 241.16375 275.455379 
L 265.94975 359.776632 
L 290.73575 353.792543 
L 315.52175 364.128697 
L 340.30775 331.053005 
L 365.09375 315.929581 
L 389.87975 353.139734 
L 414.66575 370.221588 
L 439.45175 362.27907 
L 464.23775 368.589563 
L 489.02375 370.112786 
L 513.80975 371.962414 
L 538.59575 365.107912 
" clip-path="url(#p5b25846447)" style="fill: none; stroke: #808080; stroke-opacity: 0.3; stroke-width: 1.5; stroke-linecap: square"/>
   </g>
   <g id="line2d_33">
    <path d="M 67.66175 58.287351 
L 92.44775 121.493878 
L 117.23375 256.029858 
L 142.01975 317.967178 
L 166.80575 345.635898 
L 191.59175 353.758825 
L 216.37775 361.120228 
L 241.16375 339.543703 
L 265.94975 310.605775 
L 290.73575 291.567665 
L 315.52175 328.120837 
L 340.30775 344.874374 
L 365.09375 360.358704 
L 389.87975 364.420167 
L 414.66575 354.266508 
L 439.45175 316.444129 
L 464.23775 295.629128 
L 489.02375 349.951203 
L 513.80975 357.058765 
L 538.59575 366.450899 
" clip-path="url(#p5b25846447)" style="fill: none; stroke: #808080; stroke-opacity: 0.3; stroke-width: 1.5; stroke-linecap: square"/>
   </g>
   <g id="line2d_34">
    <path d="M 67.66175 95.889388 
L 92.44775 89.92368 
L 117.23375 61.541374 
L 142.01975 83.777194 
L 166.80575 58.287351 
L 191.59175 127.887275 
L 216.37775 176.155275 
L 241.16375 285.345805 
L 265.94975 351.691707 
L 290.73575 369.769609 
L 315.52175 371.938957 
L 340.30775 370.673504 
L 365.09375 368.142598 
L 389.87975 363.442343 
L 414.66575 364.707797 
L 439.45175 365.430913 
L 464.23775 361.996111 
L 489.02375 348.980021 
L 513.80975 335.783153 
L 538.59575 321.140052 
" clip-path="url(#p5b25846447)" style="fill: none; stroke: #808080; stroke-opacity: 0.3; stroke-width: 1.5; stroke-linecap: square"/>
   </g>
   <g id="line2d_35">
    <path d="M 67.66175 183.776437 
L 92.44775 58.287351 
L 117.23375 189.906651 
L 142.01975 81.245603 
L 166.80575 205.652887 
L 191.59175 273.686242 
L 216.37775 310.347325 
L 241.16375 363.235446 
L 265.94975 367.322255 
L 290.73575 360.71124 
L 315.52175 365.759651 
L 340.30775 363.475846 
L 365.09375 372.731267 
L 389.87975 368.163657 
L 414.66575 371.649465 
L 439.45175 370.086861 
L 464.23775 370.928263 
L 489.02375 369.72626 
L 513.80975 372.971668 
L 538.59575 375.495874 
" clip-path="url(#p5b25846447)" style="fill: none; stroke: #808080; stroke-opacity: 0.3; stroke-width: 1.5; stroke-linecap: square"/>
   </g>
   <g id="line2d_36">
    <path d="M 67.66175 58.287351 
L 92.44775 76.518285 
L 117.23375 152.644752 
L 142.01975 143.036558 
L 166.80575 168.165683 
L 191.59175 292.333125 
L 216.37775 323.128621 
L 241.16375 344.808651 
L 265.94975 355.648665 
L 290.73575 315.491338 
L 315.52175 312.042242 
L 340.30775 282.478566 
L 365.09375 354.663209 
L 389.87975 360.822309 
L 414.66575 360.329581 
L 439.45175 372.401415 
L 464.23775 368.213228 
L 489.02375 358.358669 
L 513.80975 349.243202 
L 538.59575 351.953206 
" clip-path="url(#p5b25846447)" style="fill: none; stroke: #808080; stroke-opacity: 0.3; stroke-width: 1.5; stroke-linecap: square"/>
   </g>
   <g id="line2d_37">
    <path d="M 67.66175 58.287351 
L 92.44775 239.036164 
L 117.23375 221.046946 
L 142.01975 249.315717 
L 166.80575 295.573707 
L 191.59175 289.577301 
L 216.37775 323.842479 
L 241.16375 340.975068 
L 265.94975 304.996631 
L 290.73575 340.118438 
L 315.52175 296.430337 
L 340.30775 314.419555 
L 365.09375 316.132814 
L 389.87975 313.562926 
L 414.66575 327.268997 
L 439.45175 314.419555 
L 464.23775 275.87123 
L 489.02375 289.577301 
L 513.80975 257.025382 
L 538.59575 147.376813 
" clip-path="url(#p5b25846447)" style="fill: none; stroke: #808080; stroke-opacity: 0.3; stroke-width: 1.5; stroke-linecap: square"/>
   </g>
   <g id="line2d_38">
    <path d="M 67.66175 303.485795 
L 92.44775 307.83935 
L 117.23375 282.184472 
L 142.01975 154.998469 
L 166.80575 102.133871 
L 191.59175 89.384173 
L 216.37775 58.287351 
L 241.16375 71.192532 
L 265.94975 131.831336 
L 290.73575 241.758603 
L 315.52175 341.11295 
L 340.30775 361.1704 
L 365.09375 359.460075 
L 389.87975 361.014916 
L 414.66575 357.594266 
L 439.45175 355.417488 
L 464.23775 363.81363 
L 489.02375 362.725241 
L 513.80975 356.505877 
L 538.59575 360.703948 
" clip-path="url(#p5b25846447)" style="fill: none; stroke: #808080; stroke-opacity: 0.3; stroke-width: 1.5; stroke-linecap: square"/>
   </g>
   <g id="line2d_39">
    <path d="M 67.66175 58.287351 
L 92.44775 142.032866 
L 117.23375 192.139031 
L 142.01975 214.957331 
L 166.80575 207.429644 
L 191.59175 250.008122 
L 216.37775 314.46394 
L 241.16375 273.767384 
L 265.94975 306.465773 
L 290.73575 332.812676 
L 315.52175 355.395737 
L 340.30775 368.333948 
L 365.09375 370.45111 
L 389.87975 372.097791 
L 414.66575 372.333032 
L 439.45175 372.803512 
L 464.23775 373.509233 
L 489.02375 374.214953 
L 513.80975 374.685434 
L 538.59575 376.096875 
" clip-path="url(#p5b25846447)" style="fill: none; stroke: #808080; stroke-opacity: 0.3; stroke-width: 1.5; stroke-linecap: square"/>
   </g>
   <g id="line2d_40">
    <path d="M 67.66175 153.097141 
L 92.44775 131.393695 
L 117.23375 114.005554 
L 142.01975 109.81717 
L 166.80575 97.252017 
L 191.59175 62.602656 
L 216.37775 216.938272 
L 241.16375 58.287351 
L 265.94975 62.729577 
L 290.73575 66.156437 
L 315.52175 106.517231 
L 340.30775 171.246807 
L 365.09375 191.934887 
L 389.87975 237.499431 
L 414.66575 266.437359 
L 439.45175 303.752055 
L 464.23775 310.098092 
L 489.02375 330.151568 
L 513.80975 350.712728 
L 538.59575 357.566447 
" clip-path="url(#p5b25846447)" style="fill: none; stroke: #808080; stroke-opacity: 0.3; stroke-width: 1.5; stroke-linecap: square"/>
   </g>
   <g id="line2d_41">
    <path d="M 67.66175 125.754827 
L 92.44775 58.287351 
L 117.23375 83.179078 
L 142.01975 191.713712 
L 166.80575 305.360789 
L 191.59175 298.739757 
L 216.37775 349.94799 
L 241.16375 366.961527 
L 265.94975 365.536748 
L 290.73575 357.82618 
L 315.52175 367.799633 
L 340.30775 360.508117 
L 365.09375 372.493022 
L 389.87975 363.525296 
L 414.66575 333.940179 
L 439.45175 214.761608 
L 464.23775 203.028134 
L 489.02375 321.45241 
L 513.80975 362.771001 
L 538.59575 371.738728 
" clip-path="url(#p5b25846447)" style="fill: none; stroke: #808080; stroke-opacity: 0.3; stroke-width: 1.5; stroke-linecap: square"/>
   </g>
   <g id="line2d_42">
    <path d="M 67.66175 58.287351 
L 92.44775 250.125743 
L 117.23375 326.696431 
L 142.01975 350.847759 
L 166.80575 364.570105 
L 191.59175 326.147537 
L 216.37775 324.500856 
L 241.16375 349.201078 
L 265.94975 300.623974 
L 290.73575 352.494441 
L 315.52175 352.494441 
L 340.30775 333.00871 
L 365.09375 343.437693 
L 389.87975 344.261033 
L 414.66575 297.056164 
L 439.45175 287.176076 
L 464.23775 320.933046 
L 489.02375 311.052957 
L 513.80975 314.620767 
L 538.59575 342.614352 
" clip-path="url(#p5b25846447)" style="fill: none; stroke: #808080; stroke-opacity: 0.3; stroke-width: 1.5; stroke-linecap: square"/>
   </g>
   <g id="line2d_43">
    <path d="M 67.66175 58.287351 
L 92.44775 204.071536 
L 117.23375 227.605269 
L 142.01975 294.041205 
L 166.80575 356.311878 
L 191.59175 363.601088 
L 216.37775 369.432455 
L 241.16375 373.181191 
L 265.94975 365.683719 
L 290.73575 368.807666 
L 315.52175 369.640718 
L 340.30775 367.974613 
L 365.09375 373.805981 
L 389.87975 367.558087 
L 414.66575 372.972928 
L 439.45175 368.182876 
L 464.23775 371.515086 
L 489.02375 375.472086 
L 513.80975 375.055559 
L 538.59575 374.847296 
" clip-path="url(#p5b25846447)" style="fill: none; stroke: #808080; stroke-opacity: 0.3; stroke-width: 1.5; stroke-linecap: square"/>
   </g>
   <g id="line2d_44">
    <path d="M 67.66175 227.892233 
L 92.44775 201.860598 
L 117.23375 252.805944 
L 142.01975 110.670026 
L 166.80575 176.787184 
L 191.59175 58.287351 
L 216.37775 132.709079 
L 241.16375 110.82973 
L 265.94975 228.690749 
L 290.73575 187.487303 
L 315.52175 294.4885 
L 340.30775 264.30458 
L 365.09375 278.198765 
L 389.87975 285.066006 
L 414.66575 345.114439 
L 439.45175 360.126547 
L 464.23775 365.716162 
L 489.02375 353.898119 
L 513.80975 318.284288 
L 538.59575 324.19331 
" clip-path="url(#p5b25846447)" style="fill: none; stroke: #808080; stroke-opacity: 0.3; stroke-width: 1.5; stroke-linecap: square"/>
   </g>
   <g id="line2d_45">
    <path d="M 67.66175 58.287351 
L 92.44775 69.07462 
L 117.23375 199.766526 
L 142.01975 258.266712 
L 166.80575 323.405218 
L 191.59175 269.053981 
L 216.37775 208.479319 
L 241.16375 157.032347 
L 265.94975 220.096378 
L 290.73575 123.425857 
L 315.52175 124.255647 
L 340.30775 173.628144 
L 365.09375 275.6923 
L 389.87975 234.617701 
L 414.66575 279.841249 
L 439.45175 319.671163 
L 464.23775 346.224439 
L 489.02375 360.330867 
L 513.80975 374.437295 
L 538.59575 370.703241 
" clip-path="url(#p5b25846447)" style="fill: none; stroke: #808080; stroke-opacity: 0.3; stroke-width: 1.5; stroke-linecap: square"/>
   </g>
   <g id="line2d_46">
    <path d="M 67.66175 255.767614 
L 92.44775 101.027253 
L 117.23375 58.287351 
L 142.01975 222.671588 
L 166.80575 117.904034 
L 191.59175 222.890767 
L 216.37775 283.822524 
L 241.16375 339.713164 
L 265.94975 364.042031 
L 290.73575 363.603673 
L 315.52175 370.836579 
L 340.30775 372.80919 
L 365.09375 375.220159 
L 389.87975 376.096875 
L 414.66575 375.220159 
L 439.45175 375.220159 
L 464.23775 375.658517 
L 489.02375 365.576284 
L 513.80975 365.137926 
L 538.59575 368.425611 
" clip-path="url(#p5b25846447)" style="fill: none; stroke: #808080; stroke-opacity: 0.3; stroke-width: 1.5; stroke-linecap: square"/>
   </g>
   <g id="line2d_47">
    <path d="M 67.66175 146.346241 
L 92.44775 164.237519 
L 117.23375 191.750808 
L 142.01975 186.756898 
L 166.80575 223.819753 
L 191.59175 247.872053 
L 216.37775 287.921549 
L 241.16375 299.270112 
L 265.94975 311.133914 
L 290.73575 314.128232 
L 315.52175 319.543923 
L 340.30775 324.055506 
L 365.09375 338.280325 
L 389.87975 343.099136 
L 414.66575 340.142923 
L 439.45175 326.411375 
L 464.23775 324.520238 
L 489.02375 337.538807 
L 513.80975 341.726579 
L 538.59575 347.493473 
" clip-path="url(#p5b25846447)" style="fill: none; stroke: #000000; stroke-width: 2; stroke-linecap: square"/>
   </g>
   <g id="patch_3">
    <path d="M 55.26875 376.096875 
L 55.26875 42.396875 
" style="fill: none; stroke: #000000; stroke-width: 1.5; stroke-linejoin: miter; stroke-linecap: square"/>
   </g>
   <g id="patch_4">
    <path d="M 55.26875 376.096875 
L 550.98875 376.096875 
" style="fill: none; stroke: #000000; stroke-width: 1.5; stroke-linejoin: miter; stroke-linecap: square"/>
   </g>
   <g id="text_15">
    <!-- + MinCDE (n=17) -->
    <g transform="translate(214.402187 22.396875) scale(0.2 -0.2)">
     <defs>
      <path id="DejaVuSans-2b" d="M 2944 4013 
L 2944 2272 
L 4684 2272 
L 4684 1741 
L 2944 1741 
L 2944 0 
L 2419 0 
L 2419 1741 
L 678 1741 
L 678 2272 
L 2419 2272 
L 2419 4013 
L 2944 4013 
z
" transform="scale(0.015625)"/>
      <path id="DejaVuSans-4d" d="M 628 4666 
L 1569 4666 
L 2759 1491 
L 3956 4666 
L 4897 4666 
L 4897 0 
L 4281 0 
L 4281 4097 
L 3078 897 
L 2444 897 
L 1241 4097 
L 1241 0 
L 628 0 
L 628 4666 
z
" transform="scale(0.015625)"/>
      <path id="DejaVuSans-43" d="M 4122 4306 
L 4122 3641 
Q 3803 3938 3442 4084 
Q 3081 4231 2675 4231 
Q 1875 4231 1450 3742 
Q 1025 3253 1025 2328 
Q 1025 1406 1450 917 
Q 1875 428 2675 428 
Q 3081 428 3442 575 
Q 3803 722 4122 1019 
L 4122 359 
Q 3791 134 3420 21 
Q 3050 -91 2638 -91 
Q 1578 -91 968 557 
Q 359 1206 359 2328 
Q 359 3453 968 4101 
Q 1578 4750 2638 4750 
Q 3056 4750 3426 4639 
Q 3797 4528 4122 4306 
z
" transform="scale(0.015625)"/>
      <path id="DejaVuSans-44" d="M 1259 4147 
L 1259 519 
L 2022 519 
Q 2988 519 3436 956 
Q 3884 1394 3884 2338 
Q 3884 3275 3436 3711 
Q 2988 4147 2022 4147 
L 1259 4147 
z
M 628 4666 
L 1925 4666 
Q 3281 4666 3915 4102 
Q 4550 3538 4550 2338 
Q 4550 1131 3912 565 
Q 3275 0 1925 0 
L 628 0 
L 628 4666 
z
" transform="scale(0.015625)"/>
      <path id="DejaVuSans-45" d="M 628 4666 
L 3578 4666 
L 3578 4134 
L 1259 4134 
L 1259 2753 
L 3481 2753 
L 3481 2222 
L 1259 2222 
L 1259 531 
L 3634 531 
L 3634 0 
L 628 0 
L 628 4666 
z
" transform="scale(0.015625)"/>
      <path id="DejaVuSans-28" d="M 1984 4856 
Q 1566 4138 1362 3434 
Q 1159 2731 1159 2009 
Q 1159 1288 1364 580 
Q 1569 -128 1984 -844 
L 1484 -844 
Q 1016 -109 783 600 
Q 550 1309 550 2009 
Q 550 2706 781 3412 
Q 1013 4119 1484 4856 
L 1984 4856 
z
" transform="scale(0.015625)"/>
      <path id="DejaVuSans-3d" d="M 678 2906 
L 4684 2906 
L 4684 2381 
L 678 2381 
L 678 2906 
z
M 678 1631 
L 4684 1631 
L 4684 1100 
L 678 1100 
L 678 1631 
z
" transform="scale(0.015625)"/>
      <path id="DejaVuSans-37" d="M 525 4666 
L 3525 4666 
L 3525 4397 
L 1831 0 
L 1172 0 
L 2766 4134 
L 525 4134 
L 525 4666 
z
" transform="scale(0.015625)"/>
      <path id="DejaVuSans-29" d="M 513 4856 
L 1013 4856 
Q 1481 4119 1714 3412 
Q 1947 2706 1947 2009 
Q 1947 1309 1714 600 
Q 1481 -109 1013 -844 
L 513 -844 
Q 928 -128 1133 580 
Q 1338 1288 1338 2009 
Q 1338 2731 1133 3434 
Q 928 4138 513 4856 
z
" transform="scale(0.015625)"/>
     </defs>
     <use xlink:href="#DejaVuSans-2b"/>
     <use xlink:href="#DejaVuSans-20" x="83.789062"/>
     <use xlink:href="#DejaVuSans-4d" x="115.576172"/>
     <use xlink:href="#DejaVuSans-69" x="201.855469"/>
     <use xlink:href="#DejaVuSans-6e" x="229.638672"/>
     <use xlink:href="#DejaVuSans-43" x="293.017578"/>
     <use xlink:href="#DejaVuSans-44" x="362.841797"/>
     <use xlink:href="#DejaVuSans-45" x="439.84375"/>
     <use xlink:href="#DejaVuSans-20" x="503.027344"/>
     <use xlink:href="#DejaVuSans-28" x="534.814453"/>
     <use xlink:href="#DejaVuSans-6e" x="573.828125"/>
     <use xlink:href="#DejaVuSans-3d" x="637.207031"/>
     <use xlink:href="#DejaVuSans-31" x="720.996094"/>
     <use xlink:href="#DejaVuSans-37" x="784.619141"/>
     <use xlink:href="#DejaVuSans-29" x="848.242188"/>
    </g>
   </g>
   <g id="legend_1">
    <g id="patch_5">
     <path d="M 445.824687 65.075 
L 543.98875 65.075 
Q 545.98875 65.075 545.98875 63.075 
L 545.98875 49.396875 
Q 545.98875 47.396875 543.98875 47.396875 
L 445.824687 47.396875 
Q 443.824687 47.396875 443.824687 49.396875 
L 443.824687 63.075 
Q 443.824687 65.075 445.824687 65.075 
z
" style="fill: #ffffff; opacity: 0.8; stroke: #cccccc; stroke-linejoin: miter"/>
    </g>
    <g id="line2d_48">
     <path d="M 447.824687 55.495312 
L 457.824687 55.495312 
L 467.824687 55.495312 
" style="fill: none; stroke: #000000; stroke-width: 2; stroke-linecap: square"/>
    </g>
    <g id="text_16">
     <!-- Overall Mean -->
     <g transform="translate(475.824687 58.995312) scale(0.1 -0.1)">
      <defs>
       <path id="DejaVuSans-4f" d="M 2522 4238 
Q 1834 4238 1429 3725 
Q 1025 3213 1025 2328 
Q 1025 1447 1429 934 
Q 1834 422 2522 422 
Q 3209 422 3611 934 
Q 4013 1447 4013 2328 
Q 4013 3213 3611 3725 
Q 3209 4238 2522 4238 
z
M 2522 4750 
Q 3503 4750 4090 4092 
Q 4678 3434 4678 2328 
Q 4678 1225 4090 567 
Q 3503 -91 2522 -91 
Q 1538 -91 948 565 
Q 359 1222 359 2328 
Q 359 3434 948 4092 
Q 1538 4750 2522 4750 
z
" transform="scale(0.015625)"/>
       <path id="DejaVuSans-76" d="M 191 3500 
L 800 3500 
L 1894 563 
L 2988 3500 
L 3597 3500 
L 2284 0 
L 1503 0 
L 191 3500 
z
" transform="scale(0.015625)"/>
      </defs>
      <use xlink:href="#DejaVuSans-4f"/>
      <use xlink:href="#DejaVuSans-76" x="78.710938"/>
      <use xlink:href="#DejaVuSans-65" x="137.890625"/>
      <use xlink:href="#DejaVuSans-72" x="199.414062"/>
      <use xlink:href="#DejaVuSans-61" x="240.527344"/>
      <use xlink:href="#DejaVuSans-6c" x="301.806641"/>
      <use xlink:href="#DejaVuSans-6c" x="329.589844"/>
      <use xlink:href="#DejaVuSans-20" x="357.373047"/>
      <use xlink:href="#DejaVuSans-4d" x="389.160156"/>
      <use xlink:href="#DejaVuSans-65" x="475.439453"/>
      <use xlink:href="#DejaVuSans-61" x="536.962891"/>
      <use xlink:href="#DejaVuSans-6e" x="598.242188"/>
     </g>
    </g>
   </g>
  </g>
 </g>
 <defs>
  <clipPath id="p5b25846447">
   <rect x="55.26875" y="42.396875" width="495.72" height="333.7"/>
  </clipPath>
 </defs>
</svg>
